<?xml version="1.0" encoding="utf-8"?>
<!-- Generator: Adobe Illustrator 27.9.0, SVG Export Plug-In . SVG Version: 6.00 Build 0)  -->
<svg version="1.1" id="Layer_1" xmlns="http://www.w3.org/2000/svg" xmlns:xlink="http://www.w3.org/1999/xlink" x="0px" y="0px"
	 viewBox="0 0 175.7 263.6" style="enable-background:new 0 0 175.7 263.6;" xml:space="preserve">
<style type="text/css">
	.st0{fill:#272727;stroke:#000000;}
	.st1{fill:#FFFFFF;}
	.st2{fill:none;stroke:#272727;stroke-width:0.674;stroke-linecap:square;}
</style>
<path class="st0" d="M23.5,9.3h128.8c7.8,0,14.1,6.4,14.1,14.2v216.6c0,7.8-6.3,14.2-14.1,14.2H23.5c-7.8,0-14.1-6.4-14.1-14.2V23.5
	C9.3,15.7,15.6,9.3,23.5,9.3z"/>
<rect x="21" y="23.5" class="st1" width="133.8" height="216.6"/>
<path class="st2" d="M87.9,131.8v-4.6h4.6v4.6H97v-4.6v-4.6h4.6v4.6h4.6h4.6v-4.6h4.6v-4.6h4.6v-4.6h4.6v4.6v4.6v4.6v4.6h4.6v-4.6
	v-4.6v-4.6h4.6v-4.6v-4.6h4.6h4.6h4.6v-4.6h-4.6h-4.6h-4.6v-4.6h-4.6v4.6h-4.6v4.6h-4.6v-4.6v-4.6h-4.6v-4.6v-4.6h4.6v-4.6v-4.6
	v-4.6h-4.6v-4.6h4.6v-4.6v-4.6v-4.6h-4.6V54v-4.6h4.6h4.6V54h-4.6 M124.4,54v4.6h4.6V54v-4.6h4.6V54h4.6v-4.6h4.6V54v4.6h-4.6h-4.6
	v4.6h4.6v4.6h-4.6h-4.6v4.6h-4.6v4.6v4.6v4.6v4.6h4.6v-4.6h4.6h4.6v4.6h-4.6v4.6h-4.6h-4.6h-4.6 M124.4,95.2v4.6 M133.5,95.2h4.6
	v4.6h4.6v-4.6h4.6v-4.6h4.6v-4.6v-4.6v-4.6h-4.6h-4.6h-4.6v4.6h-4.6v-4.6h-4.6v4.6 M133.5,76.9v-4.6h4.6h4.6h4.6v-4.6h4.6v-4.6v-4.6
	V54v-4.6v-4.6v-4.6v-4.6v-4.6v-4.6h-4.6h-4.6v4.6h-4.6h-4.6v-4.6h-4.6v4.6v4.6h4.6v4.6h-4.6h-4.6v-4.6v-4.6v-4.6h-4.6h-4.6h-4.6v4.6
	v4.6h-4.6h-4.6v-4.6v-4.6h4.6v4.6 M101.6,26.6H97v4.6v4.6v4.6v4.6h4.6v-4.6h4.6v4.6h4.6h4.6h4.6h4.6h4.6h4.6h4.6h4.6v-4.6h-4.6v-4.6
	h4.6h4.6v4.6v4.6v4.6V54v4.6v4.6h-4.6v4.6 M147.2,35.7v-4.6 M119.8,44.9v-4.6v-4.6v-4.6h-4.6v4.6v4.6h-4.6 M110.7,44.9v4.6V54v4.6
	h-4.6h-4.6V54h4.6v-4.6h-4.6H97h-4.6v-4.6h-4.6v4.6h-4.6h-4.6h-4.6h-4.6h-4.6v-4.6h-4.6v-4.6h-4.6h-4.6v-4.6v-4.6v-4.6h-4.6v4.6
	h-4.6h-4.6v-4.6h4.6 M37.7,26.6h-4.6h-4.6v4.6h4.6v4.6h4.6h4.6h4.6v4.6h-4.6h-4.6v4.6h4.6v4.6h4.6V54v4.6h4.6h4.6h4.6V54h4.6h4.6
	h4.6h4.6v4.6v4.6h4.6v4.6h4.6h4.6v4.6h-4.6v4.6h4.6v4.6h-4.6h-4.6v-4.6v-4.6h-4.6v-4.6h-4.6h-4.6v-4.6v-4.6h4.6v4.6 M69.6,58.6h-4.6
	v4.6v4.6v4.6h-4.6v4.6v4.6h4.6h4.6v4.6v4.6h4.6v-4.6h4.6v4.6h4.6h4.6v4.6h4.6H97v-4.6v-4.6v-4.6h4.6h4.6v-4.6h-4.6H97v-4.6v-4.6
	v-4.6h-4.6v-4.6h-4.6V54h-4.6v4.6 M87.9,54h4.6H97v4.6 M87.9,58.6v4.6 M97,63.2h4.6v4.6h4.6v4.6h4.6v-4.6h4.6v-4.6h-4.6h-4.6
	 M110.7,72.3v4.6v4.6v4.6v4.6v4.6h-4.6v-4.6v-4.6h-4.6v4.6v4.6v4.6v4.6H97v4.6v4.6h4.6v-4.6h4.6v4.6v4.6v4.6 M106.1,118.1h-4.6H97
	h-4.6v4.6h-4.6h-4.6v4.6h-4.6h-4.6v-4.6v-4.6v-4.6v-4.6h-4.6v-4.6v-4.6h-4.6h-4.6v4.6h-4.6v4.6h4.6v4.6h4.6v-4.6v-4.6 M65.1,113.5
	v4.6h-4.6v4.6v4.6v4.6h4.6h4.6v-4.6v-4.6v-4.6v-4.6 M69.6,122.7h-4.6v4.6 M69.6,131.8h4.6 M60.5,131.8h-4.6v4.6h4.6 M55.9,136.4v4.6
	 M55.9,131.8v-4.6h-4.6h-4.6h-4.6v4.6h-4.6h-4.6h-4.6v4.6v4.6H24v4.6v4.6v4.6v4.6v4.6v4.6 M24,163.8h4.6 M24,150.1h4.6v-4.6h4.6v4.6
	h4.6v-4.6V141v-4.6h4.6v4.6 M37.7,136.4h-4.6v4.6 M24,141v-4.6v-4.6v-4.6v-4.6v-4.6v-4.6v-4.6v-4.6h4.6v4.6h4.6v-4.6h4.6h4.6v-4.6
	h-4.6v-4.6h4.6h4.6v-4.6h-4.6h-4.6h-4.6v-4.6h4.6h4.6h4.6h4.6v-4.6v-4.6h-4.6v4.6h-4.6v-4.6h-4.6h-4.6h-4.6v-4.6v-4.6v-4.6H24v-4.6
	V54v-4.6h4.6h4.6v-4.6v-4.6h-4.6H24v-4.6v-4.6v-4.6 M24,35.7h4.6 M24,40.3v4.6h4.6 M33.1,49.4h4.6V54v4.6v4.6h4.6v-4.6V54
	 M42.2,63.2h4.6v4.6h-4.6v4.6h4.6h4.6v-4.6h4.6v4.6v4.6v4.6v4.6v4.6h4.6v-4.6h4.6v4.6v4.6h4.6h4.6h4.6h4.6v4.6h-4.6h-4.6v4.6h4.6
	v4.6v4.6v4.6v4.6 M78.7,118.1h4.6h4.6v-4.6h-4.6v-4.6h4.6h4.6v4.6 M92.4,108.9v-4.6h-4.6h-4.6 M87.9,104.4v-4.6h4.6H97 M65.1,95.2
	h-4.6h-4.6h-4.6v-4.6 M51.4,95.2v4.6h-4.6v4.6h4.6v4.6v4.6v4.6h4.6v4.6h-4.6h-4.6h-4.6h-4.6h-4.6h-4.6v4.6h4.6h4.6 M28.6,122.7v-4.6
	v-4.6h4.6v4.6h4.6v-4.6h4.6h4.6v4.6h-4.6 M46.8,113.5v-4.6h-4.6h-4.6 M55.9,118.1v-4.6 M51.4,99.8h4.6 M55.9,67.8v-4.6h4.6v4.6
	 M55.9,63.2h-4.6 M42.2,72.3h-4.6h-4.6v-4.6v-4.6v-4.6h-4.6V54h4.6 M33.1,67.8h4.6 M24,63.2v4.6v4.6v4.6v4.6v4.6h4.6v-4.6h4.6h4.6
	 M28.6,86.1v4.6H24v4.6v4.6h4.6v-4.6h4.6v4.6 M106.1,113.5h4.6v4.6 M110.7,113.5h4.6v-4.6v-4.6h-4.6v-4.6h-4.6v4.6 M110.7,104.4v4.6
	 M110.7,86.1h4.6v-4.6 M106.1,72.3h-4.6 M97,86.1h-4.6h-4.6h-4.6 M92.4,86.1v4.6 M78.7,86.1v-4.6v-4.6h-4.6v-4.6h-4.6v4.6h-4.6
	 M74.2,76.9v4.6 M60.5,54v-4.6h-4.6V54h-4.6v-4.6v-4.6h-4.6 M51.4,44.9h4.6 M51.4,26.6h4.6h4.6v4.6v4.6h-4.6v-4.6 M60.5,35.7h4.6
	v-4.6h4.6v-4.6h-4.6 M69.6,26.6h4.6h4.6v4.6h-4.6v4.6h-4.6v4.6v4.6h4.6h4.6h4.6v-4.6v-4.6h4.6v4.6h4.6v-4.6v-4.6v-4.6h-4.6h-4.6v4.6
	h4.6 M83.3,35.7h-4.6v4.6h-4.6 M69.6,40.3h-4.6 M133.5,26.6h4.6 M151.8,67.8v4.6 M138.1,81.5h4.6h4.6v4.6h-4.6v4.6 M124.4,72.3v-4.6
	v-4.6h4.6 M124.4,108.9h4.6v4.6"/>
<path class="st2" d="M87.9,131.8v4.6h-4.6v-4.6h-4.6v4.6v4.6h-4.6v-4.6h-4.6h-4.6v4.6h-4.6v4.6h-4.6v4.6h-4.6v-4.6V141v-4.6v-4.6
	h-4.6v4.6v4.6v4.6h-4.6v4.6v4.6h-4.6h-4.6h-4.6v4.6h4.6h4.6h4.6v4.6h4.6v-4.6h4.6v-4.6h4.6v4.6v4.6h4.6v4.6v4.6h-4.6v4.6v4.6v4.6
	h4.6v4.6h-4.6v4.6v4.6v4.6h4.6v4.6v4.6h-4.6h-4.6v-4.6h4.6 M51.4,209.6V205h-4.6v4.6v4.6h-4.6v-4.6h-4.6v4.6h-4.6v-4.6V205h4.6h4.6
	v-4.6h-4.6v-4.6h4.6h4.6v-4.6h4.6v-4.6v-4.6v-4.6V173h-4.6v4.6h-4.6h-4.6V173h4.6v-4.6h4.6h4.6h4.6 M51.4,168.4v-4.6 M42.2,168.4
	h-4.6v-4.6h-4.6v4.6h-4.6v4.6H24v4.6v4.6v4.6h4.6h4.6h4.6v-4.6h4.6v4.6h4.6v-4.6 M42.2,186.7v4.6h-4.6h-4.6h-4.6v4.6H24v4.6v4.6v4.6
	v4.6v4.6v4.6v4.6v4.6v4.6h4.6h4.6v-4.6h4.6h4.6v4.6h4.6v-4.6v-4.6h-4.6v-4.6h4.6h4.6v4.6v4.6v4.6h4.6h4.6h4.6v-4.6v-4.6h4.6h4.6v4.6
	v4.6h-4.6v-4.6 M74.2,237.1h4.6v-4.6v-4.6v-4.6v-4.6h-4.6v4.6h-4.6v-4.6h-4.6h-4.6h-4.6h-4.6h-4.6h-4.6h-4.6h-4.6v4.6h4.6v4.6h-4.6
	h-4.6v-4.6v-4.6v-4.6v-4.6V205v-4.6h4.6v-4.6 M28.6,227.9v4.6 M55.9,218.7v4.6v4.6v4.6h4.6v-4.6v-4.6h4.6 M65.1,218.7v-4.6v-4.6V205
	h4.6h4.6v4.6h-4.6v4.6h4.6h4.6h4.6v4.6h4.6v-4.6h4.6H97h4.6h4.6h4.6v4.6h4.6v4.6h4.6h4.6v4.6v4.6v4.6h4.6v-4.6h4.6h4.6v4.6h-4.6
	 M138.1,237.1h4.6h4.6v-4.6h-4.6v-4.6h-4.6h-4.6h-4.6v-4.6h4.6h4.6v-4.6h-4.6v-4.6h-4.6v-4.6V205h-4.6h-4.6h-4.6v4.6h-4.6h-4.6h-4.6
	H97V205v-4.6h-4.6v-4.6h-4.6h-4.6v-4.6h4.6v-4.6h-4.6v-4.6h4.6h4.6v4.6v4.6H97v4.6h4.6h4.6v4.6v4.6h-4.6v-4.6 M106.1,205h4.6v-4.6
	v-4.6v-4.6h4.6v-4.6v-4.6h-4.6h-4.6v-4.6V173h-4.6v4.6H97V173h-4.6h-4.6v-4.6h-4.6h-4.6v4.6v4.6v4.6h-4.6h-4.6v4.6h4.6h4.6v4.6v4.6
	v4.6h4.6v4.6h4.6v4.6h4.6V205 M87.9,209.6h-4.6h-4.6V205 M87.9,205v-4.6 M78.7,200.4h-4.6v-4.6h-4.6v-4.6h-4.6v4.6h-4.6v4.6h4.6h4.6
	 M65.1,191.3v-4.6v-4.6v-4.6V173v-4.6h4.6v4.6v4.6h4.6V173v-4.6v-4.6v-4.6h4.6v-4.6v-4.6h-4.6v4.6h-4.6v-4.6v-4.6V141 M69.6,145.5
	h4.6h4.6h4.6V141h4.6h4.6v-4.6H97h4.6v4.6v4.6v4.6v4.6h4.6v4.6v4.6h4.6h4.6v-4.6h4.6v-4.6h-4.6v-4.6h-4.6v4.6v4.6 M110.7,150.1v-4.6
	h4.6V141v-4.6v-4.6h-4.6h-4.6v4.6v4.6v4.6v4.6 M106.1,141h4.6v-4.6 M106.1,131.8h-4.6 M115.3,131.8h4.6v-4.6h-4.6 M119.8,127.2v-4.6
	 M119.8,131.8v4.6h4.6h4.6h4.6v-4.6h4.6h4.6h4.6v-4.6v-4.6h4.6v-4.6v-4.6v-4.6v-4.6v-4.6v-4.6 M151.8,99.8h-4.6 M151.8,113.5h-4.6
	v4.6h-4.6v-4.6h-4.6v4.6v4.6v4.6h-4.6v-4.6 M138.1,127.2h4.6v-4.6 M151.8,122.7v4.6v4.6v4.6v4.6v4.6v4.6v4.6v4.6h-4.6v-4.6h-4.6v4.6
	h-4.6h-4.6v4.6h4.6v4.6h-4.6h-4.6v4.6h4.6h4.6h4.6v4.6h-4.6h-4.6h-4.6h-4.6v4.6v4.6h4.6v-4.6h4.6v4.6h4.6h4.6h4.6v4.6v4.6v4.6h4.6
	v4.6v4.6v4.6h-4.6h-4.6v4.6v4.6h4.6h4.6v4.6v4.6v4.6 M151.8,227.9h-4.6 M151.8,223.3v-4.6h-4.6 M142.6,214.2h-4.6v-4.6V205v-4.6
	h-4.6v4.6v4.6 M133.5,200.4h-4.6v-4.6h4.6v-4.6h-4.6h-4.6v4.6h-4.6v-4.6v-4.6v-4.6v-4.6V173h-4.6v4.6h-4.6V173v-4.6h-4.6h-4.6H97
	h-4.6v-4.6H97h4.6v-4.6H97v-4.6v-4.6v-4.6V141 M97,145.5h-4.6h-4.6v4.6h4.6v4.6h-4.6h-4.6v-4.6 M83.3,154.7v4.6h4.6h4.6 M87.9,159.3
	v4.6h-4.6h-4.6 M110.7,168.4h4.6h4.6h4.6v4.6 M124.4,168.4v-4.6h4.6v-4.6h-4.6v-4.6v-4.6v-4.6h-4.6V141h4.6h4.6h4.6h4.6h4.6h4.6
	v-4.6h-4.6h-4.6 M147.2,141v4.6v4.6h-4.6v-4.6h-4.6v4.6h-4.6h-4.6v-4.6h4.6 M128.9,150.1v4.6h4.6h4.6 M119.8,145.5v4.6 M124.4,163.8
	h-4.6 M119.8,195.9v4.6h-4.6v-4.6 M119.8,200.4h4.6 M133.5,191.3h4.6h4.6v4.6v4.6v4.6h4.6v4.6h-4.6 M142.6,195.9h-4.6 M151.8,200.4
	v-4.6v-4.6v-4.6v-4.6v-4.6h-4.6v4.6h-4.6h-4.6 M147.2,177.6V173h4.6v-4.6v-4.6h-4.6v4.6h-4.6v-4.6 M69.6,150.1h-4.6v-4.6
	 M65.1,150.1h-4.6v4.6v4.6h4.6v4.6h4.6v-4.6 M65.1,159.3v-4.6 M65.1,177.6h-4.6v4.6 M69.6,191.3h4.6 M78.7,177.6h4.6h4.6h4.6
	 M83.3,177.6V173 M97,177.6v4.6v4.6h4.6v4.6h4.6v-4.6h4.6 M101.6,186.7v-4.6 M115.3,209.6v4.6h4.6v-4.6h4.6v4.6v4.6h4.6
	 M124.4,218.7h-4.6 M124.4,237.1h-4.6h-4.6v-4.6v-4.6h4.6v4.6 M115.3,227.9h-4.6v4.6h-4.6v4.6h4.6 M106.1,237.1h-4.6H97v-4.6h4.6
	v-4.6h4.6v-4.6v-4.6h-4.6H97h-4.6v4.6v4.6h-4.6v-4.6h-4.6v4.6v4.6v4.6h4.6h4.6v-4.6h-4.6 M92.4,227.9H97v-4.6h4.6 M106.1,223.3h4.6
	 M42.2,237.1h-4.6 M24,195.9v-4.6 M37.7,182.1h-4.6h-4.6v-4.6h4.6V173 M51.4,191.3v4.6v4.6h-4.6 M51.4,154.7h-4.6v-4.6"/>
</svg>
