<?xml version="1.0" encoding="utf-8"?>
<!-- Generator: Adobe Illustrator 27.9.0, SVG Export Plug-In . SVG Version: 6.00 Build 0)  -->
<svg version="1.1" id="Layer_1" xmlns="http://www.w3.org/2000/svg" xmlns:xlink="http://www.w3.org/1999/xlink" x="0px" y="0px"
	 viewBox="0 0 175.7 263.6" style="enable-background:new 0 0 175.7 263.6;" xml:space="preserve">
<style type="text/css">
	.st0{fill:#FFFFFF;fill-opacity:0;}
	.st1{fill:#FFFFFF;}
	.st2{fill:none;stroke:#FFFFFF;stroke-width:2.56;stroke-linecap:square;stroke-miterlimit:10;}
	.st3{fill:#272727;stroke:#000000;}
</style>
<symbol  id="SC7" viewBox="-11.2 -11.2 22.3 22.3">
	<rect x="-11.2" y="-11.2" class="st0" width="22.3" height="22.3"/>
	<path class="st1" d="M0.7,3.3c0.1,5.2,1.2,5.6,2.2,7.8h-5.8c1-2.2,2.1-2.6,2.2-7.8c0-0.1-0.1-0.2-0.2-0.2s-0.2,0.1-0.2,0.2
		C-1.6,5.9-4,7.6-6.6,7.1c-2.5-0.5-4.2-2.9-3.8-5.5c0.5-2.5,2.9-4.2,5.5-3.8c0.8,0.1,1.5,0.5,2.1,1c0.1,0.1,0.2,0.1,0.3,0
		c0.1-0.1,0.1-0.2,0-0.3c-2.5-1.4-3.4-4.5-2.1-7s4.5-3.4,7-2.1s3.4,4.5,2.1,7C4-2.6,3.3-1.9,2.5-1.4c-0.1,0.1-0.1,0.2,0,0.3
		c0.1,0.1,0.2,0.1,0.3,0c2-1.6,5-1.3,6.6,0.7s1.3,5-0.7,6.6s-5,1.3-6.6-0.7c-0.5-0.6-0.8-1.3-1-2.1c0-0.1-0.1-0.2-0.2-0.2
		S0.7,3.2,0.7,3.3z"/>
</symbol>
<symbol  id="VC7" viewBox="-10.2 -16 20.3 32">
	<path class="st2" d="M-8.9-10.2v-4.5h17C3.9-6.4-3.3,3.2-3.3,14.7"/>
</symbol>
<path class="st3" d="M23.5,9.3h128.8c7.8,0,14.1,6.4,14.1,14.2v216.6c0,7.8-6.3,14.2-14.1,14.2H23.5c-7.8,0-14.1-6.4-14.1-14.2V23.5
	C9.3,15.7,15.6,9.3,23.5,9.3z"/>
<g>
	<defs>
		<rect id="SVGID_1_" x="14.6" y="23.2" width="23.8" height="23.9"/>
	</defs>
	<clipPath id="SVGID_00000052810013584273471220000005942032252329869480_">
		<use xlink:href="#SVGID_1_"  style="overflow:visible;"/>
	</clipPath>
	<g style="clip-path:url(#SVGID_00000052810013584273471220000005942032252329869480_);">
		
			<use xlink:href="#VC7"  width="20.3" height="32" x="-10.2" y="-16" transform="matrix(0.7447 0 0 0.7468 26.8057 35.0998)" style="overflow:visible;"/>
	</g>
</g>
<g>
	<defs>
		<rect id="SVGID_00000156566673493957814380000008111165575128486569_" x="16.5" y="50.8" width="19.9" height="20"/>
	</defs>
	<clipPath id="SVGID_00000170957357490379447170000017714733821261681556_">
		<use xlink:href="#SVGID_00000156566673493957814380000008111165575128486569_"  style="overflow:visible;"/>
	</clipPath>
	
		<g transform="matrix(1 0 0 1 1.907349e-06 0)" style="clip-path:url(#SVGID_00000170957357490379447170000017714733821261681556_);">
		
			<use xlink:href="#SC7"  width="22.3" height="22.3" x="-11.2" y="-11.2" transform="matrix(0.7447 0 0 0.7468 26.5115 60.283)" style="overflow:visible;"/>
	</g>
</g>
<g>
	<defs>
		<rect id="SVGID_00000033357252308563926150000006189567124445006495_" x="35.6" y="35.7" width="40.2" height="40.3"/>
	</defs>
	<clipPath id="SVGID_00000134210836950338589040000012268854546484910254_">
		<use xlink:href="#SVGID_00000033357252308563926150000006189567124445006495_"  style="overflow:visible;"/>
	</clipPath>
	<g style="clip-path:url(#SVGID_00000134210836950338589040000012268854546484910254_);">
		
			<use xlink:href="#SC7"  width="22.3" height="22.3" x="-11.2" y="-11.2" transform="matrix(0.7447 0 0 0.7468 45.5884 45.1714)" style="overflow:visible;"/>
	</g>
</g>
<g>
	<defs>
		<rect id="SVGID_00000116223111653094392510000004297897208907680156_" x="99.9" y="35.7" width="40.2" height="40.3"/>
	</defs>
	<clipPath id="SVGID_00000138538960415951918420000004506645170653757871_">
		<use xlink:href="#SVGID_00000116223111653094392510000004297897208907680156_"  style="overflow:visible;"/>
	</clipPath>
	<g style="clip-path:url(#SVGID_00000138538960415951918420000004506645170653757871_);">
		
			<use xlink:href="#SC7"  width="22.3" height="22.3" x="-11.2" y="-11.2" transform="matrix(0.7447 0 0 0.7468 109.8809 45.1714)" style="overflow:visible;"/>
	</g>
</g>
<g>
	<defs>
		<rect id="SVGID_00000103242389519022625360000012334747992182638494_" x="35.6" y="86.3" width="40.2" height="40.3"/>
	</defs>
	<clipPath id="SVGID_00000074411585292684802400000002180878804054201218_">
		<use xlink:href="#SVGID_00000103242389519022625360000012334747992182638494_"  style="overflow:visible;"/>
	</clipPath>
	<g style="clip-path:url(#SVGID_00000074411585292684802400000002180878804054201218_);">
		
			<use xlink:href="#SC7"  width="22.3" height="22.3" x="-11.2" y="-11.2" transform="matrix(0.7447 0 0 0.7468 45.5884 95.8227)" style="overflow:visible;"/>
	</g>
</g>
<g>
	<defs>
		<polygon id="SVGID_00000038389174607006783830000011489289348053878207_" points="71.1,111.5 71.1,151.9 90.6,151.9 84.5,135.1 
			90.6,128.3 84.5,111.5 		"/>
	</defs>
	<clipPath id="SVGID_00000002366739473864384280000011918045261742810776_">
		<use xlink:href="#SVGID_00000038389174607006783830000011489289348053878207_"  style="overflow:visible;"/>
	</clipPath>
	
		<g transform="matrix(1 0 0 1 0 7.629395e-06)" style="clip-path:url(#SVGID_00000002366739473864384280000011918045261742810776_);">
		
			<use xlink:href="#SC7"  width="22.3" height="22.3" x="-11.2" y="-11.2" transform="matrix(0.7447 0 0 0.7468 77.7346 121.1476)" style="overflow:visible;"/>
	</g>
</g>
<g transform="rotate(180)">
	<g>
		<defs>
			<rect id="SVGID_00000170258923508067331430000013972299881963965863_" x="-161.2" y="-240.5" width="23.8" height="23.9"/>
		</defs>
		<clipPath id="SVGID_00000090279517774809874740000012414154013049306007_">
			<use xlink:href="#SVGID_00000170258923508067331430000013972299881963965863_"  style="overflow:visible;"/>
		</clipPath>
		<g style="clip-path:url(#SVGID_00000090279517774809874740000012414154013049306007_);">
			
				<use xlink:href="#VC7"  width="20.3" height="32" x="-10.2" y="-16" transform="matrix(0.7447 0 0 0.7468 -148.9423 -228.5222)" style="overflow:visible;"/>
		</g>
	</g>
	<g>
		<defs>
			<rect id="SVGID_00000146474286861760258070000013770105204221803195_" x="-159.2" y="-212.8" width="19.9" height="20"/>
		</defs>
		<clipPath id="SVGID_00000136405351921052870770000018293702137182974100_">
			<use xlink:href="#SVGID_00000146474286861760258070000013770105204221803195_"  style="overflow:visible;"/>
		</clipPath>
		<g style="clip-path:url(#SVGID_00000136405351921052870770000018293702137182974100_);">
			
				<use xlink:href="#SC7"  width="22.3" height="22.3" x="-11.2" y="-11.2" transform="matrix(0.7447 0 0 0.7468 -149.2365 -203.339)" style="overflow:visible;"/>
		</g>
	</g>
	<g>
		<defs>
			<rect id="SVGID_00000103979687992509849070000001846201630611993236_" x="-140.1" y="-228" width="40.2" height="40.3"/>
		</defs>
		<clipPath id="SVGID_00000057840674235250536220000005356087184211583930_">
			<use xlink:href="#SVGID_00000103979687992509849070000001846201630611993236_"  style="overflow:visible;"/>
		</clipPath>
		<g style="clip-path:url(#SVGID_00000057840674235250536220000005356087184211583930_);">
			
				<use xlink:href="#SC7"  width="22.3" height="22.3" x="-11.2" y="-11.2" transform="matrix(0.7447 0 0 0.7468 -130.1597 -218.4506)" style="overflow:visible;"/>
		</g>
	</g>
	<g>
		<defs>
			<rect id="SVGID_00000013183593659560272170000014855368776724283776_" x="-75.8" y="-228" width="40.2" height="40.3"/>
		</defs>
		<clipPath id="SVGID_00000103256082978128118590000012726372909342846901_">
			<use xlink:href="#SVGID_00000013183593659560272170000014855368776724283776_"  style="overflow:visible;"/>
		</clipPath>
		<g style="clip-path:url(#SVGID_00000103256082978128118590000012726372909342846901_);">
			
				<use xlink:href="#SC7"  width="22.3" height="22.3" x="-11.2" y="-11.2" transform="matrix(0.7447 0 0 0.7468 -65.8672 -218.4506)" style="overflow:visible;"/>
		</g>
	</g>
	<g>
		<defs>
			<rect id="SVGID_00000085218275548406423820000016413127382245731513_" x="-140.1" y="-177.3" width="40.2" height="40.3"/>
		</defs>
		<clipPath id="SVGID_00000124861493399633928370000000697364657981618618_">
			<use xlink:href="#SVGID_00000085218275548406423820000016413127382245731513_"  style="overflow:visible;"/>
		</clipPath>
		<g style="clip-path:url(#SVGID_00000124861493399633928370000000697364657981618618_);">
			
				<use xlink:href="#SC7"  width="22.3" height="22.3" x="-11.2" y="-11.2" transform="matrix(0.7447 0 0 0.7468 -130.1597 -167.7993)" style="overflow:visible;"/>
		</g>
	</g>
	<g>
		<defs>
			<polygon id="SVGID_00000129171468812223856780000013998197398590162067_" points="-104.6,-152.1 -104.6,-111.7 -85.2,-111.7 
				-91.2,-128.6 -85.2,-135.3 -91.2,-152.1 			"/>
		</defs>
		<clipPath id="SVGID_00000120530812629255228680000008456318731137395385_">
			<use xlink:href="#SVGID_00000129171468812223856780000013998197398590162067_"  style="overflow:visible;"/>
		</clipPath>
		<g style="clip-path:url(#SVGID_00000120530812629255228680000008456318731137395385_);">
			
				<use xlink:href="#SC7"  width="22.3" height="22.3" x="-11.2" y="-11.2" transform="matrix(0.7447 0 0 0.7468 -98.0134 -142.4744)" style="overflow:visible;"/>
		</g>
	</g>
</g>
</svg>
