<?xml version="1.0" encoding="utf-8"?>
<!-- Generator: Adobe Illustrator 27.9.0, SVG Export Plug-In . SVG Version: 6.00 Build 0)  -->
<svg version="1.1" id="Layer_1" xmlns="http://www.w3.org/2000/svg" xmlns:xlink="http://www.w3.org/1999/xlink" x="0px" y="0px"
	 viewBox="0 0 175.7 263.6" style="enable-background:new 0 0 175.7 263.6;" xml:space="preserve">
<style type="text/css">
	.st0{fill:#FFFFFF;fill-opacity:0;}
	.st1{fill:#FFFFFF;}
	.st2{fill:none;stroke:#FFFFFF;stroke-width:2.56;stroke-linecap:square;stroke-miterlimit:10;}
	.st3{fill:#272727;stroke:#000000;}
	.st4{clip-path:url(#SVGID_00000041266874157513563790000015011555727492058552_);}
	.st5{clip-path:url(#SVGID_00000003072421801359076900000005626301229391318963_);}
	.st6{clip-path:url(#SVGID_00000167383737268452244400000011872678294889441666_);}
	.st7{clip-path:url(#SVGID_00000085238952623359250500000009175961274276905624_);}
	.st8{clip-path:url(#SVGID_00000081617105368658181060000017546775494173158333_);}
	.st9{clip-path:url(#SVGID_00000059268228017032017130000007974818837439851149_);}
	.st10{clip-path:url(#SVGID_00000157304383339182551370000000359872751117150626_);}
	.st11{clip-path:url(#SVGID_00000144311983212136091370000007756409904047730869_);}
	.st12{clip-path:url(#SVGID_00000078018525657405454700000004136542446471015560_);}
	.st13{clip-path:url(#SVGID_00000052783640804498369050000007580885146760389257_);}
	.st14{clip-path:url(#SVGID_00000148661467952309425190000016643738277897558442_);}
	.st15{clip-path:url(#SVGID_00000163067678867452976770000016698215492988625836_);}
	.st16{clip-path:url(#SVGID_00000155869118540805865050000008364801036189236900_);}
	.st17{clip-path:url(#SVGID_00000100342492846218431960000017721773441041045679_);}
</style>
<symbol  id="SC9" viewBox="-11.1 -11.1 22.3 22.3">
	<rect x="-11.1" y="-11.1" class="st0" width="22.3" height="22.3"/>
	<path class="st1" d="M0.8,3.3C0.9,8.5,2,8.9,3,11.1h-5.8c1-2.2,2.1-2.6,2.2-7.8c0-0.1-0.1-0.2-0.2-0.2S-1,3.2-1,3.3
		c-0.5,2.6-2.9,4.3-5.5,3.8c-2.5-0.5-4.2-2.9-3.8-5.5c0.5-2.5,2.9-4.2,5.5-3.8c0.8,0.1,1.5,0.5,2.1,1c0.1,0.1,0.2,0.1,0.3,0
		s0.1-0.2,0-0.3c-2.5-1.4-3.4-4.5-2.1-7s4.5-3.4,7-2.1s3.4,4.5,2.1,7c-0.5,1-1.2,1.7-2,2.2c-0.1,0.1-0.1,0.2,0,0.3s0.2,0.1,0.3,0
		c2-1.6,5-1.3,6.6,0.7s1.3,5-0.7,6.6s-5,1.3-6.6-0.7c-0.5-0.6-0.8-1.3-1-2.1c0-0.1-0.1-0.2-0.2-0.2S0.8,3.2,0.8,3.3z"/>
</symbol>
<symbol  id="VC9" viewBox="-9.3 -16 18.6 32">
	<path class="st2" d="M8-3.2c0,4.4-3.6,8-8,8s-8-3.6-8-8v-3.5c0-4.4,3.6-8,8-8s8,3.6,8,8V6.7c0,4.4-3.6,8-8,8
		c-4.8,0-5.8-1.9-6.4-2.7"/>
</symbol>
<path class="st3" d="M23.5,9.3h128.8c7.8,0,14.1,6.4,14.1,14.2v216.6c0,7.8-6.3,14.2-14.1,14.2H23.5c-7.8,0-14.1-6.4-14.1-14.2V23.5
	C9.3,15.7,15.6,9.3,23.5,9.3z"/>
<g>
	<g>
		<defs>
			<rect id="SVGID_1_" x="14.6" y="23.2" width="23.8" height="23.9"/>
		</defs>
		<clipPath id="SVGID_00000158732189765814127410000007280697422976367275_">
			<use xlink:href="#SVGID_1_"  style="overflow:visible;"/>
		</clipPath>
		<g style="clip-path:url(#SVGID_00000158732189765814127410000007280697422976367275_);">
			<g>
				<defs>
					<rect id="SVGID_00000038387563080678529820000017240683140844551317_" x="19.6" y="23.2" width="13.9" height="23.9"/>
				</defs>
				<clipPath id="SVGID_00000022554176366929203950000006987426423631141800_">
					<use xlink:href="#SVGID_00000038387563080678529820000017240683140844551317_"  style="overflow:visible;"/>
				</clipPath>
				<g style="clip-path:url(#SVGID_00000022554176366929203950000006987426423631141800_);">
					
						<use xlink:href="#VC9"  width="18.6" height="32" x="-9.3" y="-16" transform="matrix(0.7447 0 0 0.7468 26.5111 35.0998)" style="overflow:visible;"/>
				</g>
			</g>
		</g>
	</g>
</g>
<g>
	<g>
		<defs>
			<rect id="SVGID_00000147914671844183498260000001297408712727099293_" x="16.5" y="50.8" width="19.9" height="20"/>
		</defs>
		<clipPath id="SVGID_00000168084342366676878070000015023611339853379466_">
			<use xlink:href="#SVGID_00000147914671844183498260000001297408712727099293_"  style="overflow:visible;"/>
		</clipPath>
		
			<g transform="matrix(1 0 0 1 1.907349e-06 0)" style="clip-path:url(#SVGID_00000168084342366676878070000015023611339853379466_);">
			<g>
				<defs>
					<rect id="SVGID_00000004538510885827493600000014417739484883015046_" x="18.2" y="51.9" width="16.6" height="16.7"/>
				</defs>
				<clipPath id="SVGID_00000082369743747133519180000018128722544545011850_">
					<use xlink:href="#SVGID_00000004538510885827493600000014417739484883015046_"  style="overflow:visible;"/>
				</clipPath>
				<g style="clip-path:url(#SVGID_00000082369743747133519180000018128722544545011850_);">
					
						<use xlink:href="#SC9"  width="22.3" height="22.3" x="-11.1" y="-11.1" transform="matrix(0.7447 0 0 0.7468 26.4743 59.7229)" style="overflow:visible;"/>
				</g>
			</g>
		</g>
	</g>
</g>
<g>
	<g>
		<defs>
			<rect id="SVGID_00000065796862392001113220000002377343214163341452_" x="35.6" y="35.7" width="40.2" height="40.3"/>
		</defs>
		<clipPath id="SVGID_00000059311879734811784620000016405967461710548129_">
			<use xlink:href="#SVGID_00000065796862392001113220000002377343214163341452_"  style="overflow:visible;"/>
		</clipPath>
		<g style="clip-path:url(#SVGID_00000059311879734811784620000016405967461710548129_);">
			<g>
				<defs>
					<rect id="SVGID_00000158732956447743156740000001249621077556381335_" x="37.2" y="36.8" width="16.6" height="16.7"/>
				</defs>
				<clipPath id="SVGID_00000084488600983925804570000008416381277119055235_">
					<use xlink:href="#SVGID_00000158732956447743156740000001249621077556381335_"  style="overflow:visible;"/>
				</clipPath>
				<g style="clip-path:url(#SVGID_00000084488600983925804570000008416381277119055235_);">
					
						<use xlink:href="#SC9"  width="22.3" height="22.3" x="-11.1" y="-11.1" transform="matrix(0.7447 0 0 0.7468 45.5512 44.6113)" style="overflow:visible;"/>
				</g>
			</g>
		</g>
	</g>
</g>
<g>
	<g>
		<defs>
			<rect id="SVGID_00000132801094023658346030000003877670514511654069_" x="99.9" y="35.7" width="40.2" height="40.3"/>
		</defs>
		<clipPath id="SVGID_00000049213920512151751860000004541774345530508688_">
			<use xlink:href="#SVGID_00000132801094023658346030000003877670514511654069_"  style="overflow:visible;"/>
		</clipPath>
		<g style="clip-path:url(#SVGID_00000049213920512151751860000004541774345530508688_);">
			<g>
				<defs>
					<rect id="SVGID_00000043454337441611154520000012094798297216377780_" x="101.5" y="36.8" width="16.6" height="16.7"/>
				</defs>
				<clipPath id="SVGID_00000048463145042491997170000010118219324815964806_">
					<use xlink:href="#SVGID_00000043454337441611154520000012094798297216377780_"  style="overflow:visible;"/>
				</clipPath>
				
					<g transform="matrix(1 0 0 1 7.629395e-06 0)" style="clip-path:url(#SVGID_00000048463145042491997170000010118219324815964806_);">
					
						<use xlink:href="#SC9"  width="22.3" height="22.3" x="-11.1" y="-11.1" transform="matrix(0.7447 0 0 0.7468 109.8437 44.6113)" style="overflow:visible;"/>
				</g>
			</g>
		</g>
	</g>
</g>
<g>
	<g>
		<defs>
			<rect id="SVGID_00000125599537772917525400000017187718627948417417_" x="35.6" y="86.3" width="40.2" height="40.3"/>
		</defs>
		<clipPath id="SVGID_00000118387199395904053940000011907515471766005389_">
			<use xlink:href="#SVGID_00000125599537772917525400000017187718627948417417_"  style="overflow:visible;"/>
		</clipPath>
		<g style="clip-path:url(#SVGID_00000118387199395904053940000011907515471766005389_);">
			<g>
				<defs>
					<rect id="SVGID_00000077282519148698701400000005357155162944888470_" x="37.2" y="87.5" width="16.6" height="16.7"/>
				</defs>
				<clipPath id="SVGID_00000052804360129663159960000011710626630835210918_">
					<use xlink:href="#SVGID_00000077282519148698701400000005357155162944888470_"  style="overflow:visible;"/>
				</clipPath>
				<g style="clip-path:url(#SVGID_00000052804360129663159960000011710626630835210918_);">
					
						<use xlink:href="#SC9"  width="22.3" height="22.3" x="-11.1" y="-11.1" transform="matrix(0.7447 0 0 0.7468 45.5512 95.2626)" style="overflow:visible;"/>
				</g>
			</g>
		</g>
	</g>
</g>
<g>
	<g>
		<defs>
			<rect id="SVGID_00000076561826020585136540000007409765829770250122_" x="99.9" y="86.3" width="40.2" height="40.3"/>
		</defs>
		<clipPath id="SVGID_00000111899699005578606960000017523308387706290561_">
			<use xlink:href="#SVGID_00000076561826020585136540000007409765829770250122_"  style="overflow:visible;"/>
		</clipPath>
		<g style="clip-path:url(#SVGID_00000111899699005578606960000017523308387706290561_);">
			<g>
				<defs>
					<rect id="SVGID_00000155112498468836176320000013802930368688785061_" x="101.5" y="87.5" width="16.6" height="16.7"/>
				</defs>
				<clipPath id="SVGID_00000043421536759962784880000000278835101777799304_">
					<use xlink:href="#SVGID_00000155112498468836176320000013802930368688785061_"  style="overflow:visible;"/>
				</clipPath>
				
					<g transform="matrix(1 0 0 1 7.629395e-06 0)" style="clip-path:url(#SVGID_00000043421536759962784880000000278835101777799304_);">
					
						<use xlink:href="#SC9"  width="22.3" height="22.3" x="-11.1" y="-11.1" transform="matrix(0.7447 0 0 0.7468 109.8437 95.2626)" style="overflow:visible;"/>
				</g>
			</g>
		</g>
	</g>
</g>
<g>
	<g>
		<defs>
			<polygon id="SVGID_00000158005980040994512680000008485232578205395890_" points="71.1,111.5 71.1,151.9 90.6,151.9 84.5,135.1 
				90.6,128.3 84.5,111.5 			"/>
		</defs>
		<clipPath id="SVGID_00000087400511204214895210000010170405401205196693_">
			<use xlink:href="#SVGID_00000158005980040994512680000008485232578205395890_"  style="overflow:visible;"/>
		</clipPath>
		
			<g transform="matrix(1 0 0 1 0 7.629395e-06)" style="clip-path:url(#SVGID_00000087400511204214895210000010170405401205196693_);">
			<g>
				<defs>
					<rect id="SVGID_00000177442983384257214630000012697945094221100960_" x="69.4" y="112.8" width="16.6" height="16.7"/>
				</defs>
				<clipPath id="SVGID_00000018201363518681193140000008113479259976910522_">
					<use xlink:href="#SVGID_00000177442983384257214630000012697945094221100960_"  style="overflow:visible;"/>
				</clipPath>
				
					<g transform="matrix(1 0 0 1 0 -7.629395e-06)" style="clip-path:url(#SVGID_00000018201363518681193140000008113479259976910522_);">
					
						<use xlink:href="#SC9"  width="22.3" height="22.3" x="-11.1" y="-11.1" transform="matrix(0.7447 0 0 0.7468 77.6974 120.5875)" style="overflow:visible;"/>
				</g>
			</g>
		</g>
	</g>
</g>
<g>
	<g>
		<defs>
			<rect id="SVGID_00000127727459345206843310000003358562721122272913_" x="137.4" y="216.6" width="23.8" height="23.9"/>
		</defs>
		<clipPath id="SVGID_00000011723193871856730240000008583194023714048161_">
			<use xlink:href="#SVGID_00000127727459345206843310000003358562721122272913_"  style="overflow:visible;"/>
		</clipPath>
		<g style="clip-path:url(#SVGID_00000011723193871856730240000008583194023714048161_);">
			<g>
				<defs>
					<rect id="SVGID_00000004543656355836355450000011563161786531843475_" x="142.3" y="216.6" width="13.9" height="23.9"/>
				</defs>
				<clipPath id="SVGID_00000090293649167549923480000004237215178933397397_">
					<use xlink:href="#SVGID_00000004543656355836355450000011563161786531843475_"  style="overflow:visible;"/>
				</clipPath>
				
					<g transform="matrix(1 0 0 1 0 1.525879e-05)" style="clip-path:url(#SVGID_00000090293649167549923480000004237215178933397397_);">
					
						<use xlink:href="#VC9"  width="18.6" height="32" x="-9.3" y="-16" transform="matrix(-0.7447 0 0 -0.7468 149.2369 228.5222)" style="overflow:visible;"/>
				</g>
			</g>
		</g>
	</g>
</g>
<g>
	<g>
		<defs>
			<rect id="SVGID_00000115483839697872505010000015821010872132873364_" x="139.3" y="192.8" width="19.9" height="20"/>
		</defs>
		<clipPath id="SVGID_00000174579778124606125880000003717400345818013314_">
			<use xlink:href="#SVGID_00000115483839697872505010000015821010872132873364_"  style="overflow:visible;"/>
		</clipPath>
		<g style="clip-path:url(#SVGID_00000174579778124606125880000003717400345818013314_);">
			<g>
				<defs>
					<rect id="SVGID_00000071561604011948043750000002014562569766609073_" x="141" y="195" width="16.6" height="16.7"/>
				</defs>
				<clipPath id="SVGID_00000023963251360989823950000007815237660012252583_">
					<use xlink:href="#SVGID_00000071561604011948043750000002014562569766609073_"  style="overflow:visible;"/>
				</clipPath>
				
					<g transform="matrix(1 0 0 1 0 1.525879e-05)" style="clip-path:url(#SVGID_00000023963251360989823950000007815237660012252583_);">
					
						<use xlink:href="#SC9"  width="22.3" height="22.3" x="-11.1" y="-11.1" transform="matrix(-0.7447 0 0 -0.7468 149.2737 203.8991)" style="overflow:visible;"/>
				</g>
			</g>
		</g>
	</g>
</g>
<g>
	<g>
		<defs>
			<rect id="SVGID_00000034082110456094086190000003214485868456108715_" x="99.9" y="187.7" width="40.2" height="40.3"/>
		</defs>
		<clipPath id="SVGID_00000116935799947790952060000011389150869406590122_">
			<use xlink:href="#SVGID_00000034082110456094086190000003214485868456108715_"  style="overflow:visible;"/>
		</clipPath>
		<g style="clip-path:url(#SVGID_00000116935799947790952060000011389150869406590122_);">
			<g>
				<defs>
					<rect id="SVGID_00000042016920212635193850000014704482912368813981_" x="121.9" y="210.2" width="16.6" height="16.7"/>
				</defs>
				<clipPath id="SVGID_00000101793245621193736570000001958145596100119691_">
					<use xlink:href="#SVGID_00000042016920212635193850000014704482912368813981_"  style="overflow:visible;"/>
				</clipPath>
				
					<g transform="matrix(1 0 0 1 0 1.525879e-05)" style="clip-path:url(#SVGID_00000101793245621193736570000001958145596100119691_);">
					
						<use xlink:href="#SC9"  width="22.3" height="22.3" x="-11.1" y="-11.1" transform="matrix(-0.7447 0 0 -0.7468 130.1969 219.0107)" style="overflow:visible;"/>
				</g>
			</g>
		</g>
	</g>
</g>
<g>
	<g>
		<defs>
			<rect id="SVGID_00000034769620205192873710000013308009899147157154_" x="35.6" y="187.7" width="40.2" height="40.3"/>
		</defs>
		<clipPath id="SVGID_00000075858453479624606340000018343013942685516940_">
			<use xlink:href="#SVGID_00000034769620205192873710000013308009899147157154_"  style="overflow:visible;"/>
		</clipPath>
		<g style="clip-path:url(#SVGID_00000075858453479624606340000018343013942685516940_);">
			<g>
				<defs>
					<rect id="SVGID_00000183232665701740550580000001290616226110234280_" x="57.6" y="210.2" width="16.6" height="16.7"/>
				</defs>
				<clipPath id="SVGID_00000102504934025969191870000009742182700302881668_">
					<use xlink:href="#SVGID_00000183232665701740550580000001290616226110234280_"  style="overflow:visible;"/>
				</clipPath>
				
					<g transform="matrix(1 0 0 1 0 1.525879e-05)" style="clip-path:url(#SVGID_00000102504934025969191870000009742182700302881668_);">
					
						<use xlink:href="#SC9"  width="22.3" height="22.3" x="-11.1" y="-11.1" transform="matrix(-0.7447 0 0 -0.7468 65.9044 219.0107)" style="overflow:visible;"/>
				</g>
			</g>
		</g>
	</g>
</g>
<g>
	<g>
		<defs>
			<rect id="SVGID_00000169558001256434077610000010753917297626187415_" x="99.9" y="137" width="40.2" height="40.3"/>
		</defs>
		<clipPath id="SVGID_00000099649982125783072190000004278873034047591862_">
			<use xlink:href="#SVGID_00000169558001256434077610000010753917297626187415_"  style="overflow:visible;"/>
		</clipPath>
		<g style="clip-path:url(#SVGID_00000099649982125783072190000004278873034047591862_);">
			<g>
				<defs>
					<rect id="SVGID_00000039131937461438622470000006423252768635881141_" x="121.9" y="159.5" width="16.6" height="16.7"/>
				</defs>
				<clipPath id="SVGID_00000083076178656911920200000010764976481181714071_">
					<use xlink:href="#SVGID_00000039131937461438622470000006423252768635881141_"  style="overflow:visible;"/>
				</clipPath>
				<g style="clip-path:url(#SVGID_00000083076178656911920200000010764976481181714071_);">
					
						<use xlink:href="#SC9"  width="22.3" height="22.3" x="-11.1" y="-11.1" transform="matrix(-0.7447 0 0 -0.7468 130.1969 168.3594)" style="overflow:visible;"/>
				</g>
			</g>
		</g>
	</g>
</g>
<g>
	<g>
		<defs>
			<rect id="SVGID_00000108990830946775828470000015920237634399568791_" x="35.6" y="137" width="40.2" height="40.3"/>
		</defs>
		<clipPath id="SVGID_00000013885520699456089900000005342032739032092047_">
			<use xlink:href="#SVGID_00000108990830946775828470000015920237634399568791_"  style="overflow:visible;"/>
		</clipPath>
		<g style="clip-path:url(#SVGID_00000013885520699456089900000005342032739032092047_);">
			<g>
				<defs>
					<rect id="SVGID_00000004524076902701602830000008483004710077063850_" x="57.6" y="159.5" width="16.6" height="16.7"/>
				</defs>
				<clipPath id="SVGID_00000008868789609016024100000007382792922969088699_">
					<use xlink:href="#SVGID_00000004524076902701602830000008483004710077063850_"  style="overflow:visible;"/>
				</clipPath>
				<g style="clip-path:url(#SVGID_00000008868789609016024100000007382792922969088699_);">
					
						<use xlink:href="#SC9"  width="22.3" height="22.3" x="-11.1" y="-11.1" transform="matrix(-0.7447 0 0 -0.7468 65.9044 168.3594)" style="overflow:visible;"/>
				</g>
			</g>
		</g>
	</g>
</g>
<g>
	<g>
		<defs>
			<polygon id="SVGID_00000110459434156641797730000017858661544494320812_" points="104.6,152.1 104.6,111.7 85.2,111.7 
				91.2,128.6 85.2,135.3 91.2,152.1 			"/>
		</defs>
		<clipPath id="SVGID_00000142163580150270402090000007441909694464587664_">
			<use xlink:href="#SVGID_00000110459434156641797730000017858661544494320812_"  style="overflow:visible;"/>
		</clipPath>
		<g style="clip-path:url(#SVGID_00000142163580150270402090000007441909694464587664_);">
			<g>
				<defs>
					<rect id="SVGID_00000109030191685774420030000007085494121049466259_" x="89.7" y="134.2" width="16.6" height="16.7"/>
				</defs>
				<clipPath id="SVGID_00000028303621361712947530000002886261696597745849_">
					<use xlink:href="#SVGID_00000109030191685774420030000007085494121049466259_"  style="overflow:visible;"/>
				</clipPath>
				<g style="clip-path:url(#SVGID_00000028303621361712947530000002886261696597745849_);">
					
						<use xlink:href="#SC9"  width="22.3" height="22.3" x="-11.1" y="-11.1" transform="matrix(-0.7447 0 0 -0.7468 98.0506 143.0345)" style="overflow:visible;"/>
				</g>
			</g>
		</g>
	</g>
</g>
</svg>
