<?xml version="1.0" encoding="utf-8"?>
<!-- Generator: Adobe Illustrator 27.9.0, SVG Export Plug-In . SVG Version: 6.00 Build 0)  -->
<svg version="1.1" id="Layer_1" xmlns="http://www.w3.org/2000/svg" xmlns:xlink="http://www.w3.org/1999/xlink" x="0px" y="0px"
	 viewBox="0 0 175.7 263.6" style="enable-background:new 0 0 175.7 263.6;" xml:space="preserve">
<style type="text/css">
	.st0{fill:none;stroke:#000000;stroke-width:0.6129;stroke-linecap:round;stroke-linejoin:round;stroke-miterlimit:10;}
	.st1{fill:none;stroke:#000000;stroke-width:0.3065;stroke-linecap:round;stroke-linejoin:round;stroke-miterlimit:10;}
	.st2{fill:#FFFFFF;fill-opacity:0;}
	.st3{fill:#FFFFFF;}
	
		.st4{fill:none;stroke:#FFFFFF;stroke-width:12;stroke-linecap:round;stroke-linejoin:round;stroke-miterlimit:10;stroke-opacity:0;}
	.st5{fill:none;stroke:#FFFFFF;stroke-width:12;stroke-linecap:round;stroke-linejoin:round;stroke-miterlimit:10;}
	.st6{fill:none;stroke:#FFFFFF;stroke-width:2.56;stroke-linecap:square;stroke-miterlimit:10;}
	.st7{fill:#272727;stroke:#000000;}
	.st8{clip-path:url(#SVGID_00000142868794179258860160000001621364697350034840_);}
	.st9{clip-path:url(#SVGID_00000011003142500040372540000007485588764500990092_);}
	.st10{clip-path:url(#SVGID_00000093136533677584064290000006458705695154013335_);}
	.st11{clip-path:url(#SVGID_00000176019432343029568800000014111319075254377106_);}
	.st12{clip-path:url(#SVGID_00000066480053194529886890000008036623271190915467_);}
	.st13{clip-path:url(#SVGID_00000022530413231247494340000013610827715117201329_);}
	.st14{clip-path:url(#SVGID_00000031177178441602219740000000681769097879649463_);}
	.st15{clip-path:url(#SVGID_00000072999830560886828200000004589608893230045067_);}
	.st16{clip-path:url(#SVGID_00000097477733153780892200000008885895051845980587_);}
	.st17{clip-path:url(#SVGID_00000027581988478682830280000000574366633918817152_);}
	.st18{fill:none;stroke:#FFFFFF;}
	.st19{clip-path:url(#SVGID_00000109010416089366773730000014837298857042308267_);}
	.st20{clip-path:url(#SVGID_00000129910952839353793120000005482666070081686183_);}
</style>
<symbol  id="CJ1" viewBox="-53.4 -73 106.8 146">
	<path d="M8.9-26.6h13.3v1.5H8.9V-26.6z M8.9-13.3h10.6L18-11.7H9L8.9-13.3z M40.1-49.1v4.2l0.8,1.2l-0.8,1.2v4.3l3.7-5.5L40.1-49.1
		z M53.3-49.6l-3.9,5.9l4,6V-42l-1.1-1.7l1.1-1.7L53.3-49.6z M42.4-54.2l4.2,6.3l3-4.5L47.1-53l-0.6,0.8l-0.8-1.2L42.4-54.2z
		 M46.6-39.4l-4,6l4,6l2-3l2-3l-2-3L46.6-39.4z M46.6-35.2L46.6-35.2l1.2,1.7l-1.1,1.7v0.1l-1.2-1.7L46.6-35.2z M40.1-24.9
		c0.7-0.2,1.4-0.3,2.2-0.5l-2.2-3.2V-24.9z M51.5-26.3l1.9-2.9v2.9C52.7-26.3,52.1-26.3,51.5-26.3z M-16,16.6
		c1.8-3.7,3.4-7.4,4.7-11.2l6.9,4.6C-8,12.9-11.8,15.2-16,16.6z M49.7-17.6c-1.2,0-2.5,0.1-3.7,0.2l-0.6,0.1l0.5,3.7l0.6-0.1
		c0.2,0,0.4,0,0.7-0.1l0.8-1.3c-0.3,0-0.6,0.1-1,0.1l-0.2-1.2c0.6-0.1,1.3-0.1,2-0.2l2.6-3.9h-0.6c-3.6,0-6.9,0.5-9.9,1.2l-0.7,0.2
		l1.5,4.8c-2.3,0.6-4.4,1.5-6.4,2.5l-0.7-1c1-0.5,2.1-1,3.1-1.4l0.7-0.3l-1.7-3.4l-0.5,0.2c-3.1,1.3-5.9,2.9-8.5,4.8l-0.5,0.4l3.1,4
		c-2,1.5-3.9,3.1-5.8,5l-0.9-0.9c0.9-0.9,1.9-1.8,2.8-2.6L27-7.3l-2.5-2.8L24-9.7c-2.4,2-4.8,4.3-7.1,6.7l-0.6,0.5L20,1.2
		c-2,2-4,4.2-6.1,6.5L13,6.8c0.6-0.6,1.1-1.1,1.6-1.7L15,4.6l-1-0.9l-0.4,0.5c-0.7,0.7-1.3,1.4-2,2.1L11,6.8l2.8,2.7L14.3,9
		c2.5-2.6,4.7-5.1,7-7.4l0.5-0.5l-3.6-3.6c2.1-2.1,4.1-4.1,6.2-5.9l0.8,0.9c-1,0.8-1.9,1.7-2.9,2.6l-0.5,0.4l2.6,2.8L24.9-2
		c2.2-2.2,4.4-4.1,6.7-5.7l0.5-0.4L29-12c2.2-1.6,4.6-3,7.2-4l0.6,1.1c-1.1,0.5-2.2,1-3.3,1.6L32.9-13l2,3.2l0.5-0.3
		c2.2-1.2,4.6-2.2,7.2-2.8l0.7-0.2L41.9-18c2.6-0.6,5.3-1,8.3-1v0.5 M-53.4,73l12.3-12.3 M-17.6-47.5c0.3,7.4,0,14.9-1,22.5
		l-6.4-1.7c0.2,1,0.2,1.9,0,2.7c-1-0.6-2.1-1.5-3.1-2.3c-2,9.3-3.9,18.7-13,29.5v23c14.2-12.9,26-41.5,24.6-72.9 M-8.6-71
		c0,1.1-0.5,2-1,2c-0.6,0-1-0.9-1-2s0.5-2,1-2l0,0C-9.1-73-8.6-72.1-8.6-71L-8.6-71z M5.8-70.8c0,1.1-0.5,2-1,2l0,0
		c-0.6,0-1-0.9-1-2l0,0c0-1.1,0.5-2,1-2l0,0C5.3-72.8,5.8-71.9,5.8-70.8L5.8-70.8z"/>
</symbol>
<symbol  id="CJ2" viewBox="-49.3 -60.2 98.7 120.4">
	<path d="M-0.6,12.8l-11.5-6c0.1-1,0.1-1.9,0.2-2.8l10.8,6.3L30-6.1v2.6L-0.6,12.8z M-15.5,31.1c-0.2,1.2-0.5,2.4-0.8,3.6
		c4.5,2,8.3,4.7,11.9,7.5c1.1-1.1,2.1-2.2,3.2-3.3V12.7l-2.1-1v26.8C-6.9,35.5-10.9,33-15.5,31.1z M16.2,22.3V3.9l2.1-1.1v18.1
		C17.6,21.3,16.9,21.8,16.2,22.3z M49.3-9.7c-0.6-0.4-1.3-0.7-2.1-1v24c0.3,0,0.6,0.1,1,0.1c0.4-0.4,0.7-0.8,1.1-1.2V-9.7z
		 M-26.7,14.4c1-7.6,1.4-15,1-22.5l-1.9,0.8c0.1,0.5,0.1,0.9,0.2,1.4c0.6,6.6,0,14.1-1.1,19.8L-26.7,14.4z M-49.2,40.5h1.7l0.9-1.2
		h-2.6L-49.2,40.5z M-49.2,37.5h3.9l0.6-1.2h-4.7L-49.2,37.5z M-49.2,31.3h7.4l0.5-1.2h-8L-49.2,31.3z M-49.2,34.4h5.8l0.6-1.2h-6.4
		V34.4z M-49.2,28.3h8.8l0.4-1.3h-9.2V28.3z M-49.2,25.2h8.6c0.3,0,0.6-0.3,0.6-0.6c0-0.3-0.3-0.6-0.6-0.6h-8.7L-49.2,25.2z
		 M-49.2,21.8h6.6c0.4,0,0.4-0.6,0-0.6h-6.6V21.8z M-49.2,18.8h4.6c0.4,0,0.4-0.6,0-0.6h-4.7L-49.2,18.8z M-34.3,14.7l-0.1,0.6
		c-1.8,8.6-4.1,17.8-12.4,28l-0.1,0.2v16.7l1.1-1.4c7.8-9.7,14.5-24.7,17.5-42l0.1-0.6L-34.3,14.7z M-33.4,16.2l3.7,1
		c-2.9,16.1-8.9,30-16,39.5V43.9C-37.7,33.9-35.2,24.7-33.4,16.2z M16.7-1.7l-2.6-5.5L8-4.1l2.6,5.6 M12.4-4c0.7,0,1.3,0.6,1.3,1.3
		s-0.6,1.2-1.3,1.2S11.1-2,11.1-2.7S11.7-4,12.4-4z M18.3-9.3l2.6,5.5l6-3.2l-2.5-5.3L18.3-9.3z M22.6-9.4c0.7,0,1.3,0.6,1.3,1.3
		s-0.6,1.3-1.3,1.3s-1.3-0.6-1.3-1.3S21.9-9.4,22.6-9.4z M-1.1,0.6l2.7,5.7l6.1-3.1L5-2.6L-1.1,0.6z M3.2,0.3c0.7,0,1.3,0.6,1.3,1.3
		S3.9,2.9,3.2,2.9S1.9,2.3,1.9,1.6S2.5,0.3,3.2,0.3z M-8.2-2.3l-2.7,4.6l6,3.4L-2.2,1L-8.2-2.3z M-5.5,0.9c0.4,0.6,0.3,1.4-0.3,1.8
		S-7.2,3-7.6,2.4C-8,1.8-7.8,1-7.3,0.6S-5.9,0.3-5.5,0.9z M32.2-43.9l-1.4-0.2c-10.7-1.7-21.7-3.2-33-3.1C-9-47.2-16-46.6-23-45.1
		l-1.2,0.2l1.7,2.1c18.5-3.8,35.9-1.6,53.1,1L32.2-43.9l13.6-16.3"/>
</symbol>
<symbol  id="CJ3" viewBox="-61.1 -85.1 122.2 170.2">
	<path class="st0" d="M33.4-72.4l-2.6-0.4C20-74.4,8.9-76-2.6-75.9c-6.9,0-14,0.6-21.2,2.1l-2.3,0.5 M-17.4-42.4
		c0.5,2.6,0.5,7.7-3.1,8.7s-7.2-1.5-7.2-1.5 M-49.5-35.9v-32.5 M-60.8,84.8l11.2-11.2V-27 M-49.6,60.7C-17.5,34-13,0.9-11.8-34.2
		 M-24.4,29.4C0.4,20.9,9.9-16.7,47.9-13.3 M-26.3,33C-12,29.4-2.9,17.4,7.1,7.2C17.2-3,27.8-11.6,45.7-10.6 M-14.6-36.9
		c-1,35.2-4.6,67.4-34.9,93.8 M49-36.4v21.8 M47-37.4v23.9 M44.9-38.3v24.7 M31.7-41.8v29.7 M29.6-42.1v30.6 M30-42.1
		c16.9,2.5,23.7,7.7,30.8,14.5 M-18.8,15.9c2.9,1.4,5.4,3.3,7.9,5.2 M-17.4,10.7c4,2.1,7.2,4.5,10.3,6.9 M-16.7,8
		c4.5,2.1,8.3,4.7,12,7.5 M-15.9,4.5c4.6,1.9,8.6,4.4,12.3,7.2 M-12.2-24.9l10.6,6l31.2-16.3 M-12.4-22.7l10.9,6.3l31.2-16.3
		 M-12.6-19.8l11.5,6l30.6-16.3 M-3.6-15.1v26.8 M-1.5-14.1v26.3 M0.5-14.6V10 M13.8-21.7v19 M15.8-22.8v18.5 M17.9-23.8v18.1
		 M-11.9-30.9l9.4,5.4L30.1-42 M9.2-6.6c0-1.1-0.9-2-2-2s-2,0.9-2,2s0.9,2,2,2S9.2-5.5,9.2-6.6L9.2-6.6 M5.1-8.7c-1.5-3.1,1-2.6,2-2
		c1-0.5,3.6-1,2,2c3.1-1.5,2.6,1,2,2c0.5,1,1.1,3.5-2,2c1.5,3.1-1,2.6-2,2c-1,0.5-3.6,1-2-2c-3.1,1.5-2.6-1-2-2
		C2.6-7.7,2-10.2,5.1-8.7L5.1-8.7 M2.7,7.6c0-0.5,0.2-1.1,0.4-1.5c-0.5-1-1-3.6,2-2c-1.5-3.1,1-2.6,2-2c0.4-0.2,1-0.4,1.6-0.4
		 M6.1-17.6c0.3,0.2,0.7,0.3,1,0.3c1.1,0,1.9-0.8,2-1.8 M11.6-20.5c-0.1,0.4-0.2,0.8-0.4,1.1c0.5,1,1.1,3.5-2,2c1.5,3.1-1,2.6-2,2
		c-1,0.5-3.3,1-2.2-1.6 M-19.7,18.2l6.9,4.6 M31.7-40.6L45-20.7 M45-20.7l-4.9,7.3 M31.7-20l4.7,7 M43.4-38.8
		C39.5-33,35.5-27,31.8-21.3 M31.7-15.9l2.2,3.3 M43-13.6l1.9-2.9 M-15.9,17.4l1.3-2.4c1.2-2.1,4-0.3,2.9,1.7l-1.5,2.5 M-11.7,16.8
		c1.2-2.1,3.8-0.2,2.7,1.9l-1.2,2.1 M-18.8,15.9l1.4-2.7c1.2-2.1,3.8-0.2,2.7,1.9 M-53.6-35v-29.3h-7.2 M-53.6-27v-1.2 M-53.6-21.6
		v-4.1 M-60.8,78.7l7.2-7.2v-91.8 M-60.8-68.4h14.3l-14.3-16.1 M-60.8-71.5h8.2l-8.2-8.2 M-28.6,6.6c0,0.4-0.3,0.8-0.8,0.8l0,0
		c-0.4,0-0.8-0.3-0.8-0.8l0,0c0-0.4,0.3-0.8,0.8-0.8l0,0C-28.9,5.9-28.6,6.2-28.6,6.6L-28.6,6.6L-28.6,6.6 M-28.6,6.6
		c3.1-4.1,8.2,0.5,9.2-1 M-28.6,7.2c1,5,7.4,2.8,7.7,4.6 M-28.3,6.8c3.4-1.8,8.4,2.9,8.9-1.1 M-20.9,11.7c0.5-3.1-6.8-2.1-7.4-4.7
		c2.5,2.5,6.9,3.2,7.9,2.2 M-20.4,9.2c0.4-2.1-6.5-3.4-8.2-2 M-26.8-0.5c0,0.4-0.3,0.8-0.7,0.8c-0.4,0-0.8-0.3-0.8-0.7
		s0.3-0.8,0.7-0.8C-27.2-1.2-26.8-0.9-26.8-0.5L-26.8-0.5 M-26.8-0.5c2.8-4.3,8.1,0,9.1-1.5 M-26.8,0c1.3,4.9,7.5,2.3,7.9,4.2
		 M-26.5-0.4c3.2-2,8.5,2.5,8.8-1.7 M-18.9,4.2c0.3-3.1-6.8-1.7-7.6-4.3c2.6,2.4,7,2.8,8,1.7 M-18.6,1.6c0.3-2.2-6.6-3-8.2-1.6
		 M-25.3-8.3c0,0.4-0.3,0.8-0.7,0.8s-0.8-0.3-0.8-0.7S-26.5-9-26.1-9C-25.7-9.1-25.4-8.8-25.3-8.3L-25.3-8.3 M-25.3-8.3
		c2.6-4.3,7.8-0.1,8.6-1.8 M-25.3-7.8c1.3,4.9,7.2,2.2,7.6,4 M-25-8.2c3-2.1,8.2,2.3,8.3-1.9 M-17.7-3.9C-17.4-7-24.3-5.4-25-8
		c2.6,2.3,6.8,2.6,7.7,1.5 M-17.4-6.5c0.2-2.2-6.4-2.9-7.9-1.4 M-24.2-15.3c0.1,0.4-0.2,0.8-0.6,0.9l0,0c-0.4,0.1-0.7-0.2-0.8-0.6
		l0,0c-0.1-0.4,0.2-0.8,0.6-0.9l0,0C-24.6-16-24.2-15.8-24.2-15.3L-24.2-15.3L-24.2-15.3 M-24.2-15.3c2.1-4.5,7.4-0.8,8.1-2.5
		 M-24.1-14.8c1.7,4.8,7.1,1.5,7.6,3.3 M-23.9-15.3c2.8-2.4,8,1.5,7.8-2.6 M-16.5-11.6c0-3.1-6.4-0.9-7.4-3.4c2.7,2.1,6.7,2,7.5,0.8
		 M-16.4-14.2c0-2.2-6.3-2.3-7.7-0.7 M-23.3-23.2c0.1,0.4-0.2,0.8-0.6,0.9l0,0c-0.4,0.1-0.7-0.2-0.8-0.6l0,0
		c-0.1-0.4,0.2-0.8,0.6-0.9l0,0C-23.7-23.9-23.4-23.7-23.3-23.2L-23.3-23.2L-23.3-23.2 M-23.3-23.2c2.1-4.5,7.3-0.8,8-2.5
		 M-23.3-22.7c1.6,4.8,7,1.5,7.5,3.3 M-23-23.2c2.7-2.4,7.9,1.5,7.7-2.6 M-15.8-19.5c0-3.1-6.3-0.9-7.3-3.4c2.6,2.1,6.6,2,7.4,0.8
		 M-15.7-22.1c0-2.2-6.3-2.3-7.6-0.7 M-23.3-30c0.1,0.4-0.2,0.8-0.6,0.9s-0.8-0.2-0.8-0.6l0,0c-0.1-0.4,0.2-0.8,0.6-0.9
		S-23.4-30.4-23.3-30L-23.3-30L-23.3-30 M-23.3-30c2.1-4.6,7.5-1.1,8.2-2.8 M-23.2-29.5c1.8,4.7,7.2,1.3,7.8,3.1 M-23-29.9
		c2.7-2.4,8.1,1.3,7.9-2.8 M-15.5-26.4c-0.1-3.1-6.5-0.8-7.5-3.2c2.7,2,6.8,1.8,7.5,0.6 M-15.5-29c0-2.2-6.5-2.1-7.8-0.5
		 M-30.9,13.7c-0.1,0.4-0.4,0.8-0.9,0.7l0,0c-0.4-0.1-0.7-0.5-0.7-0.9l0,0c0.1-0.4,0.4-0.8,0.9-0.7l0,0
		C-31.1,12.8-30.8,13.2-30.9,13.7L-30.9,13.7L-30.9,13.7 M-30.9,13.7c3.6-3.9,8.3,1.6,9.5,0.1 M-31,14.2c0.4,5.5,7.2,3.9,7.3,5.9
		 M-30.6,13.9c3.7-1.5,8.2,4.2,9.2-0.1 M-23.7,20.1c0.9-3.2-6.7-3.1-7-6c2.3,3,6.6,4.3,7.8,3.3 M-22.8,17.5c0.7-2.2-6.2-4.5-8.1-3.2
		 M-34,20.8c-0.1,0.4-0.5,0.8-0.9,0.7c-0.4-0.1-0.7-0.5-0.7-0.9l0,0c0.1-0.4,0.5-0.8,0.9-0.7C-34.2,20-33.9,20.4-34,20.8L-34,20.8
		L-34,20.8 M-34,20.8c3.7-3.9,8.2,1.7,9.5,0.2 M-34,21.4c0.4,5.4,7.1,4,7.2,5.9 M-33.7,21c3.7-1.5,8.1,4.3,9.2,0 M-26.9,27.3
		c0.9-3.2-6.6-3.2-6.9-6c2.2,3,6.6,4.3,7.7,3.4 M-26,24.7c0.7-2.2-6.1-4.5-8-3.3 M-37.7,27.8c-0.1,0.4-0.6,0.7-1,0.6l0,0
		c-0.4-0.1-0.7-0.6-0.6-1l0,0c0.1-0.4,0.6-0.7,1-0.6S-37.6,27.4-37.7,27.8L-37.7,27.8 M-37.7,27.8c4.3-3.4,8.1,3,9.6,1.7
		 M-37.9,28.3c-0.4,5.5,6.7,5.1,6.4,7.1 M-37.5,28c3.9-0.9,7.6,5.6,9.3,1.5 M-31.5,35.4c1.4-3-6.3-4.2-6.1-7.2
		c1.8,3.4,6,5.4,7.4,4.6 M-30.2,32.9c1-2.1-5.6-5.5-7.7-4.6 M-42.7,34.9c-0.2,0.4-0.7,0.6-1.1,0.5l0,0c-0.4-0.2-0.6-0.7-0.5-1.1l0,0
		c0.2-0.4,0.7-0.6,1.1-0.5C-42.7,33.9-42.5,34.4-42.7,34.9L-42.7,34.9L-42.7,34.9 M-42.7,34.9c4.7-2.9,8,3.8,9.6,2.7 M-42.9,35.4
		c-1,5.4,6.3,5.8,5.8,7.7 M-42.4,35.1c4.1-0.5,7.2,6.4,9.3,2.5 M-37.1,43.1c1.7-2.9-5.9-4.8-5.5-7.7c1.5,3.5,5.6,6,7,5.4
		 M-35.5,40.7c1.3-2-5.1-6-7.3-5.4 M-47.9,40.7c-0.2,0.4-0.7,0.6-1.1,0.4l0,0c-0.4-0.2-0.6-0.7-0.4-1.2l0,0c0.2-0.4,0.7-0.6,1.1-0.4
		C-47.9,39.8-47.7,40.3-47.9,40.7L-47.9,40.7L-47.9,40.7 M-47.9,40.7c5.1-2.7,8,4.6,9.8,3.5 M-48.2,41.3c-1.4,5.8,6.1,6.6,5.5,8.7
		 M-47.7,41c4.3-0.2,7.1,7.3,9.6,3.3 M-42.6,49.9c2-3-5.8-5.6-5.2-8.7c1.3,3.9,5.4,6.8,6.9,6.2 M-40.9,47.5c1.5-2-4.9-6.8-7.3-6.2
		 M-49.5,39.1c14.2-13,26-41.6,24.6-73 M-47.7,54.5c0.8-1-0.2-2.9-1.9-4.4 M-49.5,54.1c0.8,0.5,1.4,0.5,1.9,0.3 M-49.5,56.7
		c0.5-0.7,0.4-1.3,0.1-2 M-49.5,50.1c1.8,1.9,3.2,3.8,5,1.5 M-49.5,47.6c2.3,1.6,3.6,4.5,4.9,3.9 M-49.5,16
		c9.1-10.8,10.9-20.2,12.9-29.6 M-59.3-64.4c0,2.5,2,4.7,2,7.2s-2,4.7-2,7.2 M-59-19.9c0.5,1.9,1.8,3.7,1.8,5.6c0,2.5-2,4.7-2,7.2
		 M-59.1-22.5c0,0.2-0.1,0.4-0.1,0.6 M-59.3-50.1c0,2.5,2,4.7,2,7.2s-2,4.7-2,7.2c0,1.9,1.2,3.6,1.8,5.5 M-59.3-7.2
		c0,2.5,2,4.7,2,7.2s-2,4.7-2,7.2s2,4.7,2,7.2s-2,4.7-2,7.2s2,4.7,2,7.2s-2,4.7-2,7.2s2,4.7,2,7.2s-2,4.7-2,7.2s2,4.7,2,7.2
		s-2,4.7-2,7.2s2,4.7,2,7.2c0,1.8-1.1,3.5-1.7,5.3 M-57.7-64.4c0,2.5,2,4.7,2,7.2s-2,4.7-2,7.2 M-57.4-19.6c0.6,1.8,1.7,3.5,1.7,5.3
		c0,2.5-2,4.7-2,7.2 M-57.7-50.1c0,2.5,2,4.7,2,7.2s-2,4.7-2,7.2c0,1.9,1.2,3.6,1.7,5.3 M-57.7-7.2c0,2.5,2,4.7,2,7.2s-2,4.7-2,7.2
		s2,4.7,2,7.2s-2,4.7-2,7.2s2,4.7,2,7.2s-2,4.7-2,7.2s2,4.7,2,7.2s-2,4.7-2,7.2s2,4.7,2,7.2s-2,4.7-2,7.2s2,4.7,2,7.2
		c0,0.9-0.3,1.7-0.6,2.6 M-56.2-64.4c0,2.5,2,4.7,2,7.2s-2,4.7-2,7.2 M-55.9-19.8c0.6,1.8,1.8,3.6,1.8,5.4c0,2.5-2,4.7-2,7.2
		 M-56.2-50.1c0,2.5,2,4.7,2,7.2s-2,4.7-2,7.2c0,1.1,0.4,2.2,0.9,3.3 M-56.2-7.2c0,2.5,2,4.7,2,7.2s-2,4.7-2,7.2s2,4.7,2,7.2
		s-2,4.7-2,7.2s2,4.7,2,7.2s-2,4.7-2,7.2s2,4.7,2,7.2s-2,4.7-2,7.2s2,4.7,2,7.2s-2,4.7-2,7.2s2,4.7,2,7.2c0,0.2,0,0.3,0,0.5
		 M-60.8-73h6.5 M-60.8-74.6h5 M-60.8-76.1h3.6 M-60.8-77.6h2.1 M-46.5-25.5c-3.1,0-4.1-2-3.1-6.1c-1.3,0.7-1.3-0.6-1.5-1.5
		c0,0-0.9,1.1-1.9,2.7c-1,1.5-3.7-0.1-2.2-2.2c1.5-2,1.7-2.7,2-3.1c0.5-0.5,2.6-0.5,4.6,0s5.6,5.1,5.6,5.1
		c-0.2,4.1-0.8,7.8-1.5,11.2c-1.7,0.6-3.4,0.7-5,0.3 M-53.5-29.9c0.6,0.2,1,0.5,1,0.9c0,0.7-1.7,1.3-3.7,1.3s-3.7-0.6-3.7-1.3
		s1.7-1.3,3.7-1.3c0.4,0,0.7,0,1,0.1 M-53.1-26.3c0,0.7-1.6,1.3-3.7,1.3c-2,0-3.7-0.6-3.7-1.3l0,0c0-0.7,1.6-1.3,3.7-1.3l0,0
		C-54.8-27.6-53.1-27-53.1-26.3L-53.1-26.3 M-53.6-23.5c0,0.7-1.5,1.3-3.3,1.3s-3.3-0.6-3.3-1.3l0,0c0-0.7,1.5-1.3,3.3-1.3l0,0
		C-55.1-24.8-53.6-24.2-53.6-23.5L-53.6-23.5 M-53.1-20.9c0,0.7-1.6,1.3-3.6,1.3l0,0c-2,0-3.6-0.6-3.6-1.3l0,0
		c0-0.7,1.6-1.3,3.6-1.3l0,0C-54.7-22.2-53.1-21.6-53.1-20.9L-53.1-20.9L-53.1-20.9 M-42.9-30.6c0.9-0.7,1.5-0.6,2-0.5
		c0.7,5.5-0.5,9-1.5,12.8c-1.4,0.3-2,0-2-1 M-40.9-31.2c3.1-1,5.9-2.9,9.7-2c0,0.7-0.2,1.3-0.5,1.8c-0.6,1.1-1.8,1.8-3.1,2.3
		c2.2,0.4,3.5,1.6,4.6,3.1c-1,1.4-2.7,2.3-5,2.3c2.1,0.7,3.4,2,4.5,3.8c-1.9,0.7-3.8,1.5-5.1,1c2,2.8,2.7,5.5,2.2,7.6
		c-3-1.9-6.3-5.3-8.9-7.1 M-33.3-33.4c-2,2.4-4.3,4.4-7.3,5.2v0.2c2.8,0.2,5.4,0.7,7.4,1.9c-2.5,1.1-5,1.6-7.7,1.3v0.3
		c2.4,0.9,5.1,1.3,6.7,3.6c-2.9,0.4-5-0.2-7.2-0.8l-0.1,0.5c2.4,2.4,4.4,5.2,5.9,8.4 M-18.9-34.5c1.6-0.2,3.2-0.5,4.3-0.6 M-26-33.4
		c0.3,0,1-0.1,2-0.3 M-31.3-32.6l4.9-2l0.4,0.3c0.3,7.3,0,14.6-1,22l-6.4-1.7 M-28-33.9c0.1,0.5,0.1,0.9,0.2,1.4
		c0.6,6.6,0,14.1-1.1,19.8 M5-71.3c5.9,11.5,3.2,19.9,3.2,30.4c0,7.7,8.7,7.2,8.7,0.5c0-5.1-6.1-4.6-6.1-0.5c0,3.1,4.6,3.1,4.6,1
		c0-1-0.5-1.5-1-2 M7.6-71.2c5.8,11.5,2.4,20.5,3.1,30.3 M10.2-71c4.9,10.1,1.6,18.7,2.1,27.2 M12.9-70.7c4.6,9.9,0.4,18.4,1.5,26.7
		 M15.6-70.4c4.2,9.5-0.4,17.4,1,25.8 M18.3-70.1c3.8,9-0.1,16.5,0.7,24.4 M21-69.8c3.4,8.4,0.1,15.5,0.5,22.8 M23.7-69.3
		c2.9,7.7,0.3,14.4,0.3,21.2 M26.4-69c2.5,7.1,0.5,13.3,0.2,19.6 M29.1-68.6c2.2,6.5,0.5,12.3,0.1,18 M14.5-35.8
		c2.3,0.3,4.9-1.5,4.9-5.1c0-3.7-3.1-4.4-4.9-3.1 M17-36.3c2.2,0.1,4.5-1.7,4.5-5.1c0-3.6-3-4.4-4.8-3.2 M19.9-37.4
		c1.9-0.3,3.6-2.1,3.6-5c0-4-3.7-4.6-5.4-2.7 M21.9-38.4c1.9-0.3,3.6-2.1,3.6-5c0-4-3.8-4.6-5.4-2.6 M24-39.4c1.9-0.4,3.6-2.1,3.6-5
		c0-4-3.7-4.6-5.4-2.7 M25.7-39.9c1.8-0.4,3.4-2.1,3.4-5c0-3.5-2.9-4.4-4.7-3.2 M27.9-41c1.8-0.5,3.3-2.2,3.3-5c0-4-3.7-4.6-5.4-2.7
		 M29.9-42c1.8-0.5,3.3-2.2,3.3-5c0-4-3.7-4.6-5.4-2.7 M-20.6-69.9c-0.3,2-0.9,6.3-0.9,7.1c0,1,0.5,3.1,0.5,4.1v7.2
		c0,3.1,6.9,15.5,7.7,16.3c1.5,1.5,6.5,3.6,8.7,3.1c1.6-0.4,9.8-3.1,13-6.4 M-21.7-69.7c-2,6.2-1.7,12.8-2.3,19.2
		c-0.2,1.8-2.6,2.7-3.1,0 M-20.9-51.1c-1,5.1-8.2,6.1-8.2,1.5c0-4.4,5.1-4.1,5.1-1.5 M-21.8-48.9c-1.5,2.6,1.2,8.5,0.3,10.6
		c-1,2.4-5.6,3.1-6.1,0c-0.3-1.6,1.5-2,1.5-2 M-21.7-42.4c-0.3,4.9-2.9,4.6-3.9,4.6c-1.5-0.1-1.5-1.5-0.5-2.6 M-19.3-46.6
		c0.4,2.6,0,7.2-0.1,8.3c-0.5,5.1-9.2,5.1-9.7,0.5s6-6.3,5.6-2.6c-0.4,3.5-5.1,2.8-2.6,0 M-11.8-40.9c0.5,1,2,2,4.1,1 M-13.3-42.4
		l1.5-0.5c0.5,0,0.5,0.5,1.5,0.5s1-0.5,2-0.5s0.5,0.5,1.5,0.5s1.5-0.5,1.5-0.5 M-20.9-62.3c1.2-1.4,5.8-4.4,8.2-1
		c-0.1-0.2,0.1,0.7,0,0.5C-15.3-65.9-19.6-63.6-20.9-62.3L-20.9-62.3 M3.6-61.3C3-62,1.3-64.4-1-64.9c-2.6-0.5-4.1,0-6,1.6
		c0.1-0.2-0.1,0.7,0,0.5C-3.6-66.3,2.7-63.6,3.6-61.3L3.6-61.3 M-12.8-62.8c1.9,5.3,0,7.6,0,10.2c0,1.5-0.6,3.6-0.5,4.6
		c0.2,1.5,1.5,1.5,2,2.6 M-6.6-46.5c-1-1-5.6-0.5-2,0S-5-47.3-5-48c0-0.5-0.5-1.5-1.5-1.5 M-7.2-57.7c0,0,1.5-2,3.6-2
		s4.6,2.6,8.2,2.6c-3.1,0-5.1,1-7.2,1C-4.7-56.1-6.1-57.7-7.2-57.7 M-20.9-58.7c1.5-1,2.6-1.5,4.1-1s4.6,2,4.6,2 M-12.3-57.7
		c-2,0.5-4.1,1.5-5.6,1.5c-1.4,0-3.1-2-3.1-2 M-35.6-84.8L-23-69.5c18.5-3.8,35.9-1.6,53.1,1l13.6-16.3 M31.8-70.6l-1.4-0.2
		C19.6-72.4,8.6-74-2.7-73.9c-6.8,0-13.8,0.6-20.8,2.1l-1.2,0.3 M-31.8-80.1c-6.9,0.9-5.3,10.4-11.1,14.7c9.5,2.9,14.6-3.6,16.5-8.2
		 M-42.9-65.4c6.1,0.9,9.6-8.1,13.8-11.5 M-29.1-71.5c0.4-1.6-0.1-3.2-0.7-4.8 M-34.7-76.1c1.9-0.8,3.4-0.5,5-0.2 M-36.3-72.5
		c1.4-0.9,2.8-1.2,4.2-1.1 M-31.2-69c0.3-0.5-0.3-3.7-0.8-4.8 M-37.8-69c1.2-0.8,2.3-1.2,3.4-1.4 M-34.2-66.9
		c0.1-0.9,0.1-2.4-0.2-3.5 M-39.3-67.4c0.7-0.1,1.4-0.1,2,0.1 M-37.3-65.9c0.5-0.6,0.4-1.2,0.2-1.7"/>
</symbol>
<symbol  id="CJ4" viewBox="-42.7 -33.4 85.4 66.8">
	<path class="st1" d="M8.1-4.2l4.6,2.7l12.9-6.2 M-39.3-2c-0.7,0.8-0.6,1.3-0.1,2 M-39.7,0.8c-0.7,0.9-0.6,1.3-0.2,2.1 M-40,3.6
		c-0.7,0.9-0.6,1.3-0.2,2.1 M-39.3,6.2C-40,7-39.9,7.5-39.4,8.3 M-42-1.5c-0.4,0.5-0.1,0.7,0,1 M-42,1.3c-0.4,0.5-0.1,0.7,0,1
		 M-42.3,4.2c-0.4,0.5-0.1,0.7,0,1 M-42.3,6.7c-0.4,0.5-0.1,0.7,0,1 M-39.4-5.1c0.5,0.5-0.5,2.6-0.5,2.6 M-5.2-31.2
		c1.5-2,2.6-2,4.1-2s4.1,2,4.1,2 M9.1-30.7c1.5-2,2.8-2.6,4.6-2.6c1.2,0,3.1,1.5,3.1,1.5 M-1.6-31.6c0.3,0.4,0.5,0.9,0.5,1.5
		c0,1.1-0.7,2-1.5,2s-1.5-0.9-1.5-2c0-0.6,0.2-1.2,0.6-1.6 M13-31.2c0.1,0.3,0.2,0.6,0.2,1c0,1.1-0.7,2-1.5,2s-1.6-0.6-1.6-1.7
		c0-0.7,0.2-1.2,0.6-1.6 M16.8-4.6l8.1-3.8 M17.3-5.6L24.4-9 M3.5-9.7c1-0.6,2.6,0,3.6,0.5"/>
	<g>
		<defs>
			<rect id="SVGID_1_" x="2.2" y="14" width="7.6" height="7.6"/>
		</defs>
		<clipPath id="SVGID_00000000203382596747561620000007490483713003501973_">
			<use xlink:href="#SVGID_1_"  style="overflow:visible;"/>
		</clipPath>
		<g style="clip-path:url(#SVGID_00000000203382596747561620000007490483713003501973_);">
			
				<use xlink:href="#SCJ"  width="74.5" height="74.5" x="-37.2" y="-37.2" transform="matrix(0.1022 0 0 0.1022 5.9807 17.7577)" style="overflow:visible;"/>
		</g>
	</g>
	<g>
		<defs>
			<rect id="SVGID_00000036960735584813132980000013789607964761549201_" x="2.2" y="14" width="7.6" height="7.6"/>
		</defs>
		<clipPath id="SVGID_00000122715673170786049400000008370972348711187385_">
			<use xlink:href="#SVGID_00000036960735584813132980000013789607964761549201_"  style="overflow:visible;"/>
		</clipPath>
		<g style="clip-path:url(#SVGID_00000122715673170786049400000008370972348711187385_);">
			
				<use xlink:href="#SCJ"  width="74.5" height="74.5" x="-37.2" y="-37.2" transform="matrix(0.1022 0 0 0.1022 5.9807 17.7577)" style="overflow:visible;"/>
		</g>
	</g>
	<g>
		<defs>
			<rect id="SVGID_00000103263708271394562490000016742332984164492678_" x="2.2" y="25.8" width="7.6" height="7.6"/>
		</defs>
		<clipPath id="SVGID_00000041979867236334600740000016286352179242281400_">
			<use xlink:href="#SVGID_00000103263708271394562490000016742332984164492678_"  style="overflow:visible;"/>
		</clipPath>
		<g style="clip-path:url(#SVGID_00000041979867236334600740000016286352179242281400_);">
			
				<use xlink:href="#SCJ"  width="74.5" height="74.5" x="-37.2" y="-37.2" transform="matrix(0.1022 0 0 0.1022 5.9807 29.6075)" style="overflow:visible;"/>
		</g>
	</g>
	<g>
		<defs>
			<rect id="SVGID_00000083782019116976051190000010790026273728143548_" x="2.2" y="25.8" width="7.6" height="7.6"/>
		</defs>
		<clipPath id="SVGID_00000053512877980980910730000016583208871577933973_">
			<use xlink:href="#SVGID_00000083782019116976051190000010790026273728143548_"  style="overflow:visible;"/>
		</clipPath>
		<g style="clip-path:url(#SVGID_00000053512877980980910730000016583208871577933973_);">
			
				<use xlink:href="#SCJ"  width="74.5" height="74.5" x="-37.2" y="-37.2" transform="matrix(0.1022 0 0 0.1022 5.9807 29.6075)" style="overflow:visible;"/>
		</g>
	</g>
	<g>
		<defs>
			<rect id="SVGID_00000156564245947004109320000005561604412256494251_" x="35.1" y="5.3" width="7.6" height="7.6"/>
		</defs>
		<clipPath id="SVGID_00000011718910548110613650000009265640847563246476_">
			<use xlink:href="#SVGID_00000156564245947004109320000005561604412256494251_"  style="overflow:visible;"/>
		</clipPath>
		<g style="clip-path:url(#SVGID_00000011718910548110613650000009265640847563246476_);">
			
				<use xlink:href="#SCJ"  width="74.5" height="74.5" x="-37.2" y="-37.2" transform="matrix(0.1022 0 0 0.1022 38.8743 9.0746)" style="overflow:visible;"/>
		</g>
	</g>
	<g>
		<defs>
			<rect id="SVGID_00000007388004685876394580000017905222619812139419_" x="35.1" y="5.3" width="7.6" height="7.6"/>
		</defs>
		<clipPath id="SVGID_00000176752502337956814130000009642525889430103742_">
			<use xlink:href="#SVGID_00000007388004685876394580000017905222619812139419_"  style="overflow:visible;"/>
		</clipPath>
		<g style="clip-path:url(#SVGID_00000176752502337956814130000009642525889430103742_);">
			
				<use xlink:href="#SCJ"  width="74.5" height="74.5" x="-37.2" y="-37.2" transform="matrix(0.1022 0 0 0.1022 38.8743 9.0746)" style="overflow:visible;"/>
		</g>
	</g>
</symbol>
<symbol  id="SC9" viewBox="-11.1 -11.1 22.3 22.3">
	<rect x="-11.1" y="-11.1" class="st2" width="22.3" height="22.3"/>
	<path class="st3" d="M0.8,3.3C0.9,8.5,2,8.9,3,11.1h-5.8c1-2.2,2.1-2.6,2.2-7.8c0-0.1-0.1-0.2-0.2-0.2S-1,3.2-1,3.3
		c-0.5,2.6-2.9,4.3-5.5,3.8c-2.5-0.5-4.2-2.9-3.8-5.5c0.5-2.5,2.9-4.2,5.5-3.8c0.8,0.1,1.5,0.5,2.1,1c0.1,0.1,0.2,0.1,0.3,0
		s0.1-0.2,0-0.3c-2.5-1.4-3.4-4.5-2.1-7s4.5-3.4,7-2.1s3.4,4.5,2.1,7c-0.5,1-1.2,1.7-2,2.2c-0.1,0.1-0.1,0.2,0,0.3s0.2,0.1,0.3,0
		c2-1.6,5-1.3,6.6,0.7s1.3,5-0.7,6.6s-5,1.3-6.6-0.7c-0.5-0.6-0.8-1.3-1-2.1c0-0.1-0.1-0.2-0.2-0.2S0.8,3.2,0.8,3.3z"/>
</symbol>
<symbol  id="SCJ" viewBox="-37.2 -37.2 74.5 74.5">
	<rect x="-31.2" y="-31.2" class="st4" width="62.5" height="62.5"/>
	<path class="st5" d="M1.9,9.4C2.2,24.1,5.3,25,8.1,31.2H-8.1C-5.3,25-2.2,24-1.9,9.3c0-0.3-0.3-0.6-0.6-0.6S-3.1,9-3.1,9.4
		c-1.3,7.1-8.2,11.8-15.3,10.5c-7.1-1.3-11.8-8.2-10.5-15.3s8.2-11.8,15.3-10.5c2.2,0.4,4.2,1.3,5.9,2.7C-7.5-3-7.1-3-6.9-3.3
		c0.2-0.2,0.2-0.5,0-0.8c-7-3.8-9.5-12.5-5.7-19.5s12.5-9.5,19.5-5.7s9.5,12.5,5.7,19.5c-1.3,2.4-3.3,4.4-5.7,5.7
		C6.7-3.8,6.7-3.4,7-3.2C7.2-3,7.5-3,7.8-3.2c5.6-4.6,13.9-3.7,18.5,1.9s3.7,13.9-1.9,18.5s-13.9,3.7-18.5-1.9
		c-1.4-1.7-2.3-3.7-2.7-5.9c0-0.3-0.3-0.6-0.6-0.6S1.9,9,1.9,9.4z"/>
</symbol>
<symbol  id="VCJ" viewBox="-9.3 -15.9 18.6 31.8">
	<path class="st6" d="M1.6-14.6H8 M4.8-14.6V8.2c0,3.5-2.9,6.4-6.4,6.4S-8,11.7-8,8.2v-1"/>
</symbol>
<path class="st7" d="M23.5,9.3h128.8c7.8,0,14.1,6.4,14.1,14.2v216.6c0,7.8-6.3,14.2-14.1,14.2H23.5c-7.8,0-14.1-6.4-14.1-14.2V23.5
	C9.3,15.7,15.6,9.3,23.5,9.3z"/>
<g>
	<rect id="XCJ" x="38.4" y="55.5" class="st3" width="98.9" height="152.6"/>
</g>
<g>
	<g>
		<defs>
			<rect id="SVGID_00000018958611180557950260000017113594420587473029_" x="38.4" y="55.5" width="98.9" height="152.6"/>
		</defs>
		<clipPath id="SVGID_00000155125352096421382360000010786419393797662346_">
			<use xlink:href="#SVGID_00000018958611180557950260000017113594420587473029_"  style="overflow:visible;"/>
		</clipPath>
		<g style="clip-path:url(#SVGID_00000155125352096421382360000010786419393797662346_);">
			<g>
				<defs>
					<rect id="SVGID_00000096054425723558852820000002813266252645480349_" x="37.7" y="73.9" width="79.5" height="109.1"/>
				</defs>
				<clipPath id="SVGID_00000114035766173988014930000009509070604921490603_">
					<use xlink:href="#SVGID_00000096054425723558852820000002813266252645480349_"  style="overflow:visible;"/>
				</clipPath>
				<g style="clip-path:url(#SVGID_00000114035766173988014930000009509070604921490603_);">
					
						<use xlink:href="#CJ1"  width="106.8" height="146" x="-53.4" y="-73" transform="matrix(0.7447 0 0 0.7468 77.4191 128.3784)" style="overflow:visible;"/>
				</g>
			</g>
		</g>
	</g>
</g>
<g>
	<g>
		<defs>
			<rect id="SVGID_00000089551003457164843900000013749349974711815315_" x="38.4" y="55.5" width="98.9" height="152.6"/>
		</defs>
		<clipPath id="SVGID_00000062895955934620656190000015320970551770170280_">
			<use xlink:href="#SVGID_00000089551003457164843900000013749349974711815315_"  style="overflow:visible;"/>
		</clipPath>
		<g style="clip-path:url(#SVGID_00000062895955934620656190000015320970551770170280_);">
			<g>
				<defs>
					<rect id="SVGID_00000151509821478126138500000000314843335425369247_" x="58.6" y="80.7" width="79.5" height="109.1"/>
				</defs>
				<clipPath id="SVGID_00000083048082041173837500000011089609983360812205_">
					<use xlink:href="#SVGID_00000151509821478126138500000000314843335425369247_"  style="overflow:visible;"/>
				</clipPath>
				<g style="clip-path:url(#SVGID_00000083048082041173837500000011089609983360812205_);">
					
						<use xlink:href="#CJ1"  width="106.8" height="146" x="-53.4" y="-73" transform="matrix(-0.7447 0 0 -0.7468 98.3289 135.2436)" style="overflow:visible;"/>
				</g>
			</g>
		</g>
	</g>
</g>
<g>
	<g>
		<defs>
			<rect id="SVGID_00000161633496844449603160000013689879267700539316_" x="38.4" y="55.5" width="98.9" height="152.6"/>
		</defs>
		<clipPath id="SVGID_00000001634839801031205880000015131077599794251198_">
			<use xlink:href="#SVGID_00000161633496844449603160000013689879267700539316_"  style="overflow:visible;"/>
		</clipPath>
		
			<g transform="matrix(1 0 0 1 0 -7.629395e-06)" style="clip-path:url(#SVGID_00000001634839801031205880000015131077599794251198_);">
			<g>
				<defs>
					<rect id="SVGID_00000178191140464951707020000007201018713702887349_" x="46.8" y="54" width="73.5" height="89.9"/>
				</defs>
				<clipPath id="SVGID_00000166673393237502390370000001695482040665278127_">
					<use xlink:href="#SVGID_00000178191140464951707020000007201018713702887349_"  style="overflow:visible;"/>
				</clipPath>
				<g style="clip-path:url(#SVGID_00000166673393237502390370000001695482040665278127_);">
					
						<use xlink:href="#CJ2"  width="98.7" height="120.4" x="-49.3" y="-60.2" transform="matrix(0.7447 0 0 0.7468 83.4468 98.9536)" style="overflow:visible;"/>
				</g>
			</g>
		</g>
	</g>
</g>
<g>
	<g>
		<defs>
			<rect id="SVGID_00000116914222242968702920000002207898749791672503_" x="38.4" y="55.5" width="98.9" height="152.6"/>
		</defs>
		<clipPath id="SVGID_00000002377895136852495690000017327256501472615860_">
			<use xlink:href="#SVGID_00000116914222242968702920000002207898749791672503_"  style="overflow:visible;"/>
		</clipPath>
		<g style="clip-path:url(#SVGID_00000002377895136852495690000017327256501472615860_);">
			<g>
				<defs>
					<rect id="SVGID_00000067225129713704005050000002275160955005117101_" x="55.5" y="119.7" width="73.5" height="89.9"/>
				</defs>
				<clipPath id="SVGID_00000118393788580398275610000014688680111957608625_">
					<use xlink:href="#SVGID_00000067225129713704005050000002275160955005117101_"  style="overflow:visible;"/>
				</clipPath>
				<g style="clip-path:url(#SVGID_00000118393788580398275610000014688680111957608625_);">
					
						<use xlink:href="#CJ2"  width="98.7" height="120.4" x="-49.3" y="-60.2" transform="matrix(-0.7447 0 0 -0.7468 92.3012 164.6684)" style="overflow:visible;"/>
				</g>
			</g>
		</g>
	</g>
</g>
<g>
	<g>
		<defs>
			<rect id="SVGID_00000150787995402897087450000014328870755389490602_" x="38.4" y="55.5" width="98.9" height="152.6"/>
		</defs>
		<clipPath id="SVGID_00000109740094918513727800000004303204312317070745_">
			<use xlink:href="#SVGID_00000150787995402897087450000014328870755389490602_"  style="overflow:visible;"/>
		</clipPath>
		<g style="clip-path:url(#SVGID_00000109740094918513727800000004303204312317070745_);">
			<g>
				<defs>
					<rect id="SVGID_00000040574988060434665450000007304040612034667416_" x="38.2" y="55.3" width="91" height="127.1"/>
				</defs>
				<clipPath id="SVGID_00000083068964480503174750000012966833776165809549_">
					<use xlink:href="#SVGID_00000040574988060434665450000007304040612034667416_"  style="overflow:visible;"/>
				</clipPath>
				<g style="clip-path:url(#SVGID_00000083068964480503174750000012966833776165809549_);">
					
						<use xlink:href="#CJ3"  width="122.2" height="170.2" x="-61.1" y="-85.1" transform="matrix(0.7447 0 0 0.7468 83.692 118.8423)" style="overflow:visible;"/>
				</g>
			</g>
		</g>
	</g>
</g>
<g>
	<g>
		<defs>
			<rect id="SVGID_00000146479678877699786360000001345417999159130797_" x="38.4" y="55.5" width="98.9" height="152.6"/>
		</defs>
		<clipPath id="SVGID_00000113312104005810012930000010902052633317801603_">
			<use xlink:href="#SVGID_00000146479678877699786360000001345417999159130797_"  style="overflow:visible;"/>
		</clipPath>
		<g style="clip-path:url(#SVGID_00000113312104005810012930000010902052633317801603_);">
			<g>
				<defs>
					<rect id="SVGID_00000155117515856789545560000009806701718554931618_" x="46.6" y="81.2" width="91" height="127.1"/>
				</defs>
				<clipPath id="SVGID_00000101063259669557540540000017689099087608977562_">
					<use xlink:href="#SVGID_00000155117515856789545560000009806701718554931618_"  style="overflow:visible;"/>
				</clipPath>
				<g style="clip-path:url(#SVGID_00000101063259669557540540000017689099087608977562_);">
					
						<use xlink:href="#CJ3"  width="122.2" height="170.2" x="-61.1" y="-85.1" transform="matrix(-0.7447 0 0 -0.7468 92.0561 144.7797)" style="overflow:visible;"/>
				</g>
			</g>
		</g>
	</g>
</g>
<g>
	<g>
		<defs>
			<rect id="SVGID_00000051363820622125093200000008653434894683733661_" x="38.4" y="55.5" width="98.9" height="152.6"/>
		</defs>
		<clipPath id="SVGID_00000126322718003911901630000016763945315637395600_">
			<use xlink:href="#SVGID_00000051363820622125093200000008653434894683733661_"  style="overflow:visible;"/>
		</clipPath>
		<g style="clip-path:url(#SVGID_00000126322718003911901630000016763945315637395600_);">
			<g>
				<defs>
					<rect id="SVGID_00000081612585705442252040000003129369569849716157_" x="40.5" y="72.9" width="63.6" height="49.8"/>
				</defs>
				<clipPath id="SVGID_00000026165336245620882170000003851571151696683163_">
					<use xlink:href="#SVGID_00000081612585705442252040000003129369569849716157_"  style="overflow:visible;"/>
				</clipPath>
				<g style="clip-path:url(#SVGID_00000026165336245620882170000003851571151696683163_);">
					
						<use xlink:href="#CJ4"  width="85.4" height="66.8" x="-42.7" y="-33.4" transform="matrix(0.7447 0 0 0.7468 72.2889 97.8413)" style="overflow:visible;"/>
				</g>
			</g>
		</g>
	</g>
</g>
<g>
	<g>
		<defs>
			<rect id="SVGID_00000085233860791091802650000004352435175502512054_" x="38.4" y="55.5" width="98.9" height="152.6"/>
		</defs>
		<clipPath id="SVGID_00000093168210021651981450000011516359587617564290_">
			<use xlink:href="#SVGID_00000085233860791091802650000004352435175502512054_"  style="overflow:visible;"/>
		</clipPath>
		
			<g transform="matrix(1 0 0 1 7.629395e-06 0)" style="clip-path:url(#SVGID_00000093168210021651981450000011516359587617564290_);">
			<g>
				<defs>
					<rect id="SVGID_00000071528569993185573320000017714906637901031343_" x="71.6" y="140.9" width="63.6" height="49.8"/>
				</defs>
				<clipPath id="SVGID_00000046299770869894119860000016724096441589370270_">
					<use xlink:href="#SVGID_00000071528569993185573320000017714906637901031343_"  style="overflow:visible;"/>
				</clipPath>
				<g style="clip-path:url(#SVGID_00000046299770869894119860000016724096441589370270_);">
					
						<use xlink:href="#CJ4"  width="85.4" height="66.8" x="-42.7" y="-33.4" transform="matrix(-0.7447 0 0 -0.7468 103.4591 165.7807)" style="overflow:visible;"/>
				</g>
			</g>
		</g>
	</g>
</g>
<g>
	<g>
		<defs>
			<rect id="SVGID_00000124869874028162986630000001757862224970325397_" x="14.6" y="23.2" width="23.8" height="23.9"/>
		</defs>
		<clipPath id="SVGID_00000036242270968689222580000003068473797985885089_">
			<use xlink:href="#SVGID_00000124869874028162986630000001757862224970325397_"  style="overflow:visible;"/>
		</clipPath>
		<g style="clip-path:url(#SVGID_00000036242270968689222580000003068473797985885089_);">
			<g>
				<defs>
					<rect id="SVGID_00000116209832374459481800000010340026164631562648_" x="19.6" y="23.2" width="13.9" height="23.7"/>
				</defs>
				<clipPath id="SVGID_00000137122087432635925440000000208744595028406671_">
					<use xlink:href="#SVGID_00000116209832374459481800000010340026164631562648_"  style="overflow:visible;"/>
				</clipPath>
				<g style="clip-path:url(#SVGID_00000137122087432635925440000000208744595028406671_);">
					
						<use xlink:href="#VCJ"  width="18.6" height="31.8" x="-9.3" y="-15.9" transform="matrix(0.7447 0 0 0.7468 26.5111 34.9803)" style="overflow:visible;"/>
				</g>
			</g>
		</g>
	</g>
</g>
<g>
	<g>
		<defs>
			<rect id="SVGID_00000054243341692741008850000010304234851338876333_" x="137.4" y="216.6" width="23.8" height="23.9"/>
		</defs>
		<clipPath id="SVGID_00000001666114455835935240000008757854577717146810_">
			<use xlink:href="#SVGID_00000054243341692741008850000010304234851338876333_"  style="overflow:visible;"/>
		</clipPath>
		<g style="clip-path:url(#SVGID_00000001666114455835935240000008757854577717146810_);">
			<g>
				<defs>
					<rect id="SVGID_00000101086388060628064760000015792947247549004702_" x="142.3" y="216.8" width="13.9" height="23.7"/>
				</defs>
				<clipPath id="SVGID_00000165211508992122648950000018051805307804902829_">
					<use xlink:href="#SVGID_00000101086388060628064760000015792947247549004702_"  style="overflow:visible;"/>
				</clipPath>
				
					<g transform="matrix(1 0 0 1 0 1.525879e-05)" style="clip-path:url(#SVGID_00000165211508992122648950000018051805307804902829_);">
					
						<use xlink:href="#VCJ"  width="18.6" height="31.8" x="-9.3" y="-15.9" transform="matrix(-0.7447 0 0 -0.7468 149.2369 228.6417)" style="overflow:visible;"/>
				</g>
			</g>
		</g>
	</g>
</g>
<g>
	<rect id="XCJ_00000032612958769710912080000007621051946630452906_" x="38.4" y="55.5" class="st18" width="98.9" height="152.6"/>
</g>
<g>
	<g>
		<defs>
			<rect id="SVGID_00000022538801936000719690000004127143759180073864_" x="16.5" y="50.8" width="19.9" height="20"/>
		</defs>
		<clipPath id="SVGID_00000176743601736874836580000011899710215893434276_">
			<use xlink:href="#SVGID_00000022538801936000719690000004127143759180073864_"  style="overflow:visible;"/>
		</clipPath>
		
			<g transform="matrix(1 0 0 1 1.907349e-06 0)" style="clip-path:url(#SVGID_00000176743601736874836580000011899710215893434276_);">
			<g>
				<defs>
					<rect id="SVGID_00000096780815461767706960000001143998027450363266_" x="18.2" y="51.9" width="16.6" height="16.7"/>
				</defs>
				<clipPath id="SVGID_00000082331934445526943170000005965028655810929843_">
					<use xlink:href="#SVGID_00000096780815461767706960000001143998027450363266_"  style="overflow:visible;"/>
				</clipPath>
				<g style="clip-path:url(#SVGID_00000082331934445526943170000005965028655810929843_);">
					
						<use xlink:href="#SC9"  width="22.3" height="22.3" x="-11.1" y="-11.1" transform="matrix(0.7447 0 0 0.7468 26.4743 59.7229)" style="overflow:visible;"/>
				</g>
			</g>
		</g>
	</g>
</g>
<g>
	<g>
		<defs>
			<rect id="SVGID_00000005976012696275349530000001606286076286181052_" x="139.3" y="192.8" width="19.9" height="20"/>
		</defs>
		<clipPath id="SVGID_00000165950690189326806940000007775971272865167758_">
			<use xlink:href="#SVGID_00000005976012696275349530000001606286076286181052_"  style="overflow:visible;"/>
		</clipPath>
		<g style="clip-path:url(#SVGID_00000165950690189326806940000007775971272865167758_);">
			<g>
				<defs>
					<rect id="SVGID_00000012454526339946568510000015552704541510928531_" x="141" y="195" width="16.6" height="16.7"/>
				</defs>
				<clipPath id="SVGID_00000062170401243034251750000017789722189995784579_">
					<use xlink:href="#SVGID_00000012454526339946568510000015552704541510928531_"  style="overflow:visible;"/>
				</clipPath>
				
					<g transform="matrix(1 0 0 1 0 1.525879e-05)" style="clip-path:url(#SVGID_00000062170401243034251750000017789722189995784579_);">
					
						<use xlink:href="#SC9"  width="22.3" height="22.3" x="-11.1" y="-11.1" transform="matrix(-0.7447 0 0 -0.7468 149.2737 203.8991)" style="overflow:visible;"/>
				</g>
			</g>
		</g>
	</g>
</g>
</svg>
