<?xml version="1.0" encoding="utf-8"?>
<!-- Generator: Adobe Illustrator 27.9.0, SVG Export Plug-In . SVG Version: 6.00 Build 0)  -->
<svg version="1.1" id="Layer_1" xmlns="http://www.w3.org/2000/svg" xmlns:xlink="http://www.w3.org/1999/xlink" x="0px" y="0px"
	 viewBox="0 0 175.7 263.6" style="enable-background:new 0 0 175.7 263.6;" xml:space="preserve">
<style type="text/css">
	.st0{fill:none;stroke:#000000;stroke-width:0.6129;stroke-linecap:round;stroke-linejoin:round;stroke-miterlimit:10;}
	.st1{fill:none;stroke:#000000;stroke-width:0.3065;stroke-linecap:round;stroke-linejoin:round;stroke-miterlimit:10;}
	.st2{fill:#FFFFFF;fill-opacity:0;}
	.st3{fill:#FFFFFF;}
	
		.st4{fill:none;stroke:#FFFFFF;stroke-width:12;stroke-linecap:round;stroke-linejoin:round;stroke-miterlimit:10;stroke-opacity:0;}
	.st5{fill:none;stroke:#FFFFFF;stroke-width:12;stroke-linecap:round;stroke-linejoin:round;stroke-miterlimit:10;}
	.st6{fill:none;stroke:#FFFFFF;stroke-width:2.56;stroke-linecap:square;stroke-miterlimit:10;}
	.st7{fill:#272727;stroke:#000000;}
	.st8{clip-path:url(#SVGID_00000046315043480173753560000016781310989468351888_);}
	.st9{clip-path:url(#SVGID_00000037695046311407691150000006876338774200044684_);}
	.st10{clip-path:url(#SVGID_00000081627157179452759520000015376723733849168798_);}
	.st11{clip-path:url(#SVGID_00000126296920219044623860000011442063259826924957_);}
	.st12{clip-path:url(#SVGID_00000091699031132743330660000018287002893205585800_);}
	.st13{clip-path:url(#SVGID_00000039852202101848526830000004494011971495320728_);}
	.st14{clip-path:url(#SVGID_00000041291746198196079690000004384181133330809527_);}
	.st15{clip-path:url(#SVGID_00000134232797564567343980000014386908734953552031_);}
	.st16{clip-path:url(#SVGID_00000016074877739545477790000006038663145964726415_);}
	.st17{clip-path:url(#SVGID_00000059307247417550409900000013412747598827840953_);}
	.st18{fill:none;stroke:#FFFFFF;}
	.st19{clip-path:url(#SVGID_00000078764946349525619750000011523395810931511437_);}
	.st20{clip-path:url(#SVGID_00000036933888524190264250000003789399824980167854_);}
</style>
<symbol  id="CK1" viewBox="-64.8 -46.7 129.7 93.4">
	<path d="M54.8-46.7c0,1.6,0.2,3.4,0.2,5s-1.5,6.3-1.5,7.9s1.1,4.6,1.1,6.7s-1.7,6.5-1.7,8.6s1.6,5.8,1.6,7.8s-1.1,4.6-1.1,6.6
		s1.4,5,1.4,7.5s-1.9,5.7-1.9,7.8s1,3,1,5.5c0,2.4-1,8.3-1.1,10.7l2.1-1.5c0.2-2.8,0.8-7.3,0.7-9.3c-0.1-2.6-1.1-3.5-1.2-5.5
		s1.8-5.2,1.7-7.8s-1.6-5.4-1.6-7.5s1-4.6,0.9-6.7s-1.7-5.7-1.8-7.7s1.5-6.6,1.4-8.6s-1.2-5.1-1.3-6.7c0-1.5,1.4-6.4,1.3-7.9
		C55-43.3,54.8-45.2,54.8-46.7z M-1.2-30.5c-0.6,0-1,0.8-1,1.8l0,0c0,1,0.5,1.8,1,1.8l0,0c0.6,0,1-0.8,1-1.8l0,0
		C-0.2-29.7-0.6-30.5-1.2-30.5L-1.2-30.5z M-16.5-29.9c-0.6,0-1,0.8-1,1.8s0.5,1.8,1,1.8l0,0c0.6,0,1-0.8,1-1.8l0,0
		C-15.5-29.1-16-29.9-16.5-29.9L-16.5-29.9z M-11.6-17.6c-3.1,1-2.6,2.6-4.6,3.1l-0.1,0.1c1.5,0,3.1-1.9,4.7-2.1V-17.6z M-6.5-17.6
		v1c3.3,0,4.7,2.2,6.9,2.1l-0.1-0.1C-2.8-15-1.2-17.1-6.5-17.6z M47.2,0.7c-11.3,11.5-13.6,22.8-13,36c5.1,0.6,9.3,4.2,10.7,9h3.4
		C46.5,44.2,45,42,45,38.6c0-6.6,4.6-7.7,5.6-7.7c1.1,0,2,0.8,2.6,1.9c0.4-0.5,1.5-1.1,3.3-1.5c6.8-1.5,6.2,2.3,2.1,3
		c3.8-0.4,4,1.6,2,2.7c2.2,0.6,1.4,2.4-1.1,3c3.2,0.4,1.7,3.2-1.7,3.4c1.8,0.4,3,1.1,3,2c0,0.2-0.1,0.4-0.2,0.5h4.3V7.2l-5.6-2.1
		v23.6c1.6,0.7,3.1,0.8,3.1-0.9c0-1-1-1-1-0.5c0,0.8-1,0.8-1,0c0-3.3,4.1-2,4.1,0c0,5.1-8.7,2.8-9.7,1.5c-0.4,0.5-2.2,1.3-4.1,1.5
		h-0.1c-0.1,0-0.2,0-0.3,0c-2.5,0.3-5.1-0.3-5.1-3.1c0-2,4.1-3.3,4.1,0c0,0.8-1,0.8-1,0c0-0.5-1-0.5-1,0.5c0,1.6,1.4,1.6,3,0.9v-27
		L47.2,0.7z M58.7,34.2c-0.2,0-0.4,0-0.6,0.1C58.3,34.3,58.5,34.3,58.7,34.2z M-20.8,12.9v24.7h9.3l2.5-3.1
		C-11.4,24.9-15.4,17.9-20.8,12.9z M16.2,13.5c-0.6,0-1,0.5-1,1c0,0.6,0.5,1,1,1c0.6,0,1-0.5,1-1C17.2,13.9,16.7,13.5,16.2,13.5z
		 M-4.5,14.6c-0.6,0-1,0.5-1,1c0,0.6,0.5,1,1,1s1-0.5,1-1S-3.9,14.6-4.5,14.6z M0.4,14.9c-0.6,0-1,0.5-1,1s0.5,1,1,1s1-0.5,1-1
		S1,14.9,0.4,14.9z M11.6,15.1c-0.6,0-1,0.5-1,1c0,0.6,0.5,1,1,1c0.6,0,1-0.5,1-1C12.6,15.5,12.2,15.1,11.6,15.1z M3.8,16.6
		c-0.6,0-1,0.5-1,1s0.5,1,1,1s1-0.5,1-1S4.3,16.6,3.8,16.6z M8.4,16.8c-0.6,0-1,0.5-1,1c0,0.6,0.5,1,1,1c0.6,0,1-0.5,1-1
		S8.9,16.8,8.4,16.8z M-62.5,18.4c-0.4,0-0.8,0.3-0.8,0.8l0,0c0,0.4,0.3,0.8,0.8,0.8l0,0c0.4,0,0.8-0.3,0.8-0.8l0,0
		C-61.7,18.8-62,18.4-62.5,18.4L-62.5,18.4z M-18.5,19.4c0.7,0,1.3,0.6,1.3,1.3s-0.6,1.3-1.3,1.3c-0.7,0-1.3-0.6-1.3-1.3
		S-19.2,19.4-18.5,19.4z M-3.7,19.8c-0.6,0-1,0.5-1,1s0.5,1,1,1s1-0.5,1-1S-3.2,19.8-3.7,19.8z M12.1,20.1c-0.6,0-1,0.5-1,1
		s0.5,1,1,1c0.6,0,1-0.5,1-1S12.6,20.1,12.1,20.1z M0.7,20.2c-0.6,0-1,0.5-1,1s0.5,1,1,1s1-0.5,1-1S1.2,20.2,0.7,20.2z M-64,20.2
		c-0.4,0-0.8,0.3-0.8,0.8l0,0c0,0.4,0.3,0.8,0.8,0.8c0.4,0,0.8-0.3,0.8-0.8S-63.6,20.2-64,20.2L-64,20.2z M-60.4,20.5
		c-0.4,0-0.8,0.3-0.8,0.8c0,0.4,0.3,0.8,0.8,0.8l0,0c0.4,0,0.8-0.3,0.8-0.8l0,0C-59.7,20.8-60,20.5-60.4,20.5z M-62.2,21.7l-2.6,7.7
		l1.5-1.5l1,3.1l0.5-3.1l1,1.5L-62.2,21.7z M4,21.8c-0.6,0-1,0.5-1,1c0,0.6,0.5,1,1,1s1-0.5,1-1S4.6,21.8,4,21.8z M8.8,21.8
		c-0.6,0-1,0.5-1,1c0,0.6,0.5,1,1,1c0.6,0,1-0.5,1-1C9.9,22.3,9.4,21.8,8.8,21.8z M-29.4,22.8c0.1,1.6,0.2,3.2,0.3,4.8
		c1.6,0.2,3.3,0.4,5,0.7C-25.3,26-27.1,24-29.4,22.8z M-41.8,22.8c-2.5,1.4-4.5,3.6-5.6,6.3c1.8-0.5,3.6-0.9,5.6-1.2
		C-41.8,26.2-41.8,24.5-41.8,22.8z M-14.5,24c0.7,0,1.3,0.6,1.3,1.3s-0.6,1.3-1.3,1.3s-1.3-0.6-1.3-1.3S-15.2,24-14.5,24z
		 M-3.2,25.4c-0.6,0-1,0.5-1,1s0.5,1,1,1s1-0.5,1-1S-2.6,25.4-3.2,25.4z M1.2,25.7c-0.6,0-1,0.5-1,1s0.5,1,1,1s1-0.5,1-1
		S1.8,25.7,1.2,25.7z M12.3,26c-0.6,0-1,0.5-1,1c0,0.6,0.5,1,1,1c0.6,0,1-0.5,1-1C13.3,26.4,12.9,26,12.3,26z M4.6,27.4
		c-0.6,0-1,0.5-1,1s0.5,1,1,1s1-0.5,1-1S5.1,27.4,4.6,27.4z M9.1,27.7c-0.6,0-1,0.5-1,1s0.5,1,1,1c0.6,0,1-0.5,1-1
		S9.7,27.7,9.1,27.7z M-35.7,27.9c-0.8,0-1.5,0.7-1.5,1.5l0,0c0,0.8,0.7,1.5,1.5,1.5s1.5-0.7,1.5-1.5S-34.8,27.9-35.7,27.9
		L-35.7,27.9z M-18.5,28.1c0.7,0,1.3,0.6,1.3,1.3s-0.6,1.3-1.3,1.3c-0.7,0-1.3-0.6-1.3-1.3S-19.2,28.1-18.5,28.1z M-36,28.4
		c0.3,0,0.6,0.3,0.6,0.6l0,0c0,0.3-0.3,0.6-0.6,0.6l0,0c-0.3,0-0.6-0.3-0.6-0.6C-36.6,28.7-36.3,28.4-36,28.4z M12.9,30.7
		c-0.6,0-1,0.5-1,1c0,0.6,0.5,1,1,1c0.6,0,1-0.5,1-1S13.4,30.7,12.9,30.7z M1.5,31.4c-0.4,0-0.8,0.2-0.9,0.6l1.9,0.5c0,0,0,0,0-0.1
		C2.5,31.8,2,31.4,1.5,31.4z M-12.9,32c0.7,0,1.3,0.6,1.3,1.3s-0.6,1.3-1.3,1.3s-1.3-0.6-1.3-1.3S-13.6,32-12.9,32z M9.6,32.5
		c-0.6,0-1,0.5-1,1s0.5,1,1,1c0.6,0,1-0.5,1-1S10.2,32.5,9.6,32.5z M-40.8,32.5c-0.8,0-1.5,0.7-1.5,1.5s0.7,1.5,1.5,1.5l0,0
		c0.8,0,1.5-0.7,1.5-1.5l0,0C-39.2,33.2-39.9,32.5-40.8,32.5z M-30.5,32.5c-0.8,0-1.5,0.7-1.5,1.5s0.7,1.5,1.5,1.5l0,0
		c0.8,0,1.5-0.7,1.5-1.5l0,0C-29,33.2-29.7,32.5-30.5,32.5z M-30.9,33c0.3,0,0.6,0.3,0.6,0.6s-0.3,0.6-0.6,0.6
		c-0.3,0-0.6-0.3-0.6-0.6l0,0C-31.5,33.3-31.2,33-30.9,33L-30.9,33z M-41.2,33c0.3,0,0.6,0.3,0.6,0.6l0,0c0,0.3-0.3,0.6-0.6,0.6l0,0
		c-0.3,0-0.6-0.3-0.6-0.6C-41.8,33.3-41.5,33-41.2,33z M4.8,33c-0.2,0-0.4,0.1-0.6,0.2l1.6,1c0-0.1,0-0.1,0-0.2
		C5.8,33.5,5.4,33,4.8,33z M-34.6,40.2c-3.5,0-7,0.5-11.1,1.5c2.3,3,6,5,10.1,5c4.4,0,8.2-2.2,10.5-5.5
		C-28.5,40.5-31.5,40.1-34.6,40.2z"/>
</symbol>
<symbol  id="CK2" viewBox="-61.3 -43 122.6 86">
	<path d="M-2.8-43c-7.2,0-14.8,0.4-23.1,1.4l1.1,2.7c16.9-2,30.9-1.6,44.6,0.2l0.9-2.7C13.1-42.4,5.4-43-2.8-43z M-30.5-6.5
		c-5.3,1.2-10.4,3-15.3,5.4c7.6,1.1,14.5,3.5,20.3,7.8c6.1,4.5,10.8,10.9,13.9,19.5c-2.1-11.6-4.8-22-9-30.6l-7.5-0.8L-30.5-6.5z
		 M24.4-4.2L2,6.5l-18-8.1l2.2,6L2,11.5l16.8-8.1L24.4-4.2z M40.9-1.7C29.9,10,27.4,21.9,28,35.2l2.5,0.1c-0.7-13.2,1.7-24.5,13-36
		L40.9-1.7z M55.7,3.7v19.2l5.6-1.9V5.8L55.7,3.7z M-57.2,5.4c-1.4,0.9-4.1,2.9-4.1,2.9V30c1.4,0,2.6,1.1,2.6,2.6
		c0,0.5-0.1,1-0.4,1.3c0.5,0.1,1.2,0.4,2,0.8v-0.6L-57.2,5.4z M35.8,18.5c-0.4,0-0.4,0.6,0,0.6h7.7c0.4,0,0.4-0.6,0-0.6H35.8z
		 M33,21l-0.1,0.6H45V21H33z M32.5,23.4l-0.1,0.9h7.9l0.7-0.9H32.5z M32.2,26l-0.1,0.9H40L39.8,26H32.2z M32,28.6v1.8h10.1l-1.4-1.8
		H32z M32,31.8v0.6h8.8l0.3-0.6C41.1,31.8,32,31.8,32,31.8z M32,33.8l1.5,0.6h6.6l0.1-0.6H32z M36.6,35.8l0.9,0.6h2.4v-0.6H36.6z
		 M39.2,37.9l0.6,0.6H40l-0.1-0.6H39.2z M-34.9,38.6c-0.1,0-0.1,0-0.2,0.1c-1.2,0.8-2.6,1.2-4.1,1.2c-1.4,0-2.7-0.4-3.8-1
		c-0.1-0.1-0.3,0-0.4,0.1c-0.1,0.1,0,0.3,0.1,0.4l0,0c1.2,0.7,2.6,1.1,4.1,1.1c1.7,0,3.2-0.5,4.5-1.3c0.1-0.1,0.2-0.3,0.1-0.4
		C-34.7,38.6-34.8,38.6-34.9,38.6z M-31.5,38.9c-0.1,0-0.2,0-0.2,0.1c-1.8,2.1-4.5,3.4-7.5,3.4c-2.8,0-5.3-1.1-7.1-3
		c-0.1-0.1-0.3-0.1-0.4,0c-0.1,0.1-0.1,0.3,0,0.4l0,0c1.9,2,4.6,3.2,7.5,3.2c3.2,0,6-1.4,7.9-3.6c0.1-0.1,0.1-0.3,0-0.4
		C-31.4,39-31.5,38.9-31.5,38.9z"/>
</symbol>
<symbol  id="CK3" viewBox="-66.7 -56.5 133.4 113">
	<path class="st0" d="M-13-55.8c0.9,6.9,6.5,6.5,6.9,11.1c0.4,4.2-5.3,4.6-5.6,0.5c-0.2-2.8,3-3.1,3.2-0.3c0.1,1.4-1.9,1.6-2,0.2
		 M-13-55.8c0.1,7-5.4,7.5-5.1,12.1c0.3,4.2,5.9,3.7,5.6-0.5c-0.2-2.8-3.4-2.5-3.2,0.3c0.1,1.4,2.1,1.2,2-0.2 M15.7-56.2
		c-0.2,7,6.1,7.6,5.7,12.2c-0.4,4.2-6.7,3.6-6.3-0.6c0.3-2.8,3.9-2.4,3.6,0.3c-0.1,1.4-2.4,1.2-2.3-0.2 M15.7-56.2
		c-1.1,6.9-7.4,6.3-7.8,10.9c-0.4,4.2,6,4.8,6.3,0.6c0.3-2.8-3.4-3.1-3.6-0.3c-0.1,1.4,2.1,1.6,2.3,0.2 M23.7-40.1
		c0.1-0.1,0.2-0.2,0.3-0.4c1.4-1.6,2.1-3.7,2.3-6.1c2.7-0.6,4.7-1.3,6.3-2.2 M19.5-40.6c2.8-1.2,4.5-3.7,4.2-8.4
		c9-1.3,9.8-4.3,13.7-6.7 M-27.1-47.7c1.2,0.8,2.4,1.5,3.8,1.8c0.3,1.1,0.7,2.4,1.5,3.8c0.4,0.7,0.9,1.4,1.5,2 M-16.3-40.5
		c-3.9-1.8-3.8-5-5.1-7.9c-3.3,0.2-7.2-3.9-10.7-7.7 M-3.9-41.3c1.1-1.5,1.9-3.3,2.3-5.4c1-0.4,1.8-1.1,2.5-1.8
		c0.6,0.8,1.5,1.4,2.4,1.9c0.3,2,0.9,3.7,1.8,5.2 M1.1-56.2c-0.6,3.5-1.5,6.8-5.2,7.3c-0.2,3.7-1.7,6.1-3.9,7.7 M8.6-41.3
		c-1.7-1.7-2.7-4-2.7-7.2c-3.6-0.8-4.4-4-4.8-7.6l0,0 M37.7-56.2c-9.1,12.6-11,17.4-12.8,23.2 M-32.5-56.1c7,10.4,10.2,16.2,12.9,23
		 M-20.8-35.8c17.7-2.1,32.3-1.7,46.6,0.2 M-19.7-33.1c16.9-2,30.9-1.6,44.6,0.2 M-22.7-39.8c19.1-2.4,34.8-2,50.1,0.2 M-66.4,22.6
		C-54.8,11.8-41,2.8-25.4-0.7 M51.6,6.1l-20-7.3 M66.4,11.5l-5.6-2.1 M28-1.2L7.1,8.9L-10,1.2 M-10.8,4.2l18,8.1L29.5,1.5
		 M-8.6,10.2l15.8,7.1l16.8-8 M-7.4,14.1l14.6,6.6l14.3-6.9 M-0.3,21.2l8,4.9l7.8-4.9 M-0.1,26.4l8.3,5.1l7.6-4.9 M0.2,32.8L8.7,37
		l7.3-4.6 M15.4,16.8l0.8,19.3 M-2.5,16.3l-3.8,2.1 M-0.3,21.2L-5,23.9 M-0.1,26.4l-3.8,2.5 M0.2,32.8L-3,34.2 M15.6,21.2l2.9,0.8
		 M16,32.3l0.5,0.2 M15.8,26.7l1.5,0.6 M-4.5,41.9h-0.7 M5.2,41.9H4.5 M-19.4,41.9V17.2 M-21.4,38.2c0,7.1-5.7,12.8-12.8,12.8
		S-47,45.3-47,38.2s5.7-12.8,12.8-12.8S-21.4,31.2-21.4,38.2L-21.4,38.2 M31.8-1.1C17,14.7,15.2,32.2,16.2,50.1 M18,50.1
		c-1-17.9,0.7-34.9,15.7-50.5 M30.6,41.4C30,27.8,32.5,15.2,43.4,3.1 M35.7,41c-0.7-13.2,1.7-24.5,13-36 M33.1,41
		C32.5,27.7,35,15.7,46,4.1 M2.8,46c0,1.6-1.3,2.8-2.8,2.8s-2.8-1.3-2.8-2.8s1.3-2.8,2.8-2.8S2.8,44.4,2.8,46L2.8,46 M4.3,42.5
		C6,38.4,3.1,36.4,0,36.3c-3.1,0.1-6,2.1-4.3,6.2C-8.9,39-11,42.7-11,46c0,3.3,2.1,7,6.7,3.5C-6,53.6-3.1,55.6,0,55.7
		c3.1-0.1,6-2.1,4.3-6.2C8.9,53,11,49.2,11,46C11,42.7,8.9,39,4.3,42.5L4.3,42.5 M-15.5,1.3c4.2,8.6,6.9,19,9,30.6
		c-3.1-8.6-7.8-15-13.9-19.5c-5.8-4.3-12.8-6.7-20.4-7.8 M-46.4,41.9h-3.4 M-52.1,11.2v28.7 M-56.2,14.1v21.7 M57.7,51.6
		c0.6,0.5,1,1.2,1,2l0,0c0,1.4-1.1,2.6-2.6,2.6c-1.4,0-2.6-1.1-2.6-2.6c0-1,0.6-1.9,1.5-2.3 M54.1,52.3c-2.3-0.7-7.6-3.1-7.6-9.4
		c0-6.6,4.6-7.7,5.6-7.7c2,0,3.5,2.7,3.5,4.8c0,4.1-4,3.4-4,0.3c0-2,1-3.1,1-3.1l-3.1,2 M62.3,49.6c0,1.1-2.2,2-4.9,2l0,0
		c-2.7,0-4.9-0.9-4.9-2l0,0c0-1.1,2.2-2,4.9-2l0,0C60.1,47.5,62.3,48.4,62.3,49.6L62.3,49.6L62.3,49.6 M55.6,39.8
		c0.6-0.4,1.5-0.7,2.7-1l0,0c7.2-1.5,6.1,2.7,1.5,3.1c-2.2,0.2-3.7,0-4.4-0.4 M62.1,41.2c2.6,0.7,1,3.1-2.5,3.2
		c-5.2,0.2-6.2-1.6-3.4-2.6 M61,44.2c3.2,0.4,1.8,3.2-1.8,3.3c-5.8,0.2-6.1-2.3-1.3-3.1 M54.8,37.1c0.4-0.6,1.5-1.2,3.3-1.6l0,0
		c7.2-1.5,6.1,2.7,1.5,3.1c-2.1,0.2-3.6,0-4.3-0.4 M51.8,41.6c0.5,2-1.2,6.9-1.2,6.9 M51.6,33v-70.8l4.6-4.6l4.6,4.6V33 M46.5,31.7
		c0-2,4.1-3.3,4.1,0c0,0.8-1,0.8-1,0c0-0.5-1-0.5-1,0.5c0,3.6,6.6-1,7.7-2c1,1,7.7,5.6,7.7,2c0-1-1-1-1-0.5c0,0.8-1,0.8-1,0
		c0-3.3,4.1-2,4.1,0c0,5.1-8.7,2.8-9.7,1.5C55.2,34.5,46.5,36.8,46.5,31.7L46.5,31.7 M56.2,30.2c0.2-2.8,0.8-7.3,0.7-9.3
		c-0.1-2.6-1.1-3.5-1.2-5.5s1.8-5.2,1.7-7.8s-1.6-5.4-1.6-7.5s1-4.6,0.9-6.7c-0.1-2-1.7-5.7-1.8-7.7s1.5-6.6,1.4-8.6
		S55.1-28,55-29.6c0-1.5,1.4-6.4,1.3-7.9c0-1.5-0.3-3.4-0.3-4.9c0,1.6,0.2,3.4,0.2,5c0,1.5-1.5,6.3-1.5,7.9c0,1.5,1.1,4.6,1.1,6.7
		c0,2-1.7,6.5-1.7,8.6s1.6,5.8,1.6,7.8s-1.1,4.6-1.1,6.6s1.4,5,1.4,7.5s-1.9,5.7-1.9,7.8s1,3,1,5.5c0,2.4-1,8.3-1.1,10.7
		 M-45.6,43.7c8.7-2.2,15-2.3,23.3-0.6 M-37.8,26c-0.1,2.8-0.1,5.6,0,8.4c-3.1,0.3-6.1,1-8.9,1.9 M-30.6,26c0.2,2.8,0.4,5.5,0.5,8.3
		c2.7,0.2,5.5,0.5,8.4,1.2 M-44.2,46c7.8-1.9,13.3-2,20.6-0.5 M-40.4,27.1c0,1.7,0,3.4,0,5.1c-1.9,0.3-3.8,0.7-5.6,1.2 M-22.7,32.7
		c-1.7-0.3-3.4-0.6-5-0.7c-0.1-1.6-0.2-3.2-0.3-4.8 M-32.7,33.7c0,0.8-0.7,1.5-1.5,1.5s-1.5-0.7-1.5-1.5c0-0.8,0.7-1.5,1.5-1.5l0,0
		C-33.4,32.2-32.7,32.9-32.7,33.7L-32.7,33.7L-32.7,33.7 M-32.7,29.1c0,0.8-0.7,1.5-1.5,1.5l0,0c-0.8,0-1.5-0.7-1.5-1.5l0,0
		c0-0.8,0.7-1.5,1.5-1.5S-32.7,28.3-32.7,29.1L-32.7,29.1 M-32.7,38.3c0,0.8-0.7,1.5-1.5,1.5l0,0c-0.8,0-1.5-0.7-1.5-1.5l0,0
		c0-0.8,0.7-1.5,1.5-1.5S-32.7,37.5-32.7,38.3L-32.7,38.3 M-37.8,38.3c0,0.8-0.7,1.5-1.5,1.5l0,0c-0.8,0-1.5-0.7-1.5-1.5l0,0
		c0-0.8,0.7-1.5,1.5-1.5S-37.8,37.5-37.8,38.3L-37.8,38.3 M-42.4,39.3c0,0.8-0.7,1.5-1.5,1.5l0,0c-0.8,0-1.5-0.7-1.5-1.5l0,0
		c0-0.8,0.7-1.5,1.5-1.5l0,0C-43.1,37.8-42.4,38.5-42.4,39.3L-42.4,39.3L-42.4,39.3 M-27.6,38.3c0,0.8-0.7,1.5-1.5,1.5l0,0
		c-0.8,0-1.5-0.7-1.5-1.5l0,0c0-0.8,0.7-1.5,1.5-1.5C-28.3,36.8-27.6,37.5-27.6,38.3L-27.6,38.3 M-23,38.8c0,0.8-0.7,1.5-1.5,1.5
		l0,0c-0.8,0-1.5-0.7-1.5-1.5l0,0c0-0.8,0.7-1.5,1.5-1.5l0,0C-23.7,37.3-23,38-23,38.8L-23,38.8L-23,38.8 M-37.3,25.9
		C-37.3,25.9-37.3,25.8-37.3,25.9c0-1.6,1.4-2.9,3.1-2.9l0,0c1.7,0,3.1,1.3,3.1,2.8l0,0l0,0v0.1 M-35.4,23.3
		c-0.3-1.5-1.4-5.3-3.9-4.9c-2.4,0.4-4.3,6-2,7.2c1.7,0.9,1.6-4.8,3.6-4.6c1,0.1,1.4,2.2,1.5,2.9 M-35.3,23.2L-35.3,23.2
		 M-33.1,23.2c0.2-2.7,0.6-5.3,1.4-7.8l-2.6-3.1l-2.6,3.1c0.9,2.6,1.3,5.2,1.4,7.9 M-33.1,23.2L-33.1,23.2 M-32.1,23.7
		c0.1-0.8,0.6-2.6,1.5-2.7c1.9-0.2,1.8,5.5,3.6,4.6c2.2-1.1,0.4-6.7-2-7.2c-2.5-0.4-3.6,3.3-3.9,4.8 M-48.3,40.4h-3.9 M-48.4,38.8
		h-3.7 M-48.4,37.3h-3.7 M-48.2,35.8h-3.9 M-47.8,34.2H-52 M-47.3,32.7h-4.8 M-46.5,31.2h-5.6 M-45.5,29.6h-6.6 M-44.1,28.1H-52
		 M-42.6,26.6h-9.5 M-43.6,25h-8.5 M-43.9,23.5h-8.2 M-43.7,22h-8.4 M-43.3,20.4h-8.8 M-19.4,40.4H-20 M-19.4,38.8h-0.5 M-19.4,37.3
		h-0.5 M-19.4,35.8H-20 M-19.4,34.2h-1 M-19.4,32.7H-21 M-19.4,31.2h-2.3 M-19.4,29.6h-3.4 M-19.4,28.1h-4.7 M-19.4,26.6h-6.5
		 M-19.4,25h-5.4 M-19.4,23.5h-5.1 M-19.4,22h-5.3 M-19.4,20.4h-5.8 M66.4,50.1h-4.2 M60.8,28.6l5.6-1.9 M22-1.3
		c2.6,0.4,5-0.7,5-3.4c0-2.4-2.4-3.4-3.9-2.8 M24.1-1.2c2.6,0.4,5-0.7,5-3.4c0-2.4-2.2-3.3-3.7-2.8 M26.1-1.2c2.6,0.4,5-0.7,5-3.4
		c0-2.4-2.4-3.4-3.9-2.8 M27.7-1.2c2.6,0.4,5-0.7,5-3.4c0-2.3-2.2-3.3-3.7-2.8 M29.7-1.2c2.6,0.4,5-0.7,5-3.4c0-2.4-2.4-3.4-3.9-2.8
		 M31.8-1.2c2.6,0.4,5-0.7,5-3.4c0-2.4-2.4-3.4-3.9-2.8 M33.8-1.2c2.6,0.4,5-0.7,5-3.4c0-2.4-2.4-3.4-3.9-2.8 M10.7-34.2
		c6,12.3,2.8,21.8,2.9,25.8C13.8-0.5,25,1,25-4.7c0-3.6-5.1-3.9-5.1-0.9c-0.1,1.7,3.2,2.1,2.6,0 M12.6-34.1
		c5.9,12.2,3.8,21.8,3.9,25.7c0.1,3.3,2.4,4.4,5.1,4.2 M14.4-34c5.9,12.2,4,21.7,4.1,25.6c0,1.7,0.7,2.8,1.6,3.4 M16.5-33.8
		c4.8,8.4,3.5,18,4.2,26.6 M18.4-33.7c4.9,8.1,3.8,17.4,5.1,26 M20.3-33.5c4.7,8.2,4,18.2,6,25.8 M22.2-33.3
		c4.6,8.2,4,18.5,6.9,25.7 M24.1-33c4.6,8.3,4,19.3,7.8,25.6 M25.3-34.1c5.3,8.5,5.5,22,9.4,26.4 M12.7,1.1c3,0.4,6.6-1.3,7.2-2.5
		 M10.7-34.2C20-11.9,7.2-10.9,7.5-3.5C7.7-1.4,8.7-0.5,10,0 M13.3-0.2c2.2,0.5,5-0.3,6.7-1.2 M14.4-17.2c-1,4.9-5.3,7.5-5,12.6
		c0.1,1.2,0.8,1.6,1.2,2.4 M14.3-15.7c-1.1,3.2-3.4,5.1-3.2,9.5c0.3,5.5,4.6,5.5,7.9,4.6 M14.1-14.1c-0.9,2-2,3.6-1.8,7
		c0.3,4.6,3.2,5.7,6.1,5.4 M5.1-4.6c-0.5,7.3,8.2,8.2,8.2,4.1c0-3.1-5.1-2-3.1,0.5 M3.4-4c0,3.1,2.5,8,5.2,5.6 M1.6-3.4
		c0,3.6,2.3,7.2,5,5.7 M-0.1-2.7c0,3.1,1.6,6.3,4.7,5.4 M-1.8-2.1c0.5,3.1,1.3,5.7,4.6,5 M-3.6-1.5c1,3.1,1.5,4.1,4,4.5 M-7.7-1.5
		c-1,2.4-1.6,2.7-4.1,3.1 M-9.4-2c-0.5,2.4-1.6,3.6-4.9,3 M-11.1-2.5c0,2.4-3.1,4.2-6.2,3.5 M-14.6-3.5c0,2.4-2.9,6-5.6,4.1
		 M-16.3-4c1,5.7-9.7,6-9.8,1.4c-0.1-4.1,5.7-3.6,5.7-0.5c0,2.4-4.2,3.1-4.1,0.5c0-0.8,1-1.5,2-1 M-8.7,0.5c2,2.6,5.1,0.5,5.1-2
		 M-12.9-3c0,2.1-2.1,3.9-4.6,3.9 M-19.1-33.2c-1.2,4.1,0.7,4.8,0.7,10.2c0,5.6-6.6,4.6-6.6,0.5c0-3.1,4.1-2.6,4.1,0
		c0,1.9-3.1,2-3.1,0.5s1.5-1,1.5-1 M-19.8-33.2c-1.5,4.6-0.7,7.4-1.2,11 M-22.5-14.2c0,0-1.5-0.5-1.5,1s3.1,1.4,3.1-0.5
		c0-2.6-4.5-3.1-4.5,0c0,4.1,6.6,4.6,6.6-0.5c0-2.6-0.6-3.1,0.1-6.9c-1.7,2.8,0,6.5-2.3,7.9 M-18.9-14.8C-17-5.7-18.6-2-22-1
		 M-18.9-28.1c0,0,2-2,4.1-2s2.8,0.6,3.3,0.6c0.6,0,1.3-0.6,1.8-1.2v1c0,0-1.2,0.5-1.7,0.5s-2.7-0.6-3.5-0.6
		C-15.3-29.8-18.2-29-18.9-28.1 M9.2-27.1c0,0-3.4-3.4-5.4-3.4s-5,0.9-5.5,0.9c-0.6,0-1.8,0-2.3-1.1v1c0,0,1.8,0.4,2.3,0.4
		s5.1-0.9,5.7-0.9C5.5-30,8.5-27.9,9.2-27.1 M-9.7-29.6c0,0,1.5,1.5,1.5,2c0,2-1.2,3.1-1.2,5.1s-1.4,6.1-1.3,7c0,0.5,1.5,1.2,2,1.2
		s0.5,2,0.5,2 M-4.6-17.9c2.6,0.5,3,3.7,1,3.1c-4.6-1.5-4.6,1-1.3-0.3 M-12.3-9.2v1l0.5-0.5L-12.3-9.2L-12.3-9.2 M-0.5-9.2v1L-1-8.7
		L-0.5-9.2L-0.5-9.2 M-11.7-8.7c1,0,1.5-1,2.6-1s1.5,0.5,2,0.5s1.7-0.7,2.2-0.7S-2.6-8.7-1-8.7 M-8.7-6.6c0.6,1.3,3.1,1.5,3.6,0
		 M-18.4-24.5c1-0.5,2-1,3.7-0.9c1.6,0.1,3,2.5,4.5,2.5c-2.6,0-3.1,1-4.6,1s-2.6-0.5-3.6-1 M-3.1-24c0,0,2-2,3.6-2s5.1,2,6.1,2
		c-2.3,0-4.6,1.5-6.1,1.5C-1.5-22.5-3.1-24-3.1-24 M-15.8-12.2c0.6,0.1,1.5-1.3,0-1.3c-2.3,0-1.5,3.4,1,3.4c1.5,0,3.1-1.9,4.7-2.1
		v-1c-3.1,1-2.6,2.6-4.6,3.1 M4.1-11.7c-1.3-0.5-2-2.2,0.2-2.4c2.3-0.2,1.8,3.9-2.6,4c-2.2,0.1-3.6-2.1-6.9-2.1v-1
		c5.3,0.5,3.8,2.6,6.8,3.1 M11,46c0,5.4-4.9,9.9-11,9.9s-11-4.4-11-9.9s4.9-9.9,11-9.9S11,40.5,11,46L11,46 M-11.9,1.6
		c4.6,9.9,7.2,21.8,9.3,34.8 M7.3,20.7L9,40.3 M-0.5,17.2l0.7,18.9 M-10,41.9h-11.9 M16,41.9h-6 M10,41.9l6-3.8 M-45.8,7.3
		c18.7,1.1,32.9,9.8,38.2,31.6 M10.7,43.4h5.2 M-16.1,43.4h5.3"/>
</symbol>
<symbol  id="CK4" viewBox="-39.5 -44.8 79.1 89.5">
	<path class="st1" d="M35.7,0.9v-8.6 M35.7,9V0.9 M35.7,16.3V9 M35.7-10.2v-34.4 M38.7,29.9v-71.4 M37.7,29.3v-71.8 M36.7,28.6
		v-72.2 M35.7,27.9v-5.4 M34.7-35.4v-1.1 M34.7-29.7v-5.7 M34.7-21v-2.8 M34.7-13.9V-21 M35.2,33.5c0.4,0.5,0.5,1,0.3,2.4
		 M35.7,36.7c0.4,0.5,0.7,1.4,0.3,2.5 M35.5,39c0.4,0.5,0.5,1.6,0.1,2.4 M35.2,42.3c0.4,0.5,0.4,1.5,0,2.3 M39.3,33.8
		c0.1,0.4,0.1,0.7,0,1 M39.3,37.1c0.1,0.4,0.1,0.7,0,1 M39.1,40c0.1,0.4,0.1,0.7,0,1 M38.9,42.7c0.1,0.4,0.1,0.7,0,1 M34.5,37.1
		c-1.7,0.1-1.4,3.1-1.4,3.1 M-38.4-27.7c0.5-1,2-2,3.6-2c1.5,0,3.1,2,3.1,2 M-23.1-27.5c0,0,1.6-2.4,3.3-2.4c1.7,0,3.1,1,3.5,1.6
		 M-24.1-26.7c0.5,1.5,1.5,3.3,4.1,3.1 M-39.4-25.7c-0.3,1.8,3.6,2.6,3.6,2.6 M-34.4-27.6c0.1,0.2,0.1,0.5,0.1,0.8
		c0,1.2-0.7,2.2-1.7,2.2c-0.9,0-1.7-1-1.7-2.2c0-0.4,0.1-0.8,0.3-1.2 M-19.2-28.5c0.2,0.3,0.2,0.7,0.2,1.1c0,1.2-0.7,2.2-1.7,2.2
		c-0.9,0-1.7-1-1.7-2.2c0-0.4,0.1-0.7,0.2-1 M-30.2-6.2c1.5-1,3.6-0.5,4.1,0"/>
	<g>
		<defs>
			
				<rect id="SVGID_1_" x="-0.6" y="24.4" transform="matrix(0.9962 -8.712582e-02 8.712582e-02 0.9962 -2.5026 0.4435)" width="8.9" height="8.9"/>
		</defs>
		<clipPath id="SVGID_00000043420713046737891190000018353242496297776771_">
			<use xlink:href="#SVGID_1_"  style="overflow:visible;"/>
		</clipPath>
		
			<g transform="matrix(1 0 0 1 2.384186e-07 0)" style="clip-path:url(#SVGID_00000043420713046737891190000018353242496297776771_);">
			
				<use xlink:href="#SCK"  width="87" height="87" x="-43.5" y="-43.5" transform="matrix(0.1018 8.903265e-03 -8.903295e-03 0.1018 3.8288 28.8908)" style="overflow:visible;"/>
		</g>
	</g>
	<g>
		<defs>
			
				<rect id="SVGID_00000068643232584375246470000010025055331840802959_" x="-0.6" y="24.4" transform="matrix(0.9962 -8.712582e-02 8.712582e-02 0.9962 -2.5026 0.4435)" width="8.9" height="8.9"/>
		</defs>
		<clipPath id="SVGID_00000149373599778695020770000000224569590771890870_">
			<use xlink:href="#SVGID_00000068643232584375246470000010025055331840802959_"  style="overflow:visible;"/>
		</clipPath>
		
			<g transform="matrix(1 0 0 1 2.384186e-07 0)" style="clip-path:url(#SVGID_00000149373599778695020770000000224569590771890870_);">
			
				<use xlink:href="#SCK"  width="87" height="87" x="-43.5" y="-43.5" transform="matrix(0.1018 8.903265e-03 -8.903295e-03 0.1018 3.8288 28.8908)" style="overflow:visible;"/>
		</g>
	</g>
	<g>
		<defs>
			
				<rect id="SVGID_00000003077934042735470270000017132775290573857920_" x="2.9" y="10.3" transform="matrix(0.9659 -0.2588 0.2588 0.9659 -3.58 2.394)" width="8.9" height="8.9"/>
		</defs>
		<clipPath id="SVGID_00000062872962592435199600000005860874131400656792_">
			<use xlink:href="#SVGID_00000003077934042735470270000017132775290573857920_"  style="overflow:visible;"/>
		</clipPath>
		
			<g transform="matrix(1 -1.490116e-08 0 1 4.768372e-07 0)" style="clip-path:url(#SVGID_00000062872962592435199600000005860874131400656792_);">
			
				<use xlink:href="#SCK"  width="87" height="87" x="-43.5" y="-43.5" transform="matrix(9.867304e-02 2.643927e-02 -2.643936e-02 9.867270e-02 7.302 14.7936)" style="overflow:visible;"/>
		</g>
	</g>
	<g>
		<defs>
			
				<rect id="SVGID_00000080194837707285574490000012667946275798854323_" x="2.9" y="10.3" transform="matrix(0.9659 -0.2588 0.2588 0.9659 -3.58 2.394)" width="8.9" height="8.9"/>
		</defs>
		<clipPath id="SVGID_00000005253714897762191640000018412624273082614700_">
			<use xlink:href="#SVGID_00000080194837707285574490000012667946275798854323_"  style="overflow:visible;"/>
		</clipPath>
		
			<g transform="matrix(1 -1.490116e-08 0 1 4.768372e-07 0)" style="clip-path:url(#SVGID_00000005253714897762191640000018412624273082614700_);">
			
				<use xlink:href="#SCK"  width="87" height="87" x="-43.5" y="-43.5" transform="matrix(9.867304e-02 2.643927e-02 -2.643936e-02 9.867270e-02 7.302 14.7936)" style="overflow:visible;"/>
		</g>
	</g>
	<g>
		<defs>
			
				<rect id="SVGID_00000026151137709460057920000017928616881268562606_" x="9.5" y="-1.9" transform="matrix(0.9063 -0.4226 0.4226 0.9063 0.2348 6.1297)" width="8.9" height="8.9"/>
		</defs>
		<clipPath id="SVGID_00000166653967981532253710000007766855841969786523_">
			<use xlink:href="#SVGID_00000026151137709460057920000017928616881268562606_"  style="overflow:visible;"/>
		</clipPath>
		
			<g transform="matrix(1 0 2.980232e-08 1 0 -2.384186e-07)" style="clip-path:url(#SVGID_00000166653967981532253710000007766855841969786523_);">
			
				<use xlink:href="#SCK"  width="87" height="87" x="-43.5" y="-43.5" transform="matrix(9.258283e-02 4.317193e-02 -4.317208e-02 9.258252e-02 13.942 2.5352)" style="overflow:visible;"/>
		</g>
	</g>
	<g>
		<defs>
			
				<rect id="SVGID_00000025413097001224024740000003364702614650978991_" x="9.5" y="-1.9" transform="matrix(0.9063 -0.4226 0.4226 0.9063 0.2348 6.1297)" width="8.9" height="8.9"/>
		</defs>
		<clipPath id="SVGID_00000021833958963391709620000009183929416050843577_">
			<use xlink:href="#SVGID_00000025413097001224024740000003364702614650978991_"  style="overflow:visible;"/>
		</clipPath>
		
			<g transform="matrix(1 0 2.980232e-08 1 0 -2.384186e-07)" style="clip-path:url(#SVGID_00000021833958963391709620000009183929416050843577_);">
			
				<use xlink:href="#SCK"  width="87" height="87" x="-43.5" y="-43.5" transform="matrix(9.258283e-02 4.317193e-02 -4.317208e-02 9.258252e-02 13.942 2.5352)" style="overflow:visible;"/>
		</g>
	</g>
</symbol>
<symbol  id="SC9" viewBox="-11.1 -11.1 22.3 22.3">
	<rect x="-11.1" y="-11.1" class="st2" width="22.3" height="22.3"/>
	<path class="st3" d="M0.8,3.3C0.9,8.5,2,8.9,3,11.1h-5.8c1-2.2,2.1-2.6,2.2-7.8c0-0.1-0.1-0.2-0.2-0.2S-1,3.2-1,3.3
		c-0.5,2.6-2.9,4.3-5.5,3.8c-2.5-0.5-4.2-2.9-3.8-5.5c0.5-2.5,2.9-4.2,5.5-3.8c0.8,0.1,1.5,0.5,2.1,1c0.1,0.1,0.2,0.1,0.3,0
		s0.1-0.2,0-0.3c-2.5-1.4-3.4-4.5-2.1-7s4.5-3.4,7-2.1s3.4,4.5,2.1,7c-0.5,1-1.2,1.7-2,2.2c-0.1,0.1-0.1,0.2,0,0.3s0.2,0.1,0.3,0
		c2-1.6,5-1.3,6.6,0.7s1.3,5-0.7,6.6s-5,1.3-6.6-0.7c-0.5-0.6-0.8-1.3-1-2.1c0-0.1-0.1-0.2-0.2-0.2S0.8,3.2,0.8,3.3z"/>
</symbol>
<symbol  id="SCK" viewBox="-43.5 -43.5 87 87">
	<rect x="-37.5" y="-37.5" class="st4" width="75" height="75"/>
	<path class="st5" d="M2.2,11.2C2.6,28.9,6.4,30,9.8,37.5H-9.8c3.4-7.5,7.1-8.6,7.5-26.2c0-0.4-0.3-0.8-0.8-0.8s-0.8,0.3-0.8,0.8
		c-1.6,8.6-9.8,14.2-18.3,12.6c-8.6-1.6-14.2-9.8-12.6-18.3S-25-8.6-16.5-7c2.6,0.5,5,1.6,7.1,3.3C-9-3.6-8.5-3.6-8.2-4
		C-8-4.3-8-4.6-8.2-4.9c-8.4-4.6-11.5-15-6.9-23.4s15-11.5,23.4-6.9s11.5,15,6.9,23.4c-1.6,2.9-4,5.3-6.9,6.9C8-4.5,8.1-4.1,8.4-3.8
		c0.3,0.2,0.6,0.2,0.9,0C16-9.3,26-8.3,31.5-1.5s4.5,16.7-2.3,22.2S12.5,25.1,7,18.3c-1.7-2-2.8-4.5-3.3-7.1c0-0.4-0.3-0.8-0.8-0.8
		S2.2,10.8,2.2,11.2z"/>
</symbol>
<symbol  id="VCK" viewBox="-10.4 -16 20.8 32">
	<path class="st6" d="M-9.1-14.7h6.4 M-5.9-14.7v29.4 M-9.1,14.7h6.4 M2.7-14.7h6.4 M5.9-14.1L-5.4,5 M2.7,14.7h6.4 M5.9,14.1
		L-0.3-2.2"/>
</symbol>
<path class="st7" d="M23.5,9.3h128.8c7.8,0,14.1,6.4,14.1,14.2v216.6c0,7.8-6.3,14.2-14.1,14.2H23.5c-7.8,0-14.1-6.4-14.1-14.2V23.5
	C9.3,15.7,15.6,9.3,23.5,9.3z"/>
<g>
	<rect id="XCK" x="38.4" y="55.5" class="st3" width="98.9" height="152.6"/>
</g>
<g>
	<g>
		<defs>
			<rect id="SVGID_00000129910566639452945440000008797997379668043412_" x="38.4" y="55.5" width="98.9" height="152.6"/>
		</defs>
		<clipPath id="SVGID_00000147181728155596070420000012039277249508371896_">
			<use xlink:href="#SVGID_00000129910566639452945440000008797997379668043412_"  style="overflow:visible;"/>
		</clipPath>
		<g style="clip-path:url(#SVGID_00000147181728155596070420000012039277249508371896_);">
			<g>
				<defs>
					<rect id="SVGID_00000082348208859228402370000016973454954261095352_" x="40.7" y="65.8" width="96.6" height="69.8"/>
				</defs>
				<clipPath id="SVGID_00000130646724703968318960000012586451859906657193_">
					<use xlink:href="#SVGID_00000082348208859228402370000016973454954261095352_"  style="overflow:visible;"/>
				</clipPath>
				
					<g transform="matrix(1 0 0 1 0 -7.629395e-06)" style="clip-path:url(#SVGID_00000130646724703968318960000012586451859906657193_);">
					
						<use xlink:href="#CK1"  width="129.7" height="93.4" x="-64.8" y="-46.7" transform="matrix(0.7447 0 0 0.7468 88.9779 100.696)" style="overflow:visible;"/>
				</g>
			</g>
		</g>
	</g>
</g>
<g>
	<g>
		<defs>
			<rect id="SVGID_00000029743840373856997960000000281499385044370848_" x="38.4" y="55.5" width="98.9" height="152.6"/>
		</defs>
		<clipPath id="SVGID_00000152246443457502129950000006770333389094821782_">
			<use xlink:href="#SVGID_00000029743840373856997960000000281499385044370848_"  style="overflow:visible;"/>
		</clipPath>
		<g style="clip-path:url(#SVGID_00000152246443457502129950000006770333389094821782_);">
			<g>
				<defs>
					<rect id="SVGID_00000019644235140290187570000009015561712138237058_" x="38.5" y="128.1" width="96.6" height="69.8"/>
				</defs>
				<clipPath id="SVGID_00000034791597428755488830000004682216612949598631_">
					<use xlink:href="#SVGID_00000019644235140290187570000009015561712138237058_"  style="overflow:visible;"/>
				</clipPath>
				<g style="clip-path:url(#SVGID_00000034791597428755488830000004682216612949598631_);">
					
						<use xlink:href="#CK1"  width="129.7" height="93.4" x="-64.8" y="-46.7" transform="matrix(-0.7447 0 0 -0.7468 86.7701 162.926)" style="overflow:visible;"/>
				</g>
			</g>
		</g>
	</g>
</g>
<g>
	<g>
		<defs>
			<rect id="SVGID_00000122678639798044499930000007222243526493911938_" x="38.4" y="55.5" width="98.9" height="152.6"/>
		</defs>
		<clipPath id="SVGID_00000112590279016809489110000012113015182671885232_">
			<use xlink:href="#SVGID_00000122678639798044499930000007222243526493911938_"  style="overflow:visible;"/>
		</clipPath>
		<g style="clip-path:url(#SVGID_00000112590279016809489110000012113015182671885232_);">
			<g>
				<defs>
					<rect id="SVGID_00000021115852030293953000000012465307281534345913_" x="46" y="69.6" width="91.3" height="64.2"/>
				</defs>
				<clipPath id="SVGID_00000021836409808775213280000009016460614426867095_">
					<use xlink:href="#SVGID_00000021115852030293953000000012465307281534345913_"  style="overflow:visible;"/>
				</clipPath>
				<g style="clip-path:url(#SVGID_00000021836409808775213280000009016460614426867095_);">
					
						<use xlink:href="#CK2"  width="122.6" height="86" x="-61.3" y="-43" transform="matrix(0.7447 0 0 0.7468 91.6748 101.7576)" style="overflow:visible;"/>
				</g>
			</g>
		</g>
	</g>
</g>
<g>
	<g>
		<defs>
			<rect id="SVGID_00000041257933452305287760000005331535029285477302_" x="38.4" y="55.5" width="98.9" height="152.6"/>
		</defs>
		<clipPath id="SVGID_00000047047030200628318960000007330198839017625747_">
			<use xlink:href="#SVGID_00000041257933452305287760000005331535029285477302_"  style="overflow:visible;"/>
		</clipPath>
		<g style="clip-path:url(#SVGID_00000047047030200628318960000007330198839017625747_);">
			<g>
				<defs>
					<rect id="SVGID_00000036213697542909901180000016341346489989229758_" x="38.4" y="129.8" width="91.3" height="64.2"/>
				</defs>
				<clipPath id="SVGID_00000078032079250551036380000007910710275954321590_">
					<use xlink:href="#SVGID_00000036213697542909901180000016341346489989229758_"  style="overflow:visible;"/>
				</clipPath>
				<g style="clip-path:url(#SVGID_00000078032079250551036380000007910710275954321590_);">
					
						<use xlink:href="#CK2"  width="122.6" height="86" x="-61.3" y="-43" transform="matrix(-0.7447 0 0 -0.7468 84.0732 161.8644)" style="overflow:visible;"/>
				</g>
			</g>
		</g>
	</g>
</g>
<g>
	<g>
		<defs>
			<rect id="SVGID_00000097463447810358492350000016859476961695284612_" x="38.4" y="55.5" width="98.9" height="152.6"/>
		</defs>
		<clipPath id="SVGID_00000007400365030313859320000013178992631191487401_">
			<use xlink:href="#SVGID_00000097463447810358492350000016859476961695284612_"  style="overflow:visible;"/>
		</clipPath>
		
			<g transform="matrix(1 0 0 1 0 -7.629395e-06)" style="clip-path:url(#SVGID_00000007400365030313859320000013178992631191487401_);">
			<g>
				<defs>
					<rect id="SVGID_00000168831019494569295640000008470396008867159689_" x="38.2" y="55.3" width="99.3" height="84.4"/>
				</defs>
				<clipPath id="SVGID_00000006678905237179013280000013326968546521357497_">
					<use xlink:href="#SVGID_00000168831019494569295640000008470396008867159689_"  style="overflow:visible;"/>
				</clipPath>
				<g style="clip-path:url(#SVGID_00000006678905237179013280000013326968546521357497_);">
					
						<use xlink:href="#CK3"  width="133.4" height="113" x="-66.7" y="-56.5" transform="matrix(0.7447 0 0 0.7468 87.8716 97.4739)" style="overflow:visible;"/>
				</g>
			</g>
		</g>
	</g>
</g>
<g>
	<g>
		<defs>
			<rect id="SVGID_00000098937274891051365610000017419862271589417865_" x="38.4" y="55.5" width="98.9" height="152.6"/>
		</defs>
		<clipPath id="SVGID_00000093865529316387384080000014505533138188340872_">
			<use xlink:href="#SVGID_00000098937274891051365610000017419862271589417865_"  style="overflow:visible;"/>
		</clipPath>
		<g style="clip-path:url(#SVGID_00000093865529316387384080000014505533138188340872_);">
			<g>
				<defs>
					<rect id="SVGID_00000023996955801600553430000004160518857477808302_" x="38.2" y="124" width="99.3" height="84.4"/>
				</defs>
				<clipPath id="SVGID_00000125583553909761618510000005394439694582768004_">
					<use xlink:href="#SVGID_00000023996955801600553430000004160518857477808302_"  style="overflow:visible;"/>
				</clipPath>
				<g style="clip-path:url(#SVGID_00000125583553909761618510000005394439694582768004_);">
					
						<use xlink:href="#CK3"  width="133.4" height="113" x="-66.7" y="-56.5" transform="matrix(-0.7447 0 0 -0.7468 87.8765 166.1482)" style="overflow:visible;"/>
				</g>
			</g>
		</g>
	</g>
</g>
<g>
	<g>
		<defs>
			<rect id="SVGID_00000056423977424537497360000015181289421442871229_" x="38.4" y="55.5" width="98.9" height="152.6"/>
		</defs>
		<clipPath id="SVGID_00000078011526513423903010000006878855561790986687_">
			<use xlink:href="#SVGID_00000056423977424537497360000015181289421442871229_"  style="overflow:visible;"/>
		</clipPath>
		
			<g transform="matrix(1 0 0 1 0 -7.629395e-06)" style="clip-path:url(#SVGID_00000078011526513423903010000006878855561790986687_);">
			<g>
				<defs>
					<rect id="SVGID_00000155854175247783363530000002364484696843840924_" x="73.9" y="66.1" width="59" height="66.8"/>
				</defs>
				<clipPath id="SVGID_00000168086454211307510700000017978771683227039151_">
					<use xlink:href="#SVGID_00000155854175247783363530000002364484696843840924_"  style="overflow:visible;"/>
				</clipPath>
				<g style="clip-path:url(#SVGID_00000168086454211307510700000017978771683227039151_);">
					
						<use xlink:href="#CK4"  width="79.1" height="89.5" x="-39.5" y="-44.8" transform="matrix(0.7447 0 0 0.7468 103.2924 99.4789)" style="overflow:visible;"/>
				</g>
			</g>
		</g>
	</g>
</g>
<g>
	<g>
		<defs>
			<rect id="SVGID_00000037664819165264597670000006890925450101491867_" x="38.4" y="55.5" width="98.9" height="152.6"/>
		</defs>
		<clipPath id="SVGID_00000008109652262286541540000004504542074558659213_">
			<use xlink:href="#SVGID_00000037664819165264597670000006890925450101491867_"  style="overflow:visible;"/>
		</clipPath>
		<g style="clip-path:url(#SVGID_00000008109652262286541540000004504542074558659213_);">
			<g>
				<defs>
					<rect id="SVGID_00000057146348270275596380000004892543205190927491_" x="42.9" y="130.8" width="59" height="66.8"/>
				</defs>
				<clipPath id="SVGID_00000095321871419998435220000016177299953898581436_">
					<use xlink:href="#SVGID_00000057146348270275596380000004892543205190927491_"  style="overflow:visible;"/>
				</clipPath>
				<g style="clip-path:url(#SVGID_00000095321871419998435220000016177299953898581436_);">
					
						<use xlink:href="#CK4"  width="79.1" height="89.5" x="-39.5" y="-44.8" transform="matrix(-0.7447 0 0 -0.7468 72.4557 164.1431)" style="overflow:visible;"/>
				</g>
			</g>
		</g>
	</g>
</g>
<g>
	<g>
		<defs>
			<rect id="SVGID_00000124151668351949670270000005346757547899574718_" x="14.6" y="23.2" width="23.8" height="23.9"/>
		</defs>
		<clipPath id="SVGID_00000015340455780133809450000000381412002783878827_">
			<use xlink:href="#SVGID_00000124151668351949670270000005346757547899574718_"  style="overflow:visible;"/>
		</clipPath>
		<g style="clip-path:url(#SVGID_00000015340455780133809450000000381412002783878827_);">
			<g>
				<defs>
					<rect id="SVGID_00000103235121963087227560000004563585890761239991_" x="18.8" y="23.2" width="15.5" height="23.9"/>
				</defs>
				<clipPath id="SVGID_00000057133452326243363520000014078201397644834210_">
					<use xlink:href="#SVGID_00000103235121963087227560000004563585890761239991_"  style="overflow:visible;"/>
				</clipPath>
				<g style="clip-path:url(#SVGID_00000057133452326243363520000014078201397644834210_);">
					
						<use xlink:href="#VCK"  width="20.8" height="32" x="-10.4" y="-16" transform="matrix(0.7447 0 0 0.7468 26.5111 35.0998)" style="overflow:visible;"/>
				</g>
			</g>
		</g>
	</g>
</g>
<g>
	<g>
		<defs>
			<rect id="SVGID_00000073716262148797160440000012407627605707199395_" x="137.4" y="216.6" width="23.8" height="23.9"/>
		</defs>
		<clipPath id="SVGID_00000070078184738281151320000013899962964088861622_">
			<use xlink:href="#SVGID_00000073716262148797160440000012407627605707199395_"  style="overflow:visible;"/>
		</clipPath>
		<g style="clip-path:url(#SVGID_00000070078184738281151320000013899962964088861622_);">
			<g>
				<defs>
					<rect id="SVGID_00000183968379239793194580000003650107855385039775_" x="141.5" y="216.6" width="15.5" height="23.9"/>
				</defs>
				<clipPath id="SVGID_00000171680133945381526830000014974973489837370805_">
					<use xlink:href="#SVGID_00000183968379239793194580000003650107855385039775_"  style="overflow:visible;"/>
				</clipPath>
				
					<g transform="matrix(1 0 0 1 0 1.525879e-05)" style="clip-path:url(#SVGID_00000171680133945381526830000014974973489837370805_);">
					
						<use xlink:href="#VCK"  width="20.8" height="32" x="-10.4" y="-16" transform="matrix(-0.7447 0 0 -0.7468 149.2369 228.5222)" style="overflow:visible;"/>
				</g>
			</g>
		</g>
	</g>
</g>
<g>
	<rect id="XCK_00000003804725506953406940000004398644455852903855_" x="38.4" y="55.5" class="st18" width="98.9" height="152.6"/>
</g>
<g>
	<g>
		<defs>
			<rect id="SVGID_00000025401002001926070760000004221767546934528384_" x="16.5" y="50.8" width="19.9" height="20"/>
		</defs>
		<clipPath id="SVGID_00000176035629153568487760000007028697165929224621_">
			<use xlink:href="#SVGID_00000025401002001926070760000004221767546934528384_"  style="overflow:visible;"/>
		</clipPath>
		
			<g transform="matrix(1 0 0 1 1.907349e-06 0)" style="clip-path:url(#SVGID_00000176035629153568487760000007028697165929224621_);">
			<g>
				<defs>
					<rect id="SVGID_00000026881866479223114680000011152828757062979747_" x="18.2" y="51.9" width="16.6" height="16.7"/>
				</defs>
				<clipPath id="SVGID_00000167367699447919334800000007555230121319629236_">
					<use xlink:href="#SVGID_00000026881866479223114680000011152828757062979747_"  style="overflow:visible;"/>
				</clipPath>
				<g style="clip-path:url(#SVGID_00000167367699447919334800000007555230121319629236_);">
					
						<use xlink:href="#SC9"  width="22.3" height="22.3" x="-11.1" y="-11.1" transform="matrix(0.7447 0 0 0.7468 26.4743 59.7229)" style="overflow:visible;"/>
				</g>
			</g>
		</g>
	</g>
</g>
<g>
	<g>
		<defs>
			<rect id="SVGID_00000173845648272934080440000018037602187157530520_" x="139.3" y="192.8" width="19.9" height="20"/>
		</defs>
		<clipPath id="SVGID_00000025410695879842937350000002184214127891965846_">
			<use xlink:href="#SVGID_00000173845648272934080440000018037602187157530520_"  style="overflow:visible;"/>
		</clipPath>
		<g style="clip-path:url(#SVGID_00000025410695879842937350000002184214127891965846_);">
			<g>
				<defs>
					<rect id="SVGID_00000017490878762494802920000005622555502562001854_" x="141" y="195" width="16.6" height="16.7"/>
				</defs>
				<clipPath id="SVGID_00000164488448827785498590000007889427973648282281_">
					<use xlink:href="#SVGID_00000017490878762494802920000005622555502562001854_"  style="overflow:visible;"/>
				</clipPath>
				
					<g transform="matrix(1 0 0 1 0 1.525879e-05)" style="clip-path:url(#SVGID_00000164488448827785498590000007889427973648282281_);">
					
						<use xlink:href="#SC9"  width="22.3" height="22.3" x="-11.1" y="-11.1" transform="matrix(-0.7447 0 0 -0.7468 149.2737 203.8991)" style="overflow:visible;"/>
				</g>
			</g>
		</g>
	</g>
</g>
</svg>
