<?xml version="1.0" encoding="utf-8"?>
<!-- Generator: Adobe Illustrator 27.9.0, SVG Export Plug-In . SVG Version: 6.00 Build 0)  -->
<svg version="1.1" id="Layer_1" xmlns="http://www.w3.org/2000/svg" xmlns:xlink="http://www.w3.org/1999/xlink" x="0px" y="0px"
	 viewBox="0 0 175.7 263.6" style="enable-background:new 0 0 175.7 263.6;" xml:space="preserve">
<style type="text/css">
	.st0{fill:none;stroke:#000000;stroke-width:0.6129;stroke-linecap:round;stroke-linejoin:round;stroke-miterlimit:10;}
	.st1{fill:none;stroke:#000000;stroke-width:0.3065;stroke-linecap:round;stroke-linejoin:round;stroke-miterlimit:10;}
	.st2{fill:#FFFFFF;fill-opacity:0;}
	.st3{fill:#FFFFFF;}
	
		.st4{fill:none;stroke:#FFFFFF;stroke-width:12;stroke-linecap:round;stroke-linejoin:round;stroke-miterlimit:10;stroke-opacity:0;}
	.st5{fill:none;stroke:#FFFFFF;stroke-width:12;stroke-linecap:round;stroke-linejoin:round;stroke-miterlimit:10;}
	.st6{fill:none;stroke:#FFFFFF;stroke-width:2.56;stroke-linecap:square;stroke-miterlimit:10;}
	.st7{fill:#272727;stroke:#000000;}
	.st8{clip-path:url(#SVGID_00000183221528681387817210000001022212287162280580_);}
	.st9{clip-path:url(#SVGID_00000024686575857531866330000014866065893983403440_);}
	.st10{clip-path:url(#SVGID_00000148623154231721727510000017608791524185367472_);}
	.st11{clip-path:url(#SVGID_00000181773588183169032000000007007646759368345996_);}
	.st12{clip-path:url(#SVGID_00000108278426394773241370000014858525504747070634_);}
	.st13{clip-path:url(#SVGID_00000142897201131551665920000000855769911687258503_);}
	.st14{clip-path:url(#SVGID_00000093896890087553859470000008622959171435629221_);}
	.st15{clip-path:url(#SVGID_00000182518724319879699820000013435982261679005596_);}
	.st16{clip-path:url(#SVGID_00000013909257359124090090000007776671564717433012_);}
	.st17{clip-path:url(#SVGID_00000010998322858751451620000011563211005207060875_);}
	.st18{fill:none;stroke:#FFFFFF;}
	.st19{clip-path:url(#SVGID_00000176041246905470102540000000137100083047704987_);}
	.st20{clip-path:url(#SVGID_00000156583702800256341780000005046897058096803235_);}
</style>
<symbol  id="CQ1" viewBox="-66.4 -51.2 132.8 102.3">
	<path d="M-1.4-51.2c-0.8,0-1.4,1-1.4,2.2l0,0c0,1.2,0.6,2.2,1.4,2.2l0,0c0.8,0,1.4-1,1.4-2.2C0-50.2-0.6-51.2-1.4-51.2z
		 M-15.7-51.1c-0.8,0-1.4,1-1.4,2.2l0,0c0,1.2,0.6,2.2,1.4,2.2l0,0c0.8,0,1.4-1,1.4-2.2C-14.3-50.2-14.9-51.1-15.7-51.1z
		 M-39.5-18.5c-0.3,0.4-0.7,0.9-1,1.3l0.4-0.4c0.2,0,0.4,0,0.6,0c0.2,0,0.4,0,0.6,0c0.1,0,0.1,0,0.2,0c0.1,0,0.2,0,0.3,0
		c0.4,0,0.8,0,1.2,0.1c0.1,0,0.1,0,0.2,0c0.1,0,0.3,0,0.4,0c0.1,0,0.2,0,0.2,0c0.1,0,0.3,0,0.4,0c0.1,0,0.2,0,0.2,0s0,0,0.1,0
		c0.2,0,0.3,0,0.5,0v0.1v0.1l0,0l-0.1,0.1l0,0c0,0,0,0.1-0.1,0.1l0,0c0,0,0,0.1-0.1,0.1l0,0l-0.1,0.1l0,0l-0.1,0.1
		c-0.1,0.1-0.1,0.1-0.2,0.2c-0.1,0.1-0.1,0.1-0.2,0.2c-0.1,0.1-0.2,0.1-0.3,0.2l0,0c-0.1,0.1-0.2,0.1-0.3,0.2
		c-0.1,0.1-0.2,0.1-0.3,0.2l0,0c-0.6,0.3-1.4,0.6-2.5,0.9c-0.4,0.1-0.9,0.3-1.4,0.4c0.7,0.4,1,0.7,1.2,1.1c-0.4,0-0.7,0-1.1,0
		c-1.1,0-2.2,0.1-3.3,0.2l1.2-1.3c-0.8,0.8-1.7,1.6-2.6,2.3h64.9c-0.2-0.3-0.3-0.6-0.5-0.9l0,0c-0.1,0-0.2,0-0.3,0l0,0l0,0
		c-0.1,0-0.2,0-0.3,0l0,0c0,0,0,0-0.1,0s-0.2,0-0.3,0c-1.4-0.1-2.9-0.4-4.2-1.4h0.1c0,0-0.1,0-0.1-0.1c-0.2,0-0.4,0.1-0.7,0.2
		c0.7,0.4,1,0.7,1.2,1.1c-3.3,0-6.6,0.9-9.7-1.2c-0.2,0.1-0.5,0.1-0.7,0.2c0.7,0.4,1,0.7,1.2,1.1c-3.3,0-6.6,0.9-9.7-1.2
		c-0.2,0.1-0.4,0.1-0.6,0.2c0.7,0.4,1,0.7,1.2,1.1c-2.9,0-5.9,0.7-8.8-0.7c0.1,0.2,0.3,0.3,0.3,0.5c-3.3,0-6.6,0.9-9.7-1.2
		c-0.2,0.1-0.4,0.1-0.6,0.2c0.7,0.4,1,0.7,1.2,1.1c-3.3,0-6.6,0.9-9.7-1.2l2.1-0.8c-0.7,0.3-1.6,0.6-2.7,0.9c0.7,0.4,1,0.7,1.2,1.1
		c-3.3,0-6.6,0.9-9.7-1.2l4-1.5c0.3,0.1,0.5,0.2,0.8,0.2l-0.3-0.1c3.1-2.1,6.5-1.2,9.7-1.2c-0.3,0.6-0.8,1-2.2,1.6l1.2-0.5
		c0.3,0.1,0.5,0.2,0.8,0.2l-0.3-0.1c3.1-2.1,6.5-1.2,9.7-1.2c-0.2,0.4-0.5,0.7-1.1,1.1c0.3,0.1,0.5,0.2,0.8,0.2l-0.3-0.1
		c1.7-1.1,3.4-1.4,5.1-1.4c1.5,0,3.1,0.2,4.6,0.2c-0.2,0.5-0.7,0.9-1.6,1.4c0.2,0.1,0.5,0.1,0.7,0.2l-0.3-0.1
		c3.1-2.1,6.5-1.2,9.7-1.2c-0.2,0-0.5,0.3-1,0.6c0.3,0.1,0.5,0.2,0.8,0.2L0-16c3-2.1,6.3-1.2,9.6-1.2c-0.2,0.4-0.5,0.7-1,1l0,0
		C8.9-16.1,9.1-16,9.4-16l-0.3-0.1c0.1-0.1,0.2-0.1,0.3-0.2c0,0,0.1,0,0.1-0.1c0.1,0,0.1-0.1,0.2-0.1h0.1c0.1-0.1,0.2-0.1,0.3-0.1
		c0,0,0,0,0.1,0s0.2-0.1,0.2-0.1h0.1c0.1,0,0.2-0.1,0.2-0.1s0,0,0.1,0s0.2-0.1,0.3-0.1h0.1c0.1,0,0.1,0,0.2-0.1h0.1
		c0.1,0,0.2-0.1,0.3-0.1l0,0c0.1,0,0.2,0,0.3-0.1h0.1c0.1,0,0.2,0,0.2,0s0,0,0.1,0s0.2,0,0.3,0c0,0,0,0,0.1,0s0.2,0,0.2,0h0.1
		c0.1,0,0.2,0,0.2,0s0,0,0.1,0c0,0,0,0,0.1,0s0.3,0,0.4,0h0.1c0.1,0,0.3,0,0.4,0c0.2,0,0.4,0,0.6,0c0.1,0,0.1,0,0.2,0
		c0.1,0,0.3,0,0.4,0c0.1,0,0.1,0,0.2,0c0.4,0,0.8,0,1.1,0.1c-0.2-0.3-0.4-0.7-0.5-1L-39.5-18.5z M-12.8-14.8
		c-0.3,0.1-0.5,0.2-0.8,0.3c0,0,0,0,0.1,0L-12.8-14.8z M41.4-12.3c0,1.1,0.3,2.6,0.6,3.4c0.7-0.1,1.5,0,2.4,0.1l-2.2-2.3
		c-0.2-0.2-0.1-0.5,0.2-0.5c0.1,0,0.2,0,0.2,0.1l2.3,2.3c-0.1-0.9-0.1-1.7-0.1-2.4C43.9-12,42.5-12.3,41.4-12.3z M54.1-12.3
		c-1.1,0-2.6,0.3-3.4,0.6c0.1,0.7,0.1,1.5-0.1,2.4l2.3-2.3c0.1-0.1,0.1-0.1,0.2-0.1c0.3,0,0.4,0.3,0.2,0.5L51-8.9
		C51.9-9,52.7-9,53.4-9C53.9-9.7,54.1-11.2,54.1-12.3z M-54-7.3c-3.9,3.3-8,5.1-12.4,4.6V8.4l0.1,0.7c4.7-4.2,10.6-7,17.2-7.8
		L-54-7.3z M44.4-3c-0.9,0.1-1.7,0.1-2.4,0.1c-0.4,0.9-0.6,2.3-0.6,3.4c1.1,0,2.6-0.3,3.4-0.6c-0.1-0.7,0-1.5,0.1-2.4l-2.3,2.3
		c-0.3,0.3-0.7-0.1-0.4-0.4L44.4-3z M51.1-3l2.3,2.3C53.7-0.4,53.3,0,53-0.3l-2.3-2.3c0.1,0.9,0.1,1.7,0.1,2.4
		c0.9,0.4,2.3,0.6,3.4,0.6c0-1.1-0.3-2.6-0.6-3.4C52.8-2.9,52-2.9,51.1-3z M36.2,10.8L28,22.5l38.4,28.6V33.2L36.2,10.8z"/>
</symbol>
<symbol  id="CQ2" viewBox="-46.8 -52.8 93.6 105.7">
	<path d="M-6.6-52.8l-40.2,63.2v4.7c20.1,2.4,35.5-44.7,41.6-67.8L-6.6-52.8L-6.6-52.8z M19.2-20.4c-0.6,3.1-1.4,5.9-2.2,6.5
		c-1.8,1.4-6.2,8.7-7.2,9.2C9.3-4.4,8.7-4.3,8.1-4.3l0.1,0.6h17.7C23.1-10,20.9-15.5,19.2-20.4z M-30.6,8.5c-1,0.6-2.2,1.1-3.4,1.5
		l-0.4,0.5l4.9,8.6c1.3-0.2,2.7-0.3,4.2-0.3c0.3,0,0.6,0,0.9,0l-4.1-7.2h67.1c0.7-1.1,1.4-2.1,2.2-3L-30.6,8.5z M42.5,10.6
		c-0.8,0.9-1.5,1.9-2.1,3c-5,8.6-2.7,19.3,4.9,25l1.5-2c-6.6-4.9-8.6-14.1-4.2-21.7c0.5-0.8,1-1.6,1.6-2.3L42.5,10.6z M5.6,43.2
		c0.5,2.1,0.7,4.4,0.7,6.7c0,1,0,2-0.1,3H13v-7.2h20.1c0.1-0.9,0.2-1.7,0.3-2.5H5.6z"/>
</symbol>
<symbol  id="CQ3" viewBox="-66.7 -65.4 133.4 130.8">
	<path class="st0" d="M66.4,35.5l-31-23.1 M-66.3,14.5c5.6-5,13.1-8.1,21.3-8.1c17.5,0,31.7,13.9,31.7,31.2c0,5.9-1.6,11.3-4.5,16
		 M-66.2,14.6l42,31.2 M-14,30.9h27.7 M66.4,56.5L28,27.9 M35.3,12.4L24.2,28.3 M36.1,16.2L28,27.9 M21.2-3.7l14.2,16.1 M24.2,28.3
		c-8.7-6.4-11.3-18.6-5.6-28.4c0.8-1.3,1.7-2.5,2.6-3.7 M25.6,26.2c-7.6-5.7-9.9-16.4-4.9-25c0.6-1.1,1.3-2.1,2.1-3 M36.2,16.2
		l30.2,22.5 M27.2,24.2c-6.6-4.9-8.6-14.1-4.2-21.7c0.5-0.8,1-1.6,1.6-2.3 M35.2,12.5H20.7 M30.5,6.9h-9.3 M31.4,18.2h-9.1
		 M21.1-3.8h-71.3 M19.5-6.9h-65 M16.3-13h-55.9 M14.8-16.1h-52.2 M-0.8-65.1c3.5,14.4,4.7,26.4,15.6,49c1.8,3.8,3.9,7.9,6.3,12.4
		 M19-0.7h-67.1 M4.1-0.7C4.3,12.4,9,15.9,9.2,30.9 M1-0.7c0.3,13.1,5.9,16.6,6.1,31.6 M-7.1-0.7c0.3,17,9.2,18.6,9.7,31.7
		 M-11.2-0.7C-10.8,15.8-0.5,17.8,0,30.9 M-21.4-0.7c0.6,16.5,15,19.5,15.8,31.7 M-24.5-0.8c0.6,16.5,15.5,20,16.8,31.7 M-13.5,33.5
		h26.9 M-14.4,29.4H-8 M-14.9,27.9h6.4 M-15.4,26.3h6.3 M-15.3,24.8h5.4 M-15.2,23.3h4.3 M-15.1,21.7h3.1 M-15,20.2h1.7 M9.1,29.4h5
		 M9.1,27.9h5.5 M9,26.3h6 M8.8,24.8h6 M8.6,23.3h5.5 M8.4,21.7h5.1 M8.1,20.2h4.7 M7.8,18.7h4.4 M-14.9,18.7h0.2 M64.2,58
		c-5.1,4.4-11.9,7.1-19.3,7.1c-16.1,0-29.1-12.8-29.1-28.6c0-4.9,1.2-9.4,3.4-13.4 M57.8,53.3c-3.6,2.6-8,4.2-12.9,4.2
		c-12.1,0-21.5-9.3-21.5-20.9c0-2.7,0.5-5.3,1.5-7.6 M46.2,44.6c-0.4,0-0.8,0.1-1.2,0.1c-5,0-8.3-3.2-8.7-7.4 M48.8,46.6
		c-1.2,0.4-2.5,0.6-3.9,0.6c-6.7,0-11.2-4.7-11.2-10.7c0-0.4,0-0.8,0.1-1.1 M55.7,51.7c-3,2-6.7,3.2-10.7,3.2
		c-10.8,0-19-8.1-19-18.4c0-2.2,0.4-4.2,1-6.1 M0.8,35.2c0.4-2.5,3.6,0.7,1.1,1.1c2-1.5,2,3.1,0,1.5c2.5,0.4-0.7,3.6-1.1,1.1
		c1.5,2-3.1,2-1.5,0c-0.4,2.5-3.6-0.7-1.1-1.1c-2,1.5-2-3.1,0-1.5c-2.5-0.4,0.7-3.6,1.1-1.1C-2.3,33.2,2.3,33.2,0.8,35.2L0.8,35.2
		 M1.3,37.1c0,0.7-0.6,1.3-1.3,1.3s-1.3-0.6-1.3-1.3s0.6-1.3,1.3-1.3S1.3,36.4,1.3,37.1L1.3,37.1 M-6.6,33.5v7.2 M-44.1,6.4
		l-4.1-7.2 M-49.1,6.7L-54-1.8 M-26.2-65.1L-66.4-1.9 M-47.8-31.1c-5.1-1.9-10.3-1.5-15.6-0.3c8.2-8.9,7.8-21.9,9.8-33.7
		 M-32.3-65.1l-20.8,32.7 M-24.8-65.1C-30.9-42-46.2,5.2-66.4,2.7 M-21.7-65.1c-4.9,22.9-10.1,54.8-31.9,62.8 M-52.1-34.1l5,1.8
		 M-51.2-35.5l5,1.8 M-50.2-37l5,1.8 M-49.2-38.6l5,1.8 M-46.8-39.6l3.6,1.3 M-44.2-40.6l1.9,0.7 M-62.1-31.7
		c1.6-1.1,3.2-2.2,4.4-3.8c2.2,0.9,4.3,0.4,6.5,0.2 M-58.9-37.9c2.8,0.6,5.9,0.5,9,0.4 M-55.6-49.4c2.6,2.3-0.3,7.4,3.5,9.3
		c3.7,1.8,6-3.9,3.6-5.1c-2-1-4.6,2.6-2,3.6c1.4,0.6,2.1-2.9,1-2 M-55.7-49.4c3.4,1.2,6.1-4.2,9.9-2c3.5,2.1,0,7.2-2.4,5.8
		c-2-1.2-0.3-5.2,1.9-3.6c1.3,0.9-1.4,3.3-1.2,2 M-42.6-48.9c-0.4-2.1-0.9-4.1-2.9-4.9c0.4-2.8,0.1-5.3-1.5-7.2
		c1.8-0.2,3.5-0.2,5.6-2c2.9,1,5.4,0.3,7.9-0.2 M-40.8-51.8c-0.5-1.2-1.1-2.2-2.1-3.1c0.2-1.5,0-2.7-0.5-3.6c0.9,0.1,2.2,0.1,3.6-1
		c0.9,0.7,2.1,0.9,3.3,1 M-26.1-60.3c1.4-0.5,2.7-1.3,3.9-2.3 M-26.8-57.8c1.5-0.4,2.8-1.4,4.1-2.3 M-27.5-55.5
		c1.6-0.6,3-1.6,4.4-2.7 M-28.3-52.8c1.7-0.4,3.1-1.4,4.6-2.4 M-29-50.5c1.8-0.5,3.3-1.7,4.8-2.8 M-29.9-47.9
		c1.9-0.3,3.5-1.3,5.1-2.5 M-30.7-45.4c2-0.5,3.9-2.1,5.5-3.4 M-31.6-42.8c2.1-0.4,4.1-2,5.8-3.4 M-32.4-40.5
		c2.2-0.5,4.3-2.4,6.1-3.8 M-33.3-38.2c2.2-0.9,4.8-2.6,6.4-3.9 M-34.2-35.6c2.3-0.8,5-2.6,6.7-3.9 M-35.3-33c2.3-0.6,5.1-2.5,7-3.9
		 M-36.3-30.6c2.4-0.7,5.5-2.7,7.3-4.1 M-37.4-28c2.3-0.4,5.5-2.5,7.6-4 M-38.5-25.6c2.4-0.4,5.8-2.6,7.8-4.2 M-39.3-23.6
		c2.5-0.6,5.8-2.1,7.6-3.4 M-40.6-21.2c2.5-0.6,5.9-2.2,7.8-3.4 M-41.9-18.6c2.2-0.4,5.5-1.8,7.7-3.1 M-43.2-16.2
		c2.3-0.4,5.7-1.9,7.9-3.2 M-44.7-13.6c2.3-0.5,5.7-1.9,7.9-3.2 M-46.1-11.5c2.7-0.7,6.4-2.4,8.2-3.7 M-47.8-9
		c2.5-0.6,5.9-2.1,7.8-3.4 M-49.7-6.5c2-0.4,4.7-1.5,6.7-2.6 M1.2-45.2c2.1,8,5.1,17.1,10.8,29.1 M1.9-53.5C1.6-49.8,1-42.9,1-42.1
		c0,1.5-1.9,14.6-3.6,15.8c-1.8,1.4-6.2,8.7-7.2,9.2c-2.6,1.5-7-1.5-7.7-2c-4,1.1-13.3-9.9-10.1-11.8l-2.4-1 M0.6-38
		c1.9,6.3,4.6,13.4,8.6,22 M-0.4-32.8c1.7,5,3.9,10.5,6.8,16.7 M8.7-17.1H5.9 M8-18.6H5.2 M7.3-20.2H4.6 M6.7-21.7H3.9 M6-23.2H3.3
		 M5.4-24.7H2.6 M4.8-26.3H2 M4.2-27.8H1.4 M3.6-29.3H0.9 M3-30.9H0.3 M2.5-32.4h-2.7 M1.9-33.9h-2 M1.4-35.5H0.1 M-25.2-23.9
		c-1.9-1.9-3.7-3.9-5.3-6.3 M-15.4-16.1c-1.9-1.3-3.8-2.6-5.6-4.1 M-17.9-16.1c-4.8-3.3-9.4-7.2-13.2-12.5 M-20.4-16.1
		c-4.1-3-8-6.4-11.4-10.9 M-22.8-16c-3.5-2.6-6.7-5.6-9.6-9.4 M-25.1-16.1c-2.8-2.3-5.5-4.8-7.9-7.9 M-27.4-16
		c-2.2-1.9-4.4-4-6.4-6.5 M-29.6-16.1c-1.7-1.5-3.3-3.2-4.9-5.1 M-31.7-16c-1.2-1.1-2.4-2.4-3.5-3.7 M-33.8-16.1
		c-0.7-0.7-1.5-1.5-2.2-2.3 M-35.8-16.1c-0.3-0.3-0.6-0.7-0.9-1 M-28.3-29.5c-0.6-0.7-1.1-1.5-1.7-2.3 M-12.8-16.1
		c-1.1-0.7-2.2-1.4-3.3-2.2 M-25.5-8.9c-1.2,0-2.3-0.3-3.5-0.9 M-31.2-9.1c3.1,2.1,6.5,1.2,9.7,1.2c-0.4-1-1.6-1.5-5.7-2.8
		 M-21.1-10.8c-1.2,0-2.3,0.3-3.5,0.9 M-26.7-10.6c3.1-2.1,6.5-1.2,9.7-1.2c-0.4,1-1.6,1.5-5.7,2.8 M-16.5-9c-1.2,0-2.3-0.3-3.5-0.9
		 M-22.1-9.2C-19-7.1-15.6-8-12.4-8c-0.4-1-1.6-1.5-5.7-2.8 M-12-10.9c-1.2,0-2.3,0.3-3.5,0.9 M-17.6-10.6c3.1-2.1,6.5-1.2,9.7-1.2
		c-0.4,1-1.6,1.5-5.7,2.8 M-8-8.8c-1.2,0-2.3-0.3-3.5-0.9 M-13.7-9c3.1,2.1,6.5,1.2,9.7,1.2c-0.4-1-1.6-1.5-5.7-2.8 M-3.6-10.7
		c-1.2,0-2.3,0.3-3.5,0.9 M-9.2-10.4c3.1-2.1,6.5-1.2,9.7-1.2c-0.4,1-1.6,1.5-5.7,2.8 M1-8.9c-1.2,0-2.3-0.3-3.5-0.9 M-4.6-9.1
		C-1.5-7,1.9-7.9,5.1-7.9c-0.4-1-1.6-1.5-5.7-2.8 M5.5-10.8c-1.2,0-2.3,0.3-3.5,0.9 M-0.1-10.5c3.1-2.1,6.5-1.2,9.7-1.2
		C9.1-10.8,8-10.2,3.9-9 M10.2-9C9-9,7.9-9.3,6.8-9.9 M4.6-9.2C7.7-7.1,11-8,14.3-8c-0.4-1-1.6-1.5-5.7-2.8 M14.7-10.9
		c-1.2,0-2.3,0.3-3.5,0.9 M9.1-10.6c2.5-1.7,5.2-1.5,7.8-1.3 M17.5-10.7c-0.9,0.5-2.2,0.9-4.4,1.6 M-34.7-8.9
		c-1.2,0-2.3-0.3-3.5-0.9 M-40.4-9.1c3.1,2.1,6.5,1.2,9.7,1.2c-0.4-1-1.6-1.5-5.7-2.8 M-30.3-10.8c-1.2,0-2.3,0.3-3.5,0.9
		 M-35.9-10.6c3.1-2.1,6.5-1.2,9.7-1.2c-0.4,1-1.6,1.5-5.7,2.8 M-40.2-12.1c1.7-0.1,3.3,0.2,5,0.2c-0.4,1-1.6,1.5-5.7,2.8 M-39.2-11
		c-0.8,0-1.6,0.1-2.4,0.4 M-44.1-7.9c1.5,0,3-0.2,4.5-0.2c-0.3-0.6-0.9-1.1-2.6-1.8 M18.3-9.1c-0.8-0.1-1.6-0.4-2.4-0.9 M13.8-9.2
		C15.5-8,17.3-7.8,19-7.8 M33.9,38.3l-5.3,0.8c-0.2,1.3,0.2,1.9,0.5,2.6l5.1-1.7 M34.7,41.2L30,43.4c0.1,1.3,0.7,1.7,1.2,2.3
		l4.4-3.1 M36.4,43.7l-3.9,3.6c0.6,1.2,1.3,1.4,1.9,1.7l3.2-4.1 M39.3,45.9l-2.4,4.5c1,0.9,1.7,0.8,2.4,1l1.6-4.7 M42.4,47l-1,5.4
		c1.2,0.6,1.8,0.3,2.6,0.2l0.3-5.3 M46.2,47.2l0.6,5.6c1.3,0.2,1.9-0.2,2.6-0.5l-1.3-5.5 M33.5,35.2l-5.2-0.8
		c-0.6,1.2-0.4,1.8-0.3,2.6h5.6 M21.1,33.6c-0.1,0.7-0.7,1.2-1.4,1.2s-1.2-0.7-1.2-1.4s0.7-1.2,1.4-1.2S21.2,32.9,21.1,33.6
		L21.1,33.6 M18.5,34.7c-2.7,1.3-2.2-4.3,0.2-2.5c-1.3-2.7,4.3-2.2,2.5,0.2c2.7-1.3,2.2,4.3-0.2,2.5C22.4,37.5,16.8,37.1,18.5,34.7
		L18.5,34.7 M21.6,42.1c0.1,0.7-0.3,1.4-1,1.5s-1.4-0.3-1.5-1s0.3-1.4,1-1.5C20.8,40.9,21.4,41.4,21.6,42.1L21.6,42.1 M19.3,43.8
		c-2.2,2-3.2-3.6-0.5-2.5c-2-2.2,3.6-3.2,2.5-0.5c2.2-2,3.2,3.6,0.5,2.5C23.8,45.6,18.2,46.6,19.3,43.8L19.3,43.8 M25,49.8
		c0.3,0.6,0,1.4-0.7,1.7c-0.6,0.3-1.4,0-1.7-0.7l0,0c-0.3-0.6,0-1.4,0.7-1.7S24.8,49.1,25,49.8L25,49.8L25,49.8 M23.2,52
		c-1.7,2.4-4-2.8-1-2.3c-2.4-1.7,2.8-4,2.3-1c1.7-2.4,4,2.8,1,2.3C28,52.7,22.8,54.9,23.2,52L23.2,52 M30.7,55.5
		c0.5,0.5,0.5,1.3,0.1,1.8c-0.5,0.5-1.3,0.5-1.8,0.1l0,0c-0.5-0.5-0.5-1.3-0.1-1.8C29.4,55,30.2,55,30.7,55.5L30.7,55.5L30.7,55.5
		 M29.9,58.2c-0.6,2.9-4.7-0.9-1.9-1.7c-2.9-0.6,0.9-4.7,1.7-1.9c0.6-2.9,4.7,0.9,1.9,1.7C34.5,57,30.7,61.1,29.9,58.2L29.9,58.2
		 M37.8,59c0.7,0.2,1.1,0.9,0.9,1.6c-0.2,0.7-0.9,1.1-1.6,0.9l0,0c-0.7-0.2-1.1-0.9-0.9-1.6C36.4,59.2,37.1,58.8,37.8,59L37.8,59
		L37.8,59 M38.3,61.8c0.7,2.9-4.6,1.3-2.4-0.7c-2.9,0.7-1.3-4.6,0.7-2.4c-0.7-2.9,4.6-1.3,2.4,0.7C41.9,58.6,40.3,64,38.3,61.8
		L38.3,61.8 M46.7,60c0.7,0,1.3,0.5,1.3,1.2s-0.5,1.3-1.2,1.3l0,0c-0.7,0-1.3-0.5-1.3-1.2S46,60,46.7,60L46.7,60L46.7,60 M48.1,62.5
		c1.6,2.5-4,2.7-2.6,0.1c-2.5,1.6-2.7-4-0.1-2.6c-1.6-2.5,4-2.7,2.6-0.1C50.5,58.4,50.7,64,48.1,62.5L48.1,62.5 M55.1,57.9
		c0.7-0.3,1.4,0,1.7,0.7s0,1.4-0.7,1.7s-1.4,0-1.7-0.7S54.4,58.2,55.1,57.9L55.1,57.9 M57.2,59.7c2.4,1.8-2.8,3.9-2.4,1
		c-1.8,2.4-3.9-2.8-1-2.4c-2.4-1.8,2.8-3.9,2.4-1C58,55,60.2,60.2,57.2,59.7L57.2,59.7 M50.2,47.6l1.9,3.7c0.9-0.2,1.4-0.6,1.8-1
		 M-0.7-65.1C9.7-30.1,34.6-18,22.9-1.8 M44.9-3.3c-1.5-9.2,7.2-9.2,5.6,0c9.2-1.5,9.2,7.2,0,5.6c1.5,9.2-7.2,9.2-5.6,0
		C35.8,3.9,35.8-4.8,44.9-3.3L44.9-3.3 M47.8-7.1c0,6.1,0.5,6.6,6.6,6.6c-6.1,0-6.6,0.5-6.6,6.6c0-6.1-0.5-6.6-6.6-6.6
		C47.2-0.5,47.8-1,47.8-7.1L47.8-7.1 M49-0.5c0,0.7-0.6,1.3-1.3,1.3s-1.3-0.6-1.3-1.3s0.6-1.3,1.3-1.3l0,0C48.5-1.8,49-1.2,49-0.5
		L49-0.5L49-0.5 M42-3.4c-0.4-0.9-0.6-2.3-0.6-3.4c1.1,0,2.6,0.3,3.4,0.6 M50.7-6.2c0.9-0.4,2.3-0.6,3.4-0.6c0,1.1-0.3,2.6-0.6,3.4
		 M42,2.5c-0.4,0.9-0.6,2.3-0.6,3.4c1.1,0,2.6-0.3,3.4-0.6 M50.7,5.3c0.9,0.4,2.3,0.6,3.4,0.6c0-1.1-0.3-2.6-0.6-3.4 M44,18.9
		c0.1-0.7,0.4-1.6,0.9-2.2c1-1,7.2-4.1,8.2-4.1s2,1.5,3.1,1.5s1.5,2.6-0.5,2.6s-3.6-1-3.6-1c0.2,2.2-1.3,2.8-2.6,3.6 M51.4,17.9
		c0.5,2.4,0.1,4.3-0.6,5.9 M56.2,17.1c7.7-2.6,8.4,1.2,1,2.6C51.6,20.7,51.1,18.8,56.2,17.1L56.2,17.1 M56,19.9
		c7.2-1.9,7.9,1.6,0.9,2.6C51.5,23.2,51.1,21.2,56,19.9L56,19.9 M56.1,22.8c7.3-1,7.6,2.6,0.6,2.7C51.3,25.6,51.1,23.5,56.1,22.8
		L56.1,22.8 M56.2,14.1c0.3-0.4,0.8-0.7,1.4-1.1c4.6-2.7,5.3,1.5,0.8,3.2c-0.9,0.4-1.6,0.4-2.1,0.3 M54.7,13
		c-1.9-4,3.6-8.2,5.1-12.8C60.6,5.8,61.1,11.1,54.7,13L54.7,13 M54.7,13c1.8-2.7,3.1-5.8,4.6-8.7 M48.6,9.1c1.4,0.3,2.7,1.3,4,3.5
		c-6.4,0.7-11.5,0.3-13.3-2.6c2.6,0.3,5-0.8,7.2-1 M52.6,12.5c-2.5-1-5.3-1.7-8.7-1.8 M1.7-51.4C-0.2-52-2-53-3.4-54.6
		c-2-2.1-3.5-5.3-4.2-10.5 M1.8-52.4c-1.7-0.6-3.2-1.5-4.4-2.9c-1.8-1.9-3.2-4.8-3.9-9.8 M1.8-53.5C0.3-54.1-0.9-54.8-2-56
		c-1.6-1.7-2.9-4.4-3.6-9.1 M1.3-56c-0.6-0.4-1.2-0.8-1.7-1.4c-1.2-1.3-2.4-3.5-3.1-7.7 M1.6-54.7c-1.1-0.5-2-1.1-2.8-2
		c-1.4-1.5-2.7-3.9-3.4-8.4 M1-57.5c-0.2-0.2-0.4-0.4-0.7-0.6c-1-1.1-2.1-3-2.8-7 M-14.1-65.1c-0.9,5.4-2.8,9.6-5.6,12.6
		c-1.7,1.8-3.6,3.1-5.5,4 M-15.1-65.1c-0.9,5.2-2.7,9.1-5.3,11.9c-1.4,1.5-2.9,2.6-4.5,3.4 M-16.2-65.1c-0.9,5-2.6,8.6-5,11.2
		c-1.1,1.1-2.2,2-3.4,2.8 M-17.2-65.1c-0.9,4.7-2.5,8.1-4.7,10.5c-0.7,0.8-1.5,1.5-2.4,2 M-23.2-58c1.2-1.7,2.2-4,2.8-7.1
		 M-18.3-65.1c-0.9,4.5-2.4,7.6-4.5,9.8c-0.4,0.4-0.8,0.8-1.3,1.2 M-19.3-65.1c-0.9,4.4-2.4,7.3-4.3,9.3 M0.5-59.4
		c-0.7-1-1.5-2.7-2-5.7 M-25.4-62.9c1.3-0.5,2.5-1.3,3.7-2.2 M-23.5-46.7c3.9-2.3,7.7-4.9,12.3-1.5v0.5
		C-17.4-51.3-18.4-48.8-23.5-46.7L-23.5-46.7 M-6.1-47.7v0.6c2-2.1,4.6-1.7,7.2-1.1C-2.8-50.2-4.5-49.1-6.1-47.7L-6.1-47.7
		 M-6.1-47.7c0,0-0.5,1.5-0.5,4.6c0,2.6,2,8.7,2,9.7c0,1.3-1.3,2.3-2,2c-0.5-0.1-2,2-2,2 M-11.7-35c-1,0-3.1,3.6-0.5,3.6
		c4.1-1.5,6.1-0.5,0,0 M-14.8-27.8l-0.5,1l1-0.5L-14.8-27.8L-14.8-27.8 M-5.1-27.8l-0.5,1l-0.5-0.5L-5.1-27.8L-5.1-27.8 M-14.3-27.3
		c1,0,2-0.5,3.1-0.5s1.5,0.5,2,0.5s1-0.5,1.5-0.5s1,0.5,1.5,0.5 M-12.3-24.7c1.4,0.4,2.2,2.1,4.6,0 M-12.3-45.2
		c-5.3-1.8-7.6,2.9-10.2,3.1c4.1,0,3.6,0.9,5.1,1c3.9,0.3,5.2-2.7,4.4-4.3 M1-44.7c-3.6-3.1-5.6,2-7.7,1.5c3,0.7,5.1,3.1,7.7-0.5
		 M52.4,12.1c-0.5-2.2-0.9-4.5-1.7-6.5 M54.7,13c-0.6-2.4-1.1-4.9-1.8-7.3 M56.8,25.5C56.2,26,55,26.2,54,26.2 M-6.9,2.8h5.8
		 M-6.4,6.4h5.7 M-5.4,10h5.6 M-3.9,13.6h5.2 M-2,17.1h4.5 M-0.1,20.7h3.6 M1.4,24.3h2.8 M2.2,27.9h2.4 M-6.7,4.6h5.5
		c1,0,1.8-0.8,1.8-1.8S-0.1,1-1.1,1h-5.8 M-5.9,8.2h5.3c1,0,1.8-0.8,1.8-1.8S0.4,4.6-0.6,4.6h-5.7 M-4.7,11.8h4.9
		C1.2,11.8,2,11,2,10S1.2,8.2,0.2,8.2h-5.6 M-3,15.3h4.3c1,0,1.8-0.8,1.8-1.8s-0.8-1.8-1.8-1.8h-5.2 M-1,18.9h3.5
		c1,0,1.8-0.8,1.8-1.8s-0.8-1.8-1.8-1.8H-2 M0.7,22.5h2.8c1,0,1.8-0.8,1.8-1.8s-0.8-1.8-1.8-1.8h-3.6 M1.9,26.1h2.3
		c1,0,1.8-0.8,1.8-1.8s-0.8-1.8-1.8-1.8H1.4 M2.5,29.6h2.1c1,0,1.8-0.8,1.8-1.8S5.6,26,4.6,26H2.2 M-18.6,2.8h7.7 M-17.6,6.4h7.3
		 M-15.8,10h6.7 M-13.2,13.6h5.8 M-10.1,17.1h4.9 M-7.2,20.7H-3 M-5,24.3h3.7 M-3.7,27.9h3.4 M-11.1,1h-7.5c-1,0-1.8,0.8-1.8,1.8
		s0.8,1.8,1.8,1.8h7.7 M-10.7,4.6h-6.9c-1,0-1.8,0.8-1.8,1.8s0.8,1.8,1.8,1.8h7.3 M-9.7,8.2h-6c-1,0-1.8,0.8-1.8,1.8
		s0.8,1.8,1.8,1.8H-9 M-8.3,11.8h-4.9c-1,0-1.8,0.8-1.8,1.8s0.8,1.8,1.8,1.8h5.8 M-6.3,15.3h-3.8c-1,0-1.8,0.8-1.8,1.8
		s0.8,1.8,1.8,1.8h4.9 M-4,18.9h-3.1c-1,0-1.8,0.8-1.8,1.8s0.8,1.8,1.8,1.8H-3 M-2.1,22.5H-5c-1,0-1.8,0.8-1.8,1.8S-6,26.1-5,26.1
		h3.7 M-0.8,26.1h-2.9c-1,0-1.8,0.8-1.8,1.8s0.8,1.8,1.8,1.8h3.4"/>
</symbol>
<symbol  id="CQ4" viewBox="-46.3 -50.9 92.7 101.8">
	<path class="st1" d="M30.4,9.5c0,1.6,1.2,1.7,2.4,1.8 M30.1,14.1c0.4,1,0.6,1.8,0.2,2.2 M30,16.7c0.4,1,0.6,1.8,0.2,2.2 M30,19.5
		c0.4,1,0.6,1.8,0.2,2.2 M33.4,13.9c0.2,0.3,0.3,0.6,0.3,1 M34,16.7c0.1,0.3,0.2,0.7,0.1,1 M33.8,19.9c0.2,0.3,0.2,0.7,0.1,1
		 M34,10.3c0.2,0.3,0.3,0.6,0.3,1 M-46.2-47.9c3-3,9.2-2.1,9-1.2 M-41.6-43.3c2.2,1.4,4.1-2.6,4.6-4.1 M-30.4-46.9
		c1.8-5.2,5.6-4.1,6.1-2.6 M-38.8-49.4c0.5,0.5,0.8,1.2,0.8,2c0,1.4-0.9,2.6-2,2.6s-2-1.1-2-2.6c0-0.4,0.1-0.9,0.2-1.2 M-23.9-48.9
		c0.1,0.3,0.2,0.6,0.2,1c0,1.4-0.9,2.6-2,2.6s-2-1.1-2-2.6c0-0.2,0-0.5,0.1-0.7"/>
	<g>
		<defs>
			
				<rect id="SVGID_1_" x="8.8" y="18.8" transform="matrix(0.7071 -0.7071 0.7071 0.7071 -12.5336 16.1871)" width="8.9" height="8.9"/>
		</defs>
		<clipPath id="SVGID_00000104702554874292866760000001982018535210586781_">
			<use xlink:href="#SVGID_1_"  style="overflow:visible;"/>
		</clipPath>
		
			<g transform="matrix(1 0 0 1 9.536743e-07 0)" style="clip-path:url(#SVGID_00000104702554874292866760000001982018535210586781_);">
			
				<use xlink:href="#SCQ"  width="87" height="87" x="-43.5" y="-43.5" transform="matrix(7.223368e-02 -7.223343e-02 7.223368e-02 7.223343e-02 13.2727 23.2229)" style="overflow:visible;"/>
		</g>
	</g>
	<g>
		<defs>
			
				<rect id="SVGID_00000136373815976733505900000004983605741127114887_" x="8.8" y="18.8" transform="matrix(0.7071 -0.7071 0.7071 0.7071 -12.5336 16.1871)" width="8.9" height="8.9"/>
		</defs>
		<clipPath id="SVGID_00000157276034872167345710000014700868728653121665_">
			<use xlink:href="#SVGID_00000136373815976733505900000004983605741127114887_"  style="overflow:visible;"/>
		</clipPath>
		
			<g transform="matrix(1 0 0 1 9.536743e-07 0)" style="clip-path:url(#SVGID_00000157276034872167345710000014700868728653121665_);">
			
				<use xlink:href="#SCQ"  width="87" height="87" x="-43.5" y="-43.5" transform="matrix(7.223368e-02 -7.223343e-02 7.223368e-02 7.223343e-02 13.2727 23.2229)" style="overflow:visible;"/>
		</g>
	</g>
	<g>
		<defs>
			
				<rect id="SVGID_00000067951755308236813190000013674506871500532115_" x="19.9" y="26.6" transform="matrix(0.7071 -0.7071 0.7071 0.7071 -14.8642 26.2922)" width="8.9" height="8.9"/>
		</defs>
		<clipPath id="SVGID_00000181082393642230063640000004414811822137047962_">
			<use xlink:href="#SVGID_00000067951755308236813190000013674506871500532115_"  style="overflow:visible;"/>
		</clipPath>
		<g style="clip-path:url(#SVGID_00000181082393642230063640000004414811822137047962_);">
			
				<use xlink:href="#SCQ"  width="87" height="87" x="-43.5" y="-43.5" transform="matrix(7.223368e-02 -7.223343e-02 7.223368e-02 7.223343e-02 24.3053 31.0888)" style="overflow:visible;"/>
		</g>
	</g>
	<g>
		<defs>
			
				<rect id="SVGID_00000153671651592659008930000004407677114130105013_" x="19.9" y="26.6" transform="matrix(0.7071 -0.7071 0.7071 0.7071 -14.8642 26.2922)" width="8.9" height="8.9"/>
		</defs>
		<clipPath id="SVGID_00000178905945880661513110000014175075790448578964_">
			<use xlink:href="#SVGID_00000153671651592659008930000004407677114130105013_"  style="overflow:visible;"/>
		</clipPath>
		<g style="clip-path:url(#SVGID_00000178905945880661513110000014175075790448578964_);">
			
				<use xlink:href="#SCQ"  width="87" height="87" x="-43.5" y="-43.5" transform="matrix(7.223368e-02 -7.223343e-02 7.223368e-02 7.223343e-02 24.3053 31.0888)" style="overflow:visible;"/>
		</g>
	</g>
	<g>
		<defs>
			
				<rect id="SVGID_00000088834146427969190030000000530081928765731990_" x="30.5" y="35" transform="matrix(0.7071 -0.7071 0.7071 0.7071 -17.6756 36.258)" width="8.9" height="8.9"/>
		</defs>
		<clipPath id="SVGID_00000129164063211168963940000003868799546955306383_">
			<use xlink:href="#SVGID_00000088834146427969190030000000530081928765731990_"  style="overflow:visible;"/>
		</clipPath>
		
			<g transform="matrix(1 0 0 1 3.814697e-06 0)" style="clip-path:url(#SVGID_00000129164063211168963940000003868799546955306383_);">
			
				<use xlink:href="#SCQ"  width="87" height="87" x="-43.5" y="-43.5" transform="matrix(7.223368e-02 -7.223343e-02 7.223368e-02 7.223343e-02 34.9293 39.4653)" style="overflow:visible;"/>
		</g>
	</g>
	<g>
		<defs>
			
				<rect id="SVGID_00000129916611484226426900000002158202887893339784_" x="30.5" y="35" transform="matrix(0.7071 -0.7071 0.7071 0.7071 -17.6756 36.258)" width="8.9" height="8.9"/>
		</defs>
		<clipPath id="SVGID_00000163059055822173721190000003546471360708339620_">
			<use xlink:href="#SVGID_00000129916611484226426900000002158202887893339784_"  style="overflow:visible;"/>
		</clipPath>
		
			<g transform="matrix(1 0 0 1 3.814697e-06 0)" style="clip-path:url(#SVGID_00000163059055822173721190000003546471360708339620_);">
			
				<use xlink:href="#SCQ"  width="87" height="87" x="-43.5" y="-43.5" transform="matrix(7.223368e-02 -7.223343e-02 7.223368e-02 7.223343e-02 34.9293 39.4653)" style="overflow:visible;"/>
		</g>
	</g>
</symbol>
<symbol  id="SC9" viewBox="-11.1 -11.1 22.3 22.3">
	<rect x="-11.1" y="-11.1" class="st2" width="22.3" height="22.3"/>
	<path class="st3" d="M0.8,3.3C0.9,8.5,2,8.9,3,11.1h-5.8c1-2.2,2.1-2.6,2.2-7.8c0-0.1-0.1-0.2-0.2-0.2S-1,3.2-1,3.3
		c-0.5,2.6-2.9,4.3-5.5,3.8c-2.5-0.5-4.2-2.9-3.8-5.5c0.5-2.5,2.9-4.2,5.5-3.8c0.8,0.1,1.5,0.5,2.1,1c0.1,0.1,0.2,0.1,0.3,0
		s0.1-0.2,0-0.3c-2.5-1.4-3.4-4.5-2.1-7s4.5-3.4,7-2.1s3.4,4.5,2.1,7c-0.5,1-1.2,1.7-2,2.2c-0.1,0.1-0.1,0.2,0,0.3s0.2,0.1,0.3,0
		c2-1.6,5-1.3,6.6,0.7s1.3,5-0.7,6.6s-5,1.3-6.6-0.7c-0.5-0.6-0.8-1.3-1-2.1c0-0.1-0.1-0.2-0.2-0.2S0.8,3.2,0.8,3.3z"/>
</symbol>
<symbol  id="SCQ" viewBox="-43.5 -43.5 87 87">
	<rect x="-37.5" y="-37.5" class="st4" width="75" height="75"/>
	<path class="st5" d="M2.2,11.2C2.6,28.9,6.4,30,9.8,37.5H-9.8c3.4-7.5,7.1-8.6,7.5-26.2c0-0.4-0.3-0.8-0.8-0.8s-0.8,0.3-0.8,0.8
		c-1.6,8.6-9.8,14.2-18.3,12.6c-8.6-1.6-14.2-9.8-12.6-18.3S-25-8.6-16.5-7c2.6,0.5,5,1.6,7.1,3.3C-9-3.6-8.5-3.6-8.2-4
		C-8-4.3-8-4.6-8.2-4.9c-8.4-4.6-11.5-15-6.9-23.4s15-11.5,23.4-6.9s11.5,15,6.9,23.4c-1.6,2.9-4,5.3-6.9,6.9C8-4.5,8.1-4.1,8.4-3.8
		c0.3,0.2,0.6,0.2,0.9,0C16-9.3,26-8.3,31.5-1.5s4.5,16.7-2.3,22.2S12.5,25.1,7,18.3c-1.7-2-2.8-4.5-3.3-7.1c0-0.4-0.3-0.8-0.8-0.8
		S2.2,10.8,2.2,11.2z"/>
</symbol>
<symbol  id="VCQ" viewBox="-9.6 -16 19.2 32">
	<path class="st6" d="M-8.3,3.2c9.6,0,7,11.5,16.6,11.5 M-5.6,0v-9.1c0-3.1,2.5-5.6,5.6-5.6s5.6,2.5,5.6,5.6V9.1
		c0,3.1-2.5,5.6-5.6,5.6s-5.6-2.5-5.6-5.6V0z"/>
</symbol>
<path class="st7" d="M23.5,9.3h128.8c7.8,0,14.1,6.4,14.1,14.2v216.6c0,7.8-6.3,14.2-14.1,14.2H23.5c-7.8,0-14.1-6.4-14.1-14.2V23.5
	C9.3,15.7,15.6,9.3,23.5,9.3z"/>
<g>
	<rect id="XCQ" x="38.4" y="55.5" class="st3" width="98.9" height="152.6"/>
</g>
<g>
	<g>
		<defs>
			<rect id="SVGID_00000063630853194138025070000016814857870588860593_" x="38.4" y="55.5" width="98.9" height="152.6"/>
		</defs>
		<clipPath id="SVGID_00000110438852078856510430000008980965123193244293_">
			<use xlink:href="#SVGID_00000063630853194138025070000016814857870588860593_"  style="overflow:visible;"/>
		</clipPath>
		<g style="clip-path:url(#SVGID_00000110438852078856510430000008980965123193244293_);">
			<g>
				<defs>
					<rect id="SVGID_00000174584156617487823150000005854185931704223422_" x="38.4" y="70" width="98.9" height="76.4"/>
				</defs>
				<clipPath id="SVGID_00000114068937436283856460000017235417062835514804_">
					<use xlink:href="#SVGID_00000174584156617487823150000005854185931704223422_"  style="overflow:visible;"/>
				</clipPath>
				
					<g transform="matrix(1 0 0 1 0 -7.629395e-06)" style="clip-path:url(#SVGID_00000114068937436283856460000017235417062835514804_);">
					
						<use xlink:href="#CQ1"  width="132.8" height="102.3" x="-66.4" y="-51.2" transform="matrix(0.7447 0 0 0.7468 87.874 108.1648)" style="overflow:visible;"/>
				</g>
			</g>
		</g>
	</g>
</g>
<g>
	<g>
		<defs>
			<rect id="SVGID_00000039119526600288539640000014379030952086644139_" x="38.4" y="55.5" width="98.9" height="152.6"/>
		</defs>
		<clipPath id="SVGID_00000119116139375069293890000013512768010856077975_">
			<use xlink:href="#SVGID_00000039119526600288539640000014379030952086644139_"  style="overflow:visible;"/>
		</clipPath>
		<g style="clip-path:url(#SVGID_00000119116139375069293890000013512768010856077975_);">
			<g>
				<defs>
					<rect id="SVGID_00000008827097342929339800000013507868675164615347_" x="38.4" y="117.3" width="98.9" height="76.4"/>
				</defs>
				<clipPath id="SVGID_00000129918764281425760850000003909381901725543840_">
					<use xlink:href="#SVGID_00000008827097342929339800000013507868675164615347_"  style="overflow:visible;"/>
				</clipPath>
				<g style="clip-path:url(#SVGID_00000129918764281425760850000003909381901725543840_);">
					
						<use xlink:href="#CQ1"  width="132.8" height="102.3" x="-66.4" y="-51.2" transform="matrix(-0.7447 0 0 -0.7468 87.874 155.4573)" style="overflow:visible;"/>
				</g>
			</g>
		</g>
	</g>
</g>
<g>
	<g>
		<defs>
			<rect id="SVGID_00000065783517731793879120000016676928257685281669_" x="38.4" y="55.5" width="98.9" height="152.6"/>
		</defs>
		<clipPath id="SVGID_00000014623506128287050950000016380894633665448879_">
			<use xlink:href="#SVGID_00000065783517731793879120000016676928257685281669_"  style="overflow:visible;"/>
		</clipPath>
		<g style="clip-path:url(#SVGID_00000014623506128287050950000016380894633665448879_);">
			<g>
				<defs>
					<rect id="SVGID_00000042011452642170598720000003601527509720139925_" x="38.4" y="55.5" width="69.7" height="78.9"/>
				</defs>
				<clipPath id="SVGID_00000101076927660115637200000001595313677403982732_">
					<use xlink:href="#SVGID_00000042011452642170598720000003601527509720139925_"  style="overflow:visible;"/>
				</clipPath>
				<g style="clip-path:url(#SVGID_00000101076927660115637200000001595313677403982732_);">
					
						<use xlink:href="#CQ2"  width="93.6" height="105.7" x="-46.8" y="-52.8" transform="matrix(0.7447 0 0 0.7468 73.2736 94.9648)" style="overflow:visible;"/>
				</g>
			</g>
		</g>
	</g>
</g>
<g>
	<g>
		<defs>
			<rect id="SVGID_00000103944179686891027100000013940976050218527114_" x="38.4" y="55.5" width="98.9" height="152.6"/>
		</defs>
		<clipPath id="SVGID_00000052094227375089707660000002074850433228607159_">
			<use xlink:href="#SVGID_00000103944179686891027100000013940976050218527114_"  style="overflow:visible;"/>
		</clipPath>
		<g style="clip-path:url(#SVGID_00000052094227375089707660000002074850433228607159_);">
			<g>
				<defs>
					<rect id="SVGID_00000153693751574354572430000004005397103199096714_" x="67.6" y="129.2" width="69.7" height="78.9"/>
				</defs>
				<clipPath id="SVGID_00000022543825299122338850000009199947645488339126_">
					<use xlink:href="#SVGID_00000153693751574354572430000004005397103199096714_"  style="overflow:visible;"/>
				</clipPath>
				<g style="clip-path:url(#SVGID_00000022543825299122338850000009199947645488339126_);">
					
						<use xlink:href="#CQ2"  width="93.6" height="105.7" x="-46.8" y="-52.8" transform="matrix(-0.7447 0 0 -0.7468 102.4745 168.6572)" style="overflow:visible;"/>
				</g>
			</g>
		</g>
	</g>
</g>
<g>
	<g>
		<defs>
			<rect id="SVGID_00000048469174618905986790000003728442088077855128_" x="38.4" y="55.5" width="98.9" height="152.6"/>
		</defs>
		<clipPath id="SVGID_00000021826529499262474970000009665384279721860736_">
			<use xlink:href="#SVGID_00000048469174618905986790000003728442088077855128_"  style="overflow:visible;"/>
		</clipPath>
		<g style="clip-path:url(#SVGID_00000021826529499262474970000009665384279721860736_);">
			<g>
				<defs>
					<rect id="SVGID_00000021827038105438360790000016672871207356106173_" x="38.2" y="55.2" width="99.3" height="97.8"/>
				</defs>
				<clipPath id="SVGID_00000079481082763092848170000016347620918103478186_">
					<use xlink:href="#SVGID_00000021827038105438360790000016672871207356106173_"  style="overflow:visible;"/>
				</clipPath>
				<g style="clip-path:url(#SVGID_00000079481082763092848170000016347620918103478186_);">
					
						<use xlink:href="#CQ3"  width="133.4" height="130.8" x="-66.7" y="-65.4" transform="matrix(0.7447 0 0 0.7468 87.874 104.1378)" style="overflow:visible;"/>
				</g>
			</g>
		</g>
	</g>
</g>
<g>
	<g>
		<defs>
			<rect id="SVGID_00000167383208646941026150000012352983823689602494_" x="38.4" y="55.5" width="98.9" height="152.6"/>
		</defs>
		<clipPath id="SVGID_00000013167390222757236390000016512544905210489472_">
			<use xlink:href="#SVGID_00000167383208646941026150000012352983823689602494_"  style="overflow:visible;"/>
		</clipPath>
		<g style="clip-path:url(#SVGID_00000013167390222757236390000016512544905210489472_);">
			<g>
				<defs>
					<rect id="SVGID_00000088818242825254132860000006615518287566580667_" x="38.2" y="110.6" width="99.3" height="97.8"/>
				</defs>
				<clipPath id="SVGID_00000048494036641187661270000002734373355400163505_">
					<use xlink:href="#SVGID_00000088818242825254132860000006615518287566580667_"  style="overflow:visible;"/>
				</clipPath>
				<g style="clip-path:url(#SVGID_00000048494036641187661270000002734373355400163505_);">
					
						<use xlink:href="#CQ3"  width="133.4" height="130.8" x="-66.7" y="-65.4" transform="matrix(-0.7447 0 0 -0.7468 87.874 159.4842)" style="overflow:visible;"/>
				</g>
			</g>
		</g>
	</g>
</g>
<g>
	<g>
		<defs>
			<rect id="SVGID_00000102530641689127657540000008839201953325996195_" x="38.4" y="55.5" width="98.9" height="152.6"/>
		</defs>
		<clipPath id="SVGID_00000154410101029837669060000015527877924471039161_">
			<use xlink:href="#SVGID_00000102530641689127657540000008839201953325996195_"  style="overflow:visible;"/>
		</clipPath>
		
			<g transform="matrix(1 0 0 1 0 -7.629395e-06)" style="clip-path:url(#SVGID_00000154410101029837669060000015527877924471039161_);">
			<g>
				<defs>
					<rect id="SVGID_00000042002417662112184830000003287058666360541857_" x="71.4" y="68" width="69" height="75.9"/>
				</defs>
				<clipPath id="SVGID_00000132049774280073655070000012515473117681601716_">
					<use xlink:href="#SVGID_00000042002417662112184830000003287058666360541857_"  style="overflow:visible;"/>
				</clipPath>
				
					<g transform="matrix(1 0 0 1 7.629395e-06 0)" style="clip-path:url(#SVGID_00000132049774280073655070000012515473117681601716_);">
					
						<use xlink:href="#CQ4"  width="92.7" height="101.8" x="-46.3" y="-50.9" transform="matrix(0.7447 0 0 0.7468 105.9088 105.0915)" style="overflow:visible;"/>
				</g>
			</g>
		</g>
	</g>
</g>
<g>
	<g>
		<defs>
			<rect id="SVGID_00000107583567478863064360000002666505982125401509_" x="38.4" y="55.5" width="98.9" height="152.6"/>
		</defs>
		<clipPath id="SVGID_00000106115955243886423430000006178631614530252216_">
			<use xlink:href="#SVGID_00000107583567478863064360000002666505982125401509_"  style="overflow:visible;"/>
		</clipPath>
		<g style="clip-path:url(#SVGID_00000106115955243886423430000006178631614530252216_);">
			<g>
				<defs>
					<rect id="SVGID_00000168091114514038251730000012387373604095446974_" x="35.3" y="119.7" width="69" height="75.9"/>
				</defs>
				<clipPath id="SVGID_00000012437318874986943980000016753763161203961011_">
					<use xlink:href="#SVGID_00000168091114514038251730000012387373604095446974_"  style="overflow:visible;"/>
				</clipPath>
				<g style="clip-path:url(#SVGID_00000012437318874986943980000016753763161203961011_);">
					
						<use xlink:href="#CQ4"  width="92.7" height="101.8" x="-46.3" y="-50.9" transform="matrix(-0.7447 0 0 -0.7468 69.8392 158.5305)" style="overflow:visible;"/>
				</g>
			</g>
		</g>
	</g>
</g>
<g>
	<g>
		<defs>
			<rect id="SVGID_00000047779435771506201470000015571796052233228178_" x="14.6" y="23.2" width="23.8" height="23.9"/>
		</defs>
		<clipPath id="SVGID_00000005263309612855832560000001956919721653761162_">
			<use xlink:href="#SVGID_00000047779435771506201470000015571796052233228178_"  style="overflow:visible;"/>
		</clipPath>
		<g style="clip-path:url(#SVGID_00000005263309612855832560000001956919721653761162_);">
			<g>
				<defs>
					<rect id="SVGID_00000132807328334054514260000014123577295514963077_" x="19.4" y="23.2" width="14.3" height="23.9"/>
				</defs>
				<clipPath id="SVGID_00000108302720424856727680000010872646441815133363_">
					<use xlink:href="#SVGID_00000132807328334054514260000014123577295514963077_"  style="overflow:visible;"/>
				</clipPath>
				<g style="clip-path:url(#SVGID_00000108302720424856727680000010872646441815133363_);">
					
						<use xlink:href="#VCQ"  width="19.2" height="32" x="-9.6" y="-16" transform="matrix(0.7447 0 0 0.7468 26.5111 35.0998)" style="overflow:visible;"/>
				</g>
			</g>
		</g>
	</g>
</g>
<g>
	<g>
		<defs>
			<rect id="SVGID_00000065047031497780933480000002068439338666305433_" x="137.4" y="216.6" width="23.8" height="23.9"/>
		</defs>
		<clipPath id="SVGID_00000058561523124043847710000016508177521100715395_">
			<use xlink:href="#SVGID_00000065047031497780933480000002068439338666305433_"  style="overflow:visible;"/>
		</clipPath>
		<g style="clip-path:url(#SVGID_00000058561523124043847710000016508177521100715395_);">
			<g>
				<defs>
					<rect id="SVGID_00000080168147261523142900000006879873848210034087_" x="142.1" y="216.6" width="14.3" height="23.9"/>
				</defs>
				<clipPath id="SVGID_00000022536797377713496880000001263741719527223708_">
					<use xlink:href="#SVGID_00000080168147261523142900000006879873848210034087_"  style="overflow:visible;"/>
				</clipPath>
				
					<g transform="matrix(1 0 0 1 0 1.525879e-05)" style="clip-path:url(#SVGID_00000022536797377713496880000001263741719527223708_);">
					
						<use xlink:href="#VCQ"  width="19.2" height="32" x="-9.6" y="-16" transform="matrix(-0.7447 0 0 -0.7468 149.2369 228.5222)" style="overflow:visible;"/>
				</g>
			</g>
		</g>
	</g>
</g>
<g>
	<rect id="XCQ_00000028297928009011102590000008202515024738615971_" x="38.4" y="55.5" class="st18" width="98.9" height="152.6"/>
</g>
<g>
	<g>
		<defs>
			<rect id="SVGID_00000088127719065917300590000008221000241752100014_" x="139.3" y="192.8" width="19.9" height="20"/>
		</defs>
		<clipPath id="SVGID_00000053515676821096714680000014510056856671519121_">
			<use xlink:href="#SVGID_00000088127719065917300590000008221000241752100014_"  style="overflow:visible;"/>
		</clipPath>
		<g style="clip-path:url(#SVGID_00000053515676821096714680000014510056856671519121_);">
			<g>
				<defs>
					<rect id="SVGID_00000122679026049158602880000008951499643912476861_" x="141" y="195" width="16.6" height="16.7"/>
				</defs>
				<clipPath id="SVGID_00000080915961388504319070000009406405440281312936_">
					<use xlink:href="#SVGID_00000122679026049158602880000008951499643912476861_"  style="overflow:visible;"/>
				</clipPath>
				
					<g transform="matrix(1 0 0 1 0 1.525879e-05)" style="clip-path:url(#SVGID_00000080915961388504319070000009406405440281312936_);">
					
						<use xlink:href="#SC9"  width="22.3" height="22.3" x="-11.1" y="-11.1" transform="matrix(-0.7447 0 0 -0.7468 149.2737 203.8991)" style="overflow:visible;"/>
				</g>
			</g>
		</g>
	</g>
</g>
<g>
	<g>
		<defs>
			<rect id="SVGID_00000057830025106573960470000012866852025688489350_" x="16.5" y="50.8" width="19.9" height="20"/>
		</defs>
		<clipPath id="SVGID_00000056402983054503717530000018144951326027714954_">
			<use xlink:href="#SVGID_00000057830025106573960470000012866852025688489350_"  style="overflow:visible;"/>
		</clipPath>
		
			<g transform="matrix(1 0 0 1 1.907349e-06 0)" style="clip-path:url(#SVGID_00000056402983054503717530000018144951326027714954_);">
			<g>
				<defs>
					<rect id="SVGID_00000118355421318315114540000005480370486549392801_" x="18.2" y="51.9" width="16.6" height="16.7"/>
				</defs>
				<clipPath id="SVGID_00000093868958321457472460000017348182225446695573_">
					<use xlink:href="#SVGID_00000118355421318315114540000005480370486549392801_"  style="overflow:visible;"/>
				</clipPath>
				<g style="clip-path:url(#SVGID_00000093868958321457472460000017348182225446695573_);">
					
						<use xlink:href="#SC9"  width="22.3" height="22.3" x="-11.1" y="-11.1" transform="matrix(0.7447 0 0 0.7468 26.4743 59.7229)" style="overflow:visible;"/>
				</g>
			</g>
		</g>
	</g>
</g>
</svg>
