<?xml version="1.0" encoding="utf-8"?>
<!-- Generator: Adobe Illustrator 27.9.0, SVG Export Plug-In . SVG Version: 6.00 Build 0)  -->
<svg version="1.1" id="Layer_1" xmlns="http://www.w3.org/2000/svg" xmlns:xlink="http://www.w3.org/1999/xlink" x="0px" y="0px"
	 viewBox="0 0 175.7 263.6" style="enable-background:new 0 0 175.7 263.6;" xml:space="preserve">
<style type="text/css">
	.st0{fill:#FFFFFF;fill-opacity:0;}
	.st1{fill:#FFFFFF;}
	.st2{fill:none;stroke:#FFFFFF;stroke-width:2.56;stroke-linecap:square;stroke-miterlimit:10;}
	.st3{fill:#272727;stroke:#000000;}
</style>
<symbol  id="SC3" viewBox="-11.2 -11.2 22.3 22.3">
	<rect x="-11.2" y="-11.2" class="st0" width="22.3" height="22.3"/>
	<path class="st1" d="M0.7,3.3c0.1,5.2,1.2,5.6,2.2,7.8h-5.8c1-2.2,2.1-2.6,2.2-7.8c0-0.1-0.1-0.2-0.2-0.2s-0.2,0.1-0.2,0.2
		C-1.6,5.9-4,7.6-6.6,7.1c-2.5-0.5-4.2-2.9-3.8-5.5c0.5-2.5,2.9-4.2,5.5-3.8c0.8,0.1,1.5,0.5,2.1,1c0.1,0.1,0.2,0.1,0.3,0
		c0.1-0.1,0.1-0.2,0-0.3c-2.5-1.4-3.4-4.5-2.1-7s4.5-3.4,7-2.1s3.4,4.5,2.1,7C4-2.6,3.3-1.9,2.5-1.4c-0.1,0.1-0.1,0.2,0,0.3
		c0.1,0.1,0.2,0.1,0.3,0c2-1.6,5-1.3,6.6,0.7s1.3,5-0.7,6.6s-5,1.3-6.6-0.7c-0.5-0.6-0.8-1.3-1-2.1c0-0.1-0.1-0.2-0.2-0.2
		S0.7,3.2,0.7,3.3z"/>
</symbol>
<symbol  id="VC3" viewBox="-9.5 -16 19.1 32">
	<path class="st2" d="M-7.7-10.2v-4.5H6.7L-3.3-2.6c0.3-0.3,1.9-1.3,3.5-1.3c6.4,0,8,3.8,8,8.6c0,6.4-2.6,9.9-9,9.9
		s-7.4-5.1-7.4-5.1"/>
</symbol>
<path class="st3" d="M23.5,9.3h128.8c7.8,0,14.1,6.4,14.1,14.2v216.6c0,7.8-6.3,14.2-14.1,14.2H23.5c-7.8,0-14.1-6.4-14.1-14.2V23.5
	C9.3,15.7,15.6,9.3,23.5,9.3z"/>
<g>
	<defs>
		<rect id="SVGID_1_" x="14.6" y="23.2" width="23.8" height="23.9"/>
	</defs>
	<clipPath id="SVGID_00000043451253656808084650000001471554481600825996_">
		<use xlink:href="#SVGID_1_"  style="overflow:visible;"/>
	</clipPath>
	
		<g transform="matrix(1 0 0 1 1.907349e-06 0)" style="clip-path:url(#SVGID_00000043451253656808084650000001471554481600825996_);">
		
			<use xlink:href="#VC3"  width="19.1" height="32" x="-9.5" y="-16" transform="matrix(0.7447 0 0 0.7468 26.3123 35.0998)" style="overflow:visible;"/>
	</g>
</g>
<g>
	<defs>
		<rect id="SVGID_00000080929621772239771180000013665702737192851078_" x="16.5" y="50.8" width="19.9" height="20"/>
	</defs>
	<clipPath id="SVGID_00000014604389709250113530000009432074971394225825_">
		<use xlink:href="#SVGID_00000080929621772239771180000013665702737192851078_"  style="overflow:visible;"/>
	</clipPath>
	
		<g transform="matrix(1 0 0 1 1.907349e-06 0)" style="clip-path:url(#SVGID_00000014604389709250113530000009432074971394225825_);">
		
			<use xlink:href="#SC3"  width="22.3" height="22.3" x="-11.2" y="-11.2" transform="matrix(0.7447 0 0 0.7468 26.5115 60.283)" style="overflow:visible;"/>
	</g>
</g>
<g>
	<defs>
		<rect id="SVGID_00000104707336616000116110000011488371838222795154_" x="67.8" y="35.7" width="40.2" height="40.3"/>
	</defs>
	<clipPath id="SVGID_00000009556126019056759000000018360875989391911307_">
		<use xlink:href="#SVGID_00000104707336616000116110000011488371838222795154_"  style="overflow:visible;"/>
	</clipPath>
	<g style="clip-path:url(#SVGID_00000009556126019056759000000018360875989391911307_);">
		
			<use xlink:href="#SC3"  width="22.3" height="22.3" x="-11.2" y="-11.2" transform="matrix(0.7447 0 0 0.7468 77.7346 45.1714)" style="overflow:visible;"/>
	</g>
</g>
<g>
	<defs>
		<polygon id="SVGID_00000101805924109408885050000012825613508894952320_" points="71.1,111.5 71.1,151.9 90.6,151.9 84.5,135.1 
			90.6,128.3 84.5,111.5 		"/>
	</defs>
	<clipPath id="SVGID_00000065063170737442521970000016285272770619457212_">
		<use xlink:href="#SVGID_00000101805924109408885050000012825613508894952320_"  style="overflow:visible;"/>
	</clipPath>
	
		<g transform="matrix(1 0 0 1 0 7.629395e-06)" style="clip-path:url(#SVGID_00000065063170737442521970000016285272770619457212_);">
		
			<use xlink:href="#SC3"  width="22.3" height="22.3" x="-11.2" y="-11.2" transform="matrix(0.7447 0 0 0.7468 77.7346 121.1476)" style="overflow:visible;"/>
	</g>
</g>
<g transform="rotate(180)">
	<g>
		<defs>
			<rect id="SVGID_00000015317669738256751690000015983054666943204542_" x="-161.2" y="-240.5" width="23.8" height="23.9"/>
		</defs>
		<clipPath id="SVGID_00000041994701384250153450000010587031419219770783_">
			<use xlink:href="#SVGID_00000015317669738256751690000015983054666943204542_"  style="overflow:visible;"/>
		</clipPath>
		<g style="clip-path:url(#SVGID_00000041994701384250153450000010587031419219770783_);">
			
				<use xlink:href="#VC3"  width="19.1" height="32" x="-9.5" y="-16" transform="matrix(0.7447 0 0 0.7468 -149.4357 -228.5222)" style="overflow:visible;"/>
		</g>
	</g>
	<g>
		<defs>
			<rect id="SVGID_00000041264451392841059620000001966003833071944112_" x="-159.2" y="-212.8" width="19.9" height="20"/>
		</defs>
		<clipPath id="SVGID_00000020385042531254245300000002220451124845878430_">
			<use xlink:href="#SVGID_00000041264451392841059620000001966003833071944112_"  style="overflow:visible;"/>
		</clipPath>
		<g style="clip-path:url(#SVGID_00000020385042531254245300000002220451124845878430_);">
			
				<use xlink:href="#SC3"  width="22.3" height="22.3" x="-11.2" y="-11.2" transform="matrix(0.7447 0 0 0.7468 -149.2365 -203.339)" style="overflow:visible;"/>
		</g>
	</g>
	<g>
		<defs>
			<rect id="SVGID_00000147934218895119554880000017167636985807168445_" x="-108" y="-228" width="40.2" height="40.3"/>
		</defs>
		<clipPath id="SVGID_00000170279813421749344020000012543585840697449607_">
			<use xlink:href="#SVGID_00000147934218895119554880000017167636985807168445_"  style="overflow:visible;"/>
		</clipPath>
		<g style="clip-path:url(#SVGID_00000170279813421749344020000012543585840697449607_);">
			
				<use xlink:href="#SC3"  width="22.3" height="22.3" x="-11.2" y="-11.2" transform="matrix(0.7447 0 0 0.7468 -98.0134 -218.4506)" style="overflow:visible;"/>
		</g>
	</g>
	<g>
		<defs>
			<polygon id="SVGID_00000147198686731305368710000009820899286185403303_" points="-104.6,-152.1 -104.6,-111.7 -85.2,-111.7 
				-91.2,-128.6 -85.2,-135.3 -91.2,-152.1 			"/>
		</defs>
		<clipPath id="SVGID_00000109730576495773734780000003608423307430027409_">
			<use xlink:href="#SVGID_00000147198686731305368710000009820899286185403303_"  style="overflow:visible;"/>
		</clipPath>
		<g style="clip-path:url(#SVGID_00000109730576495773734780000003608423307430027409_);">
			
				<use xlink:href="#SC3"  width="22.3" height="22.3" x="-11.2" y="-11.2" transform="matrix(0.7447 0 0 0.7468 -98.0134 -142.4744)" style="overflow:visible;"/>
		</g>
	</g>
</g>
</svg>
