<?xml version="1.0" encoding="utf-8"?>
<!-- Generator: Adobe Illustrator 27.9.0, SVG Export Plug-In . SVG Version: 6.00 Build 0)  -->
<svg version="1.1" id="Layer_1" xmlns="http://www.w3.org/2000/svg" xmlns:xlink="http://www.w3.org/1999/xlink" x="0px" y="0px"
	 viewBox="0 0 175.7 263.6" style="enable-background:new 0 0 175.7 263.6;" xml:space="preserve">
<style type="text/css">
	.st0{fill:#FFFFFF;fill-opacity:0;}
	.st1{fill:#FFFFFF;}
	.st2{fill:none;stroke:#FFFFFF;stroke-width:2.56;stroke-linecap:square;stroke-miterlimit:10;}
	.st3{fill:#272727;stroke:#000000;}
</style>
<symbol  id="SC2" viewBox="-11.2 -11.2 22.3 22.3">
	<rect x="-11.2" y="-11.2" class="st0" width="22.3" height="22.3"/>
	<path class="st1" d="M0.7,3.3c0.1,5.2,1.2,5.6,2.2,7.8h-5.8c1-2.2,2.1-2.6,2.2-7.8c0-0.1-0.1-0.2-0.2-0.2s-0.2,0.1-0.2,0.2
		C-1.6,5.9-4,7.6-6.6,7.1c-2.5-0.5-4.2-2.9-3.8-5.5c0.5-2.5,2.9-4.2,5.5-3.8c0.8,0.1,1.5,0.5,2.1,1c0.1,0.1,0.2,0.1,0.3,0
		c0.1-0.1,0.1-0.2,0-0.3c-2.5-1.4-3.4-4.5-2.1-7s4.5-3.4,7-2.1s3.4,4.5,2.1,7C4-2.6,3.3-1.9,2.5-1.4c-0.1,0.1-0.1,0.2,0,0.3
		c0.1,0.1,0.2,0.1,0.3,0c2-1.6,5-1.3,6.6,0.7s1.3,5-0.7,6.6s-5,1.3-6.6-0.7c-0.5-0.6-0.8-1.3-1-2.1c0-0.1-0.1-0.2-0.2-0.2
		S0.7,3.2,0.7,3.3z"/>
</symbol>
<symbol  id="VC2" viewBox="-8.5 -16 17.1 32">
	<path class="st2" d="M-7.1-7.2c-0.6-1.3,0.8-7.5,7.2-7.5s7.2,4.3,7.2,7.5C7.3-0.8-7.1,5.1-7.1,14.7H7.3V9.6"/>
</symbol>
<path class="st3" d="M23.5,9.3h128.8c7.8,0,14.1,6.4,14.1,14.2v216.6c0,7.8-6.3,14.2-14.1,14.2H23.5c-7.8,0-14.1-6.4-14.1-14.2V23.5
	C9.3,15.7,15.6,9.3,23.5,9.3z"/>
<g>
	<defs>
		<rect id="SVGID_1_" x="14.6" y="23.2" width="23.8" height="23.9"/>
	</defs>
	<clipPath id="SVGID_00000060001761044653201410000011237742127395204013_">
		<use xlink:href="#SVGID_1_"  style="overflow:visible;"/>
	</clipPath>
	<g style="clip-path:url(#SVGID_00000060001761044653201410000011237742127395204013_);">
		
			<use xlink:href="#VC2"  width="17.1" height="32" x="-8.5" y="-16" transform="matrix(0.7447 0 0 0.7468 26.4595 35.0998)" style="overflow:visible;"/>
	</g>
</g>
<g>
	<defs>
		<rect id="SVGID_00000075147034103885960030000013520631144485770920_" x="16.5" y="50.8" width="19.9" height="20"/>
	</defs>
	<clipPath id="SVGID_00000100344269687489756490000009670703676245980351_">
		<use xlink:href="#SVGID_00000075147034103885960030000013520631144485770920_"  style="overflow:visible;"/>
	</clipPath>
	
		<g transform="matrix(1 0 0 1 1.907349e-06 0)" style="clip-path:url(#SVGID_00000100344269687489756490000009670703676245980351_);">
		
			<use xlink:href="#SC2"  width="22.3" height="22.3" x="-11.2" y="-11.2" transform="matrix(0.7447 0 0 0.7468 26.5115 60.283)" style="overflow:visible;"/>
	</g>
</g>
<g>
	<defs>
		<rect id="SVGID_00000042730247912922441420000015422024727044286615_" x="67.8" y="35.7" width="40.2" height="40.3"/>
	</defs>
	<clipPath id="SVGID_00000075862493377676995760000011054202128403405996_">
		<use xlink:href="#SVGID_00000042730247912922441420000015422024727044286615_"  style="overflow:visible;"/>
	</clipPath>
	<g style="clip-path:url(#SVGID_00000075862493377676995760000011054202128403405996_);">
		
			<use xlink:href="#SC2"  width="22.3" height="22.3" x="-11.2" y="-11.2" transform="matrix(0.7447 0 0 0.7468 77.7346 45.1714)" style="overflow:visible;"/>
	</g>
</g>
<g transform="rotate(180)">
	<g>
		<defs>
			<rect id="SVGID_00000055682311549087477390000004706500775596611978_" x="-161.2" y="-240.5" width="23.8" height="23.9"/>
		</defs>
		<clipPath id="SVGID_00000151544527358359204870000010182710398749696918_">
			<use xlink:href="#SVGID_00000055682311549087477390000004706500775596611978_"  style="overflow:visible;"/>
		</clipPath>
		<g style="clip-path:url(#SVGID_00000151544527358359204870000010182710398749696918_);">
			
				<use xlink:href="#VC2"  width="17.1" height="32" x="-8.5" y="-16" transform="matrix(0.7447 0 0 0.7468 -149.2885 -228.5222)" style="overflow:visible;"/>
		</g>
	</g>
	<g>
		<defs>
			<rect id="SVGID_00000011008757028904461910000016937037396625227410_" x="-159.2" y="-212.8" width="19.9" height="20"/>
		</defs>
		<clipPath id="SVGID_00000117675116254165276350000017922094350736316821_">
			<use xlink:href="#SVGID_00000011008757028904461910000016937037396625227410_"  style="overflow:visible;"/>
		</clipPath>
		<g style="clip-path:url(#SVGID_00000117675116254165276350000017922094350736316821_);">
			
				<use xlink:href="#SC2"  width="22.3" height="22.3" x="-11.2" y="-11.2" transform="matrix(0.7447 0 0 0.7468 -149.2365 -203.339)" style="overflow:visible;"/>
		</g>
	</g>
	<g>
		<defs>
			<rect id="SVGID_00000134959136606372701390000015366598165209380019_" x="-108" y="-228" width="40.2" height="40.3"/>
		</defs>
		<clipPath id="SVGID_00000127002201752675225200000007435964467632657330_">
			<use xlink:href="#SVGID_00000134959136606372701390000015366598165209380019_"  style="overflow:visible;"/>
		</clipPath>
		<g style="clip-path:url(#SVGID_00000127002201752675225200000007435964467632657330_);">
			
				<use xlink:href="#SC2"  width="22.3" height="22.3" x="-11.2" y="-11.2" transform="matrix(0.7447 0 0 0.7468 -98.0134 -218.4506)" style="overflow:visible;"/>
		</g>
	</g>
</g>
</svg>
