<?xml version="1.0" encoding="utf-8"?>
<!-- Generator: Adobe Illustrator 27.9.0, SVG Export Plug-In . SVG Version: 6.00 Build 0)  -->
<svg version="1.1" id="Layer_1" xmlns="http://www.w3.org/2000/svg" xmlns:xlink="http://www.w3.org/1999/xlink" x="0px" y="0px"
	 viewBox="0 0 175.7 263.6" style="enable-background:new 0 0 175.7 263.6;" xml:space="preserve">
<style type="text/css">
	.st0{fill:#FFFFFF;fill-opacity:0;}
	.st1{fill:#FFFFFF;}
	.st2{fill:none;stroke:#FFFFFF;stroke-width:2.56;stroke-linecap:square;stroke-miterlimit:10;}
	.st3{fill:#272727;stroke:#000000;}
</style>
<symbol  id="SC4" viewBox="-11.2 -11.2 22.3 22.3">
	<rect x="-11.2" y="-11.2" class="st0" width="22.3" height="22.3"/>
	<path class="st1" d="M0.7,3.3c0.1,5.2,1.2,5.6,2.2,7.8h-5.8c1-2.2,2.1-2.6,2.2-7.8c0-0.1-0.1-0.2-0.2-0.2s-0.2,0.1-0.2,0.2
		C-1.6,5.9-4,7.6-6.6,7.1c-2.5-0.5-4.2-2.9-3.8-5.5c0.5-2.5,2.9-4.2,5.5-3.8c0.8,0.1,1.5,0.5,2.1,1c0.1,0.1,0.2,0.1,0.3,0
		c0.1-0.1,0.1-0.2,0-0.3c-2.5-1.4-3.4-4.5-2.1-7s4.5-3.4,7-2.1s3.4,4.5,2.1,7C4-2.6,3.3-1.9,2.5-1.4c-0.1,0.1-0.1,0.2,0,0.3
		c0.1,0.1,0.2,0.1,0.3,0c2-1.6,5-1.3,6.6,0.7s1.3,5-0.7,6.6s-5,1.3-6.6-0.7c-0.5-0.6-0.8-1.3-1-2.1c0-0.1-0.1-0.2-0.2-0.2
		S0.7,3.2,0.7,3.3z"/>
</symbol>
<symbol  id="VC4" viewBox="-10.4 -17.4 20.8 34.7">
	<path class="st2" d="M2.1,16.1h6.4 M5.3,16.1v-29.4L-9.1,7v0.8H9.1"/>
</symbol>
<path class="st3" d="M23.5,9.3h128.8c7.8,0,14.1,6.4,14.1,14.2v216.6c0,7.8-6.3,14.2-14.1,14.2H23.5c-7.8,0-14.1-6.4-14.1-14.2V23.5
	C9.3,15.7,15.6,9.3,23.5,9.3z"/>
<g>
	<defs>
		<rect id="SVGID_1_" x="14.6" y="23.2" width="23.8" height="23.9"/>
	</defs>
	<clipPath id="SVGID_00000152965985307916405220000015265187045883903388_">
		<use xlink:href="#SVGID_1_"  style="overflow:visible;"/>
	</clipPath>
	<g style="clip-path:url(#SVGID_00000152965985307916405220000015265187045883903388_);">
		
			<use xlink:href="#VC4"  width="20.8" height="34.7" x="-10.4" y="-17.4" transform="matrix(0.7447 0 0 0.7468 26.1537 34.0767)" style="overflow:visible;"/>
	</g>
</g>
<g>
	<defs>
		<rect id="SVGID_00000109011995773364733750000006413588875917845157_" x="16.5" y="50.8" width="19.9" height="20"/>
	</defs>
	<clipPath id="SVGID_00000116221917901956254090000010426158039567677604_">
		<use xlink:href="#SVGID_00000109011995773364733750000006413588875917845157_"  style="overflow:visible;"/>
	</clipPath>
	
		<g transform="matrix(1 0 0 1 1.907349e-06 0)" style="clip-path:url(#SVGID_00000116221917901956254090000010426158039567677604_);">
		
			<use xlink:href="#SC4"  width="22.3" height="22.3" x="-11.2" y="-11.2" transform="matrix(0.7447 0 0 0.7468 26.5115 60.283)" style="overflow:visible;"/>
	</g>
</g>
<g>
	<defs>
		<rect id="SVGID_00000172422971795808049670000013146627447004776102_" x="35.6" y="35.7" width="40.2" height="40.3"/>
	</defs>
	<clipPath id="SVGID_00000120551679864229570820000005593237691428429735_">
		<use xlink:href="#SVGID_00000172422971795808049670000013146627447004776102_"  style="overflow:visible;"/>
	</clipPath>
	<g style="clip-path:url(#SVGID_00000120551679864229570820000005593237691428429735_);">
		
			<use xlink:href="#SC4"  width="22.3" height="22.3" x="-11.2" y="-11.2" transform="matrix(0.7447 0 0 0.7468 45.5884 45.1714)" style="overflow:visible;"/>
	</g>
</g>
<g>
	<defs>
		<rect id="SVGID_00000070085007041167922460000002789182326523089341_" x="99.9" y="35.7" width="40.2" height="40.3"/>
	</defs>
	<clipPath id="SVGID_00000127003314417359579820000013609981888397391010_">
		<use xlink:href="#SVGID_00000070085007041167922460000002789182326523089341_"  style="overflow:visible;"/>
	</clipPath>
	<g style="clip-path:url(#SVGID_00000127003314417359579820000013609981888397391010_);">
		
			<use xlink:href="#SC4"  width="22.3" height="22.3" x="-11.2" y="-11.2" transform="matrix(0.7447 0 0 0.7468 109.8809 45.1714)" style="overflow:visible;"/>
	</g>
</g>
<g transform="rotate(180)">
	<g>
		<defs>
			<rect id="SVGID_00000120529337792406877100000004010322182783527060_" x="-161.2" y="-240.5" width="23.8" height="23.9"/>
		</defs>
		<clipPath id="SVGID_00000139255535256357907910000007786323099421606026_">
			<use xlink:href="#SVGID_00000120529337792406877100000004010322182783527060_"  style="overflow:visible;"/>
		</clipPath>
		<g style="clip-path:url(#SVGID_00000139255535256357907910000007786323099421606026_);">
			
				<use xlink:href="#VC4"  width="20.8" height="34.7" x="-10.4" y="-17.4" transform="matrix(0.7447 0 0 0.7468 -149.5943 -229.5453)" style="overflow:visible;"/>
		</g>
	</g>
	<g>
		<defs>
			<rect id="SVGID_00000140695675840944506690000016272813704477086640_" x="-159.2" y="-212.8" width="19.9" height="20"/>
		</defs>
		<clipPath id="SVGID_00000034079547930972991340000004609394102229194915_">
			<use xlink:href="#SVGID_00000140695675840944506690000016272813704477086640_"  style="overflow:visible;"/>
		</clipPath>
		<g style="clip-path:url(#SVGID_00000034079547930972991340000004609394102229194915_);">
			
				<use xlink:href="#SC4"  width="22.3" height="22.3" x="-11.2" y="-11.2" transform="matrix(0.7447 0 0 0.7468 -149.2365 -203.339)" style="overflow:visible;"/>
		</g>
	</g>
	<g>
		<defs>
			<rect id="SVGID_00000027584904150808706620000011075508113639706503_" x="-140.1" y="-228" width="40.2" height="40.3"/>
		</defs>
		<clipPath id="SVGID_00000114787980353202742110000016263560956992368307_">
			<use xlink:href="#SVGID_00000027584904150808706620000011075508113639706503_"  style="overflow:visible;"/>
		</clipPath>
		<g style="clip-path:url(#SVGID_00000114787980353202742110000016263560956992368307_);">
			
				<use xlink:href="#SC4"  width="22.3" height="22.3" x="-11.2" y="-11.2" transform="matrix(0.7447 0 0 0.7468 -130.1597 -218.4506)" style="overflow:visible;"/>
		</g>
	</g>
	<g>
		<defs>
			<rect id="SVGID_00000054958321228966929680000017325833004554559657_" x="-75.8" y="-228" width="40.2" height="40.3"/>
		</defs>
		<clipPath id="SVGID_00000160153310647469477920000000039181477294230452_">
			<use xlink:href="#SVGID_00000054958321228966929680000017325833004554559657_"  style="overflow:visible;"/>
		</clipPath>
		<g style="clip-path:url(#SVGID_00000160153310647469477920000000039181477294230452_);">
			
				<use xlink:href="#SC4"  width="22.3" height="22.3" x="-11.2" y="-11.2" transform="matrix(0.7447 0 0 0.7468 -65.8672 -218.4506)" style="overflow:visible;"/>
		</g>
	</g>
</g>
</svg>
