<?xml version="1.0" encoding="utf-8"?>
<!-- Generator: Adobe Illustrator 27.9.0, SVG Export Plug-In . SVG Version: 6.00 Build 0)  -->
<svg version="1.1" id="Layer_1" xmlns="http://www.w3.org/2000/svg" xmlns:xlink="http://www.w3.org/1999/xlink" x="0px" y="0px"
	 viewBox="0 0 175.7 263.6" style="enable-background:new 0 0 175.7 263.6;" xml:space="preserve">
<style type="text/css">
	.st0{fill:#FFFFFF;fill-opacity:0;}
	.st1{fill:#FFFFFF;}
	.st2{fill:none;stroke:#FFFFFF;stroke-width:2.56;stroke-linecap:square;stroke-miterlimit:10;}
	.st3{fill:#272727;stroke:#000000;}
</style>
<symbol  id="SC5" viewBox="-11.2 -11.2 22.3 22.3">
	<rect x="-11.2" y="-11.2" class="st0" width="22.3" height="22.3"/>
	<path class="st1" d="M0.7,3.3c0.1,5.2,1.2,5.6,2.2,7.8h-5.8c1-2.2,2.1-2.6,2.2-7.8c0-0.1-0.1-0.2-0.2-0.2s-0.2,0.1-0.2,0.2
		C-1.6,5.9-4,7.6-6.6,7.1c-2.5-0.5-4.2-2.9-3.8-5.5c0.5-2.5,2.9-4.2,5.5-3.8c0.8,0.1,1.5,0.5,2.1,1c0.1,0.1,0.2,0.1,0.3,0
		c0.1-0.1,0.1-0.2,0-0.3c-2.5-1.4-3.4-4.5-2.1-7s4.5-3.4,7-2.1s3.4,4.5,2.1,7C4-2.6,3.3-1.9,2.5-1.4c-0.1,0.1-0.1,0.2,0,0.3
		c0.1,0.1,0.2,0.1,0.3,0c2-1.6,5-1.3,6.6,0.7s1.3,5-0.7,6.6s-5,1.3-6.6-0.7c-0.5-0.6-0.8-1.3-1-2.1c0-0.1-0.1-0.2-0.2-0.2
		S0.7,3.2,0.7,3.3z"/>
</symbol>
<symbol  id="VC5" viewBox="-9.6 -16 19.1 32">
	<path class="st2" d="M5.6-14.7h-11l-1.1,11c0,0,0.3-2.7,6.7-2.7c3.2,0,8.2,3.8,8.2,10.2S5.9,14.7-0.5,14.7S-8,9.1-8,9.1"/>
</symbol>
<path class="st3" d="M23.5,9.3h128.8c7.8,0,14.1,6.4,14.1,14.2v216.6c0,7.8-6.3,14.2-14.1,14.2H23.5c-7.8,0-14.1-6.4-14.1-14.2V23.5
	C9.3,15.7,15.6,9.3,23.5,9.3z"/>
<g>
	<defs>
		<rect id="SVGID_1_" x="14.6" y="23.2" width="23.8" height="23.9"/>
	</defs>
	<clipPath id="SVGID_00000171685398787218932290000009464006649948472213_">
		<use xlink:href="#SVGID_1_"  style="overflow:visible;"/>
	</clipPath>
	<g style="clip-path:url(#SVGID_00000171685398787218932290000009464006649948472213_);">
		
			<use xlink:href="#VC5"  width="19.1" height="32" x="-9.6" y="-16" transform="matrix(0.7447 0 0 0.7468 26.4269 35.0998)" style="overflow:visible;"/>
	</g>
</g>
<g>
	<defs>
		<rect id="SVGID_00000124876075340130924680000000153633361761354422_" x="16.5" y="50.8" width="19.9" height="20"/>
	</defs>
	<clipPath id="SVGID_00000023993472750957991980000013156559666753367742_">
		<use xlink:href="#SVGID_00000124876075340130924680000000153633361761354422_"  style="overflow:visible;"/>
	</clipPath>
	
		<g transform="matrix(1 0 0 1 1.907349e-06 0)" style="clip-path:url(#SVGID_00000023993472750957991980000013156559666753367742_);">
		
			<use xlink:href="#SC5"  width="22.3" height="22.3" x="-11.2" y="-11.2" transform="matrix(0.7447 0 0 0.7468 26.5115 60.283)" style="overflow:visible;"/>
	</g>
</g>
<g>
	<defs>
		<rect id="SVGID_00000155867271651833745300000003851125646533009849_" x="35.6" y="35.7" width="40.2" height="40.3"/>
	</defs>
	<clipPath id="SVGID_00000023250263508429163300000005402505599493230726_">
		<use xlink:href="#SVGID_00000155867271651833745300000003851125646533009849_"  style="overflow:visible;"/>
	</clipPath>
	<g style="clip-path:url(#SVGID_00000023250263508429163300000005402505599493230726_);">
		
			<use xlink:href="#SC5"  width="22.3" height="22.3" x="-11.2" y="-11.2" transform="matrix(0.7447 0 0 0.7468 45.5884 45.1714)" style="overflow:visible;"/>
	</g>
</g>
<g>
	<defs>
		<rect id="SVGID_00000093859212292852143710000007743225766538446487_" x="99.9" y="35.7" width="40.2" height="40.3"/>
	</defs>
	<clipPath id="SVGID_00000006698579125749811540000007722016095590104971_">
		<use xlink:href="#SVGID_00000093859212292852143710000007743225766538446487_"  style="overflow:visible;"/>
	</clipPath>
	<g style="clip-path:url(#SVGID_00000006698579125749811540000007722016095590104971_);">
		
			<use xlink:href="#SC5"  width="22.3" height="22.3" x="-11.2" y="-11.2" transform="matrix(0.7447 0 0 0.7468 109.8809 45.1714)" style="overflow:visible;"/>
	</g>
</g>
<g>
	<defs>
		<polygon id="SVGID_00000113352151665123097200000007599647163999258517_" points="71.1,111.5 71.1,151.9 90.6,151.9 84.5,135.1 
			90.6,128.3 84.5,111.5 		"/>
	</defs>
	<clipPath id="SVGID_00000178171214906328748300000004017411503878268090_">
		<use xlink:href="#SVGID_00000113352151665123097200000007599647163999258517_"  style="overflow:visible;"/>
	</clipPath>
	
		<g transform="matrix(1 0 0 1 0 7.629395e-06)" style="clip-path:url(#SVGID_00000178171214906328748300000004017411503878268090_);">
		
			<use xlink:href="#SC5"  width="22.3" height="22.3" x="-11.2" y="-11.2" transform="matrix(0.7447 0 0 0.7468 77.7346 121.1476)" style="overflow:visible;"/>
	</g>
</g>
<g transform="rotate(180)">
	<g>
		<defs>
			<rect id="SVGID_00000031184694398777795230000001881709227000234430_" x="-161.2" y="-240.5" width="23.8" height="23.9"/>
		</defs>
		<clipPath id="SVGID_00000052790827188859007710000010394406000369485953_">
			<use xlink:href="#SVGID_00000031184694398777795230000001881709227000234430_"  style="overflow:visible;"/>
		</clipPath>
		<g style="clip-path:url(#SVGID_00000052790827188859007710000010394406000369485953_);">
			
				<use xlink:href="#VC5"  width="19.1" height="32" x="-9.6" y="-16" transform="matrix(0.7447 0 0 0.7468 -149.3211 -228.5222)" style="overflow:visible;"/>
		</g>
	</g>
	<g>
		<defs>
			<rect id="SVGID_00000173134268653327087140000017872994300773368962_" x="-159.2" y="-212.8" width="19.9" height="20"/>
		</defs>
		<clipPath id="SVGID_00000061452212384830191800000010335419801847448456_">
			<use xlink:href="#SVGID_00000173134268653327087140000017872994300773368962_"  style="overflow:visible;"/>
		</clipPath>
		<g style="clip-path:url(#SVGID_00000061452212384830191800000010335419801847448456_);">
			
				<use xlink:href="#SC5"  width="22.3" height="22.3" x="-11.2" y="-11.2" transform="matrix(0.7447 0 0 0.7468 -149.2365 -203.339)" style="overflow:visible;"/>
		</g>
	</g>
	<g>
		<defs>
			<rect id="SVGID_00000013151188113543570440000003776910574611210887_" x="-140.1" y="-228" width="40.2" height="40.3"/>
		</defs>
		<clipPath id="SVGID_00000084492515246793029060000010446989910078595970_">
			<use xlink:href="#SVGID_00000013151188113543570440000003776910574611210887_"  style="overflow:visible;"/>
		</clipPath>
		<g style="clip-path:url(#SVGID_00000084492515246793029060000010446989910078595970_);">
			
				<use xlink:href="#SC5"  width="22.3" height="22.3" x="-11.2" y="-11.2" transform="matrix(0.7447 0 0 0.7468 -130.1597 -218.4506)" style="overflow:visible;"/>
		</g>
	</g>
	<g>
		<defs>
			<rect id="SVGID_00000183232035776949238740000017115120729386490271_" x="-75.8" y="-228" width="40.2" height="40.3"/>
		</defs>
		<clipPath id="SVGID_00000083067306269910751230000007882945209295547278_">
			<use xlink:href="#SVGID_00000183232035776949238740000017115120729386490271_"  style="overflow:visible;"/>
		</clipPath>
		<g style="clip-path:url(#SVGID_00000083067306269910751230000007882945209295547278_);">
			
				<use xlink:href="#SC5"  width="22.3" height="22.3" x="-11.2" y="-11.2" transform="matrix(0.7447 0 0 0.7468 -65.8672 -218.4506)" style="overflow:visible;"/>
		</g>
	</g>
	<g>
		<defs>
			<polygon id="SVGID_00000041976555295251839840000002443763008664853892_" points="-104.6,-152.1 -104.6,-111.7 -85.2,-111.7 
				-91.2,-128.6 -85.2,-135.3 -91.2,-152.1 			"/>
		</defs>
		<clipPath id="SVGID_00000142868844312275801690000013059687447565607337_">
			<use xlink:href="#SVGID_00000041976555295251839840000002443763008664853892_"  style="overflow:visible;"/>
		</clipPath>
		<g style="clip-path:url(#SVGID_00000142868844312275801690000013059687447565607337_);">
			
				<use xlink:href="#SC5"  width="22.3" height="22.3" x="-11.2" y="-11.2" transform="matrix(0.7447 0 0 0.7468 -98.0134 -142.4744)" style="overflow:visible;"/>
		</g>
	</g>
</g>
</svg>
