<?xml version="1.0" encoding="utf-8"?>
<!-- Generator: Adobe Illustrator 27.9.0, SVG Export Plug-In . SVG Version: 6.00 Build 0)  -->
<svg version="1.1" id="Layer_1" xmlns="http://www.w3.org/2000/svg" xmlns:xlink="http://www.w3.org/1999/xlink" x="0px" y="0px"
	 viewBox="0 0 175.7 263.6" style="enable-background:new 0 0 175.7 263.6;" xml:space="preserve">
<style type="text/css">
	.st0{fill:#FFFFFF;fill-opacity:0;}
	.st1{fill:#FFFFFF;}
	.st2{fill:none;stroke:#FFFFFF;stroke-width:2.56;stroke-linecap:square;stroke-miterlimit:10;}
	.st3{fill:#272727;stroke:#000000;}
</style>
<symbol  id="SC6" viewBox="-11.2 -11.2 22.3 22.3">
	<rect x="-11.2" y="-11.2" class="st0" width="22.3" height="22.3"/>
	<path class="st1" d="M0.7,3.3c0.1,5.2,1.2,5.6,2.2,7.8h-5.8c1-2.2,2.1-2.6,2.2-7.8c0-0.1-0.1-0.2-0.2-0.2s-0.2,0.1-0.2,0.2
		C-1.6,5.9-4,7.6-6.6,7.1c-2.5-0.5-4.2-2.9-3.8-5.5c0.5-2.5,2.9-4.2,5.5-3.8c0.8,0.1,1.5,0.5,2.1,1c0.1,0.1,0.2,0.1,0.3,0
		c0.1-0.1,0.1-0.2,0-0.3c-2.5-1.4-3.4-4.5-2.1-7s4.5-3.4,7-2.1s3.4,4.5,2.1,7C4-2.6,3.3-1.9,2.5-1.4c-0.1,0.1-0.1,0.2,0,0.3
		c0.1,0.1,0.2,0.1,0.3,0c2-1.6,5-1.3,6.6,0.7s1.3,5-0.7,6.6s-5,1.3-6.6-0.7c-0.5-0.6-0.8-1.3-1-2.1c0-0.1-0.1-0.2-0.2-0.2
		S0.7,3.2,0.7,3.3z"/>
</symbol>
<symbol  id="VC6" viewBox="-9.3 -16 18.6 32">
	<path class="st2" d="M-8,3.2c0-4.4,3.6-8,8-8s8,3.6,8,8v3.5c0,4.4-3.6,8-8,8s-8-3.6-8-8V-6.7c0-4.4,3.6-8,8-8
		c4.8,0,5.8,1.9,6.4,2.7"/>
</symbol>
<path class="st3" d="M23.5,9.3h128.8c7.8,0,14.1,6.4,14.1,14.2v216.6c0,7.8-6.3,14.2-14.1,14.2H23.5c-7.8,0-14.1-6.4-14.1-14.2V23.5
	C9.3,15.7,15.6,9.3,23.5,9.3z"/>
<g>
	<defs>
		<rect id="SVGID_1_" x="14.6" y="23.2" width="23.8" height="23.9"/>
	</defs>
	<clipPath id="SVGID_00000048478367443166202830000012911842417475629962_">
		<use xlink:href="#SVGID_1_"  style="overflow:visible;"/>
	</clipPath>
	<g style="clip-path:url(#SVGID_00000048478367443166202830000012911842417475629962_);">
		
			<use xlink:href="#VC6"  width="18.6" height="32" x="-9.3" y="-16" transform="matrix(0.7447 0 0 0.7468 26.5111 35.0998)" style="overflow:visible;"/>
	</g>
</g>
<g>
	<defs>
		<rect id="SVGID_00000074402957921559758720000013926289107430962603_" x="16.5" y="50.8" width="19.9" height="20"/>
	</defs>
	<clipPath id="SVGID_00000062193020047636614620000016758108394046964874_">
		<use xlink:href="#SVGID_00000074402957921559758720000013926289107430962603_"  style="overflow:visible;"/>
	</clipPath>
	
		<g transform="matrix(1 0 0 1 1.907349e-06 0)" style="clip-path:url(#SVGID_00000062193020047636614620000016758108394046964874_);">
		
			<use xlink:href="#SC6"  width="22.3" height="22.3" x="-11.2" y="-11.2" transform="matrix(0.7447 0 0 0.7468 26.5115 60.283)" style="overflow:visible;"/>
	</g>
</g>
<g>
	<defs>
		<rect id="SVGID_00000098192499842378525450000014160406256845429180_" x="35.6" y="35.7" width="40.2" height="40.3"/>
	</defs>
	<clipPath id="SVGID_00000067215394680125289830000006738187519967325856_">
		<use xlink:href="#SVGID_00000098192499842378525450000014160406256845429180_"  style="overflow:visible;"/>
	</clipPath>
	<g style="clip-path:url(#SVGID_00000067215394680125289830000006738187519967325856_);">
		
			<use xlink:href="#SC6"  width="22.3" height="22.3" x="-11.2" y="-11.2" transform="matrix(0.7447 0 0 0.7468 45.5884 45.1714)" style="overflow:visible;"/>
	</g>
</g>
<g>
	<defs>
		<rect id="SVGID_00000088845658695627274240000016455695166733137077_" x="99.9" y="35.7" width="40.2" height="40.3"/>
	</defs>
	<clipPath id="SVGID_00000167370068240188964050000007716097455848774839_">
		<use xlink:href="#SVGID_00000088845658695627274240000016455695166733137077_"  style="overflow:visible;"/>
	</clipPath>
	<g style="clip-path:url(#SVGID_00000167370068240188964050000007716097455848774839_);">
		
			<use xlink:href="#SC6"  width="22.3" height="22.3" x="-11.2" y="-11.2" transform="matrix(0.7447 0 0 0.7468 109.8809 45.1714)" style="overflow:visible;"/>
	</g>
</g>
<g>
	<defs>
		<rect id="SVGID_00000125560840301236776090000017281739180949608639_" x="35.6" y="111.6" width="40.2" height="40.3"/>
	</defs>
	<clipPath id="SVGID_00000101797235479924629870000008740155867964765605_">
		<use xlink:href="#SVGID_00000125560840301236776090000017281739180949608639_"  style="overflow:visible;"/>
	</clipPath>
	
		<g transform="matrix(1 0 0 1 0 7.629395e-06)" style="clip-path:url(#SVGID_00000101797235479924629870000008740155867964765605_);">
		
			<use xlink:href="#SC6"  width="22.3" height="22.3" x="-11.2" y="-11.2" transform="matrix(0.7447 0 0 0.7468 45.5884 121.1476)" style="overflow:visible;"/>
	</g>
</g>
<g transform="rotate(180)">
	<g>
		<defs>
			<rect id="SVGID_00000170262934645500614230000018141393091892258488_" x="-161.2" y="-240.5" width="23.8" height="23.9"/>
		</defs>
		<clipPath id="SVGID_00000159436648526491010690000009865659810063552446_">
			<use xlink:href="#SVGID_00000170262934645500614230000018141393091892258488_"  style="overflow:visible;"/>
		</clipPath>
		<g style="clip-path:url(#SVGID_00000159436648526491010690000009865659810063552446_);">
			
				<use xlink:href="#VC6"  width="18.6" height="32" x="-9.3" y="-16" transform="matrix(0.7447 0 0 0.7468 -149.2369 -228.5222)" style="overflow:visible;"/>
		</g>
	</g>
	<g>
		<defs>
			<rect id="SVGID_00000045589658362418368070000007157237717594756491_" x="-159.2" y="-212.8" width="19.9" height="20"/>
		</defs>
		<clipPath id="SVGID_00000060026847901208056150000006706648569604778924_">
			<use xlink:href="#SVGID_00000045589658362418368070000007157237717594756491_"  style="overflow:visible;"/>
		</clipPath>
		<g style="clip-path:url(#SVGID_00000060026847901208056150000006706648569604778924_);">
			
				<use xlink:href="#SC6"  width="22.3" height="22.3" x="-11.2" y="-11.2" transform="matrix(0.7447 0 0 0.7468 -149.2365 -203.339)" style="overflow:visible;"/>
		</g>
	</g>
	<g>
		<defs>
			<rect id="SVGID_00000091697464342785594900000005176818610379799975_" x="-140.1" y="-228" width="40.2" height="40.3"/>
		</defs>
		<clipPath id="SVGID_00000042010865033019902790000002941541722752771770_">
			<use xlink:href="#SVGID_00000091697464342785594900000005176818610379799975_"  style="overflow:visible;"/>
		</clipPath>
		<g style="clip-path:url(#SVGID_00000042010865033019902790000002941541722752771770_);">
			
				<use xlink:href="#SC6"  width="22.3" height="22.3" x="-11.2" y="-11.2" transform="matrix(0.7447 0 0 0.7468 -130.1597 -218.4506)" style="overflow:visible;"/>
		</g>
	</g>
	<g>
		<defs>
			<rect id="SVGID_00000142160396436101562710000016277315288612974992_" x="-75.8" y="-228" width="40.2" height="40.3"/>
		</defs>
		<clipPath id="SVGID_00000055671345966312764970000010978963977496915111_">
			<use xlink:href="#SVGID_00000142160396436101562710000016277315288612974992_"  style="overflow:visible;"/>
		</clipPath>
		<g style="clip-path:url(#SVGID_00000055671345966312764970000010978963977496915111_);">
			
				<use xlink:href="#SC6"  width="22.3" height="22.3" x="-11.2" y="-11.2" transform="matrix(0.7447 0 0 0.7468 -65.8672 -218.4506)" style="overflow:visible;"/>
		</g>
	</g>
	<g>
		<defs>
			<rect id="SVGID_00000129907776780761931690000006570479642271447722_" x="-140.1" y="-152" width="40.2" height="40.3"/>
		</defs>
		<clipPath id="SVGID_00000002349052209591863390000006063855681429117098_">
			<use xlink:href="#SVGID_00000129907776780761931690000006570479642271447722_"  style="overflow:visible;"/>
		</clipPath>
		<g style="clip-path:url(#SVGID_00000002349052209591863390000006063855681429117098_);">
			
				<use xlink:href="#SC6"  width="22.3" height="22.3" x="-11.2" y="-11.2" transform="matrix(0.7447 0 0 0.7468 -130.1597 -142.4744)" style="overflow:visible;"/>
		</g>
	</g>
</g>
</svg>
