<?xml version="1.0" encoding="utf-8"?>
<!-- Generator: Adobe Illustrator 27.9.0, SVG Export Plug-In . SVG Version: 6.00 Build 0)  -->
<svg version="1.1" id="Layer_1" xmlns="http://www.w3.org/2000/svg" xmlns:xlink="http://www.w3.org/1999/xlink" x="0px" y="0px"
	 viewBox="0 0 175.7 263.6" style="enable-background:new 0 0 175.7 263.6;" xml:space="preserve">
<style type="text/css">
	.st0{fill:#FFFFFF;fill-opacity:0;}
	.st1{fill:#FFFFFF;}
	.st2{fill:none;stroke:#FFFFFF;stroke-width:2.56;stroke-linecap:square;stroke-miterlimit:10;}
	.st3{fill:#272727;stroke:#000000;}
</style>
<symbol  id="SCT" viewBox="-11.2 -11.2 22.3 22.3">
	<rect x="-11.2" y="-11.2" class="st0" width="22.3" height="22.3"/>
	<path class="st1" d="M0.7,3.3c0.1,5.2,1.2,5.6,2.2,7.8h-5.8c1-2.2,2.1-2.6,2.2-7.8c0-0.1-0.1-0.2-0.2-0.2s-0.2,0.1-0.2,0.2
		C-1.6,5.9-4,7.6-6.6,7.1c-2.5-0.5-4.2-2.9-3.8-5.5c0.5-2.5,2.9-4.2,5.5-3.8c0.8,0.1,1.5,0.5,2.1,1c0.1,0.1,0.2,0.1,0.3,0
		c0.1-0.1,0.1-0.2,0-0.3c-2.5-1.4-3.4-4.5-2.1-7s4.5-3.4,7-2.1s3.4,4.5,2.1,7C4-2.6,3.3-1.9,2.5-1.4c-0.1,0.1-0.1,0.2,0,0.3
		c0.1,0.1,0.2,0.1,0.3,0c2-1.6,5-1.3,6.6,0.7s1.3,5-0.7,6.6s-5,1.3-6.6-0.7c-0.5-0.6-0.8-1.3-1-2.1c0-0.1-0.1-0.2-0.2-0.2
		S0.7,3.2,0.7,3.3z"/>
</symbol>
<symbol  id="VCT" viewBox="-9.4 -16 18.9 32">
	<path class="st2" d="M-8.2,13.8v-27.5 M-1.4,0v-9.9c0-2.7,2.1-4.8,4.8-4.8s4.8,2.1,4.8,4.8V9.9c0,2.7-2.1,4.8-4.8,4.8
		s-4.8-2.1-4.8-4.8V0z"/>
</symbol>
<path class="st3" d="M23.5,9.3h128.8c7.8,0,14.1,6.4,14.1,14.2v216.6c0,7.8-6.3,14.2-14.1,14.2H23.5c-7.8,0-14.1-6.4-14.1-14.2V23.5
	C9.3,15.7,15.6,9.3,23.5,9.3z"/>
<g>
	<defs>
		<rect id="SVGID_1_" x="14.6" y="23.2" width="23.8" height="23.9"/>
	</defs>
	<clipPath id="SVGID_00000115496169810777628850000007707214520746390956_">
		<use xlink:href="#SVGID_1_"  style="overflow:visible;"/>
	</clipPath>
	
		<g transform="matrix(1 0 0 1 1.907349e-06 0)" style="clip-path:url(#SVGID_00000115496169810777628850000007707214520746390956_);">
		
			<use xlink:href="#VCT"  width="18.9" height="32" x="-9.4" y="-16" transform="matrix(0.7447 0 0 0.7468 26.392 35.0998)" style="overflow:visible;"/>
	</g>
</g>
<g>
	<defs>
		<rect id="SVGID_00000045620200400891040150000004453428977044555171_" x="16.5" y="50.8" width="19.9" height="20"/>
	</defs>
	<clipPath id="SVGID_00000163033760608399219100000016709313770307555770_">
		<use xlink:href="#SVGID_00000045620200400891040150000004453428977044555171_"  style="overflow:visible;"/>
	</clipPath>
	
		<g transform="matrix(1 0 0 1 1.907349e-06 0)" style="clip-path:url(#SVGID_00000163033760608399219100000016709313770307555770_);">
		
			<use xlink:href="#SCT"  width="22.3" height="22.3" x="-11.2" y="-11.2" transform="matrix(0.7447 0 0 0.7468 26.5115 60.283)" style="overflow:visible;"/>
	</g>
</g>
<g>
	<defs>
		<rect id="SVGID_00000181085868585406621330000016670623444604945336_" x="35.6" y="35.7" width="40.2" height="40.3"/>
	</defs>
	<clipPath id="SVGID_00000009556499321660581040000017361362868920053394_">
		<use xlink:href="#SVGID_00000181085868585406621330000016670623444604945336_"  style="overflow:visible;"/>
	</clipPath>
	<g style="clip-path:url(#SVGID_00000009556499321660581040000017361362868920053394_);">
		
			<use xlink:href="#SCT"  width="22.3" height="22.3" x="-11.2" y="-11.2" transform="matrix(0.7447 0 0 0.7468 45.5884 45.1714)" style="overflow:visible;"/>
	</g>
</g>
<g>
	<defs>
		<rect id="SVGID_00000083803992312367365820000006965993547689981369_" x="99.9" y="35.7" width="40.2" height="40.3"/>
	</defs>
	<clipPath id="SVGID_00000059306118259466279300000011688515232592463518_">
		<use xlink:href="#SVGID_00000083803992312367365820000006965993547689981369_"  style="overflow:visible;"/>
	</clipPath>
	<g style="clip-path:url(#SVGID_00000059306118259466279300000011688515232592463518_);">
		
			<use xlink:href="#SCT"  width="22.3" height="22.3" x="-11.2" y="-11.2" transform="matrix(0.7447 0 0 0.7468 109.8809 45.1714)" style="overflow:visible;"/>
	</g>
</g>
<g>
	<defs>
		<rect id="SVGID_00000097461035462282030630000016665425122770977715_" x="35.6" y="86.3" width="40.2" height="40.3"/>
	</defs>
	<clipPath id="SVGID_00000075120359427434764080000015849460225257586816_">
		<use xlink:href="#SVGID_00000097461035462282030630000016665425122770977715_"  style="overflow:visible;"/>
	</clipPath>
	<g style="clip-path:url(#SVGID_00000075120359427434764080000015849460225257586816_);">
		
			<use xlink:href="#SCT"  width="22.3" height="22.3" x="-11.2" y="-11.2" transform="matrix(0.7447 0 0 0.7468 45.5884 95.8227)" style="overflow:visible;"/>
	</g>
</g>
<g>
	<defs>
		<rect id="SVGID_00000114779774914540972870000008235862266434625977_" x="99.9" y="86.3" width="40.2" height="40.3"/>
	</defs>
	<clipPath id="SVGID_00000116929324867936766770000012160735003997623483_">
		<use xlink:href="#SVGID_00000114779774914540972870000008235862266434625977_"  style="overflow:visible;"/>
	</clipPath>
	<g style="clip-path:url(#SVGID_00000116929324867936766770000012160735003997623483_);">
		
			<use xlink:href="#SCT"  width="22.3" height="22.3" x="-11.2" y="-11.2" transform="matrix(0.7447 0 0 0.7468 109.8809 95.8227)" style="overflow:visible;"/>
	</g>
</g>
<g>
	<defs>
		<rect id="SVGID_00000055702680853170558660000007989459745125003441_" x="67.8" y="61" width="40.2" height="40.3"/>
	</defs>
	<clipPath id="SVGID_00000038371798051699708140000001699538106710883969_">
		<use xlink:href="#SVGID_00000055702680853170558660000007989459745125003441_"  style="overflow:visible;"/>
	</clipPath>
	<g style="clip-path:url(#SVGID_00000038371798051699708140000001699538106710883969_);">
		
			<use xlink:href="#SCT"  width="22.3" height="22.3" x="-11.2" y="-11.2" transform="matrix(0.7447 0 0 0.7468 77.7346 70.4971)" style="overflow:visible;"/>
	</g>
</g>
<g transform="rotate(180)">
	<g>
		<defs>
			<rect id="SVGID_00000056416068770184701970000004491483015468326833_" x="-161.2" y="-240.5" width="23.8" height="23.9"/>
		</defs>
		<clipPath id="SVGID_00000091012309243294756540000005781628649874929052_">
			<use xlink:href="#SVGID_00000056416068770184701970000004491483015468326833_"  style="overflow:visible;"/>
		</clipPath>
		<g style="clip-path:url(#SVGID_00000091012309243294756540000005781628649874929052_);">
			
				<use xlink:href="#VCT"  width="18.9" height="32" x="-9.4" y="-16" transform="matrix(0.7447 0 0 0.7468 -149.356 -228.5222)" style="overflow:visible;"/>
		</g>
	</g>
	<g>
		<defs>
			<rect id="SVGID_00000026881649459778807330000015791268431047980436_" x="-159.2" y="-212.8" width="19.9" height="20"/>
		</defs>
		<clipPath id="SVGID_00000027605407539923299730000014371127224920272523_">
			<use xlink:href="#SVGID_00000026881649459778807330000015791268431047980436_"  style="overflow:visible;"/>
		</clipPath>
		<g style="clip-path:url(#SVGID_00000027605407539923299730000014371127224920272523_);">
			
				<use xlink:href="#SCT"  width="22.3" height="22.3" x="-11.2" y="-11.2" transform="matrix(0.7447 0 0 0.7468 -149.2365 -203.339)" style="overflow:visible;"/>
		</g>
	</g>
	<g>
		<defs>
			<rect id="SVGID_00000149360250290294896300000004703849726913100965_" x="-140.1" y="-228" width="40.2" height="40.3"/>
		</defs>
		<clipPath id="SVGID_00000122721736712277788470000004761262489223174821_">
			<use xlink:href="#SVGID_00000149360250290294896300000004703849726913100965_"  style="overflow:visible;"/>
		</clipPath>
		<g style="clip-path:url(#SVGID_00000122721736712277788470000004761262489223174821_);">
			
				<use xlink:href="#SCT"  width="22.3" height="22.3" x="-11.2" y="-11.2" transform="matrix(0.7447 0 0 0.7468 -130.1597 -218.4506)" style="overflow:visible;"/>
		</g>
	</g>
	<g>
		<defs>
			<rect id="SVGID_00000096756482155125465220000010790106483265402761_" x="-75.8" y="-228" width="40.2" height="40.3"/>
		</defs>
		<clipPath id="SVGID_00000103229178118300870270000007658275606708796083_">
			<use xlink:href="#SVGID_00000096756482155125465220000010790106483265402761_"  style="overflow:visible;"/>
		</clipPath>
		<g style="clip-path:url(#SVGID_00000103229178118300870270000007658275606708796083_);">
			
				<use xlink:href="#SCT"  width="22.3" height="22.3" x="-11.2" y="-11.2" transform="matrix(0.7447 0 0 0.7468 -65.8672 -218.4506)" style="overflow:visible;"/>
		</g>
	</g>
	<g>
		<defs>
			<rect id="SVGID_00000013164334748363130650000015245478324142187153_" x="-140.1" y="-177.3" width="40.2" height="40.3"/>
		</defs>
		<clipPath id="SVGID_00000069380956903400944420000010593020118749406126_">
			<use xlink:href="#SVGID_00000013164334748363130650000015245478324142187153_"  style="overflow:visible;"/>
		</clipPath>
		<g style="clip-path:url(#SVGID_00000069380956903400944420000010593020118749406126_);">
			
				<use xlink:href="#SCT"  width="22.3" height="22.3" x="-11.2" y="-11.2" transform="matrix(0.7447 0 0 0.7468 -130.1597 -167.7993)" style="overflow:visible;"/>
		</g>
	</g>
	<g>
		<defs>
			<rect id="SVGID_00000026124667612559791050000011729961499611218818_" x="-75.8" y="-177.3" width="40.2" height="40.3"/>
		</defs>
		<clipPath id="SVGID_00000071548361170819214680000005910338731036355984_">
			<use xlink:href="#SVGID_00000026124667612559791050000011729961499611218818_"  style="overflow:visible;"/>
		</clipPath>
		<g style="clip-path:url(#SVGID_00000071548361170819214680000005910338731036355984_);">
			
				<use xlink:href="#SCT"  width="22.3" height="22.3" x="-11.2" y="-11.2" transform="matrix(0.7447 0 0 0.7468 -65.8672 -167.7993)" style="overflow:visible;"/>
		</g>
	</g>
	<g>
		<defs>
			<rect id="SVGID_00000109002545081754914920000008191568575843303079_" x="-108" y="-202.6" width="40.2" height="40.3"/>
		</defs>
		<clipPath id="SVGID_00000174600288848636847670000016720255253152552836_">
			<use xlink:href="#SVGID_00000109002545081754914920000008191568575843303079_"  style="overflow:visible;"/>
		</clipPath>
		<g style="clip-path:url(#SVGID_00000174600288848636847670000016720255253152552836_);">
			
				<use xlink:href="#SCT"  width="22.3" height="22.3" x="-11.2" y="-11.2" transform="matrix(0.7447 0 0 0.7468 -98.0134 -193.125)" style="overflow:visible;"/>
		</g>
	</g>
</g>
</svg>
