<?xml version="1.0" encoding="utf-8"?>
<!-- Generator: Adobe Illustrator 27.9.0, SVG Export Plug-In . SVG Version: 6.00 Build 0)  -->
<svg version="1.1" id="Layer_1" xmlns="http://www.w3.org/2000/svg" xmlns:xlink="http://www.w3.org/1999/xlink" x="0px" y="0px"
	 viewBox="0 0 175.7 263.6" style="enable-background:new 0 0 175.7 263.6;" xml:space="preserve">
<style type="text/css">
	.st0{fill:none;stroke:#000000;stroke-width:0.6129;stroke-linecap:round;stroke-linejoin:round;stroke-miterlimit:10;}
	.st1{fill:none;stroke:#000000;stroke-width:0.3065;stroke-linecap:round;stroke-linejoin:round;stroke-miterlimit:10;}
	.st2{fill-opacity:0;}
	.st3{stroke:#FFFFFF;stroke-width:2.2307;stroke-linecap:round;stroke-linejoin:round;stroke-miterlimit:10;}
	.st4{fill:#FF0000;fill-opacity:0;}
	.st5{fill:#FF0000;stroke:#FFFFFF;stroke-width:6;stroke-linecap:round;stroke-linejoin:round;stroke-miterlimit:10;}
	.st6{fill:none;stroke:#FFFFFF;stroke-width:2.56;stroke-linecap:square;stroke-miterlimit:10;}
	.st7{fill:#272727;stroke:#000000;}
	.st8{fill:#FFFFFF;}
	.st9{fill:none;stroke:#FFFFFF;}
</style>
<symbol  id="DJ1" viewBox="-61.8 -74.6 123.6 149.1">
	<path d="M-8.8-23.7c0.9,0,2.9-0.1,3.3,0.4c1.9,2.8,3.5,5.5,6.3,6.7c0.6,0.3,1,2.2,0.2,2.7c-3.9,1.9-5.5-4.5-6.5-7.3
		c-0.7-2-2.8-1.7-3.2-1.7C-9.3-23-9-23.7-8.8-23.7z M-14.2-17.9c0.9,0,2.9-0.1,3.3,0.4c1.9,2.8,3.5,5.5,6.3,6.7
		c0.6,0.3,1,2.2,0.2,2.7c-3.9,1.9-5.5-4.5-6.5-7.3c-0.7-2-2.8-1.7-3.2-1.7C-14.7-17.1-14.4-17.9-14.2-17.9z M-19.3-12.7
		c0.9,0,2.9-0.1,3.3,0.4c1.9,2.8,3.5,5.5,6.3,6.7c0.6,0.3,1,2.2,0.2,2.7C-13.4-1-15-7.4-16-10.2c-0.7-2-2.8-1.7-3.2-1.7
		C-19.8-12-19.5-12.7-19.3-12.7z M-22.8-7.6c0.8,0,1.5,0.1,1.7,0.4c1.9,2.8,3.5,5.5,6.3,6.7c0.6,0.3,1,2.2,0.2,2.7
		c-3.9,1.9-5.5-4.5-6.5-7.3c-0.4-1-1-1.4-1.7-1.6 M-22.3,3c0.7,0.7,1.5,1.3,2.5,1.7c0.6,0.3,1,2.2,0.2,2.7c-1.1,0.6-2,0.4-2.8-0.1
		 M10.5-72.5c0,1.1-0.6,2-1.4,2l0,0c-0.8,0-1.4-0.9-1.4-2c0,0,0,0,0,0c0-1.1,0.6-2,1.4-2l0,0C9.8-74.6,10.5-73.7,10.5-72.5
		C10.5-72.5,10.5-72.5,10.5-72.5z M27.1-72.1c0,1.1-0.6,2.1-1.3,2.1l0,0c-0.7,0-1.3-0.9-1.3-2.1l0,0c0-1.1,0.6-2.1,1.3-2.1l0,0
		C26.5-74.1,27.1-73.2,27.1-72.1L27.1-72.1z M45.4-40.4c-1.7-3.8-3.1-7.8-4-12l-1.9-0.5l-0.4,0.5c-0.9,1.3-1.8,2.4-2.7,3.5
		c0.5,8.5,1.1,17,1.5,24.3C39.9-30.1,42.4-35.4,45.4-40.4z M56.2-48.4l5.6,1.5 M56.2-48.4c0.4,2.8,3.1,7.9,5.6,10.8l0-9.3 M-46.7-29
		c-0.4,0.8-0.9,1.3-1.4,1.4c-1.5,0.5-2.5-1-2.5-1l0,50.8c2.4,1.8,4.7,3.8,6.7,5.9C-35.4,10.9-33.5-8.4-46.7-29z M-50.6,63.3
		l-11.2,11.2 M-24.6-16.1l14.5-14.7l2.1,2.3c-0.1,0-0.2,0-0.3,0c-0.1,0-0.3,0-0.4,0c-1,0.1-2,0.5-2.7,1.2c-1.2,1.2-1.6,3.1-0.9,4.9
		c-0.6-0.2-1.2-0.3-1.8-0.2c-1,0.1-2,0.5-2.7,1.2c-1,1-1.4,2.5-1.1,4c-0.4-0.1-0.9-0.1-1.3-0.1c-1,0.1-2,0.5-2.7,1.2
		c-1,1-1.4,2.5-1.1,4c0,0-0.1,0-0.1,0c-0.1,0-0.2,0-0.3,0c-0.1,0-0.2,0-0.3,0L-24.6-16.1z M51.6-48c0,0.6-0.5,1-1,1
		c-0.6,0-1-0.5-1-1s0.5-1,1-1C51.1-49,51.6-48.6,51.6-48z M54.7-41.4c0,0.6-0.5,1-1,1s-1-0.5-1-1c0-0.6,0.5-1,1-1
		S54.7-41.9,54.7-41.4z M59.3-34.2c0,0.6-0.5,1-1,1s-1-0.5-1-1c0-0.6,0.5-1,1-1S59.3-34.8,59.3-34.2z"/>
</symbol>
<symbol  id="DJ2" viewBox="-42.8 -59.8 85.6 119.7">
	<path d="M-39.7,35.5c-0.4,0-0.4,0.6,0,0.6h6.1c0.4,0,0.4-0.6,0-0.6H-39.7z M-40.8,38c-0.4,0-0.4,0.6,0,0.6h8.7c0.4,0,0.4-0.6,0-0.6
		H-40.8z M-42.8,40.8V42h12.1l0.2-1.2H-42.8z M-42.8,43.3v1.2h11.5l0.3-1.2H-42.8z M-42.8,45.9v1.2h10.7l0.4-1.2H-42.8z M-42.8,48.4
		v1.2h9.9l0.4-1.2H-42.8z M-41,52.2h7l0.5-1.2h-8.9L-41,52.2z M-38,54.8h2.8l0.5-1.2h-4.7L-38,54.8z M37.5-59.7
		c-2.1,0-4.2-0.1-6.3-0.1C16.4-59.9,1.4-59-13.9-56.1l-2.6,0.5l3.4,3.6C4-55.3,20.8-56,37.4-55.7l3.6-3.9L37.5-59.7z M42.4-11.3
		c-9.9,8.2-24.1,10.5-38.5,7l4.5,5c12.6,1.8,25-0.4,34.4-7.1L42.4-11.3z M30.4,25.6L-7.6-17.3l-3.7,0.4l39.6,44.6L30.4,25.6z
		 M-2.3-2.1l-14.5,14.7l-1-3.6L-4.5-4.6L-2.3-2.1z M36.6,19.2c-0.5-0.5-1.1-1.1-1.8-1.9l5.2-5.7c0.7,0.7,1.3,1.5,2,2.1 M-33.3,59.8
		c9.7-19.1,11.9-41.4-4-64.7c-0.5,1.6-1,3.3-1.7,4.4c13.2,20.7,11.3,40,3,57.1L-33.3,59.8z"/>
</symbol>
<symbol  id="DJ3" viewBox="-61.6 -87.6 123.2 175.3">
	<path class="st0" d="M-51.1-14.8v91.9l-10.2,10.2 M-51.1-18.1v1.4 M-51.1-21.4v1.8 M-51.1-25v1.5 M-51.1-46.7v20.1 M-61.3-87.3
		l10.2,10.2V-57 M-51.1,36c11,8.1,17.5,19.5,20.4,32.3 M-40.1-31.6c24.3,30.8,20.1,63.4,5.5,87.9 M-24.7,31.8L5.5,1.2 M-24-32
		l41.8,47.1 M5.1,1.6v13.8 M3.6,3.1v24 M2,4.7v20.8 M0.5,6.2v17.5 M-1,7.8V22 M-2.6,9.3v10.9 M-4.1,10.9v7.6 M-5.6,12.4v4.3
		 M-7.1,14v1.1 M-19.6-31.7L20,12.9 M-15.9-32.1l38.1,42.9 M-23.6,26.1l27-27.4 M-25.1-2.3L-10.6-17 M-26.1-5.8l13.3-13.6
		 M-46.5-27.4l12-8 M34.7-40.3l26.5,7.2 M28.8-33.8c-4.2,3.5-9.1,5.7-14.4,6.5C6.5-26.1-2.5-27.9-12-33 M-15-32.3
		c10.6,6.1,20.7,8.5,29.7,7.1c8.8-1.3,16.5-6.3,22.2-14.5 M25.6-33.8c-3.5,2.4-7.3,3.9-11.5,4.6c-7,1-15-0.4-23.8-4.8 M-4.3-19.1
		c14.5,3.5,28.6,1.2,38.5-7 M33.8-32.8l1.8,28.1 M35.8-35c0.5,8.5,1.1,17,1.5,24.3 M0.1-14.1c12.6,1.8,25-0.4,34.4-7.1 M16.4-14.1
		c0.8,2.5,2.4,7.2,4.1,9.5c2,2.8,6.2,7.2,7.9,9 M19.1-14.6c0.8,2.6,2.3,6.8,3.9,9c1.3,1.8,3.4,4.2,5.3,6.2 M21.8-15.2
		c0.9,2.6,2.3,6.5,3.8,8.6c1.1,1.6,2.9,3.6,4.5,5.4 M24.4-16.1c0.9,2.6,2.3,6.4,3.7,8.4c1.4,1.9,3.8,4.6,5.7,6.6 M-45.6-19.7
		c15.9,23.3,13.7,45.6,4,64.7 M61.3-14.2c-5.4-4.9-9.3-10.8-11.9-17.5c-0.6-1.6-1.2-3.3-1.7-5.1 M61.2-10.3
		C52.4-17.5,47-26.9,44.3-37.7 M55.6-34.6c0.4,2.8,3.1,7.9,5.6,10.8 M-53.1-62.8l-8.2-8.2 M-61.3-75.1l8.2,8.2 M-53.1-58.7l-8.2-8.2
		 M-53.1-30.6l-8.2-8.2 M-61.3-42.9l8.2,8.2 M-53.1,1.5l-8.2-8.2 M-61.3-10.7l8.2,8.2 M-53.1,5.6l-8.2-8.2 M-53.1,33.7l-8.2-8.2
		 M-61.3,21.5l8.2,8.2 M-53.1,37.8l-8.2-8.2 M-53.1,65.9l-8.2-8.2 M-61.3,53.6l8.2,8.2 M-53.1,70l-8.2-8.2 M-53.1-14.2v88.3
		l-8.2,8.2 M-53.1-46v18.7 M-61.3-82.2l8.2,8.2v17.5 M-0.7,2.8L-11-8.4c-2-3.1,1-6.1,4.1-4.1L3.3-1.2 M-6.3,8.5L-16.3-2.6
		c-2-3.1,1-6.1,4.1-4.1l10,11 M-11.3,13.7L-21.4,2.6c-2-3.1,1-6.1,4.1-4.1L-7.3,9.5 M-23.9,3c0.5,0.1,0.9,0.3,1.4,0.6l10.1,11.1
		 M-16.4,18.8l-6.4-7.1 M-22.8,13.9l5.3,5.9 M-21.5,23.9l-1.6-1.8 M-8.5-14.6c-0.1,0-0.2,0-0.3,0c-0.1,0-0.3,0-0.4,0
		c-1,0.1-2,0.5-2.7,1.2c-1.2,1.2-1.6,3.1-0.9,4.9c-0.6-0.2-1.2-0.3-1.8-0.2c-1,0.1-2,0.5-2.7,1.2c-1,1-1.4,2.5-1.1,4
		c-0.4-0.1-0.9-0.1-1.3-0.1c-1,0.1-2,0.5-2.7,1.2c-1,1-1.4,2.5-1.1,4c0,0-0.1,0-0.1,0c-0.1,0-0.2,0-0.3,0c-0.1,0-0.2,0-0.3,0
		 M31.8-3.2l-5.2,5.6 M25.4-13.1c3.1-1.5,6.2-3.1,9.3-4.9 M26.6-10.4c2.8-1.3,5.6-2.7,8.3-4.3 M28-7.8c2.4-1.1,4.8-2.3,7.1-3.6
		 M29.9-5.4c1.8-0.9,3.7-1.8,5.5-2.7 M31.9-3.1c1.2-0.6,2.4-1.2,3.6-1.8 M32.7,0.1c0.6-0.3,1.3-0.6,1.9-0.9 M25.3-13.4l4.3-3.5
		l-5.1,1.1 M26.5-10.5l4.6-3.8l-5.4,1.1 M27.9-7.9l4.7-3.9l-5.4,1.1 M29.8-5.6l4.5-3.6l-5.4,1.1 M35.4-6.6l-5.1,1.1 M31.7-3.3
		l3.8-3.1 M35.2-3.5L32.4-3 M32.9-0.1l1.9-1.5 M20.1-4.5l-6.3-0.6l5.1-2 M22.1-2l-6.3-0.6l4.7-1.9 M24.2,0.6L17.9,0l4.7-1.9
		 M26.2,3.1l-6.3-0.6l4.9-2 M27.1,5.6l-5.7-0.5l5.1-2 M17.6-10.6C12.9-9.9,8.6-9.5,4.5-9.3 M17.5-10.6l-6.3-0.6l5.1-2 M18.8-7.5
		C15-6.9,11.1-6.5,7-6.2 M18.8-7.6l-6-0.6l5-2 M20.5-4.5C17-4,13.4-3.5,9.8-3.3c0,0,0,0,0,0 M22.5-2c-3.4,0.6-7,1-10.6,1.2
		 M24.8,0.6c-3.4,0.6-6.9,1-10.5,1.3 M27.1,3.1c-3.5,0.6-7,1-10.6,1.3 M27,5.9c-2.7,0.4-5.5,0.7-8.3,1 M23.8,9.1
		c-0.9,0.1-1.9,0.2-2.8,0.3 M25.1,7.8l-1.6-0.2l2.8-1.1 M-47.2-15.3c13.2,20.7,11.3,40,3,57.1 M-46.5-27.4
		c21.6,27,19.1,53.8,7.4,75.7 M-36.7,52.1c13-23.3,16.3-52.9-6.6-81.6 M-46.5-27.4C-24.9-0.4-27.4,26.5-39,48.4 M-43.3-29.5
		c22.9,28.8,19.6,58.3,6.6,81.6 M-51.1-14.8c0,0,0.9,1.5,2.5,1c1.6-0.5,3.3-5.6,3.1-8.2c-0.1-2.5-1.5-6.6-1.5-7.2s0.2-1.5,0.2-3.5
		c0-3.1-3.3-4.6-3.5-0.3c-0.1,1.3,0.2,1.8,0.7,3.3 M-49.5-29.6c-0.1,0.5-1,1.5-1,2c0,2,0.8,2.3,0.8,2.3 M-61.3-25.8
		c0-1,2.4-1.8,5.4-1.8l0,0c3,0,5.4,0.8,5.4,1.8l0,0c0,1-2.4,1.8-5.4,1.8l0,0C-58.9-24-61.3-24.8-61.3-25.8L-61.3-25.8 M-61.3-22.5
		L-61.3-22.5c0-0.7,1.4-1.4,3.4-1.6 M-53.7-24.2c2.2,0.2,3.7,0.9,3.7,1.7c0,1-2.5,1.8-5.6,1.8c-3.1,0-5.6-0.8-5.6-1.8 M-61.3-18.9
		c0-1,2.4-1.8,5.4-1.8c3,0,5.4,0.8,5.4,1.8c0,1-2.4,1.8-5.4,1.8C-58.9-17.1-61.3-17.9-61.3-18.9 M-53-17.4c1.5,0.3,2.4,0.9,2.4,1.5
		c0,1-2.2,1.8-4.9,1.8s-4.9-0.8-4.9-1.8c0-0.6,0.8-1.1,2-1.5 M-54-27.4l-7.3-7.3 M-61.3-55.7c10-0.3,19.1-3.2,27.1-9.7
		c-2.3,9.6-8,17.9-27.1,21.4 M-61.3-53.6c8.2-0.3,16-2.2,23.1-6.4c-1.1,2.3-2.6,4.4-4.7,6.3c-3.7,3.3-9.4,6-18.3,7.7 M-20-67.2
		c-6.9,14.5-5.8,23.8-8.6,27.3c-2,2.6-5.6,3.1-5.6,0c0-3.6,3.6-1.5,3.6-1 M-18.4-67.4c-7.1,14.7-6.1,23.9-8.7,27.6
		c-2.6,3.6-7.2,3.1-7.2,0 M-16.7-67.7c-7.2,14.8-6.3,24.1-8.8,27.9c-6.6,9.7-11.2,3.6-11.2,0c0-7.7,9.2-5.1,8.7-1 M-15-68
		c-7.4,15-6.9,24.1-9,28.1c-2,4.1-7.9,6.7-9.7,5 M-13.4-68.2c-7.5,15.1-7,24.3-9.1,28.4c-2,4.1-6.6,7-8.7,5.6 M-11.8-68.4
		c-7.6,15.2-7.2,24.3-8.9,28.6c-1.5,4.1-6.5,8.2-9,6.1 M-10.1-68.7c-7.7,15.4-7,24.7-8.7,29c-2.2,5.4-5.6,8.8-8.4,6.7 M-8.5-68.9
		C-16.3-53.4-15.6-44-17-39.5c-1.4,4.3-4.9,8.9-7.9,7.1 M-6.8-69.1C-14.8-53.5-14-44-15-39.4c-0.8,3.7-3.9,9.4-7.6,7.3 M-5.2-69.2
		c-8,15.7-6.3,25.7-7.8,30.2c-1.3,3.8-4,8.3-7,7.3 M-3.6-69.4c-8.1,15.8-6.2,25.5-7,30.1c-0.7,4.1-3.7,7.8-7,7.1 M-2-69.5
		c-8.2,15.8-5.4,25.6-6.4,30.2c-0.7,3-2.9,7-5.9,6.7 M-0.5-69.5C-8.7-53.6-4.6-43-6.4-38.7c-1.5,3.8-3.5,5.1-5.3,5.3 M27.9-70.4
		c0.6,2,1.7,6.3,1.7,7.1c0,1-1,4.1-1,5.6s-1,7.2-2,9.7c-1,2.6-4.6,9.2-5.1,10.2s-1,4-2.5,4.6c-1.5,0.5-5.1,2.1-6.7,1.1
		c-1.5-1-2-1.5-3.1-1.5s-3.1,0.5-4.6,0c-1.5-0.5-8.7-1.5-9.2-3.1c-0.4-1.3-1-2-1.3-3.9 M0-61.8c3.9-1.7,6.8-5.4,13.8-1l0,0l-0.5,0.5
		C9.6-65.9,4.9-64.2,0-61.8L0-61.8 M29.1-62.8c-3.6-1.5-4.6-3.1-9.7,0.5l0,0C22.5-63.8,26.2-64.9,29.1-62.8L29.1-62.8 M19.4-62.3
		c-0.6,0.3-0.7,2.2-0.5,3.1c0.3,1,1.5,5.1,1.5,6.1s0.9,5.3,0.9,5.8c0,1-1.9,1.8-3.5,1.8 M14.3-49.5c-2.1,0.2-3.9,4,1,3.2
		c3.1-0.5,1.1-1.2-2-0.1 M9.7-42.4v1.5l1-1L9.7-42.4L9.7-42.4 M20.9-42.9l-0.5,1l-1-0.5L20.9-42.9L20.9-42.9 M10.2-41.9
		c1.5,0,3.1-1,3.6-1s1.5,1,2,1c0.5,0,1.5-1,2-1s1,0.5,1.5,0.5 M13.8-39.3c1,1.1,4.1,1.5,4.1-1 M-0.5-58.2c3.6,0.5,8.2-3.1,12.3-3.1
		 M3.6-58.7c-0.5,1.5,5.6,2.6,7.2,1.5s2-0.5,2-0.5 M19.5-58.2c2,0,5.3-2.3,7.2-2.6c1.8-0.2,2,1,2,1 M19.4-58.2c2,1,3.4,2,5.4,2
		c2,0,3.8-1.5,3.8-1.5 M28.9-70.4c3.5,5.6,1.7,12.2,1.8,18.3c0.1,1.7,1.5,1,2,0.5 M28.2-54.4c-1.3,8.1,6.6,7.1,6.6,2.8
		c0-4.1-4.1-2.6-4.1-0.5 M30.1-48.5c0,4.6,2,7.2,3.6,4.6 M26.9-48.8c0,9,9.7,10.9,8.9,4.3c-0.5-4.1-5.1-2-5-0.3 M25.5-45.5
		c0.4,5.1,4.5,7.4,7.7,6.2c1.9-0.7,2.2-1.8,2.2-2.5 M24.2-42.9c0.8,4.4,6.8,7,9.6,3.6 M23.2-41.1c0.9,4.2,4.6,6,7.5,4.9
		c1-0.4,1.8-1.2,2-2.2 M22.3-39.5c1.1,3.7,4.5,5.4,7.3,4.3c1-0.4,1.6-0.9,1.9-1.4 M21.4-37.6c0.6,3.8,8.2,5.8,9.3,1.9 M32.7-74.5
		l-3.5-0.1c-2.1,0-4.2-0.1-6.3-0.1c-14.8-0.1-29.8,0.9-45.1,3.7l-2.6,0.5 M-40.9-87.3l19.5,20.4c17.1-3.2,33.9-3.9,50.6-3.6
		l15.9-16.9 M-13-28.9c9.8,5.1,19.4,7,28.1,5.7c9.4-1.4,17.6-6.7,23.6-15.3l0.4-0.5"/>
</symbol>
<symbol  id="DJ4" viewBox="-54 -43.1 108 86.1">
	<path class="st1" d="M-50.3-7.6c-0.5,0.9-0.5,1.7,0,2.6 M-49.9-4.4c-0.5,0.9-0.5,1.7,0,2.6 M-49.9-0.8c-0.5,0.9-0.5,1.7,0,2.6
		 M-49.9,2.3c-0.5,0.9-0.5,1.7,0,2.6 M-45.7-15.8c0,2.6,1,3.1,1,3.1 M-53.8-6.9c-0.1,0.3-0.1,0.6,0,1 M-53.8-3.5
		c-0.1,0.3-0.1,0.6,0,1 M-53.8,0c-0.1,0.3-0.1,0.6,0,1 M-53.8,3.6c-0.1,0.3-0.1,0.6,0,1 M-53.8,3.2c-0.1,0.3-0.1,0.6,0,1 M15.1-16.8
		c2.6-1,4.1-1,5.1-0.5 M13.1-41.9c-3.1-2-6.2-0.7-9.2,1.5 M21.2-39.8c2.5-3.1,5.2-3.7,7.2-2.6 M11.8-41.5c0.6,0.4,1,1.1,1,1.9
		c0,1.3-1,2.3-2.2,2.3s-2.2-1-2.2-2.3c0-0.3,0.1-0.7,0.2-0.9 M28.2-41.2c0.7,0.3,1.2,1.2,1.2,2.1c0,1.3-0.9,2.3-2,2.3
		c-1.1,0-2-1-2-2.3c0-0.4,0.1-0.8,0.2-1.1 M26.3-35.5c1.2,0.4,2.7,0,2.8-0.2 M-6-15.8c4,2.4,8.8,4.6,13.5,4.6 M-5.3-17
		c4.1,2.5,9,4.8,13.8,4.8"/>
	
		<use xlink:href="#SDJ"  width="166.7" height="172.7" x="-83.3" y="-86.3" transform="matrix(0.1022 0 0 0.1022 7.4461 34.2382)" style="overflow:visible;"/>
	<g>
		<defs>
			
				<rect id="SVGID_1_" x="29.8" y="-9.4" transform="matrix(0.4384 -0.8988 0.8988 0.4384 24.3174 25.2609)" width="5.1" height="5.1"/>
		</defs>
		<clipPath id="SVGID_00000165943593988987494430000011475689413541105315_">
			<use xlink:href="#SVGID_1_"  style="overflow:visible;"/>
		</clipPath>
		
			<g transform="matrix(1 2.980232e-08 -2.980232e-08 1 0 -4.768372e-07)" style="clip-path:url(#SVGID_00000165943593988987494430000011475689413541105315_);">
			
				<use xlink:href="#SDJ"  width="166.7" height="172.7" x="-83.3" y="-86.3" transform="matrix(9.181527e-02 -4.478115e-02 4.478130e-02 9.181496e-02 42.6164 -3.3)" style="overflow:visible;"/>
		</g>
	</g>
	<g>
		<defs>
			
				<rect id="SVGID_00000158741596405687437300000013396015646016545165_" x="25.5" y="-6.8" transform="matrix(0.3746 -0.9272 0.9272 0.3746 21.5243 23.3637)" width="5.1" height="5.1"/>
		</defs>
		<clipPath id="SVGID_00000176734890888243543880000013749365074881063050_">
			<use xlink:href="#SVGID_00000158741596405687437300000013396015646016545165_"  style="overflow:visible;"/>
		</clipPath>
		
			<g transform="matrix(1 0 0 1 0 1.378357e-07)" style="clip-path:url(#SVGID_00000176734890888243543880000013749365074881063050_);">
			
				<use xlink:href="#SDJ"  width="166.7" height="172.7" x="-83.3" y="-86.3" transform="matrix(9.471539e-02 -3.826737e-02 3.826750e-02 9.471508e-02 38.0549 -4.012094e-02)" style="overflow:visible;"/>
		</g>
	</g>
	<g>
		<defs>
			
				<rect id="SVGID_00000083781277421629436210000017287838691022988952_" x="20.8" y="-5.2" transform="matrix(0.2419 -0.9703 0.9703 0.2419 20.2863 20.6868)" width="5.1" height="5.1"/>
		</defs>
		<clipPath id="SVGID_00000038384739896238917120000013033567357446792343_">
			<use xlink:href="#SVGID_00000083781277421629436210000017287838691022988952_"  style="overflow:visible;"/>
		</clipPath>
		<g style="clip-path:url(#SVGID_00000038384739896238917120000013033567357446792343_);">
			
				<use xlink:href="#SDJ"  width="166.7" height="172.7" x="-83.3" y="-86.3" transform="matrix(9.911944e-02 -2.471317e-02 2.471325e-02 9.911910e-02 32.6696 2.9412)" style="overflow:visible;"/>
		</g>
	</g>
	<g>
		<defs>
			
				<rect id="SVGID_00000075850883515568773760000000372506010960924351_" x="15.8" y="-4.1" transform="matrix(0.1045 -0.9945 0.9945 0.1045 17.9629 16.9188)" width="5.1" height="5.1"/>
		</defs>
		<clipPath id="SVGID_00000114781847174550841940000003002595427668628902_">
			<use xlink:href="#SVGID_00000075850883515568773760000000372506010960924351_"  style="overflow:visible;"/>
		</clipPath>
		
			<g transform="matrix(1 7.450581e-09 7.450581e-09 1 0 0)" style="clip-path:url(#SVGID_00000114781847174550841940000003002595427668628902_);">
			
				<use xlink:href="#SDJ"  width="166.7" height="172.7" x="-83.3" y="-86.3" transform="matrix(0.1016 -1.067795e-02 1.067798e-02 0.1016 26.797 5.3031)" style="overflow:visible;"/>
		</g>
	</g>
	<g>
		<defs>
			<rect id="SVGID_00000020397865863121449230000011698460141511505851_" x="10.6" y="-3.6" width="5.1" height="5.1"/>
		</defs>
		<clipPath id="SVGID_00000067954935913003530770000014356800604317466535_">
			<use xlink:href="#SVGID_00000020397865863121449230000011698460141511505851_"  style="overflow:visible;"/>
		</clipPath>
		
			<g transform="matrix(1 0 0 1 0 -4.768372e-07)" style="clip-path:url(#SVGID_00000067954935913003530770000014356800604317466535_);">
			
				<use xlink:href="#SDJ"  width="166.7" height="172.7" x="-83.3" y="-86.3" transform="matrix(0.1022 0 0 0.1022 20.8283 6.6567)" style="overflow:visible;"/>
		</g>
	</g>
	<g>
		<defs>
			
				<rect id="SVGID_00000127024274362621303580000012987089194840808620_" x="5.5" y="-3.8" transform="matrix(0.9962 -8.715545e-02 8.715545e-02 0.9962 0.136 0.6978)" width="5.1" height="5.1"/>
		</defs>
		<clipPath id="SVGID_00000029726144138596280160000017980312128198635648_">
			<use xlink:href="#SVGID_00000127024274362621303580000012987089194840808620_"  style="overflow:visible;"/>
		</clipPath>
		
			<g transform="matrix(1 0 0 1 9.536743e-07 0)" style="clip-path:url(#SVGID_00000029726144138596280160000017980312128198635648_);">
			
				<use xlink:href="#SDJ"  width="166.7" height="172.7" x="-83.3" y="-86.3" transform="matrix(0.1018 8.903265e-03 -8.903295e-03 0.1018 15.0237 7.091)" style="overflow:visible;"/>
		</g>
	</g>
	<g>
		<defs>
			
				<rect id="SVGID_00000149350351168041379350000004590864628534576020_" x="0.5" y="-4.4" transform="matrix(0.9848 -0.1736 0.1736 0.9848 0.3628 0.5026)" width="5.1" height="5.1"/>
		</defs>
		<clipPath id="SVGID_00000026129583368555449370000004956715869774656649_">
			<use xlink:href="#SVGID_00000149350351168041379350000004590864628534576020_"  style="overflow:visible;"/>
		</clipPath>
		
			<g transform="matrix(1 0 1.490116e-08 1 0 0)" style="clip-path:url(#SVGID_00000026129583368555449370000004956715869774656649_);">
			
				<use xlink:href="#SDJ"  width="166.7" height="172.7" x="-83.3" y="-86.3" transform="matrix(0.1006 1.773877e-02 -1.773883e-02 0.1006 9.2682 7.0535)" style="overflow:visible;"/>
		</g>
	</g>
	<g>
		<defs>
			
				<rect id="SVGID_00000008829452749257193040000014813579897816395685_" x="-4.3" y="-5.4" transform="matrix(0.9659 -0.2588 0.2588 0.9659 0.6764 -0.5492)" width="5.1" height="5.1"/>
		</defs>
		<clipPath id="SVGID_00000052091458631188051770000015528250656675071616_">
			<use xlink:href="#SVGID_00000008829452749257193040000014813579897816395685_"  style="overflow:visible;"/>
		</clipPath>
		
			<g transform="matrix(1 -1.490116e-08 -2.980232e-08 1 -2.384186e-07 0)" style="clip-path:url(#SVGID_00000052091458631188051770000015528250656675071616_);">
			
				<use xlink:href="#SDJ"  width="166.7" height="172.7" x="-83.3" y="-86.3" transform="matrix(9.867304e-02 2.643927e-02 -2.643936e-02 9.867270e-02 3.6698 6.5398)" style="overflow:visible;"/>
		</g>
	</g>
</symbol>
<symbol  id="SDA" viewBox="-11.2 -12.3 22.3 24.5">
	<rect x="-11.2" y="-11.2" class="st2" width="22.3" height="22.3"/>
	<path class="st3" d="M-8.9,0C-7.8,0,0-10,0-11.2C0-10,7.8,0,8.9,0C7.8,0,0,10,0,11.2C0,10-7.8,0-8.9,0z"/>
</symbol>
<symbol  id="SDJ" viewBox="-83.3 -86.3 166.7 172.7">
	<rect x="-83.3" y="-83.3" class="st4" width="166.7" height="166.7"/>
	<path class="st5" d="M-66.7,0C-58.3,0,0-75,0-83.3C0-75,58.3,0,66.7,0C58.3,0,0,75,0,83.3C0,75-58.3,0-66.7,0z"/>
</symbol>
<symbol  id="VDJ" viewBox="-9.3 -15.8 18.6 31.7">
	<path class="st6" d="M1.6-14.6H8 M4.8-14.6V8.2c0,3.5-2.9,6.4-6.4,6.4S-8,11.7-8,8.2v-1"/>
</symbol>
<path class="st7" d="M23.5,9.3h128.8c7.8,0,14.1,6.4,14.1,14.2v216.6c0,7.8-6.3,14.2-14.1,14.2H23.5c-7.8,0-14.1-6.4-14.1-14.2V23.5
	C9.3,15.7,15.6,9.3,23.5,9.3z"/>
<g>
	<rect id="XDJ" x="38.4" y="55.5" class="st8" width="98.9" height="152.6"/>
</g>
<g>
	<defs>
		<rect id="SVGID_00000136393884529922046190000009727593073738409919_" x="38.4" y="55.5" width="98.9" height="152.6"/>
	</defs>
	<clipPath id="SVGID_00000003825620197090982030000004319247059839060414_">
		<use xlink:href="#SVGID_00000136393884529922046190000009727593073738409919_"  style="overflow:visible;"/>
	</clipPath>
	<g style="clip-path:url(#SVGID_00000003825620197090982030000004319247059839060414_);">
		
			<use xlink:href="#DJ1"  width="123.6" height="149.1" x="-61.8" y="-74.6" transform="matrix(0.7447 0 0 0.7468 83.6821 131.0485)" style="overflow:visible;"/>
	</g>
</g>
<g>
	<defs>
		<rect id="SVGID_00000116234439686385586940000001873637116355122093_" x="38.4" y="55.5" width="98.9" height="152.6"/>
	</defs>
	<clipPath id="SVGID_00000181067627984638118600000005528426360949977224_">
		<use xlink:href="#SVGID_00000116234439686385586940000001873637116355122093_"  style="overflow:visible;"/>
	</clipPath>
	<g style="clip-path:url(#SVGID_00000181067627984638118600000005528426360949977224_);">
		
			<use xlink:href="#DJ1"  width="123.6" height="149.1" x="-61.8" y="-74.6" transform="matrix(-0.7447 0 0 -0.7468 92.0659 132.5735)" style="overflow:visible;"/>
	</g>
</g>
<g>
	<defs>
		<rect id="SVGID_00000062886775719427132490000017691951075496639934_" x="38.4" y="55.5" width="98.9" height="152.6"/>
	</defs>
	<clipPath id="SVGID_00000084517132593538448310000006591534387361061794_">
		<use xlink:href="#SVGID_00000062886775719427132490000017691951075496639934_"  style="overflow:visible;"/>
	</clipPath>
	<g style="clip-path:url(#SVGID_00000084517132593538448310000006591534387361061794_);">
		
			<use xlink:href="#DJ2"  width="85.6" height="119.7" x="-42.8" y="-59.8" transform="matrix(0.7447 0 0 0.7468 77.9111 109.6296)" style="overflow:visible;"/>
	</g>
</g>
<g>
	<defs>
		<rect id="SVGID_00000112632461762318903920000002185191942773370504_" x="38.4" y="55.5" width="98.9" height="152.6"/>
	</defs>
	<clipPath id="SVGID_00000121964744244427696490000004321084703151077299_">
		<use xlink:href="#SVGID_00000112632461762318903920000002185191942773370504_"  style="overflow:visible;"/>
	</clipPath>
	<g style="clip-path:url(#SVGID_00000121964744244427696490000004321084703151077299_);">
		
			<use xlink:href="#DJ2"  width="85.6" height="119.7" x="-42.8" y="-59.8" transform="matrix(-0.7447 0 0 -0.7468 97.8369 153.9925)" style="overflow:visible;"/>
	</g>
</g>
<g>
	<defs>
		<rect id="SVGID_00000050629525316496586970000007474090648258914954_" x="38.4" y="55.5" width="98.9" height="152.6"/>
	</defs>
	<clipPath id="SVGID_00000165206759916614234760000007961243149205776808_">
		<use xlink:href="#SVGID_00000050629525316496586970000007474090648258914954_"  style="overflow:visible;"/>
	</clipPath>
	<g style="clip-path:url(#SVGID_00000165206759916614234760000007961243149205776808_);">
		
			<use xlink:href="#DJ3"  width="123.2" height="175.3" x="-61.6" y="-87.6" transform="matrix(0.7447 0 0 0.7468 84.0676 120.7495)" style="overflow:visible;"/>
	</g>
</g>
<g>
	<defs>
		<rect id="SVGID_00000146460558190848867110000005629601732112384128_" x="38.4" y="55.5" width="98.9" height="152.6"/>
	</defs>
	<clipPath id="SVGID_00000080201795248136612940000014696352675604774845_">
		<use xlink:href="#SVGID_00000146460558190848867110000005629601732112384128_"  style="overflow:visible;"/>
	</clipPath>
	<g style="clip-path:url(#SVGID_00000080201795248136612940000014696352675604774845_);">
		
			<use xlink:href="#DJ3"  width="123.2" height="175.3" x="-61.6" y="-87.6" transform="matrix(-0.7447 0 0 -0.7468 91.6805 142.8725)" style="overflow:visible;"/>
	</g>
</g>
<g>
	<defs>
		<rect id="SVGID_00000110455498723480957500000009042938095993552036_" x="38.4" y="55.5" width="98.9" height="152.6"/>
	</defs>
	<clipPath id="SVGID_00000038382832547800870970000015034719781207558582_">
		<use xlink:href="#SVGID_00000110455498723480957500000009042938095993552036_"  style="overflow:visible;"/>
	</clipPath>
	
		<g transform="matrix(1 0 0 1 0 7.629395e-06)" style="clip-path:url(#SVGID_00000038382832547800870970000015034719781207558582_);">
		
			<use xlink:href="#DJ4"  width="108" height="86.1" x="-54" y="-43.1" transform="matrix(0.7447 0 0 0.7468 82.3289 105.606)" style="overflow:visible;"/>
	</g>
</g>
<g>
	<defs>
		<rect id="SVGID_00000142143579721668671730000013775662575759087287_" x="38.4" y="55.5" width="98.9" height="152.6"/>
	</defs>
	<clipPath id="SVGID_00000087379743049848102500000001431194207075451041_">
		<use xlink:href="#SVGID_00000142143579721668671730000013775662575759087287_"  style="overflow:visible;"/>
	</clipPath>
	<g style="clip-path:url(#SVGID_00000087379743049848102500000001431194207075451041_);">
		
			<use xlink:href="#DJ4"  width="108" height="86.1" x="-54" y="-43.1" transform="matrix(-0.7447 0 0 -0.7468 93.4191 158.016)" style="overflow:visible;"/>
	</g>
</g>
<g>
	<defs>
		<rect id="SVGID_00000064342573383271212730000017081867273836089791_" x="14.6" y="23.2" width="23.8" height="23.9"/>
	</defs>
	<clipPath id="SVGID_00000177442350724767001370000000857227493022022029_">
		<use xlink:href="#SVGID_00000064342573383271212730000017081867273836089791_"  style="overflow:visible;"/>
	</clipPath>
	<g style="clip-path:url(#SVGID_00000177442350724767001370000000857227493022022029_);">
		
			<use xlink:href="#VDJ"  width="18.6" height="31.7" x="-9.3" y="-15.8" transform="matrix(0.7447 0 0 0.7468 26.5111 34.9803)" style="overflow:visible;"/>
	</g>
</g>
<g>
	<defs>
		<rect id="SVGID_00000147900440028746784030000012804640006173365403_" x="16.5" y="50.8" width="19.9" height="20"/>
	</defs>
	<clipPath id="SVGID_00000129200026607832446370000011487767928628593540_">
		<use xlink:href="#SVGID_00000147900440028746784030000012804640006173365403_"  style="overflow:visible;"/>
	</clipPath>
	<g style="clip-path:url(#SVGID_00000129200026607832446370000011487767928628593540_);">
		
			<use xlink:href="#SDJ"  width="166.7" height="172.7" x="-83.3" y="-86.3" transform="matrix(0.7447 0 0 0.7468 91.0136 125.4632)" style="overflow:visible;"/>
	</g>
</g>
<g>
	<defs>
		<rect id="SVGID_00000171711661060515152770000011758670287109720244_" x="108.2" y="54.2" width="33.1" height="33.2"/>
	</defs>
	<clipPath id="SVGID_00000052825919197856846060000015731231755723890086_">
		<use xlink:href="#SVGID_00000171711661060515152770000011758670287109720244_"  style="overflow:visible;"/>
	</clipPath>
	<g style="clip-path:url(#SVGID_00000052825919197856846060000015731231755723890086_);">
		
			<use xlink:href="#SDJ"  width="166.7" height="172.7" x="-83.3" y="-86.3" transform="matrix(0.7447 0 0 0.7468 182.699 128.8514)" style="overflow:visible;"/>
	</g>
</g>
<g>
	<defs>
		<rect id="SVGID_00000169534577158507444760000014278516552372034438_" x="137.3" y="216.6" width="23.8" height="23.9"/>
	</defs>
	<clipPath id="SVGID_00000160899719517692935830000013854383592477421700_">
		<use xlink:href="#SVGID_00000169534577158507444760000014278516552372034438_"  style="overflow:visible;"/>
	</clipPath>
	<g style="clip-path:url(#SVGID_00000160899719517692935830000013854383592477421700_);">
		
			<use xlink:href="#VDJ"  width="18.6" height="31.7" x="-9.3" y="-15.8" transform="matrix(-0.7447 0 0 -0.7468 149.2369 228.6417)" style="overflow:visible;"/>
	</g>
</g>
<g>
	<defs>
		<rect id="SVGID_00000156583349251534157980000001566699365238922428_" x="139.3" y="192.8" width="19.9" height="20"/>
	</defs>
	<clipPath id="SVGID_00000080902135766999057840000012522819038030116015_">
		<use xlink:href="#SVGID_00000156583349251534157980000001566699365238922428_"  style="overflow:visible;"/>
	</clipPath>
	<g style="clip-path:url(#SVGID_00000080902135766999057840000012522819038030116015_);">
		
			<use xlink:href="#SDJ"  width="166.7" height="172.7" x="-83.3" y="-86.3" transform="matrix(-0.7447 0 0 -0.7468 84.7344 138.1589)" style="overflow:visible;"/>
	</g>
</g>
<g>
	<defs>
		<rect id="SVGID_00000134237757787862275420000006605168042392328340_" x="34.4" y="176.2" width="33.1" height="33.2"/>
	</defs>
	<clipPath id="SVGID_00000179613221560725534160000015466442358936125090_">
		<use xlink:href="#SVGID_00000134237757787862275420000006605168042392328340_"  style="overflow:visible;"/>
	</clipPath>
	<g style="clip-path:url(#SVGID_00000179613221560725534160000015466442358936125090_);">
		
			<use xlink:href="#SDJ"  width="166.7" height="172.7" x="-83.3" y="-86.3" transform="matrix(-0.7447 0 0 -0.7468 -6.951 134.7706)" style="overflow:visible;"/>
	</g>
</g>
<g>
	<rect id="XDJ_00000078041603911493420070000008876025508655682488_" x="38.4" y="55.5" class="st9" width="98.9" height="152.6"/>
</g>
<g>
	<defs>
		<rect id="SVGID_00000171679778181862814180000003737878960453803649_" x="16.5" y="50.8" width="19.9" height="20"/>
	</defs>
	<clipPath id="SVGID_00000011013538078506876620000014185189182901661081_">
		<use xlink:href="#SVGID_00000171679778181862814180000003737878960453803649_"  style="overflow:visible;"/>
	</clipPath>
	
		<g transform="matrix(1 0 0 1 1.907349e-06 -3.814697e-06)" style="clip-path:url(#SVGID_00000011013538078506876620000014185189182901661081_);">
		
			<use xlink:href="#SDA"  width="22.3" height="24.5" x="-11.2" y="-12.3" transform="matrix(0.7447 0 0 0.7468 26.5115 60.7783)" style="overflow:visible;"/>
	</g>
</g>
<g>
	<defs>
		<rect id="SVGID_00000152254985413440814870000016064268218516878742_" x="139.3" y="192.8" width="19.9" height="20"/>
	</defs>
	<clipPath id="SVGID_00000095317533689048812160000015923740177380471718_">
		<use xlink:href="#SVGID_00000152254985413440814870000016064268218516878742_"  style="overflow:visible;"/>
	</clipPath>
	<g style="clip-path:url(#SVGID_00000095317533689048812160000015923740177380471718_);">
		
			<use xlink:href="#SDA"  width="22.3" height="24.5" x="-11.2" y="-12.3" transform="matrix(-0.7447 0 0 -0.7468 149.2365 202.8437)" style="overflow:visible;"/>
	</g>
</g>
</svg>
