<?xml version="1.0" encoding="utf-8"?>
<!-- Generator: Adobe Illustrator 27.9.0, SVG Export Plug-In . SVG Version: 6.00 Build 0)  -->
<svg version="1.1" id="Layer_1" xmlns="http://www.w3.org/2000/svg" xmlns:xlink="http://www.w3.org/1999/xlink" x="0px" y="0px"
	 viewBox="0 0 175.7 263.6" style="enable-background:new 0 0 175.7 263.6;" xml:space="preserve">
<style type="text/css">
	.st0{fill-opacity:0;}
	.st1{stroke:#FFFFFF;stroke-width:2.2307;stroke-linecap:round;stroke-linejoin:round;stroke-miterlimit:10;}
	.st2{fill:none;stroke:#FFFFFF;stroke-width:2.56;stroke-linecap:square;stroke-miterlimit:10;}
	.st3{fill:#272727;stroke:#000000;}
</style>
<symbol  id="SD8" viewBox="-11.2 -12.3 22.3 24.5">
	<rect x="-11.2" y="-11.2" class="st0" width="22.3" height="22.3"/>
	<path class="st1" d="M-8.9,0C-7.8,0,0-10,0-11.2C0-10,7.8,0,8.9,0C7.8,0,0,10,0,11.2C0,10-7.8,0-8.9,0z"/>
</symbol>
<symbol  id="VD8" viewBox="-9.4 -16 18.9 32">
	<path class="st2" d="M0-1.6c-3.6,0-6.5-3-6.5-6.6c0-3.6,3-6.5,6.6-6.5c3.6,0,6.5,3,6.5,6.6C6.5-4.5,3.6-1.6,0-1.6L0-1.6
		c-4.5,0-8.1,3.7-8.1,8.2c0,4.5,3.7,8.1,8.2,8.1S8.2,11,8.2,6.5C8.1,2,4.5-1.6,0-1.6L0-1.6z"/>
</symbol>
<path class="st3" d="M23.5,9.3h128.8c7.8,0,14.1,6.4,14.1,14.2v216.6c0,7.8-6.3,14.2-14.1,14.2H23.5c-7.8,0-14.1-6.4-14.1-14.2V23.5
	C9.3,15.7,15.6,9.3,23.5,9.3z"/>
<g>
	<defs>
		<rect id="SVGID_1_" x="14.6" y="23.2" width="23.8" height="23.9"/>
	</defs>
	<clipPath id="SVGID_00000093876566735870975440000013376981624251736490_">
		<use xlink:href="#SVGID_1_"  style="overflow:visible;"/>
	</clipPath>
	<g style="clip-path:url(#SVGID_00000093876566735870975440000013376981624251736490_);">
		
			<use xlink:href="#VD8"  width="18.9" height="32" x="-9.4" y="-16" transform="matrix(0.7447 0 0 0.7468 26.5111 35.0998)" style="overflow:visible;"/>
	</g>
</g>
<g>
	<defs>
		<rect id="SVGID_00000020358804467783703450000012537054316181548446_" x="16.5" y="50.8" width="19.9" height="20"/>
	</defs>
	<clipPath id="SVGID_00000068667679537976931050000007222079642411400349_">
		<use xlink:href="#SVGID_00000020358804467783703450000012537054316181548446_"  style="overflow:visible;"/>
	</clipPath>
	
		<g transform="matrix(1 0 0 1 1.907349e-06 -3.814697e-06)" style="clip-path:url(#SVGID_00000068667679537976931050000007222079642411400349_);">
		
			<use xlink:href="#SD8"  width="22.3" height="24.5" x="-11.2" y="-12.3" transform="matrix(0.7447 0 0 0.7468 26.5115 60.7783)" style="overflow:visible;"/>
	</g>
</g>
<g>
	<defs>
		<rect id="SVGID_00000114042448081100947320000001345174911560894134_" x="16.5" y="50.8" width="19.9" height="20"/>
	</defs>
	<clipPath id="SVGID_00000044152996520058743890000018374218537731873727_">
		<use xlink:href="#SVGID_00000114042448081100947320000001345174911560894134_"  style="overflow:visible;"/>
	</clipPath>
	
		<g transform="matrix(1 0 0 1 1.907349e-06 -3.814697e-06)" style="clip-path:url(#SVGID_00000044152996520058743890000018374218537731873727_);">
		
			<use xlink:href="#SD8"  width="22.3" height="24.5" x="-11.2" y="-12.3" transform="matrix(0.7447 0 0 0.7468 26.5115 60.7783)" style="overflow:visible;"/>
	</g>
</g>
<g>
	<defs>
		<rect id="SVGID_00000047059469441258413340000007016067043564706481_" x="35.6" y="35.7" width="40.2" height="40.3"/>
	</defs>
	<clipPath id="SVGID_00000178172863576604982020000005083287468428072065_">
		<use xlink:href="#SVGID_00000047059469441258413340000007016067043564706481_"  style="overflow:visible;"/>
	</clipPath>
	<g style="clip-path:url(#SVGID_00000178172863576604982020000005083287468428072065_);">
		
			<use xlink:href="#SD8"  width="22.3" height="24.5" x="-11.2" y="-12.3" transform="matrix(0.7447 0 0 0.7468 45.5884 45.7175)" style="overflow:visible;"/>
	</g>
</g>
<g>
	<defs>
		<rect id="SVGID_00000054947211366714243350000012952315992453539983_" x="99.9" y="35.7" width="40.2" height="40.3"/>
	</defs>
	<clipPath id="SVGID_00000058564981573439861510000009894812671276033940_">
		<use xlink:href="#SVGID_00000054947211366714243350000012952315992453539983_"  style="overflow:visible;"/>
	</clipPath>
	<g style="clip-path:url(#SVGID_00000058564981573439861510000009894812671276033940_);">
		
			<use xlink:href="#SD8"  width="22.3" height="24.5" x="-11.2" y="-12.3" transform="matrix(0.7447 0 0 0.7468 109.8809 45.7175)" style="overflow:visible;"/>
	</g>
</g>
<g>
	<defs>
		<rect id="SVGID_00000156588434269364779290000012702032813031723671_" x="67.8" y="73.7" width="40.2" height="40.3"/>
	</defs>
	<clipPath id="SVGID_00000005959077160428358600000016826263042095508106_">
		<use xlink:href="#SVGID_00000156588434269364779290000012702032813031723671_"  style="overflow:visible;"/>
	</clipPath>
	<g style="clip-path:url(#SVGID_00000005959077160428358600000016826263042095508106_);">
		
			<use xlink:href="#SD8"  width="22.3" height="24.5" x="-11.2" y="-12.3" transform="matrix(0.7447 0 0 0.7468 77.7346 83.6806)" style="overflow:visible;"/>
	</g>
</g>
<g>
	<defs>
		<rect id="SVGID_00000171703592834231269950000011449484972101566638_" x="35.6" y="111.6" width="40.2" height="40.3"/>
	</defs>
	<clipPath id="SVGID_00000017512513877513567040000002083765264506540719_">
		<use xlink:href="#SVGID_00000171703592834231269950000011449484972101566638_"  style="overflow:visible;"/>
	</clipPath>
	<g style="clip-path:url(#SVGID_00000017512513877513567040000002083765264506540719_);">
		
			<use xlink:href="#SD8"  width="22.3" height="24.5" x="-11.2" y="-12.3" transform="matrix(0.7447 0 0 0.7468 45.5884 121.6429)" style="overflow:visible;"/>
	</g>
</g>
<g transform="rotate(180)">
	<g>
		<defs>
			<rect id="SVGID_00000132766573719850382530000014945852794851330714_" x="-161.2" y="-240.5" width="23.8" height="23.9"/>
		</defs>
		<clipPath id="SVGID_00000096748810835561640790000012133967174453140922_">
			<use xlink:href="#SVGID_00000132766573719850382530000014945852794851330714_"  style="overflow:visible;"/>
		</clipPath>
		<g style="clip-path:url(#SVGID_00000096748810835561640790000012133967174453140922_);">
			
				<use xlink:href="#VD8"  width="18.9" height="32" x="-9.4" y="-16" transform="matrix(0.7447 0 0 0.7468 -149.2369 -228.5222)" style="overflow:visible;"/>
		</g>
	</g>
	<g>
		<defs>
			<rect id="SVGID_00000035527221568650873870000002404974023252657041_" x="-159.2" y="-212.8" width="19.9" height="20"/>
		</defs>
		<clipPath id="SVGID_00000018948082993493287010000001372840233168533659_">
			<use xlink:href="#SVGID_00000035527221568650873870000002404974023252657041_"  style="overflow:visible;"/>
		</clipPath>
		<g style="clip-path:url(#SVGID_00000018948082993493287010000001372840233168533659_);">
			
				<use xlink:href="#SD8"  width="22.3" height="24.5" x="-11.2" y="-12.3" transform="matrix(0.7447 0 0 0.7468 -149.2365 -202.8437)" style="overflow:visible;"/>
		</g>
	</g>
	<g>
		<defs>
			<rect id="SVGID_00000101789712622592225450000010469573690857642920_" x="-159.2" y="-212.8" width="19.9" height="20"/>
		</defs>
		<clipPath id="SVGID_00000029046962027781269420000009808052788448886930_">
			<use xlink:href="#SVGID_00000101789712622592225450000010469573690857642920_"  style="overflow:visible;"/>
		</clipPath>
		<g style="clip-path:url(#SVGID_00000029046962027781269420000009808052788448886930_);">
			
				<use xlink:href="#SD8"  width="22.3" height="24.5" x="-11.2" y="-12.3" transform="matrix(0.7447 0 0 0.7468 -149.2365 -202.8437)" style="overflow:visible;"/>
		</g>
	</g>
	<g>
		<defs>
			<rect id="SVGID_00000096743338939721049550000010306386809300007341_" x="-140.1" y="-227.9" width="40.2" height="40.3"/>
		</defs>
		<clipPath id="SVGID_00000107565143136352762810000007145922325913983931_">
			<use xlink:href="#SVGID_00000096743338939721049550000010306386809300007341_"  style="overflow:visible;"/>
		</clipPath>
		
			<g transform="matrix(1 0 0 1 0 -1.525879e-05)" style="clip-path:url(#SVGID_00000107565143136352762810000007145922325913983931_);">
			
				<use xlink:href="#SD8"  width="22.3" height="24.5" x="-11.2" y="-12.3" transform="matrix(0.7447 0 0 0.7468 -130.1597 -217.9045)" style="overflow:visible;"/>
		</g>
	</g>
	<g>
		<defs>
			<rect id="SVGID_00000049206512892268542680000000977261118977565855_" x="-75.8" y="-227.9" width="40.2" height="40.3"/>
		</defs>
		<clipPath id="SVGID_00000178179108146058363070000016416280956175134856_">
			<use xlink:href="#SVGID_00000049206512892268542680000000977261118977565855_"  style="overflow:visible;"/>
		</clipPath>
		
			<g transform="matrix(1 0 0 1 0 -1.525879e-05)" style="clip-path:url(#SVGID_00000178179108146058363070000016416280956175134856_);">
			
				<use xlink:href="#SD8"  width="22.3" height="24.5" x="-11.2" y="-12.3" transform="matrix(0.7447 0 0 0.7468 -65.8672 -217.9045)" style="overflow:visible;"/>
		</g>
	</g>
	<g>
		<defs>
			<rect id="SVGID_00000052063765374963132900000004587457144041715081_" x="-108" y="-189.9" width="40.2" height="40.3"/>
		</defs>
		<clipPath id="SVGID_00000153684869868433353210000011029453860090849674_">
			<use xlink:href="#SVGID_00000052063765374963132900000004587457144041715081_"  style="overflow:visible;"/>
		</clipPath>
		<g style="clip-path:url(#SVGID_00000153684869868433353210000011029453860090849674_);">
			
				<use xlink:href="#SD8"  width="22.3" height="24.5" x="-11.2" y="-12.3" transform="matrix(0.7447 0 0 0.7468 -98.0134 -179.9415)" style="overflow:visible;"/>
		</g>
	</g>
	<g>
		<defs>
			<rect id="SVGID_00000038380801823070027360000002838144743815618749_" x="-140.1" y="-152" width="40.2" height="40.3"/>
		</defs>
		<clipPath id="SVGID_00000164507398580434534010000015175183317863753618_">
			<use xlink:href="#SVGID_00000038380801823070027360000002838144743815618749_"  style="overflow:visible;"/>
		</clipPath>
		<g style="clip-path:url(#SVGID_00000164507398580434534010000015175183317863753618_);">
			
				<use xlink:href="#SD8"  width="22.3" height="24.5" x="-11.2" y="-12.3" transform="matrix(0.7447 0 0 0.7468 -130.1597 -141.9791)" style="overflow:visible;"/>
		</g>
	</g>
</g>
</svg>
