<?xml version="1.0" encoding="utf-8"?>
<!-- Generator: Adobe Illustrator 27.9.0, SVG Export Plug-In . SVG Version: 6.00 Build 0)  -->
<svg version="1.1" id="Layer_1" xmlns="http://www.w3.org/2000/svg" xmlns:xlink="http://www.w3.org/1999/xlink" x="0px" y="0px"
	 viewBox="0 0 175.7 263.6" style="enable-background:new 0 0 175.7 263.6;" xml:space="preserve">
<style type="text/css">
	.st0{fill-opacity:0;}
	.st1{stroke:#FFFFFF;stroke-width:2.2307;stroke-linecap:round;stroke-linejoin:round;stroke-miterlimit:10;}
	.st2{fill:none;stroke:#FFFFFF;stroke-width:2.56;stroke-linecap:square;stroke-miterlimit:10;}
	.st3{fill:#272727;stroke:#000000;}
</style>
<symbol  id="SD2" viewBox="-11.2 -12.3 22.3 24.5">
	<rect x="-11.2" y="-11.2" class="st0" width="22.3" height="22.3"/>
	<path class="st1" d="M-8.9,0C-7.8,0,0-10,0-11.2C0-10,7.8,0,8.9,0C7.8,0,0,10,0,11.2C0,10-7.8,0-8.9,0z"/>
</symbol>
<symbol  id="VD2" viewBox="-8.5 -16 17.1 32">
	<path class="st2" d="M-7.1-7.2c-0.6-1.3,0.8-7.5,7.2-7.5s7.2,4.3,7.2,7.5C7.3-0.8-7.1,5.1-7.1,14.7H7.3V9.6"/>
</symbol>
<path class="st3" d="M23.5,9.3h128.8c7.8,0,14.1,6.4,14.1,14.2v216.6c0,7.8-6.3,14.2-14.1,14.2H23.5c-7.8,0-14.1-6.4-14.1-14.2V23.5
	C9.3,15.7,15.6,9.3,23.5,9.3z"/>
<g>
	<defs>
		<rect id="SVGID_1_" x="14.6" y="23.2" width="23.8" height="23.9"/>
	</defs>
	<clipPath id="SVGID_00000137111524083868353900000011478846733025703079_">
		<use xlink:href="#SVGID_1_"  style="overflow:visible;"/>
	</clipPath>
	<g style="clip-path:url(#SVGID_00000137111524083868353900000011478846733025703079_);">
		
			<use xlink:href="#VD2"  width="17.1" height="32" x="-8.5" y="-16" transform="matrix(0.7447 0 0 0.7468 26.4595 35.0998)" style="overflow:visible;"/>
	</g>
</g>
<g>
	<defs>
		<rect id="SVGID_00000171689436211635268560000011167528302940854456_" x="16.5" y="50.8" width="19.9" height="20"/>
	</defs>
	<clipPath id="SVGID_00000049931062404345025580000012477738596745936000_">
		<use xlink:href="#SVGID_00000171689436211635268560000011167528302940854456_"  style="overflow:visible;"/>
	</clipPath>
	
		<g transform="matrix(1 0 0 1 1.907349e-06 -3.814697e-06)" style="clip-path:url(#SVGID_00000049931062404345025580000012477738596745936000_);">
		
			<use xlink:href="#SD2"  width="22.3" height="24.5" x="-11.2" y="-12.3" transform="matrix(0.7447 0 0 0.7468 26.5115 60.7783)" style="overflow:visible;"/>
	</g>
</g>
<g>
	<defs>
		<rect id="SVGID_00000092451788758511194780000013016515348547637423_" x="16.5" y="50.8" width="19.9" height="20"/>
	</defs>
	<clipPath id="SVGID_00000012431193982676651420000005627095319537254292_">
		<use xlink:href="#SVGID_00000092451788758511194780000013016515348547637423_"  style="overflow:visible;"/>
	</clipPath>
	
		<g transform="matrix(1 0 0 1 1.907349e-06 -3.814697e-06)" style="clip-path:url(#SVGID_00000012431193982676651420000005627095319537254292_);">
		
			<use xlink:href="#SD2"  width="22.3" height="24.5" x="-11.2" y="-12.3" transform="matrix(0.7447 0 0 0.7468 26.5115 60.7783)" style="overflow:visible;"/>
	</g>
</g>
<g>
	<defs>
		<rect id="SVGID_00000123432740041375669950000018397213287572651689_" x="67.8" y="35.7" width="40.2" height="40.3"/>
	</defs>
	<clipPath id="SVGID_00000106118178620016746950000017226068044746561953_">
		<use xlink:href="#SVGID_00000123432740041375669950000018397213287572651689_"  style="overflow:visible;"/>
	</clipPath>
	<g style="clip-path:url(#SVGID_00000106118178620016746950000017226068044746561953_);">
		
			<use xlink:href="#SD2"  width="22.3" height="24.5" x="-11.2" y="-12.3" transform="matrix(0.7447 0 0 0.7468 77.7346 45.7175)" style="overflow:visible;"/>
	</g>
</g>
<g transform="rotate(180)">
	<g>
		<defs>
			<rect id="SVGID_00000077290371734137380340000017453034254309371540_" x="-161.2" y="-240.5" width="23.8" height="23.9"/>
		</defs>
		<clipPath id="SVGID_00000028287659697536040720000011261164307124098186_">
			<use xlink:href="#SVGID_00000077290371734137380340000017453034254309371540_"  style="overflow:visible;"/>
		</clipPath>
		<g style="clip-path:url(#SVGID_00000028287659697536040720000011261164307124098186_);">
			
				<use xlink:href="#VD2"  width="17.1" height="32" x="-8.5" y="-16" transform="matrix(0.7447 0 0 0.7468 -149.2885 -228.5222)" style="overflow:visible;"/>
		</g>
	</g>
	<g>
		<defs>
			<rect id="SVGID_00000002384854309982332870000017003475730947785917_" x="-159.2" y="-212.8" width="19.9" height="20"/>
		</defs>
		<clipPath id="SVGID_00000008837040962139324150000015882141738751975593_">
			<use xlink:href="#SVGID_00000002384854309982332870000017003475730947785917_"  style="overflow:visible;"/>
		</clipPath>
		<g style="clip-path:url(#SVGID_00000008837040962139324150000015882141738751975593_);">
			
				<use xlink:href="#SD2"  width="22.3" height="24.5" x="-11.2" y="-12.3" transform="matrix(0.7447 0 0 0.7468 -149.2365 -202.8437)" style="overflow:visible;"/>
		</g>
	</g>
	<g>
		<defs>
			<rect id="SVGID_00000028302806783220930120000008420463984961693573_" x="-159.2" y="-212.8" width="19.9" height="20"/>
		</defs>
		<clipPath id="SVGID_00000074417973917143141200000017845932659312360841_">
			<use xlink:href="#SVGID_00000028302806783220930120000008420463984961693573_"  style="overflow:visible;"/>
		</clipPath>
		<g style="clip-path:url(#SVGID_00000074417973917143141200000017845932659312360841_);">
			
				<use xlink:href="#SD2"  width="22.3" height="24.5" x="-11.2" y="-12.3" transform="matrix(0.7447 0 0 0.7468 -149.2365 -202.8437)" style="overflow:visible;"/>
		</g>
	</g>
	<g>
		<defs>
			<rect id="SVGID_00000082360866527271763910000013254874460030081927_" x="-108" y="-227.9" width="40.2" height="40.3"/>
		</defs>
		<clipPath id="SVGID_00000142142921297452107430000009716290849525696189_">
			<use xlink:href="#SVGID_00000082360866527271763910000013254874460030081927_"  style="overflow:visible;"/>
		</clipPath>
		
			<g transform="matrix(1 0 0 1 0 -1.525879e-05)" style="clip-path:url(#SVGID_00000142142921297452107430000009716290849525696189_);">
			
				<use xlink:href="#SD2"  width="22.3" height="24.5" x="-11.2" y="-12.3" transform="matrix(0.7447 0 0 0.7468 -98.0134 -217.9045)" style="overflow:visible;"/>
		</g>
	</g>
</g>
</svg>
