<?xml version="1.0" encoding="utf-8"?>
<!-- Generator: Adobe Illustrator 27.9.0, SVG Export Plug-In . SVG Version: 6.00 Build 0)  -->
<svg version="1.1" id="Layer_1" xmlns="http://www.w3.org/2000/svg" xmlns:xlink="http://www.w3.org/1999/xlink" x="0px" y="0px"
	 viewBox="0 0 175.7 263.6" style="enable-background:new 0 0 175.7 263.6;" xml:space="preserve">
<style type="text/css">
	.st0{fill:none;stroke:#000000;stroke-width:0.6129;stroke-linecap:round;stroke-linejoin:round;stroke-miterlimit:10;}
	.st1{fill:none;stroke:#000000;stroke-width:0.3065;stroke-linecap:round;stroke-linejoin:round;stroke-miterlimit:10;}
	.st2{fill-opacity:0;}
	.st3{stroke:#FFFFFF;stroke-width:2.2307;stroke-linecap:round;stroke-linejoin:round;stroke-miterlimit:10;}
	.st4{fill:#FF0000;fill-opacity:0;}
	.st5{fill:#FF0000;}
	.st6{fill:none;stroke:#FFFFFF;stroke-width:2.56;stroke-linecap:square;stroke-miterlimit:10;}
	.st7{fill:#272727;stroke:#000000;}
	.st8{fill:#FFFFFF;}
	.st9{fill:none;stroke:#FFFFFF;}
</style>
<symbol  id="DK1" viewBox="-39.1 -64.2 78.2 128.4">
	<path d="M-27.8-40.1c-4.1,0-8.7-3.6-8.7-3.6v-1.5C-32.4-43.6-33.4-40.6-27.8-40.1 M-35.4-64.1l-0.5,1.5c0,0,4.6-0.5,5.6-0.5
		c3.1,0,6.1,4.6,9.7,4.6c-3.6,0-6.6-5.6-9.7-5.7c-1,0-1.4,1-3.4,1C-34.3-63.2-35.4-64.1-35.4-64.1z M-30.4-56.6
		c0,1.2-0.5,2.1-1.1,2.1c-0.6,0-1.1-0.9-1.1-2.1c0-1.2,0.5-2.1,1.1-2.1C-30.9-58.7-30.4-57.8-30.4-56.6z M-39.1-27l13.7,0.4
		c2,0.1,5.3-0.6,7.5-3.9c0.9,1.2,2.2,1.7,3.7,1.7l-0.1,0.5l-1.9,1.7c-7.6,6.7-11.8,8.2-20.9,10.4C-37.9-19.9-38.5-23.5-39.1-27z
		 M-7.3-23.7c0,2.4-1.9,4.3-4.3,4.3c-3,0.1-3.6-4.1-5-2.9c1.3,0.8,2.2,2.2,2.2,3.7c0,2.4-1.9,4.3-4.3,4.3c-2.1,0-3.9-1.6-4.2-3.7
		c-0.2,0.1-0.4,0.2-0.5,0.3c0.9,0.8,1.4,2,1.4,3.2c0,2.4-1.9,4.3-4.3,4.3c-1.8,0-3.4-1.1-4-2.7c0.1,0.3,0.1,0.7,0.1,1
		c0,2.4-1.9,4.3-4.3,4.3c-0.5,0-1-0.1-1.5-0.3l0.2,2c9.8-2.5,16.8-4.9,25.3-12.1H3.9c-16,30.4-11,54-7,78.2c3.1,0,5.3,1,5.4,4.1
		l9.7-3.3C4.4,40.8-2.2,24.3,3,3.5c0,0,0,0-0.1,0c-2.4,0-4.3-1.9-4.3-4.3S0.6-5,2.9-5c0.9,0,1.8,0.3,2.5,0.8
		c0.1-0.1,0.1-0.3,0.2-0.4C3.4-4.9,1.7-6.7,1.7-8.9c0-2.4,1.9-4.3,4.3-4.3c1.1,0,2.1,0.4,2.9,1.1C8.9-12.2,9-12.3,9-12.4
		c-1.9-0.5-3.2-2.2-3.2-4.2c0-2.4,1.9-4.3,4.3-4.3c1.1,0,2.1,0.4,2.9,1.2c0,0,0.1-0.1,0.1-0.1l0.2-0.3c-1.7-0.6-2.9-2.2-2.9-4.1
		c0-0.3,0-0.7,0.1-1h-0.3c0.1,0.3,0.1,0.7,0.1,1c0,2.4-1.9,4.3-4.3,4.3s-4.3-1.9-4.3-4.3c0-0.3,0-0.7,0.1-1H1.2
		c0.1,0.3,0.1,0.7,0.1,1c0,2.4-1.9,4.3-4.3,4.3s-4.3-1.9-4.3-4.3c0-0.3,0-0.7,0.1-1C-8-25.4-7.3-24.5-7.3-23.7z M10.6-25.3l5.7,0.2
		l0.1-0.2H10.6z M13-7.6C22.6-1.4,27,4.7,29.9,15l1.9-1.2c-2.3-3.3,0.5-4.5,3-5.3c-2.5,0.5-4.8,1.5-5.9-0.6C27.8,5.7,30,4.3,32.3,3
		c-2.4,0.9-5.1,2-6.4-0.2c-1.3-2.2,1.3-3.6,3.3-5.1C26.9-1.1,24.4,0.8,23-1c-1.3-1.8,0.2-3.8,1.8-5.8c-1.9,1.7-3.6,3.7-5.6,1.9
		c-2.1-1.7-0.5-3.6,1-5.6c-1.8,1.8-3.3,3.4-5.4,2c-1.9-1.3,1.5-3.3,1-4.8 M39.1,10.2C35.4-1.3,28.9-9.6,17.7-16.6l-0.8,1.4
		c0.5,0.8,1.2,1.9-0.9,4c-0.9,1-0.3,2.5,1.1,0.8c2-3.6,3.6-1.5,4.6-2.1c-0.3,1,2.1,2.1-1,4.8c-1,0.9-0.5,2.4,1,0.9
		c2.2-3.5,3.6-1.4,4.7-2c-0.3,1,2,2.2-1.2,4.8c-1.1,0.9-0.6,2.4,1,0.9c3-2.9,3.9-0.5,5-0.8c-0.5,0.9,1.4,2.6-2.3,4.3
		c-1.2,0.6-1.2,2.2,0.6,1.3c3.2-2.4,3.8,0.1,5,0c-0.7,0.8,1.1,2.8-2.9,4c-1.3,0.4-1.4,2,0.6,1.2c3.6-1.9,3.8,0.6,5,0.7
		c-0.8,0.7,0.6,2.9-3.5,3.5c-1.3,0.2-1.7,1.8,0.4,1.3L39.1,10.2z M27.7,16.5l-0.2-0.6C24.7,6,21,0.6,11.9-5.2l-1.5,3.9
		C18.4,3.8,21,7.9,23.6,17l0.6,2.1"/>
</symbol>
<symbol  id="DK2" viewBox="-66.4 -44 132.8 88">
	<path d="M44.4-44l-6,10C19.3-1.9,28.4,16.9,37.5,44l2.4-1L34,25C40.5,9.1,52.3,0.9,66.4-4.7v-2.7C52.3-2,40,6.1,32.8,21.4l0.1,0.3
		l-0.1-0.4c-1.4-4.9-2.4-9.7-2.8-14.6c-1-11.6,1.3-23.6,10.7-39.3l6-10l-3,5.1c11.1,7,18.5,15.8,22.9,26.9v-23.7
		c-5.3-4-13.3-8.2-19.2-9.3l0,0L44.4-44z M-43.9-37.4c-3.9,1.7-5.2,4.1-5.1,6.7c-1.4,0-2.8,0.5-4.5,2.1c0.3-1,0.3-2.1,0.4-3.2
		c-3.9,1.7-5.2,4.1-5.1,6.7c-0.9,0.1-1.9,0.4-3,1.2c0.4-1.1,0.4-2.2,0.4-3.4c-3.9,1.7-5.2,4.1-5.1,6.8c-0.2,0-0.3,0.1-0.5,0.1v1.4
		c0.7-0.1,1.3-0.1,2.3-0.1c-0.9,0.3-1.6,0.5-2.3,0.6v1.4c1.6,0,3.3-0.6,5.3-2.1c-1.2-0.6-2.3-1.2-3.6-1.3c1.3-0.5,2.2-1.2,2.8-2
		c2.3,1.2,4.9,1.2,8.2-1.3c-1.1-0.6-2.2-1.1-3.4-1.3c2-0.8,3-1.9,3.5-3.2c2.4,1.5,5.1,1.6,8.6-1.1c-1-0.5-2-1-3-1.2
		c1.8-0.7,2.8-1.6,3.4-2.6c2.3,1.3,5,1.3,8.4-1.2c-2.4-1.2-4.9-2.4-8,0.3C-44-35.1-44-36.2-43.9-37.4z M-45.5-34.8
		c-0.9,1.9-1.5,2.5-3.2,4.2c0,0-0.1,0-0.1,0C-47.4-32.8-46.9-33.4-45.5-34.8z M-40.1-34.3c0.2,0,0.5,0,0.8,0c-2,0.6-2.7,0.8-5.3,0.9
		c0,0,0-0.1,0.1-0.1C-42.5-34.1-41.7-34.3-40.1-34.3z M-48.8-29.2c0.2,0,0.5,0,0.8,0c-2,0.6-2.8,0.8-5.6,0.9c0,0,0,0,0,0
		C-51.3-29-50.5-29.2-48.8-29.2z M-54.7-29.2c-0.9,1.9-1.5,2.5-3.2,4.2c-0.1,0-0.1,0-0.2,0C-56.6-27.2-56.1-27.7-54.7-29.2z
		 M-62.3-24.6c-0.9,1.9-1.5,2.5-3.2,4.2c-0.1,0-0.1,0-0.2,0C-64.3-22.6-63.8-23.1-62.3-24.6z M-57.5-23.6c0.2,0,0.5,0,0.8,0
		c-1.9,0.5-2.7,0.8-5,0.9c0-0.1,0.1-0.1,0.1-0.2C-59.8-23.4-59-23.6-57.5-23.6z M-13-18.5l0.5,10.7h26.6l2.7-10.7H-13z M34.8-11.1
		l-0.2,1c-1.4,5.8-1.7,11.2-1.2,16.5c0.1,1.2,0.2,2.4,0.4,3.6l0.2,1.5l0.9-1.2c2.2-2.9,4.6-5.5,7.1-7.8l0.3-0.3l-0.1-0.4
		c-1.8-6.1-3.1-9.2-6.6-12.2L34.8-11.1z M35.5-8.8c2.7,2.6,3.8,5.3,5.4,10.6c-2.2,2-4.2,4.2-6.1,6.6c-0.1-0.7-0.2-1.4-0.2-2.1
		C34.2,1.4,34.4-3.5,35.5-8.8z"/>
</symbol>
<symbol  id="DK3" viewBox="-66.7 -73.5 133.4 147">
	<path class="st0" d="M56.7-46.5v10 M55.2-47.4v11.8 M53.6-37.4v3.1 M53.6-43.5l0,4 M53.6-48.7v3.1 M52.1-35.6v2.9 M52.1-42.7l0,2.4
		 M52.1-50.3v2.9 M50.6-41.9v0.8 M-13.3,6.3C-3.4,3.9,3.5,1.5,12-5.8h14.5c-16,30.4-11,54-7,78.2 M-12.7,9.4
		C-3,6.9,4.6,4.3,13.1-2.7h8.5c-13.5,28.8-9.2,52.4-5.2,75.2 M34.7,73.2C24.4,46.1,16,25.6,35.7-7.5l3.2-5.4H9.4l-1,0.9
		C0.3-5-4.7-3.2-14.1-0.8 M37.5,72c-9.1-27.1-18.2-45.9,0.9-77.9l6-10H8.2l-1.9,1.7C-1.3-7.6-5.5-6.2-14.6-3.9 M-22.9-73.2
		c3.7,6.3,7,12.5,8.6,19.4C8.2-58.9,15.3-40,35.7-46.1c-0.6-11,5.7-20.2,11.4-27.1 M-3.6-73.2c1.7,4.2,5.7,5.1,5.7,9.2
		c0,4.6-6.2,4.5-6.2-0.1c0-3.1,3.6-3,3.5,0c0,1.5-2.2,1.5-2.2,0 M-5.2-73.2c-1.8,4.2-5.8,4.9-5.9,9c-0.1,4.6,6.1,4.7,6.2,0.1
		c0-3.1-3.5-3.1-3.5,0c0,1.5,2.2,1.6,2.2,0 M26.5-72.8c-0.4,7.7,6.5,8.5,5.9,13.6c-0.5,4.6-7.5,3.7-6.9-0.9c0.4-3.1,4.3-2.5,4,0.5
		c-0.2,1.5-2.7,1.2-2.5-0.3 M26.5-72.8c-1.4,7.5-8.3,6.7-8.9,11.7c-0.6,4.6,6.4,5.4,6.9,0.9c0.4-3.1-3.6-3.5-4-0.5
		c-0.2,1.5,2.3,1.8,2.5,0.3 M-16.2-60c22.3-2.9,39.6,7.3,53.5,2.8 M35.3-56.6c0.7-1.2,1.2-2.7,1.5-4.3c0.8-0.1,1.6-0.2,2.4-0.4
		 M30.8-56.1c2-1.4,3.2-3.8,3.3-7.7c3.1-0.2,5.4-0.6,7.1-1.1 M-18.8-65.9c1,0.5,2,0.9,3.1,1.2c0.4,1.2,0.9,2.6,1.8,4.1
		c0.1,0.1,0.2,0.3,0.2,0.4 M-10-60.5c-2.2-1.9-2.5-4.6-3.7-7.1c-2.6,0.2-5.6-1.9-8.5-4.7 M5-59.5c1-1.3,1.8-2.9,2.3-4.7
		c1.1-0.4,2.1-1,2.9-1.7c0.6,0.9,1.4,1.7,2.4,2.4c0.1,2,0.5,3.9,1.3,5.5 M10.9-73.2c-1,3.4-2.4,6.2-6.1,6.4
		c-0.5,3.1-1.7,5.3-3.4,6.8 M17.8-57.3c-1.6-2-2.5-4.6-2.1-8.1c-3.5-1.1-4.2-4.2-4.4-7.8 M-66.4,1.7c16.4-10.8,28-15.9,41.5-20.6
		 M44.4-16c6,0,15.8,4.9,22,9.6 M42-6.9C53.5,0.4,60.6,9.4,64.6,21.3 M40.4-4.3c11.1,7,17.6,15.4,21.4,26.8 M66.4,17.3
		C62,6.2,54.6-2.5,43.5-9.6 M35.6,4.7c9.7,6.2,14,12.3,16.9,22.6 M34.6,7.1c9.1,5.8,12.7,11.2,15.6,21.1l0.2,0.6 M33.1,11
		c8,5.1,10.5,9.3,13.1,18.4l0.6,2.1 M40.4,57.7l0.3-1C46,43.4,54.5,36.7,66.4,31.6 M51.5,52.2c3.7-5.7,8.4-9.3,14.9-12.3 M47.3,54.4
		c4.4-8.6,10.4-13.4,19.1-17.3 M43.7,56.2C48.6,44.8,55.9,39,66.4,34.3 M32.8,49.4C40,34.1,52.3,26,66.4,20.5 M33.9,53.2
		C40.4,37.1,52.2,29,66.4,23.3 M36,59.6c11-4.5,21.4-10,30.4-17.2 M32.7,49.2c-1.4-4.9-2.4-9.7-2.8-14.6c-1-11.6,1.3-23.6,10.7-39.3
		l6-10l0.7-1 M39.8,70.9c-2-6.1-4.3-12.4-6-17.8 M-13,9.6h29.8 M-12.5,20.3h26.6 M-12.6,22.8h26.2 M47.3,49.4l2.1,1.4 M50.3,45.5
		l1.9,1.6 M53,42.7l1.7,1.8 M56.6,39.8l1.4,2 M59.9,37.7l1.3,2.2 M64.2,35.4l1.1,2.3 M45.5,52.5l2.2,1.2 M58.2-11.5v-45.3l8.2-8.2
		 M62.3-9.2v-46l4.1-4.1 M58.2-37.2c-4.2,1.4-7.5,5.4-10.2,11c-0.1-4.1-0.8-8.4,2-11.7c-1.6-0.9-3.1-1-5.1-3.6
		c2-2.6,3.5-2.7,5.1-3.6c-2.9-3.4-2.2-7.6-2-11.7c2.7,5.5,6,9.6,10.2,11 M50.9-31.2c0-0.3,0-0.6,0-0.9c0.1-1.6,0.5-2.7,1.4-3.8
		l2.5-2.9l-3.4-1.8c-0.9-0.5-1.4-0.7-1.9-0.9c0.5-0.2,1-0.4,1.9-0.9l3.4-1.8l-2.5-2.9c-0.9-1.1-1.3-2.2-1.4-3.8c0-0.3,0-0.6,0-0.9
		 M48-56.8c-8.2,11.9-5.3,21.5,0,30.6 M6-10c1.4,0.8,2.2,2.2,2.2,3.7l0,0C8.2-3.9,6.2-2,3.9-2c-2.1,0-4-1.6-4.2-3.7 M3.7-8.3
		c0.1,0,0.1,0,0.2,0c1.1,0,2,0.9,2,2s-0.9,2-2,2s-2-0.9-2-2c0-0.3,0.1-0.6,0.2-0.9 M15-12.9c0.2,0.5,0.3,1,0.3,1.5
		c0,2.4-1.9,4.3-4.3,4.3l0,0c-2.1,0-3.9-1.5-4.2-3.6 M12.3-12.9c0.5,0.4,0.7,0.9,0.7,1.5c0,1.1-0.9,2-2,2s-2-0.9-2-2
		c0-0.6,0.3-1.2,0.7-1.5 M23.9-12.9c0.1,0.3,0.1,0.7,0.1,1c0,2.4-1.9,4.3-4.3,4.3s-4.3-1.9-4.3-4.3c0-0.3,0-0.7,0.1-1 M21.4-12.9
		c0.2,0.3,0.3,0.7,0.3,1c0,1.1-0.9,2-2,2s-2-0.9-2-2c0-0.4,0.1-0.7,0.3-1 M32.8-12.9c0.1,0.3,0.1,0.7,0.1,1c0,2.4-1.9,4.3-4.3,4.3
		s-4.3-1.9-4.3-4.3c0-0.3,0-0.7,0.1-1 M30.4-12.9c0.2,0.3,0.3,0.7,0.3,1c0,1.1-0.9,2-2,2c-1.1,0-2-0.9-2-2c0-0.4,0.1-0.7,0.3-1
		 M35.9-7.8c-1.7-0.6-2.9-2.2-2.9-4.1c0-0.3,0-0.7,0.1-1 M37.2-9.9c-1-0.1-1.8-0.9-1.8-2c0-0.4,0.1-0.7,0.3-1 M31.7-0.1
		c-1.9-0.5-3.2-2.2-3.2-4.2c0-2.4,1.9-4.3,4.3-4.3l0,0c1.1,0,2.1,0.4,2.9,1.2 M32.8-2.2C32.8-2.2,32.8-2.2,32.8-2.2
		c-1.2,0-2.1-0.9-2.1-2l0,0c0-1.1,0.9-2,2-2l0,0c0.7,0,1.4,0.4,1.7,1 M28.3,7.7c-2.2-0.2-3.9-2.1-3.9-4.3c0-2.4,1.9-4.3,4.3-4.3l0,0
		c1.1,0,2.1,0.4,2.9,1.1 M29.2,5.3c-0.2,0.1-0.4,0.1-0.6,0.1c-1.1,0-2-0.9-2-2l0,0c0-1.1,0.9-2,2-2l0,0c0.8,0,1.5,0.4,1.8,1.1
		 M25.7,15.9C25.6,15.9,25.6,15.9,25.7,15.9c-2.4,0-4.4-1.9-4.4-4.3l0,0c0-2.4,1.9-4.3,4.3-4.3l0,0c0.9,0,1.8,0.3,2.5,0.8
		 M26.3,13.4c-0.2,0.1-0.5,0.1-0.7,0.1c-1.1,0-2-0.9-2-2s0.9-2,2-2c0.7,0,1.3,0.3,1.7,0.9 M-0.9-5.4c0.9,0.8,1.4,2,1.4,3.2
		c0,2.4-1.9,4.3-4.3,4.3s-4.3-1.9-4.3-4.3c0-0.1,0-0.2,0-0.3 M-3.5-4.2c1,0.1,1.7,1,1.7,2c0,1.1-0.9,2-2,2l0,0c-1.1,0-2-0.9-2-2l0,0
		c0-0.4,0.1-0.9,0.4-1.2 M-8.6-2.3C-8-1.6-7.7-0.6-7.7,0.4c0,2.4-1.9,4.3-4.3,4.3l0,0c-0.5,0-1-0.1-1.5-0.3 M-11.4-1.5
		c0.8,0.3,1.4,1,1.4,1.9c0,1.1-0.9,2-2,2l0,0c-1.1,0-2-0.9-2-2l0,0c0-0.5,0.2-1,0.5-1.4 M14.8-48c-5.5,13.4,0.5,18,0.5,25.9
		c0,5.6-11.7,9.2-11.7,0c0-5.6,7.7-5.6,7.7-1c0,3.6-6.4,4.6-6.1,1c0.3-3.9,4.9-2,3.6-0.5 M13.5-48.6C7.6-34.7,13.3-31,13.3-23
		c0,5.6-8.7,5.9-8.2,0.8 M12.2-49.2c-6.3,14.3-1,17.9-1,26 M16.1-47.5c-5.1,13,0.7,17.5,0.7,25.4c0,3.1-3.7,5.7-6.9,5.6 M17.5-46.9
		c-4.7,12.6,0.9,17.1,0.9,24.8c0,3.1-3.7,5.7-6.9,5.6 M18.8-46.5c-4.4,12.2,1.1,16.7,1.1,24.4c0,3.1-3.7,5.7-6.9,5.6 M20.2-46
		c-4.1,11.9,1.3,16.4,1.3,23.9c0,3.1-3.7,5.7-6.9,5.6 M21.6-45.6C17.7-34,23-29.6,23-22.1c0,3.1-3.7,5.7-6.9,5.6 M23-45.3
		c-3.7,11.4,1.5,15.8,1.5,23.2c0,3.1-3.7,5.7-6.9,5.6 M24.5-45.1c-3.5,11.2,1.6,15.6,1.6,23c0,3.1-3.7,5.7-6.9,5.6 M26-44.9
		c-3.4,11.1,1.6,15.5,1.6,22.8c0,3.1-3.7,5.7-6.9,5.6 M27.5-44.9c-3.4,11,1.6,15.5,1.6,22.8c0,3.1-3.7,5.7-6.9,5.6 M29-44.9
		c-3.4,11.1,1.6,15.5,1.6,22.8c0,3.1-3.7,5.7-6.9,5.6 M30.6-45c-3.5,11.2,1.6,15.6,1.6,22.9c0,3.1-3.7,5.7-6.9,5.6 M32.2-45.3
		c-3.6,11.3,1.5,15.8,1.5,23.1c0,3.1-3.7,5.7-6.9,5.6 M33.8-45.6c-3.8,11.6,1.4,16,1.4,23.5c0,3.1-3.7,5.7-6.9,5.6 M35.5-46
		c-4.1,11.9,1.2,16.4,1.2,23.9c0,3.1-3.7,5.7-6.9,5.6 M-13.3-18.8C-18.8-12-25-13.9-25-18s6.6-4.6,6.6-0.5c0,3.1-4.6,2.6-4.6,0.5
		c0-1,0-1,0.5-1.5 M-15.3-18.6c-2.6,2.7-5,3.2-6.9,1.8 M-11.2-18.8c-2,4.1-5.9,4.7-8.1,4.6 M-9.2-18.7c-2,4.1-5.7,4.4-7.9,4.4
		 M-7.2-18.5c-2,4.1-5.7,4.3-7.9,4.2 M-5.1-18.7c-2,4.1-5.7,4.5-7.9,4.4 M-3.1-18.9c-2,4.1-5.7,4.6-7.9,4.6 M-1-19
		c-2,4.1-5.7,4.8-7.9,4.7 M1-18.9c-2,4.1-5.7,4.7-7.9,4.6 M3.1-19c-2,4.1-5.7,4.8-7.9,4.8 M4.6-18.2c-2.1,3.4-5.4,4-7.4,3.9
		 M-13.5-53.9c-0.3,1.2-0.8,3.3-0.8,3.7c0,0.5,1.5,2,1.5,2.6s-2.6,3.1-3.6,4.6s-2.6,6.1-2.6,7.2s-0.5,2,1,2c1.5,0,2,1.5,2,1.5
		l-1,1.5l1,2.6c0,0-0.2,1.4-0.5,2c-0.5,1,2,1.5,2,2s-2.1,1.5-2,2c0.4,4.6-2.5,5.7-2.6,5.1 M-11.8-37.4c1.5,0,1,4.1-1,3.1
		c-3.1-1.5-4.6,0.5-1.5-0.5 M-3.6-31.3c0.2-0.6,0.8-1,1.5-1c2.6,0,1,4.6-3.1,4.6s-8.7-3.6-8.7-3.6v-1.5c4.1,1.5,3.1,4.6,8.7,5.1
		 M-15.8-28.2c2,0,4.1,0.5,6.1,2c-2.3-1.7-4.1-3.6-7.2-4.6 M-12.8-51.7l-0.5,1.5c0,0,4.6-0.5,5.6-0.5c3.1,0,6.1,4.6,9.7,4.6
		c-3.6,0-6.6-5.6-9.7-5.7c-1,0-1.4,1-3.4,1C-11.6-50.9-12.8-51.7-12.8-51.7L-12.8-51.7 M-2.1-43.6c-3.1,0-4.6-2.5-6.6-2.6
		c-1,0-3.1,0.5-3.1,0.5 M-5.5-44.6c1.5,2-3.9,3-5.2,1.6 M-41.9-12.2c-0.6-1.5-1.7-4-3.1-6.3c-2-3.6-4.6-1.5-3.6,0.5c1,2,2,3.6,2,3.6
		 M-48.5-18c-0.2-0.1-2.2-2.8-5.1-4.1c-3.6-1.5-3.4,0.7-1,2.6c1.1,0.9,5.1,6.6,5.1,6.6 M-55.7-20.6c-2-2.1-4.6-1.6-2.6,1.5
		c2,3.1,5.6,7.7,5.6,7.7 M-58.2-19c-1.5-2-3.1,0-1.5,2c1.9,2.6,4.1,8.2,4.1,8.2 M-59.1-15.9c-2.8-3.1-2.9,0.1-1.8,2.2
		c0.5,1,2.1,6.5,2.6,7.5l1.1,2.2 M39.6-2.9c0.5,0.8,1.2,1.9-0.9,4c-0.9,1-0.3,2.5,1.1,0.8c2-3.6,3.6-1.5,4.6-2.1
		c-0.3,1,2.1,2.1-1,4.8c-1,0.9-0.5,2.4,1,0.9c2.2-3.5,3.6-1.4,4.7-2c-0.3,1,2,2.2-1.2,4.8c-1.1,0.9-0.6,2.4,1,0.9
		c3-2.9,3.9-0.5,5-0.8c-0.5,0.9,1.4,2.6-2.3,4.3c-1.2,0.6-1.2,2.2,0.6,1.3c3.2-2.4,3.8,0.1,5,0c-0.7,0.8,1.1,2.8-2.9,4
		c-1.3,0.4-1.4,2,0.6,1.2c3.6-1.9,3.8,0.6,5,0.7c-0.8,0.7,0.6,2.9-3.5,3.5c-1.3,0.2-1.7,1.8,0.4,1.3 M38.4-0.9
		c0.5,1.5-2.9,3.6-1,4.8c2.1,1.4,3.6-0.3,5.4-2c-1.5,2-3.1,4-1,5.6c2,1.7,3.7-0.2,5.6-1.9c-1.6,2-3.1,4-1.8,5.8
		c1.3,1.8,3.9-0.1,6.2-1.3c-2,1.5-4.6,2.9-3.3,5.1c1.3,2.2,4,1.1,6.4,0.2c-2.2,1.3-4.4,2.6-3.3,4.9c1.1,2.2,3.4,1.1,5.9,0.6
		c-2.4,0.8-5.3,1.9-3,5.3"/>
</symbol>
<symbol  id="DK4" viewBox="-65 -54 130.1 107.9">
	<path class="st1" d="M-14.3-51.5c0.3-1,1.8-2.4,2.9-2.3c1.9,0.3,3.8,3.8,4.8,3.8 M-5.6-49c-1,0-2,1-2,1 M-10.4-50.8
		c0,0.2,0.1,0.4,0.1,0.6c0,1.4-0.8,2.6-1.8,2.6s-1.8-1.1-1.8-2.6c0-0.5,0.1-0.9,0.2-1.2 M-57.6-27.9c-0.4,1.4-0.7,1.6-1.7,1.8
		 M-60.1-26.7c-0.4,1.4-1.2,1.4-2.1,1.6 M-61.8-24.5c-0.4,1.4-0.8,1.4-1.9,1.4 M-62.9-21.6c-0.5,1.1-1.1,1.1-2,1 M-51.4-25.8
		c0.6,1.6,2.9,1.8,2.9,1.8 M-63.3-18.3c0.5,0.1,0.8-0.1,1-0.5 M-58.9-22.3c0.5,0.1,0.8-0.3,1-0.7 M-63.3-18.3c0.5,0.1,0.8-0.1,1-0.5
		 M-56.1-24.2c0.5,0.1,0.7-0.3,0.9-0.7 M-61.4-20.7c0.5,0.1,0.8-0.3,1-0.7"/>
	
		<use xlink:href="#SDK"  width="100" height="100" x="-50" y="-50" transform="matrix(0.1022 0 0 0.1022 -3.5879 23.5391)" style="overflow:visible;"/>
	
		<use xlink:href="#SDK"  width="100" height="100" x="-50" y="-50" transform="matrix(0.1022 0 0 0.1022 -11.7602 23.5391)" style="overflow:visible;"/>
	
		<use xlink:href="#SDK"  width="100" height="100" x="-50" y="-50" transform="matrix(9.867304e-02 -2.643927e-02 2.643936e-02 9.867270e-02 -32.2542 -15.042)" style="overflow:visible;"/>
	
		<use xlink:href="#SDK"  width="100" height="100" x="-50" y="-50" transform="matrix(0.1006 -1.773877e-02 1.773883e-02 0.1006 -27.3261 -1.7099)" style="overflow:visible;"/>
	
		<use xlink:href="#SDK"  width="100" height="100" x="-50" y="-50" transform="matrix(0.1018 -8.903265e-03 8.903295e-03 0.1018 -24.2656 11.3271)" style="overflow:visible;"/>
	<g>
		<defs>
			<rect id="SVGID_1_" x="-28.6" y="16.1" width="11.2" height="11.2"/>
		</defs>
		<clipPath id="SVGID_00000122695685067307837710000011535449323823817875_">
			<use xlink:href="#SVGID_1_"  style="overflow:visible;"/>
		</clipPath>
		<g style="clip-path:url(#SVGID_00000122695685067307837710000011535449323823817875_);">
			
				<use xlink:href="#SDK"  width="100" height="100" x="-50" y="-50" transform="matrix(0.1022 0 0 0.1022 -22.4864 22.2111)" style="overflow:visible;"/>
		</g>
	</g>
	<g>
		<defs>
			
				<rect id="SVGID_00000178908492248776241380000011200957557227304341_" x="-29.1" y="25.6" transform="matrix(0.9848 -0.1736 0.1736 0.9848 -5.6941 -3.7045)" width="10.2" height="10.2"/>
		</defs>
		<clipPath id="SVGID_00000048494178005483950920000018276248261755528872_">
			<use xlink:href="#SVGID_00000178908492248776241380000011200957557227304341_"  style="overflow:visible;"/>
		</clipPath>
		
			<g transform="matrix(1 0 1.490116e-08 1 0 -1.907349e-06)" style="clip-path:url(#SVGID_00000048494178005483950920000018276248261755528872_);">
			
				<use xlink:href="#SDK"  width="100" height="100" x="-50" y="-50" transform="matrix(0.1006 1.773877e-02 -1.773883e-02 0.1006 -23.1901 31.8732)" style="overflow:visible;"/>
		</g>
	</g>
	<g>
		<defs>
			
				<rect id="SVGID_00000036218692136631163640000007986580147706236073_" x="54" y="18.9" transform="matrix(0.5 -0.866 0.866 0.5 8.9264 62.5391)" width="9.2" height="9.2"/>
		</defs>
		<clipPath id="SVGID_00000081614574574449141540000011346586097834435202_">
			<use xlink:href="#SVGID_00000036218692136631163640000007986580147706236073_"  style="overflow:visible;"/>
		</clipPath>
		
			<g transform="matrix(1 2.980232e-08 -2.980232e-08 1 0 0)" style="clip-path:url(#SVGID_00000081614574574449141540000011346586097834435202_);">
			
				<use xlink:href="#SDK"  width="100" height="100" x="-50" y="-50" transform="matrix(5.107692e-02 8.846752e-02 -8.846782e-02 5.107675e-02 58.0629 25.6322)" style="overflow:visible;"/>
		</g>
	</g>
	<g>
		<defs>
			
				<rect id="SVGID_00000036226669657272922340000012346599699916811172_" x="45.2" y="24.3" transform="matrix(0.6428 -0.766 0.766 0.6428 -4.2983 48.4844)" width="9.2" height="9.2"/>
		</defs>
		<clipPath id="SVGID_00000042704664571627161710000013106774260557114276_">
			<use xlink:href="#SVGID_00000036226669657272922340000012346599699916811172_"  style="overflow:visible;"/>
		</clipPath>
		
			<g transform="matrix(1 0 0 1 0 1.907349e-06)" style="clip-path:url(#SVGID_00000042704664571627161710000013106774260557114276_);">
			
				<use xlink:href="#SDK"  width="100" height="100" x="-50" y="-50" transform="matrix(6.566323e-02 7.825413e-02 -7.825439e-02 6.566301e-02 49.6497 31.0098)" style="overflow:visible;"/>
		</g>
	</g>
	<g>
		<defs>
			
				<rect id="SVGID_00000046304523012727486140000009393012221515282346_" x="37.2" y="31.2" transform="matrix(0.766 -0.6428 0.6428 0.766 -13.2382 35.2231)" width="9.2" height="9.2"/>
		</defs>
		<clipPath id="SVGID_00000079474798957391588950000002498579976903634319_">
			<use xlink:href="#SVGID_00000046304523012727486140000009393012221515282346_"  style="overflow:visible;"/>
		</clipPath>
		<g style="clip-path:url(#SVGID_00000079474798957391588950000002498579976903634319_);">
			
				<use xlink:href="#SDK"  width="100" height="100" x="-50" y="-50" transform="matrix(7.825439e-02 6.566301e-02 -6.566323e-02 7.825413e-02 41.9573 37.9562)" style="overflow:visible;"/>
		</g>
	</g>
	<g>
		<defs>
			
				<rect id="SVGID_00000149382121382907963680000001739077293493916838_" x="31.5" y="40.3" transform="matrix(0.866 -0.5 0.5 0.866 -17.6151 24.0378)" width="9.2" height="9.2"/>
		</defs>
		<clipPath id="SVGID_00000069372651714140193310000000387945456203948954_">
			<use xlink:href="#SVGID_00000149382121382907963680000001739077293493916838_"  style="overflow:visible;"/>
		</clipPath>
		
			<g transform="matrix(1 -2.980232e-08 2.980232e-08 1 0 0)" style="clip-path:url(#SVGID_00000069372651714140193310000000387945456203948954_);">
			
				<use xlink:href="#SDK"  width="100" height="100" x="-50" y="-50" transform="matrix(8.846782e-02 5.107675e-02 -5.107692e-02 8.846752e-02 36.6086 46.9823)" style="overflow:visible;"/>
		</g>
	</g>
</symbol>
<symbol  id="SDA" viewBox="-11.2 -12.3 22.3 24.5">
	<rect x="-11.2" y="-11.2" class="st2" width="22.3" height="22.3"/>
	<path class="st3" d="M-8.9,0C-7.8,0,0-10,0-11.2C0-10,7.8,0,8.9,0C7.8,0,0,10,0,11.2C0,10-7.8,0-8.9,0z"/>
</symbol>
<symbol  id="SDK" viewBox="-50 -50 100 100">
	<rect x="-50" y="-50" class="st4" width="100" height="100"/>
	<path class="st5" d="M-40,0c5,0,40-45,40-50C0-45,35,0,40,0C35,0,0,45,0,50C0,45-35,0-40,0z"/>
</symbol>
<symbol  id="VDK" viewBox="-10.4 -16 20.8 32">
	<path class="st6" d="M-9.1-14.7h6.4 M-5.9-14.7v29.4 M-9.1,14.7h6.4 M2.7-14.7h6.4 M5.9-14.1L-5.4,5 M2.7,14.7h6.4 M5.9,14.1
		L-0.3-2.2"/>
</symbol>
<path class="st7" d="M23.5,9.3h128.8c7.8,0,14.1,6.4,14.1,14.2v216.6c0,7.8-6.3,14.2-14.1,14.2H23.5c-7.8,0-14.1-6.4-14.1-14.2V23.5
	C9.3,15.7,15.6,9.3,23.5,9.3z"/>
<g>
	<rect id="XDK" x="38.4" y="55.5" class="st8" width="98.9" height="152.6"/>
</g>
<g>
	<defs>
		<rect id="SVGID_00000162352170543977017340000008685550769000703654_" x="38.4" y="55.5" width="98.9" height="152.6"/>
	</defs>
	<clipPath id="SVGID_00000075121289811537364300000008346380163084807608_">
		<use xlink:href="#SVGID_00000162352170543977017340000008685550769000703654_"  style="overflow:visible;"/>
	</clipPath>
	<g style="clip-path:url(#SVGID_00000075121289811537364300000008346380163084807608_);">
		
			<use xlink:href="#DK1"  width="78.2" height="128.4" x="-39.1" y="-64.2" transform="matrix(0.7447 0 0 0.7468 104.7459 119.3686)" style="overflow:visible;"/>
	</g>
</g>
<g>
	<defs>
		<rect id="SVGID_00000125598730335097067950000018319113718713643670_" x="38.4" y="55.5" width="98.9" height="152.6"/>
	</defs>
	<clipPath id="SVGID_00000010285100679352643160000016952603668326367390_">
		<use xlink:href="#SVGID_00000125598730335097067950000018319113718713643670_"  style="overflow:visible;"/>
	</clipPath>
	<g style="clip-path:url(#SVGID_00000010285100679352643160000016952603668326367390_);">
		
			<use xlink:href="#DK1"  width="78.2" height="128.4" x="-39.1" y="-64.2" transform="matrix(-0.7447 0 0 -0.7468 71.0021 144.2534)" style="overflow:visible;"/>
	</g>
</g>
<g>
	<defs>
		<rect id="SVGID_00000109737121256261666660000014210524334996159153_" x="38.4" y="55.5" width="98.9" height="152.6"/>
	</defs>
	<clipPath id="SVGID_00000156575735837187347890000007461202061540942724_">
		<use xlink:href="#SVGID_00000109737121256261666660000014210524334996159153_"  style="overflow:visible;"/>
	</clipPath>
	<g style="clip-path:url(#SVGID_00000156575735837187347890000007461202061540942724_);">
		
			<use xlink:href="#DK2"  width="132.8" height="88" x="-66.4" y="-44" transform="matrix(0.7447 0 0 0.7468 87.874 131.0989)" style="overflow:visible;"/>
	</g>
</g>
<g>
	<defs>
		<rect id="SVGID_00000113343798818701782790000016038541036763802261_" x="38.4" y="55.5" width="98.9" height="152.6"/>
	</defs>
	<clipPath id="SVGID_00000153698155080987147370000008787936207870599835_">
		<use xlink:href="#SVGID_00000113343798818701782790000016038541036763802261_"  style="overflow:visible;"/>
	</clipPath>
	<g style="clip-path:url(#SVGID_00000153698155080987147370000008787936207870599835_);">
		
			<use xlink:href="#DK2"  width="132.8" height="88" x="-66.4" y="-44" transform="matrix(-0.7447 0 0 -0.7468 87.874 132.5231)" style="overflow:visible;"/>
	</g>
</g>
<g>
	<defs>
		<rect id="SVGID_00000102538037028727739440000014635964789158206391_" x="38.4" y="55.5" width="98.9" height="152.6"/>
	</defs>
	<clipPath id="SVGID_00000128486296518547798180000015525985939007967933_">
		<use xlink:href="#SVGID_00000102538037028727739440000014635964789158206391_"  style="overflow:visible;"/>
	</clipPath>
	<g style="clip-path:url(#SVGID_00000128486296518547798180000015525985939007967933_);">
		
			<use xlink:href="#DK3"  width="133.4" height="147" x="-66.7" y="-73.5" transform="matrix(0.7447 0 0 0.7468 87.8832 110.1808)" style="overflow:visible;"/>
	</g>
</g>
<g>
	<defs>
		<rect id="SVGID_00000114056897674527547460000011239626038641898676_" x="38.4" y="55.5" width="98.9" height="152.6"/>
	</defs>
	<clipPath id="SVGID_00000052789734844498243700000017097785679986973076_">
		<use xlink:href="#SVGID_00000114056897674527547460000011239626038641898676_"  style="overflow:visible;"/>
	</clipPath>
	<g style="clip-path:url(#SVGID_00000052789734844498243700000017097785679986973076_);">
		
			<use xlink:href="#DK3"  width="133.4" height="147" x="-66.7" y="-73.5" transform="matrix(-0.7447 0 0 -0.7468 87.8648 153.4413)" style="overflow:visible;"/>
	</g>
</g>
<g>
	<defs>
		<rect id="SVGID_00000145775808026750752470000003956299639767755652_" x="38.4" y="55.5" width="98.9" height="152.6"/>
	</defs>
	<clipPath id="SVGID_00000075165076302275091790000000337570643548031388_">
		<use xlink:href="#SVGID_00000145775808026750752470000003956299639767755652_"  style="overflow:visible;"/>
	</clipPath>
	<g style="clip-path:url(#SVGID_00000075165076302275091790000000337570643548031388_);">
		
			<use xlink:href="#DK4"  width="130.1" height="107.9" x="-65" y="-54" transform="matrix(0.7447 0 0 0.7468 90.5459 114.2323)" style="overflow:visible;"/>
	</g>
</g>
<g>
	<defs>
		<rect id="SVGID_00000145058889082250192750000018028883953373211813_" x="38.4" y="55.5" width="98.9" height="152.6"/>
	</defs>
	<clipPath id="SVGID_00000132058411729321949340000013461391025197611153_">
		<use xlink:href="#SVGID_00000145058889082250192750000018028883953373211813_"  style="overflow:visible;"/>
	</clipPath>
	<g style="clip-path:url(#SVGID_00000132058411729321949340000013461391025197611153_);">
		
			<use xlink:href="#DK4"  width="130.1" height="107.9" x="-65" y="-54" transform="matrix(-0.7447 0 0 -0.7468 85.2021 149.3897)" style="overflow:visible;"/>
	</g>
</g>
<g>
	<defs>
		<rect id="SVGID_00000140000387339506348140000002858182741782873013_" x="14.6" y="23.2" width="23.8" height="23.9"/>
	</defs>
	<clipPath id="SVGID_00000022559227913342338130000011845465899432893829_">
		<use xlink:href="#SVGID_00000140000387339506348140000002858182741782873013_"  style="overflow:visible;"/>
	</clipPath>
	<g style="clip-path:url(#SVGID_00000022559227913342338130000011845465899432893829_);">
		
			<use xlink:href="#VDK"  width="20.8" height="32" x="-10.4" y="-16" transform="matrix(0.7447 0 0 0.7468 26.5111 35.0998)" style="overflow:visible;"/>
	</g>
</g>
<g>
	<defs>
		<rect id="SVGID_00000067216548872697387020000017763540081871094455_" x="16.5" y="50.8" width="19.9" height="20"/>
	</defs>
	<clipPath id="SVGID_00000098182868312476122310000008228472993685014155_">
		<use xlink:href="#SVGID_00000067216548872697387020000017763540081871094455_"  style="overflow:visible;"/>
	</clipPath>
	
		<g transform="matrix(1 0 0 1 3.814697e-06 0)" style="clip-path:url(#SVGID_00000098182868312476122310000008228472993685014155_);">
		
			<use xlink:href="#SDK"  width="100" height="100" x="-50" y="-50" transform="matrix(0.7447 0 0 0.7468 61.2258 95.591)" style="overflow:visible;"/>
	</g>
</g>
<g>
	<defs>
		<rect id="SVGID_00000014612933823154353490000010911569813003256963_" x="16.5" y="50.8" width="19.9" height="20"/>
	</defs>
	<clipPath id="SVGID_00000086693169128337645910000004336790227114764215_">
		<use xlink:href="#SVGID_00000014612933823154353490000010911569813003256963_"  style="overflow:visible;"/>
	</clipPath>
	
		<g transform="matrix(1 0 0 1 3.814697e-06 0)" style="clip-path:url(#SVGID_00000086693169128337645910000004336790227114764215_);">
		
			<use xlink:href="#SDK"  width="100" height="100" x="-50" y="-50" transform="matrix(0.7447 0 0 0.7468 61.2258 95.591)" style="overflow:visible;"/>
	</g>
</g>
<g>
	<defs>
		<rect id="SVGID_00000183241973191633109470000004283315886978345874_" x="34.4" y="54.2" width="33.1" height="33.2"/>
	</defs>
	<clipPath id="SVGID_00000076593057834378750390000008639428883937149360_">
		<use xlink:href="#SVGID_00000183241973191633109470000004283315886978345874_"  style="overflow:visible;"/>
	</clipPath>
	<g style="clip-path:url(#SVGID_00000076593057834378750390000008639428883937149360_);">
		
			<use xlink:href="#SDK"  width="100" height="100" x="-50" y="-50" transform="matrix(0.7447 0 0 0.7468 79.0762 98.9792)" style="overflow:visible;"/>
	</g>
</g>
<g transform="rotate(180)">
	<g>
		<defs>
			<rect id="SVGID_00000079474709410880966150000013270414894421726131_" x="-161.2" y="-240.5" width="23.8" height="23.9"/>
		</defs>
		<clipPath id="SVGID_00000017502827683213394770000018109080917032488097_">
			<use xlink:href="#SVGID_00000079474709410880966150000013270414894421726131_"  style="overflow:visible;"/>
		</clipPath>
		<g style="clip-path:url(#SVGID_00000017502827683213394770000018109080917032488097_);">
			
				<use xlink:href="#VDK"  width="20.8" height="32" x="-10.4" y="-16" transform="matrix(0.7447 0 0 0.7468 -149.2369 -228.5222)" style="overflow:visible;"/>
		</g>
	</g>
	<g>
		<defs>
			<rect id="SVGID_00000009552659762250581530000001169773874963298966_" x="-159.2" y="-212.8" width="19.9" height="20"/>
		</defs>
		<clipPath id="SVGID_00000109721891729804308310000012195950768677162371_">
			<use xlink:href="#SVGID_00000009552659762250581530000001169773874963298966_"  style="overflow:visible;"/>
		</clipPath>
		
			<g transform="matrix(1 0 0 1 7.629395e-06 0)" style="clip-path:url(#SVGID_00000109721891729804308310000012195950768677162371_);">
			
				<use xlink:href="#SDK"  width="100" height="100" x="-50" y="-50" transform="matrix(0.7447 0 0 0.7468 -114.5222 -168.0311)" style="overflow:visible;"/>
		</g>
	</g>
	<g>
		<defs>
			<rect id="SVGID_00000047781017515656559160000016118339111045322379_" x="-159.2" y="-212.8" width="19.9" height="20"/>
		</defs>
		<clipPath id="SVGID_00000057835827889503999390000012442548891382582932_">
			<use xlink:href="#SVGID_00000047781017515656559160000016118339111045322379_"  style="overflow:visible;"/>
		</clipPath>
		
			<g transform="matrix(1 0 0 1 7.629395e-06 0)" style="clip-path:url(#SVGID_00000057835827889503999390000012442548891382582932_);">
			
				<use xlink:href="#SDK"  width="100" height="100" x="-50" y="-50" transform="matrix(0.7447 0 0 0.7468 -114.5222 -168.0311)" style="overflow:visible;"/>
		</g>
	</g>
	<g>
		<defs>
			<rect id="SVGID_00000111883697283034464210000001534194122735812243_" x="-141.4" y="-209.5" width="33.1" height="33.2"/>
		</defs>
		<clipPath id="SVGID_00000011003483159131110380000004786490210138176393_">
			<use xlink:href="#SVGID_00000111883697283034464210000001534194122735812243_"  style="overflow:visible;"/>
		</clipPath>
		<g style="clip-path:url(#SVGID_00000011003483159131110380000004786490210138176393_);">
			
				<use xlink:href="#SDK"  width="100" height="100" x="-50" y="-50" transform="matrix(0.7447 0 0 0.7468 -96.6718 -164.6428)" style="overflow:visible;"/>
		</g>
	</g>
</g>
<g>
	<rect id="XDK_00000103945143996536626980000005947344076677427103_" x="38.4" y="55.5" class="st9" width="98.9" height="152.6"/>
</g>
<g>
	<defs>
		<rect id="SVGID_00000008131217796640202960000012603436558659190436_" x="139.3" y="192.8" width="19.9" height="20"/>
	</defs>
	<clipPath id="SVGID_00000039120665373942352070000014950399361755163540_">
		<use xlink:href="#SVGID_00000008131217796640202960000012603436558659190436_"  style="overflow:visible;"/>
	</clipPath>
	<g style="clip-path:url(#SVGID_00000039120665373942352070000014950399361755163540_);">
		
			<use xlink:href="#SDA"  width="22.3" height="24.5" x="-11.2" y="-12.3" transform="matrix(-0.7447 0 0 -0.7468 149.2365 202.8437)" style="overflow:visible;"/>
	</g>
</g>
<g>
	<defs>
		<rect id="SVGID_00000039099173085195049400000016952793590984437162_" x="16.5" y="50.8" width="19.9" height="20"/>
	</defs>
	<clipPath id="SVGID_00000067202452274495226590000007496814864470000027_">
		<use xlink:href="#SVGID_00000039099173085195049400000016952793590984437162_"  style="overflow:visible;"/>
	</clipPath>
	
		<g transform="matrix(1 0 0 1 1.907349e-06 -3.814697e-06)" style="clip-path:url(#SVGID_00000067202452274495226590000007496814864470000027_);">
		
			<use xlink:href="#SDA"  width="22.3" height="24.5" x="-11.2" y="-12.3" transform="matrix(0.7447 0 0 0.7468 26.5115 60.7783)" style="overflow:visible;"/>
	</g>
</g>
</svg>
