<?xml version="1.0" encoding="utf-8"?>
<!-- Generator: Adobe Illustrator 27.9.0, SVG Export Plug-In . SVG Version: 6.00 Build 0)  -->
<svg version="1.1" id="Layer_1" xmlns="http://www.w3.org/2000/svg" xmlns:xlink="http://www.w3.org/1999/xlink" x="0px" y="0px"
	 viewBox="0 0 175.7 263.6" style="enable-background:new 0 0 175.7 263.6;" xml:space="preserve">
<style type="text/css">
	.st0{fill-opacity:0;}
	.st1{stroke:#FFFFFF;stroke-width:2.2307;stroke-linecap:round;stroke-linejoin:round;stroke-miterlimit:10;}
	.st2{fill:none;stroke:#FFFFFF;stroke-width:2.56;stroke-linecap:square;stroke-miterlimit:10;}
	.st3{fill:#272727;stroke:#000000;}
</style>
<symbol  id="SD9" viewBox="-11.2 -12.3 22.3 24.5">
	<rect x="-11.2" y="-11.2" class="st0" width="22.3" height="22.3"/>
	<path class="st1" d="M-8.9,0C-7.8,0,0-10,0-11.2C0-10,7.8,0,8.9,0C7.8,0,0,10,0,11.2C0,10-7.8,0-8.9,0z"/>
</symbol>
<symbol  id="VD9" viewBox="-9.3 -16 18.6 32">
	<path class="st2" d="M8-3.2c0,4.4-3.6,8-8,8s-8-3.6-8-8v-3.5c0-4.4,3.6-8,8-8s8,3.6,8,8V6.7c0,4.4-3.6,8-8,8
		c-4.8,0-5.8-1.9-6.4-2.7"/>
</symbol>
<path class="st3" d="M23.5,9.3h128.8c7.8,0,14.1,6.4,14.1,14.2v216.6c0,7.8-6.3,14.2-14.1,14.2H23.5c-7.8,0-14.1-6.4-14.1-14.2V23.5
	C9.3,15.7,15.6,9.3,23.5,9.3z"/>
<g>
	<defs>
		<rect id="SVGID_1_" x="14.6" y="23.2" width="23.8" height="23.9"/>
	</defs>
	<clipPath id="SVGID_00000107556841591261666120000014016687957647320214_">
		<use xlink:href="#SVGID_1_"  style="overflow:visible;"/>
	</clipPath>
	<g style="clip-path:url(#SVGID_00000107556841591261666120000014016687957647320214_);">
		
			<use xlink:href="#VD9"  width="18.6" height="32" x="-9.3" y="-16" transform="matrix(0.7447 0 0 0.7468 26.5111 35.0998)" style="overflow:visible;"/>
	</g>
</g>
<g>
	<defs>
		<rect id="SVGID_00000014592064604421678780000002634344550893989003_" x="16.5" y="50.8" width="19.9" height="20"/>
	</defs>
	<clipPath id="SVGID_00000079468182477368761170000002867698599250228893_">
		<use xlink:href="#SVGID_00000014592064604421678780000002634344550893989003_"  style="overflow:visible;"/>
	</clipPath>
	
		<g transform="matrix(1 0 0 1 1.907349e-06 -3.814697e-06)" style="clip-path:url(#SVGID_00000079468182477368761170000002867698599250228893_);">
		
			<use xlink:href="#SD9"  width="22.3" height="24.5" x="-11.2" y="-12.3" transform="matrix(0.7447 0 0 0.7468 26.5115 60.7783)" style="overflow:visible;"/>
	</g>
</g>
<g>
	<defs>
		<rect id="SVGID_00000021119591024521069390000003947687307861153677_" x="16.5" y="50.8" width="19.9" height="20"/>
	</defs>
	<clipPath id="SVGID_00000160161981655175220080000015703804651394427545_">
		<use xlink:href="#SVGID_00000021119591024521069390000003947687307861153677_"  style="overflow:visible;"/>
	</clipPath>
	
		<g transform="matrix(1 0 0 1 1.907349e-06 -3.814697e-06)" style="clip-path:url(#SVGID_00000160161981655175220080000015703804651394427545_);">
		
			<use xlink:href="#SD9"  width="22.3" height="24.5" x="-11.2" y="-12.3" transform="matrix(0.7447 0 0 0.7468 26.5115 60.7783)" style="overflow:visible;"/>
	</g>
</g>
<g>
	<defs>
		<rect id="SVGID_00000117634226816590830420000014078443634856790412_" x="35.6" y="35.7" width="40.2" height="40.3"/>
	</defs>
	<clipPath id="SVGID_00000180351465739706892970000004566403274181178240_">
		<use xlink:href="#SVGID_00000117634226816590830420000014078443634856790412_"  style="overflow:visible;"/>
	</clipPath>
	<g style="clip-path:url(#SVGID_00000180351465739706892970000004566403274181178240_);">
		
			<use xlink:href="#SD9"  width="22.3" height="24.5" x="-11.2" y="-12.3" transform="matrix(0.7447 0 0 0.7468 45.5884 45.7175)" style="overflow:visible;"/>
	</g>
</g>
<g>
	<defs>
		<rect id="SVGID_00000043416463800490279150000011435622346980070315_" x="99.9" y="35.7" width="40.2" height="40.3"/>
	</defs>
	<clipPath id="SVGID_00000085962031350035658700000010349183341044498324_">
		<use xlink:href="#SVGID_00000043416463800490279150000011435622346980070315_"  style="overflow:visible;"/>
	</clipPath>
	<g style="clip-path:url(#SVGID_00000085962031350035658700000010349183341044498324_);">
		
			<use xlink:href="#SD9"  width="22.3" height="24.5" x="-11.2" y="-12.3" transform="matrix(0.7447 0 0 0.7468 109.8809 45.7175)" style="overflow:visible;"/>
	</g>
</g>
<g>
	<defs>
		<rect id="SVGID_00000117647706859677934720000006618565206195320722_" x="35.6" y="86.3" width="40.2" height="40.3"/>
	</defs>
	<clipPath id="SVGID_00000173839997402835429040000015623183618575150781_">
		<use xlink:href="#SVGID_00000117647706859677934720000006618565206195320722_"  style="overflow:visible;"/>
	</clipPath>
	
		<g transform="matrix(1 0 0 1 0 -7.629395e-06)" style="clip-path:url(#SVGID_00000173839997402835429040000015623183618575150781_);">
		
			<use xlink:href="#SD9"  width="22.3" height="24.5" x="-11.2" y="-12.3" transform="matrix(0.7447 0 0 0.7468 45.5884 96.3344)" style="overflow:visible;"/>
	</g>
</g>
<g>
	<defs>
		<rect id="SVGID_00000149373986064189479280000012629711865314140590_" x="99.9" y="86.3" width="40.2" height="40.3"/>
	</defs>
	<clipPath id="SVGID_00000126309091458081840400000011496085033862616234_">
		<use xlink:href="#SVGID_00000149373986064189479280000012629711865314140590_"  style="overflow:visible;"/>
	</clipPath>
	
		<g transform="matrix(1 0 0 1 0 -7.629395e-06)" style="clip-path:url(#SVGID_00000126309091458081840400000011496085033862616234_);">
		
			<use xlink:href="#SD9"  width="22.3" height="24.5" x="-11.2" y="-12.3" transform="matrix(0.7447 0 0 0.7468 109.8809 96.3344)" style="overflow:visible;"/>
	</g>
</g>
<g>
	<defs>
		<polygon id="SVGID_00000153686790356642399630000005024891120047666572_" points="71.1,111.5 71.1,151.9 90.6,151.9 84.5,135.1 
			90.6,128.3 84.5,111.5 		"/>
	</defs>
	<clipPath id="SVGID_00000026135334791055401280000012862342624640198052_">
		<use xlink:href="#SVGID_00000153686790356642399630000005024891120047666572_"  style="overflow:visible;"/>
	</clipPath>
	<g style="clip-path:url(#SVGID_00000026135334791055401280000012862342624640198052_);">
		
			<use xlink:href="#SD9"  width="22.3" height="24.5" x="-11.2" y="-12.3" transform="matrix(0.7447 0 0 0.7468 77.7346 121.6429)" style="overflow:visible;"/>
	</g>
</g>
<g transform="rotate(180)">
	<g>
		<defs>
			<rect id="SVGID_00000121967752859420122860000014786344612805642128_" x="-161.2" y="-240.5" width="23.8" height="23.9"/>
		</defs>
		<clipPath id="SVGID_00000054253855594320699520000007719018996473416889_">
			<use xlink:href="#SVGID_00000121967752859420122860000014786344612805642128_"  style="overflow:visible;"/>
		</clipPath>
		<g style="clip-path:url(#SVGID_00000054253855594320699520000007719018996473416889_);">
			
				<use xlink:href="#VD9"  width="18.6" height="32" x="-9.3" y="-16" transform="matrix(0.7447 0 0 0.7468 -149.2369 -228.5222)" style="overflow:visible;"/>
		</g>
	</g>
	<g>
		<defs>
			<rect id="SVGID_00000030447208759403727670000000177124636317816726_" x="-159.2" y="-212.8" width="19.9" height="20"/>
		</defs>
		<clipPath id="SVGID_00000144334055206768663140000017437971018347699608_">
			<use xlink:href="#SVGID_00000030447208759403727670000000177124636317816726_"  style="overflow:visible;"/>
		</clipPath>
		<g style="clip-path:url(#SVGID_00000144334055206768663140000017437971018347699608_);">
			
				<use xlink:href="#SD9"  width="22.3" height="24.5" x="-11.2" y="-12.3" transform="matrix(0.7447 0 0 0.7468 -149.2365 -202.8437)" style="overflow:visible;"/>
		</g>
	</g>
	<g>
		<defs>
			<rect id="SVGID_00000024000608270121855420000014361750590891528343_" x="-159.2" y="-212.8" width="19.9" height="20"/>
		</defs>
		<clipPath id="SVGID_00000073691707497472740890000010344110450949180330_">
			<use xlink:href="#SVGID_00000024000608270121855420000014361750590891528343_"  style="overflow:visible;"/>
		</clipPath>
		<g style="clip-path:url(#SVGID_00000073691707497472740890000010344110450949180330_);">
			
				<use xlink:href="#SD9"  width="22.3" height="24.5" x="-11.2" y="-12.3" transform="matrix(0.7447 0 0 0.7468 -149.2365 -202.8437)" style="overflow:visible;"/>
		</g>
	</g>
	<g>
		<defs>
			<rect id="SVGID_00000027582579341024158030000000308235477127745166_" x="-140.1" y="-227.9" width="40.2" height="40.3"/>
		</defs>
		<clipPath id="SVGID_00000000945001816248846690000014075166289080083642_">
			<use xlink:href="#SVGID_00000027582579341024158030000000308235477127745166_"  style="overflow:visible;"/>
		</clipPath>
		
			<g transform="matrix(1 0 0 1 0 -1.525879e-05)" style="clip-path:url(#SVGID_00000000945001816248846690000014075166289080083642_);">
			
				<use xlink:href="#SD9"  width="22.3" height="24.5" x="-11.2" y="-12.3" transform="matrix(0.7447 0 0 0.7468 -130.1597 -217.9045)" style="overflow:visible;"/>
		</g>
	</g>
	<g>
		<defs>
			<rect id="SVGID_00000083780847107429191730000010120402359958621880_" x="-75.8" y="-227.9" width="40.2" height="40.3"/>
		</defs>
		<clipPath id="SVGID_00000152946293011685761470000012027397804226551965_">
			<use xlink:href="#SVGID_00000083780847107429191730000010120402359958621880_"  style="overflow:visible;"/>
		</clipPath>
		
			<g transform="matrix(1 0 0 1 0 -1.525879e-05)" style="clip-path:url(#SVGID_00000152946293011685761470000012027397804226551965_);">
			
				<use xlink:href="#SD9"  width="22.3" height="24.5" x="-11.2" y="-12.3" transform="matrix(0.7447 0 0 0.7468 -65.8672 -217.9045)" style="overflow:visible;"/>
		</g>
	</g>
	<g>
		<defs>
			<rect id="SVGID_00000034081725165454144700000008763741322991901076_" x="-140.1" y="-177.3" width="40.2" height="40.3"/>
		</defs>
		<clipPath id="SVGID_00000016033660360661394670000013189899022039140747_">
			<use xlink:href="#SVGID_00000034081725165454144700000008763741322991901076_"  style="overflow:visible;"/>
		</clipPath>
		<g style="clip-path:url(#SVGID_00000016033660360661394670000013189899022039140747_);">
			
				<use xlink:href="#SD9"  width="22.3" height="24.5" x="-11.2" y="-12.3" transform="matrix(0.7447 0 0 0.7468 -130.1597 -167.2876)" style="overflow:visible;"/>
		</g>
	</g>
	<g>
		<defs>
			<rect id="SVGID_00000080921051700058500050000003211308086525833912_" x="-75.8" y="-177.3" width="40.2" height="40.3"/>
		</defs>
		<clipPath id="SVGID_00000043439131311379432090000004559366555328287879_">
			<use xlink:href="#SVGID_00000080921051700058500050000003211308086525833912_"  style="overflow:visible;"/>
		</clipPath>
		<g style="clip-path:url(#SVGID_00000043439131311379432090000004559366555328287879_);">
			
				<use xlink:href="#SD9"  width="22.3" height="24.5" x="-11.2" y="-12.3" transform="matrix(0.7447 0 0 0.7468 -65.8672 -167.2876)" style="overflow:visible;"/>
		</g>
	</g>
	<g>
		<defs>
			<polygon id="SVGID_00000162342221710596211330000012931604676845614759_" points="-104.6,-152.1 -104.6,-111.7 -85.2,-111.7 
				-91.2,-128.6 -85.2,-135.3 -91.2,-152.1 			"/>
		</defs>
		<clipPath id="SVGID_00000168078834577909591320000003398946548192373691_">
			<use xlink:href="#SVGID_00000162342221710596211330000012931604676845614759_"  style="overflow:visible;"/>
		</clipPath>
		<g style="clip-path:url(#SVGID_00000168078834577909591320000003398946548192373691_);">
			
				<use xlink:href="#SD9"  width="22.3" height="24.5" x="-11.2" y="-12.3" transform="matrix(0.7447 0 0 0.7468 -98.0134 -141.9791)" style="overflow:visible;"/>
		</g>
	</g>
</g>
</svg>
