<?xml version="1.0" encoding="utf-8"?>
<!-- Generator: Adobe Illustrator 27.9.0, SVG Export Plug-In . SVG Version: 6.00 Build 0)  -->
<svg version="1.1" id="Layer_1" xmlns="http://www.w3.org/2000/svg" xmlns:xlink="http://www.w3.org/1999/xlink" x="0px" y="0px"
	 viewBox="0 0 175.7 263.6" style="enable-background:new 0 0 175.7 263.6;" xml:space="preserve">
<style type="text/css">
	.st0{fill-opacity:0;}
	.st1{stroke:#FFFFFF;stroke-width:2.2307;stroke-linecap:round;stroke-linejoin:round;stroke-miterlimit:10;}
	.st2{fill:none;stroke:#FFFFFF;stroke-width:2.56;stroke-linecap:square;stroke-miterlimit:10;}
	.st3{fill:#272727;stroke:#000000;}
</style>
<symbol  id="SD3" viewBox="-11.2 -12.3 22.3 24.5">
	<rect x="-11.2" y="-11.2" class="st0" width="22.3" height="22.3"/>
	<path class="st1" d="M-8.9,0C-7.8,0,0-10,0-11.2C0-10,7.8,0,8.9,0C7.8,0,0,10,0,11.2C0,10-7.8,0-8.9,0z"/>
</symbol>
<symbol  id="VD3" viewBox="-9.5 -16 19.1 32">
	<path class="st2" d="M-7.7-10.2v-4.5H6.7L-3.3-2.6c0.3-0.3,1.9-1.3,3.5-1.3c6.4,0,8,3.8,8,8.6c0,6.4-2.6,9.9-9,9.9
		s-7.4-5.1-7.4-5.1"/>
</symbol>
<path class="st3" d="M23.5,9.3h128.8c7.8,0,14.1,6.4,14.1,14.2v216.6c0,7.8-6.3,14.2-14.1,14.2H23.5c-7.8,0-14.1-6.4-14.1-14.2V23.5
	C9.3,15.7,15.6,9.3,23.5,9.3z"/>
<g>
	<defs>
		<rect id="SVGID_1_" x="14.6" y="23.2" width="23.8" height="23.9"/>
	</defs>
	<clipPath id="SVGID_00000054224553364127612970000010891411072234765234_">
		<use xlink:href="#SVGID_1_"  style="overflow:visible;"/>
	</clipPath>
	
		<g transform="matrix(1 0 0 1 1.907349e-06 0)" style="clip-path:url(#SVGID_00000054224553364127612970000010891411072234765234_);">
		
			<use xlink:href="#VD3"  width="19.1" height="32" x="-9.5" y="-16" transform="matrix(0.7447 0 0 0.7468 26.3123 35.0998)" style="overflow:visible;"/>
	</g>
</g>
<g>
	<defs>
		<rect id="SVGID_00000006698766523883365530000014182035026014452629_" x="16.5" y="50.8" width="19.9" height="20"/>
	</defs>
	<clipPath id="SVGID_00000096744393894786863950000009217256304461793935_">
		<use xlink:href="#SVGID_00000006698766523883365530000014182035026014452629_"  style="overflow:visible;"/>
	</clipPath>
	
		<g transform="matrix(1 0 0 1 1.907349e-06 -3.814697e-06)" style="clip-path:url(#SVGID_00000096744393894786863950000009217256304461793935_);">
		
			<use xlink:href="#SD3"  width="22.3" height="24.5" x="-11.2" y="-12.3" transform="matrix(0.7447 0 0 0.7468 26.5115 60.7783)" style="overflow:visible;"/>
	</g>
</g>
<g>
	<defs>
		<rect id="SVGID_00000097494566725046442870000004817039890097693367_" x="16.5" y="50.8" width="19.9" height="20"/>
	</defs>
	<clipPath id="SVGID_00000158743690848219510030000014427529693244044950_">
		<use xlink:href="#SVGID_00000097494566725046442870000004817039890097693367_"  style="overflow:visible;"/>
	</clipPath>
	
		<g transform="matrix(1 0 0 1 1.907349e-06 -3.814697e-06)" style="clip-path:url(#SVGID_00000158743690848219510030000014427529693244044950_);">
		
			<use xlink:href="#SD3"  width="22.3" height="24.5" x="-11.2" y="-12.3" transform="matrix(0.7447 0 0 0.7468 26.5115 60.7783)" style="overflow:visible;"/>
	</g>
</g>
<g>
	<defs>
		<rect id="SVGID_00000002358843621348096070000017527372555416066232_" x="67.8" y="35.7" width="40.2" height="40.3"/>
	</defs>
	<clipPath id="SVGID_00000085247586230806448720000003705889100759960227_">
		<use xlink:href="#SVGID_00000002358843621348096070000017527372555416066232_"  style="overflow:visible;"/>
	</clipPath>
	<g style="clip-path:url(#SVGID_00000085247586230806448720000003705889100759960227_);">
		
			<use xlink:href="#SD3"  width="22.3" height="24.5" x="-11.2" y="-12.3" transform="matrix(0.7447 0 0 0.7468 77.7346 45.7175)" style="overflow:visible;"/>
	</g>
</g>
<g>
	<defs>
		<polygon id="SVGID_00000123431959692554478690000017234812179600959922_" points="71.1,111.5 71.1,151.9 90.6,151.9 84.5,135.1 
			90.6,128.3 84.5,111.5 		"/>
	</defs>
	<clipPath id="SVGID_00000149369465006802664380000012963636000977005990_">
		<use xlink:href="#SVGID_00000123431959692554478690000017234812179600959922_"  style="overflow:visible;"/>
	</clipPath>
	<g style="clip-path:url(#SVGID_00000149369465006802664380000012963636000977005990_);">
		
			<use xlink:href="#SD3"  width="22.3" height="24.5" x="-11.2" y="-12.3" transform="matrix(0.7447 0 0 0.7468 77.7346 121.6429)" style="overflow:visible;"/>
	</g>
</g>
<g transform="rotate(180)">
	<g>
		<defs>
			<rect id="SVGID_00000026134846013574826680000014774015785841602695_" x="-161.2" y="-240.5" width="23.8" height="23.9"/>
		</defs>
		<clipPath id="SVGID_00000081640096902320254440000010254202781051955091_">
			<use xlink:href="#SVGID_00000026134846013574826680000014774015785841602695_"  style="overflow:visible;"/>
		</clipPath>
		<g style="clip-path:url(#SVGID_00000081640096902320254440000010254202781051955091_);">
			
				<use xlink:href="#VD3"  width="19.1" height="32" x="-9.5" y="-16" transform="matrix(0.7447 0 0 0.7468 -149.4357 -228.5222)" style="overflow:visible;"/>
		</g>
	</g>
	<g>
		<defs>
			<rect id="SVGID_00000040548869606219476130000012036223997810027925_" x="-159.2" y="-212.8" width="19.9" height="20"/>
		</defs>
		<clipPath id="SVGID_00000127017819285443012070000009313629673669992074_">
			<use xlink:href="#SVGID_00000040548869606219476130000012036223997810027925_"  style="overflow:visible;"/>
		</clipPath>
		<g style="clip-path:url(#SVGID_00000127017819285443012070000009313629673669992074_);">
			
				<use xlink:href="#SD3"  width="22.3" height="24.5" x="-11.2" y="-12.3" transform="matrix(0.7447 0 0 0.7468 -149.2365 -202.8437)" style="overflow:visible;"/>
		</g>
	</g>
	<g>
		<defs>
			<rect id="SVGID_00000046309983505265656780000000474040031875351969_" x="-159.2" y="-212.8" width="19.9" height="20"/>
		</defs>
		<clipPath id="SVGID_00000168811989344103966080000010692798031674181789_">
			<use xlink:href="#SVGID_00000046309983505265656780000000474040031875351969_"  style="overflow:visible;"/>
		</clipPath>
		<g style="clip-path:url(#SVGID_00000168811989344103966080000010692798031674181789_);">
			
				<use xlink:href="#SD3"  width="22.3" height="24.5" x="-11.2" y="-12.3" transform="matrix(0.7447 0 0 0.7468 -149.2365 -202.8437)" style="overflow:visible;"/>
		</g>
	</g>
	<g>
		<defs>
			<rect id="SVGID_00000150063709069345659070000004068383706703199665_" x="-108" y="-227.9" width="40.2" height="40.3"/>
		</defs>
		<clipPath id="SVGID_00000154387218075826635940000016847744346999209612_">
			<use xlink:href="#SVGID_00000150063709069345659070000004068383706703199665_"  style="overflow:visible;"/>
		</clipPath>
		
			<g transform="matrix(1 0 0 1 0 -1.525879e-05)" style="clip-path:url(#SVGID_00000154387218075826635940000016847744346999209612_);">
			
				<use xlink:href="#SD3"  width="22.3" height="24.5" x="-11.2" y="-12.3" transform="matrix(0.7447 0 0 0.7468 -98.0134 -217.9045)" style="overflow:visible;"/>
		</g>
	</g>
	<g>
		<defs>
			<polygon id="SVGID_00000025416755740915856440000015585843309413468347_" points="-104.6,-152.1 -104.6,-111.7 -85.2,-111.7 
				-91.2,-128.6 -85.2,-135.3 -91.2,-152.1 			"/>
		</defs>
		<clipPath id="SVGID_00000140012030845493346310000012840130714817852555_">
			<use xlink:href="#SVGID_00000025416755740915856440000015585843309413468347_"  style="overflow:visible;"/>
		</clipPath>
		<g style="clip-path:url(#SVGID_00000140012030845493346310000012840130714817852555_);">
			
				<use xlink:href="#SD3"  width="22.3" height="24.5" x="-11.2" y="-12.3" transform="matrix(0.7447 0 0 0.7468 -98.0134 -141.9791)" style="overflow:visible;"/>
		</g>
	</g>
</g>
</svg>
