<?xml version="1.0" encoding="utf-8"?>
<!-- Generator: Adobe Illustrator 27.9.0, SVG Export Plug-In . SVG Version: 6.00 Build 0)  -->
<svg version="1.1" id="Layer_1" xmlns="http://www.w3.org/2000/svg" xmlns:xlink="http://www.w3.org/1999/xlink" x="0px" y="0px"
	 viewBox="0 0 175.7 263.6" style="enable-background:new 0 0 175.7 263.6;" xml:space="preserve">
<style type="text/css">
	.st0{fill-opacity:0;}
	.st1{stroke:#FFFFFF;stroke-width:2.2307;stroke-linecap:round;stroke-linejoin:round;stroke-miterlimit:10;}
	.st2{fill:none;stroke:#FFFFFF;stroke-width:2.56;stroke-linecap:square;stroke-miterlimit:10;}
	.st3{fill:#272727;stroke:#000000;}
</style>
<symbol  id="SD4" viewBox="-11.2 -12.3 22.3 24.5">
	<rect x="-11.2" y="-11.2" class="st0" width="22.3" height="22.3"/>
	<path class="st1" d="M-8.9,0C-7.8,0,0-10,0-11.2C0-10,7.8,0,8.9,0C7.8,0,0,10,0,11.2C0,10-7.8,0-8.9,0z"/>
</symbol>
<symbol  id="VD4" viewBox="-10.4 -17.4 20.8 34.7">
	<path class="st2" d="M2.1,16.1h6.4 M5.3,16.1v-29.4L-9.1,7v0.8H9.1"/>
</symbol>
<path class="st3" d="M23.5,9.3h128.8c7.8,0,14.1,6.4,14.1,14.2v216.6c0,7.8-6.3,14.2-14.1,14.2H23.5c-7.8,0-14.1-6.4-14.1-14.2V23.5
	C9.3,15.7,15.6,9.3,23.5,9.3z"/>
<g>
	<defs>
		<rect id="SVGID_1_" x="14.6" y="23.2" width="23.8" height="23.9"/>
	</defs>
	<clipPath id="SVGID_00000067940712092742058560000002212657590713160608_">
		<use xlink:href="#SVGID_1_"  style="overflow:visible;"/>
	</clipPath>
	<g style="clip-path:url(#SVGID_00000067940712092742058560000002212657590713160608_);">
		
			<use xlink:href="#VD4"  width="20.8" height="34.7" x="-10.4" y="-17.4" transform="matrix(0.7447 0 0 0.7468 26.1537 34.0767)" style="overflow:visible;"/>
	</g>
</g>
<g>
	<defs>
		<rect id="SVGID_00000054981503515535836030000017788385787877255305_" x="16.5" y="50.8" width="19.9" height="20"/>
	</defs>
	<clipPath id="SVGID_00000044144084048756142240000014471783711820022173_">
		<use xlink:href="#SVGID_00000054981503515535836030000017788385787877255305_"  style="overflow:visible;"/>
	</clipPath>
	
		<g transform="matrix(1 0 0 1 1.907349e-06 -3.814697e-06)" style="clip-path:url(#SVGID_00000044144084048756142240000014471783711820022173_);">
		
			<use xlink:href="#SD4"  width="22.3" height="24.5" x="-11.2" y="-12.3" transform="matrix(0.7447 0 0 0.7468 26.5115 60.7783)" style="overflow:visible;"/>
	</g>
</g>
<g>
	<defs>
		<rect id="SVGID_00000091701873635771112530000006060643570462378115_" x="16.5" y="50.8" width="19.9" height="20"/>
	</defs>
	<clipPath id="SVGID_00000183951069793998797780000009237353369510445484_">
		<use xlink:href="#SVGID_00000091701873635771112530000006060643570462378115_"  style="overflow:visible;"/>
	</clipPath>
	
		<g transform="matrix(1 0 0 1 1.907349e-06 -3.814697e-06)" style="clip-path:url(#SVGID_00000183951069793998797780000009237353369510445484_);">
		
			<use xlink:href="#SD4"  width="22.3" height="24.5" x="-11.2" y="-12.3" transform="matrix(0.7447 0 0 0.7468 26.5115 60.7783)" style="overflow:visible;"/>
	</g>
</g>
<g>
	<defs>
		<rect id="SVGID_00000080171533708656456040000010208960923137899648_" x="35.6" y="35.7" width="40.2" height="40.3"/>
	</defs>
	<clipPath id="SVGID_00000067206937970076228860000013956390466311728318_">
		<use xlink:href="#SVGID_00000080171533708656456040000010208960923137899648_"  style="overflow:visible;"/>
	</clipPath>
	<g style="clip-path:url(#SVGID_00000067206937970076228860000013956390466311728318_);">
		
			<use xlink:href="#SD4"  width="22.3" height="24.5" x="-11.2" y="-12.3" transform="matrix(0.7447 0 0 0.7468 45.5884 45.7175)" style="overflow:visible;"/>
	</g>
</g>
<g>
	<defs>
		<rect id="SVGID_00000125593839302561627020000004268268419075137722_" x="99.9" y="35.7" width="40.2" height="40.3"/>
	</defs>
	<clipPath id="SVGID_00000134213768286838551790000011652060038259252907_">
		<use xlink:href="#SVGID_00000125593839302561627020000004268268419075137722_"  style="overflow:visible;"/>
	</clipPath>
	<g style="clip-path:url(#SVGID_00000134213768286838551790000011652060038259252907_);">
		
			<use xlink:href="#SD4"  width="22.3" height="24.5" x="-11.2" y="-12.3" transform="matrix(0.7447 0 0 0.7468 109.8809 45.7175)" style="overflow:visible;"/>
	</g>
</g>
<g transform="rotate(180)">
	<g>
		<defs>
			<rect id="SVGID_00000115492042118672807170000004668694619254679974_" x="-161.2" y="-240.5" width="23.8" height="23.9"/>
		</defs>
		<clipPath id="SVGID_00000017508374102157607180000016370168266452383665_">
			<use xlink:href="#SVGID_00000115492042118672807170000004668694619254679974_"  style="overflow:visible;"/>
		</clipPath>
		<g style="clip-path:url(#SVGID_00000017508374102157607180000016370168266452383665_);">
			
				<use xlink:href="#VD4"  width="20.8" height="34.7" x="-10.4" y="-17.4" transform="matrix(0.7447 0 0 0.7468 -149.5943 -229.5453)" style="overflow:visible;"/>
		</g>
	</g>
	<g>
		<defs>
			<rect id="SVGID_00000115496845993229407250000011008237091338613692_" x="-159.2" y="-212.8" width="19.9" height="20"/>
		</defs>
		<clipPath id="SVGID_00000035518298463882989730000005505367624964157322_">
			<use xlink:href="#SVGID_00000115496845993229407250000011008237091338613692_"  style="overflow:visible;"/>
		</clipPath>
		<g style="clip-path:url(#SVGID_00000035518298463882989730000005505367624964157322_);">
			
				<use xlink:href="#SD4"  width="22.3" height="24.5" x="-11.2" y="-12.3" transform="matrix(0.7447 0 0 0.7468 -149.2365 -202.8437)" style="overflow:visible;"/>
		</g>
	</g>
	<g>
		<defs>
			<rect id="SVGID_00000043457229447104802290000013512409856398822022_" x="-159.2" y="-212.8" width="19.9" height="20"/>
		</defs>
		<clipPath id="SVGID_00000178176876280105027150000004224233534801207179_">
			<use xlink:href="#SVGID_00000043457229447104802290000013512409856398822022_"  style="overflow:visible;"/>
		</clipPath>
		<g style="clip-path:url(#SVGID_00000178176876280105027150000004224233534801207179_);">
			
				<use xlink:href="#SD4"  width="22.3" height="24.5" x="-11.2" y="-12.3" transform="matrix(0.7447 0 0 0.7468 -149.2365 -202.8437)" style="overflow:visible;"/>
		</g>
	</g>
	<g>
		<defs>
			<rect id="SVGID_00000121972280760777047790000006825174891142943888_" x="-140.1" y="-227.9" width="40.2" height="40.3"/>
		</defs>
		<clipPath id="SVGID_00000093148735762537513260000012709861269309511101_">
			<use xlink:href="#SVGID_00000121972280760777047790000006825174891142943888_"  style="overflow:visible;"/>
		</clipPath>
		
			<g transform="matrix(1 0 0 1 0 -1.525879e-05)" style="clip-path:url(#SVGID_00000093148735762537513260000012709861269309511101_);">
			
				<use xlink:href="#SD4"  width="22.3" height="24.5" x="-11.2" y="-12.3" transform="matrix(0.7447 0 0 0.7468 -130.1597 -217.9045)" style="overflow:visible;"/>
		</g>
	</g>
	<g>
		<defs>
			<rect id="SVGID_00000026158483594829357010000000359446622902144398_" x="-75.8" y="-227.9" width="40.2" height="40.3"/>
		</defs>
		<clipPath id="SVGID_00000137134546374486377060000006483225194518934713_">
			<use xlink:href="#SVGID_00000026158483594829357010000000359446622902144398_"  style="overflow:visible;"/>
		</clipPath>
		
			<g transform="matrix(1 0 0 1 0 -1.525879e-05)" style="clip-path:url(#SVGID_00000137134546374486377060000006483225194518934713_);">
			
				<use xlink:href="#SD4"  width="22.3" height="24.5" x="-11.2" y="-12.3" transform="matrix(0.7447 0 0 0.7468 -65.8672 -217.9045)" style="overflow:visible;"/>
		</g>
	</g>
</g>
</svg>
