<?xml version="1.0" encoding="utf-8"?>
<!-- Generator: Adobe Illustrator 27.9.0, SVG Export Plug-In . SVG Version: 6.00 Build 0)  -->
<svg version="1.1" id="Layer_1" xmlns="http://www.w3.org/2000/svg" xmlns:xlink="http://www.w3.org/1999/xlink" x="0px" y="0px"
	 viewBox="0 0 175.7 263.6" style="enable-background:new 0 0 175.7 263.6;" xml:space="preserve">
<style type="text/css">
	.st0{fill-opacity:0;}
	.st1{stroke:#FFFFFF;stroke-width:2.2307;stroke-linecap:round;stroke-linejoin:round;stroke-miterlimit:10;}
	.st2{fill:none;stroke:#FFFFFF;stroke-width:2.56;stroke-linecap:square;stroke-miterlimit:10;}
	.st3{fill:#272727;stroke:#000000;}
</style>
<symbol  id="SDA" viewBox="-11.2 -12.3 22.3 24.5">
	<rect x="-11.2" y="-11.2" class="st0" width="22.3" height="22.3"/>
	<path class="st1" d="M-8.9,0C-7.8,0,0-10,0-11.2C0-10,7.8,0,8.9,0C7.8,0,0,10,0,11.2C0,10-7.8,0-8.9,0z"/>
</symbol>
<symbol  id="VDA" viewBox="-9.9 -18.3 19.8 36.7">
	<path class="st2" d="M-8.6,17.1h5.1 M-6.4,16.7L0-12.4l6.4,29.1 M3.5,17.1h5.1 M-3.8,6.5h7.7"/>
</symbol>
<path class="st3" d="M23.5,9.3h128.8c7.8,0,14.1,6.4,14.1,14.2v216.6c0,7.8-6.3,14.2-14.1,14.2H23.5c-7.8,0-14.1-6.4-14.1-14.2V23.5
	C9.3,15.7,15.6,9.3,23.5,9.3z"/>
<g>
	<defs>
		<rect id="SVGID_1_" x="14.6" y="23.2" width="23.8" height="23.9"/>
	</defs>
	<clipPath id="SVGID_00000137826265787288397780000005532589891030648457_">
		<use xlink:href="#SVGID_1_"  style="overflow:visible;"/>
	</clipPath>
	<g style="clip-path:url(#SVGID_00000137826265787288397780000005532589891030648457_);">
		
			<use xlink:href="#VDA"  width="19.8" height="36.7" x="-9.9" y="-18.3" transform="matrix(0.7447 0 0 0.7468 26.5111 33.3512)" style="overflow:visible;"/>
	</g>
</g>
<g>
	<defs>
		<rect id="SVGID_00000020372274675505413590000007779861133232698244_" x="16.5" y="50.8" width="19.9" height="20"/>
	</defs>
	<clipPath id="SVGID_00000081608318006997980720000002694913470563963043_">
		<use xlink:href="#SVGID_00000020372274675505413590000007779861133232698244_"  style="overflow:visible;"/>
	</clipPath>
	
		<g transform="matrix(1 0 0 1 1.907349e-06 -3.814697e-06)" style="clip-path:url(#SVGID_00000081608318006997980720000002694913470563963043_);">
		
			<use xlink:href="#SDA"  width="22.3" height="24.5" x="-11.2" y="-12.3" transform="matrix(0.7447 0 0 0.7468 26.5115 60.7783)" style="overflow:visible;"/>
	</g>
</g>
<g>
	<defs>
		<rect id="SVGID_00000103975797448638687160000007671742147664257671_" x="16.5" y="50.8" width="19.9" height="20"/>
	</defs>
	<clipPath id="SVGID_00000128464656327476146710000007161219133969059977_">
		<use xlink:href="#SVGID_00000103975797448638687160000007671742147664257671_"  style="overflow:visible;"/>
	</clipPath>
	
		<g transform="matrix(1 0 0 1 1.907349e-06 -3.814697e-06)" style="clip-path:url(#SVGID_00000128464656327476146710000007161219133969059977_);">
		
			<use xlink:href="#SDA"  width="22.3" height="24.5" x="-11.2" y="-12.3" transform="matrix(0.7447 0 0 0.7468 26.5115 60.7783)" style="overflow:visible;"/>
	</g>
</g>
<g>
	<defs>
		<polygon id="SVGID_00000155850425433302657440000015438925447327616387_" points="71.1,111.5 71.1,151.9 90.6,151.9 84.5,135.1 
			90.6,128.3 84.5,111.5 		"/>
	</defs>
	<clipPath id="SVGID_00000169550586683232964520000015344146509236126869_">
		<use xlink:href="#SVGID_00000155850425433302657440000015438925447327616387_"  style="overflow:visible;"/>
	</clipPath>
	<g style="clip-path:url(#SVGID_00000169550586683232964520000015344146509236126869_);">
		
			<use xlink:href="#SDA"  width="22.3" height="24.5" x="-11.2" y="-12.3" transform="matrix(0.7447 0 0 0.7468 77.7346 121.6429)" style="overflow:visible;"/>
	</g>
</g>
<g>
	<defs>
		<rect id="SVGID_00000059295409968000998100000003512816905341834382_" x="137.3" y="216.6" width="23.8" height="23.9"/>
	</defs>
	<clipPath id="SVGID_00000073694125957781725490000000380160233102239105_">
		<use xlink:href="#SVGID_00000059295409968000998100000003512816905341834382_"  style="overflow:visible;"/>
	</clipPath>
	<g style="clip-path:url(#SVGID_00000073694125957781725490000000380160233102239105_);">
		
			<use xlink:href="#VDA"  width="19.8" height="36.7" x="-9.9" y="-18.3" transform="matrix(-0.7447 0 0 -0.7468 149.2369 230.2709)" style="overflow:visible;"/>
	</g>
</g>
<g>
	<defs>
		<rect id="SVGID_00000091730042273590059160000005881141217799944894_" x="139.3" y="192.8" width="19.9" height="20"/>
	</defs>
	<clipPath id="SVGID_00000044149068742921390160000014332345129783374747_">
		<use xlink:href="#SVGID_00000091730042273590059160000005881141217799944894_"  style="overflow:visible;"/>
	</clipPath>
	<g style="clip-path:url(#SVGID_00000044149068742921390160000014332345129783374747_);">
		
			<use xlink:href="#SDA"  width="22.3" height="24.5" x="-11.2" y="-12.3" transform="matrix(-0.7447 0 0 -0.7468 149.2365 202.8437)" style="overflow:visible;"/>
	</g>
</g>
<g>
	<defs>
		<rect id="SVGID_00000019638977821038980790000002082108735708625583_" x="139.3" y="192.8" width="19.9" height="20"/>
	</defs>
	<clipPath id="SVGID_00000064336417140014013860000001009372117550307494_">
		<use xlink:href="#SVGID_00000019638977821038980790000002082108735708625583_"  style="overflow:visible;"/>
	</clipPath>
	<g style="clip-path:url(#SVGID_00000064336417140014013860000001009372117550307494_);">
		
			<use xlink:href="#SDA"  width="22.3" height="24.5" x="-11.2" y="-12.3" transform="matrix(-0.7447 0 0 -0.7468 149.2365 202.8437)" style="overflow:visible;"/>
	</g>
</g>
<g>
	<defs>
		<polygon id="SVGID_00000067202219127684663940000014563887793848858522_" points="104.6,152.1 104.6,111.7 85.2,111.7 91.2,128.6 
			85.2,135.3 91.2,152.1 		"/>
	</defs>
	<clipPath id="SVGID_00000111187030632086537590000008730812508784275338_">
		<use xlink:href="#SVGID_00000067202219127684663940000014563887793848858522_"  style="overflow:visible;"/>
	</clipPath>
	<g style="clip-path:url(#SVGID_00000111187030632086537590000008730812508784275338_);">
		
			<use xlink:href="#SDA"  width="22.3" height="24.5" x="-11.2" y="-12.3" transform="matrix(-0.7447 0 0 -0.7468 98.0134 141.9791)" style="overflow:visible;"/>
	</g>
</g>
</svg>
