<?xml version="1.0" encoding="utf-8"?>
<!-- Generator: Adobe Illustrator 27.9.0, SVG Export Plug-In . SVG Version: 6.00 Build 0)  -->
<svg version="1.1" id="Layer_1" xmlns="http://www.w3.org/2000/svg" xmlns:xlink="http://www.w3.org/1999/xlink" x="0px" y="0px"
	 viewBox="0 0 175.7 263.6" style="enable-background:new 0 0 175.7 263.6;" xml:space="preserve">
<style type="text/css">
	.st0{fill-opacity:0;}
	.st1{stroke:#FFFFFF;stroke-width:2.2307;stroke-linecap:round;stroke-linejoin:round;stroke-miterlimit:10;}
	.st2{fill:none;stroke:#FFFFFF;stroke-width:2.56;stroke-linecap:square;stroke-miterlimit:10;}
	.st3{fill:#272727;stroke:#000000;}
</style>
<symbol  id="SDT" viewBox="-11.2 -12.3 22.3 24.5">
	<rect x="-11.2" y="-11.2" class="st0" width="22.3" height="22.3"/>
	<path class="st1" d="M-8.9,0C-7.8,0,0-10,0-11.2C0-10,7.8,0,8.9,0C7.8,0,0,10,0,11.2C0,10-7.8,0-8.9,0z"/>
</symbol>
<symbol  id="VDT" viewBox="-9.4 -16 18.9 32">
	<path class="st2" d="M-8.2,13.8v-27.5 M-1.4,0v-9.9c0-2.7,2.1-4.8,4.8-4.8s4.8,2.1,4.8,4.8V9.9c0,2.7-2.1,4.8-4.8,4.8
		s-4.8-2.1-4.8-4.8V0z"/>
</symbol>
<path class="st3" d="M23.5,9.3h128.8c7.8,0,14.1,6.4,14.1,14.2v216.6c0,7.8-6.3,14.2-14.1,14.2H23.5c-7.8,0-14.1-6.4-14.1-14.2V23.5
	C9.3,15.7,15.6,9.3,23.5,9.3z"/>
<g>
	<defs>
		<rect id="SVGID_1_" x="14.6" y="23.2" width="23.8" height="23.9"/>
	</defs>
	<clipPath id="SVGID_00000084497412065565132800000001705885492028965297_">
		<use xlink:href="#SVGID_1_"  style="overflow:visible;"/>
	</clipPath>
	
		<g transform="matrix(1 0 0 1 1.907349e-06 0)" style="clip-path:url(#SVGID_00000084497412065565132800000001705885492028965297_);">
		
			<use xlink:href="#VDT"  width="18.9" height="32" x="-9.4" y="-16" transform="matrix(0.7447 0 0 0.7468 26.392 35.0998)" style="overflow:visible;"/>
	</g>
</g>
<g>
	<defs>
		<rect id="SVGID_00000098178505037867859960000003458752674945967275_" x="16.5" y="50.8" width="19.9" height="20"/>
	</defs>
	<clipPath id="SVGID_00000023276223742186214490000015841339908698407851_">
		<use xlink:href="#SVGID_00000098178505037867859960000003458752674945967275_"  style="overflow:visible;"/>
	</clipPath>
	
		<g transform="matrix(1 0 0 1 1.907349e-06 -3.814697e-06)" style="clip-path:url(#SVGID_00000023276223742186214490000015841339908698407851_);">
		
			<use xlink:href="#SDT"  width="22.3" height="24.5" x="-11.2" y="-12.3" transform="matrix(0.7447 0 0 0.7468 26.5115 60.7783)" style="overflow:visible;"/>
	</g>
</g>
<g>
	<defs>
		<rect id="SVGID_00000086691211586072488980000006636354399575808440_" x="16.5" y="50.8" width="19.9" height="20"/>
	</defs>
	<clipPath id="SVGID_00000178163918720521336780000001567013669249145738_">
		<use xlink:href="#SVGID_00000086691211586072488980000006636354399575808440_"  style="overflow:visible;"/>
	</clipPath>
	
		<g transform="matrix(1 0 0 1 1.907349e-06 -3.814697e-06)" style="clip-path:url(#SVGID_00000178163918720521336780000001567013669249145738_);">
		
			<use xlink:href="#SDT"  width="22.3" height="24.5" x="-11.2" y="-12.3" transform="matrix(0.7447 0 0 0.7468 26.5115 60.7783)" style="overflow:visible;"/>
	</g>
</g>
<g>
	<defs>
		<rect id="SVGID_00000017501092663575043030000012750769965648720542_" x="35.6" y="35.7" width="40.2" height="40.3"/>
	</defs>
	<clipPath id="SVGID_00000103262666695812070620000011448079596402063492_">
		<use xlink:href="#SVGID_00000017501092663575043030000012750769965648720542_"  style="overflow:visible;"/>
	</clipPath>
	<g style="clip-path:url(#SVGID_00000103262666695812070620000011448079596402063492_);">
		
			<use xlink:href="#SDT"  width="22.3" height="24.5" x="-11.2" y="-12.3" transform="matrix(0.7447 0 0 0.7468 45.5884 45.7175)" style="overflow:visible;"/>
	</g>
</g>
<g>
	<defs>
		<rect id="SVGID_00000130607198550856067370000003725683007973817780_" x="99.9" y="35.7" width="40.2" height="40.3"/>
	</defs>
	<clipPath id="SVGID_00000054232575229981952700000011919185372796848542_">
		<use xlink:href="#SVGID_00000130607198550856067370000003725683007973817780_"  style="overflow:visible;"/>
	</clipPath>
	<g style="clip-path:url(#SVGID_00000054232575229981952700000011919185372796848542_);">
		
			<use xlink:href="#SDT"  width="22.3" height="24.5" x="-11.2" y="-12.3" transform="matrix(0.7447 0 0 0.7468 109.8809 45.7175)" style="overflow:visible;"/>
	</g>
</g>
<g>
	<defs>
		<rect id="SVGID_00000158004616646388150070000009685092858726678945_" x="35.6" y="86.3" width="40.2" height="40.3"/>
	</defs>
	<clipPath id="SVGID_00000037665742780829299440000013345073403982908335_">
		<use xlink:href="#SVGID_00000158004616646388150070000009685092858726678945_"  style="overflow:visible;"/>
	</clipPath>
	
		<g transform="matrix(1 0 0 1 0 -7.629395e-06)" style="clip-path:url(#SVGID_00000037665742780829299440000013345073403982908335_);">
		
			<use xlink:href="#SDT"  width="22.3" height="24.5" x="-11.2" y="-12.3" transform="matrix(0.7447 0 0 0.7468 45.5884 96.3344)" style="overflow:visible;"/>
	</g>
</g>
<g>
	<defs>
		<rect id="SVGID_00000078025219781190076010000006718334389752103607_" x="99.9" y="86.3" width="40.2" height="40.3"/>
	</defs>
	<clipPath id="SVGID_00000051364382516746309010000017865112816944436099_">
		<use xlink:href="#SVGID_00000078025219781190076010000006718334389752103607_"  style="overflow:visible;"/>
	</clipPath>
	
		<g transform="matrix(1 0 0 1 0 -7.629395e-06)" style="clip-path:url(#SVGID_00000051364382516746309010000017865112816944436099_);">
		
			<use xlink:href="#SDT"  width="22.3" height="24.5" x="-11.2" y="-12.3" transform="matrix(0.7447 0 0 0.7468 109.8809 96.3344)" style="overflow:visible;"/>
	</g>
</g>
<g>
	<defs>
		<rect id="SVGID_00000066483901370201059550000012801096944333116605_" x="67.8" y="61" width="40.2" height="40.3"/>
	</defs>
	<clipPath id="SVGID_00000090978120086465072750000005212366927235976605_">
		<use xlink:href="#SVGID_00000066483901370201059550000012801096944333116605_"  style="overflow:visible;"/>
	</clipPath>
	<g style="clip-path:url(#SVGID_00000090978120086465072750000005212366927235976605_);">
		
			<use xlink:href="#SDT"  width="22.3" height="24.5" x="-11.2" y="-12.3" transform="matrix(0.7447 0 0 0.7468 77.7346 71.026)" style="overflow:visible;"/>
	</g>
</g>
<g transform="rotate(180)">
	<g>
		<defs>
			<rect id="SVGID_00000080885285313849398370000012537886369762582923_" x="-161.2" y="-240.5" width="23.8" height="23.9"/>
		</defs>
		<clipPath id="SVGID_00000073000215198926233220000000536436033185437880_">
			<use xlink:href="#SVGID_00000080885285313849398370000012537886369762582923_"  style="overflow:visible;"/>
		</clipPath>
		<g style="clip-path:url(#SVGID_00000073000215198926233220000000536436033185437880_);">
			
				<use xlink:href="#VDT"  width="18.9" height="32" x="-9.4" y="-16" transform="matrix(0.7447 0 0 0.7468 -149.356 -228.5222)" style="overflow:visible;"/>
		</g>
	</g>
	<g>
		<defs>
			<rect id="SVGID_00000078727662461419036220000004939444018632543623_" x="-159.2" y="-212.8" width="19.9" height="20"/>
		</defs>
		<clipPath id="SVGID_00000003800060829318976390000002487353791662804390_">
			<use xlink:href="#SVGID_00000078727662461419036220000004939444018632543623_"  style="overflow:visible;"/>
		</clipPath>
		<g style="clip-path:url(#SVGID_00000003800060829318976390000002487353791662804390_);">
			
				<use xlink:href="#SDT"  width="22.3" height="24.5" x="-11.2" y="-12.3" transform="matrix(0.7447 0 0 0.7468 -149.2365 -202.8437)" style="overflow:visible;"/>
		</g>
	</g>
	<g>
		<defs>
			<rect id="SVGID_00000074426062651834801850000001893727716098262401_" x="-159.2" y="-212.8" width="19.9" height="20"/>
		</defs>
		<clipPath id="SVGID_00000178898697765657095480000015963315885441645474_">
			<use xlink:href="#SVGID_00000074426062651834801850000001893727716098262401_"  style="overflow:visible;"/>
		</clipPath>
		<g style="clip-path:url(#SVGID_00000178898697765657095480000015963315885441645474_);">
			
				<use xlink:href="#SDT"  width="22.3" height="24.5" x="-11.2" y="-12.3" transform="matrix(0.7447 0 0 0.7468 -149.2365 -202.8437)" style="overflow:visible;"/>
		</g>
	</g>
	<g>
		<defs>
			<rect id="SVGID_00000166671686390749472030000006319890061487119505_" x="-140.1" y="-227.9" width="40.2" height="40.3"/>
		</defs>
		<clipPath id="SVGID_00000183940364064134501690000000338992088733734806_">
			<use xlink:href="#SVGID_00000166671686390749472030000006319890061487119505_"  style="overflow:visible;"/>
		</clipPath>
		
			<g transform="matrix(1 0 0 1 0 -1.525879e-05)" style="clip-path:url(#SVGID_00000183940364064134501690000000338992088733734806_);">
			
				<use xlink:href="#SDT"  width="22.3" height="24.5" x="-11.2" y="-12.3" transform="matrix(0.7447 0 0 0.7468 -130.1597 -217.9045)" style="overflow:visible;"/>
		</g>
	</g>
	<g>
		<defs>
			<rect id="SVGID_00000180327346885034656740000016901866001765411497_" x="-75.8" y="-227.9" width="40.2" height="40.3"/>
		</defs>
		<clipPath id="SVGID_00000098923681560112588070000015934599405494689968_">
			<use xlink:href="#SVGID_00000180327346885034656740000016901866001765411497_"  style="overflow:visible;"/>
		</clipPath>
		
			<g transform="matrix(1 0 0 1 0 -1.525879e-05)" style="clip-path:url(#SVGID_00000098923681560112588070000015934599405494689968_);">
			
				<use xlink:href="#SDT"  width="22.3" height="24.5" x="-11.2" y="-12.3" transform="matrix(0.7447 0 0 0.7468 -65.8672 -217.9045)" style="overflow:visible;"/>
		</g>
	</g>
	<g>
		<defs>
			<rect id="SVGID_00000069386791755480763170000010812014098750156935_" x="-140.1" y="-177.3" width="40.2" height="40.3"/>
		</defs>
		<clipPath id="SVGID_00000175305684797897581600000017884892422809393552_">
			<use xlink:href="#SVGID_00000069386791755480763170000010812014098750156935_"  style="overflow:visible;"/>
		</clipPath>
		<g style="clip-path:url(#SVGID_00000175305684797897581600000017884892422809393552_);">
			
				<use xlink:href="#SDT"  width="22.3" height="24.5" x="-11.2" y="-12.3" transform="matrix(0.7447 0 0 0.7468 -130.1597 -167.2876)" style="overflow:visible;"/>
		</g>
	</g>
	<g>
		<defs>
			<rect id="SVGID_00000169522533737811456680000013613116900658230400_" x="-75.8" y="-177.3" width="40.2" height="40.3"/>
		</defs>
		<clipPath id="SVGID_00000167378913785061307900000010151369880367262112_">
			<use xlink:href="#SVGID_00000169522533737811456680000013613116900658230400_"  style="overflow:visible;"/>
		</clipPath>
		<g style="clip-path:url(#SVGID_00000167378913785061307900000010151369880367262112_);">
			
				<use xlink:href="#SDT"  width="22.3" height="24.5" x="-11.2" y="-12.3" transform="matrix(0.7447 0 0 0.7468 -65.8672 -167.2876)" style="overflow:visible;"/>
		</g>
	</g>
	<g>
		<defs>
			<rect id="SVGID_00000136375872888955884760000012294835826556353961_" x="-108" y="-202.6" width="40.2" height="40.3"/>
		</defs>
		<clipPath id="SVGID_00000157277606145994735880000001090135295258269854_">
			<use xlink:href="#SVGID_00000136375872888955884760000012294835826556353961_"  style="overflow:visible;"/>
		</clipPath>
		
			<g transform="matrix(1 0 0 1 0 -1.525879e-05)" style="clip-path:url(#SVGID_00000157277606145994735880000001090135295258269854_);">
			
				<use xlink:href="#SDT"  width="22.3" height="24.5" x="-11.2" y="-12.3" transform="matrix(0.7447 0 0 0.7468 -98.0134 -192.5961)" style="overflow:visible;"/>
		</g>
	</g>
</g>
</svg>
