<?xml version="1.0" encoding="utf-8"?>
<!-- Generator: Adobe Illustrator 27.9.0, SVG Export Plug-In . SVG Version: 6.00 Build 0)  -->
<svg version="1.1" id="Layer_1" xmlns="http://www.w3.org/2000/svg" xmlns:xlink="http://www.w3.org/1999/xlink" x="0px" y="0px"
	 viewBox="0 0 175.7 263.6" style="enable-background:new 0 0 175.7 263.6;" xml:space="preserve">
<style type="text/css">
	.st0{fill:none;stroke:#000000;stroke-width:0.6129;stroke-linecap:round;stroke-linejoin:round;stroke-miterlimit:10;}
	.st1{fill:none;stroke:#000000;stroke-width:0.3065;stroke-linecap:round;stroke-linejoin:round;stroke-miterlimit:10;}
	.st2{fill-opacity:0;}
	.st3{stroke:#FFFFFF;stroke-width:2.2307;stroke-linecap:round;stroke-linejoin:round;stroke-miterlimit:10;}
	.st4{fill:#FF0000;fill-opacity:0;}
	.st5{fill:#FF0000;stroke:#FFFFFF;stroke-width:6;stroke-linecap:round;stroke-linejoin:round;stroke-miterlimit:10;}
	.st6{fill:none;stroke:#FFFFFF;stroke-width:2.56;stroke-linecap:square;stroke-miterlimit:10;}
	.st7{fill:#272727;stroke:#000000;}
	.st8{fill:#FFFFFF;}
	.st9{fill:none;stroke:#FFFFFF;}
</style>
<symbol  id="DQ1" viewBox="-52.4 -57.9 104.9 115.7">
	<path d="M15.5-57.9l-1.8,0.3c-0.2,0.4-0.3,0.9-0.3,1.5c0,1.3,0.6,2.4,1.3,2.4s1.3-1.1,1.3-2.4C15.9-56.8,15.7-57.4,15.5-57.9z
		 M-0.1-57.8c-0.7,0-1.3,1.1-1.3,2.4c0,0,0,0,0,0c0,1.3,0.6,2.4,1.3,2.4c0,0,0,0,0,0c0.7,0,1.3-1.1,1.3-2.4c0,0,0,0,0,0
		C1.2-56.7,0.6-57.8-0.1-57.8C-0.1-57.8-0.1-57.8-0.1-57.8z M-23.5-39.9l-0.3,1c4.5,1.6,8.9,2.9,13.3,3.9l-1.3-1.3
		C-15.7-37.4-19.5-38.5-23.5-39.9z M20.1-35.3c-2.7,0.5-5.3,0.8-7.8,1l-0.7,1.1c3.1-0.2,6.3-0.6,9.6-1.2L20.1-35.3z M-38.4-19.9
		c-2.4,1.5-4.9,2.8-7.5,3.7L-52.4-7v18.6l27-27C-29.8-16.7-34.2-18.2-38.4-19.9z M40.3-18.7c-3,3.6-4.9,8.6-4.9,14.2
		c0,4.5,1.2,8.7,3.3,12L52.3-8.9L40.3-18.7z M5-13.4L15.2,7.9c1.1-0.1,2.3-0.2,3.4-0.3l-10.2-21C7.2-13.4,6.1-13.4,5-13.4z
		 M-14.2-12.6c4.4,0.9,9,1.5,13.6,1.9L-14.2-12.6z M8.3-10.9c0.6,0,1,0.5,1,1c0,0.6-0.5,1-1,1s-1-0.5-1-1
		C7.3-10.5,7.8-10.9,8.3-10.9z M10.6-6.2c0.6,0,1,0.5,1,1s-0.5,1-1,1c-0.6,0-1-0.5-1-1S10.1-6.2,10.6-6.2z M12.9-1.4
		c0.6,0,1,0.5,1,1s-0.5,1-1,1c-0.6,0-1-0.5-1-1S12.4-1.4,12.9-1.4z M15.2,3.4c0.6,0,1,0.5,1,1s-0.5,1-1,1c-0.6,0-1-0.5-1-1
		S14.6,3.4,15.2,3.4z M41.3,10.9c-0.4,0-0.8,0.3-0.8,0.8l0,0c0,0.4,0.3,0.8,0.8,0.8l0,0c0.4,0,0.8-0.3,0.8-0.8l0,0
		C42.1,11.3,41.8,10.9,41.3,10.9L41.3,10.9z M43.1,12.9l-3.8,1l-0.5,1l1.3,3.1l-3.5,1.8l-0.3,1.1l1.8,3.3l-3,2.5L35,27.7l2.5,3
		l-2.4,3.5l0.2,1l3.2,2.5l-1.6,3.8l0.4,1l3.7,1.6l-0.6,4.2l0.6,0.9L45,50l0.3,4.1l0.7,0.7l4.9,0.5l-0.3,2.6l1.7-1.6l0.2-1.6
		l-0.7-0.8l-5-0.5l-0.3-4l-0.6-0.7L42,47.9l0.5-4.1L42.1,43l-3.5-1.6l1.5-3.7l-0.2-0.9l-3.1-2.4l2.3-3.4l0-0.9l-2.4-2.8l2.9-2.4
		l0.2-1L38,20.8l3.4-1.8l0.4-1l-1.2-2.9l3.4-0.9c0.1,0,0.2-0.1,0.3-0.2L43.1,12.9z M38,16.7c-0.4,0-0.8,0.3-0.8,0.8l0,0
		c0,0.4,0.3,0.8,0.8,0.8l0,0c0.4,0,0.8-0.3,0.8-0.8l0,0C38.7,17.1,38.4,16.7,38,16.7L38,16.7z M36,23.1c-0.4,0-0.8,0.3-0.8,0.8l0,0
		c0,0.4,0.3,0.8,0.8,0.8l0,0c0.4,0,0.8-0.3,0.8-0.8l0,0C36.8,23.4,36.4,23.1,36,23.1L36,23.1z M35.4,30c-0.4,0-0.8,0.3-0.8,0.8l0,0
		c0,0.4,0.3,0.8,0.8,0.8l0,0c0.4,0,0.8-0.3,0.8-0.8l0,0C36.2,30.3,35.9,30,35.4,30L35.4,30z M36.4,37.5c-0.4,0-0.8,0.3-0.8,0.8l0,0
		c0,0.4,0.3,0.8,0.8,0.8l0,0c0.4,0,0.8-0.3,0.8-0.8l0,0C37.2,37.8,36.9,37.5,36.4,37.5L36.4,37.5z M39.2,44.6
		c-0.4,0-0.8,0.3-0.8,0.8l0,0c0,0.4,0.3,0.8,0.8,0.8l0,0c0.4,0,0.8-0.3,0.8-0.8l0,0C40,45,39.6,44.6,39.2,44.6L39.2,44.6z
		 M43.5,50.6c-0.4,0-0.8,0.3-0.8,0.8l0,0c0,0.4,0.3,0.8,0.8,0.8l0,0c0.4,0,0.8-0.3,0.8-0.8l0,0C44.2,51,43.9,50.6,43.5,50.6
		L43.5,50.6z M49.4,56c-0.4,0-0.8,0.3-0.8,0.8l0,0c0,0.4,0.3,0.8,0.8,0.8l0,0c0.4,0,0.8-0.3,0.8-0.8C50.2,56.3,49.8,56,49.4,56z"/>
</symbol>
<symbol  id="DQ2" viewBox="-52.4 -46.8 104.8 93.5">
	<path d="M52.4,21.9l-2.6-2.1c-1.1,1.3-2.1,3.6-2.1,6.4c0,0.4,0,0.8,0.1,1.2L52.4,21.9z M43,33.2c-0.9-2-1.4-4.4-1.4-6.9
		c0-4.2,1.4-7.9,3.5-10.3l-2.3-2c-2.5,3-4.2,7.4-4.2,12.3c0,3.5,0.9,6.8,2.3,9.5 M37.8,16c-7.4,2.1-14.5,3.4-21.3,4l8.3,17.3
		l-3.1,0.6l-10-20.7c9-0.4,18.5-2,28.6-5.2 M8.4,38.6l-8.9-18.4c-4.6-0.4-9.2-1-13.6-1.9c-1.7-1.6-3.5-3.1-5.5-4.4
		c6.8,1.7,13.8,2.9,21,3.3l10.4,21.5C10.8,38.7,9.6,38.7,8.4,38.6L8.4,38.6z M37.8,39.6C26.5,44.1,13.2,46.7-2.8,43l-0.3-3.2
		c16.4,4.1,29.4,1.3,40.9-3.4l1.1,1.9L37.8,39.6z M-52.4,46.8l32.9-32.9c-5.4-1.4-10.7-3.1-15.8-5.1c-0.9,0.7-1.9,1.4-2.9,2.1
		c4.2,1.7,8.5,3.2,12.9,4.5l-27,27 M-19.8-35.8l-0.9-4.9l4.6-0.5l-0.5-5.1l4.5-0.5 M-24.3-29.3l-0.9-4.7l4.9-0.9 M-28.4-23.5l-1-4.3
		l4.7-0.9 M-32-18.4l-1-3.8l4.3-1 M-35.6-13.3l-1.4-4.3l4.8-0.5 M15.1-8.8c0.4-1,0.8-2,1-2.7c0.6-2.5,0.9-6,1-8.8
		c0.4,0.5,0.7,1.1,1.1,1.8c2.5,4.7,4.4,9.8,5.4,16.7L15.1-8.8z"/>
</symbol>
<symbol  id="DQ3" viewBox="-66.7 -69.8 133.4 139.5">
	<path class="st0" d="M-16.9,26c14.6,3.3,27.2,1.4,37.9-2.2 M-16.9,22.9c16.1,3.8,29.3,1.1,40.6-3.3 M-14.5,0l8.9,18.4 M10.8,17.2
		L2.5-0.1 M24.8,18.2c-2.1-3.3-3.3-7.5-3.3-12c0-5.6,1.9-10.6,4.9-14.2 M45.7,59.5c-2.4-25-11.3-28.3-21-41.4L38.3,1.8 M66.4,24.9
		L1.1-28.9 M-33.6-6.3l-32.8,32.8 M-33.6-6.3c10.1,6.6,16.7,17.9,16.7,30.8c0,8.6-3,16.5-7.9,22.7 M-49.4-11.4
		C-26.7-2.7-2.9,1.1,26.3-8.1 M2.5-0.1c6.8-0.6,13.9-1.9,21.3-4 M-28.1-1.9c4.4,0.9,9,1.5,13.6,1.9 M-52.4-9.2
		c4.3,1.7,8.6,3.2,13,4.5 M23.5-10.4c-27,8.1-49,4.7-70.4-3.3 M19.2-14c-23.9,6.5-43.4,3.6-62.8-3.4 M16.3-16.4
		c-22,5.5-39.9,2.9-58.1-3.6 M13.3-18.8c-20.1,4.6-36.6,2.2-53.5-3.9 M-11.1-19.5c-9.5-0.5-18.5-2.6-27.8-5.9 M10.3-21.3
		C5-20.2-0.1-19.6-5-19.5 M-12.5-2.9l10.4,21.5 M7.7,17.8l-10-20.7 M-9-2.7L1.2,18.5 M4.5,18.3l-10.1-21 M-17.8,16.3
		c16.4,4.5,28.9,1.8,40.4-2.9 M-17.2,19.6c16.4,4.1,29.4,1.3,40.9-3.4 M-66.4,3.7L-15-69.4 M-35-41.1c-2,19.6-12.3,31.1-24.9,35.5
		 M-17.1,29.1c6,1.3,11.7,1.8,17.1,1.6 M-16.9,27c6,1.3,11.6,1.8,16.9,1.7 M-17,28.1c6,1.3,11.7,1.8,17,1.6 M-17.3,30.1
		c6.1,1.3,11.8,1.8,17.3,1.6 M0,34.7c-7,0.2-13.5,1.4-19.4,3.2 M-17.4,31.1c6.1,1.3,11.9,1.8,17.5,1.7 M0,32.7
		c-6.7,0.2-12.9,1.3-18.5,2.9 M0,36.7c-7.5,0.2-14.3,1.6-20.5,3.6 M0,35.7c-7.2,0.2-13.8,1.5-19.9,3.4 M0,33.7
		c-6.8,0.2-13.1,1.3-18.9,3 M-17.6,32.1c1.7,0.4,3.4,0.7,5,0.9 M-12.5,33c-1.9,0.4-3.8,0.8-5.7,1.3 M33.8,7.3c0-0.4-0.1-0.8-0.1-1.2
		c0-2.8,1-5.1,2-6.4 M29,13.1c-0.9-2-1.4-4.4-1.4-6.9c0-4.2,1.4-7.9,3.5-10.3 M26.8,15.7c-1.5-2.7-2.3-6-2.3-9.5
		c0-4.9,1.7-9.2,4.2-12.3 M48.5,56.7c-1.4-11.4-4.3-18.5-8-24.1c-3.6-5.4-7.7-9.2-11.8-14.4L38.8,6.1 M38.8,6.1l27.6,22.7
		 M42.4,62.8l-2.1-1.4C33.5,57,29.1,49.5,29.1,40.9c0-4.8,1.4-9.2,3.7-13 M40.2,65l-1.6-1C31,59,26,50.6,26,40.9
		c0-5.7,1.7-11,4.7-15.4 M35.8,69.4l-0.5-0.3c-9.3-6-15.4-16.4-15.4-28.2c0-7.6,2.5-14.6,6.8-20.2 M44.1,49
		c-3.5-0.2-6.3-3.3-6.3-7.1c0-1.8,0.6-3.5,1.8-4.9 M45.5,7.7C45.9,6.1,46.9,1.3,49,0c2.6-1.6,3.5-1.2,6.3-3.1c3.2-2.2,6.2,0,2,2.6
		c-3.5,2.1-3.3,1.6-4.8,2.1c1.5,3.6,1,6.1-1,7.2 M59.2,0.3c4.5-1.6,6.9,0.3,1,2.3C51.8,5.4,53,2.5,59.2,0.3L59.2,0.3 M59.4-2.6
		c4-1.3,6,0.6,0.5,2.5c-2.9,1-4.6,1.3-5.4,1.1 M59.9,2.7C64.3,1,66.6,3,60.9,5C52.7,7.8,53.9,4.9,59.9,2.7L59.9,2.7 M60.9,5.1
		c3.9-1.4,5.9,0.6,0.8,2.3C54.4,9.9,55.6,7.1,60.9,5.1L60.9,5.1 M60.6,9.8c0.9-1,1.6-1.9,1.8-2.6 M54.2,14.8
		c1.5-0.9,3.5-2.4,5.2-3.8 M58,8.4c1.4,2.9,3.5,5.2,1.5,10.9 M60.8,20.2c1.3-3.4,1.3-6,0.7-8.1c-0.5-1.6-1.2-2.9-1.8-4 M52.1-16.3
		c-1.5-5.6-8.7,1.5-3.1,3.1c-5.6,1.5,1.5,8.7,3.1,3.1c1.5,5.6,8.7-1.5,3.1-3.1C60.8-14.8,53.6-21.9,52.1-16.3L52.1-16.3 M53.7-13.3
		c0,0.9-0.7,1.7-1.7,1.7c-0.9,0-1.7-0.7-1.7-1.7c0,0,0,0,0,0c0-0.9,0.7-1.7,1.7-1.7h0C53-14.9,53.7-14.2,53.7-13.3L53.7-13.3
		 M49.3-18.3c-3.7-7.5,9.3-7.5,5.6,0 M57.2-16.1c7.5-3.7,7.5,9.3,0,5.6 M54.9-8.2c3.7,7.5-9.3,7.5-5.6,0 M47-10.5
		c-7.5,3.7-7.5-9.3,0-5.6 M49-13.3h-4.6 M44.9-13.3c0,0.3-0.2,0.5-0.5,0.5s-0.5-0.2-0.5-0.5s0.2-0.5,0.5-0.5S44.9-13.5,44.9-13.3
		L44.9-13.3 M52.1-16.3v-4.6 M52.1-20.4c-0.3,0-0.5-0.2-0.5-0.5c0-0.3,0.2-0.5,0.5-0.5c0.3,0,0.5,0.2,0.5,0.5
		C52.6-20.6,52.4-20.4,52.1-20.4L52.1-20.4 M55.2-13.3h4.6 M59.2-13.3c0-0.3,0.2-0.5,0.5-0.5c0.3,0,0.5,0.2,0.5,0.5
		s-0.2,0.5-0.5,0.5C59.5-12.7,59.2-13,59.2-13.3L59.2-13.3 M52.1-10.2v4.6 M52.1-6.1c0.3,0,0.5,0.2,0.5,0.5c0,0.3-0.2,0.5-0.5,0.5
		c-0.3,0-0.5-0.2-0.5-0.5C51.6-5.9,51.8-6.1,52.1-6.1L52.1-6.1 M53.3-14.4l1.4-1.4 M55.2-15.8c0,0.3-0.2,0.5-0.5,0.5
		c-0.3,0-0.5-0.2-0.5-0.5s0.2-0.5,0.5-0.5C54.9-16.3,55.2-16.1,55.2-15.8L55.2-15.8 M53.3-12.1l1.4,1.4 M54.7-10.2
		c-0.3,0-0.5-0.2-0.5-0.5s0.2-0.5,0.5-0.5c0.3,0,0.5,0.2,0.5,0.5S54.9-10.2,54.7-10.2L54.7-10.2 M50.9-14.4l-1.4-1.4 M49-15.8
		c0,0.3,0.2,0.5,0.5,0.5c0.3,0,0.5-0.2,0.5-0.5s-0.2-0.5-0.5-0.5C49.3-16.3,49-16.1,49-15.8L49-15.8 M50.9-12.1l-1.4,1.4 M49.5-10.2
		c0.3,0,0.5-0.2,0.5-0.5s-0.2-0.5-0.5-0.5c-0.3,0-0.5,0.2-0.5,0.5S49.3-10.2,49.5-10.2L49.5-10.2 M53.1-2.7L53.5-2 M54.7-3.6
		l0.4,0.6 M50-0.5C46.8-2.4,43.2-3.2,39.3-3 M50-0.5c-4.7-4.1-9.4-7-14.3-2C39.8-2,41.3,2,49.8-0.4 M58.2-4.1
		c1.7-2.4,3.6-4.2,6.6-3.6c-0.4,2.3-2.6,3.5-5.1,4.6 M1.1-69.4C13.7-52.1,25.1-40.9,26.4-8.1 M-0.8-66.8
		c12.1,16.5,22.2,26.6,23.9,56.1 M3.3-45.8c4.8,7.2,8.2,14.6,9.8,26.9 M3-40.6c0.4,0.6,0.7,1.2,1.1,1.9c2.5,4.7,4.4,9.8,5.6,16.9
		 M-66.4-9.6l42.1-59.9 M-1.7-69.4c1.3,3.8,5.8,16.6,5.8,18.4c0,2-1,6.1-1,7.2c0,1,0,8.2-1,12.3s-6.1,13.3-9.2,13.3
		s-7.2-3.5-10.2-3.1c-7.2,1.1-14.6-12.9-13.3-13.3c0,0-0.5,1.1-1,1c-1.8-0.3-2.9-3.3-3.5-5.5 M-49.6-33.4c-3.4-4-9.5-4.3-15.7-4.3
		c2.5-1.2,5.7-1.4,7.2-4.1c2,1.3,4.5,1.2,7.2,0.7 M-54.4-36.5c7.7-11,15.4-22,23.2-33 M-54.4-36.5L-54.4-36.5 M-61.3-37.7
		c0.1-0.1,0.3-0.1,0.4-0.2c1.1-0.4,2.2-1.1,3.1-2.1c1.7,0.7,3.6,0.7,5.5,0.5 M-57.2-60.2c5.1,5.1-0.7,12.7,3,15.3
		c5.2,3.5,7.8-2.9,4.9-4.8c-2.7-1.8-4.9,2-2.8,2.8c1.4,0.6,2,0,2-1 M-57.2-60.2c5.7,4.3,11.2-2.8,14.5,0.5c3.8,3.8-1.2,7.6-3.3,5.4
		c-2.3-2.4,1.1-5.4,2.4-3.2c0.8,1.4,0,2-1,1.7 M-47-47c1.7-3-1.9-4.9-4.1-7.2c2.8,1.1,5.6,3.5,8.2,1 M-38.8-58.6
		c-0.4-4.1-3.2-7.4-5.5-10.8 M-37.6-60.4c-0.8-3.4-3-6.3-4.9-9.1 M-33.8-55.9l-0.9-4.9l4.6-0.5l-0.5-5.1l4.5-0.5 M-38.4-49.4
		l-0.9-4.7l4.9-0.9 M-42.5-43.6l-1-4.3l4.7-0.9 M-46-38.5l-1-3.8l4.3-1 M-49.6-33.4l-1.4-4.3l4.8-0.5 M-49.6-33.4L-49.6-33.4
		 M-24.1-56.5c8.3-2,12.4-7.3,16.1-13 M-13.5-69.4c-1.7,2.4-3.4,4.4-5.7,5.9 M-11.7-69.4c-2.5,3.7-5.2,6.8-9.5,8.7 M-9.8-69.4
		c-3.2,4.8-6.6,8.9-12.9,11 M2.1-58.2c-4.3-2.8-7.2-6.9-9.7-11.3 M-2.2-69.4c0.4,0.6,0.7,1.1,1.1,1.6 M-4-69.4
		c1.3,2.1,2.7,4.1,4.3,5.7 M-5.8-69.4c2,3.4,4.1,6.4,7.1,8.7 M-31.7-42.4c1,5.6-1.5,4.6,0,2.6 M-23-49c3.3-2.2,6.7-4.4,13.3,0
		c-0.2-0.1,0.2,0.5,0,0.4C-13.3-51.1-17.8-52.3-23-49L-23-49 M-4.6-49.5c3.2-3.8,6.1-2,8.7-1c-2.6-0.5-6.1-2-8.7,1.5V-49.5
		L-4.6-49.5 M-4.6-49.5c-1,9.2,2.1,9.8,2,15.3c0,1-3.1,0.5-3.1,2 M-9.2-36.8c-2.2,0-5.3,3.5-1,3.6c0.7,0,1.8-1.1,2.3-1
		c3.9,0.3-0.1,0.5-1.2,0.5 M-12.8-29.6v1l0.5-0.5L-12.8-29.6L-12.8-29.6 M-2-29.6v1l-0.5-0.5L-2-29.6L-2-29.6 M-2.6-29.1
		c-0.5,0-2.6-0.5-3.1-0.5s-1,0.5-1.5,0.5s-1.5-0.5-2-0.5c0,0,0.5,0,0,0s-2,0.5-3.1,0.5 M-9.2-27c0.5,1.5,4.1,1.5,4.1,0 M-22-44.4
		c2.9,1,5-2.6,7.7-2.6c3.1,0,4.6,3.4,5.1,3.1 M-18.9-44.9c2.3,5.6,8.7,0,9.7,1 M3.6-46.5c-3.3-2.3-6.6,1.5-8.2,2
		c1.5,0,6.6,3.6,7.9-1.4 M-30.7-34.6C-30.7-34.6-30.7-34.6-30.7-34.6 M-30.6-33.4c-0.3-0.1-0.6-0.2-0.9-0.3 M-24.4-24.4
		c-4.4-1-8.8-2.3-13.3-3.9 M-33.8-35.6c-0.5-0.2-1.1-0.4-1.6-0.6 M-32.5-34.1c-1.1-0.4-2.2-0.7-3.3-1.1 M-30.1-32.2
		c-2-0.6-3.9-1.3-6-2 M-29.4-31c-2.2-0.7-4.5-1.4-6.8-2.2 M-28.7-29.7c-2.6-0.7-5.2-1.6-7.8-2.5 M-27.8-28.4c-3-0.8-5.9-1.7-9-2.8
		 M-26.9-27.1c-3.4-0.9-6.8-1.9-10.2-3.1 M-25.8-25.8c-3.9-0.9-7.7-2.1-11.7-3.5 M7.2-23.8c-3.3,0.6-6.5,1-9.6,1.2 M1.9-28.2
		c-0.4,0.1-0.8,0.1-1.3,0.1 M3-27.3c-1,0.1-1.9,0.2-2.9,0.3 M4.1-26.4c-1.5,0.2-3,0.4-4.5,0.5 M5.2-25.5C3.1-25.2,1-25-1-24.8
		 M6.2-24.7c-2.7,0.5-5.3,0.8-7.8,1 M-44.9-13l1.5-4.8 M-36.1-24.5l-4.6,12.9 M-32.5-23.4l-3.8,13.2 M-28.4-22.2l-3.3,13.3
		 M-24.7-21.3l-2.1,13.5 M-22.3-7c0.4-4.5,0.7-9.2,1.1-13.7 M-17.8-6.4l0.4-13.7 M-13.3-6l-0.4-13.7 M-8.8-5.8l-1.6-13.5 M-4.5-5.8
		l-2.7-12.6 M0.2-6l-4.6-13.4 M4.1-6.4L-1-19.7 M8.8-7L2.7-20 M13.5-7.9L6-20.5 M19-9.2L8.9-21 M-41.3-32.1c0.2,3.8-0.2,8-0.7,12.4
		 M-39.7-34.3c0.1,3.7-0.2,7.8-0.7,12 M-38.2-36.4c0.1,3.3-0.1,6.9-0.5,10.6 M-43-29.7c0.2,3.8-0.2,8-0.7,12.3 M-44.5-27.5
		c0.2,3.7-0.2,7.8-0.6,12 M-46-25.3c0.1,3.5-0.1,7.4-0.6,11.4 M-47.5-23.2c0.1,3.3-0.1,6.9-0.5,10.6 M-49.1-21
		c0.1,3-0.1,6.3-0.4,9.6 M-50.6-18.8c0.1,2.7,0,5.6-0.3,8.5 M-52.2-16.6c0.1,2.3,0,4.7-0.1,7.3 M-53.7-14.4c0.1,1.9,0.1,3.9-0.1,6
		 M-55.6-11.7c0,1.4,0,2.9,0,4.4 M-57.1-9.6c0,0.9,0,1.9,0,2.9 M-36.7-38.6c0.1,2.5,0,5.1-0.2,7.8 M45.7,59.5
		c-2.4-25-11.3-28.3-21-41.4L38.3,1.8 M39.2,46.3l-5.9,4.3c-0.8,0.8-0.8,2.1,0,2.9c0.8,0.8,2.1,0.8,2.9,0l4.9-5.5 M37.5,33.7
		l-3.2-2.3c-0.3-0.2-0.7-0.4-1.1-0.4c-0.9,0-1.7,0.5-2,1.4c-0.3,0.9,0,1.8,0.8,2.3l6.6,4.1 M38.5,38.7l-6.1-2.8
		c-0.2-0.1-0.4-0.1-0.6-0.1c-1,0-1.9,0.8-2,1.8c-0.1,1,0.5,2,1.5,2.2l6.6,1.5 M37.8,41.3l-6.2-0.5c-1.1,0.1-2,1.1-1.9,2.2
		c0.1,1.1,1.1,2,2.2,1.9l6.2-1.1 M38,43.8l-6.3,1.6c-1.1,0.4-1.6,1.6-1.1,2.7s1.7,1.5,2.7,1.1l5.8-2.9 M41.1,48.1l-4.8,7.6
		c-0.5,1,0,2.3,1,2.7s2.3,0,2.7-1l3-8.4 M43,48.9l-2.6,10.7c-0.2,1.1,0.7,2.2,1.8,2.3c1.1,0.1,2.2-0.7,2.3-1.8l0.6-5.5 M50.6,28.1
		c1,3.6-3.6,6.1-4.6-1c-1,7.2-5.6,4.6-4.6,1c-3.6,1-6.1-3.6,1-4.6c-7.2-1-4.6-5.6-1-4.6c-1-3.6,3.6-6.1,4.6,1c1-7.2,5.6-4.6,4.6-1
		c3.6-1,6.1,3.6-1,4.6C56.7,24.5,54.1,29.1,50.6,28.1L50.6,28.1 M63.3,42.1c-1-7.2-5.6-4.6-4.6-1c-3.6-1-6.1,3.6,1,4.6 M55.2,42.8
		c-2-0.7-3.8-1.7-5.3-3c-2.6-2.4-4.2-5.9-4.2-11.7 M43.9,31.4c0.5,4.5,2.2,7.7,4.7,9.9c2.8,2.6,6.6,3.9,10.6,4.6 M64.7,40.5
		c-0.7-3.8-1.8-7.4-4-10.4c-1.8-2.4-4.3-4.3-7.7-5.5 M53.8,27.1c2.3,1,3.9,2.5,5.2,4.2c1.5,2,2.5,4.5,3.1,7.3 M29.3,19
		c0.3,0.3,0.6,0.6,0.9,0.9c2.5,2.3,5.8,3.6,9.4,4.4 M38.3,21.8c-2.6-0.7-4.9-1.8-6.7-3.4c-0.6-0.5-1.1-1.1-1.6-1.8 M37.9,7.1
		c1.1,0.8,2,1.7,2.8,2.8c1.2,1.6,2,3.4,2.6,5.5 M46.2,18.6c-0.6-3.3-1.6-6.4-3.4-9.1 M38.8,14.8c0,0.8-0.7,1.5-1.5,1.5l0,0
		c-0.8,0-1.5-0.7-1.5-1.5l0,0c0-0.8,0.7-1.5,1.5-1.5C38.1,13.3,38.8,14,38.8,14.8L38.8,14.8 M55.2,34.8c0,0.8-0.7,1.5-1.5,1.5l0,0
		c-0.8,0-1.5-0.7-1.5-1.5l0,0c0-0.8,0.7-1.5,1.5-1.5l0,0C54.5,33.2,55.2,33.9,55.2,34.8L55.2,34.8L55.2,34.8 M52.1,48
		c0,0.8-0.7,1.5-1.5,1.5c-0.8,0-1.5-0.7-1.5-1.5c0-0.8,0.7-1.5,1.5-1.5l0,0C51.4,46.5,52.1,47.2,52.1,48L52.1,48L52.1,48 M59.3,45.5
		L59,45.9 M63.2,41.2l-3.8,4.4 M64.5,39.6l-1.4,1.6 M66.4,37.5l-1.9,2.1 M57.3,45.6l-8.9,10.2 M66.4,35.2l-2.3,2.6 M55.6,45.1
		l-7.6,8.6 M62,37.9l-0.2,0.2 M66.4,32.9L63.6,36 M49.8,49.4l-2.1,2.4 M54.1,44.6l-2.3,2.6 M58.7,39.3l-1.4,1.6 M61.5,36.1l-1.2,1.4
		 M66.4,30.5L63,34.4 M49,48l-1.7,1.9 M52.6,44l-2.3,2.6 M60.9,34.5L54,42.3 M66.1,28.6l-3.7,4.2 M51.2,43.2L47,48 M60.1,33
		l-7.6,8.6 M64.9,27.6l-3.3,3.8 M49.9,42.4l-3.4,3.8 M59.3,31.7l-8.1,9.2 M63.7,26.6l-3,3.4 M48.7,41.4L46,44.5 M53.2,36.2L50,39.9
		 M58.3,30.4L55,34.2 M62.5,25.7l-2.8,3.2 M47.6,40.3l-2.1,2.4 M52.2,35.2L49,38.8 M57.3,29.3l-3.4,3.9 M61.3,24.7l-2.7,3.1
		 M46.6,39.1l-1.8,2 M56.1,28.4l-8,9.1 M60.2,23.7l-2.8,3.1 M45.8,37.7l-1.6,1.8 M54.7,27.6l-7.5,8.5 M59,22.8L56.1,26 M45.1,36.2
		L43.5,38 M49.2,31.6l-2.5,2.9 M52.1,28.2l-1.5,1.7 M57.8,21.8l-3.1,3.6 M44.5,34.6l-1.8,2 M47.6,31.1l-1.4,1.6 M53.2,24.7
		L53.2,24.7 M56.6,20.8l-3.5,3.9 M44.1,32.7L42,35.1 M46.7,29.8l-0.8,0.9 M55.4,19.8L51.7,24 M43,31.6l-1.9,2.1 M45.8,28.5l-0.1,0.1
		 M46.2,28.1l-0.4,0.4 M50.3,23.4l-0.2,0.2 M54.2,18.9l-0.6,0.7 M41.7,30.8l-1.4,1.6 M53.1,17.9l-0.8,1 M41.2,29l-1.9,2.1
		 M51.9,16.9l-1.2,1.3 M39.9,28.2l-1.4,1.6 M50.7,15.9l-0.4,0.4 M38.4,27.6l-0.9,1.1 M42,23.5l-0.1,0.2 M46.2,18.7l-0.4,0.4
		 M49.5,15l-0.4,0.5 M38,25.8l-1.5,1.7 M38.9,24.7l-1,1.1 M39.3,24.2l-0.4,0.5 M48.3,14l-2.5,2.8 M37.7,23.8l-2.2,2.5 M47.1,13
		l-1.8,2 M36.1,23.3l-1.6,1.8 M37.9,21.2l-0.4,0.4 M41.3,17.3L40,18.8 M43.2,15.1L43,15.4 M46,12l-1.2,1.3 M34.6,22.7l-1.1,1.2
		 M42.6,13.5L36,21.1 M44.8,11.1l-0.6,0.7 M33.1,22l-0.7,0.8 M41.9,12l-7.4,8.4 M43.6,10.1l-0.2,0.2 M31.8,21.2l-0.4,0.4 M36.3,16
		l-3.2,3.6 M41.1,10.6l-2.8,3.2 M30.6,20.2l-0.1,0.2 M35.9,14.2l-4,4.5 M36.5,13.5l-0.6,0.6 M40.2,9.3l-3.7,4.3 M29.5,19.2
		L29.5,19.2 M39.2,8.2l-8.3,9.5 M-39.4-4.7l-27,27"/>
</symbol>
<symbol  id="DQ4" viewBox="-63 -43.6 126 87.2">
	<path class="st1" d="M59.7,6.9c0.5,0.6,0.7,1.3,0.5,2 M60.2,9.4c0.5,0.6,0.7,1.3,0.5,2 M61.4,11.8c0.5,0.6,0.7,1.3,0.5,2 M59.2,2.3
		c0.1,1.5,4.1,0,3.6-0.5 M-6.7-17.7c1.6-0.8,3.1-1.5,4.6-1 M-7.2-36.5c-0.8,1.1-2.4,1.3-4.1,1.5 M3-36c1.7,0.2,2-0.2,2.6-0.5
		 M-17.4-41.1c2.6,0,5-4.3,9.2,0 M-1.2-40.8C0-41.1,3.3-46,7.1-41.7 M-9-41.2c0.2,0.4,0.3,0.9,0.3,1.4c0,1.6-0.9,2.8-2,2.8
		c-1.1,0-2-1.3-2-2.8c0-0.5,0.1-0.9,0.2-1.3 M6-41.7c0.1,0.3,0.1,0.7,0.1,1c0,1.6-0.9,2.8-2,2.8s-2-1.3-2-2.8c0-0.1,0-0.3,0-0.4
		 M16.2-4c1.7-0.3,3.5-0.7,5.2-1.2 M-1.3-2c1.5,0,3-0.1,4.5-0.2 M-9.8-2.2C-8.4-2.1-6.9-2-5.5-2 M-18.6-3.2c1.4,0.2,2.9,0.4,4.4,0.6
		 M-27.8-5.1c1.6,0.4,3.2,0.8,4.8,1.1 M-36.7-7.6c1.4,0.5,2.9,0.9,4.3,1.3 M15.7-4.9C17.3-5.2,19-5.6,20.7-6 M-1.5-3
		C0-3,1.4-3.1,2.9-3.2 M-9.8-3.2C-8.4-3.1-7-3.1-5.6-3 M-18.5-4.2c1.4,0.2,2.9,0.4,4.3,0.6 M-27.6-6.1c1.6,0.4,3.1,0.7,4.7,1.1
		 M-36.3-8.6c1.4,0.5,2.8,0.9,4.2,1.3 M-26.6-10c-1.5-0.4-2.9-0.8-4.4-1.2 M-18.2-8.3c-1.4-0.2-2.7-0.5-4-0.8 M-10-7.3
		c-1.4-0.1-2.8-0.2-4.1-0.4 M-2.4-7.1c-1.3,0-2.5,0-3.7,0 M13.5-8.6C12.1-8.4,10.7-8.2,9.4-8 M12.3-10.5c1.3-0.2,2.6-0.5,3.9-0.8
		 M-2.8-9.1c1.2,0,2.4,0,3.6-0.1 M-10-9.3c1.2,0.1,2.5,0.2,3.7,0.2 M-18-10.3c1.3,0.2,2.7,0.4,4,0.6 M-26.1-12
		c1.4,0.3,2.8,0.7,4.2,1 M-34.3-14.4c1.3,0.4,2.6,0.8,3.9,1.2 M-25.1-15.9c-1.4-0.4-2.8-0.7-4.1-1.1 M-17.7-14.3
		c-1.2-0.2-2.4-0.4-3.6-0.7 M-10.1-13.4c-1.3-0.1-2.5-0.2-3.8-0.4 M-4.4-13.1c-0.8,0-1.6,0-2.4-0.1 M10.1-14.2
		c-1.1,0.2-2.3,0.3-3.4,0.5 M15.1-5.8c1.6-0.3,3.2-0.7,4.9-1.1 M-1.7-4c1.4,0,2.8-0.1,4.2-0.2 M-9.9-4.2C-8.5-4.1-7.1-4.1-5.7-4
		 M-18.4-5.2c1.4,0.2,2.8,0.4,4.2,0.6 M-27.3-7.1c1.5,0.4,3.1,0.7,4.6,1.1 M-36-9.6c1.4,0.5,2.8,0.9,4.2,1.3 M-26.8-9
		c-1.5-0.4-2.9-0.8-4.4-1.2 M-22.4-8c-1.5-0.3-3-0.6-4.4-1 M-18.3-7.3C-19.6-7.5-21-7.7-22.4-8 M-9.9-6.3c-1.4-0.1-2.8-0.2-4.2-0.4
		 M-2.1-6c-1.3,0-2.6,0-3.8,0 M14-7.7C12.6-7.4,11.2-7.2,9.8-7 M11.8-11.4c1.2-0.2,2.5-0.5,3.8-0.7 M-3-10.1c1.2,0,2.3,0,3.5-0.1
		 M-10.1-10.3c1.2,0.1,2.4,0.2,3.6,0.2 M-18-11.3c1.3,0.2,2.6,0.4,4,0.6 M-25.8-13c1.4,0.3,2.7,0.7,4.1,0.9 M-33.9-15.3
		c1.3,0.4,2.6,0.8,3.8,1.2 M-34.9-12.5c-1.3-0.4-2.6-0.9-3.9-1.3 M-32.9-18.2c-1-0.3-1.9-0.6-2.9-1 M-35.3-11.5
		c-1.4-0.5-2.8-0.9-4.1-1.4 M-33.2-17.3c-1-0.3-2-0.7-3-1 M-25.3-14.9c-1.4-0.4-2.8-0.7-4.2-1.2 M-17.8-13.3
		c-1.2-0.2-2.4-0.4-3.6-0.7 M-10.1-12.4c-1.3-0.1-2.6-0.2-3.8-0.4 M-3.5-12.1c-1.1,0-2.2,0-3.2-0.1 M7.1-2.5c1.5-0.2,3-0.4,4.6-0.6
		 M6.7-3.5c1.5-0.2,3-0.4,4.5-0.6 M5.2-7.5C3.9-7.3,2.7-7.3,1.5-7.2 M4.4-9.4c1.3-0.1,2.7-0.3,4.1-0.5 M2.9-13.4
		c-1.2,0.1-2.3,0.2-3.4,0.2 M6.3-4.5c1.5-0.2,2.9-0.3,4.4-0.6 M5.5-6.5C4.3-6.4,3.1-6.3,1.8-6.2 M4-10.4c1.3-0.1,2.7-0.3,4-0.4
		 M3.3-12.4c-1.2,0.1-2.3,0.2-3.5,0.2 M10.6-13.3c-1.2,0.2-2.3,0.4-3.5,0.5 M20.8-10.2c-1,0.3-2,0.5-3,0.7 M14.9-15.1
		c-0.5,0.1-1.1,0.2-1.6,0.3 M21.8-9.5c-1.1,0.3-2.2,0.6-3.3,0.8 M15.9-14.3c-0.6,0.1-1.2,0.3-1.9,0.4 M-42.4-9.3
		c0.5,0.2,1,0.3,1.5,0.5 M-41.6-10.2c0.3,0.1,0.7,0.2,1,0.3 M-40.9-11c0.2,0.1,0.4,0.1,0.6,0.2 M-62.8,6C-57.2-2-51.6-10-46-18
		 M-62.8,2.4c4.9-7,9.9-14.1,14.8-21.1 M-62.8-1.1c4.3-6.1,8.6-12.2,12.8-18.3 M21.1-23.3c1.1,4.4,1.9,9.4,2.4,15.2 M20.2-11l-0.4-3
		c-0.5-4-1.3-7.5-2.2-10.7 M28.3-4.1l-0.1-1.4c-0.3-5.8-1-11-2-15.5 M22.8-22.5c1.1,4.6,1.8,9.7,2.3,15.7 M18.5-12.3l-0.2-1.5
		c-0.6-4.4-1.4-8.3-2.5-11.7 M12-27.2c1.2,3.5,2.2,7.4,2.9,12.1 M19.3-24c1.1,4.2,2,9,2.5,14.6"/>
	
		<use xlink:href="#SDQ"  width="83.3" height="89.3" x="-41.7" y="-44.7" transform="matrix(0.1022 0 0 0.1022 3.551 38.0224)" style="overflow:visible;"/>
	
		<use xlink:href="#SDQ"  width="83.3" height="89.3" x="-41.7" y="-44.7" transform="matrix(0.1022 0 0 0.1022 -3.5998 38.5332)" style="overflow:visible;"/>
	
		<use xlink:href="#SDQ"  width="83.3" height="89.3" x="-41.7" y="-44.7" transform="matrix(0.1022 0 0 0.1022 -10.7505 39.044)" style="overflow:visible;"/>
</symbol>
<symbol  id="SDA" viewBox="-11.2 -12.3 22.3 24.5">
	<rect x="-11.2" y="-11.2" class="st2" width="22.3" height="22.3"/>
	<path class="st3" d="M-8.9,0C-7.8,0,0-10,0-11.2C0-10,7.8,0,8.9,0C7.8,0,0,10,0,11.2C0,10-7.8,0-8.9,0z"/>
</symbol>
<symbol  id="SDQ" viewBox="-41.7 -44.7 83.3 89.3">
	<rect x="-41.7" y="-41.7" class="st4" width="83.3" height="83.3"/>
	<path class="st5" d="M-33.3,0C-29.2,0,0-37.5,0-41.7C0-37.5,29.2,0,33.3,0C29.2,0,0,37.5,0,41.7C0,37.5-29.2,0-33.3,0z"/>
</symbol>
<symbol  id="VDQ" viewBox="-9.6 -16 19.2 32">
	<path class="st6" d="M-8.3,3.2c9.6,0,7,11.5,16.6,11.5 M-5.6,0v-9.1c0-3.1,2.5-5.6,5.6-5.6s5.6,2.5,5.6,5.6V9.1
		c0,3.1-2.5,5.6-5.6,5.6s-5.6-2.5-5.6-5.6V0z"/>
</symbol>
<path class="st7" d="M23.5,9.3h128.8c7.8,0,14.1,6.4,14.1,14.2v216.6c0,7.8-6.3,14.2-14.1,14.2H23.5c-7.8,0-14.1-6.4-14.1-14.2V23.5
	C9.3,15.7,15.6,9.3,23.5,9.3z"/>
<g>
	<rect id="XDQ" x="38.4" y="55.5" class="st8" width="98.9" height="152.6"/>
</g>
<g>
	<defs>
		<rect id="SVGID_1_" x="38.4" y="55.5" width="98.9" height="152.6"/>
	</defs>
	<clipPath id="SVGID_00000019676703866914163690000018067610096901738903_">
		<use xlink:href="#SVGID_1_"  style="overflow:visible;"/>
	</clipPath>
	
		<g transform="matrix(1 0 0 1 0 7.629395e-06)" style="clip-path:url(#SVGID_00000019676703866914163690000018067610096901738903_);">
		
			<use xlink:href="#DQ1"  width="104.9" height="115.7" x="-52.4" y="-57.9" transform="matrix(0.7447 0 0 0.7468 77.482 115.3524)" style="overflow:visible;"/>
	</g>
</g>
<g>
	<defs>
		<rect id="SVGID_00000170964990658958236360000010258339681098683290_" x="38.4" y="55.5" width="98.9" height="152.6"/>
	</defs>
	<clipPath id="SVGID_00000025419231179450080860000013206392466883186576_">
		<use xlink:href="#SVGID_00000170964990658958236360000010258339681098683290_"  style="overflow:visible;"/>
	</clipPath>
	<g style="clip-path:url(#SVGID_00000025419231179450080860000013206392466883186576_);">
		
			<use xlink:href="#DQ1"  width="104.9" height="115.7" x="-52.4" y="-57.9" transform="matrix(-0.7447 0 0 -0.7468 98.2661 148.2696)" style="overflow:visible;"/>
	</g>
</g>
<g>
	<defs>
		<rect id="SVGID_00000100384356896625787230000003792118264162857636_" x="38.4" y="55.5" width="98.9" height="152.6"/>
	</defs>
	<clipPath id="SVGID_00000025442208548921894110000005114535859668682885_">
		<use xlink:href="#SVGID_00000100384356896625787230000003792118264162857636_"  style="overflow:visible;"/>
	</clipPath>
	<g style="clip-path:url(#SVGID_00000025442208548921894110000005114535859668682885_);">
		
			<use xlink:href="#DQ2"  width="104.8" height="93.5" x="-52.4" y="-46.8" transform="matrix(0.7447 0 0 0.7468 77.4088 92.3598)" style="overflow:visible;"/>
	</g>
</g>
<g>
	<defs>
		<rect id="SVGID_00000006683944899650314930000007954741554457565080_" x="38.4" y="55.5" width="98.9" height="152.6"/>
	</defs>
	<clipPath id="SVGID_00000136387843442817346930000001342717411481662875_">
		<use xlink:href="#SVGID_00000006683944899650314930000007954741554457565080_"  style="overflow:visible;"/>
	</clipPath>
	<g style="clip-path:url(#SVGID_00000136387843442817346930000001342717411481662875_);">
		
			<use xlink:href="#DQ2"  width="104.8" height="93.5" x="-52.4" y="-46.8" transform="matrix(-0.7447 0 0 -0.7468 98.3392 171.2622)" style="overflow:visible;"/>
	</g>
</g>
<g>
	<defs>
		<rect id="SVGID_00000105404537022156435680000009746856552693778609_" x="38.4" y="55.5" width="98.9" height="152.6"/>
	</defs>
	<clipPath id="SVGID_00000056422581878364118730000017885542916554301857_">
		<use xlink:href="#SVGID_00000105404537022156435680000009746856552693778609_"  style="overflow:visible;"/>
	</clipPath>
	<g style="clip-path:url(#SVGID_00000056422581878364118730000017885542916554301857_);">
		
			<use xlink:href="#DQ3"  width="133.4" height="139.5" x="-66.7" y="-69.8" transform="matrix(0.7447 0 0 0.7468 87.874 107.3817)" style="overflow:visible;"/>
	</g>
</g>
<g>
	<defs>
		<rect id="SVGID_00000054951331742028886230000007044064531855275421_" x="38.4" y="55.5" width="98.9" height="152.6"/>
	</defs>
	<clipPath id="SVGID_00000065767665682714443840000014110709525526556086_">
		<use xlink:href="#SVGID_00000054951331742028886230000007044064531855275421_"  style="overflow:visible;"/>
	</clipPath>
	<g style="clip-path:url(#SVGID_00000065767665682714443840000014110709525526556086_);">
		
			<use xlink:href="#DQ3"  width="133.4" height="139.5" x="-66.7" y="-69.8" transform="matrix(-0.7447 0 0 -0.7468 87.874 156.2403)" style="overflow:visible;"/>
	</g>
</g>
<g>
	<defs>
		<rect id="SVGID_00000057862717486568499830000013046659394189615500_" x="38.4" y="55.5" width="98.9" height="152.6"/>
	</defs>
	<clipPath id="SVGID_00000117640150917174868380000006585746774899005114_">
		<use xlink:href="#SVGID_00000057862717486568499830000013046659394189615500_"  style="overflow:visible;"/>
	</clipPath>
	
		<g transform="matrix(1 0 0 1 0 7.629395e-06)" style="clip-path:url(#SVGID_00000117640150917174868380000006585746774899005114_);">
		
			<use xlink:href="#DQ4"  width="126" height="87.2" x="-63" y="-43.6" transform="matrix(0.7447 0 0 0.7468 85.2296 101.6297)" style="overflow:visible;"/>
	</g>
</g>
<g>
	<defs>
		<rect id="SVGID_00000076565391502766021100000005750541831370586537_" x="38.4" y="55.5" width="98.9" height="152.6"/>
	</defs>
	<clipPath id="SVGID_00000116200288773067983980000002769322111086669468_">
		<use xlink:href="#SVGID_00000076565391502766021100000005750541831370586537_"  style="overflow:visible;"/>
	</clipPath>
	<g style="clip-path:url(#SVGID_00000116200288773067983980000002769322111086669468_);">
		
			<use xlink:href="#DQ4"  width="126" height="87.2" x="-63" y="-43.6" transform="matrix(-0.7447 0 0 -0.7468 90.5184 161.9923)" style="overflow:visible;"/>
	</g>
</g>
<g>
	<defs>
		<rect id="SVGID_00000098183614776863733490000005579400192673183875_" x="14.6" y="23.2" width="23.8" height="23.9"/>
	</defs>
	<clipPath id="SVGID_00000113348150635717940900000002868117290058480318_">
		<use xlink:href="#SVGID_00000098183614776863733490000005579400192673183875_"  style="overflow:visible;"/>
	</clipPath>
	<g style="clip-path:url(#SVGID_00000113348150635717940900000002868117290058480318_);">
		
			<use xlink:href="#VDQ"  width="19.2" height="32" x="-9.6" y="-16" transform="matrix(0.7447 0 0 0.7468 26.5111 35.0998)" style="overflow:visible;"/>
	</g>
</g>
<g>
	<defs>
		<rect id="SVGID_00000124155237738149980690000016042670885167832720_" x="16.5" y="50.8" width="19.9" height="20"/>
	</defs>
	<clipPath id="SVGID_00000008833501014602793330000006235923656916928427_">
		<use xlink:href="#SVGID_00000124155237738149980690000016042670885167832720_"  style="overflow:visible;"/>
	</clipPath>
	<g style="clip-path:url(#SVGID_00000008833501014602793330000006235923656916928427_);">
		
			<use xlink:href="#SDQ"  width="83.3" height="89.3" x="-41.7" y="-44.7" transform="matrix(0.7447 0 0 0.7468 53.7789 88.1229)" style="overflow:visible;"/>
	</g>
</g>
<g>
	<defs>
		<rect id="SVGID_00000168815220967312291580000009447521758155080333_" x="16.5" y="50.8" width="19.9" height="20"/>
	</defs>
	<clipPath id="SVGID_00000020376956238072908700000014646526291492525197_">
		<use xlink:href="#SVGID_00000168815220967312291580000009447521758155080333_"  style="overflow:visible;"/>
	</clipPath>
	<g style="clip-path:url(#SVGID_00000020376956238072908700000014646526291492525197_);">
		
			<use xlink:href="#SDQ"  width="83.3" height="89.3" x="-41.7" y="-44.7" transform="matrix(0.7447 0 0 0.7468 53.7789 88.1229)" style="overflow:visible;"/>
	</g>
</g>
<g>
	<defs>
		<rect id="SVGID_00000088853399060973459310000002927743947090650252_" x="104.2" y="55.5" width="33.1" height="33.2"/>
	</defs>
	<clipPath id="SVGID_00000018917254531274460410000001389241771918378664_">
		<use xlink:href="#SVGID_00000088853399060973459310000002927743947090650252_"  style="overflow:visible;"/>
	</clipPath>
	<g style="clip-path:url(#SVGID_00000018917254531274460410000001389241771918378664_);">
		
			<use xlink:href="#SDQ"  width="83.3" height="89.3" x="-41.7" y="-44.7" transform="matrix(0.7447 0 0 0.7468 141.4325 92.8622)" style="overflow:visible;"/>
	</g>
</g>
<g>
	<defs>
		<rect id="SVGID_00000106123859994337222160000015246381686532155274_" x="137.3" y="216.6" width="23.8" height="23.9"/>
	</defs>
	<clipPath id="SVGID_00000097489486456947455780000003893666395408056238_">
		<use xlink:href="#SVGID_00000106123859994337222160000015246381686532155274_"  style="overflow:visible;"/>
	</clipPath>
	<g style="clip-path:url(#SVGID_00000097489486456947455780000003893666395408056238_);">
		
			<use xlink:href="#VDQ"  width="19.2" height="32" x="-9.6" y="-16" transform="matrix(-0.7447 0 0 -0.7468 149.2369 228.5222)" style="overflow:visible;"/>
	</g>
</g>
<g>
	<defs>
		<rect id="SVGID_00000111897262219939950630000004718014200226544279_" x="139.3" y="192.8" width="19.9" height="20"/>
	</defs>
	<clipPath id="SVGID_00000070803040977478796650000005031109717870289810_">
		<use xlink:href="#SVGID_00000111897262219939950630000004718014200226544279_"  style="overflow:visible;"/>
	</clipPath>
	<g style="clip-path:url(#SVGID_00000070803040977478796650000005031109717870289810_);">
		
			<use xlink:href="#SDQ"  width="83.3" height="89.3" x="-41.7" y="-44.7" transform="matrix(-0.7447 0 0 -0.7468 121.9691 175.4991)" style="overflow:visible;"/>
	</g>
</g>
<g>
	<defs>
		<rect id="SVGID_00000013152202413548271340000003601603075338275480_" x="139.3" y="192.8" width="19.9" height="20"/>
	</defs>
	<clipPath id="SVGID_00000079454135639538831750000002239690920094023086_">
		<use xlink:href="#SVGID_00000013152202413548271340000003601603075338275480_"  style="overflow:visible;"/>
	</clipPath>
	<g style="clip-path:url(#SVGID_00000079454135639538831750000002239690920094023086_);">
		
			<use xlink:href="#SDQ"  width="83.3" height="89.3" x="-41.7" y="-44.7" transform="matrix(-0.7447 0 0 -0.7468 121.9691 175.4991)" style="overflow:visible;"/>
	</g>
</g>
<g>
	<defs>
		<rect id="SVGID_00000096737673202387829090000003746349530093557163_" x="38.4" y="174.9" width="33.1" height="33.2"/>
	</defs>
	<clipPath id="SVGID_00000102517084975139654210000005816060299915911871_">
		<use xlink:href="#SVGID_00000096737673202387829090000003746349530093557163_"  style="overflow:visible;"/>
	</clipPath>
	<g style="clip-path:url(#SVGID_00000102517084975139654210000005816060299915911871_);">
		
			<use xlink:href="#SDQ"  width="83.3" height="89.3" x="-41.7" y="-44.7" transform="matrix(-0.7447 0 0 -0.7468 34.3155 170.7599)" style="overflow:visible;"/>
	</g>
</g>
<g>
	<rect id="XDQ_00000096042673530642405300000004162435277160734122_" x="38.4" y="55.5" class="st9" width="98.9" height="152.6"/>
</g>
<g>
	<defs>
		<rect id="SVGID_00000024720570123781468650000004227930253211293882_" x="16.5" y="50.8" width="19.9" height="20"/>
	</defs>
	<clipPath id="SVGID_00000067957607096869675100000009133715435784987562_">
		<use xlink:href="#SVGID_00000024720570123781468650000004227930253211293882_"  style="overflow:visible;"/>
	</clipPath>
	
		<g transform="matrix(1 0 0 1 1.907349e-06 -3.814697e-06)" style="clip-path:url(#SVGID_00000067957607096869675100000009133715435784987562_);">
		
			<use xlink:href="#SDA"  width="22.3" height="24.5" x="-11.2" y="-12.3" transform="matrix(0.7447 0 0 0.7468 26.5115 60.7783)" style="overflow:visible;"/>
	</g>
</g>
<g>
	<defs>
		<rect id="SVGID_00000130617224034995028850000011804943721551764897_" x="139.3" y="192.8" width="19.9" height="20"/>
	</defs>
	<clipPath id="SVGID_00000057869308370346448090000009339142689730698164_">
		<use xlink:href="#SVGID_00000130617224034995028850000011804943721551764897_"  style="overflow:visible;"/>
	</clipPath>
	<g style="clip-path:url(#SVGID_00000057869308370346448090000009339142689730698164_);">
		
			<use xlink:href="#SDA"  width="22.3" height="24.5" x="-11.2" y="-12.3" transform="matrix(-0.7447 0 0 -0.7468 149.2365 202.8437)" style="overflow:visible;"/>
	</g>
</g>
</svg>
