<?xml version="1.0" encoding="utf-8"?>
<!-- Generator: Adobe Illustrator 27.9.0, SVG Export Plug-In . SVG Version: 6.00 Build 0)  -->
<svg version="1.1" id="Layer_1" xmlns="http://www.w3.org/2000/svg" xmlns:xlink="http://www.w3.org/1999/xlink" x="0px" y="0px"
	 viewBox="0 0 175.7 263.6" style="enable-background:new 0 0 175.7 263.6;" xml:space="preserve">
<style type="text/css">
	.st0{fill-opacity:0;}
	.st1{stroke:#FFFFFF;stroke-width:2.2307;stroke-linecap:round;stroke-linejoin:round;stroke-miterlimit:10;}
	.st2{fill:none;stroke:#FFFFFF;stroke-width:2.56;stroke-linecap:square;stroke-miterlimit:10;}
	.st3{fill:#272727;stroke:#000000;}
</style>
<symbol  id="SD5" viewBox="-11.2 -12.3 22.3 24.5">
	<rect x="-11.2" y="-11.2" class="st0" width="22.3" height="22.3"/>
	<path class="st1" d="M-8.9,0C-7.8,0,0-10,0-11.2C0-10,7.8,0,8.9,0C7.8,0,0,10,0,11.2C0,10-7.8,0-8.9,0z"/>
</symbol>
<symbol  id="VD5" viewBox="-9.6 -16 19.1 32">
	<path class="st2" d="M5.6-14.7h-11l-1.1,11c0,0,0.3-2.7,6.7-2.7c3.2,0,8.2,3.8,8.2,10.2S5.9,14.7-0.5,14.7S-8,9.1-8,9.1"/>
</symbol>
<path class="st3" d="M23.5,9.3h128.8c7.8,0,14.1,6.4,14.1,14.2v216.6c0,7.8-6.3,14.2-14.1,14.2H23.5c-7.8,0-14.1-6.4-14.1-14.2V23.5
	C9.3,15.7,15.6,9.3,23.5,9.3z"/>
<g>
	<defs>
		<rect id="SVGID_1_" x="14.6" y="23.2" width="23.8" height="23.9"/>
	</defs>
	<clipPath id="SVGID_00000039853728135423022040000003424121819453071807_">
		<use xlink:href="#SVGID_1_"  style="overflow:visible;"/>
	</clipPath>
	<g style="clip-path:url(#SVGID_00000039853728135423022040000003424121819453071807_);">
		
			<use xlink:href="#VD5"  width="19.1" height="32" x="-9.6" y="-16" transform="matrix(0.7447 0 0 0.7468 26.4269 35.0998)" style="overflow:visible;"/>
	</g>
</g>
<g>
	<defs>
		<rect id="SVGID_00000113321735096552734100000004727346013723903934_" x="16.5" y="50.8" width="19.9" height="20"/>
	</defs>
	<clipPath id="SVGID_00000165220553067780226290000007645334621674053027_">
		<use xlink:href="#SVGID_00000113321735096552734100000004727346013723903934_"  style="overflow:visible;"/>
	</clipPath>
	
		<g transform="matrix(1 0 0 1 1.907349e-06 -3.814697e-06)" style="clip-path:url(#SVGID_00000165220553067780226290000007645334621674053027_);">
		
			<use xlink:href="#SD5"  width="22.3" height="24.5" x="-11.2" y="-12.3" transform="matrix(0.7447 0 0 0.7468 26.5115 60.7783)" style="overflow:visible;"/>
	</g>
</g>
<g>
	<defs>
		<rect id="SVGID_00000143598552161780921250000018275312941207332017_" x="16.5" y="50.8" width="19.9" height="20"/>
	</defs>
	<clipPath id="SVGID_00000023975567865734435690000015981046712472832943_">
		<use xlink:href="#SVGID_00000143598552161780921250000018275312941207332017_"  style="overflow:visible;"/>
	</clipPath>
	
		<g transform="matrix(1 0 0 1 1.907349e-06 -3.814697e-06)" style="clip-path:url(#SVGID_00000023975567865734435690000015981046712472832943_);">
		
			<use xlink:href="#SD5"  width="22.3" height="24.5" x="-11.2" y="-12.3" transform="matrix(0.7447 0 0 0.7468 26.5115 60.7783)" style="overflow:visible;"/>
	</g>
</g>
<g>
	<defs>
		<rect id="SVGID_00000023975502909312561670000017500942428280170937_" x="35.6" y="35.7" width="40.2" height="40.3"/>
	</defs>
	<clipPath id="SVGID_00000168825830586966224960000015622736348574374047_">
		<use xlink:href="#SVGID_00000023975502909312561670000017500942428280170937_"  style="overflow:visible;"/>
	</clipPath>
	<g style="clip-path:url(#SVGID_00000168825830586966224960000015622736348574374047_);">
		
			<use xlink:href="#SD5"  width="22.3" height="24.5" x="-11.2" y="-12.3" transform="matrix(0.7447 0 0 0.7468 45.5884 45.7175)" style="overflow:visible;"/>
	</g>
</g>
<g>
	<defs>
		<rect id="SVGID_00000150083057171441560270000002875822234524978826_" x="99.9" y="35.7" width="40.2" height="40.3"/>
	</defs>
	<clipPath id="SVGID_00000039104015528979596480000018004048869954525351_">
		<use xlink:href="#SVGID_00000150083057171441560270000002875822234524978826_"  style="overflow:visible;"/>
	</clipPath>
	<g style="clip-path:url(#SVGID_00000039104015528979596480000018004048869954525351_);">
		
			<use xlink:href="#SD5"  width="22.3" height="24.5" x="-11.2" y="-12.3" transform="matrix(0.7447 0 0 0.7468 109.8809 45.7175)" style="overflow:visible;"/>
	</g>
</g>
<g>
	<defs>
		<polygon id="SVGID_00000126292750278554771990000000661980240317171086_" points="71.1,111.5 71.1,151.9 90.6,151.9 84.5,135.1 
			90.6,128.3 84.5,111.5 		"/>
	</defs>
	<clipPath id="SVGID_00000048491020225831186940000008103080319344479882_">
		<use xlink:href="#SVGID_00000126292750278554771990000000661980240317171086_"  style="overflow:visible;"/>
	</clipPath>
	<g style="clip-path:url(#SVGID_00000048491020225831186940000008103080319344479882_);">
		
			<use xlink:href="#SD5"  width="22.3" height="24.5" x="-11.2" y="-12.3" transform="matrix(0.7447 0 0 0.7468 77.7346 121.6429)" style="overflow:visible;"/>
	</g>
</g>
<g transform="rotate(180)">
	<g>
		<defs>
			<rect id="SVGID_00000034789765512535175830000008521067527615038605_" x="-161.2" y="-240.5" width="23.8" height="23.9"/>
		</defs>
		<clipPath id="SVGID_00000094583114291748499940000013193791124621306245_">
			<use xlink:href="#SVGID_00000034789765512535175830000008521067527615038605_"  style="overflow:visible;"/>
		</clipPath>
		<g style="clip-path:url(#SVGID_00000094583114291748499940000013193791124621306245_);">
			
				<use xlink:href="#VD5"  width="19.1" height="32" x="-9.6" y="-16" transform="matrix(0.7447 0 0 0.7468 -149.3211 -228.5222)" style="overflow:visible;"/>
		</g>
	</g>
	<g>
		<defs>
			<rect id="SVGID_00000030469241704775479590000012835890739516666275_" x="-159.2" y="-212.8" width="19.9" height="20"/>
		</defs>
		<clipPath id="SVGID_00000065060466409116384840000014230700770979201197_">
			<use xlink:href="#SVGID_00000030469241704775479590000012835890739516666275_"  style="overflow:visible;"/>
		</clipPath>
		<g style="clip-path:url(#SVGID_00000065060466409116384840000014230700770979201197_);">
			
				<use xlink:href="#SD5"  width="22.3" height="24.5" x="-11.2" y="-12.3" transform="matrix(0.7447 0 0 0.7468 -149.2365 -202.8437)" style="overflow:visible;"/>
		</g>
	</g>
	<g>
		<defs>
			<rect id="SVGID_00000126309916892912066500000003957367504795066002_" x="-159.2" y="-212.8" width="19.9" height="20"/>
		</defs>
		<clipPath id="SVGID_00000036947317211615928330000011227339063420270008_">
			<use xlink:href="#SVGID_00000126309916892912066500000003957367504795066002_"  style="overflow:visible;"/>
		</clipPath>
		<g style="clip-path:url(#SVGID_00000036947317211615928330000011227339063420270008_);">
			
				<use xlink:href="#SD5"  width="22.3" height="24.5" x="-11.2" y="-12.3" transform="matrix(0.7447 0 0 0.7468 -149.2365 -202.8437)" style="overflow:visible;"/>
		</g>
	</g>
	<g>
		<defs>
			<rect id="SVGID_00000116206573258012995980000004786290309944356737_" x="-140.1" y="-227.9" width="40.2" height="40.3"/>
		</defs>
		<clipPath id="SVGID_00000144324861832872758230000013736035368280484014_">
			<use xlink:href="#SVGID_00000116206573258012995980000004786290309944356737_"  style="overflow:visible;"/>
		</clipPath>
		
			<g transform="matrix(1 0 0 1 0 -1.525879e-05)" style="clip-path:url(#SVGID_00000144324861832872758230000013736035368280484014_);">
			
				<use xlink:href="#SD5"  width="22.3" height="24.5" x="-11.2" y="-12.3" transform="matrix(0.7447 0 0 0.7468 -130.1597 -217.9045)" style="overflow:visible;"/>
		</g>
	</g>
	<g>
		<defs>
			<rect id="SVGID_00000107589855832738840470000006566582695656224908_" x="-75.8" y="-227.9" width="40.2" height="40.3"/>
		</defs>
		<clipPath id="SVGID_00000016776212092713767420000012723387277844387481_">
			<use xlink:href="#SVGID_00000107589855832738840470000006566582695656224908_"  style="overflow:visible;"/>
		</clipPath>
		
			<g transform="matrix(1 0 0 1 0 -1.525879e-05)" style="clip-path:url(#SVGID_00000016776212092713767420000012723387277844387481_);">
			
				<use xlink:href="#SD5"  width="22.3" height="24.5" x="-11.2" y="-12.3" transform="matrix(0.7447 0 0 0.7468 -65.8672 -217.9045)" style="overflow:visible;"/>
		</g>
	</g>
	<g>
		<defs>
			<polygon id="SVGID_00000097501213007335348510000017453954068862590342_" points="-104.6,-152.1 -104.6,-111.7 -85.2,-111.7 
				-91.2,-128.6 -85.2,-135.3 -91.2,-152.1 			"/>
		</defs>
		<clipPath id="SVGID_00000139265640912635369520000017017854032666179460_">
			<use xlink:href="#SVGID_00000097501213007335348510000017453954068862590342_"  style="overflow:visible;"/>
		</clipPath>
		<g style="clip-path:url(#SVGID_00000139265640912635369520000017017854032666179460_);">
			
				<use xlink:href="#SD5"  width="22.3" height="24.5" x="-11.2" y="-12.3" transform="matrix(0.7447 0 0 0.7468 -98.0134 -141.9791)" style="overflow:visible;"/>
		</g>
	</g>
</g>
</svg>
