<?xml version="1.0" encoding="utf-8"?>
<!-- Generator: Adobe Illustrator 27.9.0, SVG Export Plug-In . SVG Version: 6.00 Build 0)  -->
<svg version="1.1" id="Layer_1" xmlns="http://www.w3.org/2000/svg" xmlns:xlink="http://www.w3.org/1999/xlink" x="0px" y="0px"
	 viewBox="0 0 175.7 263.6" style="enable-background:new 0 0 175.7 263.6;" xml:space="preserve">
<style type="text/css">
	.st0{fill:none;stroke:#000000;stroke-width:0.6129;stroke-linecap:round;stroke-linejoin:round;stroke-miterlimit:10;}
	.st1{fill:none;stroke:#000000;stroke-width:0.3065;stroke-linecap:round;stroke-linejoin:round;stroke-miterlimit:10;}
	.st2{fill-opacity:0;}
	.st3{stroke:#FFFFFF;stroke-width:2.2307;stroke-linecap:round;stroke-linejoin:round;stroke-miterlimit:10;}
	.st4{fill:#FF0000;fill-opacity:0;}
	.st5{fill:#FF0000;}
	.st6{fill:none;stroke:#FFFFFF;stroke-width:2.56;stroke-linecap:square;stroke-miterlimit:10;}
	.st7{fill:#272727;stroke:#000000;}
	.st8{fill:#FFFFFF;}
	.st9{fill:none;stroke:#FFFFFF;}
</style>
<symbol  id="HK1" viewBox="-42.4 -60.8 84.8 121.6">
	<path d="M-28.8-60.8c-0.6,0-1,0.8-1,1.7c0,0.9,0.5,1.7,1,1.7c0,0,0,0,0,0c0.6,0,1-0.8,1-1.7c0,0,0,0,0,0
		C-27.8-60.1-28.2-60.8-28.8-60.8z M-41.4-60.7c-0.6,0-1,0.8-1,1.7c0,0,0,0,0,0c0,0.9,0.5,1.7,1,1.7c0,0,0,0,0,0c0.6,0,1-0.8,1-1.7
		c0,0,0,0,0,0C-40.4-59.9-40.8-60.7-41.4-60.7C-41.4-60.7-41.4-60.7-41.4-60.7z M32.2-58.5c-1.6,1.2-3.9,2.1-5.6,2.1
		c-1.7,0-3.3-0.9-4.5-1.7l0.2,3.6c3.5,1.8,5.2,1.8,8.8-0.1c0.4-0.2,0.8-0.3,1.1-0.3L32.2-58.5z M-36.3-46.2c-1,1-2.5,1.3-2.6,1.5
		l-0.5,0.6c0.9-1.1,5.9-0.5,9.1-0.8l-0.9-0.2c-1,0-2-1-2-1s-0.7,1-1.7,1C-36.3-45.2-36.3-46.2-36.3-46.2z M-30.3-45l1.7,0.3
		l-0.5-0.5C-29.5-45.1-29.8-45.1-30.3-45z M29.6-42.1c-0.7,3.1-2.1,6.1-4.1,9.2c-1.9-2.7-3.9-5.3-4.6-8.7c-2.3,3.4-4.8,5.3-7.2,6.1
		c2.5,5.5,6.5,11.2,11.2,16.8l17.5,0v-14.6C37.4-34.9,32.5-36.5,29.6-42.1z M10.4-35.2c-0.6,0.9-1.2,1.9-1.7,2.8
		c1.6,1.4,3,3,4.2,4.6c4.8,6.4,7.3,14.4,7.3,22.7c0,8.3-2.5,16.3-7.3,22.7c-0.3,0.5-0.7,0.9-1.1,1.4c0.3,0,0.5,0,0.8,0
		c0.2,0,0.3,0,0.4,0c2.3-1.6,3.9-4,5.8-6.6l2.1,1.5c0.1,0.6,0.2,1.3,0.2,2l3.9,0l0.1-29.6C18.9-20.5,13.5-28,10.4-35.2z M3.1-32.5
		c-0.2,0-0.4,0.1-0.4,0.3c-0.1,0.3,0,0.6,0.2,0.7c0.3,0.1,0.6,0,0.7-0.2c0,0,0,0,0,0c0.1-0.3,0-0.6-0.2-0.7
		C3.3-32.4,3.2-32.5,3.1-32.5z M-9-31.6c-0.2,0-0.5,0.2-0.5,0.4c-0.1,0.3,0.1,0.5,0.4,0.6c0.3,0.1,0.5-0.1,0.6-0.4
		C-8.5-31.2-8.6-31.5-9-31.6C-9-31.6-9-31.6-9-31.6z M0.8-31.3c-0.2,0-0.4,0.1-0.4,0.3c-0.1,0.3,0,0.6,0.2,0.7
		c0.3,0.1,0.6,0,0.7-0.2c0,0,0,0,0,0c0.1-0.3,0-0.6-0.2-0.7C1-31.2,0.9-31.3,0.8-31.3z M-6-31c-0.2,0-0.5,0.2-0.5,0.4
		c-0.1,0.3,0.1,0.5,0.4,0.6c0.3,0.1,0.5-0.1,0.6-0.4C-5.4-30.7-5.6-31-6-31C-5.9-31-5.9-31-6-31C-5.9-31-6-31-6-31z M-7.6-30.3
		l-2.1,5.8l1.3-1.3l0.1,2.1l0.6-2l1,1.8L-7.6-30.3z M3.6-30c-0.2,0-0.4,0.1-0.4,0.3c-0.1,0.3,0,0.6,0.2,0.7c0,0,0,0,0,0
		c0.3,0.1,0.6,0,0.7-0.2c0,0,0,0,0,0c0.1-0.3,0-0.6-0.2-0.7c0,0,0,0,0,0C3.8-29.9,3.7-30,3.6-30z M2-29.6l-3.5,5.1l1.6-1l-0.4,2.1
		l1.1-1.8l0.5,2L2-29.6z M-15.1-26.8c0.1,0.6,0.1,1.1,0,1.7c0.4-0.1,0.8-0.1,1.2,0l0.3-1.6C-14.1-26.7-14.6-26.7-15.1-26.8z
		 M-5.6-21.6c-0.2,0-0.4,0.2-0.5,0.4c-0.1,0.3,0.1,0.6,0.4,0.6c0.3,0.1,0.6-0.1,0.6-0.4c0.1-0.3-0.1-0.6-0.4-0.6
		C-5.5-21.6-5.6-21.6-5.6-21.6z M-21.3-20.8c0.1,0.6,0.1,1.1,0,1.7c0.6-0.1,1.1-0.1,1.7,0c-0.1-0.6-0.1-1.1,0-1.7
		C-20.2-20.7-20.8-20.7-21.3-20.8z M-7.6-20c-0.2,0-0.4,0.2-0.5,0.4C-8.1-19.3-8-19-7.7-19c0.3,0.1,0.6-0.1,0.6-0.4
		c0.1-0.3-0.1-0.6-0.4-0.6C-7.5-20-7.5-20-7.6-20z M-4.6-19.2c-0.2,0-0.4,0.2-0.5,0.4c-0.1,0.3,0.1,0.6,0.4,0.6
		c0.3,0.1,0.6-0.1,0.6-0.4c0.1-0.3-0.1-0.6-0.4-0.6C-4.5-19.2-4.6-19.2-4.6-19.2z M-6.2-18.6l-2.5,5.7l1.4-1.2l0,2.1l0.8-2l0.9,1.9
		L-6.2-18.6z M-27.6-14.7c0.1,0.6,0.1,1.1,0,1.7c0.6-0.1,1.1-0.1,1.7,0c-0.1-0.6-0.1-1.1,0-1.7C-26.4-14.6-27-14.6-27.6-14.7z
		 M-12.4-9.4c-0.3,0-0.5,0.2-0.5,0.4c0,0.3,0.2,0.5,0.4,0.6c0.3,0,0.5-0.2,0.6-0.4C-11.9-9.1-12.1-9.4-12.4-9.4
		C-12.4-9.4-12.4-9.4-12.4-9.4z M-1.2-9.2C-2.3-4.7-2.9-0.3-3,3.9l0,0.1c0.4-0.5,1-0.8,1.6-1c-0.2-0.5-0.2-0.9-0.2-1.4
		C-1.7,0.1-1-1.2,0-2c-0.7-0.8-1.1-1.8-1.1-2.9C-1.1-5.9-0.7-7,0-7.7C-0.5-8.1-0.9-8.6-1.2-9.2z M-33.8-8.7c0.1,0.6,0.1,1.1,0,1.7
		c0.6-0.1,1.1-0.1,1.7,0c-0.1-0.6-0.1-1.1,0-1.7C-32.6-8.6-33.2-8.6-33.8-8.7z M-5.6-8.4c-0.2,0-0.5,0.2-0.5,0.4
		c0,0.3,0.2,0.5,0.4,0.6c0.3,0,0.5-0.2,0.6-0.4C-5.1-8.1-5.3-8.4-5.6-8.4C-5.6-8.4-5.6-8.4-5.6-8.4C-5.6-8.4-5.6-8.4-5.6-8.4
		C-5.6-8.4-5.6-8.4-5.6-8.4z M-14.3-7.6c-0.2,0-0.5,0.2-0.5,0.4c0,0.3,0.2,0.5,0.4,0.6c0.3,0,0.5-0.2,0.6-0.4
		C-13.7-7.3-13.9-7.5-14.3-7.6C-14.2-7.6-14.2-7.6-14.3-7.6C-14.2-7.6-14.2-7.6-14.3-7.6z M-11.2-7.2C-11.2-7.2-11.2-7.2-11.2-7.2
		c-0.3,0-0.5,0.2-0.5,0.5c0,0.3,0.2,0.5,0.4,0.6c0.3,0,0.5-0.2,0.6-0.4C-10.6-6.9-10.8-7.2-11.2-7.2C-11.1-7.2-11.2-7.2-11.2-7.2z
		 M-7.4-6.5c-0.2,0-0.5,0.2-0.5,0.4c0,0.3,0.2,0.5,0.4,0.6c0.3,0,0.5-0.2,0.6-0.4C-6.8-6.3-7-6.5-7.4-6.5C-7.3-6.5-7.3-6.5-7.4-6.5
		C-7.3-6.5-7.3-6.5-7.4-6.5C-7.4-6.5-7.4-6.5-7.4-6.5z M-12.8-6.4l-1.7,6l1.2-1.4l0.3,2.1l0.5-2.1l1.1,1.7L-12.8-6.4z M-4.3-6.2
		C-4.3-6.2-4.3-6.2-4.3-6.2c-0.3,0-0.5,0.2-0.5,0.5c0,0.3,0.2,0.5,0.4,0.6c0.3,0,0.5-0.2,0.6-0.4c0,0,0,0,0,0
		C-3.8-5.9-4-6.1-4.3-6.2C-4.3-6.2-4.3-6.2-4.3-6.2L-4.3-6.2z M-5.9-5.3l-1.7,6l1.2-1.4l0.3,2.1l0.5-2.1L-4.6,1L-5.9-5.3z M-9.7,3.3
		c-0.3,0-0.5,0.2-0.5,0.5s0.2,0.5,0.5,0.5c0.3,0,0.5-0.2,0.5-0.5S-9.4,3.3-9.7,3.3z M-11.2,5.4c-0.3,0-0.5,0.2-0.5,0.5
		c0,0.3,0.2,0.5,0.5,0.5s0.5-0.2,0.5-0.5C-10.7,5.6-11,5.4-11.2,5.4z M-8.2,5.4c-0.3,0-0.5,0.2-0.5,0.5c0,0.3,0.2,0.5,0.5,0.5
		c0.3,0,0.5-0.2,0.5-0.5C-7.7,5.6-7.9,5.4-8.2,5.4z M-9.7,6.4l-1,6.1l1-1.5l0.5,2l0.3-2.1l1.3,1.6L-9.7,6.4z M-5.5,15.1
		C-5.5,15.1-5.5,15.1-5.5,15.1c-0.3,0-0.5,0.3-0.5,0.5c0,0,0,0,0,0c0,0.3,0.3,0.5,0.5,0.5c0,0,0,0,0,0c0.3,0,0.5-0.3,0.5-0.5
		c0,0,0,0,0,0C-5,15.3-5.2,15.1-5.5,15.1L-5.5,15.1z M-12.7,15.4c0,0-0.1,0-0.1,0c-0.3,0-0.5,0.3-0.4,0.6c0,0.3,0.3,0.5,0.6,0.4
		c0.3,0,0.5-0.3,0.4-0.6C-12.3,15.6-12.5,15.4-12.7,15.4L-12.7,15.4z M42.4,17c-4.5,3.9-10.9,9.6-17.8,11.1
		c-1.5,1.5-3.4,2.6-5.7,3.4c2.5,4.6,2.4,7,2,9.2l-7.3-7.3c-0.4,0.5-1.1,0.7-1.7,0.5c-0.5-0.2-0.9-0.6-1-1.2
		c-1.4,0.5-4.4,1.5-6.5,2.1c2.2,4.1,4.8,8.1,7.7,11.9c11.2-5.9,21.7-12,30.2-19.7L42.4,17z M11,32.7C11,32.7,11,32.7,11,32.7
		L11,32.7C10.9,32.6,11,32.7,11,32.7z M-3.9,17C-3.9,17-3.9,17-3.9,17c-0.3,0-0.5,0.3-0.5,0.5c0,0,0,0,0,0c0,0.3,0.3,0.5,0.5,0.5
		c0.3,0,0.5-0.3,0.5-0.5c0,0,0,0,0,0C-3.4,17.3-3.6,17-3.9,17L-3.9,17z M-10.8,17.1c0,0-0.1,0-0.1,0c-0.3,0-0.5,0.3-0.4,0.6
		c0,0.3,0.3,0.5,0.6,0.4c0.3,0,0.5-0.3,0.4-0.6C-10.4,17.3-10.6,17.1-10.8,17.1L-10.8,17.1z M-6.9,17.2C-6.9,17.2-6.9,17.2-6.9,17.2
		c-0.3,0-0.5,0.3-0.5,0.5c0,0.3,0.3,0.5,0.5,0.5c0,0,0,0,0,0c0.3,0,0.5-0.3,0.5-0.5c0,0,0,0,0,0C-6.4,17.4-6.6,17.2-6.9,17.2
		L-6.9,17.2z M-13.9,17.7c0,0-0.1,0-0.1,0c-0.3,0-0.5,0.3-0.4,0.6c0,0.3,0.3,0.5,0.6,0.4c0.3,0,0.5-0.3,0.4-0.6
		C-13.4,17.8-13.6,17.7-13.9,17.7L-13.9,17.7z M-5.4,18.1l-0.5,4.5l2.2-0.2L-5.4,18.1z M-12.3,18.4l0.1,6.2l0.7-1.7l0.9,1.9
		l-0.1-2.1l1.5,1.4L-12.3,18.4z M3.4,36.2l-0.3,1.8l-1.3-1.7l0.6,2l-1.8-1l4.3,4.8L3.4,36.2z M-5.5,38.3l-0.5,1.8l-1.2-1.8l0.5,2.1
		l-1.7-1.1l4,5.1L-5.5,38.3z M6.5,41.6c-0.1,0-0.1,0-0.2,0C6,41.8,5.9,42.1,6,42.3c0,0,0,0,0,0c0.1,0.3,0.4,0.4,0.7,0.3c0,0,0,0,0,0
		C7,42.5,7.1,42.2,7,41.9c0,0,0,0,0,0C6.9,41.7,6.7,41.6,6.5,41.6z M3.7,42.8c-0.1,0-0.1,0-0.2,0c-0.3,0.1-0.4,0.4-0.3,0.7
		c0,0,0,0,0,0c0.1,0.3,0.4,0.4,0.7,0.3c0,0,0,0,0,0c0.3-0.1,0.4-0.4,0.3-0.7c0,0,0,0,0,0C4.1,43,3.9,42.8,3.7,42.8L3.7,42.8z
		 M-2.8,43.9C-2.8,43.8-2.8,43.8-2.8,43.9c-0.1,0-0.1,0-0.2,0c-0.3,0.1-0.4,0.4-0.3,0.7c0.1,0.3,0.4,0.4,0.7,0.3
		c0.3-0.1,0.4-0.4,0.3-0.7C-2.4,44-2.6,43.9-2.8,43.9L-2.8,43.9z M5.9,44.1c-0.1,0-0.1,0-0.2,0c-0.3,0.1-0.4,0.4-0.3,0.7
		c0,0,0,0,0,0c0.1,0.3,0.4,0.4,0.7,0.3c0,0,0,0,0,0c0.3-0.1,0.4-0.4,0.3-0.7C6.3,44.2,6.1,44.1,5.9,44.1L5.9,44.1z M-5.7,44.9
		C-5.7,44.9-5.7,44.9-5.7,44.9c-0.1,0-0.1,0-0.2,0c-0.3,0.1-0.4,0.4-0.3,0.7c0.1,0.3,0.4,0.4,0.7,0.3c0.3-0.1,0.4-0.4,0.3-0.7
		C-5.3,45-5.5,44.9-5.7,44.9L-5.7,44.9z M2.7,44.9l-0.2,1.8l-1.4-1.6l0.8,2L0,46.3l4.7,4.5L2.7,44.9z M-3.5,46.3
		C-3.6,46.3-3.6,46.3-3.5,46.3c-0.1,0-0.1,0-0.2,0C-4,46.4-4.1,46.7-4,47c0.1,0.3,0.4,0.4,0.7,0.3c0.3-0.1,0.4-0.4,0.3-0.7
		C-3.2,46.4-3.3,46.3-3.5,46.3L-3.5,46.3z M6.3,50c-0.1,0-0.2,0-0.2,0.1c-0.2,0.1-0.3,0.4-0.2,0.7C6,51,6.3,51.1,6.5,51
		c0.2-0.1,0.3-0.4,0.2-0.7C6.7,50.1,6.5,50,6.3,50z M3.6,51.5c-0.1,0-0.2,0-0.2,0.1C3.1,51.7,3,52,3.1,52.2c0.1,0.2,0.4,0.3,0.7,0.2
		c0,0,0,0,0,0C4.1,52.3,4.2,52,4,51.7c0,0,0,0,0,0C3.9,51.6,3.8,51.5,3.6,51.5L3.6,51.5z M12.1,52.1L11.9,54l-1.4-1.6l0.8,2
		l-1.9-0.8L14,58L12.1,52.1z M5.9,52.6c-0.1,0-0.2,0-0.2,0.1c-0.2,0.1-0.3,0.4-0.2,0.7c0,0,0,0,0,0c0.1,0.2,0.4,0.3,0.7,0.2
		c0.2-0.1,0.3-0.4,0.2-0.7c0,0,0,0,0,0C6.2,52.7,6.1,52.6,5.9,52.6z M3,54.1l-0.4,1.8l-1.2-1.7l0.5,2.1l-1.7-1.1L2,57.6l1.7,0.5
		L3,54.1z M15.6,57.3c-0.1,0-0.2,0-0.2,0.1c-0.2,0.1-0.3,0.4-0.2,0.7c0,0,0,0,0,0c0.1,0.2,0.4,0.3,0.7,0.2c0.2-0.1,0.3-0.4,0.2-0.7
		c0,0,0,0,0,0C16,57.4,15.8,57.3,15.6,57.3L15.6,57.3z M12.9,58.7c-0.1,0-0.2,0-0.2,0.1c-0.2,0.1-0.3,0.4-0.2,0.7c0,0,0,0,0,0
		c0.1,0.2,0.4,0.3,0.7,0.2c0.2-0.1,0.3-0.4,0.2-0.7C13.3,58.8,13.1,58.7,12.9,58.7z M5.7,59.7c-0.1,0-0.1,0-0.1,0
		c-0.1,0-0.2,0.1-0.3,0.2l0.3,0.7c0.1,0,0.2,0,0.4,0c0.3-0.1,0.4-0.4,0.3-0.7C6.2,59.8,6,59.7,5.7,59.7C5.8,59.7,5.7,59.7,5.7,59.7
		L5.7,59.7z M15.2,59.8c-0.1,0-0.2,0-0.2,0.1c-0.2,0.1-0.3,0.4-0.2,0.7c0.1,0.2,0.4,0.3,0.7,0.2c0.2-0.1,0.3-0.4,0.2-0.7
		C15.6,59.9,15.4,59.8,15.2,59.8z"/>
</symbol>
<symbol  id="HK2" viewBox="-44.7 -59.9 89.4 119.8">
	<path d="M-23.6-59.9c-6.6,0-13.6,0.3-21.1,1l1.2,3c19.1-1.7,34.7-0.9,50.1,1.5l1.1-2.9C-2.4-58.9-12.5-59.9-23.6-59.9z M21.5-36.8
		l-0.9,1.9c5.1,2.4,10.6,2.5,15.8,0.3l-0.8-1.9C31-34.6,26.1-34.6,21.5-36.8z M-31.9-26.8c-1.2,4.1-6,5.5-11.2,5.8
		c0.4,0.8,0.8,1.6,1.2,2.5c1.7-0.2,3.4-0.5,5-0.9c1.7-0.5,3.4-1.3,4.7-2.5c2,3,4.4,4.9,6.8,5.8L-36.8-5.1c0.3,0.9,0.6,1.7,0.9,2.7
		l17.2-16.8C-21.9-17.2-27.9-17.4-31.9-26.8z M11-21.6l-1.3,2.3c1.3,1.2,2.5,2.5,3.5,3.9c4.5,6,6.8,13.4,6.8,21.2
		c0,7.8-2.3,15.2-6.8,21.2c-1.9,2.5-4.2,4.8-6.9,6.6c2.9,0.2,5.7,0.3,7,0.4c0-0.9,0.7-1.6,1.6-1.5c0.4,0,0.7,0.2,0.9,0.3
		c3.4-2,5.4-5,7.5-7.9l-2.1-1.5c-1.9,2.6-3.6,4.9-5.8,6.6c-0.1,0-0.3,0-0.4,0c-0.3,0-0.5,0-0.8,0c0.4-0.5,0.7-0.9,1.1-1.4
		C20,22,22.5,14,22.5,5.7c0-8.3-2.5-16.3-7.3-22.7C14-18.6,12.5-20.2,11-21.6z M18.9-19.4l0.4,0.6h25.5v-0.6H18.9z M20.1-17.4
		l0.4,0.6h24.1v-0.6H20.1z M21.4-15.5l0.6,0.9h22.6v-0.9H21.4z M23.1-13.1l0.9,1.2h20.6v-1.2H23.1z M25-10.7l1.2,1.5h18.5v-1.5H25z
		 M-13.1-3.8l-18.7,18.3l0.5,3.1l17.9-17.5L-13.1-3.8z M39.6,9.7v17.1h2V11.6L39.6,9.7z M-29.9,19.7l-1,1l0.5,3.6h17.5l-0.4-4.4
		l-0.2-0.2l-2,2l-2-2l-2,2l-2-2l-2,2l-2-2l-2,2L-29.9,19.7z M23.4,28.8L23.2,30H42l1.4-1.2H23.4z M23,31l-0.3,0.9h17l1.1-0.9H23z
		 M22.4,32.7l-0.3,0.6h15.8l0.8-0.6H22.4z M44.7,37.7c-8.5,7.7-19,13.8-30.2,19.7l1.9,2.4c10.2-5.4,20-11,28.2-18.1V37.7z"/>
</symbol>
<symbol  id="HK3" viewBox="-66.7 -74.2 133.5 148.3">
	<path class="st0" d="M-13.2-73.8c1.7,5.4,6.7,5.6,7,10.2c0.3,4.6-6.1,4.9-6.3,0.4c-0.2-3.1,3.4-3.3,3.6-0.2
		c0.1,1.5-2.2,1.7-2.3,0.1 M-13.9-73.8c-1.1,5.6-6.1,6.4-5.9,10.9c0.2,4.6,6.6,4.2,6.3-0.4c-0.2-3.1-3.8-2.9-3.6,0.2
		c0.1,1.5,2.3,1.4,2.3-0.1 M18.6-73.8c0.7,6,6.6,7.1,6.1,11.8c-0.5,4.6-7.6,3.7-7.1-0.8c0.4-3.1,4.4-2.6,4.1,0.5
		c-0.2,1.5-2.7,1.2-2.5-0.3 M18-73.8c-2.1,5.6-8,5.4-8.6,10c-0.6,4.6,6.6,5.4,7.1,0.8c0.4-3.1-3.7-3.5-4.1-0.5
		c-0.2,1.5,2.4,1.8,2.5,0.3 M27.1-57.8c0.1-0.1,0.3-0.3,0.4-0.4c1.6-1.7,2.5-4,2.8-6.7c3-0.6,5.3-1.3,7.2-2.2 M22.4-58.4
		c3.2-1.2,5.1-3.9,4.9-9.1c9.4-1.1,11-4,14.6-6.4 M-29.8-67.5c1.3,0.9,2.7,1.7,4.2,2.1c0.3,1.2,0.7,2.6,1.6,4.2
		c0.4,0.8,1,1.5,1.6,2.2 M-17.8-59.4c-4.3-2.1-4.1-5.5-5.5-8.8c-2.8,0.1-5.9-2.5-8.9-5.6 M-4-59.9c1.3-1.6,2.3-3.5,2.8-5.8
		c1.1-0.5,2.1-1.1,2.9-1.9c0.7,0.9,1.6,1.6,2.7,2.2c0.2,2.2,0.9,4.1,1.9,5.7 M1.6-73.8c-0.8,2.9-2.2,5.3-5.5,5.7
		c-0.3,4.1-2.1,6.7-4.6,8.3 M10.2-59.5c-1.8-1.9-2.9-4.4-2.8-8c-3.3-0.8-4.4-3.3-4.9-6.3 M42.4-73.8c-9.8,12.6-12,17.8-14.1,23.9
		 M-33.7-73.8c6.2,9.7,9.3,15.6,11.8,22.4 M-23-54.4c20-1.8,36.3-1,52.4,1.5 M-21.9-51.4c19.1-1.7,34.7-0.9,50.1,1.5 M-25-58.8
		c21.6-2.1,39.1-1.2,56.3,1.6 M23.4,37.8c-5-16.8-2.8-35.8,11-57.7c5.9,13.4,19.6,27.8,32,38.4 M46.7,73.9
		C39.3,66.5,33,58.6,28.5,50.1 M-66.4-5c11-8.8,24.3-14.8,37.7-20.6 M11.6-17.4C3.7,15.5,9.2,46.9,21.3,73 M-14.3,2.2L2.9-14.6
		 M-3.8-11.6L-15.1-0.5 M-13.4,5C-5.7-2.6,2.1-10.3,9.9-17.9 M-9.5,23.2H8.3 M-10.1,19L8.6,0.7 M9-3.3L-10.7,16 M-9.6,22.1L8.2,4.6
		 M8.1,20.6H-8.1 M-27.1-22.3c-1,0-2,2.9,0.5,3.1c1.9,0.1,4.1-4.6,0-4.6c-4.6,0-4.1,7.5,1,7.5c6.6,0,13.8-0.9,15.3-6
		C-4.6-9,5.1-14.1,5.1-17.7c0-2.8-3.6-3.1-4.1-1.5c-0.7,2.1,1,3.1,2.6,1.5 M-9.2,25.2l1-1l2,2l2-2l2,2l2-2l2,2l2-2l2,2l2-2l0.2,0.2
		 M-6.2-2.1C-6.1-2-5.9-1.8-5.8-1.7C-4.1,0-4.1,2.8-5.9,4.4l0,0c-1.7,1.7-4.5,1.6-6.1-0.1l0,0c-0.1-0.1-0.3-0.3-0.4-0.4 M6.2-14.2
		c0.2,0.1,0.3,0.3,0.5,0.4c1.7,1.7,1.6,4.5-0.1,6.1l0,0C4.9-6,2.1-6,0.5-7.7l0,0C0.3-7.9,0.2-8.1,0-8.2 M0-8.2
		C0.1-8,0.3-7.9,0.5-7.7C2.1-6,2.1-3.3,0.4-1.6l0,0C-1.4,0.1-4.1,0-5.8-1.7l0,0C-5.9-1.8-6-2-6.2-2.2 M-12.4,4
		c0.1,0.1,0.3,0.2,0.4,0.4c1.6,1.7,1.6,4.3,0,6 M-12,10.4c1.7-1.6,4.4-1.5,6,0.2c0.1,0.1,0.2,0.3,0.4,0.4 M-5.5,11
		c-0.1-0.1-0.3-0.2-0.4-0.4c-1.7-1.7-1.6-4.5,0.1-6.1l0,0c1.7-1.7,4.5-1.6,6.1,0.1l0,0c0.1,0.1,0.2,0.3,0.3,0.4 M10.6-12.6
		c-1.4,0.3-2.9-0.2-3.9-1.2c-0.2-0.2-0.3-0.3-0.4-0.5 M6.9-1.2C6.7-1.3,6.6-1.4,6.5-1.5C4.8-3.2,4.9-6,6.6-7.7l0,0
		C7.5-8.5,8.7-9,9.9-8.9 M0.7,4.9C0.5,4.8,0.4,4.7,0.3,4.5c-1.7-1.7-1.6-4.5,0.1-6.1l0,0c1.7-1.7,4.5-1.6,6.1,0.1l0,0
		c0.1,0.1,0.2,0.2,0.3,0.4 M4.7-16.3l2.6-2.5 M-20.3-13.9c1.7-0.2,3.4-0.5,5-1c1.7-0.5,3.4-1.3,4.7-2.5c2,3,4.4,4.9,6.8,5.8
		 M30.5-20.4c5,1.6,9.8,0.7,14.4-6c0.7,3.4,2.7,6,4.6,8.7c2-3.1,3.4-6.1,4.1-9.2c2.9,5.6,7.8,7.2,12.8,8.9 M66.4,14.4
		C55,4.4,43.1-8.6,37.7-20.2 M24.8-0.6c1.8,3.1,2.7,6.9,2.7,10.9l0,0c0,6.3-2.5,12.2-6.5,15.4 M21.3,28.4c1.6-1,3-2.4,4.1-3.9
		c2.8-3.7,4.4-8.7,4.4-14.1c0-5.2-1.5-9.9-4-13.6 M23.2,37.7c3.9-1.8,7.1-4.6,9.6-7.8c4.1-5.5,6.3-12.4,6.3-19.7S36.9-3.9,32.8-9.4
		c-0.8-1.1-1.7-2.1-2.7-3.1 M27.8,38.1c2.7-1.8,5.1-4.1,7-6.6c4.5-6,6.8-13.4,6.8-21.2c0-7.8-2.3-15.2-6.8-21.2
		c-1-1.4-2.2-2.7-3.5-3.9 M35.8,34.3c0.4-0.4,0.7-0.9,1.1-1.3c4.8-6.4,7.3-14.4,7.3-22.7c0-8.3-2.5-16.3-7.3-22.7
		c-1.2-1.6-2.7-3.2-4.2-4.6 M52.4-33.2l-1.3,5.8c-0.4,1.6-1,3.3-1.8,5c-0.9-1.4-1.6-2.9-1.9-4.4l-1.2-5.9l-3.4,5
		c-1.8,2.7-3.6,4.1-5.2,4.9 M62.4-22.2c-2.7-1.2-4.9-2.8-6.5-5.9l-2.7-5.3 M34.2-19.7c5.4-4.1,7.5-9.5,10-14.8 M56.2-39.6
		c-0.4,0-0.8,0.1-1.2,0.3c-3.6,1.8-5.3,1.8-9,0c-1.3-0.6-2.8-0.2-3.4,1.1c-0.6,1.3-0.2,2.8,1.1,3.4c0,0,0,0,0.1,0
		c4.5,2.3,9,2.3,13.5,0c1.3-0.6,1.8-2.1,1.2-3.4C58.1-39.1,57.1-39.6,56.2-39.6L56.2-39.6 M56.4-34.4c2.6,7.4,5.8,13.4,10,16.1
		 M66.4,57.7c-6.5,5.5-13.9,10-21.9,13.9 M66.4,46.3c-8.3,7.1-18,12.7-28.2,18.1 M66.4,42.3C57.9,50,47.4,56.1,36.2,62 M45.1,31.4
		h21.2 M52.1,21.1l4,5l-4,4 M52.1,21.1L52.1,21.1 M61.3,22.7l-4.4-5.5l3.5-3.9 M55.8,9.1l-3.8,4.2 M59.5,31.4l1.8-1.8 M49,1.9v29.5
		 M52.1,5.2v26.2 M58,11.2l-5.3,5.9l7.5,9.1l-5.1,5.1 M61.3,14.2v17.1 M63.3,16.1v15.3 M48.9-3.4h17.5 M36.5,36.9
		c-0.8,0-1.6,0.6-1.6,1.5c0,0.2,0,0.3,0,0.5c1,4,1,5.5,0,8.3c-0.3,0.8,0.1,1.7,0.9,2c0.8,0.3,1.7-0.1,2-0.9c0,0,0,0,0-0.1
		c1.1-3.3,1.1-5.8,0-10C37.8,37.4,37.2,36.9,36.5,36.9L36.5,36.9 M37.6,48.6l7.3,7.3c0.4-2.2,0.5-4.6-2-9.2c3-1,5.4-2.7,7.2-5.1
		c-1.7-0.7-4.1-1.4-7.2-2c2.3-3.8,2.6-7.1,2-10.2c-2.2,2.9-4.2,5.9-7.6,7.9 M66.4,32.2c-4.6,3.9-10.9,9.7-17.9,11.2 M34.9,38.5
		c-2.8-0.1-11.9-0.7-14.5-0.7c-5.6,0-8.1,2.8-1,2.8 M44.9,29.3l-2.1-1.5c-1.9,2.6-3.6,4.9-5.8,6.6c-0.1,0-0.3,0-0.4,0
		c-0.3,0-0.5,0-0.8,0 M25.5,46.2c-4.1,0-6.1,0.5-8.2,0.5c-3.1,0-4.1,2.6-1,2.6h8.5 M24.5,43.1c-0.5,0-6.1,0.5-8.2,0.5
		s-4.6,2.6,0,3.1 M24,40.6h-4.6c-4.1,0-7.7,2.6-3.6,3.1 M35,48c-2,0.7-7.7,2.6-8.5,2.8c-1.5,0.5-2.6,1-3.7,1.6
		c-2.7,1.5-3.5-1.1-1.9-2.2c1.5-1,2.6-1,2.6-1 M38.2,39.3c0.1,0,0.2-0.1,0.3-0.1c1.3-0.7,2.4-1.6,3.3-2.5c-0.2,0.5-0.5,1.1-0.9,1.6
		l-1.7,2.7l3.1,0.7c1.3,0.3,2.4,0.6,3.4,0.9c-1,0.8-2.3,1.4-3.7,1.9l-2.6,0.9l1.3,2.4c0.3,0.6,0.6,1.1,0.8,1.6L39.3,47
		c-0.3-0.3-0.6-0.5-0.9-0.6 M46-42.9l0.3,3.7 M56.1-43.2v3.6 M44.4-63.1c0,8.7,4.1,22-2.6,22c-3.6,0-3.9-5-1.4-4.8
		c1.9,0.2,1.8,2.2,0.9,2.7c2.6-2.2,2.8-5.4,0-9.7c2-1.4,0.5-7.7,0.5-9.7c0-4.6,6.1-3.6,6.1-1C48-61.1,44.9-61.1,44.4-63.1L44.4-63.1
		 M45.1-43.6c1.1,0.9,3.3,2.4,5.4,2.4c3.1,0,7.7-2.6,7.7-5.1c0-1.2-0.5-2.4-0.9-3.3 M44.8-57.1c0.3-0.2,0.8-0.4,1.6-0.4
		c2.6,0,3.6,1.5,4.1,1.5c1.9,0,2.4,2.5-0.5,2.6c-2,0-3.1-2-3.1-2c0.6,1.4,1.7,3,0.5,4.1c3.6,0.7,4.6,3.1,4.6,6.1 M47.9-57.3
		c0-0.4,0-0.8,0-1.2 M50.9-53.5c-0.6,3.9-2.3,3.7-2.8-0.6 M46-57.5c0.1-1.2,0.8-2,2-2.6c2.2-1.1,3,2.2,3.1,4.2 M50-59.5
		c4-3.5,3.9,7.3,3.6,8.2c-0.8,2.1-2.7,2.8-3.1-0.6 M52.8-59.2c2.4-2.1,4.1,1.7,3.6,5.2c-0.6,4.5-2.8,6.3-3.1,3.2 M55.7-58.7
		c2.2-1.4,3.8,2.3,3.2,5.5c-0.8,4.6-3.2,4.9-2.8,0.7 M59-54.9c0.1,0,0.1,0,0.2,0c1.1,0,2,1.4,2,3.1l0,0c0,1.7-0.9,3.1-2,3.1
		c-0.6,0-1.2-0.4-1.6-1.1 M65.9-51.9c0,1.4-1,2.6-2.3,2.6c-1.3,0-2.3-1.1-2.3-2.6s1-2.6,2.3-2.6C64.8-54.4,65.9-53.3,65.9-51.9
		L65.9-51.9 M30.9-56.5l11.4,0 M26.9-47.8l16.4,0 M51-49.8c1.5,0.8,2.7,1.8,3.1,3.6 M27.3,13.5c-0.1,0-0.1,0-0.2,0
		c-1.6,0-3-1.4-3-3.1l0,0c0-1.7,1.3-3.1,3-3.1l0,0c0.1,0,0.2,0,0.2,0 M27.3,7.2c-0.2,0.1-0.4,0.1-0.7,0.1c-1.6,0-3-1.4-3-3.1l0,0
		c0-1.3,0.8-2.5,2-2.9 M25.6,19.6c-1.2-0.4-2-1.6-2-2.9c0-1.7,1.3-3.1,3-3.1l0,0c0.3,0,0.5,0,0.8,0.1 M22.2,24.6
		c-0.7-0.6-1.1-1.5-1.1-2.4c0-1.7,1.3-3.1,3-3.1l0,0c0.6,0,1.1,0.2,1.6,0.5 M21.1,25.4c0,0,0.1,0.1,0.2,0.1 M22.8,6
		c0.3,0.6,0.7,1.1,1.1,1.5c-0.7,0.8-1.1,1.8-1.1,2.9c0,1.1,0.4,2.1,1.1,2.9c-1,0.8-1.7,2-1.7,3.4c0,0.5,0.1,1,0.2,1.4
		c-0.6,0.2-1.1,0.6-1.6,1 M25.2,0.1c-0.3,0.1-0.5,0.2-0.7,0.4 M8.6-24.3c0-3.6-3.6-3.6-3.6,0.5s5.6,2,5.6-1.5c0-5.1-7.7-4.1-7.7,1
		c0,6.6,11.7,8,18.3,7.5c6.6-0.5,13.2-5,13.3-11.6c0.1-9.3-6.7-13.1-8.3-21.7 M5.8-19.7c5,0.2,6.9-2.1,7-6.8
		C12.9-34.1,6.1-35,6.7-52 M7.2-18.8C7.2-18.8,7.2-18.8,7.2-18.8 M29.4-19.6c2.3-2.1,3.6-5.7,3.6-8.8c0.1-9.3-6.6-13.1-8.2-21.9
		 M28.4-19c2.1-2.3,3.1-6.4,3.1-9.4c0.1-9.4-6.6-13.2-8.1-22.1 M26.5-18.1c2.3-2.2,3.5-7.1,3.5-10.4c0.1-9.5-6.6-13.2-7.9-22.3
		 M24.9-17.5c2.4-2.3,3.5-7.7,3.5-10.9c0.1-9.5-6.5-13.3-7.8-22.5 M23.5-17.2c2.3-2.4,3.3-8.1,3.4-11.3c0.1-9.6-6.5-13.3-7.7-22.7
		 M21.7-16.9c2.5-2.2,3.6-8.2,3.6-11.5c0.1-9.6-6.4-13.4-7.6-22.8 M20-16.8c2.6-2.1,3.7-8.3,3.8-11.7c0.1-9.7-6.4-13.4-7.4-23
		 M18.5-16.7c2.6-2.1,3.7-8.3,3.8-11.7c0.1-9.7-6.3-13.4-7.3-23.1 M17-16.8c2.5-2.2,3.7-8.3,3.7-11.6c0.1-9.8-6.2-13.5-7.2-23.2
		 M15.6-16.9c2.5-2.2,3.6-8.2,3.6-11.5c0.1-9.8-6.1-13.5-7-23.3 M14.2-17c2.4-2.3,3.7-8.2,3.4-11.4c-0.8-9.7-6.4-12.2-6.9-23.4
		 M12.1-17.4c2.8-2.1,4.3-7.4,4-11.1c-0.8-8.7-6.4-9.2-6.8-23.5 M9.9-17.9c3.5-1.6,5-6.4,4.8-9.4c-0.4-9.3-6.6-8.3-6.8-24.7
		 M10.6-24.4c0.3-1.9,0.5-2.2,0.4-3.3c-0.4-6.9-6.8-4.5-5.9-24.4 M3.5-17.7C1-14.1-4.2-16.8-6.7-22.3 M1-17.5
		c-2.2-0.8-4.4-2.6-5.7-5.3 M7.2-18.8c-0.6,0.8-1.3,1.3-2.2,1.6 M1.2-19.5c-1.7-0.7-3.3-2.1-4.3-4.3 M5.7-19.7
		c-2.7,0.1-5.7-1.7-7.3-5.1 M3.7-21.8c-1.5-0.7-2.8-2-3.7-4 M3.1-24.6c-0.7-0.6-1.3-1.5-1.8-2.5 M3.6-26.5c-0.4-0.6-0.8-1.2-1.1-1.9
		 M5.2-28c-0.4-0.6-0.8-1.2-1.1-1.9 M7.1-28.6C6.5-29.3,6-30,5.6-30.9 M-27.1-19.2c5,0.8,6.6-3,6.6-7.2c0-4.3-2.5-8.7-1.5-12.7
		 M-26.3-16.3c5,0.8,7.1-5.6,7.1-9.9c0-4.3-2.8-6.8-2.8-12.9 M-21.5-16.4c2.4-1.6,3.5-5.3,3.7-8.3 M-19.3-16.6
		c1.8-1.8,2.8-5,2.9-7.7 M-17-17.1c1.3-1.9,2-4.5,2.1-6.7 M-14.7-17.8c0.8-1.7,1.3-3.7,1.4-5.5 M-12.5-19.1c0.4-1.2,0.6-2.5,0.7-3.7
		 M-22-39.1c0,0,0.6,8.2,0.5,10.7c-0.2,4-7.7,7.9-7.7,0c0-5.1,6.1-4.6,6.1-0.5s-4.6,3.1-4.6,0.5s3.6-2,3.6,0 M-23.1-38.3
		c-0.2,1.8-0.9,2.8-0.8,4.1c0.1,0.8,0.8,2.7,0.8,5.3 M-20.7-51.6c-0.4,1.4-1.3,4.2-1.3,5.4c0,1.5,0.5,2.6,0.5,5.1
		c0,4.1-7.2,5.6-7.2,0c0-4.6,6.1-5.6,6.1-1.5s-4.1,3.1-4.1,1c0-2,2.6-2,2.6-0.5 M-21.8-51.5c-0.6,1.1-1.3,2.7-1.3,3.8
		c0,2.1,0.6,4.9,0.6,4.9 M-22-46.8c0,0,1.5-2,3.5-2s3.1,1,4.1,1c0.5,0,1.5-1,1.5-1v1c-0.5,0-1,0.5-1.5,0.5c-0.5,0-3.1-1.5-3.6-1.5
		 M2-47.3c0,0-3.6-2-4.6-2c-1.5,0-3.6,1-4.6,1s-2.6-0.5-2.6-0.5v0.5c0.9,0,2.1,0.5,2.6,0.5c0.5,0,3.1-1.5,4.6-1.5 M-12.8-47.8
		c0,0,1,2.6,1,3.1s-2,5.1-2,6.1c0,1-1,3.6-1,4.1c0,0.5,1.5,1.5,2,1.5c0.5,0,2-1,3.1-1.5c0.5-0.2,1,1-3.1,1.5 M-8.7-36.6
		c2.6,0,3,2.5,1.1,3.2c-0.7,0.2-1.7-0.2-1.9-0.9 M-14.8-30.4l-1,2l1-1V-30.4L-14.8-30.4 M-4.6-30.4l0.5,2l-1-1.5L-4.6-30.4
		L-4.6-30.4 M-15.4-28.9l0.5-0.6c0.1-0.1,1.6-0.5,2.6-1.5c0,0,0,1,1.4,1c1,0,1.7-1,1.7-1s1,1,2,1l2.6,0.5l-0.5-0.5
		C-8-29.2-14.3-30.2-15.4-28.9L-15.4-28.9 M-12.3-27.9c1.7,1.8,3.1,1.5,4.6,0 M-21.5-43.7c2,0,3.1-1.7,4.1-1.6
		c2,0.1,2.5,1.6,3.5,1.6c-0.5,0-1.5,1.5-4.1,1.5C-19.4-42.2-19.4-43.7-21.5-43.7L-21.5-43.7 M-0.5-43.7c-2,0-3.1-1.7-4.1-1.6
		c-2,0.1-2.5,1.6-3.5,1.6c0.5,0,1.5,1.5,4.1,1.5C-2.6-42.2-2.6-43.7-0.5-43.7L-0.5-43.7 M37.8-54.9l-2.6,3.1l3.1,2.6 M33.3-51.9h2
		 M31.6-49.3l3.6-5.6v5.6"/>
</symbol>
<symbol  id="HK4" viewBox="-40 -65.7 80 131.4">
	<path class="st1" d="M-2.9,34.7c0.5,1.2,0.3,1.9,0.1,2.8 M-2.4,37.9c0.5,1.2,0.4,1.3,0.1,2.3 M-2.4,32c0.5,1.2,0.4,1.5,0.1,2.4
		 M11.9-64H24 M11.1-62.1h12.1 M10.4-60.3H24 M8.2-58.4h16.5 M32.2-61c1-0.2,2,0,3.1,0.5 M29.9-61.9c1-0.2,1.5-0.2,2.5,0.3
		 M35.3-60.4c1-0.2,1-0.1,2.1,0.4 M37.8-60c1-0.2,1-0.3,2,0.3 M31.2-65.6c-0.5,1,2.2,1.6,2.5,1.6 M36.3-64.5c0.3-0.2,0.7-0.2,1,0
		 M38.8-64.1c0.3-0.2,0.7-0.2,1,0 M33.4-65.3c0.3-0.2,0.7-0.2,1,0 M1,32.5c0.2,0.4,0.2,0.7,0,1 M0.9,35.3c0.2,0.4,0.2,0.7,0,1
		 M1.3,38.4c0.2,0.4,0.2,0.7,0,1 M-39.3-52.8c1,0,1.5,2.5,3.6,2.5c2,0,4.1-2.5,4.6-2.5 M-18.8-52.7c-1,0-1.5,2.5-3.6,2.5
		c-2,0-4.1-2.5-4.6-2.5 M-39.8-52.8c1.5,0,2.4-2.9,4.1-3.1c1.3-0.2,3.6,1.5,3.6,1.5 M-18.9-54.3c0,0-3-1.7-4.3-1.5
		c-1.7,0.2-2.6,3.1-4.1,3.1c0.7,0,1.2,2.5,1.2,2.5 M-39.8-52.3c0.3,1.9,2.5,3.4,2.6,3.1 M-33.2-42.1c-1.5,1.5-2.2,2.6-3.1,4.1
		 M-24-43.1c0.5,2,3.4,4.5,3.6,4.1 M-30.1-32.9c0.5-2,2.6-1.5,3.6-0.5 M-34.3-54c0.1,0.2,0.1,0.5,0.1,0.7l0,0c0,0.9-0.4,1.7-1.1,2
		 M-35.9-51.3c-0.7-0.1-1.3-1-1.3-2c0-0.1,0-0.3,0-0.4 M-35.3-51.3c-0.1,0.1-0.3,0.1-0.4,0.1c-0.1,0-0.1,0-0.2,0 M-21.8-53.9
		c0.1,0.2,0.1,0.5,0.1,0.7l0,0c0,0.8-0.4,1.6-1,1.9 M-24-51.5c-0.4-0.4-0.7-1-0.7-1.7c0-0.3,0-0.5,0.1-0.8 M-22.6-51.3
		c-0.2,0.1-0.4,0.1-0.5,0.1c-0.3,0-0.6-0.1-0.8-0.3 M-5.1-25.7l-2.1,1.5 M-5.1-24.2l-2.5,1.7 M-5.1-22.6l-2.9,2 M-5.3-21l-3,2.1
		 M-5.7-19.2l-3,2 M-6-17.4l-2.9,2 M-6.3-15.7l-2.9,2 M-6.5-14l-2.8,2 M-6.8-12.3l-2.8,1.9 M-7-10.6l-2.8,1.9 M-7.2-9l-2.7,1.9
		 M-7.3-7.3L-10-5.4 M-7.5-5.7l-2.7,1.9 M-7.6-4.1l-2.7,1.9 M-7.7-2.5l-2.6,1.8 M-7.7-0.9l-2.6,1.8 M-7.8,2.2L-10.4,4 M-7.8,0.7
		l-2.6,1.8 M-7.9,3.8l-2.5,1.8 M-7.9,5.3l-2.5,1.8 M-7.9,6.8l-2.5,1.7 M-7.8,8.3l-2.5,1.7 M-7.8,9.8l-2.5,1.7 M-7.7,11.3l-2.5,1.7
		 M-7.6,12.8l-2.4,1.7 M-7.5,14.3l-2.4,1.7 M-7.4,15.7l-2.4,1.7 M-7.3,17.2l-2.4,1.7 M-7.1,18.6l-2.4,1.6 M-7,20l-2.4,1.6
		 M-6.8,21.4l-2.4,1.6 M-6.6,22.8l-2.3,1.6 M-6.4,24.2l-2.3,1.6 M-6.2,25.6l-2.3,1.6 M0.2,16.6l3,4 M0,13.8l2.8,3.7 M0,11.1l2.6,3.5
		 M0.1,8.7l2.4,3.3 M0.3,6.3l2.3,3.1 M0.6,4l2.2,3 M0.9,1.8L3,4.7 M1.3-0.3l2.1,2.8 M1.7-2.3l2,2.7 M2.2-4.3l2,2.6 M2.7-6.2l1.9,2.6
		 M3.2-8l1.9,2.5 M3.8-9.9l1.8,2.5 M4.5-11.6l1.8,2.4 M5.1-13.3l1.8,2.4 M5.8-15l1.8,2.4 M6.5-16.7l1.8,2.4 M7.3-18.3L9-16 M8-19.9
		l1.7,2.3 M8.8-21.5l1.7,2.3 M9.6-23l1.7,2.3 M10.4-24.5l1.7,2.3 M11.2-26l1.7,2.3 M12.1-27.5l1.6,2.2 M1.5,29.4
		c0.2,0.4,0.2,0.7,0,1 M-1.7,29.1c0.5,1.2,0.3,1.4,0.1,2.3 M0.5,19.7l3,3.5 M1,22.8l3.4,3.8 M1.5,26.2l2.5,2.5 M5.3,42.7
		C4.6,42,2,43.2,2,43.2 M-8.1,29.3l3.2,3 M-7.6,31.8l3.3,3 M-7.1,34.4l3.4,3.1 M-6.5,37l3.5,3.2 M-5.8,39.7l3.6,3.3 M-5,42.4
		l3.7,3.4 M-4.2,45.3l3.9,3.6 M-3.3,48.2l4,3.7 M-2.2,51.2L2,55.1 M-1.1,54.3l4.4,4.1 M0.2,57.5l3.9,3.6 M1.6,60.9l2.4,2.3
		 M27.9,64.4l-0.5,0.9 M26.9,63.3l-1.4,2.2 M25.9,62.3l-1.4,2.2 M24.9,61.2l-1.4,2.3 M23.9,60.1l-1.4,2.3 M22.9,59l-1.4,2.3
		 M21.9,57.9l-1.4,2.3 M20.9,56.7L19.5,59 M20,55.6l-1.4,2.3 M19,54.4l-1.4,2.3 M18.1,53.2l-1.4,2.3 M17.1,52l-1.4,2.3 M16.2,50.8
		l-1.4,2.3 M15.3,49.5l-1.5,2.4 M14.4,48.2L13,50.6 M13.4,46.6L11.9,49 M12.5,45.2L11,47.7 M11.7,43.9l-1.5,2.4 M10.9,42.4l-1.5,2.5
		 M10.1,41.1L8.9,43"/>
	
		<use xlink:href="#SHK"  width="75" height="75" x="-37.5" y="-37.5" transform="matrix(8.903295e-03 0.1018 -0.1018 8.903265e-03 16.1382 -1.0926)" style="overflow:visible;"/>
	
		<use xlink:href="#SHK"  width="75" height="75" x="-37.5" y="-37.5" transform="matrix(5.107692e-02 8.846752e-02 -8.846782e-02 5.107675e-02 13.0736 -11.2058)" style="overflow:visible;"/>
	
		<use xlink:href="#SHK"  width="75" height="75" x="-37.5" y="-37.5" transform="matrix(-3.493867e-02 9.599289e-02 -9.599321e-02 -3.493856e-02 14.8102 10.1443)" style="overflow:visible;"/>
	
		<use xlink:href="#SHK"  width="75" height="75" x="-37.5" y="-37.5" transform="matrix(-6.566323e-02 7.825413e-02 -7.825439e-02 -6.566301e-02 9.3961 19.5424)" style="overflow:visible;"/>
</symbol>
<symbol  id="SH3" viewBox="-11.2 -12.3 22.3 24.5">
	<rect x="-11.2" y="-11.2" class="st2" width="22.3" height="22.3"/>
	<path class="st3" d="M0-6.7c0-2.2,2.2-4.5,4.5-4.5s4.5,2.2,4.5,5.6C8.9,0,0,8.9,0,11.2C0,8.9-8.9,0-8.9-5.6c0-3.3,2.2-5.6,4.5-5.6
		S0-8.9,0-6.7z"/>
</symbol>
<symbol  id="SHK" viewBox="-37.5 -37.5 75 75">
	<rect x="-37.5" y="-37.5" class="st4" width="75" height="75"/>
	<path class="st5" d="M0-22.5c0-7.5,7.5-15,15-15S30-30,30-18.8C30,0,0,30,0,37.5C0,30-30,0-30-18.8c0-11.3,7.5-18.8,15-18.8
		S0-30,0-22.5z"/>
</symbol>
<symbol  id="VHK" viewBox="-10.4 -16 20.8 32">
	<path class="st6" d="M-9.1-14.7h6.4 M-5.9-14.7v29.4 M-9.1,14.7h6.4 M2.7-14.7h6.4 M5.9-14.1L-5.4,5 M2.7,14.7h6.4 M5.9,14.1
		L-0.3-2.2"/>
</symbol>
<path class="st7" d="M23.5,9.3h128.8c7.8,0,14.1,6.4,14.1,14.2v216.6c0,7.8-6.3,14.2-14.1,14.2H23.5c-7.8,0-14.1-6.4-14.1-14.2V23.5
	C9.3,15.7,15.6,9.3,23.5,9.3z"/>
<g>
	<rect id="XHK" x="38.4" y="55.5" class="st8" width="98.9" height="152.6"/>
</g>
<g>
	<defs>
		<rect id="SVGID_1_" x="38.4" y="55.5" width="98.9" height="152.6"/>
	</defs>
	<clipPath id="SVGID_00000166633843392482368120000014145657863514870925_">
		<use xlink:href="#SVGID_1_"  style="overflow:visible;"/>
	</clipPath>
	<g style="clip-path:url(#SVGID_00000166633843392482368120000014145657863514870925_);">
		
			<use xlink:href="#HK1"  width="84.8" height="121.6" x="-42.4" y="-60.8" transform="matrix(0.7447 0 0 0.7468 105.7513 122.0823)" style="overflow:visible;"/>
	</g>
</g>
<g>
	<defs>
		<rect id="SVGID_00000158000909567703972870000010691528997270772913_" x="38.4" y="55.5" width="98.9" height="152.6"/>
	</defs>
	<clipPath id="SVGID_00000098937212452547576030000003036588039022461576_">
		<use xlink:href="#SVGID_00000158000909567703972870000010691528997270772913_"  style="overflow:visible;"/>
	</clipPath>
	<g style="clip-path:url(#SVGID_00000098937212452547576030000003036588039022461576_);">
		
			<use xlink:href="#HK1"  width="84.8" height="121.6" x="-42.4" y="-60.8" transform="matrix(-0.7447 0 0 -0.7468 69.9968 141.5397)" style="overflow:visible;"/>
	</g>
</g>
<g>
	<defs>
		<rect id="SVGID_00000004507369024374240080000004913698137298925246_" x="38.4" y="55.5" width="98.9" height="152.6"/>
	</defs>
	<clipPath id="SVGID_00000149342098517288939480000007612221529355764393_">
		<use xlink:href="#SVGID_00000004507369024374240080000004913698137298925246_"  style="overflow:visible;"/>
	</clipPath>
	
		<g transform="matrix(1 0 0 1 0 -7.629395e-06)" style="clip-path:url(#SVGID_00000149342098517288939480000007612221529355764393_);">
		
			<use xlink:href="#HK2"  width="89.4" height="119.8" x="-44.7" y="-59.9" transform="matrix(0.7447 0 0 0.7468 104.03 114.0468)" style="overflow:visible;"/>
	</g>
</g>
<g>
	<defs>
		<rect id="SVGID_00000112623706493424915070000006833291358651070114_" x="38.4" y="55.5" width="98.9" height="152.6"/>
	</defs>
	<clipPath id="SVGID_00000159471804136915893300000001463738722960544691_">
		<use xlink:href="#SVGID_00000112623706493424915070000006833291358651070114_"  style="overflow:visible;"/>
	</clipPath>
	<g style="clip-path:url(#SVGID_00000159471804136915893300000001463738722960544691_);">
		
			<use xlink:href="#HK2"  width="89.4" height="119.8" x="-44.7" y="-59.9" transform="matrix(-0.7447 0 0 -0.7468 71.7181 149.5752)" style="overflow:visible;"/>
	</g>
</g>
<g>
	<defs>
		<rect id="SVGID_00000109017464170983607450000009835982910102323849_" x="38.4" y="55.5" width="98.9" height="152.6"/>
	</defs>
	<clipPath id="SVGID_00000060736007708096465650000016741683096123941002_">
		<use xlink:href="#SVGID_00000109017464170983607450000009835982910102323849_"  style="overflow:visible;"/>
	</clipPath>
	<g style="clip-path:url(#SVGID_00000060736007708096465650000016741683096123941002_);">
		
			<use xlink:href="#HK3"  width="133.5" height="148.3" x="-66.7" y="-74.2" transform="matrix(0.7447 0 0 0.7468 87.9008 110.6716)" style="overflow:visible;"/>
	</g>
</g>
<g>
	<defs>
		<rect id="SVGID_00000108268457367624314260000014280113688400659609_" x="38.4" y="55.5" width="98.9" height="152.6"/>
	</defs>
	<clipPath id="SVGID_00000060735824744211385120000005876478555289483911_">
		<use xlink:href="#SVGID_00000108268457367624314260000014280113688400659609_"  style="overflow:visible;"/>
	</clipPath>
	<g style="clip-path:url(#SVGID_00000060735824744211385120000005876478555289483911_);">
		
			<use xlink:href="#HK3"  width="133.5" height="148.3" x="-66.7" y="-74.2" transform="matrix(-0.7447 0 0 -0.7468 87.8472 152.9504)" style="overflow:visible;"/>
	</g>
</g>
<g>
	<defs>
		<rect id="SVGID_00000145763770732724116650000010781013595351367863_" x="38.4" y="55.5" width="98.9" height="152.6"/>
	</defs>
	<clipPath id="SVGID_00000031918887473163416370000011836016364546179258_">
		<use xlink:href="#SVGID_00000145763770732724116650000010781013595351367863_"  style="overflow:visible;"/>
	</clipPath>
	
		<g transform="matrix(1 0 0 1 0 7.629395e-06)" style="clip-path:url(#SVGID_00000031918887473163416370000011836016364546179258_);">
		
			<use xlink:href="#HK4"  width="80" height="131.4" x="-40" y="-65.7" transform="matrix(0.7447 0 0 0.7468 101.5688 117.4459)" style="overflow:visible;"/>
	</g>
</g>
<g>
	<defs>
		<rect id="SVGID_00000085951275897231610460000014381293163840306093_" x="38.4" y="55.5" width="98.9" height="152.6"/>
	</defs>
	<clipPath id="SVGID_00000052061770641894823020000015352802807389763251_">
		<use xlink:href="#SVGID_00000085951275897231610460000014381293163840306093_"  style="overflow:visible;"/>
	</clipPath>
	<g style="clip-path:url(#SVGID_00000052061770641894823020000015352802807389763251_);">
		
			<use xlink:href="#HK4"  width="80" height="131.4" x="-40" y="-65.7" transform="matrix(-0.7447 0 0 -0.7468 74.1792 146.1761)" style="overflow:visible;"/>
	</g>
</g>
<g>
	<defs>
		<rect id="SVGID_00000170245652370101753260000006202316003184559516_" x="14.6" y="23.2" width="23.8" height="23.9"/>
	</defs>
	<clipPath id="SVGID_00000103970044367398483450000003678836966037440165_">
		<use xlink:href="#SVGID_00000170245652370101753260000006202316003184559516_"  style="overflow:visible;"/>
	</clipPath>
	<g style="clip-path:url(#SVGID_00000103970044367398483450000003678836966037440165_);">
		
			<use xlink:href="#VHK"  width="20.8" height="32" x="-10.4" y="-16" transform="matrix(0.7447 0 0 0.7468 26.5111 35.0998)" style="overflow:visible;"/>
	</g>
</g>
<g>
	<defs>
		<rect id="SVGID_00000158737084713376007600000001605632950084577710_" x="137.3" y="216.6" width="23.8" height="23.9"/>
	</defs>
	<clipPath id="SVGID_00000054948169571769099500000016779463800352058274_">
		<use xlink:href="#SVGID_00000158737084713376007600000001605632950084577710_"  style="overflow:visible;"/>
	</clipPath>
	<g style="clip-path:url(#SVGID_00000054948169571769099500000016779463800352058274_);">
		
			<use xlink:href="#VHK"  width="20.8" height="32" x="-10.4" y="-16" transform="matrix(-0.7447 0 0 -0.7468 149.2369 228.5222)" style="overflow:visible;"/>
	</g>
</g>
<g>
	<rect id="XHK_00000015335739049665797710000008800527250690400684_" x="38.4" y="55.5" class="st9" width="98.9" height="152.6"/>
</g>
<g>
	<defs>
		<rect id="SVGID_00000124155321986067597830000009498864984758028703_" x="139.3" y="192.8" width="19.9" height="20"/>
	</defs>
	<clipPath id="SVGID_00000078002973470145567920000004417429098094247305_">
		<use xlink:href="#SVGID_00000124155321986067597830000009498864984758028703_"  style="overflow:visible;"/>
	</clipPath>
	<g style="clip-path:url(#SVGID_00000078002973470145567920000004417429098094247305_);">
		
			<use xlink:href="#SH3"  width="22.3" height="24.5" x="-11.2" y="-12.3" transform="matrix(-0.7447 0 0 -0.7468 149.2365 202.8437)" style="overflow:visible;"/>
	</g>
</g>
<g>
	<defs>
		<rect id="SVGID_00000106835380160656868390000014026749286973713307_" x="16.5" y="50.8" width="19.9" height="20"/>
	</defs>
	<clipPath id="SVGID_00000013193447426808433290000011926107412845779122_">
		<use xlink:href="#SVGID_00000106835380160656868390000014026749286973713307_"  style="overflow:visible;"/>
	</clipPath>
	
		<g transform="matrix(1 0 0 1 1.907349e-06 -3.814697e-06)" style="clip-path:url(#SVGID_00000013193447426808433290000011926107412845779122_);">
		
			<use xlink:href="#SH3"  width="22.3" height="24.5" x="-11.2" y="-12.3" transform="matrix(0.7447 0 0 0.7468 26.5115 60.7783)" style="overflow:visible;"/>
	</g>
</g>
</svg>
