<?xml version="1.0" encoding="utf-8"?>
<!-- Generator: Adobe Illustrator 27.9.0, SVG Export Plug-In . SVG Version: 6.00 Build 0)  -->
<svg version="1.1" id="Layer_1" xmlns="http://www.w3.org/2000/svg" xmlns:xlink="http://www.w3.org/1999/xlink" x="0px" y="0px"
	 viewBox="0 0 175.7 263.6" style="enable-background:new 0 0 175.7 263.6;" xml:space="preserve">
<style type="text/css">
	.st0{fill-opacity:0;}
	.st1{stroke:#FFFFFF;stroke-width:2.2307;stroke-linecap:round;stroke-linejoin:round;stroke-miterlimit:10;}
	.st2{fill:none;stroke:#FFFFFF;stroke-width:2.56;stroke-linecap:square;stroke-miterlimit:10;}
	.st3{fill:#272727;stroke:#000000;}
</style>
<symbol  id="SH3" viewBox="-11.2 -12.3 22.3 24.5">
	<rect x="-11.2" y="-11.2" class="st0" width="22.3" height="22.3"/>
	<path class="st1" d="M0-6.7c0-2.2,2.2-4.5,4.5-4.5s4.5,2.2,4.5,5.6C8.9,0,0,8.9,0,11.2C0,8.9-8.9,0-8.9-5.6c0-3.3,2.2-5.6,4.5-5.6
		S0-8.9,0-6.7z"/>
</symbol>
<symbol  id="VH3" viewBox="-9.5 -16 19.1 32">
	<path class="st2" d="M-7.7-10.2v-4.5H6.7L-3.3-2.6c0.3-0.3,1.9-1.3,3.5-1.3c6.4,0,8,3.8,8,8.6c0,6.4-2.6,9.9-9,9.9
		s-7.4-5.1-7.4-5.1"/>
</symbol>
<path class="st3" d="M23.5,9.3h128.8c7.8,0,14.1,6.4,14.1,14.2v216.6c0,7.8-6.3,14.2-14.1,14.2H23.5c-7.8,0-14.1-6.4-14.1-14.2V23.5
	C9.3,15.7,15.6,9.3,23.5,9.3z"/>
<g>
	<defs>
		<rect id="SVGID_1_" x="14.6" y="23.2" width="23.8" height="23.9"/>
	</defs>
	<clipPath id="SVGID_00000032611773773385637940000010408431027842252449_">
		<use xlink:href="#SVGID_1_"  style="overflow:visible;"/>
	</clipPath>
	
		<g transform="matrix(1 0 0 1 1.907349e-06 0)" style="clip-path:url(#SVGID_00000032611773773385637940000010408431027842252449_);">
		
			<use xlink:href="#VH3"  width="19.1" height="32" x="-9.5" y="-16" transform="matrix(0.7447 0 0 0.7468 26.3123 35.0998)" style="overflow:visible;"/>
	</g>
</g>
<g>
	<defs>
		<rect id="SVGID_00000075876468367792322490000005913304889923714692_" x="16.5" y="50.8" width="19.9" height="20"/>
	</defs>
	<clipPath id="SVGID_00000078752232565927684330000005571120832962513837_">
		<use xlink:href="#SVGID_00000075876468367792322490000005913304889923714692_"  style="overflow:visible;"/>
	</clipPath>
	
		<g transform="matrix(1 0 0 1 1.907349e-06 -3.814697e-06)" style="clip-path:url(#SVGID_00000078752232565927684330000005571120832962513837_);">
		
			<use xlink:href="#SH3"  width="22.3" height="24.5" x="-11.2" y="-12.3" transform="matrix(0.7447 0 0 0.7468 26.5115 60.7783)" style="overflow:visible;"/>
	</g>
</g>
<g>
	<defs>
		<rect id="SVGID_00000083807087433538416190000004745301657957580682_" x="16.5" y="50.8" width="19.9" height="20"/>
	</defs>
	<clipPath id="SVGID_00000111189112830015460930000017807551862670782135_">
		<use xlink:href="#SVGID_00000083807087433538416190000004745301657957580682_"  style="overflow:visible;"/>
	</clipPath>
	
		<g transform="matrix(1 0 0 1 1.907349e-06 -3.814697e-06)" style="clip-path:url(#SVGID_00000111189112830015460930000017807551862670782135_);">
		
			<use xlink:href="#SH3"  width="22.3" height="24.5" x="-11.2" y="-12.3" transform="matrix(0.7447 0 0 0.7468 26.5115 60.7783)" style="overflow:visible;"/>
	</g>
</g>
<g>
	<defs>
		<rect id="SVGID_00000029006418795822114240000002400187980302261134_" x="67.8" y="35.7" width="40.2" height="40.3"/>
	</defs>
	<clipPath id="SVGID_00000081620136988689425290000012450739486829444242_">
		<use xlink:href="#SVGID_00000029006418795822114240000002400187980302261134_"  style="overflow:visible;"/>
	</clipPath>
	<g style="clip-path:url(#SVGID_00000081620136988689425290000012450739486829444242_);">
		
			<use xlink:href="#SH3"  width="22.3" height="24.5" x="-11.2" y="-12.3" transform="matrix(0.7447 0 0 0.7468 77.7346 45.7175)" style="overflow:visible;"/>
	</g>
</g>
<g>
	<defs>
		<polygon id="SVGID_00000072247225598311465340000000758483841227504517_" points="71.1,111.5 71.1,151.9 90.6,151.9 84.5,135.1 
			90.6,128.3 84.5,111.5 		"/>
	</defs>
	<clipPath id="SVGID_00000065071491685491205650000010375548919159770046_">
		<use xlink:href="#SVGID_00000072247225598311465340000000758483841227504517_"  style="overflow:visible;"/>
	</clipPath>
	<g style="clip-path:url(#SVGID_00000065071491685491205650000010375548919159770046_);">
		
			<use xlink:href="#SH3"  width="22.3" height="24.5" x="-11.2" y="-12.3" transform="matrix(0.7447 0 0 0.7468 77.7346 121.6429)" style="overflow:visible;"/>
	</g>
</g>
<g>
	<defs>
		<rect id="SVGID_00000153690360034292997110000001179316240620882330_" x="137.3" y="216.6" width="23.8" height="23.9"/>
	</defs>
	<clipPath id="SVGID_00000107557888194809870100000007571327533176336005_">
		<use xlink:href="#SVGID_00000153690360034292997110000001179316240620882330_"  style="overflow:visible;"/>
	</clipPath>
	<g style="clip-path:url(#SVGID_00000107557888194809870100000007571327533176336005_);">
		
			<use xlink:href="#VH3"  width="19.1" height="32" x="-9.5" y="-16" transform="matrix(-0.7447 0 0 -0.7468 149.4357 228.5222)" style="overflow:visible;"/>
	</g>
</g>
<g>
	<defs>
		<rect id="SVGID_00000078727792195573291990000013952362162855357595_" x="139.3" y="192.8" width="19.9" height="20"/>
	</defs>
	<clipPath id="SVGID_00000049924832124789490760000006895662374553703856_">
		<use xlink:href="#SVGID_00000078727792195573291990000013952362162855357595_"  style="overflow:visible;"/>
	</clipPath>
	<g style="clip-path:url(#SVGID_00000049924832124789490760000006895662374553703856_);">
		
			<use xlink:href="#SH3"  width="22.3" height="24.5" x="-11.2" y="-12.3" transform="matrix(-0.7447 0 0 -0.7468 149.2365 202.8437)" style="overflow:visible;"/>
	</g>
</g>
<g>
	<defs>
		<rect id="SVGID_00000119836970328327074060000012360350611735388320_" x="139.3" y="192.8" width="19.9" height="20"/>
	</defs>
	<clipPath id="SVGID_00000002385608347999243300000012734496576812427190_">
		<use xlink:href="#SVGID_00000119836970328327074060000012360350611735388320_"  style="overflow:visible;"/>
	</clipPath>
	<g style="clip-path:url(#SVGID_00000002385608347999243300000012734496576812427190_);">
		
			<use xlink:href="#SH3"  width="22.3" height="24.5" x="-11.2" y="-12.3" transform="matrix(-0.7447 0 0 -0.7468 149.2365 202.8437)" style="overflow:visible;"/>
	</g>
</g>
<g>
	<defs>
		<rect id="SVGID_00000075150198370306040680000001534523315446833581_" x="67.8" y="187.6" width="40.2" height="40.3"/>
	</defs>
	<clipPath id="SVGID_00000118399120998706280220000012533830148689922436_">
		<use xlink:href="#SVGID_00000075150198370306040680000001534523315446833581_"  style="overflow:visible;"/>
	</clipPath>
	
		<g transform="matrix(1 0 0 1 0 1.525879e-05)" style="clip-path:url(#SVGID_00000118399120998706280220000012533830148689922436_);">
		
			<use xlink:href="#SH3"  width="22.3" height="24.5" x="-11.2" y="-12.3" transform="matrix(-0.7447 0 0 -0.7468 98.0134 217.9045)" style="overflow:visible;"/>
	</g>
</g>
<g>
	<defs>
		<polygon id="SVGID_00000101104521810354138560000017224281765477559432_" points="104.6,152.1 104.6,111.7 85.2,111.7 91.2,128.6 
			85.2,135.3 91.2,152.1 		"/>
	</defs>
	<clipPath id="SVGID_00000134934352999632558460000002202293386568782997_">
		<use xlink:href="#SVGID_00000101104521810354138560000017224281765477559432_"  style="overflow:visible;"/>
	</clipPath>
	<g style="clip-path:url(#SVGID_00000134934352999632558460000002202293386568782997_);">
		
			<use xlink:href="#SH3"  width="22.3" height="24.5" x="-11.2" y="-12.3" transform="matrix(-0.7447 0 0 -0.7468 98.0134 141.9791)" style="overflow:visible;"/>
	</g>
</g>
</svg>
