<?xml version="1.0" encoding="utf-8"?>
<!-- Generator: Adobe Illustrator 27.9.0, SVG Export Plug-In . SVG Version: 6.00 Build 0)  -->
<svg version="1.1" id="Layer_1" xmlns="http://www.w3.org/2000/svg" xmlns:xlink="http://www.w3.org/1999/xlink" x="0px" y="0px"
	 viewBox="0 0 175.7 263.6" style="enable-background:new 0 0 175.7 263.6;" xml:space="preserve">
<style type="text/css">
	.st0{fill-opacity:0;}
	.st1{stroke:#FFFFFF;stroke-width:2.2307;stroke-linecap:round;stroke-linejoin:round;stroke-miterlimit:10;}
	.st2{fill:none;stroke:#FFFFFF;stroke-width:2.56;stroke-linecap:square;stroke-miterlimit:10;}
	.st3{fill:#272727;stroke:#000000;}
</style>
<symbol  id="SH9" viewBox="-11.2 -12.3 22.3 24.5">
	<rect x="-11.2" y="-11.2" class="st0" width="22.3" height="22.3"/>
	<path class="st1" d="M0-6.7c0-2.2,2.2-4.5,4.5-4.5s4.5,2.2,4.5,5.6C8.9,0,0,8.9,0,11.2C0,8.9-8.9,0-8.9-5.6c0-3.3,2.2-5.6,4.5-5.6
		S0-8.9,0-6.7z"/>
</symbol>
<symbol  id="VH9" viewBox="-9.3 -16 18.6 32">
	<path class="st2" d="M8-3.2c0,4.4-3.6,8-8,8s-8-3.6-8-8v-3.5c0-4.4,3.6-8,8-8s8,3.6,8,8V6.7c0,4.4-3.6,8-8,8
		c-4.8,0-5.8-1.9-6.4-2.7"/>
</symbol>
<path class="st3" d="M23.5,9.3h128.8c7.8,0,14.1,6.4,14.1,14.2v216.6c0,7.8-6.3,14.2-14.1,14.2H23.5c-7.8,0-14.1-6.4-14.1-14.2V23.5
	C9.3,15.7,15.6,9.3,23.5,9.3z"/>
<g>
	<defs>
		<rect id="SVGID_1_" x="14.6" y="23.2" width="23.8" height="23.9"/>
	</defs>
	<clipPath id="SVGID_00000013901244489342435450000013675050396503801771_">
		<use xlink:href="#SVGID_1_"  style="overflow:visible;"/>
	</clipPath>
	<g style="clip-path:url(#SVGID_00000013901244489342435450000013675050396503801771_);">
		
			<use xlink:href="#VH9"  width="18.6" height="32" x="-9.3" y="-16" transform="matrix(0.7447 0 0 0.7468 26.5111 35.0998)" style="overflow:visible;"/>
	</g>
</g>
<g>
	<defs>
		<rect id="SVGID_00000039130125018165673060000002435994217635877299_" x="16.5" y="50.8" width="19.9" height="20"/>
	</defs>
	<clipPath id="SVGID_00000143605024595275782170000015578687297218599826_">
		<use xlink:href="#SVGID_00000039130125018165673060000002435994217635877299_"  style="overflow:visible;"/>
	</clipPath>
	
		<g transform="matrix(1 0 0 1 1.907349e-06 -3.814697e-06)" style="clip-path:url(#SVGID_00000143605024595275782170000015578687297218599826_);">
		
			<use xlink:href="#SH9"  width="22.3" height="24.5" x="-11.2" y="-12.3" transform="matrix(0.7447 0 0 0.7468 26.5115 60.7783)" style="overflow:visible;"/>
	</g>
</g>
<g>
	<defs>
		<rect id="SVGID_00000083811306560747989050000009937714567079071159_" x="16.5" y="50.8" width="19.9" height="20"/>
	</defs>
	<clipPath id="SVGID_00000138550674490559524010000013966927527523868294_">
		<use xlink:href="#SVGID_00000083811306560747989050000009937714567079071159_"  style="overflow:visible;"/>
	</clipPath>
	
		<g transform="matrix(1 0 0 1 1.907349e-06 -3.814697e-06)" style="clip-path:url(#SVGID_00000138550674490559524010000013966927527523868294_);">
		
			<use xlink:href="#SH9"  width="22.3" height="24.5" x="-11.2" y="-12.3" transform="matrix(0.7447 0 0 0.7468 26.5115 60.7783)" style="overflow:visible;"/>
	</g>
</g>
<g>
	<defs>
		<rect id="SVGID_00000058564189074128320040000016362614691349784498_" x="35.6" y="35.7" width="40.2" height="40.3"/>
	</defs>
	<clipPath id="SVGID_00000050639214321022095880000015705817333959720332_">
		<use xlink:href="#SVGID_00000058564189074128320040000016362614691349784498_"  style="overflow:visible;"/>
	</clipPath>
	<g style="clip-path:url(#SVGID_00000050639214321022095880000015705817333959720332_);">
		
			<use xlink:href="#SH9"  width="22.3" height="24.5" x="-11.2" y="-12.3" transform="matrix(0.7447 0 0 0.7468 45.5884 45.7175)" style="overflow:visible;"/>
	</g>
</g>
<g>
	<defs>
		<rect id="SVGID_00000182504430069043025570000000472458852280782993_" x="99.9" y="35.7" width="40.2" height="40.3"/>
	</defs>
	<clipPath id="SVGID_00000091712779225417215350000000349821137370650815_">
		<use xlink:href="#SVGID_00000182504430069043025570000000472458852280782993_"  style="overflow:visible;"/>
	</clipPath>
	<g style="clip-path:url(#SVGID_00000091712779225417215350000000349821137370650815_);">
		
			<use xlink:href="#SH9"  width="22.3" height="24.5" x="-11.2" y="-12.3" transform="matrix(0.7447 0 0 0.7468 109.8809 45.7175)" style="overflow:visible;"/>
	</g>
</g>
<g>
	<defs>
		<rect id="SVGID_00000065776462032985588070000007501881563736726925_" x="35.6" y="86.3" width="40.2" height="40.3"/>
	</defs>
	<clipPath id="SVGID_00000070108237864661908580000015495088754468664244_">
		<use xlink:href="#SVGID_00000065776462032985588070000007501881563736726925_"  style="overflow:visible;"/>
	</clipPath>
	
		<g transform="matrix(1 0 0 1 0 -7.629395e-06)" style="clip-path:url(#SVGID_00000070108237864661908580000015495088754468664244_);">
		
			<use xlink:href="#SH9"  width="22.3" height="24.5" x="-11.2" y="-12.3" transform="matrix(0.7447 0 0 0.7468 45.5884 96.3344)" style="overflow:visible;"/>
	</g>
</g>
<g>
	<defs>
		<rect id="SVGID_00000005235874450510537360000007304787903732065464_" x="99.9" y="86.3" width="40.2" height="40.3"/>
	</defs>
	<clipPath id="SVGID_00000163755510747884182400000016498852162582479233_">
		<use xlink:href="#SVGID_00000005235874450510537360000007304787903732065464_"  style="overflow:visible;"/>
	</clipPath>
	
		<g transform="matrix(1 0 0 1 0 -7.629395e-06)" style="clip-path:url(#SVGID_00000163755510747884182400000016498852162582479233_);">
		
			<use xlink:href="#SH9"  width="22.3" height="24.5" x="-11.2" y="-12.3" transform="matrix(0.7447 0 0 0.7468 109.8809 96.3344)" style="overflow:visible;"/>
	</g>
</g>
<g>
	<defs>
		<polygon id="SVGID_00000163768916403071360810000013604733460025944448_" points="71.1,111.5 71.1,151.9 90.6,151.9 84.5,135.1 
			90.6,128.3 84.5,111.5 		"/>
	</defs>
	<clipPath id="SVGID_00000012441526453015037480000015428137537310479284_">
		<use xlink:href="#SVGID_00000163768916403071360810000013604733460025944448_"  style="overflow:visible;"/>
	</clipPath>
	<g style="clip-path:url(#SVGID_00000012441526453015037480000015428137537310479284_);">
		
			<use xlink:href="#SH9"  width="22.3" height="24.5" x="-11.2" y="-12.3" transform="matrix(0.7447 0 0 0.7468 77.7346 121.6429)" style="overflow:visible;"/>
	</g>
</g>
<g transform="rotate(180)">
	<g>
		<defs>
			<rect id="SVGID_00000174568644186674035940000014847852178912531135_" x="-161.2" y="-240.5" width="23.8" height="23.9"/>
		</defs>
		<clipPath id="SVGID_00000175324808730753980630000010668358735226575497_">
			<use xlink:href="#SVGID_00000174568644186674035940000014847852178912531135_"  style="overflow:visible;"/>
		</clipPath>
		<g style="clip-path:url(#SVGID_00000175324808730753980630000010668358735226575497_);">
			
				<use xlink:href="#VH9"  width="18.6" height="32" x="-9.3" y="-16" transform="matrix(0.7447 0 0 0.7468 -149.2369 -228.5222)" style="overflow:visible;"/>
		</g>
	</g>
	<g>
		<defs>
			<rect id="SVGID_00000047773058743177821040000010960145445684204707_" x="-159.2" y="-212.8" width="19.9" height="20"/>
		</defs>
		<clipPath id="SVGID_00000155140708079140989100000011396057394400990866_">
			<use xlink:href="#SVGID_00000047773058743177821040000010960145445684204707_"  style="overflow:visible;"/>
		</clipPath>
		<g style="clip-path:url(#SVGID_00000155140708079140989100000011396057394400990866_);">
			
				<use xlink:href="#SH9"  width="22.3" height="24.5" x="-11.2" y="-12.3" transform="matrix(0.7447 0 0 0.7468 -149.2365 -202.8437)" style="overflow:visible;"/>
		</g>
	</g>
	<g>
		<defs>
			<rect id="SVGID_00000008849577883732853250000011488858618325358750_" x="-159.2" y="-212.8" width="19.9" height="20"/>
		</defs>
		<clipPath id="SVGID_00000052790944346905404870000002363672306474726318_">
			<use xlink:href="#SVGID_00000008849577883732853250000011488858618325358750_"  style="overflow:visible;"/>
		</clipPath>
		<g style="clip-path:url(#SVGID_00000052790944346905404870000002363672306474726318_);">
			
				<use xlink:href="#SH9"  width="22.3" height="24.5" x="-11.2" y="-12.3" transform="matrix(0.7447 0 0 0.7468 -149.2365 -202.8437)" style="overflow:visible;"/>
		</g>
	</g>
	<g>
		<defs>
			<rect id="SVGID_00000119118802399243878790000012019628123476626100_" x="-140.1" y="-227.9" width="40.2" height="40.3"/>
		</defs>
		<clipPath id="SVGID_00000179630469473030040630000003780256456437630391_">
			<use xlink:href="#SVGID_00000119118802399243878790000012019628123476626100_"  style="overflow:visible;"/>
		</clipPath>
		
			<g transform="matrix(1 0 0 1 0 -1.525879e-05)" style="clip-path:url(#SVGID_00000179630469473030040630000003780256456437630391_);">
			
				<use xlink:href="#SH9"  width="22.3" height="24.5" x="-11.2" y="-12.3" transform="matrix(0.7447 0 0 0.7468 -130.1597 -217.9045)" style="overflow:visible;"/>
		</g>
	</g>
	<g>
		<defs>
			<rect id="SVGID_00000096059785355739647050000013466526158794536881_" x="-75.8" y="-227.9" width="40.2" height="40.3"/>
		</defs>
		<clipPath id="SVGID_00000035515292632218783870000006536441812919897514_">
			<use xlink:href="#SVGID_00000096059785355739647050000013466526158794536881_"  style="overflow:visible;"/>
		</clipPath>
		
			<g transform="matrix(1 0 0 1 0 -1.525879e-05)" style="clip-path:url(#SVGID_00000035515292632218783870000006536441812919897514_);">
			
				<use xlink:href="#SH9"  width="22.3" height="24.5" x="-11.2" y="-12.3" transform="matrix(0.7447 0 0 0.7468 -65.8672 -217.9045)" style="overflow:visible;"/>
		</g>
	</g>
	<g>
		<defs>
			<rect id="SVGID_00000168804541036920533970000015641537908444972726_" x="-140.1" y="-177.3" width="40.2" height="40.3"/>
		</defs>
		<clipPath id="SVGID_00000078724948446319177340000003654315147549309356_">
			<use xlink:href="#SVGID_00000168804541036920533970000015641537908444972726_"  style="overflow:visible;"/>
		</clipPath>
		<g style="clip-path:url(#SVGID_00000078724948446319177340000003654315147549309356_);">
			
				<use xlink:href="#SH9"  width="22.3" height="24.5" x="-11.2" y="-12.3" transform="matrix(0.7447 0 0 0.7468 -130.1597 -167.2876)" style="overflow:visible;"/>
		</g>
	</g>
	<g>
		<defs>
			<rect id="SVGID_00000073705176430683297100000017786564263535004599_" x="-75.8" y="-177.3" width="40.2" height="40.3"/>
		</defs>
		<clipPath id="SVGID_00000019679237183396731970000009576506783526716339_">
			<use xlink:href="#SVGID_00000073705176430683297100000017786564263535004599_"  style="overflow:visible;"/>
		</clipPath>
		<g style="clip-path:url(#SVGID_00000019679237183396731970000009576506783526716339_);">
			
				<use xlink:href="#SH9"  width="22.3" height="24.5" x="-11.2" y="-12.3" transform="matrix(0.7447 0 0 0.7468 -65.8672 -167.2876)" style="overflow:visible;"/>
		</g>
	</g>
	<g>
		<defs>
			<polygon id="SVGID_00000113324670687164043390000002420587645419169214_" points="-104.6,-152.1 -104.6,-111.7 -85.2,-111.7 
				-91.2,-128.6 -85.2,-135.3 -91.2,-152.1 			"/>
		</defs>
		<clipPath id="SVGID_00000005959943360893222580000016766940274898304899_">
			<use xlink:href="#SVGID_00000113324670687164043390000002420587645419169214_"  style="overflow:visible;"/>
		</clipPath>
		<g style="clip-path:url(#SVGID_00000005959943360893222580000016766940274898304899_);">
			
				<use xlink:href="#SH9"  width="22.3" height="24.5" x="-11.2" y="-12.3" transform="matrix(0.7447 0 0 0.7468 -98.0134 -141.9791)" style="overflow:visible;"/>
		</g>
	</g>
</g>
</svg>
