<?xml version="1.0" encoding="utf-8"?>
<!-- Generator: Adobe Illustrator 27.9.0, SVG Export Plug-In . SVG Version: 6.00 Build 0)  -->
<svg version="1.1" id="Layer_1" xmlns="http://www.w3.org/2000/svg" xmlns:xlink="http://www.w3.org/1999/xlink" x="0px" y="0px"
	 viewBox="0 0 175.7 263.6" style="enable-background:new 0 0 175.7 263.6;" xml:space="preserve">
<style type="text/css">
	.st0{fill-opacity:0;}
	.st1{stroke:#FFFFFF;stroke-width:2.2307;stroke-linecap:round;stroke-linejoin:round;stroke-miterlimit:10;}
	.st2{fill:none;stroke:#FFFFFF;stroke-width:2.56;stroke-linecap:square;stroke-miterlimit:10;}
	.st3{fill:#272727;stroke:#000000;}
</style>
<symbol  id="SH8" viewBox="-11.2 -12.3 22.3 24.5">
	<rect x="-11.2" y="-11.2" class="st0" width="22.3" height="22.3"/>
	<path class="st1" d="M0-6.7c0-2.2,2.2-4.5,4.5-4.5s4.5,2.2,4.5,5.6C8.9,0,0,8.9,0,11.2C0,8.9-8.9,0-8.9-5.6c0-3.3,2.2-5.6,4.5-5.6
		S0-8.9,0-6.7z"/>
</symbol>
<symbol  id="VH8" viewBox="-9.4 -16 18.9 32">
	<path class="st2" d="M0-1.6c-3.6,0-6.5-3-6.5-6.6c0-3.6,3-6.5,6.6-6.5c3.6,0,6.5,3,6.5,6.6C6.5-4.5,3.6-1.6,0-1.6L0-1.6
		c-4.5,0-8.1,3.7-8.1,8.2c0,4.5,3.7,8.1,8.2,8.1S8.2,11,8.2,6.5C8.1,2,4.5-1.6,0-1.6L0-1.6z"/>
</symbol>
<path class="st3" d="M23.5,9.3h128.8c7.8,0,14.1,6.4,14.1,14.2v216.6c0,7.8-6.3,14.2-14.1,14.2H23.5c-7.8,0-14.1-6.4-14.1-14.2V23.5
	C9.3,15.7,15.6,9.3,23.5,9.3z"/>
<g>
	<defs>
		<rect id="SVGID_1_" x="14.6" y="23.2" width="23.8" height="23.9"/>
	</defs>
	<clipPath id="SVGID_00000103953779909728874800000018004109982644024240_">
		<use xlink:href="#SVGID_1_"  style="overflow:visible;"/>
	</clipPath>
	<g style="clip-path:url(#SVGID_00000103953779909728874800000018004109982644024240_);">
		
			<use xlink:href="#VH8"  width="18.9" height="32" x="-9.4" y="-16" transform="matrix(0.7447 0 0 0.7468 26.5111 35.0998)" style="overflow:visible;"/>
	</g>
</g>
<g>
	<defs>
		<rect id="SVGID_00000172438764660662124680000015862489849455577473_" x="16.5" y="50.8" width="19.9" height="20"/>
	</defs>
	<clipPath id="SVGID_00000054945083362520793510000017264702647488885164_">
		<use xlink:href="#SVGID_00000172438764660662124680000015862489849455577473_"  style="overflow:visible;"/>
	</clipPath>
	
		<g transform="matrix(1 0 0 1 1.907349e-06 -3.814697e-06)" style="clip-path:url(#SVGID_00000054945083362520793510000017264702647488885164_);">
		
			<use xlink:href="#SH8"  width="22.3" height="24.5" x="-11.2" y="-12.3" transform="matrix(0.7447 0 0 0.7468 26.5115 60.7783)" style="overflow:visible;"/>
	</g>
</g>
<g>
	<defs>
		<rect id="SVGID_00000101795472269122889050000000688542180189042830_" x="16.5" y="50.8" width="19.9" height="20"/>
	</defs>
	<clipPath id="SVGID_00000106860280500185664700000005021009438239104674_">
		<use xlink:href="#SVGID_00000101795472269122889050000000688542180189042830_"  style="overflow:visible;"/>
	</clipPath>
	
		<g transform="matrix(1 0 0 1 1.907349e-06 -3.814697e-06)" style="clip-path:url(#SVGID_00000106860280500185664700000005021009438239104674_);">
		
			<use xlink:href="#SH8"  width="22.3" height="24.5" x="-11.2" y="-12.3" transform="matrix(0.7447 0 0 0.7468 26.5115 60.7783)" style="overflow:visible;"/>
	</g>
</g>
<g>
	<defs>
		<rect id="SVGID_00000114789086719279490660000007977944157473582777_" x="35.6" y="35.7" width="40.2" height="40.3"/>
	</defs>
	<clipPath id="SVGID_00000013915447020360467310000006897341628420428677_">
		<use xlink:href="#SVGID_00000114789086719279490660000007977944157473582777_"  style="overflow:visible;"/>
	</clipPath>
	<g style="clip-path:url(#SVGID_00000013915447020360467310000006897341628420428677_);">
		
			<use xlink:href="#SH8"  width="22.3" height="24.5" x="-11.2" y="-12.3" transform="matrix(0.7447 0 0 0.7468 45.5884 45.7175)" style="overflow:visible;"/>
	</g>
</g>
<g>
	<defs>
		<rect id="SVGID_00000004522229813395633050000011097091862036985503_" x="99.9" y="35.7" width="40.2" height="40.3"/>
	</defs>
	<clipPath id="SVGID_00000130616145289661403010000002197069906638415494_">
		<use xlink:href="#SVGID_00000004522229813395633050000011097091862036985503_"  style="overflow:visible;"/>
	</clipPath>
	<g style="clip-path:url(#SVGID_00000130616145289661403010000002197069906638415494_);">
		
			<use xlink:href="#SH8"  width="22.3" height="24.5" x="-11.2" y="-12.3" transform="matrix(0.7447 0 0 0.7468 109.8809 45.7175)" style="overflow:visible;"/>
	</g>
</g>
<g>
	<defs>
		<rect id="SVGID_00000106132898378322666770000017683515233082417561_" x="67.8" y="73.7" width="40.2" height="40.3"/>
	</defs>
	<clipPath id="SVGID_00000038398071471594556370000000395257087733700794_">
		<use xlink:href="#SVGID_00000106132898378322666770000017683515233082417561_"  style="overflow:visible;"/>
	</clipPath>
	<g style="clip-path:url(#SVGID_00000038398071471594556370000000395257087733700794_);">
		
			<use xlink:href="#SH8"  width="22.3" height="24.5" x="-11.2" y="-12.3" transform="matrix(0.7447 0 0 0.7468 77.7346 83.6806)" style="overflow:visible;"/>
	</g>
</g>
<g>
	<defs>
		<rect id="SVGID_00000090281726960158493180000001319169176833125564_" x="35.6" y="111.6" width="40.2" height="40.3"/>
	</defs>
	<clipPath id="SVGID_00000036234663384219486110000015026159529995600053_">
		<use xlink:href="#SVGID_00000090281726960158493180000001319169176833125564_"  style="overflow:visible;"/>
	</clipPath>
	<g style="clip-path:url(#SVGID_00000036234663384219486110000015026159529995600053_);">
		
			<use xlink:href="#SH8"  width="22.3" height="24.5" x="-11.2" y="-12.3" transform="matrix(0.7447 0 0 0.7468 45.5884 121.6429)" style="overflow:visible;"/>
	</g>
</g>
<g transform="rotate(180)">
	<g>
		<defs>
			<rect id="SVGID_00000068656135628080380980000003732030955649969334_" x="-161.2" y="-240.5" width="23.8" height="23.9"/>
		</defs>
		<clipPath id="SVGID_00000005958235784099690680000010095991498043286163_">
			<use xlink:href="#SVGID_00000068656135628080380980000003732030955649969334_"  style="overflow:visible;"/>
		</clipPath>
		<g style="clip-path:url(#SVGID_00000005958235784099690680000010095991498043286163_);">
			
				<use xlink:href="#VH8"  width="18.9" height="32" x="-9.4" y="-16" transform="matrix(0.7447 0 0 0.7468 -149.2369 -228.5222)" style="overflow:visible;"/>
		</g>
	</g>
	<g>
		<defs>
			<rect id="SVGID_00000047752393570162522450000012436211993002643603_" x="-159.2" y="-212.8" width="19.9" height="20"/>
		</defs>
		<clipPath id="SVGID_00000137823357184561999720000005199943743086538661_">
			<use xlink:href="#SVGID_00000047752393570162522450000012436211993002643603_"  style="overflow:visible;"/>
		</clipPath>
		<g style="clip-path:url(#SVGID_00000137823357184561999720000005199943743086538661_);">
			
				<use xlink:href="#SH8"  width="22.3" height="24.5" x="-11.2" y="-12.3" transform="matrix(0.7447 0 0 0.7468 -149.2365 -202.8437)" style="overflow:visible;"/>
		</g>
	</g>
	<g>
		<defs>
			<rect id="SVGID_00000163067179072761631580000017733342450515527869_" x="-159.2" y="-212.8" width="19.9" height="20"/>
		</defs>
		<clipPath id="SVGID_00000170277903972439429510000014250016596578795176_">
			<use xlink:href="#SVGID_00000163067179072761631580000017733342450515527869_"  style="overflow:visible;"/>
		</clipPath>
		<g style="clip-path:url(#SVGID_00000170277903972439429510000014250016596578795176_);">
			
				<use xlink:href="#SH8"  width="22.3" height="24.5" x="-11.2" y="-12.3" transform="matrix(0.7447 0 0 0.7468 -149.2365 -202.8437)" style="overflow:visible;"/>
		</g>
	</g>
	<g>
		<defs>
			<rect id="SVGID_00000111883267243726023680000001955980851175880634_" x="-140.1" y="-227.9" width="40.2" height="40.3"/>
		</defs>
		<clipPath id="SVGID_00000162326254007586564940000005754090312255363245_">
			<use xlink:href="#SVGID_00000111883267243726023680000001955980851175880634_"  style="overflow:visible;"/>
		</clipPath>
		
			<g transform="matrix(1 0 0 1 0 -1.525879e-05)" style="clip-path:url(#SVGID_00000162326254007586564940000005754090312255363245_);">
			
				<use xlink:href="#SH8"  width="22.3" height="24.5" x="-11.2" y="-12.3" transform="matrix(0.7447 0 0 0.7468 -130.1597 -217.9045)" style="overflow:visible;"/>
		</g>
	</g>
	<g>
		<defs>
			<rect id="SVGID_00000054264064057181801580000005347528048892422534_" x="-75.8" y="-227.9" width="40.2" height="40.3"/>
		</defs>
		<clipPath id="SVGID_00000084526183190435109980000010199893676540256139_">
			<use xlink:href="#SVGID_00000054264064057181801580000005347528048892422534_"  style="overflow:visible;"/>
		</clipPath>
		
			<g transform="matrix(1 0 0 1 0 -1.525879e-05)" style="clip-path:url(#SVGID_00000084526183190435109980000010199893676540256139_);">
			
				<use xlink:href="#SH8"  width="22.3" height="24.5" x="-11.2" y="-12.3" transform="matrix(0.7447 0 0 0.7468 -65.8672 -217.9045)" style="overflow:visible;"/>
		</g>
	</g>
	<g>
		<defs>
			<rect id="SVGID_00000158751556863778786770000014801282157420859059_" x="-108" y="-189.9" width="40.2" height="40.3"/>
		</defs>
		<clipPath id="SVGID_00000129897426188696100330000013339059048821609907_">
			<use xlink:href="#SVGID_00000158751556863778786770000014801282157420859059_"  style="overflow:visible;"/>
		</clipPath>
		<g style="clip-path:url(#SVGID_00000129897426188696100330000013339059048821609907_);">
			
				<use xlink:href="#SH8"  width="22.3" height="24.5" x="-11.2" y="-12.3" transform="matrix(0.7447 0 0 0.7468 -98.0134 -179.9415)" style="overflow:visible;"/>
		</g>
	</g>
	<g>
		<defs>
			<rect id="SVGID_00000143583155609524258340000012295954097263476661_" x="-140.1" y="-152" width="40.2" height="40.3"/>
		</defs>
		<clipPath id="SVGID_00000038396777765679745980000014823988803535610794_">
			<use xlink:href="#SVGID_00000143583155609524258340000012295954097263476661_"  style="overflow:visible;"/>
		</clipPath>
		<g style="clip-path:url(#SVGID_00000038396777765679745980000014823988803535610794_);">
			
				<use xlink:href="#SH8"  width="22.3" height="24.5" x="-11.2" y="-12.3" transform="matrix(0.7447 0 0 0.7468 -130.1597 -141.9791)" style="overflow:visible;"/>
		</g>
	</g>
</g>
</svg>
