<?xml version="1.0" encoding="utf-8"?>
<!-- Generator: Adobe Illustrator 27.9.0, SVG Export Plug-In . SVG Version: 6.00 Build 0)  -->
<svg version="1.1" id="Layer_1" xmlns="http://www.w3.org/2000/svg" xmlns:xlink="http://www.w3.org/1999/xlink" x="0px" y="0px"
	 viewBox="0 0 175.7 263.6" style="enable-background:new 0 0 175.7 263.6;" xml:space="preserve">
<style type="text/css">
	.st0{fill-opacity:0;}
	.st1{stroke:#FFFFFF;stroke-width:2.2307;stroke-linecap:round;stroke-linejoin:round;stroke-miterlimit:10;}
	.st2{fill:none;stroke:#FFFFFF;stroke-width:2.56;stroke-linecap:square;stroke-miterlimit:10;}
	.st3{fill:#272727;stroke:#000000;}
</style>
<symbol  id="SHT" viewBox="-11.2 -12.3 22.3 24.5">
	<rect x="-11.2" y="-11.2" class="st0" width="22.3" height="22.3"/>
	<path class="st1" d="M0-6.7c0-2.2,2.2-4.5,4.5-4.5s4.5,2.2,4.5,5.6C8.9,0,0,8.9,0,11.2C0,8.9-8.9,0-8.9-5.6c0-3.3,2.2-5.6,4.5-5.6
		S0-8.9,0-6.7z"/>
</symbol>
<symbol  id="VHT" viewBox="-9.4 -16 18.9 32">
	<path class="st2" d="M-8.2,13.8v-27.5 M-1.4,0v-9.9c0-2.7,2.1-4.8,4.8-4.8s4.8,2.1,4.8,4.8V9.9c0,2.7-2.1,4.8-4.8,4.8
		s-4.8-2.1-4.8-4.8V0z"/>
</symbol>
<path class="st3" d="M23.5,9.3h128.8c7.8,0,14.1,6.4,14.1,14.2v216.6c0,7.8-6.3,14.2-14.1,14.2H23.5c-7.8,0-14.1-6.4-14.1-14.2V23.5
	C9.3,15.7,15.6,9.3,23.5,9.3z"/>
<g>
	<defs>
		<rect id="SVGID_1_" x="14.6" y="23.2" width="23.8" height="23.9"/>
	</defs>
	<clipPath id="SVGID_00000149379707025150046110000006775886040296785551_">
		<use xlink:href="#SVGID_1_"  style="overflow:visible;"/>
	</clipPath>
	
		<g transform="matrix(1 0 0 1 1.907349e-06 0)" style="clip-path:url(#SVGID_00000149379707025150046110000006775886040296785551_);">
		
			<use xlink:href="#VHT"  width="18.9" height="32" x="-9.4" y="-16" transform="matrix(0.7447 0 0 0.7468 26.392 35.0998)" style="overflow:visible;"/>
	</g>
</g>
<g>
	<defs>
		<rect id="SVGID_00000114052876052423135150000013197471255847430035_" x="16.5" y="50.8" width="19.9" height="20"/>
	</defs>
	<clipPath id="SVGID_00000032622245841923895800000008017709705950681776_">
		<use xlink:href="#SVGID_00000114052876052423135150000013197471255847430035_"  style="overflow:visible;"/>
	</clipPath>
	
		<g transform="matrix(1 0 0 1 1.907349e-06 -3.814697e-06)" style="clip-path:url(#SVGID_00000032622245841923895800000008017709705950681776_);">
		
			<use xlink:href="#SHT"  width="22.3" height="24.5" x="-11.2" y="-12.3" transform="matrix(0.7447 0 0 0.7468 26.5115 60.7783)" style="overflow:visible;"/>
	</g>
</g>
<g>
	<defs>
		<rect id="SVGID_00000049919128045511721220000009479702288477461132_" x="16.5" y="50.8" width="19.9" height="20"/>
	</defs>
	<clipPath id="SVGID_00000035489007956479930600000006820611187159563709_">
		<use xlink:href="#SVGID_00000049919128045511721220000009479702288477461132_"  style="overflow:visible;"/>
	</clipPath>
	
		<g transform="matrix(1 0 0 1 1.907349e-06 -3.814697e-06)" style="clip-path:url(#SVGID_00000035489007956479930600000006820611187159563709_);">
		
			<use xlink:href="#SHT"  width="22.3" height="24.5" x="-11.2" y="-12.3" transform="matrix(0.7447 0 0 0.7468 26.5115 60.7783)" style="overflow:visible;"/>
	</g>
</g>
<g>
	<defs>
		<rect id="SVGID_00000014635812390383908010000015481433231882976694_" x="35.6" y="35.7" width="40.2" height="40.3"/>
	</defs>
	<clipPath id="SVGID_00000052818137749814858240000007332991415726017454_">
		<use xlink:href="#SVGID_00000014635812390383908010000015481433231882976694_"  style="overflow:visible;"/>
	</clipPath>
	<g style="clip-path:url(#SVGID_00000052818137749814858240000007332991415726017454_);">
		
			<use xlink:href="#SHT"  width="22.3" height="24.5" x="-11.2" y="-12.3" transform="matrix(0.7447 0 0 0.7468 45.5884 45.7175)" style="overflow:visible;"/>
	</g>
</g>
<g>
	<defs>
		<rect id="SVGID_00000147190830305992744700000004317374524298136207_" x="99.9" y="35.7" width="40.2" height="40.3"/>
	</defs>
	<clipPath id="SVGID_00000147900797167674285440000000644353210456661417_">
		<use xlink:href="#SVGID_00000147190830305992744700000004317374524298136207_"  style="overflow:visible;"/>
	</clipPath>
	<g style="clip-path:url(#SVGID_00000147900797167674285440000000644353210456661417_);">
		
			<use xlink:href="#SHT"  width="22.3" height="24.5" x="-11.2" y="-12.3" transform="matrix(0.7447 0 0 0.7468 109.8809 45.7175)" style="overflow:visible;"/>
	</g>
</g>
<g>
	<defs>
		<rect id="SVGID_00000142162480407274574170000013660164101692523431_" x="35.6" y="86.3" width="40.2" height="40.3"/>
	</defs>
	<clipPath id="SVGID_00000006672726388956067610000009285275910025116569_">
		<use xlink:href="#SVGID_00000142162480407274574170000013660164101692523431_"  style="overflow:visible;"/>
	</clipPath>
	
		<g transform="matrix(1 0 0 1 0 -7.629395e-06)" style="clip-path:url(#SVGID_00000006672726388956067610000009285275910025116569_);">
		
			<use xlink:href="#SHT"  width="22.3" height="24.5" x="-11.2" y="-12.3" transform="matrix(0.7447 0 0 0.7468 45.5884 96.3344)" style="overflow:visible;"/>
	</g>
</g>
<g>
	<defs>
		<rect id="SVGID_00000083046859833572272960000010403507353335948713_" x="99.9" y="86.3" width="40.2" height="40.3"/>
	</defs>
	<clipPath id="SVGID_00000034090533901104503730000010556312729148671363_">
		<use xlink:href="#SVGID_00000083046859833572272960000010403507353335948713_"  style="overflow:visible;"/>
	</clipPath>
	
		<g transform="matrix(1 0 0 1 0 -7.629395e-06)" style="clip-path:url(#SVGID_00000034090533901104503730000010556312729148671363_);">
		
			<use xlink:href="#SHT"  width="22.3" height="24.5" x="-11.2" y="-12.3" transform="matrix(0.7447 0 0 0.7468 109.8809 96.3344)" style="overflow:visible;"/>
	</g>
</g>
<g>
	<defs>
		<rect id="SVGID_00000079469217856036193820000000181008566245718699_" x="67.8" y="61" width="40.2" height="40.3"/>
	</defs>
	<clipPath id="SVGID_00000132057682269522213450000007816710774297323947_">
		<use xlink:href="#SVGID_00000079469217856036193820000000181008566245718699_"  style="overflow:visible;"/>
	</clipPath>
	<g style="clip-path:url(#SVGID_00000132057682269522213450000007816710774297323947_);">
		
			<use xlink:href="#SHT"  width="22.3" height="24.5" x="-11.2" y="-12.3" transform="matrix(0.7447 0 0 0.7468 77.7346 71.026)" style="overflow:visible;"/>
	</g>
</g>
<g transform="rotate(180)">
	<g>
		<defs>
			<rect id="SVGID_00000000222650335532216550000003236002440729816506_" x="-161.2" y="-240.5" width="23.8" height="23.9"/>
		</defs>
		<clipPath id="SVGID_00000176735523359927966620000015503388346588343474_">
			<use xlink:href="#SVGID_00000000222650335532216550000003236002440729816506_"  style="overflow:visible;"/>
		</clipPath>
		<g style="clip-path:url(#SVGID_00000176735523359927966620000015503388346588343474_);">
			
				<use xlink:href="#VHT"  width="18.9" height="32" x="-9.4" y="-16" transform="matrix(0.7447 0 0 0.7468 -149.356 -228.5222)" style="overflow:visible;"/>
		</g>
	</g>
	<g>
		<defs>
			<rect id="SVGID_00000104685399163329975130000001082003298136690581_" x="-159.2" y="-212.8" width="19.9" height="20"/>
		</defs>
		<clipPath id="SVGID_00000080892046196705482670000005306684356904252306_">
			<use xlink:href="#SVGID_00000104685399163329975130000001082003298136690581_"  style="overflow:visible;"/>
		</clipPath>
		<g style="clip-path:url(#SVGID_00000080892046196705482670000005306684356904252306_);">
			
				<use xlink:href="#SHT"  width="22.3" height="24.5" x="-11.2" y="-12.3" transform="matrix(0.7447 0 0 0.7468 -149.2365 -202.8437)" style="overflow:visible;"/>
		</g>
	</g>
	<g>
		<defs>
			<rect id="SVGID_00000016053526654468973350000013409063111660211076_" x="-159.2" y="-212.8" width="19.9" height="20"/>
		</defs>
		<clipPath id="SVGID_00000139266187200103750830000009148592105379801533_">
			<use xlink:href="#SVGID_00000016053526654468973350000013409063111660211076_"  style="overflow:visible;"/>
		</clipPath>
		<g style="clip-path:url(#SVGID_00000139266187200103750830000009148592105379801533_);">
			
				<use xlink:href="#SHT"  width="22.3" height="24.5" x="-11.2" y="-12.3" transform="matrix(0.7447 0 0 0.7468 -149.2365 -202.8437)" style="overflow:visible;"/>
		</g>
	</g>
	<g>
		<defs>
			<rect id="SVGID_00000085231029465139884660000000388740987032909193_" x="-140.1" y="-227.9" width="40.2" height="40.3"/>
		</defs>
		<clipPath id="SVGID_00000143587010360506701500000017275472415509822086_">
			<use xlink:href="#SVGID_00000085231029465139884660000000388740987032909193_"  style="overflow:visible;"/>
		</clipPath>
		
			<g transform="matrix(1 0 0 1 0 -1.525879e-05)" style="clip-path:url(#SVGID_00000143587010360506701500000017275472415509822086_);">
			
				<use xlink:href="#SHT"  width="22.3" height="24.5" x="-11.2" y="-12.3" transform="matrix(0.7447 0 0 0.7468 -130.1597 -217.9045)" style="overflow:visible;"/>
		</g>
	</g>
	<g>
		<defs>
			<rect id="SVGID_00000005951938534067952500000016701594224966704804_" x="-75.8" y="-227.9" width="40.2" height="40.3"/>
		</defs>
		<clipPath id="SVGID_00000005953544629291228940000007337516561494524346_">
			<use xlink:href="#SVGID_00000005951938534067952500000016701594224966704804_"  style="overflow:visible;"/>
		</clipPath>
		
			<g transform="matrix(1 0 0 1 0 -1.525879e-05)" style="clip-path:url(#SVGID_00000005953544629291228940000007337516561494524346_);">
			
				<use xlink:href="#SHT"  width="22.3" height="24.5" x="-11.2" y="-12.3" transform="matrix(0.7447 0 0 0.7468 -65.8672 -217.9045)" style="overflow:visible;"/>
		</g>
	</g>
	<g>
		<defs>
			<rect id="SVGID_00000158724722085725189350000005650370057721642893_" x="-140.1" y="-177.3" width="40.2" height="40.3"/>
		</defs>
		<clipPath id="SVGID_00000183244379727173975730000005517077006889238685_">
			<use xlink:href="#SVGID_00000158724722085725189350000005650370057721642893_"  style="overflow:visible;"/>
		</clipPath>
		<g style="clip-path:url(#SVGID_00000183244379727173975730000005517077006889238685_);">
			
				<use xlink:href="#SHT"  width="22.3" height="24.5" x="-11.2" y="-12.3" transform="matrix(0.7447 0 0 0.7468 -130.1597 -167.2876)" style="overflow:visible;"/>
		</g>
	</g>
	<g>
		<defs>
			<rect id="SVGID_00000076577439165511190730000010855431891585154238_" x="-75.8" y="-177.3" width="40.2" height="40.3"/>
		</defs>
		<clipPath id="SVGID_00000177465989325705646570000003738434590400024710_">
			<use xlink:href="#SVGID_00000076577439165511190730000010855431891585154238_"  style="overflow:visible;"/>
		</clipPath>
		<g style="clip-path:url(#SVGID_00000177465989325705646570000003738434590400024710_);">
			
				<use xlink:href="#SHT"  width="22.3" height="24.5" x="-11.2" y="-12.3" transform="matrix(0.7447 0 0 0.7468 -65.8672 -167.2876)" style="overflow:visible;"/>
		</g>
	</g>
	<g>
		<defs>
			<rect id="SVGID_00000121989384588999879700000001458805233491084190_" x="-108" y="-202.6" width="40.2" height="40.3"/>
		</defs>
		<clipPath id="SVGID_00000030468412766933152590000008013253731846315161_">
			<use xlink:href="#SVGID_00000121989384588999879700000001458805233491084190_"  style="overflow:visible;"/>
		</clipPath>
		
			<g transform="matrix(1 0 0 1 0 -1.525879e-05)" style="clip-path:url(#SVGID_00000030468412766933152590000008013253731846315161_);">
			
				<use xlink:href="#SHT"  width="22.3" height="24.5" x="-11.2" y="-12.3" transform="matrix(0.7447 0 0 0.7468 -98.0134 -192.5961)" style="overflow:visible;"/>
		</g>
	</g>
</g>
</svg>
