<?xml version="1.0" encoding="utf-8"?>
<!-- Generator: Adobe Illustrator 27.9.0, SVG Export Plug-In . SVG Version: 6.00 Build 0)  -->
<svg version="1.1" id="Layer_1" xmlns="http://www.w3.org/2000/svg" xmlns:xlink="http://www.w3.org/1999/xlink" x="0px" y="0px"
	 viewBox="0 0 175.7 263.6" style="enable-background:new 0 0 175.7 263.6;" xml:space="preserve">
<style type="text/css">
	.st0{fill:none;stroke:#000000;stroke-width:0.6129;stroke-linecap:round;stroke-linejoin:round;stroke-miterlimit:10;}
	.st1{fill:none;stroke:#000000;stroke-width:0.3065;stroke-linecap:round;stroke-linejoin:round;stroke-miterlimit:10;}
	.st2{fill-opacity:0;}
	.st3{stroke:#FFFFFF;stroke-width:2.2307;stroke-linecap:round;stroke-linejoin:round;stroke-miterlimit:10;}
	.st4{fill:#FF0000;fill-opacity:0;}
	.st5{fill:#FF0000;}
	.st6{fill:none;stroke:#FFFFFF;stroke-width:2.56;stroke-linecap:square;stroke-miterlimit:10;}
	.st7{fill:#272727;stroke:#000000;}
	.st8{fill:#FFFFFF;}
	.st9{fill:none;stroke:#FFFFFF;}
</style>
<symbol  id="HJ1" viewBox="-24.4 -57.7 48.8 115.4">
	<path d="M8.7,57.7l-5-6.5c3.7-5.4,5.9-11.8,5.9-18.7C9.6,24.8,7,17.7,2.5,12C4.7,6.3,7.4,1,10.8-4.1c-0.1,1-0.1,2.1-0.1,3.1
		c0,12.6,5.4,23.8,13.7,30.5C20.6,39.9,14.9,49.8,8.7,57.7L8.7,57.7z M-18.2-38.7c2-0.3,4.4-2.4,4.9-3c0.4-0.4,1.5,0.4,1.4,1
		C-13.8-39.6-16.7-38.4-18.2-38.7 M-24.4-53.2c0.2,0.4,6.7-4,7.9-4.4c1.4-0.5,2.7,0.7,2.7,0.6l0.2,1.1c0,0-1.7-1.2-2.6-0.9
		C-17.1-56.4-24.3-52.6-24.4-53.2z M-14.1-52.2c0,0.9-0.4,1.6-0.9,1.6l0,0c-0.5,0-0.9-0.7-0.9-1.6l0,0c0-0.9,0.4-1.6,0.9-1.6l0,0
		C-14.5-53.8-14.1-53.1-14.1-52.2L-14.1-52.2z"/>
</symbol>
<symbol  id="HJ2" viewBox="-53.4 -64.5 106.7 128.9">
	<path d="M-14.8-64.5c-11.3-0.1-21.6,2.1-30.4,4.6l2.1,2.1C-30-61.6-12.2-64,3.8-58.7l2.8-2.9C-0.9-63.6-8-64.4-14.8-64.5z
		 M-52.3-21.7l-0.4,0.2l-0.7,2.3l1.1,1.3l5-0.8l-1.5,4.5l1.1,1.3l4.7-0.4l-1.2,5.3l1.2,1.2l4.6-0.8l-1.2,5.7l1.2,1.2l4.5-0.7
		l-1.6,5.1l1.1,1.3l5-0.8l-1.6,5.1l1,1.3h5.2l-1.5,4.2l1,1.4h5.1l-0.8,1.8l2.2,0l1.1-2.4l-0.9-1.4h-5.2l1.5-4.2l-1-1.4h-5.3l1.6-5.3
		L-28,2.1l-5,0.8l1.6-5.1l-1.1-1.3l-4.6,0.8l1.2-5.7l-1.2-1.2l-4.6,0.8l1.2-5.2l-1.1-1.2l-4.6,0.4l1.6-4.7l-1.1-1.3l-5,0.8l0.4-1.3
		L-52.3-21.7z M11.8-18.5l-4.6,0.7l-0.8,1.2L7.7-11L2-9.6L1.3-8.3l2.2,5.2l-5.2,2.2l-0.6,1.3L0,5.7l-4.4,2.6l-0.4,1.4l2.1,3.8
		L-7,17.1c-0.3,0.2-0.5,0.6-0.4,1l2.3,0l4.4-3.5l0.3-1.3l-2.1-3.7L1.8,7l0.4-1.3L0,0.6l5.2-2.2l0.6-1.3l-2.1-5l5.5-1.3l0.8-1.2
		L8.6-16l5.4-0.8L11.8-18.5z M-43.7-17.8c-0.4,0-0.8,0.3-0.8,0.8s0.3,0.8,0.8,0.8l0,0c0.4,0,0.8-0.3,0.8-0.8l0,0
		C-42.9-17.5-43.3-17.8-43.7-17.8z M-50.1-17.1c-0.4,0-0.8,0.3-0.8,0.8l0,0c0,0.4,0.3,0.8,0.8,0.8l0,0c0.4,0,0.8-0.3,0.8-0.8l0,0
		C-49.3-16.7-49.7-17.1-50.1-17.1L-50.1-17.1z M11.7-15c-0.4,0-0.8,0.3-0.8,0.8s0.3,0.8,0.8,0.8s0.8-0.3,0.8-0.8S12.1-15,11.7-15z
		 M-34.5-14.3L-12,14.8C-9.5,4.5-6.2-5.6-1.3-14.3H-34.5z M5.1-13.5c-0.4,0-0.8,0.3-0.8,0.8c0,0.4,0.3,0.8,0.8,0.8l0,0
		c0.4,0,0.8-0.3,0.8-0.8l0,0C5.9-13.2,5.5-13.5,5.1-13.5z M-31.4-12.7h27.6C-7.9-5.1-10.7,3-12.5,11.8L-31.4-12.7z M-45.5-12
		c-0.4,0-0.8,0.3-0.8,0.8c0,0.4,0.3,0.8,0.8,0.8c0.4,0,0.8-0.3,0.8-0.8C-44.7-11.6-45.1-12-45.5-12z M-39.4-12
		c-0.4,0-0.8,0.3-0.8,0.8c0,0.4,0.3,0.8,0.8,0.8s0.8-0.3,0.8-0.8C-38.6-11.6-38.9-12-39.4-12z M26.6-7.5c-5.3,7-9.1,14.6-12,22.7
		c4.4,5.2,7,12,7,19.3c0,7.3-2.6,14-7,19.3l8.3,10.7c7.2-8,14.3-19.2,19-31.1c-0.8-0.6-1.6-1.1-2.4-1.8C35.7,41.9,30,51.8,23.9,59.7
		l-5-6.5c3.7-5.4,5.9-11.8,5.9-18.7c0-0.5,0-1,0-1.5h3.1c0.2,0,0.3-0.1,0.3-0.3c0-0.2-0.1-0.3-0.3-0.3c0,0,0,0,0,0h-3.1
		c-0.1-0.8-0.1-1.6-0.2-2.5h4.7c0.2,0,0.3-0.1,0.3-0.3c0-0.2-0.1-0.3-0.3-0.3c0,0,0,0,0,0h-4.7c-0.1-0.8-0.3-1.6-0.5-2.5h5.5
		c0.2,0,0.3-0.1,0.3-0.3c0-0.2-0.1-0.3-0.3-0.3c0,0,0,0,0,0h-5.6c-0.2-0.7-0.4-1.4-0.6-2.1h7.8c0.2,0,0.3-0.1,0.4-0.2
		c-0.2-0.3-0.4-0.7-0.6-1h-8c-0.2-0.6-0.5-1.2-0.8-1.8h7.5c0.1,0,0.2,0,0.3-0.1c-0.2-0.4-0.4-0.8-0.6-1.2h-7.7
		c-0.3-0.6-0.6-1.2-1-1.8h7.9c-0.2-0.4-0.3-0.8-0.5-1.2h-8.1c-0.4-0.6-0.8-1.2-1.3-1.8H27c-0.1-0.4-0.3-0.8-0.4-1.2h-8.8
		c0.2-0.6,0.5-1.2,0.7-1.8h7.6c-0.1-0.4-0.2-0.8-0.3-1.2H19c0.3-0.6,0.5-1.2,0.8-1.8h5.6c-0.1-0.4-0.1-0.8-0.2-1.2h-4.8
		C20.7,7,21,6.4,21.3,5.8H25c0-0.4-0.1-0.8-0.1-1.2h-3c1.2-2.3,2.5-4.5,3.9-6.6C26-3.9,26.3-5.7,26.6-7.5L26.6-7.5z M6.6-7.4
		C6.2-7.4,5.9-7,5.9-6.6l0,0c0,0.4,0.3,0.8,0.8,0.8s0.8-0.3,0.8-0.8S7-7.4,6.6-7.4L6.6-7.4z M-40.9-5.8c-0.4,0-0.8,0.3-0.8,0.8l0,0
		c0,0.4,0.3,0.8,0.8,0.8c0.4,0,0.8-0.3,0.8-0.8S-40.5-5.8-40.9-5.8L-40.9-5.8z M-34.8-5.8c-0.4,0-0.8,0.3-0.8,0.8l0,0
		c0,0.4,0.3,0.8,0.8,0.8c0.4,0,0.8-0.3,0.8-0.8S-34.3-5.8-34.8-5.8L-34.8-5.8z M0.5-4.8c-0.4,0-0.8,0.3-0.8,0.8s0.3,0.8,0.8,0.8
		s0.8-0.3,0.8-0.8S0.9-4.8,0.5-4.8z M-30.2-0.2c-0.4,0-0.8,0.3-0.8,0.8l0,0c0,0.4,0.3,0.8,0.8,0.8l0,0c0.4,0,0.8-0.3,0.8-0.8l0,0
		C-29.4,0.1-29.7-0.2-30.2-0.2L-30.2-0.2z M-36.8,0.3c-0.4,0-0.8,0.3-0.8,0.8l0,0c0,0.4,0.3,0.8,0.8,0.8c0.4,0,0.8-0.3,0.8-0.8
		S-36.4,0.3-36.8,0.3L-36.8,0.3z M2.8,1.1C2.4,1.1,2,1.4,2,1.8s0.3,0.8,0.8,0.8l0,0c0.4,0,0.8-0.3,0.8-0.8l0,0
		C3.6,1.4,3.2,1.1,2.8,1.1z M-2.8,4.1c-0.4,0-0.8,0.3-0.8,0.8l0,0c0,0.4,0.3,0.8,0.8,0.8l0,0c0.4,0,0.8-0.3,0.8-0.8l0,0
		C-2.1,4.5-2.4,4.1-2.8,4.1L-2.8,4.1z M43.8,5.1c1.2,5.6,4.8,10.2,9.5,12v-5C50.2,9.7,47,7.4,43.8,5.1z M-32.2,5.9
		c-0.4,0-0.8,0.3-0.8,0.8c0,0.4,0.3,0.8,0.8,0.8l0,0c0.4,0,0.8-0.3,0.8-0.8l0,0C-31.4,6.2-31.8,5.9-32.2,5.9z M-25.6,5.9
		c-0.4,0-0.8,0.3-0.8,0.8c0,0.4,0.3,0.8,0.8,0.8l0,0c0.4,0,0.8-0.3,0.8-0.8l0,0C-24.8,6.2-25.1,5.9-25.6,5.9z M0,9.5
		c-0.4,0-0.8,0.3-0.8,0.8c0,0.4,0.3,0.8,0.8,0.8s0.8-0.3,0.8-0.8C0.7,9.8,0.4,9.5,0,9.5z M-27.6,12c-0.4,0-0.8,0.3-0.8,0.8l0,0
		c0,0.4,0.3,0.8,0.8,0.8l0,0c0.4,0,0.8-0.3,0.8-0.8l0,0C-26.8,12.4-27.2,12-27.6,12L-27.6,12z M-21,12c-0.4,0-0.8,0.3-0.8,0.8l0,0
		c0,0.4,0.3,0.8,0.8,0.8l0,0c0.4,0,0.8-0.3,0.8-0.8l0,0C-20.2,12.4-20.5,12-21,12L-21,12z M-5.4,12.3c-0.4,0-0.8,0.3-0.8,0.8
		c0,0.4,0.3,0.8,0.8,0.8s0.8-0.3,0.8-0.8C-4.6,12.6-5,12.3-5.4,12.3z"/>
</symbol>
<symbol  id="HJ3" viewBox="-66.7 -70.5 133.4 140.9">
	<path class="st0" d="M-15.6,42V22h31.2 M-15.6,23.8h31.1 M-15.6,25.9h31.1 M-15.6,22l-28.3-36.6 M-12.5,22l-29.4-38 M-1.3,22
		l-31.2-40.3 M1.8,22l-31.4-40.6 M19.8-18.3C9.4-6.9,5.3,7.5,1.8,22 M21.6-16.9C12.2-5.7,8.3,8.1,4.8,22 M28.4-12
		c-8,10.1-12.8,21.5-15.9,34 M30.3-10.6C23-0.8,18.5,10.1,15.6,22 M37.7-5.1c-5.4,6.7-9.3,14-12.2,21.8 M39.7-3.7
		c-5.3,7-9.2,14.6-12,22.7 M18.6,11.7c9.6,5.2,16.1,15.2,16.1,26.7c0,7.3-2.6,14-7,19.3 M16.3,19.3c6.4,4,10.6,11.1,10.6,19.1
		c0,4.8-1.5,9.3-4.1,12.9 M15.6,22.5c5,3.6,8.2,9.4,8.2,15.9c0,3.8-1.1,7.3-3,10.3 M-24.5-11.9h39.3 M-28.4-17h47 M-27.6-20.1h44.9
		l49,36 M-39.2-17.8L-66.4,1 M-42.4-12.6L-66.4,4 M30.7,18c4.5,5.6,7.1,12.7,7.1,20.4c0,6.9-2.2,13.4-5.9,18.7 M66.4,41.8
		C50.8,39.3,38.8,23.7,38.8,4.9c0-2.9,0.3-5.8,0.8-8.5 M66.4,30.4C56.2,28,48.5,17.5,48.5,4.9c0-0.7,0-1.4,0.1-2 M66.4,27.3
		c-8.7-2.4-15.2-11.5-15.2-22.4c0-0.1,0-0.1,0-0.2 M66.4,20.9c-4.7-1.8-8.3-6.3-9.5-12 M57.4,38.8c-5,12.2-12.6,23.6-20,31.4
		 M55,37.3c-4.7,11.8-11.8,23.1-19,31.1 M52.6,35.5C48.8,45.8,43,55.7,36.9,63.6 M31.9,57.1l5,6.5 M38.9,1.8
		c-3.4,5.1-6.1,10.4-8.2,16.1 M-23.2-10.4h37 M66.4,40c-14.7-2-26-16.7-26-34.6c0-2.7,0.3-5.4,0.8-8 M41.8,5.6c0-0.1,0-0.2,0-0.2
		c0-2.4,0.2-4.8,0.6-7 M43.7,17.3c-0.8-2.6-1.4-5.3-1.7-8.1 M50.1,28.8c-2.1-2.4-3.8-5.2-5.1-8.3 M60.4,36.5
		c-3.2-1.3-6.1-3.3-8.6-5.8 M66.4,38.2c-0.8-0.1-1.6-0.3-2.4-0.5 M43.6,3.2c0.1-1.3,0.2-2.5,0.4-3.8 M45.3,16.7
		c-0.8-2.5-1.4-5.2-1.7-8 M51.1,27.2c-1.8-2.2-3.3-4.6-4.5-7.3 M61.6,34.9c-2.9-1.1-5.6-2.9-8-5.1 M45.3,3c0.1-0.8,0.1-1.6,0.2-2.4
		 M46.3,13.8c-0.3-1.1-0.5-2.3-0.7-3.5 M51.2,24.3c-0.8-1.1-1.5-2.3-2.2-3.5 M60.4,32.3c-1.4-0.7-2.8-1.5-4-2.5 M46.9,4.6
		c0-1,0.1-1.9,0.2-2.9 M46.9,4.9c0-0.1,0-0.2,0-0.3 M46.9,6.8c0-0.5,0-1,0-1.5c0-0.2,0-0.3,0-0.5 M48.1,14c-0.4-1.4-0.7-2.8-0.9-4.3
		 M49.1,17.1c-0.1-0.3-0.2-0.5-0.3-0.8 M52.8,23.5c-0.9-1.2-1.7-2.4-2.4-3.8 M55.1,26.2c-0.1-0.1-0.2-0.2-0.4-0.4 M66.4,32.1
		c-3.3-0.6-6.3-2-9-4 M48.5,16.9c2.5-4.1-5.5-4.4-3-0.2c-4.6,0.1-1.3,6.4,1.4,2.7C48.6,23.6,53.6,17.4,48.5,16.9L48.5,16.9
		 M46.1,6.4C49.4,3,41.7,1,43.2,5.6c-4.5-0.9-2.6,6,0.7,3C44.7,13,51,8,46.1,6.4L46.1,6.4 M54.7,26.2c1.2-4.6-6.5-2.6-2.9,0.6
		c-4.4,1.4,0.7,6.5,2.1,2.2C56.8,32.6,59.8,25.2,54.7,26.2L54.7,26.2 M66.4,33c-0.5-0.2-1.3-0.2-2.2,0.3c-0.2-4.8-7-0.5-2.6,1.5
		c-3.8,2.7,2.6,6,2.7,1.5c0.9,0.6,1.6,0.6,2.1,0.3 M15.6,36.2c1.3-0.6,3.8-1.8,5.4-2.2c3.3-0.7,3.4,3.9,0.5,4.1
		c-1.5,0.1-4.4,0.3-5.8,0.4 M15.5,37.4l3.3-0.8 M15.6,33.8c0.9-1,2.4-2.6,3.6-3.4c2.4-1.7,4.1,2.1,1.8,3.2c-1.6,0.8-5.3,2.6-5.3,2.6
		 M15.6,35.1l2.8-2 M15.6,28.8c0.4-0.7,0.8-1.4,1.2-1.9c1.8-2.3,4.5,0.8,2.6,2.5c-1,0.9-2.9,2.7-3.8,3.5 M15.6,31.4l1.2-1.6
		 M15.6,23.4c1.3,0.1,2.4,1.7,1.4,3.1c-0.4,0.5-0.8,1.2-1.3,1.9 M15.6,38.9c1.4-0.2,4.3-0.5,5.9-0.3c3.3,0.4,1.9,4.9-0.9,4
		c-1.3-0.4-3.6-1-5.1-1.4 M15.6,40.1l3.1,0.3 M15.6,41.3c1.3,0.3,4.1,1.1,5.5,1.9c2.6,1.4,0.5,4.5-1.6,3.8 M16.5,43.1l1.5,0.7
		 M17.4,20.1l2-2.4c2.1-2.6,5.1,1.2,3.6,3.1l-2,2.4 M22.1,24.5l2.6-1.7c2.8-1.8,4.5,2.7,2.5,4l-2.6,1.7 M25.3,29.9l3-0.7
		c3.2-0.8,3.4,4,1.1,4.6l-2.7,0.7 M26.8,36.3l2.7,0.1c3.3,0.1,2.2,4.8-0.2,4.7L26.8,41 M26.4,43.2l2.6,0.6c3.2,0.8,1.1,5.1-1.2,4.6
		l-2.9-0.7 M24.3,48.9l2.4,1.8c2,1.5,0.4,3.6-1.2,4 M18.4,12.2c0.8,1.1,1.2,2.6,0.5,3.9c3.5-4.2,8.3,2,5.8,5
		c4.6-2.9,7.3,4.4,4.1,6.5c5.3-1.3,5.5,6.5,1.8,7.5c5.4,0.2,3.6,7.8-0.3,7.7c5.3,1.3,1.9,8.4-1.9,7.4c3,2.3,1,5.5-1.5,6.4
		 M-66.4-67.4l10.7,13.1v47.8 M-66.4-59.7l6.1,7.5v49 M-55.6-47.6c6.8-6.1,4.9-10.1,4.5-14.4c15.4,13.2,11.2,26,1.5,38.8
		c-0.1-6.1-0.8-11.5-6.2-13.1 M-50.8-59.5c2.3,3,4.9,5.8,0.2,12.9c2.1,0.8,4.1,1.4,6.1,3.6c-1.6,2.5-3.8,3.4-6.1,4.1
		c1.8,3.8,5.3,6.3,1,14.3 M44.5-0.1c0.2-1.5,0.5-4.3,0.9-4.7c0.5-0.5,4.5-5.6,5.1-6.1c0.5-0.5,3.6-1,4.1-1s2.7,1,3.1,2.6
		c1,4.6-1,7.7-3.6,1c-1,1-1.5,1-3.1,1c4.4,3.5,3,6.2-1.5,8.2 M55.1-11.9c0.4-0.5,0.9-1,1.5-1.5c3.1-2.4,7.9-0.8,3.1,3.1
		c-0.7,0.6-1.4,1-2,1.3 M59.3-10.1c3.8-1.2,6.8,0.9,0.9,4.3c-5.7,3.2-8,1.3-5.6-1.3 M60.1-5.7c3.5-0.3,5.6,1.9-0.3,3.9
		c-6.1,2.1-7.9-0.2-4.5-2.3 M60-1.9c3.5-0.2,5.7,2.3,0,3.7c-5.8,1.4-7-1.3-3.2-2.9 M53.9,6.8c2.3-0.7,5.2-3.3,5.4-4.8 M53-1.4
		c0.5,2-1.6,4.5-1.9,4.3 M37.3-22.7c-0.5,4.1,3.6,5.6,7.7,2.6c5.5-4.1,16-4.3,10.7,6.6c-1-3.6-7.4-2.3-11.7,0.5
		C36.8-8.3,30.1-19.6,37.3-22.7L37.3-22.7 M37.3-22.7c-4.6,5.4,1.5,10.4,9.2,5.1c7.6-5.2,11.5,2.4,9.2,4.1l-0.5,1.5 M53.5-22.6
		c0.9,1.6,1.5,3.3,1.7,4.9 M51.1-22.6c1,1.1,1.8,2.3,2.3,3.7 M47-21.3c0.9,0.7,1.8,1.4,2.5,2.3 M43.5-19.2c1.3,0.3,2.6,0.6,3.6,1.2
		 M40.8-18.5c1,0.8,1.9,1.6,2.6,2.6 M37.8-20c0.8,1.5,1.3,3.1,1.5,4.6 M52.6-15.6c0.6-1,0.4-2.2,0-3.6 M50.2-15.5
		c0.5-1,0.3-2.3,0-3.8 M46.1-14.1c0.5-0.9,0.5-2.1,0.5-3.4 M41.1-11.9c0.7-0.9,1-2.2,1.3-3.7 M36.2-13.7c0.7-0.4,1.3-1.1,1.9-1.9
		 M16-55.1c0.6,1.9,1.3,4.3,1.3,4.9c0,1.1-0.5,1.3-0.5,2c0,0.5,4.1,7.2,4.1,9.2c0,2-2,2-2.6,2s0,2,0,2.6c0,0.5-0.5,1.5-0.5,1.5
		s0.5,0.8,0.5,1.5c0,1.5-3.1,1.5-3.1,1.5s0.5,1.5,0.5,2c0,0.5,2,0,2,2.6c0,1-3.1,3.6-4.1,3.6s-2-1-3.1-1s-2.6,1-3.6,1
		S0.9-23.7-1-24.7c-1-0.5-0.9-2-2.6-2.7c-1.1-0.4-2.2-2-3.1-3.7 M15.3-40c-4,0.4-1.6,4.1,2,1.5c0.8-0.6,0,0.5,0,0.5
		c-0.9,0-1.8,0.5-2.6,0.4 M10-32.8c2-0.3,4.4-2.4,4.9-3c0.4-0.4,1.5,0.4,1.4,1C14.3-33.7,11.4-32.5,10-32.8 M13.7-31.9
		c1.4-0.2,2.9-0.1,4.2-1 M3.8-47.3c0.2,0.4,6.7-4,7.9-4.4c1.4-0.5,2.7,0.7,2.7,0.6l0.2,1.1c0,0-1.7-1.2-2.6-0.9
		C11-50.5,3.9-46.7,3.8-47.3L3.8-47.3 M6.6-45.1c3.4-0.2,6.2-3.2,8.9-3.1 M9.7-46c-1.3,2.9,4.2,0.8,5.9,1.8 M17.4-20.1L14.8-22
		 M-29-54.2c-5.3,12.5,1.8,22.4-4.7,33.1c-1,1.6-5.1,2.6-5.6,0c-0.9-4.5,5.1-2.8,3.6-1 M-26.7-54.8c-5.9,12.7,0.7,22.3-5,33.7
		c-2,4.1-9.3,5.2-9.7,0.5c-0.7-8.1,9.7-6.1,7.7-0.5 M-24.3-55.4c-6.4,13,0.5,22.7-5.3,34.3c-1.3,2.5-4.5,3.9-6.9,3.5 M-22.1-55.9
		c-6.9,13.3-0.2,23.1-6,34.8c-0.9,1.7-2.3,2.5-3.9,2.7 M-19.8-56.4C-27-42.9-20.1-34-26.1-22.1c-1.3,2.5-3.7,4-6.1,3.6 M-17.5-56.7
		C-25.1-43.1-18-34.6-24-22.7c-1.2,2.4-3.1,3.4-5.3,3.1 M-15.3-57.1c-7.9,13.8-0.6,22.4-6.7,34.4c-1.3,2.5-2.7,3-5.1,2.6
		 M-13.1-57.3c-8.1,14-0.7,22.5-6.8,34.7c-1.3,2.5-3.2,3-5.6,2.6 M-10.9-57.6c-8.4,14.1-0.8,21.7-6.9,33.9c-1.3,2.5-2.7,3.5-5.1,3.1
		 M-8.8-57.7c-8.5,14.2-0.9,21.3-7,33.5c-1.3,2.5-2.7,3.5-5.1,3.1 M-6.7-57.8c-8.6,14.3-1,20.8-7.1,33.1c-1.1,2.1-1.9,2.8-3.5,2.7
		 M-4.6-57.9c-8.7,14.3-1,19.4-7.2,31.7c-0.9,1.9-1.7,2.9-3,3.1 M-2.6-57.9c-8.7,14.3-1,18.3-7.2,30.6c-0.6,1.3-1.6,1.9-2.6,2.1
		 M-0.6-57.8C-9.2-43.6-1-42.6-7.2-30.3c-0.8,1.5-1.4,2.3-2.3,2.6 M-32.1-56C-18-60-0.2-63.1,19.6-57.7 M-46-70.2l15.9,16.2
		c13.1-3.8,30.9-6.2,46.9-0.9l14.9-15.3"/>
</symbol>
<symbol  id="HJ4" viewBox="-63.7 -48.7 127.3 97.4">
	<path class="st1" d="M-50.9-36.1v12.7 M-49.9-37.2v14.3 M-48.9-38.5V-22 M-47.9-40.2v19.4 M-46.8-48.5v29.8 M-45.8-48.2v36.9
		 M-44.8-47.2v35.1 M-43.8-46.1v32.6 M-42.7-45v29.9 M-41.7-43.7v26.9 M-40.7-42.3v23.7 M-39.7-40.6v20 M60.1,11.7
		c1,0.9,0.8,2.7,0.4,2.8 M59.3,8.6c1,0.9,0.8,2.7,0.4,2.8 M61.5,3.9C60.5,4.4,61,7.6,61,7.6 M62.1,8.5c0.3,0.5,0.4,1.1,0.4,1.6
		 M63.1,11.9c0.3,0.5,0.4,1.1,0.4,1.6 M19.5-31.8c-0.3-0.3-2.7,0.5-2.8,1.1 M19.4-35.9c-1.2,0.3-2.3-1-3.8-1c-0.4,0-2.2,0.8-2.2,0.8
		 M17.6-35.5c0.4,0.3,0.6,0.8,0.6,1.5c0,1-0.7,1.9-1.5,1.9c-0.8,0-1.5-0.8-1.5-1.9c0-0.2,0-0.3,0-0.5 M-2-16.9h-2 M-0.5-15.3h-5.2
		 M1.5-13.8h-8.2 M2.7-12.3H-8.9 M5.8-10.7h-16.3 M3.2-9.2h-17.4"/>
	
		<use xlink:href="#SHJ"  width="83.3" height="83.3" x="-41.7" y="-41.7" transform="matrix(0.1022 0 0 0.1022 -6.8864 44.4283)" style="overflow:visible;"/>
	
		<use xlink:href="#SHJ"  width="83.3" height="83.3" x="-41.7" y="-41.7" transform="matrix(-0.1022 0 0 -0.1022 0.1622 44.4283)" style="overflow:visible;"/>
	<g>
		<defs>
			<rect id="SVGID_1_" x="23.7" y="17.8" transform="matrix(0.866 -0.5 0.5 0.866 -7.1157 16.675)" width="7.7" height="7.7"/>
		</defs>
		<clipPath id="SVGID_00000165231433868746557910000009540285127358725508_">
			<use xlink:href="#SVGID_1_"  style="overflow:visible;"/>
		</clipPath>
		
			<g transform="matrix(1 -2.980232e-08 2.980232e-08 1 0 0)" style="clip-path:url(#SVGID_00000165231433868746557910000009540285127358725508_);">
			
				<use xlink:href="#SHJ"  width="83.3" height="83.3" x="-41.7" y="-41.7" transform="matrix(8.846782e-02 5.107675e-02 -5.107692e-02 8.846752e-02 28.0255 23.3599)" style="overflow:visible;"/>
		</g>
	</g>
	<g>
		<defs>
			
				<rect id="SVGID_00000122693475652325735070000012395465539196499847_" x="27" y="11.1" transform="matrix(0.866 -0.5 0.5 0.866 -3.3578 17.4198)" width="7.7" height="7.7"/>
		</defs>
		<clipPath id="SVGID_00000055687704628612266820000015936082816590219176_">
			<use xlink:href="#SVGID_00000122693475652325735070000012395465539196499847_"  style="overflow:visible;"/>
		</clipPath>
		
			<g transform="matrix(1 -2.980232e-08 2.980232e-08 1 1.907349e-06 1.907349e-06)" style="clip-path:url(#SVGID_00000055687704628612266820000015936082816590219176_);">
			
				<use xlink:href="#SHJ"  width="83.3" height="83.3" x="-41.7" y="-41.7" transform="matrix(8.846782e-02 5.107675e-02 -5.107692e-02 8.846752e-02 31.2945 16.72)" style="overflow:visible;"/>
		</g>
	</g>
	<g>
		<defs>
			
				<rect id="SVGID_00000059300387550589791920000007255238852738511503_" x="31" y="4.5" transform="matrix(0.866 -0.5 0.5 0.866 0.4959 18.5223)" width="7.7" height="7.7"/>
		</defs>
		<clipPath id="SVGID_00000156562899088359708460000008689809375184260485_">
			<use xlink:href="#SVGID_00000059300387550589791920000007255238852738511503_"  style="overflow:visible;"/>
		</clipPath>
		
			<g transform="matrix(1 -2.980232e-08 2.980232e-08 1 0 9.536743e-07)" style="clip-path:url(#SVGID_00000156562899088359708460000008689809375184260485_);">
			
				<use xlink:href="#SHJ"  width="83.3" height="83.3" x="-41.7" y="-41.7" transform="matrix(8.846782e-02 5.107675e-02 -5.107692e-02 8.846752e-02 35.2785 10.08)" style="overflow:visible;"/>
		</g>
	</g>
	<g>
		<defs>
			
				<rect id="SVGID_00000018928356507967499570000005270472531046380704_" x="-44" y="3.2" transform="matrix(0.5 -0.866 0.866 0.5 -26.1724 -31.3166)" width="7.7" height="7.7"/>
		</defs>
		<clipPath id="SVGID_00000047058796647406676980000003917983172744802231_">
			<use xlink:href="#SVGID_00000018928356507967499570000005270472531046380704_"  style="overflow:visible;"/>
		</clipPath>
		
			<g transform="matrix(1 2.980232e-08 -2.980232e-08 1 0 -1.907349e-06)" style="clip-path:url(#SVGID_00000047058796647406676980000003917983172744802231_);">
			
				<use xlink:href="#SHJ"  width="83.3" height="83.3" x="-41.7" y="-41.7" transform="matrix(5.107692e-02 8.846752e-02 -8.846782e-02 5.107675e-02 -40.6746 8.752)" style="overflow:visible;"/>
		</g>
	</g>
	<g>
		<defs>
			
				<rect id="SVGID_00000044898868769798003390000001793080536303223958_" x="-50.7" y="12.9" transform="matrix(0.5 -0.866 0.866 0.5 -37.8968 -32.2147)" width="7.7" height="7.7"/>
		</defs>
		<clipPath id="SVGID_00000015323515277594216110000002743312031047315900_">
			<use xlink:href="#SVGID_00000044898868769798003390000001793080536303223958_"  style="overflow:visible;"/>
		</clipPath>
		
			<g transform="matrix(1 2.980232e-08 -2.980232e-08 1 0 0)" style="clip-path:url(#SVGID_00000015323515277594216110000002743312031047315900_);">
			
				<use xlink:href="#SHJ"  width="83.3" height="83.3" x="-41.7" y="-41.7" transform="matrix(5.107692e-02 8.846752e-02 -8.846782e-02 5.107675e-02 -47.3146 18.4566)" style="overflow:visible;"/>
		</g>
	</g>
	<g>
		<defs>
			
				<rect id="SVGID_00000172424722336798358730000009532058192356578977_" x="-61.2" y="12.9" transform="matrix(0.5 -0.866 0.866 0.5 -43.1577 -41.3269)" width="7.7" height="7.7"/>
		</defs>
		<clipPath id="SVGID_00000018229920987289893980000009642406583506717620_">
			<use xlink:href="#SVGID_00000172424722336798358730000009532058192356578977_"  style="overflow:visible;"/>
		</clipPath>
		
			<g transform="matrix(1 2.980232e-08 -2.980232e-08 1 0 0)" style="clip-path:url(#SVGID_00000018229920987289893980000009642406583506717620_);">
			
				<use xlink:href="#SHJ"  width="83.3" height="83.3" x="-41.7" y="-41.7" transform="matrix(5.107692e-02 8.846752e-02 -8.846782e-02 5.107675e-02 -57.8365 18.4566)" style="overflow:visible;"/>
		</g>
	</g>
	<g>
		<defs>
			
				<rect id="SVGID_00000159433424939858362260000009391786825998966166_" x="-56.7" y="22.8" transform="matrix(0.5 -0.866 0.866 0.5 -49.4917 -32.4799)" width="7.7" height="7.7"/>
		</defs>
		<clipPath id="SVGID_00000136408432102362533030000001540861462141024164_">
			<use xlink:href="#SVGID_00000159433424939858362260000009391786825998966166_"  style="overflow:visible;"/>
		</clipPath>
		
			<g transform="matrix(1 2.980232e-08 -2.980232e-08 1 -3.814697e-06 1.907349e-06)" style="clip-path:url(#SVGID_00000136408432102362533030000001540861462141024164_);">
			
				<use xlink:href="#SHJ"  width="83.3" height="83.3" x="-41.7" y="-41.7" transform="matrix(5.107692e-02 8.846752e-02 -8.846782e-02 5.107675e-02 -53.3417 28.3655)" style="overflow:visible;"/>
		</g>
	</g>
</symbol>
<symbol  id="SH3" viewBox="-11.2 -12.3 22.3 24.5">
	<rect x="-11.2" y="-11.2" class="st2" width="22.3" height="22.3"/>
	<path class="st3" d="M0-6.7c0-2.2,2.2-4.5,4.5-4.5s4.5,2.2,4.5,5.6C8.9,0,0,8.9,0,11.2C0,8.9-8.9,0-8.9-5.6c0-3.3,2.2-5.6,4.5-5.6
		S0-8.9,0-6.7z"/>
</symbol>
<symbol  id="SHJ" viewBox="-41.7 -41.7 83.3 83.3">
	<rect x="-41.7" y="-41.7" class="st4" width="83.3" height="83.3"/>
	<path class="st5" d="M0-25c0-8.3,8.3-16.7,16.7-16.7s16.7,8.3,16.7,20.8C33.3,0,0,33.3,0,41.7C0,33.3-33.3,0-33.3-20.8
		c0-12.5,8.3-20.8,16.7-20.8S0-33.3,0-25z"/>
</symbol>
<symbol  id="VHJ" viewBox="-9.3 -15.8 18.6 31.7">
	<path class="st6" d="M1.6-14.6H8 M4.8-14.6V8.2c0,3.5-2.9,6.4-6.4,6.4S-8,11.7-8,8.2v-1"/>
</symbol>
<path class="st7" d="M23.5,9.3h128.8c7.8,0,14.1,6.4,14.1,14.2v216.6c0,7.8-6.3,14.2-14.1,14.2H23.5c-7.8,0-14.1-6.4-14.1-14.2V23.5
	C9.3,15.7,15.6,9.3,23.5,9.3z"/>
<g>
	<rect id="XHJ" x="38.4" y="55.5" class="st8" width="98.9" height="152.6"/>
</g>
<g>
	<defs>
		<rect id="SVGID_00000156570911143537907610000000850935111575841726_" x="38.4" y="55.5" width="98.9" height="152.6"/>
	</defs>
	<clipPath id="SVGID_00000109735602855093690100000010297690002894991276_">
		<use xlink:href="#SVGID_00000156570911143537907610000000850935111575841726_"  style="overflow:visible;"/>
	</clipPath>
	<g style="clip-path:url(#SVGID_00000109735602855093690100000010297690002894991276_);">
		
			<use xlink:href="#HJ1"  width="48.8" height="115.4" x="-24.4" y="-57.7" transform="matrix(0.7447 0 0 0.7468 108.8483 112.0311)" style="overflow:visible;"/>
	</g>
</g>
<g>
	<defs>
		<rect id="SVGID_00000052106158887843783890000014589432529082637233_" x="38.4" y="55.5" width="98.9" height="152.6"/>
	</defs>
	<clipPath id="SVGID_00000113352206876884920860000011296620412331150494_">
		<use xlink:href="#SVGID_00000052106158887843783890000014589432529082637233_"  style="overflow:visible;"/>
	</clipPath>
	<g style="clip-path:url(#SVGID_00000113352206876884920860000011296620412331150494_);">
		
			<use xlink:href="#HJ1"  width="48.8" height="115.4" x="-24.4" y="-57.7" transform="matrix(-0.7447 0 0 -0.7468 66.8997 151.5909)" style="overflow:visible;"/>
	</g>
</g>
<g>
	<defs>
		<rect id="SVGID_00000163057734136140064180000009934746313881767345_" x="38.4" y="55.5" width="98.9" height="152.6"/>
	</defs>
	<clipPath id="SVGID_00000142873468280600670930000012788656954754184334_">
		<use xlink:href="#SVGID_00000163057734136140064180000009934746313881767345_"  style="overflow:visible;"/>
	</clipPath>
	
		<g transform="matrix(1 0 0 1 -7.629395e-06 7.629395e-06)" style="clip-path:url(#SVGID_00000142873468280600670930000012788656954754184334_);">
		
			<use xlink:href="#HJ2"  width="106.7" height="128.9" x="-53.4" y="-64.5" transform="matrix(0.7447 0 0 0.7468 97.5902 110.7698)" style="overflow:visible;"/>
	</g>
</g>
<g>
	<defs>
		<rect id="SVGID_00000085214892508136834700000012613361866468227743_" x="38.4" y="55.5" width="98.9" height="152.6"/>
	</defs>
	<clipPath id="SVGID_00000099646606695660579000000015327906365985606273_">
		<use xlink:href="#SVGID_00000085214892508136834700000012613361866468227743_"  style="overflow:visible;"/>
	</clipPath>
	<g style="clip-path:url(#SVGID_00000099646606695660579000000015327906365985606273_);">
		
			<use xlink:href="#HJ2"  width="106.7" height="128.9" x="-53.4" y="-64.5" transform="matrix(-0.7447 0 0 -0.7468 78.1579 152.8522)" style="overflow:visible;"/>
	</g>
</g>
<g>
	<defs>
		<rect id="SVGID_00000149363913942058125600000012518517766183069583_" x="38.4" y="55.5" width="98.9" height="152.6"/>
	</defs>
	<clipPath id="SVGID_00000026161336589836146110000014224666445738024633_">
		<use xlink:href="#SVGID_00000149363913942058125600000012518517766183069583_"  style="overflow:visible;"/>
	</clipPath>
	<g style="clip-path:url(#SVGID_00000026161336589836146110000014224666445738024633_);">
		
			<use xlink:href="#HJ3"  width="133.4" height="140.9" x="-66.7" y="-70.5" transform="matrix(0.7447 0 0 0.7468 87.8791 107.9122)" style="overflow:visible;"/>
	</g>
</g>
<g>
	<defs>
		<rect id="SVGID_00000000185038898821196620000002440199215671555773_" x="38.4" y="55.5" width="98.9" height="152.6"/>
	</defs>
	<clipPath id="SVGID_00000089538054203669879510000008271038644946544318_">
		<use xlink:href="#SVGID_00000000185038898821196620000002440199215671555773_"  style="overflow:visible;"/>
	</clipPath>
	<g style="clip-path:url(#SVGID_00000089538054203669879510000008271038644946544318_);">
		
			<use xlink:href="#HJ3"  width="133.4" height="140.9" x="-66.7" y="-70.5" transform="matrix(-0.7447 0 0 -0.7468 87.8689 155.7099)" style="overflow:visible;"/>
	</g>
</g>
<g>
	<defs>
		<rect id="SVGID_00000169543275414698026930000003040879161663450517_" x="38.4" y="55.5" width="98.9" height="152.6"/>
	</defs>
	<clipPath id="SVGID_00000145765453108407948390000013459272017487727504_">
		<use xlink:href="#SVGID_00000169543275414698026930000003040879161663450517_"  style="overflow:visible;"/>
	</clipPath>
	
		<g transform="matrix(1 0 0 1 0 7.629395e-06)" style="clip-path:url(#SVGID_00000145765453108407948390000013459272017487727504_);">
		
			<use xlink:href="#HJ4"  width="127.3" height="97.4" x="-63.7" y="-48.7" transform="matrix(0.7447 0 0 0.7468 84.3459 98.6322)" style="overflow:visible;"/>
	</g>
</g>
<g>
	<defs>
		<rect id="SVGID_00000062190545330492210220000000679059138702767769_" x="38.4" y="55.5" width="98.9" height="152.6"/>
	</defs>
	<clipPath id="SVGID_00000163761057157556136140000016680236072960855962_">
		<use xlink:href="#SVGID_00000062190545330492210220000000679059138702767769_"  style="overflow:visible;"/>
	</clipPath>
	<g style="clip-path:url(#SVGID_00000163761057157556136140000016680236072960855962_);">
		
			<use xlink:href="#HJ4"  width="127.3" height="97.4" x="-63.7" y="-48.7" transform="matrix(-0.7447 0 0 -0.7468 91.4021 164.9899)" style="overflow:visible;"/>
	</g>
</g>
<g>
	<defs>
		<rect id="SVGID_00000034806576066561752210000006524780613166597531_" x="14.6" y="23.2" width="23.8" height="23.9"/>
	</defs>
	<clipPath id="SVGID_00000107573877204006402590000003270170561598901662_">
		<use xlink:href="#SVGID_00000034806576066561752210000006524780613166597531_"  style="overflow:visible;"/>
	</clipPath>
	<g style="clip-path:url(#SVGID_00000107573877204006402590000003270170561598901662_);">
		
			<use xlink:href="#VHJ"  width="18.6" height="31.7" x="-9.3" y="-15.8" transform="matrix(0.7447 0 0 0.7468 26.5111 34.9803)" style="overflow:visible;"/>
	</g>
</g>
<g>
	<defs>
		<rect id="SVGID_00000120528067478692086470000001706448572836362885_" x="137.3" y="216.6" width="23.8" height="23.9"/>
	</defs>
	<clipPath id="SVGID_00000111167155576853286100000003197660213454435974_">
		<use xlink:href="#SVGID_00000120528067478692086470000001706448572836362885_"  style="overflow:visible;"/>
	</clipPath>
	<g style="clip-path:url(#SVGID_00000111167155576853286100000003197660213454435974_);">
		
			<use xlink:href="#VHJ"  width="18.6" height="31.7" x="-9.3" y="-15.8" transform="matrix(-0.7447 0 0 -0.7468 149.2369 228.6417)" style="overflow:visible;"/>
	</g>
</g>
<g>
	<rect id="XHJ_00000066479113452518556460000001882846191134303905_" x="38.4" y="55.5" class="st9" width="98.9" height="152.6"/>
</g>
<g>
	<defs>
		<rect id="SVGID_00000075138185165335123110000018185073837080931007_" x="16.5" y="50.8" width="19.9" height="20"/>
	</defs>
	<clipPath id="SVGID_00000080187742577203009130000012613952823339301821_">
		<use xlink:href="#SVGID_00000075138185165335123110000018185073837080931007_"  style="overflow:visible;"/>
	</clipPath>
	
		<g transform="matrix(1 0 0 1 1.907349e-06 -3.814697e-06)" style="clip-path:url(#SVGID_00000080187742577203009130000012613952823339301821_);">
		
			<use xlink:href="#SH3"  width="22.3" height="24.5" x="-11.2" y="-12.3" transform="matrix(0.7447 0 0 0.7468 26.5115 60.7783)" style="overflow:visible;"/>
	</g>
</g>
<g>
	<defs>
		<rect id="SVGID_00000147182973873263000070000013775421172435101852_" x="139.3" y="192.8" width="19.9" height="20"/>
	</defs>
	<clipPath id="SVGID_00000023258717279688432040000018178185452125869189_">
		<use xlink:href="#SVGID_00000147182973873263000070000013775421172435101852_"  style="overflow:visible;"/>
	</clipPath>
	<g style="clip-path:url(#SVGID_00000023258717279688432040000018178185452125869189_);">
		
			<use xlink:href="#SH3"  width="22.3" height="24.5" x="-11.2" y="-12.3" transform="matrix(-0.7447 0 0 -0.7468 149.2365 202.8437)" style="overflow:visible;"/>
	</g>
</g>
</svg>
