<?xml version="1.0" encoding="utf-8"?>
<!-- Generator: Adobe Illustrator 27.9.0, SVG Export Plug-In . SVG Version: 6.00 Build 0)  -->
<svg version="1.1" id="Layer_1" xmlns="http://www.w3.org/2000/svg" xmlns:xlink="http://www.w3.org/1999/xlink" x="0px" y="0px"
	 viewBox="0 0 175.7 263.6" style="enable-background:new 0 0 175.7 263.6;" xml:space="preserve">
<style type="text/css">
	.st0{fill-opacity:0;}
	.st1{stroke:#FFFFFF;stroke-width:2.2307;stroke-linecap:round;stroke-linejoin:round;stroke-miterlimit:10;}
	.st2{fill:none;stroke:#FFFFFF;stroke-width:2.56;stroke-linecap:square;stroke-miterlimit:10;}
	.st3{fill:#272727;stroke:#000000;}
</style>
<symbol  id="SH2" viewBox="-11.2 -12.3 22.3 24.5">
	<rect x="-11.2" y="-11.2" class="st0" width="22.3" height="22.3"/>
	<path class="st1" d="M0-6.7c0-2.2,2.2-4.5,4.5-4.5s4.5,2.2,4.5,5.6C8.9,0,0,8.9,0,11.2C0,8.9-8.9,0-8.9-5.6c0-3.3,2.2-5.6,4.5-5.6
		S0-8.9,0-6.7z"/>
</symbol>
<symbol  id="VH2" viewBox="-8.5 -16 17.1 32">
	<path class="st2" d="M-7.1-7.2c-0.6-1.3,0.8-7.5,7.2-7.5s7.2,4.3,7.2,7.5C7.3-0.8-7.1,5.1-7.1,14.7H7.3V9.6"/>
</symbol>
<path class="st3" d="M23.5,9.3h128.8c7.8,0,14.1,6.4,14.1,14.2v216.6c0,7.8-6.3,14.2-14.1,14.2H23.5c-7.8,0-14.1-6.4-14.1-14.2V23.5
	C9.3,15.7,15.6,9.3,23.5,9.3z"/>
<g>
	<defs>
		<rect id="SVGID_1_" x="14.6" y="23.2" width="23.8" height="23.9"/>
	</defs>
	<clipPath id="SVGID_00000163783731247752326150000002102851287019290027_">
		<use xlink:href="#SVGID_1_"  style="overflow:visible;"/>
	</clipPath>
	<g style="clip-path:url(#SVGID_00000163783731247752326150000002102851287019290027_);">
		
			<use xlink:href="#VH2"  width="17.1" height="32" x="-8.5" y="-16" transform="matrix(0.7447 0 0 0.7468 26.4595 35.0998)" style="overflow:visible;"/>
	</g>
</g>
<g>
	<defs>
		<rect id="SVGID_00000094600488028614230660000004874232217139797636_" x="16.5" y="50.8" width="19.9" height="20"/>
	</defs>
	<clipPath id="SVGID_00000036223717118872243530000012582246397151631772_">
		<use xlink:href="#SVGID_00000094600488028614230660000004874232217139797636_"  style="overflow:visible;"/>
	</clipPath>
	
		<g transform="matrix(1 0 0 1 1.907349e-06 -3.814697e-06)" style="clip-path:url(#SVGID_00000036223717118872243530000012582246397151631772_);">
		
			<use xlink:href="#SH2"  width="22.3" height="24.5" x="-11.2" y="-12.3" transform="matrix(0.7447 0 0 0.7468 26.5115 60.7783)" style="overflow:visible;"/>
	</g>
</g>
<g>
	<defs>
		<rect id="SVGID_00000163071745817018466170000015203403186358471831_" x="16.5" y="50.8" width="19.9" height="20"/>
	</defs>
	<clipPath id="SVGID_00000046334761908904583150000009158838810796606354_">
		<use xlink:href="#SVGID_00000163071745817018466170000015203403186358471831_"  style="overflow:visible;"/>
	</clipPath>
	
		<g transform="matrix(1 0 0 1 1.907349e-06 -3.814697e-06)" style="clip-path:url(#SVGID_00000046334761908904583150000009158838810796606354_);">
		
			<use xlink:href="#SH2"  width="22.3" height="24.5" x="-11.2" y="-12.3" transform="matrix(0.7447 0 0 0.7468 26.5115 60.7783)" style="overflow:visible;"/>
	</g>
</g>
<g>
	<defs>
		<rect id="SVGID_00000167383159967081426230000010672558580744431803_" x="67.8" y="35.7" width="40.2" height="40.3"/>
	</defs>
	<clipPath id="SVGID_00000011743313697057491300000003496465652986765988_">
		<use xlink:href="#SVGID_00000167383159967081426230000010672558580744431803_"  style="overflow:visible;"/>
	</clipPath>
	<g style="clip-path:url(#SVGID_00000011743313697057491300000003496465652986765988_);">
		
			<use xlink:href="#SH2"  width="22.3" height="24.5" x="-11.2" y="-12.3" transform="matrix(0.7447 0 0 0.7468 77.7346 45.7175)" style="overflow:visible;"/>
	</g>
</g>
<g transform="rotate(180)">
	<g>
		<defs>
			<rect id="SVGID_00000103980845280458065250000017277444131991757444_" x="-161.2" y="-240.5" width="23.8" height="23.9"/>
		</defs>
		<clipPath id="SVGID_00000017479841844619790880000006348262546442486453_">
			<use xlink:href="#SVGID_00000103980845280458065250000017277444131991757444_"  style="overflow:visible;"/>
		</clipPath>
		<g style="clip-path:url(#SVGID_00000017479841844619790880000006348262546442486453_);">
			
				<use xlink:href="#VH2"  width="17.1" height="32" x="-8.5" y="-16" transform="matrix(0.7447 0 0 0.7468 -149.2885 -228.5222)" style="overflow:visible;"/>
		</g>
	</g>
	<g>
		<defs>
			<rect id="SVGID_00000072243087687071633830000008096739316378190753_" x="-159.2" y="-212.8" width="19.9" height="20"/>
		</defs>
		<clipPath id="SVGID_00000170976990403275575530000007496067591003733669_">
			<use xlink:href="#SVGID_00000072243087687071633830000008096739316378190753_"  style="overflow:visible;"/>
		</clipPath>
		<g style="clip-path:url(#SVGID_00000170976990403275575530000007496067591003733669_);">
			
				<use xlink:href="#SH2"  width="22.3" height="24.5" x="-11.2" y="-12.3" transform="matrix(0.7447 0 0 0.7468 -149.2365 -202.8437)" style="overflow:visible;"/>
		</g>
	</g>
	<g>
		<defs>
			<rect id="SVGID_00000147180701334815943620000014122823928150191781_" x="-159.2" y="-212.8" width="19.9" height="20"/>
		</defs>
		<clipPath id="SVGID_00000034070550693904533330000005764833386439946672_">
			<use xlink:href="#SVGID_00000147180701334815943620000014122823928150191781_"  style="overflow:visible;"/>
		</clipPath>
		<g style="clip-path:url(#SVGID_00000034070550693904533330000005764833386439946672_);">
			
				<use xlink:href="#SH2"  width="22.3" height="24.5" x="-11.2" y="-12.3" transform="matrix(0.7447 0 0 0.7468 -149.2365 -202.8437)" style="overflow:visible;"/>
		</g>
	</g>
	<g>
		<defs>
			<rect id="SVGID_00000120529103333629096410000011034099781200673692_" x="-108" y="-227.9" width="40.2" height="40.3"/>
		</defs>
		<clipPath id="SVGID_00000183247732872757734450000004254621856893070725_">
			<use xlink:href="#SVGID_00000120529103333629096410000011034099781200673692_"  style="overflow:visible;"/>
		</clipPath>
		
			<g transform="matrix(1 0 0 1 0 -1.525879e-05)" style="clip-path:url(#SVGID_00000183247732872757734450000004254621856893070725_);">
			
				<use xlink:href="#SH2"  width="22.3" height="24.5" x="-11.2" y="-12.3" transform="matrix(0.7447 0 0 0.7468 -98.0134 -217.9045)" style="overflow:visible;"/>
		</g>
	</g>
</g>
</svg>
