<?xml version="1.0" encoding="utf-8"?>
<!-- Generator: Adobe Illustrator 27.9.0, SVG Export Plug-In . SVG Version: 6.00 Build 0)  -->
<svg version="1.1" id="Layer_1" xmlns="http://www.w3.org/2000/svg" xmlns:xlink="http://www.w3.org/1999/xlink" x="0px" y="0px"
	 viewBox="0 0 175.7 263.6" style="enable-background:new 0 0 175.7 263.6;" xml:space="preserve">
<style type="text/css">
	.st0{fill-opacity:0;}
	.st1{stroke:#FFFFFF;stroke-width:2.2307;stroke-linecap:round;stroke-linejoin:round;stroke-miterlimit:10;}
	.st2{fill:none;stroke:#FFFFFF;stroke-width:2.56;stroke-linecap:square;stroke-miterlimit:10;}
	.st3{fill:#272727;stroke:#000000;}
</style>
<symbol  id="SH6" viewBox="-11.2 -12.3 22.3 24.5">
	<rect x="-11.2" y="-11.2" class="st0" width="22.3" height="22.3"/>
	<path class="st1" d="M0-6.7c0-2.2,2.2-4.5,4.5-4.5s4.5,2.2,4.5,5.6C8.9,0,0,8.9,0,11.2C0,8.9-8.9,0-8.9-5.6c0-3.3,2.2-5.6,4.5-5.6
		S0-8.9,0-6.7z"/>
</symbol>
<symbol  id="VH6" viewBox="-9.3 -16 18.6 32">
	<path class="st2" d="M-8,3.2c0-4.4,3.6-8,8-8s8,3.6,8,8v3.5c0,4.4-3.6,8-8,8s-8-3.6-8-8V-6.7c0-4.4,3.6-8,8-8
		c4.8,0,5.8,1.9,6.4,2.7"/>
</symbol>
<path class="st3" d="M23.5,9.3h128.8c7.8,0,14.1,6.4,14.1,14.2v216.6c0,7.8-6.3,14.2-14.1,14.2H23.5c-7.8,0-14.1-6.4-14.1-14.2V23.5
	C9.3,15.7,15.6,9.3,23.5,9.3z"/>
<g>
	<defs>
		<rect id="SVGID_1_" x="14.6" y="23.2" width="23.8" height="23.9"/>
	</defs>
	<clipPath id="SVGID_00000165950509503821910040000013506479185340351658_">
		<use xlink:href="#SVGID_1_"  style="overflow:visible;"/>
	</clipPath>
	<g style="clip-path:url(#SVGID_00000165950509503821910040000013506479185340351658_);">
		
			<use xlink:href="#VH6"  width="18.6" height="32" x="-9.3" y="-16" transform="matrix(0.7447 0 0 0.7468 26.5111 35.0998)" style="overflow:visible;"/>
	</g>
</g>
<g>
	<defs>
		<rect id="SVGID_00000155111344192280919210000010020360138340293803_" x="16.5" y="50.8" width="19.9" height="20"/>
	</defs>
	<clipPath id="SVGID_00000099644284413032060010000018403407708587286675_">
		<use xlink:href="#SVGID_00000155111344192280919210000010020360138340293803_"  style="overflow:visible;"/>
	</clipPath>
	
		<g transform="matrix(1 0 0 1 1.907349e-06 -3.814697e-06)" style="clip-path:url(#SVGID_00000099644284413032060010000018403407708587286675_);">
		
			<use xlink:href="#SH6"  width="22.3" height="24.5" x="-11.2" y="-12.3" transform="matrix(0.7447 0 0 0.7468 26.5115 60.7783)" style="overflow:visible;"/>
	</g>
</g>
<g>
	<defs>
		<rect id="SVGID_00000049213213383554684210000010416916251160493218_" x="16.5" y="50.8" width="19.9" height="20"/>
	</defs>
	<clipPath id="SVGID_00000026857775642116770540000001048620173685985202_">
		<use xlink:href="#SVGID_00000049213213383554684210000010416916251160493218_"  style="overflow:visible;"/>
	</clipPath>
	
		<g transform="matrix(1 0 0 1 1.907349e-06 -3.814697e-06)" style="clip-path:url(#SVGID_00000026857775642116770540000001048620173685985202_);">
		
			<use xlink:href="#SH6"  width="22.3" height="24.5" x="-11.2" y="-12.3" transform="matrix(0.7447 0 0 0.7468 26.5115 60.7783)" style="overflow:visible;"/>
	</g>
</g>
<g>
	<defs>
		<rect id="SVGID_00000103962870489724682100000015864695367415728299_" x="35.6" y="35.7" width="40.2" height="40.3"/>
	</defs>
	<clipPath id="SVGID_00000154383479567101623440000017932339324472676749_">
		<use xlink:href="#SVGID_00000103962870489724682100000015864695367415728299_"  style="overflow:visible;"/>
	</clipPath>
	<g style="clip-path:url(#SVGID_00000154383479567101623440000017932339324472676749_);">
		
			<use xlink:href="#SH6"  width="22.3" height="24.5" x="-11.2" y="-12.3" transform="matrix(0.7447 0 0 0.7468 45.5884 45.7175)" style="overflow:visible;"/>
	</g>
</g>
<g>
	<defs>
		<rect id="SVGID_00000073686222988001267510000018339542482330022053_" x="99.9" y="35.7" width="40.2" height="40.3"/>
	</defs>
	<clipPath id="SVGID_00000005959160933364460820000007180340033623441557_">
		<use xlink:href="#SVGID_00000073686222988001267510000018339542482330022053_"  style="overflow:visible;"/>
	</clipPath>
	<g style="clip-path:url(#SVGID_00000005959160933364460820000007180340033623441557_);">
		
			<use xlink:href="#SH6"  width="22.3" height="24.5" x="-11.2" y="-12.3" transform="matrix(0.7447 0 0 0.7468 109.8809 45.7175)" style="overflow:visible;"/>
	</g>
</g>
<g>
	<defs>
		<rect id="SVGID_00000036951262079436746030000003794779052999475382_" x="35.6" y="111.6" width="40.2" height="40.3"/>
	</defs>
	<clipPath id="SVGID_00000077308597778373548580000001563775273848793776_">
		<use xlink:href="#SVGID_00000036951262079436746030000003794779052999475382_"  style="overflow:visible;"/>
	</clipPath>
	<g style="clip-path:url(#SVGID_00000077308597778373548580000001563775273848793776_);">
		
			<use xlink:href="#SH6"  width="22.3" height="24.5" x="-11.2" y="-12.3" transform="matrix(0.7447 0 0 0.7468 45.5884 121.6429)" style="overflow:visible;"/>
	</g>
</g>
<g transform="rotate(180)">
	<g>
		<defs>
			<rect id="SVGID_00000065070857612876918540000005722456144704853142_" x="-161.2" y="-240.5" width="23.8" height="23.9"/>
		</defs>
		<clipPath id="SVGID_00000125563342102956106320000014355852702317520298_">
			<use xlink:href="#SVGID_00000065070857612876918540000005722456144704853142_"  style="overflow:visible;"/>
		</clipPath>
		<g style="clip-path:url(#SVGID_00000125563342102956106320000014355852702317520298_);">
			
				<use xlink:href="#VH6"  width="18.6" height="32" x="-9.3" y="-16" transform="matrix(0.7447 0 0 0.7468 -149.2369 -228.5222)" style="overflow:visible;"/>
		</g>
	</g>
	<g>
		<defs>
			<rect id="SVGID_00000104664351333985462130000005939698016707688377_" x="-159.2" y="-212.8" width="19.9" height="20"/>
		</defs>
		<clipPath id="SVGID_00000066494294642219531540000004131438152312235961_">
			<use xlink:href="#SVGID_00000104664351333985462130000005939698016707688377_"  style="overflow:visible;"/>
		</clipPath>
		<g style="clip-path:url(#SVGID_00000066494294642219531540000004131438152312235961_);">
			
				<use xlink:href="#SH6"  width="22.3" height="24.5" x="-11.2" y="-12.3" transform="matrix(0.7447 0 0 0.7468 -149.2365 -202.8437)" style="overflow:visible;"/>
		</g>
	</g>
	<g>
		<defs>
			<rect id="SVGID_00000036212594546664768680000012165961857714293658_" x="-159.2" y="-212.8" width="19.9" height="20"/>
		</defs>
		<clipPath id="SVGID_00000161625941547751586220000005547791767567275146_">
			<use xlink:href="#SVGID_00000036212594546664768680000012165961857714293658_"  style="overflow:visible;"/>
		</clipPath>
		<g style="clip-path:url(#SVGID_00000161625941547751586220000005547791767567275146_);">
			
				<use xlink:href="#SH6"  width="22.3" height="24.5" x="-11.2" y="-12.3" transform="matrix(0.7447 0 0 0.7468 -149.2365 -202.8437)" style="overflow:visible;"/>
		</g>
	</g>
	<g>
		<defs>
			<rect id="SVGID_00000027567984145235094900000002161383195801219470_" x="-140.1" y="-227.9" width="40.2" height="40.3"/>
		</defs>
		<clipPath id="SVGID_00000105408520889368873620000008115584427067225508_">
			<use xlink:href="#SVGID_00000027567984145235094900000002161383195801219470_"  style="overflow:visible;"/>
		</clipPath>
		
			<g transform="matrix(1 0 0 1 0 -1.525879e-05)" style="clip-path:url(#SVGID_00000105408520889368873620000008115584427067225508_);">
			
				<use xlink:href="#SH6"  width="22.3" height="24.5" x="-11.2" y="-12.3" transform="matrix(0.7447 0 0 0.7468 -130.1597 -217.9045)" style="overflow:visible;"/>
		</g>
	</g>
	<g>
		<defs>
			<rect id="SVGID_00000179647424678079876530000017614927124916594094_" x="-75.8" y="-227.9" width="40.2" height="40.3"/>
		</defs>
		<clipPath id="SVGID_00000106138101591659818740000018294752751530405277_">
			<use xlink:href="#SVGID_00000179647424678079876530000017614927124916594094_"  style="overflow:visible;"/>
		</clipPath>
		
			<g transform="matrix(1 0 0 1 0 -1.525879e-05)" style="clip-path:url(#SVGID_00000106138101591659818740000018294752751530405277_);">
			
				<use xlink:href="#SH6"  width="22.3" height="24.5" x="-11.2" y="-12.3" transform="matrix(0.7447 0 0 0.7468 -65.8672 -217.9045)" style="overflow:visible;"/>
		</g>
	</g>
	<g>
		<defs>
			<rect id="SVGID_00000014606337650561759940000016349741082005932733_" x="-140.1" y="-152" width="40.2" height="40.3"/>
		</defs>
		<clipPath id="SVGID_00000110434498988580176760000010532840579909078960_">
			<use xlink:href="#SVGID_00000014606337650561759940000016349741082005932733_"  style="overflow:visible;"/>
		</clipPath>
		<g style="clip-path:url(#SVGID_00000110434498988580176760000010532840579909078960_);">
			
				<use xlink:href="#SH6"  width="22.3" height="24.5" x="-11.2" y="-12.3" transform="matrix(0.7447 0 0 0.7468 -130.1597 -141.9791)" style="overflow:visible;"/>
		</g>
	</g>
</g>
</svg>
