<?xml version="1.0" encoding="utf-8"?>
<!-- Generator: Adobe Illustrator 27.9.0, SVG Export Plug-In . SVG Version: 6.00 Build 0)  -->
<svg version="1.1" id="Layer_1" xmlns="http://www.w3.org/2000/svg" xmlns:xlink="http://www.w3.org/1999/xlink" x="0px" y="0px"
	 viewBox="0 0 175.7 263.6" style="enable-background:new 0 0 175.7 263.6;" xml:space="preserve">
<style type="text/css">
	.st0{fill:none;stroke:#000000;stroke-width:0.6129;stroke-linecap:round;stroke-linejoin:round;stroke-miterlimit:10;}
	.st1{fill:none;stroke:#000000;stroke-width:0.3065;stroke-linecap:round;stroke-linejoin:round;stroke-miterlimit:10;}
	.st2{fill-opacity:0;}
	.st3{stroke:#FFFFFF;stroke-width:2.2307;stroke-linecap:round;stroke-linejoin:round;stroke-miterlimit:10;}
	.st4{fill:#FF0000;fill-opacity:0;}
	.st5{fill:#FF0000;}
	.st6{fill:none;stroke:#FFFFFF;stroke-width:2.56;stroke-linecap:square;stroke-miterlimit:10;}
	.st7{fill:#272727;stroke:#000000;}
	.st8{fill:#FFFFFF;}
	.st9{fill:none;stroke:#FFFFFF;}
</style>
<symbol  id="HQ1" viewBox="-50.7 -41.2 101.5 82.3">
	<path d="M-28.3-41.2c-0.7,0-1.3,0.9-1.3,2.1c0,1.1,0.6,2.1,1.3,2.1S-27-38-27-39.1C-27-40.2-27.6-41.2-28.3-41.2z M-12.7-40.9
		c-0.7,0-1.3,0.9-1.3,2.1c0,1.1,0.6,2.1,1.3,2.1s1.3-0.9,1.3-2.1C-11.4-40-12-40.9-12.7-40.9z M-33.2-14.9l-1,0.2l0.1,0.5l1.2,4.7
		l3.7-1.9l1.5,3.5L-24-10l2.3,3.5l3.4-2.8l2.7,3.2l3-3.1l3.1,2.8L-7-9.5l3,2.7l2.6-4l3.9,2.4l2.1-3.6l3.9,2L9-11.7l-0.7-1l-0.5,1.2
		L4-13.4L2-9.9l-3.8-2.4l-2.5,3.8L-7.2-11l-2.4,3.2l-3-2.7l-2.9,3l-2.6-3.1L-21.5-8l-2.2-3.4l-3.5,2l-1.5-3.4l-3.6,1.9l-0.9-3.5
		L-33.2-14.9z M-39-11.8L-50.7-5C-30.4,8.6-5.4,9.7,18.1-1.3c-2.8-2.7-5.5-5.6-7.9-8.8C9.7-10,9.1-9.8,8.6-9.6l5.8,4.5l0.7,2
		c1.3,3.9-2.9,4.2-3.9,1.3L8.5-9.6c-0.1,0-0.3,0.1-0.4,0.1l2.6,8.3C12,2.7,7.8,2.9,6.8,0L4.2-8.3l3.2-1C6.2-9,5-8.6,3.8-8.3l1.9,8.7
		c0.9,4-3.3,3.9-4,0.9l-1.9-8.5l3.4-1C2.1-7.9,0.9-7.6-0.3-7.3l1.4,8.8c0.6,4-3.6,3.7-4,0.6l-1.4-8.6L-2.1-7
		c-0.8,0.2-1.5,0.3-2.3,0.4l0.7,8.7c0.3,4.1-3.8,3.4-4.1,0.3L-8.5-6c-0.2,0-0.3,0-0.5,0.1l0.7,8.5c0.3,4.1-3.8,3.4-4.1,0.3L-13-5.6
		c-0.1,0-0.1,0-0.2,0V3c0,4.1-4.1,3.1-4.1,0v-8.6c-0.1,0-0.3,0-0.4,0l-0.8,8.4C-19,6.9-23,5.5-22.7,2.4l0.8-8.4
		c-0.2,0-0.4-0.1-0.6-0.1L-23.2,2c-0.4,4.1-4.4,2.7-4.1-0.4l0.8-8.5c-0.1,0-0.2,0-0.3-0.1l-2.1,8.1c-1,4-4.7,1.9-4-1l1.6-6.1
		l-2.3,5.7c-1.5,3.8-4.9,1.3-3.8-1.5l2.8-6.8l-3.8,7.1c-1.9,3.6-5,0.8-3.6-1.9l3.9-7.2l-5.5,6.5c-2.6,3.1-5.1-0.3-3.1-2.6l0.9-1
		l7.9-3.2l0.1-0.1l0.1,0l0,0l0,0l0,0C-38.1-11.3-38.6-11.5-39-11.8z M19.5,6.5C16.1,8,12.7,9.2,9.4,10.2l0.5,20.1
		c2.1-1.2,4.3-1.8,6.6-1.7c0.1-0.3,0.1-0.7,0.1-1C17.5,19.5,17.9,12.1,19.5,6.5z M-1.7,7.6C-4.1,8-6.6,8.3-9,8.5
		c4.8,0.3,6.5,2.3,0.7,2.8c4,0.5,4.5,2-0.7,2.5c4.1,0.4,5.5,2.4-0.2,3.3c3.6,0.5,4.4,2.3-0.1,2.8v0.7c3.3,0.7,4.1,2,0,2.3l0,0.8
		c3.1,0.5,3.8,1.7,0,2.2l0,0.5c2.6,0.5,3.1,1.5,0,2l0,0.5c2.6,0.5,3.2,1.5,0,2l0,0.5c2.7,0.5,3.3,1.5,0,2.1l0,0.1
		c2.2,0.5,2.5,1.4,0,1.9l0,0.2c2.2,0.5,2.6,1.4,0,1.9l0,0.6c1.2,0.4,2.3,0.7,3.1,0.9C-6,29.1-5,17.3-1.7,7.6z M-20.6,8.4
		c3.1,8.9,4.6,18.5,5.3,27.5c0.8,0.3,1.7,0.7,2.6,1.1c0.5,0.2,1,0.4,1.5,0.7l-0.1-1.7c-4.2-0.3-4.9-1.7-0.1-2.3l0-0.3
		c-4.3-0.2-5-1.7-0.1-2.3l0-0.1c-4.5-0.2-5.3-1.8-0.1-2.4l0-0.3c-4.6-0.2-5.4-1.8-0.1-2.4l0-0.1c-4.8-0.2-5.7-2-0.1-2.7l0-0.2
		c-5.2-0.1-6.2-2.1-0.1-2.7l0-0.2c-5.1-0.1-6.1-2.1-0.1-2.7l0-0.2c-5.7,0-6.9-2.3-0.1-3l0,0c-6.5,0.2-8-2.5-0.1-3l0-0.1
		c-5.8,0.2-7.9-1.3-4-2.1C-17.8,8.6-19.2,8.5-20.6,8.4z M46.2,17.6c0.6,0.3,1.3,0.7,1.9,1c0.9,0.5,1.7,0.9,2.6,1.3v0L46.2,17.6z
		 M48.1,18.6c-0.1,0-0.2-0.1-0.2-0.1l-0.3,0.2c1.4,0.7,0.2,2.7-2.9,2.9c-0.1,0-0.1,0-0.2,0c-0.3,2-2.1,4.4-3.5,4.9
		c-1.9,0.7-6.4,1.4-8.9-0.7c-0.5,4.7-1,9.9-1.8,15.3l20.4-18.8v-2.4C49.9,19.5,49,19,48.1,18.6z"/>
</symbol>
<symbol  id="HQ2" viewBox="-43.6 -48.8 87.3 97.6">
	<path d="M1.4-48.8l37.2,61.3l5.1-3.1L8.5-48.8H1.4z M-16.2-23.9c-2.7,6.2-5.5,13.4-8.3,21.4L-12-9.7c-1.7-3-2.9-6-3.1-6.9
		C-15.3-17.5-15.8-20.6-16.2-23.9z M-41.2,7.2l-2.5,1.4c10.2,7.6,21.7,12.1,33.7,13.8C-8,29-6.7,36.8-6.1,43.6
		c0.8,0.2,1.6,0.4,2.5,0.7c-0.7-7.9-2.1-16.5-4.5-24.3C-19.8,18.7-31.1,14.5-41.2,7.2z M36.7,11.8c-7.2,3.6-14.6,6-22,7.4
		c-2.8,9.2-3.7,20.1-4.2,29.6c0.3,0,0.7,0,1,0c0.5,0,1-0.1,1.6-0.4c0.4-9.3,1.1-18.3,3.5-26.9c5.8-1.2,11.5-3,17.2-5.5
		c-1.6,5.6-1.9,13-2.9,21.2c0,0.3-0.1,0.7-0.2,1c0.4,0,0.8,0.1,1.3,0.1c0.4,0.1,0.7,0.1,1.2,0.2c1.4-10.8,1.8-20.4,4.4-25.5
		L36.7,11.8z"/>
</symbol>
<symbol  id="HQ3" viewBox="-66.7 -67.8 133.4 135.7">
	<path class="st0" d="M-10.6-28.5L-66.4,3.8 M-44.9,31.3l-21.5,19.9 M26.8,50.5C36.9,30.7,34,4,39-5.9 M-26.7,18.7
		c6.5,1.8,10.5,9.4,9.1,17.6c-1.5,8.7-8.6,14.7-15.7,13.6c-0.4-0.1-0.7-0.1-1.1-0.2 M26.6,56.2l2.5-4.6c5.6-10.9,7.3-23.6,8.5-34.4
		c0.6-5.4,1-10.4,1.7-14.4c0.6-2.3,0.9-4.9,1.8-7 M48,0.4c-1,2.9-1.5,6.3-2,10.1c-0.7,5.8-1.3,12.6-2.3,19.6
		c-2,13.5-5.8,27.4-16.3,36.4 M-27.8-0.3c1,6,1.5,13,1.1,19 M-50.3,67.5c4.7-14.6,0.4-50.6,22.6-67.9l1.1-0.9 M61.9,8.2
		c1.5,0.8,3,1.6,4.5,2.3 M10.3-55C17.3-23.7,33-8.8,50.2,1.7 M-37.5-12.9C-15.9,2,11,3.2,35.9-8.8 M-39.9-11.5
		C-29.8-4.3-18.5,0-6.8,1.3 M15.9,0.5C23.3-0.9,30.8-3.4,38-7 M33.9-10.7c-23.6,11-48.6,9.9-68.9-3.7 M46.1,31.8L66.4,13 M25,0.9
		L25.5,21 M17.9,2.7c5.8-1.2,11.6-3,17.2-5.5 M-42.3-10.2C-32.1-2.6-20.6,2-8.7,3.7 M35.2-2.9c-1.6,5.7-2,13.1-2.9,21.2
		c0,0.3-0.1,0.7-0.1,1 M6.6-0.8L6.1,28.9 M3.1-0.7l1.4,29 M16.8-2.2c-3.5,9.8-4.6,21.9-5,32.3 M-7.7-1.3c3,8.4,4.7,18.2,5.5,26.9
		 M14.4,29.5c0.4-9.2,1.1-18.2,3.5-26.8 M13.9-1.7C10.7,8,9.7,19.8,9.2,29.7 M0.4,26.5C-0.3,17.5-1.8,7.9-4.9-1 M-8.7,3.7
		c2,6.5,3.3,14.3,4,21.1 M2.7-67.5L39.8-6.2l5.1-3.1L9.8-67.5 M30.9-32.7c5-2.6,8.9-5.9,14.6-3.7c-3-9.6-6.8-19,1.2-31.2 M35.4-35.2
		L15.1-67.5 M34.6-36.5l-4.5,2.6 M33.6-38.1l-4.4,2.6 M32.6-39.6l-4.4,2.6 M31.6-41.2l-4.4,2.6 M30.7-42.7l-3.1,1.8 M29.7-44.3
		L27.4-43 M39.8-52.7c-4.6,1.5-8.5-3.8-11.7-1.5c-3.6,2.6,0.6,7.1,2.6,6.1c2-1,1.5-4.1-0.5-4.1s-1,1.5-1,1.5 M39.8-52.7
		c-3.6,3.2-0.9,9.3-4.5,11c-4,1.9-5.9-4-4.1-5.2c1.9-1.3,4.3,0.7,3.3,2.5s-1.8,0.1-1.8,0.1 M28.3-46.4c2.7-0.8,5.3-2.5,7.9-3.7
		 M31.2-47.6c2.3-1.8,2.7-2.1,3.1-3.6 M31.2-47.6c1.8-0.4,4.1-0.3,5.1,0.5 M32-40.6c2.8,1.1,5.8,0.7,8.4-0.9c1,2.1,3.3,3.5,5.1,5.1
		 M33.1-38.9c2.1,0.4,5.2,0.3,6.8,0c0.9,0.9,2.5,1.5,4.1,2 M17.5-63.8c1.3,0.3,2.3,0.7,5.5-0.2c0.8,0.4,1.8,0.7,3.6,0.5
		c-0.3,0.8-0.7,1.4-0.5,3.1c-1.2,2-1.9,4-2.7,6 M25.3-51.3c0.5-2.4,0.2-4.9,3.3-7.1c0.2-3,0.7-6.1,1.4-9.2 M-23.4-21.1
		c17.3,9.6,33.3,6.4,49.3,1.6 M22.5-24.4c-13.8,4.1-26.3,6.3-40.1-0.1 M50.2,1.8c0,0,1.7-1.7,1.9-1.9c0.5-0.5,2.8,0.2,4-1.4
		c1.7-2.3,3.6-0.6,1.8,1.4c-1.5,1.6-3.8,2.8-3.8,2.8c1.1,3.6,0.6,6.9-1,10 M59.2-1.6c4.1-5.1,6.2-1.4,2.6,2
		C57.7,4.3,55.3,3.3,59.2-1.6L59.2-1.6 M59.8,1.9c5.3-3.8,6.3,0.4,1.9,2.7C56.7,7.2,54.7,5.6,59.8,1.9L59.8,1.9 M59.8,5.5
		c5.5-3,5.9,1.2,1.5,2.9C56.2,10.3,54.5,8.5,59.8,5.5L59.8,5.5 M59.8,9.3c5.6-1.3,5,2.6,0.6,3C55.5,12.7,54.4,10.6,59.8,9.3
		L59.8,9.3 M60.3,12.3c-0.3,2-2.2,4.4-3.6,4.9c-1.9,0.7-6.4,1.4-8.9-0.7 M-6.5,32.3c0.7,0.2,1.4,0.4,2.2,0.7 M-17.4,32.4
		c0.5-0.2,1-0.3,1.6-0.4 M19.5,27.5c-3.2,1.6-5,2.3-6.8,2.5c-1.9,0.2-4.5-0.1-9.8-2.4c-5.7-2.5-10.7-3.7-15.3-3.7
		c-0.7,0-1.3,0-1.9,0.1c-1.8,0.2-3.4,0.5-5,1 M-15.7,30.4c-0.6,0.1-1.2,0.3-1.8,0.5 M-3.5,31.6c-1.2-0.4-2.3-0.7-3.4-1 M-0.3,32.9
		c-0.2-0.1-0.5-0.2-0.7-0.3 M9.8,36c-2.2-0.3-4.7-1-7.9-2.3 M17.4,35.2c-1.3,0.5-2.7,0.8-4.1,0.9c-0.3,0-0.5,0-0.8,0.1 M-12.8,28.5
		c-0.3,0-0.7,0-1,0.1c-1.4,0.1-2.7,0.4-3.9,0.8 M0,31.3c-3.7-1.5-6.8-2.4-9.7-2.7 M9.2,34.4c-1.7-0.3-3.6-0.8-5.9-1.7 M17.6,33.5
		c-1.5,0.6-2.9,1-4.4,1.1 M-13.3,27c-0.2,0-0.4,0-0.7,0c-1.5,0.1-2.8,0.4-4.1,0.8 M17.9,31.7c-1.8,0.8-3.3,1.2-4.9,1.4
		c-2.5,0.2-5.8-0.3-11.3-2.6c-4.2-1.8-7.8-2.9-11-3.3 M27.8,48.3c-0.1-0.1-0.3-0.1-0.4-0.2c-5-1.4-8.5-7.5-7.2-14.7
		C21.5,25.9,27.5,21.1,33,22c0.3,0,0.6,0.1,0.8,0.2c0.2,0.1,0.4,0.1,0.6,0.1 M31.2,38.7c-2,0-3.6-1.8-3.6-4.1c0-2.3,1.6-4.1,3.6-4.1
		c0.7,0,1.3,0.2,1.8,0.6 M31.9,36.1c-0.2,0.1-0.5,0.2-0.8,0.2c-0.8,0-1.5-0.8-1.5-1.8c0-1,0.7-1.8,1.5-1.8c0.5,0,1,0.3,1.3,0.8
		 M29.7,30.9l-2.1-4.9l-3.3-0.5l0.3,4.1L20.9,31l1.5,4.1l-2.4,3.1l3.4,2l-1,4.1h4.1l0.5,3.6 M27.6,25.9l2-3.6l3.6,2l-1.3,6.2
		 M33.2,24.4l1-1 M26.6,44.3l3-6.1 M23.5,40.2l4.7-3.3 M22.5,35.1l5.1-0.3 M24.5,29.5l3.7,2.7 M26,28l2.8,3.5 M30.6,25.4l0.3,5.1
		 M23.5,32.6l4.2,1.1 M23,37.7l4.8-1.7 M25.5,41.8l3.3-4 M27.1,47.9l1.1-0.5 M29.1,43.8l1.2-5.2 M-44.2,6.9
		c-0.6,0.6-1.5,0.6-2.1,0.1c-0.5-0.5-0.5-1.5,0.1-2.1c0,0,0,0,0,0c0.6-0.6,1.5-0.6,2.1-0.1S-43.6,6.3-44.2,6.9
		C-44.2,6.9-44.2,6.9-44.2,6.9L-44.2,6.9 M-43.9,8.6c0.4,0.3,0.7,0.8,0.7,2 M-42.5,7.1c0.3,0.4,0.9,0.7,2.1,0.5 M-47.9,4.7
		c-0.3-0.4-0.8-0.7-2-0.7 M-46.4,3.3c-0.4-0.3-0.7-0.9-0.5-2.1 M-45.9,8.1c-0.6,0.6-1.2,1.4-1.5,2.8 M-47.3,6.7
		c-0.6,0.6-1.4,1.2-2.8,1.5 M-43.1,5.2c0.6-0.6,1.4-1.2,2.8-1.5 M-44.4,3.8c0.6-0.6,1.2-1.4,1.5-2.8 M-44.6,9.4
		c0,2.9,0.7,0.7,3.3,4.7c0.7-0.7,1.8-2.5,1.1-3.3c0.7,0.7,2.5-0.4,3.3-1.1c-4-2.5-1.8-3.2-4.7-3.3 M-48.6,5.4
		c-2.9,0-0.7-0.7-4.7-3.3c0.7-0.7,2.5-1.8,3.3-1.1c-0.7-0.7,0.4-2.5,1.1-3.3c2.5,4,3.2,1.8,3.3,4.7 M-45.3,8.7
		c-1.6,4.2-1.4,1.4-7.3,8.6c-0.7-0.7-1.3-2.7,0.2-4.2c-1.4,1.4-3.5,0.8-4.2,0.2c7.2-5.8,4.4-5.7,8.6-7.3 M-42.4,5.8
		c4.2-1.6,1.4-1.4,8.6-7.3c-0.7-0.7-2.7-1.3-4.2,0.2c1.4-1.4,0.8-3.5,0.2-4.2C-43.6,1.7-43.4-1-45,3.2 M-66.4,25.2
		c0.6-0.4,1.4-0.4,1.9,0.1c0.5,0.5,0.5,1.5-0.1,2.1c0,0,0,0,0,0c-0.5,0.5-1.2,0.6-1.8,0.3 M-64.4,29c0.4,0.3,0.7,0.8,0.7,2
		 M-63,27.6c0.3,0.4,0.9,0.7,2.1,0.5 M-66.4,28.5C-66.4,28.5-66.4,28.5-66.4,28.5 M-63.5,25.6c0.6-0.6,1.4-1.2,2.8-1.5 M-64.8,24.3
		c0.6-0.6,1.2-1.4,1.5-2.8 M-65.1,29.8c0,2.9,0.7,0.7,3.3,4.7c0.7-0.7,1.8-2.5,1.1-3.3c0.7,0.7,2.5-0.4,3.3-1.1
		c-4-2.5-1.8-3.2-4.7-3.3 M-66.4,21.4c0.2,0.3,0.2,0.7,0.3,1.6 M-65.7,29.2c-0.3,0.7-0.5,1.2-0.7,1.6 M-62.8,26.3
		c4.2-1.6,1.4-1.4,8.6-7.3c-0.7-0.7-2.7-1.3-4.2,0.2c1.4-1.4,0.8-3.5,0.2-4.2c-5.8,7.2-5.7,4.4-7.3,8.6 M-64.1,21.1
		c0.1-0.4,0.2-0.7,0.3-1.2c0.7-2.2,2.3-4.8,4.7-7.2c2.4-2.4,5-4,7.2-4.7c0.4-0.1,0.8-0.2,1.1-0.3 M-47,11.7
		c-0.1,0.3-0.2,0.7-0.3,1.1C-48,15-49.6,17.6-52,20s-5,4-7.2,4.7c-0.4,0.1-0.7,0.2-1,0.3 M-60,27.9c0.6-0.1,1.2-0.2,1.8-0.4
		c2.8-0.9,5.7-2.7,8.3-5.4s4.5-5.6,5.4-8.3c0.3-0.8,0.4-1.7,0.5-2.5 M-50.5,4.7C-51.3,4.8-52.2,5-53,5.2c-2.8,0.9-5.7,2.7-8.3,5.4
		c-2.3,2.3-4.1,4.9-5,7.4 M-39.5,7.7c0.5-0.1,1-0.2,1.6-0.4c1.5-0.5,3.1-1.3,4.7-2.3 M-41.3-9.4c-2.5,2.6-4.3,5.4-5.2,8.1
		c-0.2,0.5-0.3,1.1-0.4,1.6 M-43.9,0.9c0.1-0.4,0.2-0.8,0.3-1.2c0.7-2.2,2.3-4.8,4.7-7.2c0.1-0.1,0.1-0.1,0.2-0.2 M-29.7-2.6
		C-30.3-1.8-31-1-31.8-0.2c-2.4,2.4-5,4-7.2,4.7c-0.4,0.1-0.7,0.2-1,0.3 M-66.4,37.8c0.7-1.2,1.3-2.5,1.7-3.7
		c0.2-0.7,0.4-1.4,0.5-2.1 M-61,41.4l2.8,2.1 M-66.2,37.4l3,2.3 M-62.5,42.5l2.9,2.3 M-66.4,39.5l2.5,1.9 M-66.4,41.7l5.6,4.3
		 M-66.4,43.9l4.3,3.3 M-66.4,46.1l3,2.3 M-66.4,48.3l1.5,1.2 M-64.7,34.1l9.1,7 M-65.4,35.8l8.5,6.5 M-58.8,27.7l9.7,7.4
		 M-57.9,30.6l7.5,5.7 M-59.6,31.5l7.9,6.1 M-60.7,32.9l7.6,5.9 M-61.6,34.4l7.3,5.6 M-64.3,32.3l2,1.6 M-48.2,20.4l5,3.9
		 M-52.5,17.2l1.8,1.4 M-58.7,12.4l5.8,4.4 M-66.4,6.4l5.2,4 M-49.4,21.7l5.7,4.4 M-60,13.6l8.1,6.3 M-66.4,8.6l4,3 M-50.7,23l6.5,5
		 M-55,19.6l1.8,1.4 M-57.6,17.6l0.9,0.7 M-61.1,14.9l1.8,1.4 M-66.4,10.8l2.9,2.2 M-52,24.1l7.4,5.7 M-56.3,20.8l1.8,1.4
		 M-62.1,16.3l1.7,1.3 M-66.4,13l1.9,1.4 M-48.1,29.3l2.8,2.2 M-53.5,25.2c1.1,0.8,2.1,1.6,3.2,2.5 M-57.6,22c0.5,0.4,1,0.8,1.6,1.2
		 M-63,17.9l1.3,1 M-66.4,15.2l0.9,0.7 M-49.5,30.5l3,2.3 M-55,26.2l3.8,2.9 M-58.8,23.3l1.1,0.9 M-63.7,19.5
		c0.2,0.2,0.5,0.4,0.7,0.6 M-56.8,27l9,6.9 M-60,24.6l0.3,0.2 M-44.1,12.6l4.1,3.2 M-60.2,0.2l6.7,5.2 M-44.6,14.4l3.9,3
		 M-47.6,12.1l0.4,0.3 M-52.6,8.3l0.8,0.6 M-61.8,1.2l6.5,5 M-45.3,16l3.9,3 M-48.9,13.3l1.1,0.8 M-54.3,9.1l1.4,1.1 M-63.5,2.1
		l6.5,5 M-46.2,17.6l4.2,3.2 M-50.2,14.5l1.5,1.1 M-56,10.1l1.7,1.3 M-65.1,3.1l6.6,5.1 M-47.1,19.1l4.5,3.5 M-51.3,15.9l1.7,1.3
		 M-53.8,14l0.6,0.5 M-57.4,11.2l1.8,1.4 M-66.4,4.2l6.5,5 M-38.2,10.6l0.6,0.5 M-55.3-2.6l4.5,3.5 M-40,11.4l1.6,1.2 M-56.9-1.7
		l4.3,3.3 M-40.6,13.1l1.4,1 M-58.6-0.7l7.2,5.6 M-37.8,2.1l1.5,1.2 M-43-1.9l1.2,0.9 M-48.8-6.4l3.3,2.6 M-35.3,6.2l0.7,0.5
		 M-38.9,3.4l0.9,0.7 M-43.7-0.3l0.5,0.4 M-50.4-5.4l4.2,3.3 M-37,7l1.4,1.1 M-52-4.5l5.3,4.1 M-39.1,7.6l2.5,1.9 M-53.7-3.6
		l3.7,2.8 M-37.1-4l5.2,4 M-40.1-6.3l1.8,1.4 M-43.9-9.2l1.4,1.1 M-35.2-0.3l1.9,1.5 M-41.2-4.9l1.8,1.4 M-45.5-8.3l1.9,1.5
		 M-36.5,0.9c0.6,0.5,1.2,0.9,1.8,1.4 M-42.1-3.5c0.5,0.4,1.1,0.8,1.6,1.2 M-47.1-7.3l2.6,2 M-38.8-7.6l8.1,6.2 M-42.2-10.2l0.9,0.7
		 M-1.7-15v8.6c0,3.1,4.1,4.1,4.1,0V-15 M-1.1-14.9c2,5.6,1.5,9.6,1.5,9.6 M2.1-15c-1.7,3.7-1.7,9.6-1.7,9.6 M2.6-15l0.7,8.5
		c0.3,3.1,4.4,3.7,4.1-0.3l-0.7-8.5 M3.2-15c2.4,5.4,2.3,9.4,2.3,9.4 M6.3-15.2C5-11.4,5.5-5.6,5.5-5.6 M7.2-15.3l0.6,8.4
		c0.2,3.1,4.4,3.8,4.1-0.3l-0.7-8.7 M7.8-15.4C10.2-10,10-6,10-6 M11-15.9C9.5-12.1,10-6,10-6 M11.4-15.8l1.4,8.6
		c0.5,3,4.7,3.4,4-0.6l-1.4-8.8 M11.9-15.9c2.9,5.2,3,9.3,3,9.3 M15.2-16.7c-1.3,3.9-0.3,10.1-0.3,10.1 M15.5-16.5l1.9,8.5
		c0.7,3,4.9,3.1,4-0.9l-1.9-8.8 M16-16.7c3.2,5.1,3.6,9.2,3.6,9.2 M19.3-17.7c-1.1,3.9,0.3,10.2,0.3,10.2 M19.9-17.6l2.6,8.3
		c0.9,2.9,5.1,2.7,3.9-1.2l-2.6-8.3 M20.4-17.8C24-13,24.8-9,24.8-9 M23.6-18.8c-0.6,4,1.2,9.8,1.2,9.8 M24.8-19.2
		c3.5,4.5,4.3,8.4,4.3,8.4 M24.2-19l2.7,7.9c1,2.9,5.2,2.6,3.9-1.3l-0.7-2 M27.7-17.1c0.4,3.2,1.4,6.3,1.4,6.3 M-6.2-15.4L-7-6.9
		c-0.3,3.1,3.7,4.5,4.1,0.4l0.8-8.4 M-5.6-15.3c1.4,5.6,0.5,9.5,0.5,9.5 M-2.5-15c-2,3.5-2.6,9.3-2.6,9.3 M-10.8-16.2l-0.8,8.5
		c-0.3,3.1,3.7,4.5,4.1,0.4l0.8-8.1 M-10.2-16.1c1.4,5.7,0.5,9.6,0.5,9.6 M-7.2-15.5c-1.9,3.5-2.4,9-2.4,9 M-15-17.4l-2.1,8.2
		c-0.8,3,2.9,5,4,1l2.1-8.1 M-14.4-17.2c0.5,5.8-1,9.5-1,9.5 M-11.5-16.4c-2.5,3.1-4,8.7-4,8.7 M-18.5-18.8l-3.1,7.6
		c-1.2,2.8,2.2,5.3,3.8,1.5l3.1-7.7 M-17.9-18.5c-0.3,5.7-2.2,9-2.2,9 M-15.1-17.5c-2.9,2.8-5,8-5,8 M-22.2-20.5l-4.1,7.7
		c-1.4,2.7,1.7,5.5,3.6,1.9l4.2-7.8 M-21.7-20.2c-0.8,5.9-3.2,9.3-3.2,9.3 M-18.6-18.8c-3.4,2.3-6.3,7.9-6.3,7.9 M-30.1-17.2l-0.9,1
		c-2,2.3,0.5,5.8,3.1,2.6l5.8-6.9 M-26.4-19.3c-1.8,3.5-3.7,5.3-3.7,5.3 M-22.1-20.5c-3.8,1.5-8,6.4-8,6.4 M-37.2-13.2
		c7.3-22.2,14.5-39.2,21.4-48.4 M-33.4-15.3c6-17.8,11.8-32.2,17.5-41.5 M-27.1-18.9c3.9-11.4,7.8-21.2,11.5-29 M-23.2-21.2
		c2.8-8,5.6-15.2,8.3-21.4 M-36.3-15.7l2.6,0.6 M-35.8-17.3l4.1,1 M-35.3-18.8l5.7,1.3 M-34.8-20.3l7.2,1.7 M-34.2-21.8l8.7,2
		 M-33.7-23.4l10.2,2.3 M-33.1-24.9l10.4,2.4 M-32.6-26.4l10.4,2.4 M-32-27.9l10.4,2.4 M-30.1-29.2l9,2.1 M-28.1-30.2l7.5,1.7
		 M-25-31.3l5,1.2 M-15.8-67.5v16.3c0,1.5,1.5,13.8,2,15.8c0.5,2,5.6,14.3,11.2,14.3s10.7-5.6,10.7-5.6 M17.2-31.2
		c-1.9,3.5-5,6.7-7.6,10 M11.1-26.8c-1.6,2-3.4,4-4.9,6 M14.3-28.9c-1.9,2.7-4.3,5.3-6.4,7.9 M5.6-23.8c-0.9,1.1-1.9,2.2-2.7,3.3
		 M4-23.3c4.5-1.1,11.3-6.2,14.1-8.7 M18.7-31c-1.8,3.3-4.7,6.4-7.2,9.5 M19.4-29.7c-1.7,2.7-4,5.2-6.1,7.7 M20.1-28.4
		c-1.5,2.1-3.2,4.1-4.9,6 M20.7-27.3c-1.1,1.5-2.4,3-3.6,4.4 M21.4-26.2c-0.7,0.9-1.5,1.8-2.3,2.7 M8.2-25c-1.2,1.5-2.5,2.9-3.6,4.4
		 M0.8-21.7c-0.3,0.4-0.7,0.8-1,1.2 M3.3-22.8C2.6-22,2-21.3,1.4-20.5 M-4.1-21.3c-0.2,0.2-0.3,0.4-0.5,0.6 M-2.8-21.1
		c-0.1,0.2-0.2,0.3-0.4,0.5 M-1.1-21.2c-0.2,0.2-0.4,0.4-0.5,0.7 M-7-23.4c-0.5,0.7-1.1,1.3-1.6,1.9 M-6.1-22.6
		c-0.4,0.5-0.8,1-1.2,1.4 M-5.1-21.9c-0.3,0.3-0.5,0.6-0.8,1 M-9.3-26.2c-1,1.3-2.1,2.5-3.1,3.7 M-8.5-25.2c-0.9,1-1.8,2.1-2.6,3.1
		 M-7.8-24.2c-0.7,0.8-1.4,1.7-2.1,2.5 M-13.2-26.9c-0.8,1.1-1.7,2.1-2.6,3.2 M-10.6-28.4c-1.3,1.7-2.7,3.4-4.1,5.1 M-9.9-27.2
		c-1.1,1.5-2.4,2.9-3.6,4.4 M30.8-32.7c0,0,0.1,0,0.1,0 M17.3-33.8c2.1,1.2,5.2,3,8.4,4.3 M16.1-36.4c2,1.1,4.8,2.8,7.9,4.1
		 M15.2-38.8c1.8,1,4.4,2.6,7.3,3.9 M14.3-41.2c1.7,0.9,4,2.3,6.5,3.5 M13.4-43.5c1.5,0.8,3.5,2,5.7,3.1 M12.7-45.8
		c1.3,0.7,2.9,1.7,4.7,2.6 M12-48.1c1,0.6,2.3,1.3,3.7,2.1 M11.3-50.3c0.8,0.5,1.7,1,2.7,1.5 M18.5-31.3c2.3,1.3,5.5,3.2,8.8,4.4
		 M19.9-28.6c2.4,1.4,5.6,3.2,9,4.3 M21.6-25.7c2.5,1.4,5.7,3.1,8.9,4.1 M23.5-22.8c2.5,1.4,5.5,2.9,8.6,3.7 M25.7-19.7
		c2.4,1.3,5.2,2.5,7.9,3.2 M28.3-16.5c2.2,1,4.5,2,6.8,2.4 M31.3-13.2c1.8,0.7,3.6,1.3,5.4,1.6 M34.3-10.1c1.3,0.5,2.6,0.9,3.9,1.2
		 M58.9-23.6c1-0.4,2.9-2.6,4.9-2.6c-2,0-3.9-2.2-4.9-2.6c-1.1-0.4-2.7,0-4.3,1.1c1-1.5,1.5-3.2,1.1-4.3c-0.4-1-2.6-2.9-2.6-4.9
		c0,2-2.2,3.9-2.6,4.9c-0.4,1.1,0,2.7,1.1,4.3c-1.5-1-3.2-1.5-4.3-1.1c-1,0.4-2.9,2.6-4.9,2.6c2,0,3.9,2.2,4.9,2.6
		c1.1,0.4,2.7,0,4.3-1.1c-1,1.5-1.5,3.2-1.1,4.3c0.4,1,2.6,2.9,2.6,4.9c0-2,2.2-3.9,2.6-4.9c0.4-1.1,0-2.7-1.1-4.3
		C56.2-23.6,57.8-23.1,58.9-23.6L58.9-23.6 M46.2-28.2c-2.1-2.7,2-7,4.9-4.8 M60.3-27.9c2.8-2.7-2-7.8-5-4.8 M46.3-24.3
		c-2.3,2.7,1.9,7.2,4.8,4.8 M60.2-24.5c2.9,2.7-2,7.8-4.9,4.8 M51.6-27.7L48-31.3 M54.7-27.7l3.6-3.6 M51.6-24.6L48-21.1 M54.7-24.6
		l3.6,3.6 M52.1-17.8c0.4,8.3,3.6,10.7,3.6,16.5 M53.7-17.4c0.4,7.3,3.1,10,3.5,14.9 M55.7-1.6c-1-3.8-6.4-8.8-11.7-6.1
		C48.6-8.1,48,0.5,55.7-1.6L55.7-1.6 M55.7-1.3c-1.8-2.8-4-3.9-6.2-4.9 M57.2-3.2c-1-6.5,0.3-10.9,5.6-11.7
		C59.2-11.7,63.5-4.6,57.2-3.2L57.2-3.2 M57.2-3.2c0.5-3.3,1.3-6.1,2.6-8.2 M-2.8-67.5c1.9,5.8,5.7,8.6,11,9.1 M-1-67.5
		c1.7,3.6,4.2,5.7,7.6,6.6 M1.4-67.5c1,1.5,2.1,2.7,3.5,3.6 M-15.8-57.1c7.1-4,7.6-7.2,8.5-10.4 M-15.8-59.5c4.7-3,5.9-5.5,6.6-8
		 M-15.8-62.6c2.4-1.8,3.6-3.4,4.3-4.9 M-4.6-33.8c0,0-0.5-2-1.5-2s-2-0.4-2-1.9c0-1,2.4-8.3,1.5-14.4c-2.8-2-5.7-3-9.2-1
		c0.2,0,0.4,0,0.5,0c3.1-1,5.9-0.9,8.7,1.1 M-3.1-52.2c3.7-4.4,7.7-2.3,11.7,0c-3.8-1.7-7.7-3.6-11.2,0C-2.6-52.1-2.9-52.3-3.1-52.2
		L-3.1-52.2 M-2-40c3.1-0.1,2.6,3.6,1,3.6c-0.7,0-1.4-0.8-1.9-0.9c-1.7-0.1-1.7,0.9,0.4,0.4 M-7.7-31.8v1l0.5-0.5L-7.7-31.8
		L-7.7-31.8 M2-32.3v1l-0.5-0.5L2-32.3 M-7.2-31.3c1.2,0.6,1.5-0.5,2-0.5c0.5,0,1.1,0.5,1.6,0.5s1.3-0.6,1.8-0.6
		c1.8,1.1,2,0.2,3.2,0.1 M-5.6-29.2c1.3,1.6,2.9,1.1,4.6,0C-2.4-28.4-4-28.7-5.6-29.2L-5.6-29.2 M-15.3-48.6
		c0.4-0.9,1.5-1.8,2.6-1.7c2,0,3.5,2.3,5.1,2.3 M-15.5-48c0.3,1,1.5,1.3,2.8,1.4c2.2,0.1,3.6-1,5.1-1.5 M-2-48.1
		c2.2-0.1,3.1-1.8,4.6-2c3.1-0.5,5.1,2,6.6,2 M0-48.6c-0.5,1.5,1.7,2.5,3.1,2.6c2,0,4.6-2,6.1-2 M-37.5-12.9
		C-15.9,2,11,3.2,35.9-8.8 M-48,29c0,0.8-0.7,1.5-1.5,1.5l0,0c-0.8,0-1.5-0.7-1.5-1.5l0,0c0-0.8,0.7-1.5,1.5-1.5l0,0
		C-48.7,27.5-48,28.2-48,29L-48,29L-48,29 M-48,29c0,0.8-0.7,1.5-1.5,1.5l0,0c-0.8,0-1.5-0.7-1.5-1.5l0,0c0-0.8,0.7-1.5,1.5-1.5l0,0
		C-48.7,27.5-48,28.2-48,29L-48,29L-48,29 M-60.9,41c0,0.8-0.7,1.5-1.5,1.5S-64,41.8-64,41c0-0.8,0.7-1.5,1.5-1.5
		S-60.9,40.1-60.9,41L-60.9,41 M45.6,34.9l20.8-19.3 M-11.2,35.1c-3.8,2.3-1.3-1.4-1-3.1c-1.7,0.3-5.3,2.7-3.1-1
		c-0.1-0.2-0.3-0.4-0.4-0.6c-1.5-2.8,1.9-0.7,3.4-0.4c-0.3-1.7-2.7-5.3,1-3.1c3.8-2.3,1.3,1.4,1,3.1c1.6-0.3,5.1-2.6,3.3,0.6
		C-7,30.8-7.1,30.9-7.2,31c2.3,3.8-1.4,1.3-3.1,1C-9.9,33.7-7.5,37.4-11.2,35.1L-11.2,35.1 M-2,38.2c-4.4,0.1-0.5-1.9,0.6-3.2
		c-1.6-0.6-6-0.3-2.1-2.4c-0.1-4.4,1.9-0.5,3.2,0.6c0.6-1.6,0.3-6,2.4-2.1C6.4,31,2.5,33,1.4,34.2c1.6,0.6,6,0.3,2.1,2.4
		c0.1,4.4-1.9,0.5-3.2-0.6C-0.2,37.6,0.1,42-2,38.2L-2,38.2 M53.1-28c1,0,1.8,0.8,1.8,1.8s-0.8,1.8-1.8,1.8c-1,0-1.8-0.8-1.8-1.8
		S52.2-28,53.1-28L53.1-28"/>
</symbol>
<symbol  id="HQ4" viewBox="-38.7 -55.3 77.4 110.7">
	<path class="st1" d="M33.2-4c1,0.3,2.6-0.9,2.6-0.9 M35.2-2.5c1.3,0.5,1.3,2,1.3,2 M35.4,0.4c1.1,0.9,0.5,2.4,0.5,2.4 M35.5,4.1
		c1,1,0.3,2.4,0.3,2.4 M35,7.1c0.9,1,0.3,2.4,0.3,2.4 M37.5-4.6c0.5,0.2,0.9,0.6,1,1 M37.8-0.4c0.4,0.4,0.7,0.8,0.7,1.3 M37.8,3.3
		c0.4,0.4,0.6,0.9,0.5,1.3 M37.7,7.1c0.2,0.5,0.2,1,0,1.4 M-28.3-29.1c1.3-0.6,2.6-0.7,4.1,0 M-38.6-53.6c2-2,4.6-2,6.1-0.5
		 M-36-46.9c2,0.5,4.1-1.5,4.1-1.5 M-22.7-53.6c3.1-1.5,6.1,0,7.7,1.5l0,0 M-20.7-46.9c3.6,0,5.6-2,5.6-2 M-33.8-52.8
		c0.2,0.4,0.2,0.8,0.2,1.2c0,1.3-0.8,2.4-1.8,2.4c-1,0-1.8-1.1-1.8-2.4c0-0.5,0.1-1,0.3-1.4 M-18.4-53c0.3,0.4,0.5,1,0.5,1.7
		c0,1.3-0.8,2.4-1.8,2.4s-1.8-1.1-1.8-2.4c0-0.6,0.1-1.1,0.4-1.5"/>
	
		<use xlink:href="#SHQ"  width="62.5" height="62.5" x="-31.2" y="-31.2" transform="matrix(8.846782e-02 5.107675e-02 -5.107692e-02 8.846752e-02 9.6722 50.9841)" style="overflow:visible;"/>
	
		<use xlink:href="#SHQ"  width="62.5" height="62.5" x="-31.2" y="-31.2" transform="matrix(9.867304e-02 2.643927e-02 -2.643936e-02 9.867270e-02 14.3887 38.6164)" style="overflow:visible;"/>
	
		<use xlink:href="#SHQ"  width="62.5" height="62.5" x="-31.2" y="-31.2" transform="matrix(0.102 5.346301e-03 -5.346319e-03 0.102 17.2613 25.8383)" style="overflow:visible;"/>
	
		<use xlink:href="#SHQ"  width="62.5" height="62.5" x="-31.2" y="-31.2" transform="matrix(0.1018 8.903265e-03 -8.903295e-03 0.1018 18.5874 12.9686)" style="overflow:visible;"/>
	
		<use xlink:href="#SHQ"  width="62.5" height="62.5" x="-31.2" y="-31.2" transform="matrix(0.1006 1.773877e-02 -1.773883e-02 0.1006 20.0125 1.0205)" style="overflow:visible;"/>
</symbol>
<symbol  id="SH3" viewBox="-11.2 -12.3 22.3 24.5">
	<rect x="-11.2" y="-11.2" class="st2" width="22.3" height="22.3"/>
	<path class="st3" d="M0-6.7c0-2.2,2.2-4.5,4.5-4.5s4.5,2.2,4.5,5.6C8.9,0,0,8.9,0,11.2C0,8.9-8.9,0-8.9-5.6c0-3.3,2.2-5.6,4.5-5.6
		S0-8.9,0-6.7z"/>
</symbol>
<symbol  id="SHQ" viewBox="-31.2 -31.2 62.5 62.5">
	<rect x="-31.2" y="-31.2" class="st4" width="62.5" height="62.5"/>
	<path class="st5" d="M0-18.8C0-25,6.2-31.2,12.5-31.2S25-25,25-15.6C25,0,0,25,0,31.2C0,25-25,0-25-15.6c0-9.4,6.2-15.6,12.5-15.6
		S0-25,0-18.8z"/>
</symbol>
<symbol  id="VHQ" viewBox="-9.6 -16 19.2 32">
	<path class="st6" d="M-8.3,3.2c9.6,0,7,11.5,16.6,11.5 M-5.6,0v-9.1c0-3.1,2.5-5.6,5.6-5.6s5.6,2.5,5.6,5.6V9.1
		c0,3.1-2.5,5.6-5.6,5.6s-5.6-2.5-5.6-5.6V0z"/>
</symbol>
<path class="st7" d="M23.5,9.3h128.8c7.8,0,14.1,6.4,14.1,14.2v216.6c0,7.8-6.3,14.2-14.1,14.2H23.5c-7.8,0-14.1-6.4-14.1-14.2V23.5
	C9.3,15.7,15.6,9.3,23.5,9.3z"/>
<g>
	<rect id="XHQ" x="38.4" y="55.5" class="st8" width="98.9" height="152.6"/>
</g>
<g>
	<defs>
		<rect id="SVGID_1_" x="38.4" y="55.5" width="98.9" height="152.6"/>
	</defs>
	<clipPath id="SVGID_00000041978535552451426880000016851363933011237565_">
		<use xlink:href="#SVGID_1_"  style="overflow:visible;"/>
	</clipPath>
	<g style="clip-path:url(#SVGID_00000041978535552451426880000016851363933011237565_);">
		
			<use xlink:href="#HQ1"  width="101.5" height="82.3" x="-50.7" y="-41.2" transform="matrix(0.7447 0 0 0.7468 99.5434 98.9771)" style="overflow:visible;"/>
	</g>
</g>
<g>
	<defs>
		<rect id="SVGID_00000174595385414661271590000013239369570447722625_" x="38.4" y="55.5" width="98.9" height="152.6"/>
	</defs>
	<clipPath id="SVGID_00000013174805042896820310000007267521502173893778_">
		<use xlink:href="#SVGID_00000174595385414661271590000013239369570447722625_"  style="overflow:visible;"/>
	</clipPath>
	<g style="clip-path:url(#SVGID_00000013174805042896820310000007267521502173893778_);">
		
			<use xlink:href="#HQ1"  width="101.5" height="82.3" x="-50.7" y="-41.2" transform="matrix(-0.7447 0 0 -0.7468 76.2046 164.6449)" style="overflow:visible;"/>
	</g>
</g>
<g>
	<defs>
		<rect id="SVGID_00000093137426577904419470000007532361252079907481_" x="38.4" y="55.5" width="98.9" height="152.6"/>
	</defs>
	<clipPath id="SVGID_00000041290893482497353380000011524932319165493159_">
		<use xlink:href="#SVGID_00000093137426577904419470000007532361252079907481_"  style="overflow:visible;"/>
	</clipPath>
	<g style="clip-path:url(#SVGID_00000041290893482497353380000011524932319165493159_);">
		
			<use xlink:href="#HQ2"  width="87.3" height="97.6" x="-43.6" y="-48.8" transform="matrix(0.7447 0 0 0.7468 88.8419 91.954)" style="overflow:visible;"/>
	</g>
</g>
<g>
	<defs>
		<rect id="SVGID_00000022546431249225157560000000722499186575456688_" x="38.4" y="55.5" width="98.9" height="152.6"/>
	</defs>
	<clipPath id="SVGID_00000138558220791590741130000002598575849062890409_">
		<use xlink:href="#SVGID_00000022546431249225157560000000722499186575456688_"  style="overflow:visible;"/>
	</clipPath>
	<g style="clip-path:url(#SVGID_00000138558220791590741130000002598575849062890409_);">
		
			<use xlink:href="#HQ2"  width="87.3" height="97.6" x="-43.6" y="-48.8" transform="matrix(-0.7447 0 0 -0.7468 86.9062 171.668)" style="overflow:visible;"/>
	</g>
</g>
<g>
	<defs>
		<rect id="SVGID_00000029737817821134418540000010095404381454502532_" x="38.4" y="55.5" width="98.9" height="152.6"/>
	</defs>
	<clipPath id="SVGID_00000140001591495031353990000011055237598250073770_">
		<use xlink:href="#SVGID_00000029737817821134418540000010095404381454502532_"  style="overflow:visible;"/>
	</clipPath>
	
		<g transform="matrix(1 0 0 1 0 7.629395e-06)" style="clip-path:url(#SVGID_00000140001591495031353990000011055237598250073770_);">
		
			<use xlink:href="#HQ3"  width="133.4" height="135.7" x="-66.7" y="-67.8" transform="matrix(0.7447 0 0 0.7468 87.8751 105.9582)" style="overflow:visible;"/>
	</g>
</g>
<g>
	<defs>
		<rect id="SVGID_00000075152452068232905140000010959514919470669448_" x="38.4" y="55.5" width="98.9" height="152.6"/>
	</defs>
	<clipPath id="SVGID_00000092436529980477855030000014292913055959752341_">
		<use xlink:href="#SVGID_00000075152452068232905140000010959514919470669448_"  style="overflow:visible;"/>
	</clipPath>
	<g style="clip-path:url(#SVGID_00000092436529980477855030000014292913055959752341_);">
		
			<use xlink:href="#HQ3"  width="133.4" height="135.7" x="-66.7" y="-67.8" transform="matrix(-0.7447 0 0 -0.7468 87.8729 157.6638)" style="overflow:visible;"/>
	</g>
</g>
<g>
	<defs>
		<rect id="SVGID_00000047055290280837741680000013022510585872146316_" x="38.4" y="55.5" width="98.9" height="152.6"/>
	</defs>
	<clipPath id="SVGID_00000137128651536633101310000003281411322946973058_">
		<use xlink:href="#SVGID_00000047055290280837741680000013022510585872146316_"  style="overflow:visible;"/>
	</clipPath>
	
		<g transform="matrix(1 0 0 1 -7.629395e-06 0)" style="clip-path:url(#SVGID_00000137128651536633101310000003281411322946973058_);">
		
			<use xlink:href="#HQ4"  width="77.4" height="110.7" x="-38.7" y="-55.3" transform="matrix(0.7447 0 0 0.7468 104.8004 107.9164)" style="overflow:visible;"/>
	</g>
</g>
<g>
	<defs>
		<rect id="SVGID_00000163765011093812992030000014711535417934408618_" x="38.4" y="55.5" width="98.9" height="152.6"/>
	</defs>
	<clipPath id="SVGID_00000150819121570818909710000014453774860542812832_">
		<use xlink:href="#SVGID_00000163765011093812992030000014711535417934408618_"  style="overflow:visible;"/>
	</clipPath>
	<g style="clip-path:url(#SVGID_00000150819121570818909710000014453774860542812832_);">
		
			<use xlink:href="#HQ4"  width="77.4" height="110.7" x="-38.7" y="-55.3" transform="matrix(-0.7447 0 0 -0.7468 70.9477 155.7057)" style="overflow:visible;"/>
	</g>
</g>
<g>
	<defs>
		<rect id="SVGID_00000036964484341271505900000001022676127995954305_" x="14.6" y="23.2" width="23.8" height="23.9"/>
	</defs>
	<clipPath id="SVGID_00000077296778584803388510000004257369670051648899_">
		<use xlink:href="#SVGID_00000036964484341271505900000001022676127995954305_"  style="overflow:visible;"/>
	</clipPath>
	<g style="clip-path:url(#SVGID_00000077296778584803388510000004257369670051648899_);">
		
			<use xlink:href="#VHQ"  width="19.2" height="32" x="-9.6" y="-16" transform="matrix(0.7447 0 0 0.7468 26.5111 35.0998)" style="overflow:visible;"/>
	</g>
</g>
<g>
	<defs>
		<rect id="SVGID_00000106145897265545471970000000249788603350120586_" x="137.3" y="216.6" width="23.8" height="23.9"/>
	</defs>
	<clipPath id="SVGID_00000058569125875942167000000010300770264757166230_">
		<use xlink:href="#SVGID_00000106145897265545471970000000249788603350120586_"  style="overflow:visible;"/>
	</clipPath>
	<g style="clip-path:url(#SVGID_00000058569125875942167000000010300770264757166230_);">
		
			<use xlink:href="#VHQ"  width="19.2" height="32" x="-9.6" y="-16" transform="matrix(-0.7447 0 0 -0.7468 149.2369 228.5222)" style="overflow:visible;"/>
	</g>
</g>
<g>
	<rect id="XHQ_00000172410990328711062340000007674329205982437027_" x="38.4" y="55.5" class="st9" width="98.9" height="152.6"/>
</g>
<g>
	<defs>
		<rect id="SVGID_00000082352970390022880610000011884881610798320299_" x="16.5" y="50.8" width="19.9" height="20"/>
	</defs>
	<clipPath id="SVGID_00000059276348467525562820000002909498620966390412_">
		<use xlink:href="#SVGID_00000082352970390022880610000011884881610798320299_"  style="overflow:visible;"/>
	</clipPath>
	
		<g transform="matrix(1 0 0 1 1.907349e-06 -3.814697e-06)" style="clip-path:url(#SVGID_00000059276348467525562820000002909498620966390412_);">
		
			<use xlink:href="#SH3"  width="22.3" height="24.5" x="-11.2" y="-12.3" transform="matrix(0.7447 0 0 0.7468 26.5115 60.7783)" style="overflow:visible;"/>
	</g>
</g>
<g>
	<defs>
		<rect id="SVGID_00000048500487157381692260000012094110874257716622_" x="139.3" y="192.8" width="19.9" height="20"/>
	</defs>
	<clipPath id="SVGID_00000125565280822662420690000016070395844519388601_">
		<use xlink:href="#SVGID_00000048500487157381692260000012094110874257716622_"  style="overflow:visible;"/>
	</clipPath>
	<g style="clip-path:url(#SVGID_00000125565280822662420690000016070395844519388601_);">
		
			<use xlink:href="#SH3"  width="22.3" height="24.5" x="-11.2" y="-12.3" transform="matrix(-0.7447 0 0 -0.7468 149.2365 202.8437)" style="overflow:visible;"/>
	</g>
</g>
</svg>
