<?xml version="1.0" encoding="utf-8"?>
<!-- Generator: Adobe Illustrator 27.9.0, SVG Export Plug-In . SVG Version: 6.00 Build 0)  -->
<svg version="1.1" id="Layer_1" xmlns="http://www.w3.org/2000/svg" xmlns:xlink="http://www.w3.org/1999/xlink" x="0px" y="0px"
	 viewBox="0 0 175.7 263.6" style="enable-background:new 0 0 175.7 263.6;" xml:space="preserve">
<style type="text/css">
	.st0{fill-opacity:0;}
	.st1{stroke:#FFFFFF;stroke-width:2.2307;stroke-linecap:round;stroke-linejoin:round;stroke-miterlimit:10;}
	.st2{fill:none;stroke:#FFFFFF;stroke-width:2.56;stroke-linecap:square;stroke-miterlimit:10;}
	.st3{fill:#272727;stroke:#000000;}
</style>
<symbol  id="SH5" viewBox="-11.2 -12.3 22.3 24.5">
	<rect x="-11.2" y="-11.2" class="st0" width="22.3" height="22.3"/>
	<path class="st1" d="M0-6.7c0-2.2,2.2-4.5,4.5-4.5s4.5,2.2,4.5,5.6C8.9,0,0,8.9,0,11.2C0,8.9-8.9,0-8.9-5.6c0-3.3,2.2-5.6,4.5-5.6
		S0-8.9,0-6.7z"/>
</symbol>
<symbol  id="VH5" viewBox="-9.6 -16 19.1 32">
	<path class="st2" d="M5.6-14.7h-11l-1.1,11c0,0,0.3-2.7,6.7-2.7c3.2,0,8.2,3.8,8.2,10.2S5.9,14.7-0.5,14.7S-8,9.1-8,9.1"/>
</symbol>
<path class="st3" d="M23.5,9.3h128.8c7.8,0,14.1,6.4,14.1,14.2v216.6c0,7.8-6.3,14.2-14.1,14.2H23.5c-7.8,0-14.1-6.4-14.1-14.2V23.5
	C9.3,15.7,15.6,9.3,23.5,9.3z"/>
<g>
	<defs>
		<rect id="SVGID_1_" x="14.6" y="23.2" width="23.8" height="23.9"/>
	</defs>
	<clipPath id="SVGID_00000175317639142287158770000004553153568802147738_">
		<use xlink:href="#SVGID_1_"  style="overflow:visible;"/>
	</clipPath>
	<g style="clip-path:url(#SVGID_00000175317639142287158770000004553153568802147738_);">
		
			<use xlink:href="#VH5"  width="19.1" height="32" x="-9.6" y="-16" transform="matrix(0.7447 0 0 0.7468 26.4269 35.0998)" style="overflow:visible;"/>
	</g>
</g>
<g>
	<defs>
		<rect id="SVGID_00000105409769437897812220000008946883305829224637_" x="16.5" y="50.8" width="19.9" height="20"/>
	</defs>
	<clipPath id="SVGID_00000016047129945288578970000009261993141670402716_">
		<use xlink:href="#SVGID_00000105409769437897812220000008946883305829224637_"  style="overflow:visible;"/>
	</clipPath>
	
		<g transform="matrix(1 0 0 1 1.907349e-06 -3.814697e-06)" style="clip-path:url(#SVGID_00000016047129945288578970000009261993141670402716_);">
		
			<use xlink:href="#SH5"  width="22.3" height="24.5" x="-11.2" y="-12.3" transform="matrix(0.7447 0 0 0.7468 26.5115 60.7783)" style="overflow:visible;"/>
	</g>
</g>
<g>
	<defs>
		<rect id="SVGID_00000049901321697191369270000009302086250655555200_" x="16.5" y="50.8" width="19.9" height="20"/>
	</defs>
	<clipPath id="SVGID_00000075138877700219143210000016099614838854436238_">
		<use xlink:href="#SVGID_00000049901321697191369270000009302086250655555200_"  style="overflow:visible;"/>
	</clipPath>
	
		<g transform="matrix(1 0 0 1 1.907349e-06 -3.814697e-06)" style="clip-path:url(#SVGID_00000075138877700219143210000016099614838854436238_);">
		
			<use xlink:href="#SH5"  width="22.3" height="24.5" x="-11.2" y="-12.3" transform="matrix(0.7447 0 0 0.7468 26.5115 60.7783)" style="overflow:visible;"/>
	</g>
</g>
<g>
	<defs>
		<rect id="SVGID_00000158725575289603751570000007709487581983993255_" x="35.6" y="35.7" width="40.2" height="40.3"/>
	</defs>
	<clipPath id="SVGID_00000092430168957793519250000001217883322482656166_">
		<use xlink:href="#SVGID_00000158725575289603751570000007709487581983993255_"  style="overflow:visible;"/>
	</clipPath>
	<g style="clip-path:url(#SVGID_00000092430168957793519250000001217883322482656166_);">
		
			<use xlink:href="#SH5"  width="22.3" height="24.5" x="-11.2" y="-12.3" transform="matrix(0.7447 0 0 0.7468 45.5884 45.7175)" style="overflow:visible;"/>
	</g>
</g>
<g>
	<defs>
		<rect id="SVGID_00000106115541164188539340000007565255414158554250_" x="99.9" y="35.7" width="40.2" height="40.3"/>
	</defs>
	<clipPath id="SVGID_00000088091880030634880360000017304772185992687272_">
		<use xlink:href="#SVGID_00000106115541164188539340000007565255414158554250_"  style="overflow:visible;"/>
	</clipPath>
	<g style="clip-path:url(#SVGID_00000088091880030634880360000017304772185992687272_);">
		
			<use xlink:href="#SH5"  width="22.3" height="24.5" x="-11.2" y="-12.3" transform="matrix(0.7447 0 0 0.7468 109.8809 45.7175)" style="overflow:visible;"/>
	</g>
</g>
<g>
	<defs>
		<polygon id="SVGID_00000093871888327762703860000007650641099906338227_" points="71.1,111.5 71.1,151.9 90.6,151.9 84.5,135.1 
			90.6,128.3 84.5,111.5 		"/>
	</defs>
	<clipPath id="SVGID_00000068642094250647770810000015015729689875422636_">
		<use xlink:href="#SVGID_00000093871888327762703860000007650641099906338227_"  style="overflow:visible;"/>
	</clipPath>
	<g style="clip-path:url(#SVGID_00000068642094250647770810000015015729689875422636_);">
		
			<use xlink:href="#SH5"  width="22.3" height="24.5" x="-11.2" y="-12.3" transform="matrix(0.7447 0 0 0.7468 77.7346 121.6429)" style="overflow:visible;"/>
	</g>
</g>
<g transform="rotate(180)">
	<g>
		<defs>
			<rect id="SVGID_00000071537743565001074280000001536048629432344471_" x="-161.2" y="-240.5" width="23.8" height="23.9"/>
		</defs>
		<clipPath id="SVGID_00000159445680903899762090000005254392054263118240_">
			<use xlink:href="#SVGID_00000071537743565001074280000001536048629432344471_"  style="overflow:visible;"/>
		</clipPath>
		<g style="clip-path:url(#SVGID_00000159445680903899762090000005254392054263118240_);">
			
				<use xlink:href="#VH5"  width="19.1" height="32" x="-9.6" y="-16" transform="matrix(0.7447 0 0 0.7468 -149.3211 -228.5222)" style="overflow:visible;"/>
		</g>
	</g>
	<g>
		<defs>
			<rect id="SVGID_00000103261233146926936290000007720862357511400891_" x="-159.2" y="-212.8" width="19.9" height="20"/>
		</defs>
		<clipPath id="SVGID_00000115478407019613567050000000471723762279028359_">
			<use xlink:href="#SVGID_00000103261233146926936290000007720862357511400891_"  style="overflow:visible;"/>
		</clipPath>
		<g style="clip-path:url(#SVGID_00000115478407019613567050000000471723762279028359_);">
			
				<use xlink:href="#SH5"  width="22.3" height="24.5" x="-11.2" y="-12.3" transform="matrix(0.7447 0 0 0.7468 -149.2365 -202.8437)" style="overflow:visible;"/>
		</g>
	</g>
	<g>
		<defs>
			<rect id="SVGID_00000088112898033407020630000014304567765750159506_" x="-159.2" y="-212.8" width="19.9" height="20"/>
		</defs>
		<clipPath id="SVGID_00000111149002853154704440000001161773121850879129_">
			<use xlink:href="#SVGID_00000088112898033407020630000014304567765750159506_"  style="overflow:visible;"/>
		</clipPath>
		<g style="clip-path:url(#SVGID_00000111149002853154704440000001161773121850879129_);">
			
				<use xlink:href="#SH5"  width="22.3" height="24.5" x="-11.2" y="-12.3" transform="matrix(0.7447 0 0 0.7468 -149.2365 -202.8437)" style="overflow:visible;"/>
		</g>
	</g>
	<g>
		<defs>
			<rect id="SVGID_00000132798097418518505820000000545832573712390296_" x="-140.1" y="-227.9" width="40.2" height="40.3"/>
		</defs>
		<clipPath id="SVGID_00000015319651234279097660000001098536931323476362_">
			<use xlink:href="#SVGID_00000132798097418518505820000000545832573712390296_"  style="overflow:visible;"/>
		</clipPath>
		
			<g transform="matrix(1 0 0 1 0 -1.525879e-05)" style="clip-path:url(#SVGID_00000015319651234279097660000001098536931323476362_);">
			
				<use xlink:href="#SH5"  width="22.3" height="24.5" x="-11.2" y="-12.3" transform="matrix(0.7447 0 0 0.7468 -130.1597 -217.9045)" style="overflow:visible;"/>
		</g>
	</g>
	<g>
		<defs>
			<rect id="SVGID_00000061444320532230512960000010710634825314054323_" x="-75.8" y="-227.9" width="40.2" height="40.3"/>
		</defs>
		<clipPath id="SVGID_00000132051161418475728870000012098194147888638098_">
			<use xlink:href="#SVGID_00000061444320532230512960000010710634825314054323_"  style="overflow:visible;"/>
		</clipPath>
		
			<g transform="matrix(1 0 0 1 0 -1.525879e-05)" style="clip-path:url(#SVGID_00000132051161418475728870000012098194147888638098_);">
			
				<use xlink:href="#SH5"  width="22.3" height="24.5" x="-11.2" y="-12.3" transform="matrix(0.7447 0 0 0.7468 -65.8672 -217.9045)" style="overflow:visible;"/>
		</g>
	</g>
	<g>
		<defs>
			<polygon id="SVGID_00000128453521350812652340000018323812224312848574_" points="-104.6,-152.1 -104.6,-111.7 -85.2,-111.7 
				-91.2,-128.6 -85.2,-135.3 -91.2,-152.1 			"/>
		</defs>
		<clipPath id="SVGID_00000011752695409872092380000002293429067572314297_">
			<use xlink:href="#SVGID_00000128453521350812652340000018323812224312848574_"  style="overflow:visible;"/>
		</clipPath>
		<g style="clip-path:url(#SVGID_00000011752695409872092380000002293429067572314297_);">
			
				<use xlink:href="#SH5"  width="22.3" height="24.5" x="-11.2" y="-12.3" transform="matrix(0.7447 0 0 0.7468 -98.0134 -141.9791)" style="overflow:visible;"/>
		</g>
	</g>
</g>
</svg>
