<?xml version="1.0" encoding="utf-8"?>
<!-- Generator: Adobe Illustrator 27.9.0, SVG Export Plug-In . SVG Version: 6.00 Build 0)  -->
<svg version="1.1" id="Layer_1" xmlns="http://www.w3.org/2000/svg" xmlns:xlink="http://www.w3.org/1999/xlink" x="0px" y="0px"
	 viewBox="0 0 175.7 263.6" style="enable-background:new 0 0 175.7 263.6;" xml:space="preserve">
<style type="text/css">
	.st0{fill:#272727;stroke:#000000;}
	.st1{fill-rule:evenodd;clip-rule:evenodd;}
	.st2{fill-rule:evenodd;clip-rule:evenodd;fill:#FFFFFF;}
</style>
<path class="st0" d="M23.5,9.3h128.8c7.8,0,14.1,6.4,14.1,14.2v216.6c0,7.8-6.3,14.2-14.1,14.2H23.5c-7.8,0-14.1-6.4-14.1-14.2V23.5
	C9.3,15.7,15.6,9.3,23.5,9.3z"/>
<g>
	<path class="st1" d="M142.3,158.5c-4.6,7.2-10.8,11.9-21.2,11c5.1,4.3,8.6,9.2,10.6,14.5c1.8,0,3.5-0.2,5.1,0.1
		c0.6,0.1,1.1,1.2,1.5,2c1,2,0.6,4.1-0.9,5.1c-1.8,1.2-4.7,1.2-6.4,0.1c-1.7-1.2-2-3-0.8-5.3c-8.7-1.8-17.4-3.2-25.1-7.9
		c0.5,7.3-0.2,14.5-2.5,21.4c3.1,1.6,4.3,3.3,3.7,5.2c-0.5,1.7-1.8,2.7-4,2.9c-2.4,0.2-3.8-0.6-4.7-2.4c-0.9-1.9-0.5-3.1,1.9-4.9
		c-8.5-4.5-15.1-10.3-17.7-19.3c-1.4,1.7-2.7,3.2-4,4.6c-3.9,4.2-7.8,8.5-12,12.6c-2.3,2.3-4.1,3.1-7.7,4.2c0.5,1.8,0.9,3.9-0.8,5.3
		c-1,0.9-2.6,1.6-4.1,1.8c-3,0.4-5.6-2.1-5.6-4.9c-0.1-3,2-4.2,7.5-4.2c-1.9-8.9-0.9-17.4,4-25.2c-4.6-1-9.1-1.9-13.4-3.1
		c-2.6-0.7-5.2-1.7-7.4-3c-1.8-1-3-2.8-4.6-4.1c-0.4-0.3-1.1-0.6-1.6-0.6c-0.8,0-1.6,0.3-2.4,0.3c-2.9,0.1-4.9-1.6-4.8-4.2
		c0.1-2,1.3-3.3,3.3-4.2c2-0.9,4-0.8,5.8,0.4c1.7,1.2,2.3,2.8,1.7,4.7c-0.1,0.2-0.2,0.5-0.4,1.2c3.6,0.1,7,0.4,10.4,0.4
		c6.4,0,12.6-1.1,18.4-3.7c1.4-0.6,2.7-1.4,4-2.2c0.3-0.2,0.5-1.1,0.3-1.5c-1.5-4-3.1-7.9-4.7-11.9c-0.2-0.5-0.6-1.1-1-1.2
		c-3-0.7-4-1.7-4.2-4.4c0-0.4-0.1-0.8-0.1-1.2c-3.5-0.8-6.6-2.3-9.9-4.3c1.2-0.4,1.8-0.6,2.6-0.8c-0.7-0.3-1.4-0.6-2-0.9
		c-2.4-1-3.8-2.8-5-4.8c-0.5-0.9-0.3-1.5,0.9-1.6c1.1-0.1,2.2-0.2,3.3-0.3c-1.1-1.5-2.1-2.8-3.2-4.3c-0.1,3.3-2,5.7-4.4,7.9
		c2.1,3.8,1.4,6.7-3.2,8.2c-2.8,0.9-7.1-1.6-8-4.5c-1-3.3,1-5.3,6.6-6.3c-0.3-1.1-0.4-2.3-0.8-3.4c-1.5-4-3.2-8-4.7-12.1
		c-1.4-3.7-1.4-7.3-0.3-11.1c1-3.3,1.5-6.8,3.9-9.7c2.2-2.6,4.7-4.9,8-6.3c2.4-1,5-1.3,7.8-0.5c4,1.2,7.4,3.2,10.5,5.6
		c1.4-3.3,2.8-6.5,4.2-9.6c0.7-1.5,1.5-3,2.3-4.5c4.6-8.1,11.8-13.9,20.6-18.3c4.5-2.2,14.2-1.4,17.8,4.8c1.2,2.1,1.4,3.8,0.4,6.1
		c1.2,0.6,2.8,1,3.5,1.9c0.7,0.9,0.9,2.3,0.7,3.5c-0.3,2.5-2.4,4.2-4.9,4.3c-2.2,0.1-4.5-1.4-5.2-3.2c-0.9-2.6,0.2-4.3,3.4-6
		c-0.4-3.1-4.5-5.8-7.9-5.4c-2.5,0.3-4.3,2.3-3.6,4.4c0.4,1.4,1.2,2.9,2.2,4.1c3.3,3.7,6.8,7.3,10.1,10.9c0.6,0.7,1,1.5,1.4,2
		c2.5-2.1,5-4.4,7.8-6.4c4.2-3.1,10.7-2.7,14.8,0.5c2.1,1.7,4.5,3.3,6.6,5.1c1.2,1.1,2.2,2.4,2.9,3.7c2.5,5,2.2,10.2,1.2,15.4
		c-0.9,4.7-1.9,9.3-2.8,14c-0.1,0.6-0.1,1.2-0.2,1.8c3.9,1.2,5.7,3,5.5,5.6c-0.1,2.2-1.7,3.9-4.1,4.5c-2.6,0.6-5.3-0.2-6.5-1.9
		c-1.4-2.2-1-4.6,1.2-6.7c-5.5-4.1-7.3-9.8-8.9-15.5c-0.9-3.3-1.5-6.6-2.2-10c-0.1-0.2-0.2-0.5-0.3-0.9c-2.4,1.2-4.2,2.9-5.7,4.8
		c-0.2,0.2-0.1,0.6,0,0.9c0.5,1.4,1.1,2.7,1.4,4.1c0.2,0.8-0.1,1.7-0.3,2.6c-0.2,0.9-0.8,1.7-0.9,2.6c-0.2,2.7-0.4,5.3-1.6,7.8
		c-0.4,0.9-0.4,2-0.5,3.3c4.3-0.3,6.9-2.1,7.9-5.6c0.2,0.1,0.4,0.1,0.7,0.2c0.3,2.2,0.6,4.3,0.9,6.5c0.7-0.4,1.6-1,2.7-1.7
		c0.7,2.9-0.4,5.3-1.8,7.8c1-0.4,2-0.8,2.9-1.2c0.2,0.1,0.3,0.2,0.5,0.3c-1.2,1.7-2.4,3.3-3.4,4.7c-0.1,0.8,0,1.4-0.3,1.8
		c-0.4,0.6-0.9,1-1.5,1.5c-1.7,1.4-3.5,2.9-5.3,4.2c-0.9,0.6-2,0.9-3.2,1.4c-1,3.7-1.8,4.3-5.7,4.3c-1.5,4.2-3,8.4-4.6,13
		c2.3,0.9,4.7,2.3,7.3,2.9c10.1,2.3,20.2,2.1,30.1-0.8c0.9-0.3,1.5-0.5,1.7-1.6c0.4-2.6,3.9-4.3,6.7-3.4c1.7,0.6,2.7,1.6,2.8,3.2
		c0,1.7-0.2,3.5-2.2,4.4c-1.8,0.9-3.6,0.4-5.3-0.4C143.2,159.2,142.9,158.9,142.3,158.5L142.3,158.5z M111.8,79.4
		c1.3-0.6,2.6-1.3,4-1.8c1.1-0.4,2-0.1,2.4,0.9c0.8,2.1,1.6,4.2,2,6.4c0.7,3,0.9,6.1,1.6,9.1c1.5,6.3,2.5,12.8,6,18.5
		c0.8,1.2,1.6,2.5,2.4,3.7c0.2-0.1,0.3-0.2,0.5-0.2c-0.2-0.3-0.4-0.7-0.6-1.1c-1.5-3.2-3.4-6.2-4.4-9.5c-1.6-5.1-2.7-10.3-3.6-15.5
		c-0.7-3.8-1.3-7.6-3-11.2c-0.3-0.7-1.1-1.4-1.9-1.6C115.5,76.5,112.6,77.8,111.8,79.4c-4,2.2-6,5.9-8.4,9.3
		C106.2,85.6,109,82.5,111.8,79.4L111.8,79.4z M53.1,122.4c-1.4,1.2-1.6,2.7-0.6,4c1,1.4,2.4,2.6,3.8,3.8c2.2,1.9,3.5,4,3.5,6.8
		c0,0.9,0.1,1.9,0.6,2.7c0.3,0.6,1.2,1.1,2,1.2c0.5,0.1,1.2-0.6,1.6-1.2c0.4-0.6,0.4-1.4,0.7-2c0.2-0.4,0.5-0.6,0.8-1
		c0.2,0.4,0.7,0.8,0.6,1.1c-0.2,1-0.6,2-0.9,2.9c-0.1,0.5-0.5,1-0.3,1.4c1.2,3.5,2.2,7,3.7,10.4c1.9,4.1,4.1,8,6.5,11.9
		c1.9,3.2,4.1,6.3,6.6,9.2c1.6,1.9,5.2,1.8,6.9,0c1.4-1.5,2.6-3.2,3.7-4.8c5.5-8.2,9.9-16.7,12.7-25.9c0.4-1.3,0.8-2.5,0.1-3.9
		c-0.2-0.4-0.3-1-0.2-1.5c0.1-0.4,0.5-0.7,0.8-1c0.3,0.3,0.6,0.6,0.7,0.9c0.2,0.6,0.2,1.4,0.5,1.9c0.4,0.6,1.1,1.3,1.6,1.3
		c0.8-0.1,1.7-0.7,2.1-1.3c0.5-0.8,0.5-1.9,0.6-2.8c0.1-2,0.6-3.9,2.2-5.4c1-1,2.3-1.8,3.2-2.8c0.9-0.9,1.7-2,2.2-3.1
		c0.6-1.3-0.1-2.6-1.2-3.5c-0.8-0.7-1.9-1.2-3.1-0.5l0.1-0.1c-1.8,0-2.4,1.1-3,2.4c-0.8,1.6-1.9,3-3.9,3.5c-0.1-0.3-0.2-0.4-0.2-0.4
		c0-0.1,0-0.3,0.1-0.4c2-3.9,1.9-7.8-0.2-11.7c-0.5-0.9-0.7-1.8-1.1-2.7c-0.2-0.5-0.4-1.1-0.9-1.4c-3-2-5.9-4.1-9-5.8
		c-3.3-1.8-7.2-2.4-11.1-2.2c-2.2,0.1-4.3,0.4-6.4,0.6c-2.8,0.2-5.2,1-7.4,2.5c-3.7,2.5-6.1,5.7-7.6,9.5c-1.1,2.7-1.8,5.4-1.1,8.3
		c0.3,1.3,0.8,2.5,1.2,3.8c-1.9-0.2-3.1-1.2-4.2-3.5c-1-2.2-2.8-2.8-5.3-2C53.8,121.8,53.4,122.1,53.1,122.4L53.1,122.4z
		 M110.9,116.2c0.2,0,0.4-0.1,0.6-0.1c0.5-2.4,1.2-4.9,1.6-7.3c0.3-1.8-0.1-3.8,1.6-5.4c0.2-0.1,0.2-0.5,0.1-0.7
		c-1-3.1-1.9-6.2-5.1-8.1c-0.8-0.5-1.4-1.1-2.1-1.6c-3.4-2.4-6.7-4.6-11.3-5.2c-9.5-1.2-18.2,0.4-26.1,5.1
		c-5.4,3.2-9.3,7.7-12.9,12.4c-0.2,0.3-0.3,0.7-0.3,1c0.8,3.8,1.6,7.5,2.5,11.5c1.3-2,2.6-3.9,3.7-5.8c3.7-6.1,8.8-10.3,17.1-10.4
		c1,0,2.1-0.1,3.1-0.3c5-0.7,9.7,0.2,13.9,2.5c2.9,1.6,5.6,3.5,8.1,5.5c1.5,1.2,2.5,2.9,3.7,4.4
		C109.7,114.4,110.3,115.3,110.9,116.2L110.9,116.2z M103.4,175.1c7.4,6.4,17.2,7.5,26.9,9.6c-2.2-6.6-6.7-11.3-11.6-16
		c1.4-0.2,2.6-0.3,3.8-0.2c3.6,0.1,7-0.4,10.1-2.1c1.7-0.9,3.1-2.2,4.7-3.3c-0.1-0.1-0.2-0.2-0.3-0.3c-6.6,3.1-13.5,5.1-21.5,3.9
		c0.7,0.8,1.2,1.3,1.6,1.8c3.4,3.9,6.8,7.8,10.2,11.7c0.3,0.4,0.4,1,0.6,1.5c-0.6-0.1-1.2,0-1.8-0.2c-5.2-1.9-10.5-3.7-15.6-5.7
		c-3.6-1.4-7-3.2-10.4-4.8c0.2,1.3,0.5,2.8,0.6,4.3c0.4,3.5,0.9,7,1.1,10.6c0.1,3-0.2,6-0.4,9c0,0.5-0.5,1.3-0.9,1.5
		c-0.4,0.1-1.3-0.3-1.7-0.7c-2.5-2.2-5-4.3-7.3-6.6c-3.6-3.5-6.4-7.4-8-12c-0.2-0.7-1.1-1.1-1.8-1.8c-0.7,0.9-1.1,1.5-1.6,2
		c-6.6,6.9-13.2,13.8-19.8,20.7c-0.3,0.4-1.1,0.5-1.6,0.7c-0.2-0.5-0.6-1-0.5-1.5c1.2-5.2,2.2-10.4,3.8-15.5
		c1.1-3.5,2.8-6.8,4.4-10.4c-5.7,0.6-10.9-0.6-16.1-2c-5.2-1.4-10.3-3-15.1-5.4c1.3,1.4,2.7,2.8,4.4,3.8c1.7,1,3.6,1.7,5.5,2.3
		c5.6,1.8,11.2,3.6,17.6,2.5c-6.5,8.8-8.1,18.2-5.4,28.3c3.3-0.5,5.8-2,7.7-3.9c4.9-5.1,9.6-10.3,14.3-15.5c1.1-1.2,2.1-2.5,3.1-3.8
		c0.2,0,0.3,0,0.5,0c0.9,4.7,2.9,8.9,6.3,12.6c3.4,3.7,7.4,6.6,12.6,8.9c0.7-4.3,1.6-8.3,1.9-12.2
		C103.7,183.1,103.4,179.1,103.4,175.1L103.4,175.1z M103.4,63.7c0.1-0.1,0.3-0.2,0.4-0.2c-0.5-1-0.9-2.1-1.6-2.9
		c-3-3.5-10.1-3.3-13.3,0.3c-2.8,3.2-4.5,6.9-4.1,11c0.4,4.7,1,9.5,1.5,14.3c5.5-0.2,10.8,0,15.9,1.7c0.5-0.7,0.8-1.5,1.4-2.1
		c1-1.1,0.9-2.2,0.1-3.1c-2.4-2.8-4.9-5.6-7.4-8.3c-2.2-2.4-5.2-4.4-6.1-7.8c-0.8-2.9,0.9-5.6,4.2-6.3c2.7-0.5,5.2,0.1,7.2,1.8
		C102.3,62.6,102.8,63.2,103.4,63.7L103.4,63.7z M63.1,96.2c-2.1-4.3-5.8-7.6-10.4-10.1c-5.3-2.9-9.2-1.4-10.5,4
		c-0.9,3.7-0.1,7.3,0.6,11c0,0,0.2,0,0.4,0c0-0.7,0.1-1.5,0.1-2.4c0.1,0.8,0.2,1.3,0.3,1.9c0.2,0,0.4,0.1,0.6,0.1
		c0.4-1,0.7-2,1.1-3.1c0.2,0.3,0.3,0.5,0.5,0.8c0.3-0.4,0.5-0.7,0.8-1.2c0.3,0.7,0.4,1.2,0.6,1.6c2,0.3,1.1-1.3,1.9-2
		c0.2,0.8,0.4,1.3,0.6,1.9c0.1,0,0.3,0.1,0.4,0.1c0.3-0.7,0.6-1.3,0.9-2c0.1,0,0.2,0,0.4,0v1.9c0.6-0.1,1.2-0.2,1.9-0.3
		c0,0.3,0.1,0.8,0.2,1c0.7,0.4,1.3,0.6,2,1c0,0.5-0.8,1.6,1,1.2c-0.1,0.8-0.1,1.5-0.1,2.2c0.1,0,0.2,0,0.3,0
		C58.8,101.3,60.9,98.8,63.1,96.2L63.1,96.2z M50.3,119.1c-0.2-1.7-0.3-3.2-0.3-4.6c0-0.3,0.6-0.7,0.9-1c0.3,0.3,0.7,0.6,0.8,1
		c0.4,1.8,1.6,2.6,3.6,2.8c2.7,0.3,3.2-0.2,2.4-2.6c-0.5-1.6-0.8-3.2-1.2-4.8c-0.7-2.3-1.3-4.7-2.1-6.9c-0.8-2.1-3.1-3.1-5.4-2.6
		c-3.5,0.6-5.8,3.5-5.3,6.6c0.1,0.7,0.2,1.4,0.3,2.1c0.4,3,0.7,6,1.1,9C46.9,118.5,48.7,118.8,50.3,119.1L50.3,119.1z M119.4,91
		c-0.3-1.3,0-2.5-0.1-3.7c-0.1-2.5-1-4.9-1.7-7.3c-0.6-2.1-1.2-2.3-3.2-1c-4.4,2.6-6.7,6.7-10,10.2c2.9,2.1,5.5,4.1,8.4,6.2
		c-0.1-0.6-0.2-0.9-0.3-1.5c0.9,0.3,1.6,0.5,2.3,0.7c-0.2-0.5-0.4-1-0.6-1.6c0.4,0.2,0.7,0.2,1,0.4v-0.9c0.5,0.4,0.9,0.7,1.3,1
		c0.1-0.1,0.2-0.1,0.3-0.2c-0.3-0.8-0.6-1.6-0.9-2.4c0.1-0.1,0.3-0.1,0.4-0.1l1.6,1.7c0.2-0.1,0.4-0.1,0.6-0.2
		c-0.3-1-0.5-1.9-0.8-2.9c0.1,0,0.2-0.1,0.2-0.1C118.4,89.8,118.9,90.4,119.4,91L119.4,91z M33.2,134.1c2.4,1.4,4.6,1.2,6.1-0.6
		c1.4-1.5,1.1-4-0.7-5.5c-1.5-1.4-5.2-1.6-6.8-0.5c-1.9,1.3-1.9,3.5,0.4,6.5c0.5-1.2,0.9-2.2,1.4-3.1c0.2-0.4,0.8-0.9,1.2-0.9
		c0.6,0,1.3,0.4,1.7,0.8c0.2,0.2-0.1,1-0.5,1.3C35.1,132.7,34.1,133.4,33.2,134.1L33.2,134.1z M138.1,125c1.9-1.7,1.9-3.7,0.3-5.5
		c-1.3-1.4-3.5-1.5-5.5-0.3c-1.7,1-2.2,3.2-1.1,5c0.9,1.4,3.2,2,5.6,1.1c-0.9-0.7-1.8-1.3-2.5-2c-0.3-0.3-0.7-1-0.5-1.3
		c0.3-0.5,1-0.9,1.6-1c0.3-0.1,0.9,0.5,1.1,0.9C137.4,122.8,137.7,123.8,138.1,125L138.1,125z M105.4,74.7c2.6-1,3.7-2.8,3.2-4.7
		c-0.5-1.9-1.6-2.5-4-2.3c-2.1,0.2-3.9,1.5-4,3.1c-0.2,1.9,1.2,3.4,3.7,3.9c-0.3-1-0.7-1.8-0.8-2.6c-0.1-0.5,0-1.1,0.4-1.5
		c0.3-0.3,1.2-0.3,1.5-0.1c0.3,0.2,0.3,0.8,0.3,1.3C105.7,72.7,105.5,73.7,105.4,74.7L105.4,74.7z M46.1,119.8
		c0.9,1.1,1.6,2.1,2.5,3.1c1.5,1.4,1.6,1.4,2.6-0.3c1.8-3.2,6-3.5,8.5-0.7c0.4,0.5,0.8,0.9,1.3,1.3c0.2-2.4,0.4-4.7,0.7-7.4
		c-0.6,1.1-0.9,1.9-1.3,2.6c-0.7,1.2-1.6,0-2.4,0.2c-2.4,0.5-4.6,0.1-6.9-1.6c0.5,1.2,0.9,1.9,1.4,2.9H46.1L46.1,119.8L46.1,119.8z
		 M50.7,207c2.1,1.2,4.1,1,5.5-0.4c1-1,1-3.5,0-4.5c-0.9-0.9-4.4-1.1-5.6-0.4c-1.5,0.9-1.8,2.4-0.8,4.3c0.8-0.7,1.6-1.4,2.4-2
		c0.4-0.3,1-0.4,1.6-0.4c0.3,0,0.7,0.7,0.6,0.9c-0.2,0.4-0.6,0.8-1,1.1C52.6,206.1,51.7,206.5,50.7,207L50.7,207z M42.3,122.1
		c0.2,0,0.3,0.1,0.5,0.1c0.1-0.2,0.3-0.4,0.3-0.7c0.1-0.9,0.3-1.7,0.2-2.6c-0.6-5.8-1.3-11.5-2-17.3c-0.5-4.1-1.5-8.2-0.5-12.4
		c0.3-1.4,0.8-2.9,1.2-4.3c-1.6,1.9-2.6,4.1-2.5,6.4c0.1,3.2,0.6,6.3,0.9,9.5C40.9,108,43.5,114.9,42.3,122.1L42.3,122.1z
		 M120,125.6c-0.6,2.8-3.2,4.2-5.1,6.1c-0.8,0.8-1.4,1.7-2.2,2.8c3.5-0.1,5.8-1.2,8.1-3.4h-3.6c2.6-1.5,5.1-2.6,6.5-4.8
		C122.4,126,121.3,125.8,120,125.6L120,125.6z M45.2,125.7c1.5,3,6.8,6,10,5.5c-2.4-1.9-4.6-3.7-4.7-6.6
		C48.7,125,47,125.3,45.2,125.7L45.2,125.7z M136.8,189.9c0.9-1.7,0.5-3.8-0.8-4.6c-1.1-0.7-3.1-0.3-4.3,0.8
		c-1.3,1.2-1.4,2.6-0.4,3.8c0.9,1,2.8,1.3,4.5,0.5c-0.6-0.3-1.1-0.5-1.5-0.7c-0.3-0.2-0.8-0.5-0.9-0.8c0-0.3,0.4-0.8,0.7-0.9
		c0.3-0.1,0.9,0.1,1.2,0.3C135.8,188.6,136.2,189.2,136.8,189.9L136.8,189.9z M149.4,154.5c-2.1-1.6-3.9-1.7-5.4-0.5
		c-1,0.8-1.9,1.7-1,3.1c1,1.6,3,2.5,4.6,2c1.4-0.4,2.1-1.6,1.8-3.3c-0.8,0.5-1.6,1-2.5,1.3c-0.4,0.2-0.9,0.3-1.4,0.2
		c-0.1,0-0.5-0.6-0.4-0.7c0.3-0.4,0.8-0.7,1.2-0.9C147.2,155.3,148.1,155,149.4,154.5L149.4,154.5z M27.1,158.9
		c-0.9,1.6-0.5,3.2,0.6,3.8c1.3,0.7,4.6,0.2,5.6-0.8c0.9-1,0.7-2.8-0.4-3.8c-1.2-1.1-3-1.1-4.8,0.1c1,0.3,2,0.6,2.8,0.9
		c0.4,0.2,1.1,0.6,1.1,0.9c-0.1,0.5-0.5,1-1,1.2c-0.4,0.2-1.1-0.1-1.5-0.3C28.7,160.3,28,159.6,27.1,158.9L27.1,158.9z M103,205.9
		c-0.6-0.5-1-0.9-1.3-1.2c-0.3-0.3-0.6-0.7-0.7-1c0-0.1,0.6-0.6,0.9-0.5c0.4,0.1,0.8,0.4,1.1,0.8c0.4,0.5,0.6,1,0.9,1.6
		c1.3-1.5,1.2-2.8,0-3.9c-1-0.9-2.2-1.3-3.6-0.7c-1.3,0.6-2.2,1.5-1.7,3C99.3,205.7,100.2,206.2,103,205.9L103,205.9z M120.5,115.4
		c-1.6,2.2-3.9,3.2-6.6,3.6c-0.5,0.1-0.9,0.6-1.5,0.9c1.6,0.1,3.1-0.2,4.3,0.2c1.4,0.5,2.1,0.2,3-0.6
		C121.1,118.4,120.9,117,120.5,115.4L120.5,115.4z M43.7,83.7c10.7-0.9,15.6,5.6,20.9,11.7c-0.6-1.2-1.4-2.3-2.2-3.4
		c-2.9-3.8-6.7-6.7-11.6-8.3C48.7,83,46.3,83.2,43.7,83.7L43.7,83.7z M119.1,121.4c0.5,1.3,0.9,2.4,1.3,3.6c1.9-1,3.4-3.6,3.2-5.3
		C122,120.2,120.5,120.8,119.1,121.4L119.1,121.4z M109.8,123.2c0.4-0.6,1-1.1,1.3-1.7c0.2-0.5,0.2-1.1,0.1-1.6
		c-0.2-0.7-0.6-1.4-1-2c-0.4-0.7-0.8-1.5-1.2-2.3C109.3,118.2,109.5,120.6,109.8,123.2L109.8,123.2z M57.4,134c-1.2-2.2-2.7-2.3-6-1
		c0,0.1,0,0.3-0.1,0.4C53.3,133.6,55.1,133.8,57.4,134L57.4,134z"/>
	<path class="st2" d="M54.1,121.6c2.5-0.8,4.3-0.2,5.3,2c1.1,2.3,2.2,3.3,4.2,3.5c-0.4-1.3-0.9-2.5-1.2-3.8c-0.7-2.9,0-5.5,1.1-8.3
		c1.6-3.9,3.9-7,7.6-9.5c2.2-1.5,4.6-2.3,7.4-2.5c2.2-0.1,4.3-0.5,6.4-0.6c3.9-0.2,7.7,0.4,11.1,2.2c3.2,1.7,6.1,3.8,9,5.8
		c0.4,0.3,0.7,0.9,0.9,1.4c0.4,0.9,0.7,1.9,1.1,2.7c2.2,3.9,2.3,7.8,0.2,11.7c-0.1,0.1-0.1,0.3-0.1,0.4c0,0.1,0.1,0.2,0.2,0.4
		c2-0.6,3.2-1.9,3.9-3.5c0.6-1.2,1.2-2.3,3-2.4c-0.7,0.9-1.4,1.8-2.1,2.8c-0.7,1-1.3,2.2-2.2,3.1c-1.2,1.1-2.1,2-0.9,3.5
		c-1.8,0.8-2.5,2-2.3,3.6c0,0.4,0.7,0.7,1,1.1c0.2-0.3,0.5-0.7,0.7-1c0.3-0.6,0.3-1.6,0.8-1.9c1.8-0.9,1.8-1.9,1-2.9
		c1.3-1.7,2.5-3.2,3.5-4.8c1.4-2.4,1.5-2.5,3.3-0.3c1.1-0.8,1-1.8-0.1-2.4c-0.8-0.4-1.8-0.5-2.8-0.7c1.2-0.7,2.3-0.2,3.1,0.5
		c1.1,0.9,1.8,2.2,1.2,3.5c-0.5,1.1-1.3,2.2-2.2,3.1c-1,1-2.2,1.8-3.2,2.8c-1.6,1.5-2.1,3.4-2.2,5.4c0,1-0.1,2-0.6,2.8
		c-0.3,0.6-1.3,1.2-2.1,1.3c-0.5,0.1-1.3-0.7-1.6-1.3c-0.4-0.5-0.3-1.3-0.5-1.9c-0.1-0.3-0.5-0.6-0.7-0.9c-0.3,0.3-0.7,0.7-0.8,1
		c-0.1,0.5,0,1.1,0.2,1.5c0.7,1.3,0.3,2.6-0.1,3.9c-2.8,9.2-7.3,17.7-12.7,25.9c-1.1,1.7-2.3,3.4-3.7,4.8c-1.8,1.8-5.3,2-6.9,0
		c-2.5-2.9-4.6-6-6.6-9.2c-2.4-3.9-4.6-7.8-6.5-11.9c-1.6-3.4-2.6-6.9-3.7-10.4c-0.1-0.4,0.2-1,0.3-1.4c0.3-1,0.7-1.9,0.9-2.9
		c0.1-0.3-0.4-0.7-0.6-1.1c-0.3,0.3-0.7,0.6-0.8,1c-0.3,0.7-0.3,1.5-0.7,2c-0.3,0.5-1.1,1.2-1.6,1.2c-0.7-0.1-1.6-0.6-2-1.2
		c-0.4-0.8-0.6-1.8-0.6-2.7c0-2.8-1.2-4.9-3.5-6.8c-1.4-1.1-2.7-2.4-3.8-3.8c-1-1.3-0.9-2.8,0.6-4l0.1,2c0.2,0.1,0.5,0.1,0.7,0.2
		c0.1-0.2,0.1-0.4,0.3-0.6c1.1-1.5,1.4-1.4,2.4,0.1c1.2,1.8,2.5,3.6,3.9,5.6c-0.8,0.9-0.8,1.9,0.9,2.8c0.5,0.3,0.7,1.1,1,1.7
		c0.2,0.4,0.4,0.9,0.6,1.3c0.3-0.5,1.1-1.1,1-1.5c-0.4-1.2-1.1-2.3-1.6-3.2c-0.3-1.1-0.4-2-0.8-2.8c-0.9-1.5-2.2-2.7-3.1-4.2
		C56.9,121.5,56.9,121.5,54.1,121.6L54.1,121.6z M100.9,123.5c0.4-1.5,1.1-3.1-1.3-4.2c1.8-1,3.3-1.9,4.9-2.7c1.1-0.5,1.8,0,1.6,1.1
		c-0.1,0.6-0.5,1.2-0.7,1.9c0.4-0.1,0.8-0.4,0.8-0.6c0.2-0.9,0.6-2,0.2-2.7c-0.3-0.5-1.9-0.7-2.7-0.5c-1.5,0.4-2.9,1.1-4.1,1.8
		c-3.1,1.8-6.1,3.8-9.2,5.7c-0.3-0.4-0.5-0.8-1.1-1.5c-0.1,1-0.2,1.6-0.3,2.4c-0.5-0.1-1.2,0-1.6-0.2c-0.5-0.3-0.7-0.9-1-1.3
		c-0.1,0-0.2,0.1-0.3,0.1c0.2,0.6,0.4,1.2,0.6,1.9h-3c0.1-0.7,0.2-1.1,0.2-1.6c-0.6,1.2-1.4,1.7-2.9,1.4v-2.1c-0.1,0-0.3,0-0.4,0
		c-0.2,0.4-0.4,0.7-0.7,1.2c-0.8-0.5-1.5-0.9-2.2-1.3c-2.8-1.8-5.5-3.6-8.4-5.3c-1.2-0.7-2.8-1-4.2-1.2c-0.5-0.1-1.5,0.6-1.6,1
		c-0.3,1.1-0.1,2.3,1.1,3.1c-0.3-1-0.5-2-0.7-2.9c0.2-0.1,0.4-0.3,0.6-0.4c1.9,1,3.8,2,5.7,2.9c-1.5,1.7-1.3,4.3,0.4,5.5
		c0.9,0.6,1.8,1.3,2.8,1.4c0.9,0.1,2-0.6,3-0.8c1.5-0.4,3-0.7,4.5-1.1c1.8,0.5,3.4,1.2,5.4,0.6c2-0.6,4-1.3,6-0.1
		c2.2,1.3,4.4,1.5,6.6,0.1C99.7,124.6,100.2,124,100.9,123.5c0.8-0.3,1.6-0.6,2.3-1c0.9-0.4,1.8-0.8,2.7-1.2
		c-0.1-0.2-0.2-0.3-0.3-0.5C104.1,121.9,101.5,121.3,100.9,123.5L100.9,123.5z M92.9,129.1c-0.1,0.1-0.2,0.3-0.3,0.4
		c0.2,0.2,0.4,0.3,0.6,0.4c0.9,1.1,1.4,3.2-0.4,3.6c-2.1,0.5-2.7,1.9-3.1,3.5c-0.5,1.7-0.8,3.5-1.3,5.3c-0.3,1-0.9,1.7-2.2,1.6
		c-1.2,0-1.9-0.7-2.2-1.7c-0.5-1.9-0.9-3.8-1.4-5.7c-0.4-1.3-1-2.4-2.7-3c-0.7-0.3-1.5-1.2-1.6-1.9c-0.1-0.6,0.8-1.2,1.3-1.9
		c0.1-0.1,0.1-0.3,0.2-0.4c-1.3-0.1-1.9,0.1-2.4,1.2c-0.4,0.8-0.6,1.7-1.1,2.4c-0.4,0.5-1.2,1.2-1.6,1.1c-1.9-0.5-3.9-1.1-5.6-1.9
		c-1.2-0.6-1.9-1.7-2.9-2.6c-0.1,0.1-0.2,0.2-0.4,0.3c0.1,0.2,0.2,0.5,0.3,0.7c1.2,1.7,2.5,3.3,1.6,5.5c-0.5,1.3,0.1,2.6,1.5,4
		c-0.2-1.5-0.3-2.6-0.4-3.6c1.7,3.3,3.6,6.6,3,10.4c0.2,0,0.3,0,0.5-0.1c0.1-0.3,0.3-0.6,0.6-1.2c0.4,1.2,0.7,2.1,0.9,2.9
		c0.8,3.7,2.5,7,5.2,9.9c3.6,3.8,9.7,3.9,13-0.1c1.4-1.7,2.4-3.7,3.8-5.5c2.4-3,3.8-6.4,5-9.9c0.7-1.9,0.6-4.2,2.9-5.5
		c0.5-0.3,0.8-1.2,0.9-1.8c0.3-2.1,0.6-4.3,0.8-6.4c-0.7,0.6-0.8,1.6-1.4,2c-1.6,0.9-3.3,1.7-5,2.4c-1.9,0.8-2.7,0.4-3.4-1.3
		c-0.3-0.6-0.4-1.3-0.8-1.9C94.1,129.8,93.4,129.5,92.9,129.1L92.9,129.1z M91.4,112.3c-2.2,0.3-4.1,0.5-6,0.8
		c-1.6,0.3-2.9,0.1-4.3-0.7c-1.3-0.7-2.7-1.2-4.1-1.5c-1.1-0.2-2.4-0.1-3.6-0.1c0,0.2,0,0.3,0,0.5c2.7-0.6,4.9,0.3,7.1,1.5
		C83.3,114.3,88.3,114.2,91.4,112.3L91.4,112.3z M93.2,108c-2,0.2-4.1,0.7-6.1,0.7c-2,0-4.1-0.4-6.1-0.7
		C85,109.2,89.2,110.1,93.2,108L93.2,108z M87.9,162.1c-2.1-0.3-3.7-0.5-5.7-0.7C84,163.4,85.7,163.6,87.9,162.1L87.9,162.1z
		 M82.6,120.7c-1.5-1.6-3-3.3-4.5-4.9C78.4,117.7,80.5,120,82.6,120.7L82.6,120.7z M64.2,122.5c1.8,1.3,3.2,1.3,4.3,0.3
		C67.2,122.8,65.9,122.7,64.2,122.5L64.2,122.5z"/>
	<path class="st2" d="M110.9,116.2c-0.6-0.9-1.1-1.8-1.8-2.6c-1.2-1.5-2.2-3.2-3.7-4.4c-2.5-2-5.2-3.9-8.1-5.5
		c-4.2-2.3-8.9-3.2-13.9-2.5c-1,0.1-2.1,0.3-3.1,0.3c-8.4,0.1-13.4,4.3-17.1,10.4c-1.2,1.9-2.4,3.8-3.7,5.8
		c-0.9-3.9-1.7-7.7-2.5-11.5c-0.1-0.3,0.1-0.7,0.3-1c3.6-4.7,7.5-9.1,12.9-12.4c7.9-4.8,16.6-6.3,26.1-5.1c4.6,0.6,7.9,2.8,11.3,5.2
		c0.7,0.5,1.3,1.2,2.1,1.6c3.3,2,4.1,5.1,5.1,8.1c0.1,0.2,0.1,0.6-0.1,0.7c-1.7,1.5-1.2,3.6-1.5,5.4c-0.5,2.5-1.1,4.9-1.6,7.3
		C111.3,116.1,111.1,116.2,110.9,116.2L110.9,116.2z M99,94.9c4.6,3.2,9.1,6.3,13.7,9.5C111.9,101.7,103.3,95.8,99,94.9L99,94.9z
		 M58.2,108c0.1,0.1,0.2,0.2,0.3,0.3c2.5-1.7,4.9-3.5,7.4-5.2C62.8,104.1,60.4,105.9,58.2,108L58.2,108z M100.8,101.5
		c3.3,0.8,6.5,1.7,9.8,2.5C107.7,102,104.3,101.6,100.8,101.5L100.8,101.5z M85.3,97.9c-2.9-0.4-6.3-0.3-9.1,0.8
		C79.2,98.5,82.5,98.2,85.3,97.9L85.3,97.9z M84.5,91.8c-0.1-0.1-0.1-0.2-0.2-0.3c-2.6,0.7-5.2,1.3-7.8,2c0,0.1,0.1,0.3,0.1,0.4
		C79.3,93.1,81.9,92.4,84.5,91.8L84.5,91.8z M59.8,111c0,0,0.1,0.1,0.2,0.1c1.2-1.1,2.3-2.1,3.5-3.2C62.2,109,61,110,59.8,111
		L59.8,111z"/>
	<path class="st2" d="M103.4,175.1c0,3.9,0.3,7.9-0.1,11.9c-0.3,4-1.2,7.9-1.9,12.2c-5.1-2.3-9.2-5.2-12.6-8.9
		c-3.3-3.7-5.4-7.9-6.3-12.6c-0.2,0-0.3,0-0.5,0c-1,1.3-2,2.6-3.1,3.8c-4.7,5.2-9.4,10.4-14.3,15.5c-1.9,1.9-4.3,3.4-7.7,3.9
		c-2.7-10.1-1-19.5,5.4-28.3c-6.4,1.1-12.1-0.7-17.6-2.5c-1.9-0.6-3.8-1.3-5.5-2.3c-1.7-1-3-2.4-4.4-3.8c4.8,2.4,9.9,4,15.1,5.4
		c5.2,1.4,10.4,2.7,16.1,2c-1.6,3.6-3.4,6.9-4.4,10.4c-1.5,5.1-2.6,10.3-3.8,15.5c-0.1,0.4,0.3,1,0.5,1.5c0.5-0.2,1.3-0.3,1.6-0.7
		c6.6-6.9,13.2-13.8,19.8-20.7c0.5-0.5,0.9-1.1,1.6-2c0.7,0.6,1.5,1.1,1.8,1.8c1.6,4.6,4.4,8.5,8,12c2.3,2.3,4.9,4.4,7.3,6.6
		c0.4,0.4,1.3,0.8,1.7,0.7c0.5-0.2,0.9-1,0.9-1.5c0.2-3,0.5-6,0.4-9c-0.2-3.5-0.7-7.1-1.1-10.6c-0.2-1.5-0.4-3-0.6-4.3
		c3.4,1.6,6.8,3.4,10.4,4.8c5.1,2,10.4,3.9,15.6,5.7c0.5,0.2,1.2,0.1,1.8,0.2c-0.2-0.5-0.3-1.1-0.6-1.5c-3.4-3.9-6.8-7.8-10.2-11.7
		c-0.4-0.5-0.9-1-1.6-1.8c8,1.1,14.9-0.8,21.5-3.9c0.1,0.1,0.2,0.2,0.3,0.3c-1.5,1.1-3,2.4-4.7,3.3c-3,1.7-6.5,2.2-10.1,2.1
		c-1.2,0-2.4,0-3.8,0.2c4.9,4.7,9.4,9.4,11.6,16C120.6,182.6,110.8,181.4,103.4,175.1L103.4,175.1z"/>
	<path class="st2" d="M103.4,63.7c-0.6-0.6-1.1-1.1-1.7-1.6c-2-1.7-4.5-2.3-7.2-1.8c-3.3,0.7-5,3.4-4.2,6.3c0.9,3.3,3.8,5.3,6.1,7.7
		c2.5,2.7,5,5.5,7.4,8.3c0.8,0.9,0.9,2-0.1,3.1c-0.6,0.6-0.9,1.4-1.4,2.1c-5.1-1.7-10.4-1.9-15.9-1.7c-0.5-4.8-1.1-9.5-1.5-14.2
		c-0.3-4.1,1.3-7.8,4.1-11c3.2-3.6,10.2-3.8,13.3-0.3c0.7,0.8,1.1,2,1.6,2.9C103.6,63.6,103.5,63.6,103.4,63.7L103.4,63.7z
		 M98.3,84.6c-1.9-1.6-5.2-1.7-7.1-0.3C93.5,84.4,95.7,84.5,98.3,84.6L98.3,84.6z"/>
	<path class="st2" d="M63.1,96.2c-2.2,2.7-4.3,5.1-6.3,7.6c-0.1,0-0.2,0-0.3,0c0-0.7,0.1-1.4,0.1-2.2c-1.8,0.4-1-0.7-1-1.2
		c-0.7-0.3-1.2-0.6-2-1c0-0.2-0.1-0.8-0.2-1c-0.7,0.1-1.3,0.2-1.9,0.3v-1.9c-0.1,0-0.2,0-0.4,0c-0.3,0.7-0.6,1.3-0.9,2
		c-0.1,0-0.3-0.1-0.4-0.1c-0.2-0.6-0.3-1.1-0.6-1.9c-0.7,0.8,0.1,2.4-1.9,2c-0.1-0.4-0.3-0.9-0.6-1.6c-0.3,0.5-0.6,0.8-0.8,1.2
		c-0.2-0.3-0.3-0.5-0.5-0.8c-0.4,1.1-0.8,2.1-1.1,3.1c-0.2,0-0.4-0.1-0.6-0.1c-0.1-0.6-0.2-1.1-0.3-1.9c0,0.9-0.1,1.7-0.1,2.4
		c-0.2,0-0.4,0-0.4,0c-0.7-3.6-1.5-7.3-0.6-11c1.3-5.4,5.2-6.9,10.5-4C57.3,88.6,60.9,91.9,63.1,96.2L63.1,96.2z"/>
	<path class="st2" d="M50.3,119.1c-1.6-0.3-3.4-0.6-5.3-1c-0.4-3-0.7-6-1.1-9c-0.1-0.7-0.2-1.4-0.3-2.1c-0.5-3.1,1.8-6,5.3-6.6
		c2.3-0.4,4.6,0.6,5.4,2.6c0.9,2.3,1.5,4.6,2.1,6.9c0.4,1.6,0.7,3.2,1.2,4.8c0.8,2.4,0.3,2.9-2.4,2.6c-2-0.2-3.2-1.1-3.6-2.8
		c-0.1-0.4-0.5-0.7-0.8-1c-0.3,0.3-0.9,0.7-0.9,1C50,115.9,50.2,117.4,50.3,119.1L50.3,119.1z"/>
	<path class="st2" d="M119.4,91c-0.5-0.6-1-1.3-1.6-1.9c-0.1,0-0.2,0.1-0.2,0.1c0.3,1,0.5,1.9,0.8,2.9c-0.2,0.1-0.4,0.1-0.6,0.2
		l-1.6-1.7c-0.1,0.1-0.3,0.1-0.4,0.1c0.3,0.8,0.6,1.6,0.9,2.4c-0.1,0.1-0.2,0.1-0.3,0.2c-0.4-0.3-0.8-0.6-1.3-1v0.9
		c-0.3-0.1-0.6-0.2-1-0.4c0.2,0.6,0.4,1.1,0.6,1.6c-0.7-0.2-1.4-0.4-2.4-0.7c0.1,0.6,0.2,0.9,0.3,1.5c-2.8-2.1-5.5-4.1-8.4-6.2
		c3.3-3.5,5.6-7.6,10-10.2c2-1.2,2.7-1,3.2,1c0.7,2.4,1.6,4.9,1.7,7.3C119.4,88.5,119.1,89.7,119.4,91L119.4,91z"/>
	<path class="st2" d="M33.2,134.1c1-0.7,2-1.4,2.8-2.2c0.3-0.3,0.7-1.1,0.5-1.3c-0.4-0.4-1.1-0.7-1.7-0.8c-0.4,0-0.9,0.5-1.2,0.9
		c-0.5,0.9-0.9,1.9-1.4,3.1c-2.3-2.9-2.3-5.1-0.4-6.5c1.7-1.1,5.3-0.9,6.9,0.5c1.7,1.5,2,4,0.7,5.5
		C37.7,135.2,35.6,135.5,33.2,134.1L33.2,134.1z"/>
	<path class="st2" d="M111.8,79.3c0.9-1.5,3.8-2.8,5.4-2.3c0.8,0.2,1.5,0.9,1.9,1.6c1.8,3.6,2.3,7.4,3,11.2
		c0.9,5.2,2.1,10.4,3.6,15.5c1,3.3,2.9,6.3,4.4,9.5c0.2,0.4,0.4,0.7,0.6,1.1c-0.2,0.1-0.3,0.2-0.5,0.2c-0.8-1.2-1.6-2.4-2.4-3.7
		c-3.6-5.8-4.5-12.2-6-18.5c-0.7-3-0.9-6.1-1.6-9.1c-0.5-2.1-1.3-4.3-2-6.3c-0.4-1-1.3-1.3-2.4-0.9
		C114.5,78.1,113.2,78.8,111.8,79.3L111.8,79.3L111.8,79.3L111.8,79.3z"/>
	<path class="st2" d="M138.1,125c-0.4-1.2-0.6-2.2-1.1-3.1c-0.2-0.4-0.8-0.9-1.1-0.9c-0.6,0.1-1.3,0.5-1.6,1c-0.2,0.3,0.2,1,0.5,1.3
		c0.7,0.7,1.6,1.3,2.5,2c-2.5,0.9-4.8,0.4-5.7-1.1c-1.1-1.7-0.6-3.9,1.1-4.9c2-1.2,4.2-1.1,5.5,0.3C140,121.3,140,123.3,138.1,125
		L138.1,125z"/>
	<path class="st2" d="M105.4,74.7c0.1-1.1,0.3-2,0.3-2.9c0-0.4,0-1.1-0.3-1.3c-0.3-0.2-1.2-0.2-1.5,0.1c-0.3,0.3-0.5,1-0.4,1.5
		c0.1,0.8,0.5,1.7,0.8,2.6c-2.5-0.5-3.8-2-3.7-3.9c0.1-1.6,1.9-2.9,4-3.1c2.4-0.2,3.5,0.4,4,2.2C109.1,72,108,73.7,105.4,74.7
		L105.4,74.7z"/>
	<path class="st2" d="M46.1,119.8h6.3c-0.5-1-0.8-1.7-1.4-2.9c2.3,1.7,4.5,2.1,6.9,1.6c0.8-0.2,1.7,1.1,2.4-0.2
		c0.4-0.7,0.7-1.5,1.3-2.6c-0.3,2.8-0.5,5.1-0.7,7.4c-0.4-0.4-0.9-0.9-1.3-1.3c-2.4-2.8-6.7-2.5-8.5,0.7c-1,1.7-1.1,1.7-2.6,0.3
		C47.7,122,46.9,120.9,46.1,119.8L46.1,119.8z"/>
	<path class="st2" d="M50.7,207c1-0.5,1.9-0.9,2.7-1.4c0.4-0.3,0.9-0.7,1-1.1c0.1-0.2-0.4-0.9-0.6-0.9c-0.5,0-1.1,0.1-1.5,0.4
		c-0.9,0.6-1.6,1.3-2.4,2c-1.1-1.8-0.8-3.4,0.8-4.2c1.2-0.7,4.7-0.5,5.6,0.4c1,1,1,3.4,0,4.5C54.8,208,52.8,208.3,50.7,207L50.7,207
		z"/>
	<path class="st2" d="M42.3,122.1c1.1-7.2-1.4-14.2-2-21.3c-0.2-3.2-0.8-6.3-0.9-9.5c-0.1-2.3,0.9-4.5,2.5-6.4
		c-0.4,1.4-0.9,2.8-1.2,4.3c-0.9,4.2,0,8.3,0.5,12.4c0.7,5.7,1.4,11.5,2,17.3c0.1,0.9-0.1,1.7-0.2,2.6c0,0.2-0.2,0.4-0.3,0.7
		C42.6,122.2,42.5,122.2,42.3,122.1L42.3,122.1z"/>
	<path class="st1" d="M54.1,121.6c2.9-0.2,2.9-0.1,4.3,2.2c0.9,1.5,2.2,2.7,3.1,4.2c0.5,0.7,0.5,1.7,0.8,2.8c0.5,0.9,1.2,2,1.6,3.2
		c0.1,0.4-0.6,1-1,1.5c-0.2-0.4-0.4-0.9-0.6-1.3c-0.3-0.6-0.5-1.4-1-1.7c-1.7-0.8-1.6-1.8-0.9-2.8c-1.4-2-2.7-3.7-3.9-5.6
		c-1-1.5-1.3-1.6-2.4-0.1c-0.1,0.2-0.2,0.4-0.3,0.6c-0.2-0.1-0.5-0.1-0.7-0.2c0-0.7-0.1-1.4-0.1-2C53.4,122.1,53.7,121.9,54.1,121.6
		L54.1,121.6z"/>
	<path class="st2" d="M120,125.6c1.4,0.3,2.5,0.5,3.7,0.7c-1.5,2.2-3.9,3.3-6.5,4.8h3.6c-2.3,2.2-4.6,3.3-8.1,3.4
		c0.8-1.1,1.4-2,2.2-2.8C116.8,129.8,119.4,128.4,120,125.6L120,125.6z"/>
	<path class="st2" d="M45.3,125.7c1.8-0.4,3.5-0.7,5.3-1.1c0.1,2.9,2.3,4.7,4.7,6.6C52,131.8,46.8,128.8,45.3,125.7L45.3,125.7z"/>
	<path class="st2" d="M136.8,189.9c-0.5-0.7-0.9-1.3-1.4-1.7c-0.3-0.2-0.9-0.4-1.2-0.3c-0.3,0.1-0.7,0.6-0.7,0.9
		c0,0.3,0.5,0.6,0.9,0.8c0.4,0.3,0.9,0.5,1.5,0.7c-1.7,0.8-3.6,0.6-4.5-0.5c-1-1.1-0.9-2.6,0.4-3.8c1.2-1.1,3.2-1.5,4.3-0.8
		C137.3,186,137.7,188.2,136.8,189.9L136.8,189.9z"/>
	<path class="st2" d="M149.4,154.5c-1.2,0.5-2.2,0.8-3.1,1.2c-0.5,0.2-0.9,0.6-1.2,0.9c-0.1,0.1,0.2,0.7,0.4,0.7
		c0.5,0,1-0.1,1.4-0.2c0.9-0.4,1.7-0.9,2.5-1.3c0.3,1.7-0.3,2.9-1.8,3.3c-1.6,0.5-3.6-0.4-4.6-2c-0.9-1.4,0-2.3,1-3.1
		C145.5,152.7,147.3,152.8,149.4,154.5L149.4,154.5z"/>
	<path class="st2" d="M27.1,158.9c0.8,0.7,1.6,1.4,2.4,1.9c0.4,0.3,1.1,0.5,1.5,0.3c0.5-0.2,0.9-0.8,1-1.2c0-0.3-0.6-0.7-1.1-0.9
		c-0.9-0.4-1.8-0.6-2.8-0.9c1.9-1.2,3.6-1.2,4.8-0.1c1.1,1,1.3,2.9,0.4,3.8c-1,1-4.3,1.5-5.6,0.9C26.6,162.1,26.3,160.5,27.1,158.9
		L27.1,158.9z"/>
	<path class="st2" d="M103,205.9c-2.8,0.2-3.7-0.2-4.3-2c-0.5-1.5,0.3-2.4,1.7-3c1.4-0.6,2.6-0.3,3.6,0.7c1.2,1.1,1.2,2.4,0,3.9
		c-0.3-0.6-0.5-1.2-0.9-1.6c-0.3-0.3-0.7-0.7-1.1-0.8c-0.2-0.1-0.9,0.4-0.9,0.5c0.1,0.4,0.4,0.7,0.7,1
		C102.1,205.1,102.4,205.4,103,205.9L103,205.9z"/>
	<path class="st2" d="M120.5,115.4c0.4,1.6,0.6,3-0.8,4.2c-0.9,0.8-1.6,1.1-3,0.6c-1.2-0.4-2.7-0.2-4.3-0.2c0.5-0.3,0.9-0.8,1.5-0.9
		C116.6,118.6,118.9,117.6,120.5,115.4L120.5,115.4z"/>
	<path class="st2" d="M43.7,83.7c2.6-0.5,4.9-0.7,7.2,0c4.8,1.7,8.7,4.5,11.5,8.3c0.8,1.1,1.6,2.1,2.2,3.3
		C59.3,89.3,54.4,82.8,43.7,83.7L43.7,83.7z"/>
	<path class="st2" d="M119.1,121.3c1.4-0.6,2.9-1.2,4.4-1.8c0.3,1.8-1.3,4.4-3.2,5.3C119.9,123.8,119.5,122.6,119.1,121.3
		L119.1,121.3z"/>
	<path class="st2" d="M109.8,123.2c-0.3-2.5-0.5-5-0.8-7.6c0.4,0.8,0.8,1.5,1.2,2.3c0.3,0.7,0.8,1.3,1,2c0.2,0.5,0.2,1.1-0.1,1.6
		C110.8,122.1,110.2,122.6,109.8,123.2L109.8,123.2z"/>
	<path class="st2" d="M57.4,134c-2.3-0.2-4.1-0.4-6-0.6c0-0.1,0-0.3,0.1-0.4C54.8,131.7,56.2,131.8,57.4,134L57.4,134z"/>
	<path class="st2" d="M111.8,79.4c-2.8,3.1-5.6,6.2-8.3,9.3C105.9,85.3,107.8,81.6,111.8,79.4L111.8,79.4L111.8,79.4z"/>
	<path class="st1" d="M92.8,129.1c0.6,0.4,1.3,0.7,1.7,1.2c0.4,0.5,0.6,1.2,0.8,1.9c0.7,1.7,1.5,2.1,3.4,1.3c1.7-0.7,3.4-1.4,5-2.4
		c0.6-0.4,0.7-1.3,1.4-2c-0.3,2.1-0.5,4.3-0.8,6.4c-0.1,0.6-0.4,1.5-0.9,1.8c-2.2,1.4-2.2,3.6-2.9,5.5c-1.2,3.5-2.7,6.9-5,9.9
		c-1.4,1.8-2.3,3.8-3.8,5.5c-3.3,4-9.4,3.9-13,0.1c-2.8-2.9-4.4-6.2-5.2-9.9c-0.2-0.9-0.5-1.7-0.9-2.9c-0.3,0.6-0.5,0.9-0.6,1.2
		c-0.2,0-0.3,0-0.5,0.1c0.7-3.9-1.2-7.1-3-10.4c0.1,1.1,0.3,2.1,0.4,3.7c-1.4-1.3-2-2.7-1.5-4c0.9-2.3-0.3-3.9-1.6-5.5
		c-0.1-0.2-0.2-0.4-0.3-0.7c0.1-0.1,0.2-0.2,0.4-0.3c0.9,0.9,1.7,2,2.9,2.6c1.7,0.9,3.7,1.4,5.6,1.9c0.4,0.1,1.3-0.6,1.6-1.1
		c0.5-0.7,0.7-1.6,1.1-2.4c0.5-1.1,1.1-1.3,2.4-1.2c-0.1,0.1-0.1,0.3-0.2,0.4c-0.5,0.6-1.3,1.3-1.3,1.9c0.1,0.7,0.8,1.7,1.6,1.9
		c1.7,0.6,2.3,1.6,2.7,3c0.5,1.9,0.9,3.8,1.4,5.7c0.3,1,1,1.6,2.2,1.7c1.3,0,1.9-0.6,2.2-1.6c0.5-1.7,0.8-3.5,1.3-5.3
		c0.4-1.6,1-3,3.1-3.5c1.8-0.4,1.4-2.5,0.4-3.6c-0.2-0.2-0.4-0.3-0.6-0.4C92.6,129.4,92.8,129.3,92.8,129.1L92.8,129.1z M94.3,133.8
		c-3.3,0.3-4,2.3-4,4.7c-0.1,1.4-0.3,2.9-0.5,4.3c-0.3,1.9-1.4,2.6-3.7,2.7c-2.2,0-3.3-0.8-3.6-2.6c-0.2-1.3-0.5-2.6-0.5-4
		c-0.1-2.6-0.8-4.8-4.3-5.2c-1.7,3.1-4.6,2.1-7.8,1.1c1.3,2,2.4,3.6,3.4,5.2c0.9-0.5,1.6-0.8,2.3-1.2c0.1,0.1,0.2,0.2,0.2,0.3
		c-0.4,0.6-0.7,1.1-1.1,1.7c1,0.7,2,1.3,2.9,2c5.1,3.9,11.5,3.6,15.8,1.1c1.7-1,4.2-1.9,3.4-4.6c0.7,0.3,1.1,0.4,1.8,0.7
		c1.3-2.1,2.5-4.1,3.8-6.2C98.4,135.8,96,135.8,94.3,133.8L94.3,133.8z M78.1,151.3c0.1,0.9,0.2,1.5,0.3,2.2
		c0.4,2.7,3.4,5.1,6.4,5.1c3.8,0,6.9-2.1,7.2-5.1c0-0.3-0.6-1-0.9-1c-1-0.1-2,0.1-3,0.1C84.8,152.7,81.4,152.8,78.1,151.3
		L78.1,151.3z M75.6,144.2c0.8,2,1.6,4,2.6,6.3c0.1-0.8,0.2-1.1,0.2-1c0.4,0.3,1.2,1.4,1.7,1.3c1-0.2,1.5,0.6,2.1,0.6
		c2.9,0,5.8-0.1,8.7-0.3c0.6,0,1.3-0.5,1.6-0.9c1-1.7,1.8-3.5,2.7-5.2C88.5,148.6,81.8,149.9,75.6,144.2L75.6,144.2z"/>
	<path class="st1" d="M81,124.4c1.4,0.3,2.3-0.2,2.9-1.4c-0.1,0.5-0.1,0.9-0.2,1.6h3c-0.2-0.7-0.4-1.3-0.6-1.9
		c0.1,0,0.2-0.1,0.3-0.1c0.3,0.5,0.5,1,1,1.3c0.4,0.3,1.1,0.2,1.6,0.2c0.1-0.9,0.2-1.5,0.3-2.4c0.5,0.8,0.8,1.1,1.1,1.5
		c3.1-2,6.1-3.9,9.2-5.7c1.3-0.8,2.7-1.4,4.2-1.8c0.8-0.2,2.4,0,2.7,0.5c0.4,0.7,0,1.8-0.2,2.7c0,0.3-0.4,0.5-0.8,0.6
		c0.2-0.6,0.6-1.2,0.7-1.9c0.2-1.1-0.5-1.6-1.6-1.1c-1.6,0.8-3.1,1.7-4.9,2.7c2.4,1.1,1.7,2.7,1.3,4.2l0-0.1
		c-0.6,0.5-1.2,1.1-1.9,1.6c-2.2,1.5-4.4,1.3-6.6-0.1c-2-1.2-4.1-0.5-6,0.1C84.4,125.6,82.8,124.9,81,124.4L81,124.4L81,124.4
		L81,124.4z"/>
	<path class="st1" d="M81,124.4c-1.5,0.4-3,0.7-4.5,1.1c-1,0.3-2,0.9-3,0.8c-1-0.1-2-0.8-2.8-1.4c-1.7-1.2-2-3.8-0.4-5.5
		c-1.9-1-3.8-2-5.7-2.9c-0.2,0.1-0.4,0.3-0.6,0.4c0.2,1,0.5,1.9,0.7,2.9c-1.2-0.8-1.5-2-1.1-3.1c0.1-0.5,1.1-1.1,1.6-1
		c1.5,0.2,3,0.5,4.2,1.2c2.9,1.6,5.6,3.5,8.4,5.3c0.7,0.4,1.3,0.8,2.2,1.3c0.3-0.5,0.5-0.8,0.7-1.2c0.1,0,0.3,0,0.4,0
		C81,123,81,123.7,81,124.4L81,124.4L81,124.4z"/>
	<path class="st1" d="M114.2,121.3c0.9,0.2,2,0.2,2.7,0.7c1,0.6,1.2,1.5,0.1,2.4c-1.8-2.1-1.9-2-3.3,0.3c-1,1.6-2.2,3.1-3.5,4.8
		c0.8,1,0.8,2.1-1,2.9c-0.5,0.3-0.5,1.2-0.8,1.9c-0.2,0.4-0.4,0.7-0.7,1c-0.4-0.4-1-0.7-1-1.1c-0.1-1.5,0.6-2.8,2.3-3.6
		c-1.2-1.5-0.2-2.5,0.9-3.5c0.9-0.9,1.5-2.1,2.2-3.1C112.9,123.1,113.6,122.2,114.2,121.3L114.2,121.3L114.2,121.3z"/>
	<path class="st1" d="M91.4,112.3c-3.2,1.9-8.1,2-11,0.5c-2.1-1.1-4.4-2.1-7.1-1.5c0-0.2,0-0.3,0-0.5c1.2,0,2.4-0.2,3.6,0.1
		c1.4,0.3,2.9,0.8,4.1,1.5c1.4,0.8,2.7,0.9,4.3,0.7C87.3,112.8,89.3,112.6,91.4,112.3L91.4,112.3z"/>
	<path class="st1" d="M93.2,108c-4.1,2.2-8.2,1.2-12.3,0c2,0.2,4.1,0.7,6.1,0.7C89.1,108.6,91.2,108.2,93.2,108L93.2,108z"/>
	<path class="st1" d="M87.9,162.1c-2.2,1.5-3.9,1.3-5.7-0.7C84.1,161.6,85.8,161.8,87.9,162.1L87.9,162.1z"/>
	<path class="st1" d="M82.6,120.7c-2-0.8-4.1-3-4.6-4.9C79.5,117.5,81.1,119.1,82.6,120.7L82.6,120.7z"/>
	<path class="st1" d="M100.9,123.4L100.9,123.4c0.7-2.2,3.2-1.6,4.7-2.6c0.1,0.2,0.2,0.3,0.3,0.5c-0.9,0.4-1.8,0.8-2.7,1.2
		C102.4,122.8,101.7,123.1,100.9,123.4L100.9,123.4z"/>
	<path class="st1" d="M64.2,122.5c1.7,0.1,3,0.2,4.3,0.3C67.4,123.9,66,123.8,64.2,122.5L64.2,122.5z"/>
	<path class="st1" d="M99,94.9c4.4,0.9,13,6.8,13.7,9.5C108.1,101.2,103.5,98,99,94.9L99,94.9z"/>
	<path class="st1" d="M58.2,108c2.2-2.1,4.6-3.9,7.7-4.9c-2.5,1.8-4.9,3.5-7.4,5.3C58.4,108.2,58.3,108.1,58.2,108L58.2,108z"/>
	<path class="st1" d="M100.8,101.4c3.5,0.2,6.9,0.6,9.7,2.5C107.3,103.1,104.1,102.3,100.8,101.4L100.8,101.4z"/>
	<path class="st1" d="M85.3,97.9c-2.8,0.2-6.1,0.5-9.1,0.8C79.1,97.6,82.4,97.5,85.3,97.9L85.3,97.9z"/>
	<path class="st1" d="M84.5,91.7c-2.6,0.7-5.2,1.4-7.9,2.1c0-0.1-0.1-0.3-0.1-0.4c2.6-0.7,5.2-1.3,7.8-2
		C84.4,91.5,84.5,91.6,84.5,91.7L84.5,91.7z"/>
	<path class="st1" d="M59.8,111c1.2-1,2.4-2,3.7-3.1c-1.2,1.1-2.3,2.1-3.5,3.2C59.9,111.1,59.8,111,59.8,111L59.8,111z"/>
	<path class="st1" d="M98.4,84.6c-2.6-0.1-4.8-0.2-7.1-0.3C93.2,83,96.5,83,98.4,84.6L98.4,84.6z"/>
	<path class="st2" d="M94.3,133.8c1.7,2,4,2,8-0.1c-1.2,2-2.5,4.1-3.8,6.2c-0.7-0.3-1.2-0.5-1.8-0.7c0.8,2.7-1.7,3.6-3.4,4.6
		c-4.3,2.6-10.6,2.9-15.8-1.1c-0.9-0.7-1.9-1.3-2.9-2c0.4-0.6,0.7-1.1,1.1-1.7c-0.1-0.1-0.2-0.2-0.2-0.3c-0.7,0.3-1.4,0.7-2.3,1.2
		c-1-1.6-2.1-3.2-3.4-5.2c3.2,1,6,2.1,7.8-1.1c3.5,0.5,4.2,2.6,4.3,5.2c0.1,1.3,0.3,2.6,0.5,4c0.3,1.8,1.5,2.6,3.6,2.6
		c2.3,0,3.4-0.8,3.7-2.7c0.2-1.4,0.5-2.8,0.5-4.3C90.4,136,91.1,134.1,94.3,133.8L94.3,133.8z"/>
	<path class="st2" d="M78.1,151.3c3.3,1.5,6.7,1.4,10.1,1.3c1,0,2-0.2,3-0.1c0.4,0,1,0.7,0.9,1c-0.3,2.9-3.5,5.1-7.2,5.1
		c-3.1,0-6.1-2.4-6.4-5.1C78.3,152.9,78.2,152.2,78.1,151.3L78.1,151.3z"/>
	<path class="st2" d="M75.6,144.2c6.2,5.7,12.9,4.4,19.5,0.9c-0.9,1.7-1.7,3.5-2.7,5.2c-0.3,0.4-1,0.9-1.6,0.9
		c-2.9,0.2-5.8,0.3-8.7,0.3c-0.6,0-1.1-0.8-2.1-0.6c-0.5,0.1-1.3-0.9-1.7-1.3c0-0.1,0,0.2-0.2,1C77.2,148.2,76.4,146.2,75.6,144.2
		L75.6,144.2z"/>
</g>
</svg>
