<?xml version="1.0" encoding="utf-8"?>
<!-- Generator: Adobe Illustrator 27.9.0, SVG Export Plug-In . SVG Version: 6.00 Build 0)  -->
<svg version="1.1" id="Layer_1" xmlns="http://www.w3.org/2000/svg" xmlns:xlink="http://www.w3.org/1999/xlink" x="0px" y="0px"
	 viewBox="0 0 175.7 263.6" style="enable-background:new 0 0 175.7 263.6;" xml:space="preserve">
<style type="text/css">
	.st0{fill:#FFFFFF;fill-opacity:0;}
	.st1{fill:#FFFFFF;}
	.st2{fill:none;stroke:#FFFFFF;stroke-width:2.56;stroke-linecap:square;stroke-miterlimit:10;}
	.st3{fill:#272727;stroke:#000000;}
</style>
<symbol  id="SS3" viewBox="-11.2 -11.2 22.3 22.3">
	<rect x="-11.2" y="-11.2" class="st0" width="22.3" height="22.3"/>
	<path class="st1" d="M0-11.2C2.2-5.6,7.9-2.2,7.9,4.1c0,1.8-1.5,3.3-3.3,3.3S1.2,6,1.2,4.1C1.2,4,1.1,3.9,1,3.9S0.8,4,0.8,4.1
		c0,4.5,1.1,4.8,2.1,7h-5.8c1-2.2,2.1-2.6,2.1-7C-0.8,4-0.9,3.9-1,3.9S-1.2,4-1.2,4.1c0,1.8-1.5,3.3-3.3,3.3S-7.9,6-7.9,4.1
		C-7.9-2.2-2.2-5.6,0-11.2z"/>
</symbol>
<symbol  id="VS3" viewBox="-9.5 -16 19.1 32">
	<path class="st2" d="M-7.7-10.2v-4.5H6.7L-3.3-2.6c0.3-0.3,1.9-1.3,3.5-1.3c6.4,0,8,3.8,8,8.6c0,6.4-2.6,9.9-9,9.9
		s-7.4-5.1-7.4-5.1"/>
</symbol>
<path class="st3" d="M23.5,9.3h128.8c7.8,0,14.1,6.4,14.1,14.2v216.6c0,7.8-6.3,14.2-14.1,14.2H23.5c-7.8,0-14.1-6.4-14.1-14.2V23.5
	C9.3,15.7,15.6,9.3,23.5,9.3z"/>
<g>
	<defs>
		<rect id="SVGID_1_" x="14.6" y="23.2" width="23.8" height="23.9"/>
	</defs>
	<clipPath id="SVGID_00000127034300466467182650000000117750703385254542_">
		<use xlink:href="#SVGID_1_"  style="overflow:visible;"/>
	</clipPath>
	
		<g transform="matrix(1 0 0 1 1.907349e-06 0)" style="clip-path:url(#SVGID_00000127034300466467182650000000117750703385254542_);">
		
			<use xlink:href="#VS3"  width="19.1" height="32" x="-9.5" y="-16" transform="matrix(0.7447 0 0 0.7468 26.3123 35.0998)" style="overflow:visible;"/>
	</g>
</g>
<g>
	<defs>
		<rect id="SVGID_00000010288682495267687410000006020352818677286291_" x="16.5" y="50.8" width="19.9" height="20"/>
	</defs>
	<clipPath id="SVGID_00000111189526166977086200000002047003365754463647_">
		<use xlink:href="#SVGID_00000010288682495267687410000006020352818677286291_"  style="overflow:visible;"/>
	</clipPath>
	
		<g transform="matrix(1 0 0 1 1.907349e-06 -3.814697e-06)" style="clip-path:url(#SVGID_00000111189526166977086200000002047003365754463647_);">
		
			<use xlink:href="#SS3"  width="22.3" height="22.3" x="-11.2" y="-11.2" transform="matrix(0.7447 0 0 0.7468 26.5115 60.7783)" style="overflow:visible;"/>
	</g>
</g>
<g>
	<defs>
		<rect id="SVGID_00000047049442126465296020000008105179368464707487_" x="67.8" y="35.7" width="40.2" height="40.3"/>
	</defs>
	<clipPath id="SVGID_00000029753271870755516460000007406623759965435546_">
		<use xlink:href="#SVGID_00000047049442126465296020000008105179368464707487_"  style="overflow:visible;"/>
	</clipPath>
	<g style="clip-path:url(#SVGID_00000029753271870755516460000007406623759965435546_);">
		
			<use xlink:href="#SS3"  width="22.3" height="22.3" x="-11.2" y="-11.2" transform="matrix(0.7447 0 0 0.7468 77.7346 45.7175)" style="overflow:visible;"/>
	</g>
</g>
<g>
	<defs>
		<polygon id="SVGID_00000167387063876007086060000007456582572836716735_" points="71.1,111.5 71.1,151.9 90.6,151.9 84.5,135.1 
			90.6,128.3 84.5,111.5 		"/>
	</defs>
	<clipPath id="SVGID_00000145768723376400463640000001092882643959972505_">
		<use xlink:href="#SVGID_00000167387063876007086060000007456582572836716735_"  style="overflow:visible;"/>
	</clipPath>
	<g style="clip-path:url(#SVGID_00000145768723376400463640000001092882643959972505_);">
		
			<use xlink:href="#SS3"  width="22.3" height="22.3" x="-11.2" y="-11.2" transform="matrix(0.7447 0 0 0.7468 77.7346 121.6429)" style="overflow:visible;"/>
	</g>
</g>
<g>
	<defs>
		<rect id="SVGID_00000132786718780770446160000008003426050987251841_" x="137.3" y="216.6" width="23.8" height="23.9"/>
	</defs>
	<clipPath id="SVGID_00000132791372124603978240000002283363266535688093_">
		<use xlink:href="#SVGID_00000132786718780770446160000008003426050987251841_"  style="overflow:visible;"/>
	</clipPath>
	<g style="clip-path:url(#SVGID_00000132791372124603978240000002283363266535688093_);">
		
			<use xlink:href="#VS3"  width="19.1" height="32" x="-9.5" y="-16" transform="matrix(-0.7447 0 0 -0.7468 149.4357 228.5222)" style="overflow:visible;"/>
	</g>
</g>
<g>
	<defs>
		<rect id="SVGID_00000057118989545529686570000010955616250105618829_" x="139.3" y="192.8" width="19.9" height="20"/>
	</defs>
	<clipPath id="SVGID_00000133506766816658109020000010904039800775514300_">
		<use xlink:href="#SVGID_00000057118989545529686570000010955616250105618829_"  style="overflow:visible;"/>
	</clipPath>
	<g style="clip-path:url(#SVGID_00000133506766816658109020000010904039800775514300_);">
		
			<use xlink:href="#SS3"  width="22.3" height="22.3" x="-11.2" y="-11.2" transform="matrix(-0.7447 0 0 -0.7468 149.2365 202.8437)" style="overflow:visible;"/>
	</g>
</g>
<g>
	<defs>
		<rect id="SVGID_00000123415120570959309910000003537728738987689875_" x="67.8" y="187.6" width="40.2" height="40.3"/>
	</defs>
	<clipPath id="SVGID_00000051356658499877460150000007569184818533849258_">
		<use xlink:href="#SVGID_00000123415120570959309910000003537728738987689875_"  style="overflow:visible;"/>
	</clipPath>
	
		<g transform="matrix(1 0 0 1 0 1.525879e-05)" style="clip-path:url(#SVGID_00000051356658499877460150000007569184818533849258_);">
		
			<use xlink:href="#SS3"  width="22.3" height="22.3" x="-11.2" y="-11.2" transform="matrix(-0.7447 0 0 -0.7468 98.0134 217.9045)" style="overflow:visible;"/>
	</g>
</g>
<g>
	<defs>
		<polygon id="SVGID_00000088115254891848127170000006257484860658061476_" points="104.6,152.1 104.6,111.7 85.2,111.7 91.2,128.6 
			85.2,135.3 91.2,152.1 		"/>
	</defs>
	<clipPath id="SVGID_00000035522509260800242170000013924975596745766843_">
		<use xlink:href="#SVGID_00000088115254891848127170000006257484860658061476_"  style="overflow:visible;"/>
	</clipPath>
	<g style="clip-path:url(#SVGID_00000035522509260800242170000013924975596745766843_);">
		
			<use xlink:href="#SS3"  width="22.3" height="22.3" x="-11.2" y="-11.2" transform="matrix(-0.7447 0 0 -0.7468 98.0134 141.9791)" style="overflow:visible;"/>
	</g>
</g>
</svg>
