<?xml version="1.0" encoding="utf-8"?>
<!-- Generator: Adobe Illustrator 27.9.0, SVG Export Plug-In . SVG Version: 6.00 Build 0)  -->
<svg version="1.1" id="Layer_1" xmlns="http://www.w3.org/2000/svg" xmlns:xlink="http://www.w3.org/1999/xlink" x="0px" y="0px"
	 viewBox="0 0 175.7 263.6" style="enable-background:new 0 0 175.7 263.6;" xml:space="preserve">
<style type="text/css">
	.st0{fill:#FFFFFF;fill-opacity:0;}
	.st1{fill:#FFFFFF;}
	.st2{fill:none;stroke:#FFFFFF;stroke-width:2.56;stroke-linecap:square;stroke-miterlimit:10;}
	.st3{fill:#272727;stroke:#000000;}
</style>
<symbol  id="SS6" viewBox="-11.2 -11.2 22.3 22.3">
	<rect x="-11.2" y="-11.2" class="st0" width="22.3" height="22.3"/>
	<path class="st1" d="M0-11.2C2.2-5.6,7.9-2.2,7.9,4.1c0,1.8-1.5,3.3-3.3,3.3S1.2,6,1.2,4.1C1.2,4,1.1,3.9,1,3.9S0.8,4,0.8,4.1
		c0,4.5,1.1,4.8,2.1,7h-5.8c1-2.2,2.1-2.6,2.1-7C-0.8,4-0.9,3.9-1,3.9S-1.2,4-1.2,4.1c0,1.8-1.5,3.3-3.3,3.3S-7.9,6-7.9,4.1
		C-7.9-2.2-2.2-5.6,0-11.2z"/>
</symbol>
<symbol  id="VS6" viewBox="-9.3 -16 18.6 32">
	<path class="st2" d="M-8,3.2c0-4.4,3.6-8,8-8s8,3.6,8,8v3.5c0,4.4-3.6,8-8,8s-8-3.6-8-8V-6.7c0-4.4,3.6-8,8-8
		c4.8,0,5.8,1.9,6.4,2.7"/>
</symbol>
<path class="st3" d="M23.5,9.3h128.8c7.8,0,14.1,6.4,14.1,14.2v216.6c0,7.8-6.3,14.2-14.1,14.2H23.5c-7.8,0-14.1-6.4-14.1-14.2V23.5
	C9.3,15.7,15.6,9.3,23.5,9.3z"/>
<g>
	<defs>
		<rect id="SVGID_1_" x="14.6" y="23.2" width="23.8" height="23.9"/>
	</defs>
	<clipPath id="SVGID_00000150813745499090740750000015534642559176330654_">
		<use xlink:href="#SVGID_1_"  style="overflow:visible;"/>
	</clipPath>
	<g style="clip-path:url(#SVGID_00000150813745499090740750000015534642559176330654_);">
		
			<use xlink:href="#VS6"  width="18.6" height="32" x="-9.3" y="-16" transform="matrix(0.7447 0 0 0.7468 26.5111 35.0998)" style="overflow:visible;"/>
	</g>
</g>
<g>
	<defs>
		<rect id="SVGID_00000024698483593504891920000000034554998991465389_" x="16.5" y="50.8" width="19.9" height="20"/>
	</defs>
	<clipPath id="SVGID_00000033334516221349617330000010306707014490997430_">
		<use xlink:href="#SVGID_00000024698483593504891920000000034554998991465389_"  style="overflow:visible;"/>
	</clipPath>
	
		<g transform="matrix(1 0 0 1 1.907349e-06 -3.814697e-06)" style="clip-path:url(#SVGID_00000033334516221349617330000010306707014490997430_);">
		
			<use xlink:href="#SS6"  width="22.3" height="22.3" x="-11.2" y="-11.2" transform="matrix(0.7447 0 0 0.7468 26.5115 60.7783)" style="overflow:visible;"/>
	</g>
</g>
<g>
	<defs>
		<rect id="SVGID_00000039127031377173409890000005876716309888893325_" x="35.6" y="35.7" width="40.2" height="40.3"/>
	</defs>
	<clipPath id="SVGID_00000001665987336799041550000011575729309879649200_">
		<use xlink:href="#SVGID_00000039127031377173409890000005876716309888893325_"  style="overflow:visible;"/>
	</clipPath>
	<g style="clip-path:url(#SVGID_00000001665987336799041550000011575729309879649200_);">
		
			<use xlink:href="#SS6"  width="22.3" height="22.3" x="-11.2" y="-11.2" transform="matrix(0.7447 0 0 0.7468 45.5884 45.7175)" style="overflow:visible;"/>
	</g>
</g>
<g>
	<defs>
		<rect id="SVGID_00000052797625584512376140000005648874416016798087_" x="99.9" y="35.7" width="40.2" height="40.3"/>
	</defs>
	<clipPath id="SVGID_00000114066525520430805130000007023480170484536754_">
		<use xlink:href="#SVGID_00000052797625584512376140000005648874416016798087_"  style="overflow:visible;"/>
	</clipPath>
	<g style="clip-path:url(#SVGID_00000114066525520430805130000007023480170484536754_);">
		
			<use xlink:href="#SS6"  width="22.3" height="22.3" x="-11.2" y="-11.2" transform="matrix(0.7447 0 0 0.7468 109.8809 45.7175)" style="overflow:visible;"/>
	</g>
</g>
<g>
	<defs>
		<rect id="SVGID_00000029012955088031270520000011393373835293591440_" x="35.6" y="111.6" width="40.2" height="40.3"/>
	</defs>
	<clipPath id="SVGID_00000160161502360409233070000014606648105245244843_">
		<use xlink:href="#SVGID_00000029012955088031270520000011393373835293591440_"  style="overflow:visible;"/>
	</clipPath>
	<g style="clip-path:url(#SVGID_00000160161502360409233070000014606648105245244843_);">
		
			<use xlink:href="#SS6"  width="22.3" height="22.3" x="-11.2" y="-11.2" transform="matrix(0.7447 0 0 0.7468 45.5884 121.6429)" style="overflow:visible;"/>
	</g>
</g>
<g transform="rotate(180)">
	<g>
		<defs>
			<rect id="SVGID_00000024705308042464465010000013999926889301157049_" x="-161.2" y="-240.5" width="23.8" height="23.9"/>
		</defs>
		<clipPath id="SVGID_00000136400350581153469980000006239736661003206784_">
			<use xlink:href="#SVGID_00000024705308042464465010000013999926889301157049_"  style="overflow:visible;"/>
		</clipPath>
		<g style="clip-path:url(#SVGID_00000136400350581153469980000006239736661003206784_);">
			
				<use xlink:href="#VS6"  width="18.6" height="32" x="-9.3" y="-16" transform="matrix(0.7447 0 0 0.7468 -149.2369 -228.5222)" style="overflow:visible;"/>
		</g>
	</g>
	<g>
		<defs>
			<rect id="SVGID_00000123406465373572196110000005944553218281669284_" x="-159.2" y="-212.8" width="19.9" height="20"/>
		</defs>
		<clipPath id="SVGID_00000135649545372351683370000016700289663285232053_">
			<use xlink:href="#SVGID_00000123406465373572196110000005944553218281669284_"  style="overflow:visible;"/>
		</clipPath>
		<g style="clip-path:url(#SVGID_00000135649545372351683370000016700289663285232053_);">
			
				<use xlink:href="#SS6"  width="22.3" height="22.3" x="-11.2" y="-11.2" transform="matrix(0.7447 0 0 0.7468 -149.2365 -202.8437)" style="overflow:visible;"/>
		</g>
	</g>
	<g>
		<defs>
			<rect id="SVGID_00000172425832635365444490000012013667957587308195_" x="-140.1" y="-227.9" width="40.2" height="40.3"/>
		</defs>
		<clipPath id="SVGID_00000068678168665534044680000009849188303470275500_">
			<use xlink:href="#SVGID_00000172425832635365444490000012013667957587308195_"  style="overflow:visible;"/>
		</clipPath>
		
			<g transform="matrix(1 0 0 1 0 -1.525879e-05)" style="clip-path:url(#SVGID_00000068678168665534044680000009849188303470275500_);">
			
				<use xlink:href="#SS6"  width="22.3" height="22.3" x="-11.2" y="-11.2" transform="matrix(0.7447 0 0 0.7468 -130.1597 -217.9045)" style="overflow:visible;"/>
		</g>
	</g>
	<g>
		<defs>
			<rect id="SVGID_00000162320356784237103200000015179165707365279153_" x="-75.8" y="-227.9" width="40.2" height="40.3"/>
		</defs>
		<clipPath id="SVGID_00000119832184788544400910000011025410815457087933_">
			<use xlink:href="#SVGID_00000162320356784237103200000015179165707365279153_"  style="overflow:visible;"/>
		</clipPath>
		
			<g transform="matrix(1 0 0 1 0 -1.525879e-05)" style="clip-path:url(#SVGID_00000119832184788544400910000011025410815457087933_);">
			
				<use xlink:href="#SS6"  width="22.3" height="22.3" x="-11.2" y="-11.2" transform="matrix(0.7447 0 0 0.7468 -65.8672 -217.9045)" style="overflow:visible;"/>
		</g>
	</g>
	<g>
		<defs>
			<rect id="SVGID_00000090993924251320481850000008115782758152774534_" x="-140.1" y="-152" width="40.2" height="40.3"/>
		</defs>
		<clipPath id="SVGID_00000029026679307693810170000013696104711784347283_">
			<use xlink:href="#SVGID_00000090993924251320481850000008115782758152774534_"  style="overflow:visible;"/>
		</clipPath>
		<g style="clip-path:url(#SVGID_00000029026679307693810170000013696104711784347283_);">
			
				<use xlink:href="#SS6"  width="22.3" height="22.3" x="-11.2" y="-11.2" transform="matrix(0.7447 0 0 0.7468 -130.1597 -141.9791)" style="overflow:visible;"/>
		</g>
	</g>
</g>
</svg>
