<?xml version="1.0" encoding="utf-8"?>
<!-- Generator: Adobe Illustrator 27.9.0, SVG Export Plug-In . SVG Version: 6.00 Build 0)  -->
<svg version="1.1" id="Layer_1" xmlns="http://www.w3.org/2000/svg" xmlns:xlink="http://www.w3.org/1999/xlink" x="0px" y="0px"
	 viewBox="0 0 175.7 263.6" style="enable-background:new 0 0 175.7 263.6;" xml:space="preserve">
<style type="text/css">
	.st0{fill:#FFFFFF;fill-opacity:0;}
	.st1{fill:#FFFFFF;}
	.st2{fill:none;stroke:#FFFFFF;stroke-width:2.56;stroke-linecap:square;stroke-miterlimit:10;}
	.st3{fill:#272727;stroke:#000000;}
</style>
<symbol  id="SS5" viewBox="-11.2 -11.2 22.3 22.3">
	<rect x="-11.2" y="-11.2" class="st0" width="22.3" height="22.3"/>
	<path class="st1" d="M0-11.2C2.2-5.6,7.9-2.2,7.9,4.1c0,1.8-1.5,3.3-3.3,3.3S1.2,6,1.2,4.1C1.2,4,1.1,3.9,1,3.9S0.8,4,0.8,4.1
		c0,4.5,1.1,4.8,2.1,7h-5.8c1-2.2,2.1-2.6,2.1-7C-0.8,4-0.9,3.9-1,3.9S-1.2,4-1.2,4.1c0,1.8-1.5,3.3-3.3,3.3S-7.9,6-7.9,4.1
		C-7.9-2.2-2.2-5.6,0-11.2z"/>
</symbol>
<symbol  id="VS5" viewBox="-9.6 -16 19.1 32">
	<path class="st2" d="M5.6-14.7h-11l-1.1,11c0,0,0.3-2.7,6.7-2.7c3.2,0,8.2,3.8,8.2,10.2S5.9,14.7-0.5,14.7S-8,9.1-8,9.1"/>
</symbol>
<path class="st3" d="M23.5,9.3h128.8c7.8,0,14.1,6.4,14.1,14.2v216.6c0,7.8-6.3,14.2-14.1,14.2H23.5c-7.8,0-14.1-6.4-14.1-14.2V23.5
	C9.3,15.7,15.6,9.3,23.5,9.3z"/>
<g>
	<defs>
		<rect id="SVGID_1_" x="14.6" y="23.2" width="23.8" height="23.9"/>
	</defs>
	<clipPath id="SVGID_00000095299717118272008280000016888452542096347578_">
		<use xlink:href="#SVGID_1_"  style="overflow:visible;"/>
	</clipPath>
	<g style="clip-path:url(#SVGID_00000095299717118272008280000016888452542096347578_);">
		
			<use xlink:href="#VS5"  width="19.1" height="32" x="-9.6" y="-16" transform="matrix(0.7447 0 0 0.7468 26.4269 35.0998)" style="overflow:visible;"/>
	</g>
</g>
<g>
	<defs>
		<rect id="SVGID_00000163773529565829458430000001566354901592527240_" x="16.5" y="50.8" width="19.9" height="20"/>
	</defs>
	<clipPath id="SVGID_00000170957238149000705350000006659369015096463295_">
		<use xlink:href="#SVGID_00000163773529565829458430000001566354901592527240_"  style="overflow:visible;"/>
	</clipPath>
	
		<g transform="matrix(1 0 0 1 1.907349e-06 -3.814697e-06)" style="clip-path:url(#SVGID_00000170957238149000705350000006659369015096463295_);">
		
			<use xlink:href="#SS5"  width="22.3" height="22.3" x="-11.2" y="-11.2" transform="matrix(0.7447 0 0 0.7468 26.5115 60.7783)" style="overflow:visible;"/>
	</g>
</g>
<g>
	<defs>
		<rect id="SVGID_00000164509072615098590690000000920894525198007211_" x="35.6" y="35.7" width="40.2" height="40.3"/>
	</defs>
	<clipPath id="SVGID_00000108987230539499067920000014662083204510702771_">
		<use xlink:href="#SVGID_00000164509072615098590690000000920894525198007211_"  style="overflow:visible;"/>
	</clipPath>
	<g style="clip-path:url(#SVGID_00000108987230539499067920000014662083204510702771_);">
		
			<use xlink:href="#SS5"  width="22.3" height="22.3" x="-11.2" y="-11.2" transform="matrix(0.7447 0 0 0.7468 45.5884 45.7175)" style="overflow:visible;"/>
	</g>
</g>
<g>
	<defs>
		<rect id="SVGID_00000171680564776342234250000004257839542648412606_" x="99.9" y="35.7" width="40.2" height="40.3"/>
	</defs>
	<clipPath id="SVGID_00000075858274715885808570000017160695411394111396_">
		<use xlink:href="#SVGID_00000171680564776342234250000004257839542648412606_"  style="overflow:visible;"/>
	</clipPath>
	<g style="clip-path:url(#SVGID_00000075858274715885808570000017160695411394111396_);">
		
			<use xlink:href="#SS5"  width="22.3" height="22.3" x="-11.2" y="-11.2" transform="matrix(0.7447 0 0 0.7468 109.8809 45.7175)" style="overflow:visible;"/>
	</g>
</g>
<g>
	<defs>
		<polygon id="SVGID_00000016779528225778473880000000312447854847134084_" points="71.1,111.5 71.1,151.9 90.6,151.9 84.5,135.1 
			90.6,128.3 84.5,111.5 		"/>
	</defs>
	<clipPath id="SVGID_00000101797931253023920370000006240189416270594985_">
		<use xlink:href="#SVGID_00000016779528225778473880000000312447854847134084_"  style="overflow:visible;"/>
	</clipPath>
	<g style="clip-path:url(#SVGID_00000101797931253023920370000006240189416270594985_);">
		
			<use xlink:href="#SS5"  width="22.3" height="22.3" x="-11.2" y="-11.2" transform="matrix(0.7447 0 0 0.7468 77.7346 121.6429)" style="overflow:visible;"/>
	</g>
</g>
<g transform="rotate(180)">
	<g>
		<defs>
			<rect id="SVGID_00000142882216466353331430000012970974803992234117_" x="-161.2" y="-240.5" width="23.8" height="23.9"/>
		</defs>
		<clipPath id="SVGID_00000054250396933276920290000001344217125203969685_">
			<use xlink:href="#SVGID_00000142882216466353331430000012970974803992234117_"  style="overflow:visible;"/>
		</clipPath>
		<g style="clip-path:url(#SVGID_00000054250396933276920290000001344217125203969685_);">
			
				<use xlink:href="#VS5"  width="19.1" height="32" x="-9.6" y="-16" transform="matrix(0.7447 0 0 0.7468 -149.3211 -228.5222)" style="overflow:visible;"/>
		</g>
	</g>
	<g>
		<defs>
			<rect id="SVGID_00000065768070300123391380000012724144602907263395_" x="-159.2" y="-212.8" width="19.9" height="20"/>
		</defs>
		<clipPath id="SVGID_00000167393127213859113910000005005938962375662246_">
			<use xlink:href="#SVGID_00000065768070300123391380000012724144602907263395_"  style="overflow:visible;"/>
		</clipPath>
		<g style="clip-path:url(#SVGID_00000167393127213859113910000005005938962375662246_);">
			
				<use xlink:href="#SS5"  width="22.3" height="22.3" x="-11.2" y="-11.2" transform="matrix(0.7447 0 0 0.7468 -149.2365 -202.8437)" style="overflow:visible;"/>
		</g>
	</g>
	<g>
		<defs>
			<rect id="SVGID_00000041296170197793987940000008564034628945711779_" x="-140.1" y="-227.9" width="40.2" height="40.3"/>
		</defs>
		<clipPath id="SVGID_00000108301175079454467550000015944729282493555898_">
			<use xlink:href="#SVGID_00000041296170197793987940000008564034628945711779_"  style="overflow:visible;"/>
		</clipPath>
		
			<g transform="matrix(1 0 0 1 0 -1.525879e-05)" style="clip-path:url(#SVGID_00000108301175079454467550000015944729282493555898_);">
			
				<use xlink:href="#SS5"  width="22.3" height="22.3" x="-11.2" y="-11.2" transform="matrix(0.7447 0 0 0.7468 -130.1597 -217.9045)" style="overflow:visible;"/>
		</g>
	</g>
	<g>
		<defs>
			<rect id="SVGID_00000037691736901830313080000015282846478507991444_" x="-75.8" y="-227.9" width="40.2" height="40.3"/>
		</defs>
		<clipPath id="SVGID_00000029755996936873332890000006911111273947695266_">
			<use xlink:href="#SVGID_00000037691736901830313080000015282846478507991444_"  style="overflow:visible;"/>
		</clipPath>
		
			<g transform="matrix(1 0 0 1 0 -1.525879e-05)" style="clip-path:url(#SVGID_00000029755996936873332890000006911111273947695266_);">
			
				<use xlink:href="#SS5"  width="22.3" height="22.3" x="-11.2" y="-11.2" transform="matrix(0.7447 0 0 0.7468 -65.8672 -217.9045)" style="overflow:visible;"/>
		</g>
	</g>
	<g>
		<defs>
			<polygon id="SVGID_00000110459522873789320520000008052030405270711683_" points="-104.6,-152.1 -104.6,-111.7 -85.2,-111.7 
				-91.2,-128.6 -85.2,-135.3 -91.2,-152.1 			"/>
		</defs>
		<clipPath id="SVGID_00000154389153839435772710000001469011903498626202_">
			<use xlink:href="#SVGID_00000110459522873789320520000008052030405270711683_"  style="overflow:visible;"/>
		</clipPath>
		<g style="clip-path:url(#SVGID_00000154389153839435772710000001469011903498626202_);">
			
				<use xlink:href="#SS5"  width="22.3" height="22.3" x="-11.2" y="-11.2" transform="matrix(0.7447 0 0 0.7468 -98.0134 -141.9791)" style="overflow:visible;"/>
		</g>
	</g>
</g>
</svg>
