<?xml version="1.0" encoding="utf-8"?>
<!-- Generator: Adobe Illustrator 27.9.0, SVG Export Plug-In . SVG Version: 6.00 Build 0)  -->
<svg version="1.1" id="Layer_1" xmlns="http://www.w3.org/2000/svg" xmlns:xlink="http://www.w3.org/1999/xlink" x="0px" y="0px"
	 viewBox="0 0 175.7 263.6" style="enable-background:new 0 0 175.7 263.6;" xml:space="preserve">
<style type="text/css">
	.st0{fill:none;stroke:#000000;stroke-width:0.6129;stroke-linecap:round;stroke-linejoin:round;stroke-miterlimit:10;}
	.st1{fill:none;stroke:#000000;stroke-width:0.3065;stroke-linecap:round;stroke-linejoin:round;stroke-miterlimit:10;}
	.st2{fill:#FFFFFF;fill-opacity:0;}
	.st3{fill:#FFFFFF;}
	
		.st4{fill:none;stroke:#FFFFFF;stroke-width:12;stroke-linecap:round;stroke-linejoin:round;stroke-miterlimit:10;stroke-opacity:0;}
	.st5{fill:none;stroke:#FFFFFF;stroke-width:12;stroke-linecap:round;stroke-linejoin:round;stroke-miterlimit:10;}
	.st6{fill:none;stroke:#FFFFFF;stroke-width:2.56;stroke-linecap:square;stroke-miterlimit:10;}
	.st7{fill:#272727;stroke:#000000;}
	.st8{fill:none;stroke:#FFFFFF;}
</style>
<symbol  id="SK1" viewBox="-41.2 -60 82.3 120">
	<path d="M-10-60c-0.6,0-1.2,0.9-1.2,1.9c0,0,0,0,0,0c0,1.1,0.5,1.9,1.2,1.9c0,0,0,0,0,0c0.6,0,1.2-0.9,1.2-1.9c0,0,0,0,0,0
		C-8.8-59.1-9.3-60-10-60z M4.5-59.6c-0.6,0-1.2,0.9-1.2,1.9c0,0,0,0,0,0c0,1.1,0.5,1.9,1.2,1.9c0.6,0,1.2-0.9,1.2-1.9
		C5.6-58.7,5.1-59.6,4.5-59.6C4.5-59.6,4.5-59.6,4.5-59.6z M6-46.8c0,0-0.1,0-0.1,0c-1,0-1.5,1.2-1.5,1.2s0.7-0.8,1.5-0.8
		c1.6,0-0.1,3.3-1.5,3.4c-1,0-3.1-2.6-5.1-2.6v1c2,0,3.7,2,5.1,2C6.7-42.5,8.6-46.7,6-46.8z M-15-46.8c-2.6,0.1-2.6,5.4,0.6,5.2
		c2.8-0.1,6-3,10.6-3v-1C-9.4-45.3-10-43-14-42.3c-2.6,0.5-2.7-3.6-1-3.8c1-0.1,1,1.8,1,1.8C-14-44.3-13-46.8-15-46.8z M-32.5-37.4
		l-4.1,0.6c0.2,0.6,0.4,1.3,0.5,1.9l2-0.5c0.1,0,0.3-0.1,0.4-0.1c0.8,0,1.4,0.6,1.5,1.3c0.1,0.8-0.4,1.5-1.1,1.7l-2,0.5
		c0,0.1,0.1,0.2,0.1,0.4l2-0.5c0.1,0,0.3-0.1,0.4-0.1c0.8,0,1.4,0.6,1.5,1.4c0.1,0.8-0.4,1.5-1.2,1.7l-2,0.5c0,0.1,0.1,0.3,0.1,0.4
		l2-0.5c0.1,0,0.3-0.1,0.4,0c0.8,0,1.4,0.6,1.5,1.4c0.1,0.8-0.4,1.5-1.2,1.7l-2,0.5c0,0.1,0.1,0.2,0.1,0.3l2-0.4c0.1,0,0.3,0,0.4,0
		c0.8,0,1.4,0.6,1.5,1.4c0.1,0.8-0.5,1.5-1.2,1.6l-2,0.4c0,0.1,0.1,0.2,0.1,0.4l2-0.4c0.1,0,0.2,0,0.3,0c0.8,0,1.5,0.5,1.6,1.3
		s-0.4,1.5-1.2,1.7l-2,0.4c0,0.1,0.1,0.2,0.1,0.4l2-0.4c0.1,0,0.2,0,0.3,0c0.8,0,1.5,0.6,1.6,1.4s-0.5,1.5-1.3,1.7l-2,0.4
		c0,0.2,0.1,0.4,0.1,0.6l2-0.3c0.1,0,0.2,0,0.3,0c0.8,0,1.5,0.6,1.5,1.4c0.1,0.8-0.5,1.5-1.3,1.6l-2,0.3c0,0.2,0.1,0.3,0.1,0.5
		l2-0.3c0.1,0,0.2,0,0.3,0c0.8,0,1.5,0.6,1.5,1.4c0,0.8-0.5,1.5-1.3,1.6l-2,0.3c0,0.1,0,0.3,0.1,0.4l2-0.2c0.1,0,0.2,0,0.3,0
		c0.8,0,1.4,0.7,1.5,1.5s-0.6,1.5-1.4,1.6l-2,0.2c0,0.3,0.1,0.6,0.1,0.9l4.1,0.4C-26.8-15.1-29.5-26.5-32.5-37.4z M-9.2-32.2
		c-0.3,0.1-0.6,0-1,0.3c-0.6,0.3-1.1,0.9-1.3,0.5c-0.6,1.1-1.4,0.8-1.7,0.6c-0.6,0.5-0.7,0.5-1.4,0.2c-4.4,9.2-7.3,18.4-9,27.4
		l2.8-0.4l-0.7-0.1c-0.8-0.2-1.3-0.9-1.2-1.7c0.1-0.8,0.8-1.4,1.6-1.4c0.1,0,0.2,0,0.3,0l2,0.4c0-0.1,0-0.1,0-0.2l-2-0.5
		c-0.7-0.2-1.3-0.9-1.2-1.6c0.1-0.8,0.7-1.4,1.5-1.4c0.2,0,0.3,0,0.5,0l2,0.5c0-0.1,0.1-0.2,0.1-0.3l-2-0.5
		c-0.7-0.2-1.2-0.9-1.1-1.7s0.7-1.3,1.5-1.3c0.2,0,0.3,0,0.5,0.1l1.9,0.5c0-0.1,0.1-0.2,0.1-0.4l-1.9-0.6c-0.7-0.2-1.2-0.9-1.1-1.7
		s0.8-1.3,1.5-1.3c0.2,0,0.3,0,0.5,0.1l1.9,0.6c0-0.1,0.1-0.2,0.1-0.3l-1.9-0.7c-0.7-0.2-1.1-0.9-1-1.7c0.1-0.7,0.7-1.3,1.4-1.3
		c0.2,0,0.4,0,0.6,0.1l1.9,0.7c0-0.1,0.1-0.3,0.1-0.4l-1.9-0.7c-0.7-0.3-1.1-1-1-1.7c0.1-0.7,0.8-1.3,1.5-1.3c0.2,0,0.4,0,0.6,0.1
		l1.9,0.7c0-0.1,0.1-0.2,0.1-0.4l-1.9-0.8c-0.7-0.3-1.1-1-0.9-1.7c0.1-0.7,0.8-1.2,1.5-1.2c0.2,0,0.4,0,0.6,0.1l1.9,0.8
		c0-0.1,0.1-0.2,0.1-0.3l-1.8-0.9c-0.7-0.3-1-1-0.9-1.8c0.2-0.7,0.8-1.2,1.6-1.2c0.2,0,0.4,0.1,0.6,0.2l1.8,0.9
		C-10.4-29.9-9.8-31-9.2-32.2z M39.1-25.1l0,25c0.2,0,0.4-0.1,0.6-0.2c0.8,1.6,0,2.5,0,3.6c0,0-1.7,0.9-3.3,1.3
		c-0.5,0.1-0.9,0.2-1.3,0.2c-3,0-5.7-2.7-8.7-2.6c0,0,0.6,0.7,1.1,1.6c2.7,0.4,3.8,2,6,2c0.2,0,0.5,0.1,0.7,0.1l2-0.8l0,0.1
		c5.3-1.3,6.2,1.5,1.4,3.1c-0.3,0.1-0.6,0.2-0.8,0.3c4.6,0,4.5,2.5-0.6,3.3c-0.5,0.1-1,0.1-1.4,0.2l0,0.3c6.2-0.3,6.5,2.7,0.8,3.3
		l-0.3,0.2c5,0,5.1,2.7,0.2,3.3l-0.3,0.5c1.4,0.5,2.4,1.8,2.4,3.3c0,1.6-1.1,3-2.7,3.4c1.4,3.2,4.2,7.9,6.3,11.5v-61.9l0-0.1
		C40.5-24.3,39.8-24.7,39.1-25.1z M28.9-20.7c-6.5,9.5-9.4,17.7-10.6,26.2c1.7,0.7,3.6,1.5,5.5,2c-1.2-0.7-2-1.6-2-3.3
		c0-2.2,1.5-5.1,4.1-5.1c0.9,0,1.9,0.1,3,0.2L28.9-20.7z M-40.2-2.6l-1,1.9l1.4,0.6l-0.4,0.8l-0.5-0.3c-0.4-0.2-0.7,0.4-0.3,0.5
		l1.1,0.6l0.9-2l-1.4-0.6l0.4-0.8c0.3,0.2,0.7,0.3,1,0.5c0.4,0.2,0.8,0.4,1.3,0.5l-0.5,1.1l-0.7,1.7l0.3,0.1
		c0.6,0.3,1.2,0.5,1.8,0.7c0.6,0.2,1.3,0.4,1.9,0.6l0.3,0.1l0.6-2.1l-0.3-0.1c-0.5-0.1-1-0.3-1.5-0.5l0.3-0.9c0.5,0.2,1,0.3,1.5,0.5
		c0.5,0.1,0.9,0.2,1.4,0.4l-0.3,1.2L-33.1,4l0.3,0.1c0.7,0.2,1.3,0.3,2,0.4c0.7,0.1,1.4,0.2,2.1,0.3l0.3,0l0.2-2.1l-0.3,0
		c-0.6-0.1-1.1-0.1-1.7-0.2l0.1-0.9c0.5,0.1,1.1,0.2,1.6,0.2c0.4,0,0.8,0.1,1.2,0.1c0.1,0,0.2,0,0.3,0l0,1.2L-27,4.8l0.3,0
		c0.6,0,1.2,0,1.9,0c0.7,0,1.5-0.1,2.1-0.1l0.3,0l-0.2-2.2l-0.3,0c-0.5,0-1.1,0.1-1.6,0.1V1.8c0.5,0,1,0,1.5-0.1
		c0.6,0,1.2-0.1,1.7-0.2l0.2,1.2l0.2,1.8l0.3,0c0.7-0.1,1.3-0.2,2-0.3c0.6-0.1,1.3-0.2,1.9-0.4l0.3-0.1l-0.4-2.1l-0.3,0.1
		c-0.5,0.1-1,0.2-1.5,0.3l-0.2-0.9c0.5-0.1,1-0.2,1.5-0.3c0.5-0.1,1-0.2,1.5-0.3l0.3,1.2l0.4,1.8l0.3-0.1c0.6-0.1,1.3-0.3,1.9-0.5
		c0.6-0.2,1.2-0.3,1.8-0.5l0.3-0.1l-0.6-2.1l-0.3,0.1c-0.5,0.1-1,0.3-1.4,0.4l-0.2-0.9c0.5-0.1,0.9-0.3,1.4-0.4
		c0.5-0.1,1-0.3,1.5-0.5l1,3.1l0.6-0.2l-0.2-0.6l-1-3.1l-0.3,0.1c-0.6,0.2-1.2,0.4-1.8,0.6c-0.6,0.2-1.1,0.3-1.7,0.5l-0.3,0.1
		l0.6,2.1l0.3-0.1c0.5-0.1,1-0.3,1.5-0.4l0.3,0.9c-0.5,0.1-1,0.3-1.5,0.4c-0.5,0.1-1.1,0.3-1.6,0.4l-0.3-1.2l-0.4-1.8l-0.3,0.1
		c-0.6,0.1-1.2,0.3-1.8,0.4c-0.6,0.1-1.2,0.2-1.8,0.3l-0.3,0l0.4,2.1l0.3-0.1c0.5-0.1,1-0.2,1.6-0.3l0.2,0.9
		c-0.5,0.1-1.1,0.2-1.6,0.3c-0.6,0.1-1.1,0.2-1.7,0.3l-0.2-1.2l-0.2-1.8l-0.3,0c-0.7,0.1-1.3,0.2-2,0.2c-0.6,0-1.2,0.1-1.8,0.1
		l-0.3,0v2.1l0.3,0c0.6,0,1.1,0,1.7-0.1l0.1,0.9c-0.6,0-1.2,0.1-1.7,0.1l0,0l0,0c-0.5,0-1,0-1.5,0l0-1.2l0.1-1.8l-0.3,0
		c-0.2,0-0.4,0-0.6,0c-0.4,0-0.8,0-1.2-0.1C-29,1-29.6,0.9-30.2,0.8l-0.3-0.1l-0.3,2.1l0.3,0.1c0.6,0.1,1.1,0.2,1.7,0.2L-29,4.1
		c-0.6-0.1-1.2-0.1-1.8-0.2c-0.6-0.1-1.1-0.2-1.6-0.3l0.3-1.2l0.4-1.8L-32,0.5c-0.6-0.1-1.1-0.3-1.7-0.4c-0.6-0.2-1.2-0.4-1.7-0.6
		l-0.3-0.1l-0.7,2l0.3,0.1c0.5,0.2,1,0.3,1.6,0.5l-0.3,0.9c-0.5-0.2-1.1-0.3-1.6-0.5c-0.5-0.2-1-0.4-1.5-0.6l0.5-1.1l0.5-1.3
		c0.1-0.1,0.1-0.2,0.1-0.2c0-0.1-0.1-0.3-0.3-0.3c-0.5-0.2-0.9-0.4-1.4-0.6C-39-2-39.5-2.2-39.9-2.4L-40.2-2.6z M-8.4-2.1l-0.9,0.3
		l0.4,1.3L-8.4-2.1z M2.3,14.8c0,2.7,0.1,5.5,0.3,8.3c7.7,3.4,13,11.5,13,20.8c0,5.8-2.1,11.2-5.6,15.3l0.2,0.9
		c1.1-0.2,2.2-0.4,3.3-0.7c0.6-0.1,1.3-0.3,1.9-0.5c1.6-0.4,3.1-0.8,4.7-1.3c2-4.2,3.2-8.8,3.2-13.7C23.3,30.4,14.6,18.4,2.3,14.8z
		 M6.9,17.3c2,0,3.6,1.6,3.6,3.6s-1.6,3.6-3.6,3.6l0,0c-2,0-3.6-1.6-3.6-3.6l0,0C3.4,18.9,5,17.3,6.9,17.3z M13.7,23.3
		c2,0,3.6,1.6,3.6,3.6s-1.6,3.6-3.6,3.6l0,0c-2,0-3.6-1.6-3.6-3.6S11.8,23.3,13.7,23.3z M5.3,30.2c-0.6,0-1.1,0.2-1.5,0.6L3.5,31
		l0.4,1.7l1-0.8c0,0,0,0,0,0c0.1-0.1,0.3-0.2,0.5-0.2c0.4,0,0.6,0.2,0.7,0.5c0.1,0.3,0.1,0.6-0.2,0.8c0,0,0,0,0,0l-1.6,1.4l0.6,3
		l3-1.3c0,0,0,0,0,0c0.1,0,0.2-0.1,0.3-0.1c0.4,0,0.7,0.2,0.8,0.6c0.1,0.4-0.1,0.7-0.5,0.9c0,0,0,0,0,0L5.2,39l0.5,2.4L9.3,41
		c0,0,0,0,0,0c0,0,0,0,0.1,0c0,0,0,0,0.1,0c0,0,0,0,0,0c0.4,0,0.7,0.3,0.7,0.7c0,0.4-0.3,0.7-0.7,0.8c0,0,0,0,0,0L6,42.9l0.6,2.9
		l2.7,0.5c0,0,0,0,0,0c0.4,0.1,0.7,0.5,0.6,0.9c-0.1,0.4-0.5,0.7-0.9,0.6c0,0,0,0,0,0l-2.1-0.4l0.3,1.6l1.5,0.3h0
		c1.2,0.2,2.5-0.6,2.7-1.8c0.2-1.3-0.6-2.5-1.9-2.7l-2.5-0.5l2.5-0.3c1.2-0.1,2.1-1.2,2.1-2.4c0-1.2-1-2.2-2.2-2.2h0
		c-0.1,0-0.3,0-0.4,0l0,0l-1.6,0.2L9,39c1-0.4,1.6-1.5,1.4-2.6c-0.2-1.1-1.2-1.9-2.3-1.8c-0.3,0-0.6,0.1-0.8,0.2c0,0,0,0,0,0
		l-2.1,0.9l1.7-1.5l0,0c0.8-0.7,1-1.7,0.7-2.5c-0.3-0.8-1.1-1.5-2.1-1.5C5.4,30.2,5.3,30.2,5.3,30.2L5.3,30.2z M6.9,47.4l-0.3-1.6
		l-0.1,0L6.9,47.4L6.9,47.4z M6,42.9l-0.3-1.5l-0.2,0L5.8,43L6,42.9z M5.2,39l-0.3-1.5l-0.2,0.1l0.3,1.5L5.2,39z M4.2,34.5l-0.4-1.7
		l-0.1,0.1l0.3,1.8L4.2,34.5z M17.8,31c2,0,3.6,1.6,3.6,3.6l0,0c0,2-1.6,3.6-3.6,3.6l0,0c-2,0-3.6-1.6-3.6-3.6l0,0
		C14.2,32.6,15.8,31,17.8,31L17.8,31z M19.5,40c2,0,3.6,1.6,3.6,3.6l0,0c0,2-1.6,3.6-3.6,3.6l0,0c-2,0-3.6-1.6-3.6-3.6l0,0
		C15.9,41.6,17.5,40,19.5,40L19.5,40z M18.4,48.4c2,0,3.6,1.6,3.6,3.6c0,2-1.6,3.6-3.6,3.6l0,0c-2,0-3.6-1.6-3.6-3.6l0,0
		C14.8,50,16.4,48.4,18.4,48.4z M14.8,56.1c1.4,0,2.7,0.8,3.2,2.1l-6.8,1.7c0,0,0-0.1,0-0.1C11.2,57.7,12.8,56.1,14.8,56.1
		L14.8,56.1z"/>
</symbol>
<symbol  id="SK2" viewBox="-41.9 -65 83.8 129.9">
	<path d="M-11.1-65c-9.5,0-19.6,0.8-30.8,2.4l1.3,2.9c19-2.7,34.6-2.8,50.1-1.2l0.9-3C3.4-64.6-3.7-65-11.1-65z M13.2-33.3
		c0,0.2,0.1,0.4,0.1,0.7c0.7,4.8-0.6,6.8-2.3,6.8l-4.6,0.1C-2.3-11-5.8,3.2-6.1,17.2c-0.4,15.1,2.8,30,7.1,45
		c1.4,0.2,2.4,1.2,2.5,2.8c1.5-0.1,3-0.3,4.5-0.5C3.2,48.4-0.4,32.8,0,17.4c0.4-16,4.9-31.8,17.8-49.1
		C16.2-32.3,14.7-32.8,13.2-33.3L13.2-33.3z M29.6-22c-8.3,11.1-12,20.5-13.5,30.2L19,9.5C20.2,1,23.1-7.2,29.6-16.7L29.6-22z
		 M-41.1-4.5l0.5,3.9c4.9,2.7,9.4,4.2,14.2,4.5c5.8,0.3,11.8-1.1,19.2-3.6l0.9-3.5C-21.7,2-29.5,2.8-41.1-4.5z M17.1,8.7L17,9.3
		c-0.6,5.3,0.3,10.9,2,16.4l5.2,7.7c1.1,3.4,2.2,6.8,2.6,10c2.5,4.6,5.1,8.9,7.5,12.8c0.1,0.1,2-0.7,2-0.7
		c-4-6.5-8.7-14.2-12.2-22.1C20.6,25.3,18.2,17,19,9.5L17.1,8.7z M11.2,15.3c-0.2,0-0.3,0.1-0.3,0.3c0,0.2,0.1,0.3,0.3,0.3
		c0,0,0,0,0,0h4.7c0-0.2,0-0.4,0-0.6H11.2z M10.7,16.5c-0.3,0-0.6,0.3-0.6,0.6c0,0,0,0.1,0,0.1c0.3,0.2,0.6,0.3,0.9,0.5h5.1
		c-0.1-0.4-0.1-0.8-0.1-1.2H10.7z M11.9,18.2c0.9,0.6,1.8,1.2,2.7,1.8h2c-0.1-0.6-0.2-1.2-0.3-1.8H11.9z M15.3,20.7
		c0.6,0.4,1.1,0.9,1.6,1.4c-0.1-0.5-0.2-0.9-0.3-1.4H15.3z M39.3,27.2c0,0.4-0.1,0.8-0.2,1.2h2.8v-1.2H39.3z M38.4,29.8
		c-0.4,0.5-0.8,0.9-1.3,1.2h4.8v-1.2H38.4z M37.6,32.3c0.2,0.4,0.4,0.8,0.6,1.2h3.7v-1.2H37.6z M38.9,34.9c0.2,0.4,0.5,0.8,0.7,1.2
		h2.3v-1.2H38.9z M40.4,37.4c0.2,0.4,0.5,0.8,0.7,1.2h0.8v-1.2H40.4z"/>
</symbol>
<symbol  id="SK3" viewBox="-66.8 -75.6 133.6 151.1">
	<path class="st0" d="M47.1-2.8c-1.5,2.9-5.9-2.1-9.6-1 M41.7-10.8c0.7,3.8,7.3,5.3,5.4,8c-3.4,0.4-5.9-1.9-8.1-4.7
		c3.6,0.4,6.9,1.3,8.1,4.7 M41.7-10.8c-0.6,1.3-1.2,2.5-0.1,3.6 M37.5-3.8c0.6-1.8,1.7-2.1,3.1-1.8 M51.5-10.4
		c-1.7,2.9-5.8-2.4-9.6-1.4 M46.4-18.6c0.6,3.8,7.1,5.5,5.1,8.2c-3.5,0.3-5.8-2.2-7.9-5c3.6,0.5,6.8,1.5,7.9,5 M46.4-18.6
		c-0.6,1.2-1.3,2.5-0.2,3.6 M41.9-11.8c0.6-1.8,1.8-2,3.2-1.7 M43.7,4.2c-1,3.1-6.2-1.1-9.7,0.6 M37-2.8c1.4,3.6,8,4,6.7,7
		c-3.3,1-6.1-0.9-8.8-3.3c3.6-0.2,7,0.1,8.8,3.3 M37-2.8c-0.4,1.3-0.8,2.7,0.5,3.5 M34.1,4.8c0.2-1.9,1.4-2.3,2.8-2.3 M40.6,12.1
		c-0.9,3.2-6.2-0.9-9.6,1 M33.6,5.4c1.5,3.5,8.2,3.6,7,6.7c-3.3,1.1-6.1-0.7-8.9-2.9c3.6-0.4,7-0.2,8.9,2.9 M33.6,5.4
		c-0.3,1.4-0.7,2.7,0.7,3.5 M31,13.1c0.2-1.9,1.3-2.3,2.7-2.3 M46.9-3.1c0.1-0.3,0.3-0.5,0.4-0.8 M46.7-2.8c0.1-0.1,0.1-0.2,0.2-0.4
		 M46.3-2c0.1-0.2,0.3-0.5,0.4-0.7 M43.8,3c0.7-1.6,1.6-3.3,2.5-5 M43.5,3.8c0.1-0.3,0.2-0.5,0.4-0.8 M43.2,4.3
		c0.1-0.2,0.1-0.3,0.2-0.5 M42.9,5.2c0.1-0.3,0.2-0.6,0.4-0.9 M40.7,11.3c0.6-2,1.3-4.1,2.1-6.2 M40.5,12c0.1-0.2,0.1-0.5,0.2-0.7
		 M40.5,12.1c0,0,0-0.1,0-0.1 M40.4,12.7c0-0.2,0.1-0.3,0.1-0.5 M39.1,18.4c0.3-1.9,0.7-3.9,1.2-5.8 M34.1,12.7
		c-0.2,1-0.4,1.9-0.6,2.9 M36.7,4.4c-0.4,1.1-0.8,2.1-1.1,3.2 M40.3-3.7c-0.5,1-1,2-1.5,3.1 M44.9-11.5c-0.7,1-1.3,2-2,3.1 M49.7-18
		l-0.8,1c-0.3,0.4-0.6,0.8-0.9,1.2 M46.5-5.4c0.8-1.4,1.8-2.8,2.7-4.3 M42.7,1.7c0.6-1.2,1.2-2.5,1.9-3.8 M39.6,9.8
		c0.5-1.5,1-3,1.6-4.5 M37.7,17.8c0.3-1.5,0.6-2.9,0.9-4.4 M31.8,9.3c-0.4,1.5-0.8,3.1-1.1,4.6 M31.9,9.2c0,0,0,0.1,0,0.1
		 M43.8-15.2C37.9-6.8,34.1,1.3,31.9,9.2 M43.9-15.4c0,0.1-0.1,0.1-0.1,0.2 M46.7-19.2l-0.3,0.4c-0.9,1.2-1.7,2.3-2.5,3.5
		 M50.3-13.7c0.3-0.5,0.7-0.9,1.1-1.4l1.3-1.7 M45.3-6.4c0.8-1.3,1.6-2.5,2.5-3.8 M41.4,0.9c0.5-1.2,1.1-2.3,1.8-3.5 M38.3,9
		c0.4-1.3,0.9-2.7,1.4-4 M36.3,17.1c0.2-1.3,0.5-2.6,0.8-3.9 M32.5,12.7c-0.2,0.7-0.3,1.4-0.5,2.1 M33.1,10.3
		c-0.1,0.2-0.1,0.4-0.2,0.6 M33.7,8.4c-0.1,0.2-0.1,0.4-0.2,0.7 M35,4.5c-0.3,0.7-0.5,1.4-0.7,2 M36.1,1.8c-0.1,0.3-0.2,0.5-0.3,0.8
		 M36.8,0c-0.1,0.3-0.2,0.5-0.4,0.8 M38.7-3.9c-0.4,0.7-0.7,1.5-1.1,2.2 M40-6.3c-0.1,0.2-0.2,0.4-0.4,0.6 M41-8.1
		c-0.2,0.3-0.3,0.5-0.5,0.8 M43.4-11.9c-0.5,0.7-0.9,1.4-1.3,2.1 M44.8-13.9c-0.1,0.1-0.2,0.3-0.3,0.4 M45.8-15.4
		c-0.1,0.1-0.2,0.3-0.3,0.4 M48.2-18.6l-0.5,0.7c-0.2,0.3-0.4,0.6-0.7,0.9 M49.1-14.7c0.3-0.4,0.7-0.9,1-1.3l1-1.3 M44.1-7.3
		c0.7-1.2,1.5-2.3,2.3-3.5 M40.1,0.2c0.5-1.1,1.1-2.2,1.7-3.4 M36.9,8.3c0.4-1.2,0.8-2.5,1.3-3.7 M34.9,16.3
		c0.2-1.1,0.5-2.3,0.7-3.4 M-19.7-56c21.4-3.3,39-3.3,56.3-1.4 M-16.1-48.8c19-2.7,34.6-2.8,50.1-1.2 M-17.4-51.7
		c19.9-2.9,36.2-3,52.4-1.3 M-32.5-75.2c9,12.2,13.1,18.7,16.4,26.4 M47.2-75.2C37.8-61.6,35.9-56.4,34-50 M15.5-58.7
		c-1.9-1.8-3.2-4.3-3.3-7.8c-4.1-0.7-5-4.3-5.6-8.2C6-70.8,5-67.3,0.9-66.6c-0.1,4.1-1.7,6.8-4.2,8.6 M1.3-58.3
		c1.2-1.7,2.1-3.7,2.5-6c1.1-0.5,2-1.2,2.8-2c0.8,0.8,1.7,1.5,2.8,2c0.4,2.1,1.1,4,2.2,5.6 M-12.5-57c-4.4-1.8-4.4-5.3-6-8.5
		c-4.1,0.3-9.4-5.3-13.8-9.7 M-24.9-64.5c1.3,0.9,2.7,1.6,4.3,1.9c0.4,1.2,0.9,2.6,1.8,4.1c0.4,0.7,1,1.5,1.8,2.1 M27.7-58.3
		c3.2-1.4,4.9-4.2,4.4-9.3c9.9-1.7,10.9-5,15-7.7 M32.4-57.9c0.1-0.1,0.3-0.3,0.4-0.4c1.5-1.8,2.3-4.1,2.4-6.8c3-0.7,5.3-1.6,7-2.6
		 M22.9-75.2c-1,7.6-8.1,7.2-8.5,12.3c-0.3,4.6,6.8,5,7.1,0.5c0.2-3.1-3.9-3.3-4.1-0.3c-0.1,1.5,2.5,1.7,2.5,0.2 M22.9-75.2
		c0,7.7,7.1,8.1,6.8,13.2c-0.3,4.6-7.4,4.1-7.1-0.5c0.2-3.1,4.3-2.8,4.1,0.3c-0.1,1.5-2.6,1.4-2.5-0.2 M-9.3-73.9
		c0.4,7.7-5.9,8.4-5.3,13.4c0.5,4.6,6.8,3.9,6.3-0.7c-0.3-3.1-3.9-2.7-3.6,0.4c0.2,1.5,2.4,1.3,2.2-0.2 M-9.3-73.9
		C-8-66.3-1.7-67-1.2-61.9c0.5,4.6-5.8,5.3-6.3,0.7c-0.3-3.1,3.3-3.4,3.6-0.4c0.2,1.5-2.1,1.8-2.2,0.2 M18.1,7.5
		C2.8,12.9-5.1,13.6-16.7,6.3 M-15.5,17.4c4.3,2,8.7,3.2,13.3,3.4c6.1,0.3,11.9-0.9,18.3-2.9 M-16.2,10.2c4.9,2.7,9.4,4.2,14.2,4.5
		C3.9,15,9.8,13.5,17.2,11 M9.1,22.9c2.2-0.4,4.4-1,6.6-1.7 M-15.4,20.8c2,0.9,4.1,1.6,6.2,2.1 M-0.6,11.6
		C-1.7-0.3-4.3-11.6-7.3-22.4 M7.9-14.8C4.7-8,2.4-1.2,0.8,5.5 M10.4-15.4c-4.3,9-7.2,18-8.8,26.9 M15.9-17.4
		c-5,9.5-8.3,19-10.1,28.4 M18.2-17.4C13.2-8,9.9,1.3,8,10.5 M0.8,5.5c-1.3-9.8-3.5-19.1-6-28 M-4.7,11.3
		c-1.1-11.5-3.7-22.5-6.7-33.2 M-6.8,10.8c-1.1-11.2-3.7-22-6.7-32.5 M35.4,74.7c-4.7-16.1-8.3-31.5-7.9-46.5
		c0.4-15.6,4.7-31,17.7-48 M32.4,75.3c-4.7-16-8.4-31.7-8-47.1c0.4-16,4.9-31.8,17.8-49.1 M27.8-15.7C9.7,15.4,14.2,44.8,22.3,73.5
		 M25.4,73c-4.2-14.9-7.4-29.9-7-45c0.4-14,3.8-28.2,12.5-42.9 M29.4,13c4.2,3,10.6,6.2,19.7,9.6 M47.4-3.9c1.8-3,3.9-6.1,6.4-9.4
		l0.3-0.4 M51.3-12.6c0.4-0.5,0.8-1.1,1.2-1.6l1.5-1.9 M43.5,20.3c1.2-8.5,4.1-16.7,10.6-26.2 M40.6,19.1C42,9.4,45.8-0.1,54-11.1
		 M37.7-22.5c5.6,1.9,11.2,4,16.4,6.4 M-66.5-9.3C-58.5-14.7-41-21-28-22 M28.1,41.4c5.7,3.2,9.6,9.7,9.6,17.2
		c0,4.4-1.3,8.4-3.6,11.6 M35.2,73.8c3.5-4,5.6-9.4,5.6-15.3c0-9.3-5.3-17.4-13-20.8 M49.1,71.1c1.5-3.9,2.4-8.1,2.4-12.5
		c0-15-9.9-28.5-23.9-32.2 M45.3,72.3c2-4.2,3.2-8.9,3.2-13.7c0-13.5-8.7-25.5-21-29 M43.5,20.3c0.4,17,9.2,32.9,17.2,46 M60,41.4
		c1.5,3.3,4.4,8.3,6.5,11.9 M2.5,26.9c0-1.1-1.1-2-2.6-2l0,0c-1.4,0-2.6,0.9-2.6,2l0,0c0,1.1,1.1,2,2.6,2l0,0
		C1.3,29,2.5,28,2.5,26.9L2.5,26.9L2.5,26.9 M4.5,30c7.7,7.7,7.7-13.8,0-6.1 M7.6,30c0,0,0.5-0.5,0.5-1s-0.5-1-0.5-2
		c0-1,0.5-1.5,0.5-2s-0.5-1-0.5-1 M-4.7,30c-7.7,7.7-7.7-13.8,0-6.1 M-7.7,30c0,0-0.5-0.5-0.5-1s0.5-1,0.5-2c0-1-0.5-1.5-0.5-2
		s0.5-1,0.5-1 M-3.1,25.9c-6.6-6.6,12.8-6.6,6.1,0 M-3.1,22.8c0,0,0.5-0.5,1-0.5s1,0.5,2,0.5s1.5-0.5,2-0.5s1,0.5,1,0.5 M-3.1,27.9
		c-6.6,6.6,12.8,6.6,6.1,0 M-3.1,31c0,0,0.5,0.5,1,0.5s1-0.5,2-0.5s1.5,0.5,2,0.5S3,31,3,31 M-5.9,22.8h1.4 M-5.9,31h1.4
		 M-15.4,22.8h6.2 M-15.4,24.9h5.2 M-15.4,26.9h5 M-15.5,29h5.4 M-15.7,31h6.5 M50,20.1c-0.5-0.5-1.3-2.9,1.5-3.1
		c3-0.1,5.7,2.6,8.7,2.6c1.8,0,4.6-1.5,4.6-1.5c0-1.1,0.8-2,0-3.6c-2.6,1-9.5-0.5-13.8-0.5c-2.6,0-4.1,2.9-4.1,5.1
		c0,4.6,6.2,4,6.5,1.7c0.2-1.2-1.9-3.8-1.9-3.8 M49.1,22.3c-1.9,7.8,0.5,12.1,7.2,13 M57.2,24.2c-3-0.1-2.6-1-2.6-1
		c0.2,3-0.9,4.8-2.6,6.1 M52.6,18.6c2.7,0.4,3.8,2,6,2c0.2,0,0.5,0.1,0.7,0.1 M58.8,23.7c-2-0.4-1.4-2.5,1.7-3.4l0,0
		c6.1-1.9,7.3,1.2,2.3,2.9c-0.3,0.1-0.6,0.2-0.9,0.3 M59.2,23.6c7.2-1,8.1,2.1,2.1,3.1C54.1,28,54.1,24.4,59.2,23.6L59.2,23.6
		 M58.8,27.3c7.3-0.7,8,2.5,2,3.2C53.5,31.4,53.6,27.8,58.8,27.3L58.8,27.3 M58.9,30.9c6.5-0.7,7.1,2.5,1.7,3.2
		C54.2,35,54.3,31.4,58.9,30.9L58.9,30.9 M62.7,38c0,2-1.7,3.6-3.8,3.6l0,0c-2.1,0-3.8-1.6-3.8-3.6l0,0c0-2,1.7-3.6,3.8-3.6
		C61,34.4,62.7,36,62.7,38L62.7,38 M54.1,14.1v-70.7l5.1-5.1l5.1,5.1v71.2 M35.7,35.6c0,2-1.6,3.6-3.6,3.6l0,0c-2,0-3.6-1.6-3.6-3.6
		l0,0c0-2,1.6-3.6,3.6-3.6C34.1,32,35.7,33.6,35.7,35.6L35.7,35.6 M42.5,41.7c0,2-1.6,3.6-3.6,3.6s-3.6-1.6-3.6-3.6c0,0,0,0,0,0
		c0-2,1.6-3.6,3.6-3.6l0,0C40.9,38.1,42.5,39.7,42.5,41.7L42.5,41.7 M46.5,49.4c0,2-1.6,3.6-3.6,3.6l0,0c-2,0-3.6-1.6-3.6-3.6l0,0
		c0-2,1.6-3.6,3.6-3.6l0,0C44.9,45.8,46.5,47.4,46.5,49.4L46.5,49.4L46.5,49.4 M48.3,58.3c0,2-1.6,3.6-3.6,3.6l0,0
		c-2,0-3.6-1.6-3.6-3.6l0,0c0-2,1.6-3.6,3.6-3.6l0,0C46.7,54.8,48.3,56.4,48.3,58.3L48.3,58.3L48.3,58.3 M47.1,66.7
		c0,2-1.6,3.6-3.6,3.6l0,0c-2,0-3.6-1.6-3.6-3.6l0,0c0-2,1.6-3.6,3.6-3.6S47.1,64.7,47.1,66.7L47.1,66.7 M36.4,74.6c0,0,0-0.1,0-0.1
		c0-2,1.6-3.6,3.6-3.6l0,0c1.4,0,2.7,0.8,3.2,2.1 M60.6,14.7c-0.2-0.7-0.6-2.6-0.6-3.8c-0.1-1.5,1.4-3.6,1.3-4.7c0-1-2.2-4-2.3-5.5
		C59-0.8,60.4-6.5,60.3-8c-0.1-1.5-1.8-5.5-1.8-7.1c-0.1-1.5,1.8-5.7,1.7-7.7c-0.1-2-1.8-7.6-1.9-9.1c-0.1-1.5,1.9-4.7,1.8-6.7
		c-0.1-2-1.7-5-1.8-6.6c-0.1-1.5,0.4-3.6,0.3-4.6c0-1-0.7-3.6-0.7-4.6c0-1,1.2-7.2,1.2-7.2 M60.1,14.7c-0.2-0.7-0.5-2.6-0.6-3.8
		c-0.1-1.5,1.4-3.6,1.4-4.6c0-1-2.2-4-2.2-5.5C58.6-0.8,60-6.5,59.9-8c-0.1-1.5-1.7-5.6-1.8-7.1c-0.1-1.5,1.9-5.7,1.8-7.7
		c-0.1-2-1.8-7.6-1.8-9.1c-0.1-1.5,1.9-4.7,1.8-6.7c-0.1-2-1.7-5.1-1.8-6.6c-0.1-1.5,0.4-3.6,0.4-4.6c0-1-0.6-3.6-0.7-4.6
		c0-1,1.3-7.2,1.3-7.2 M64.3-10.4c0.7,0.4,1.4,0.9,2,1.3 M57.5,14.5c-0.1-0.8-0.4-2.5-0.4-3.6c0-1.5,1.5-3.6,1.5-4.6s-2-4.1-2-5.6
		s1.5-7.2,1.5-8.7s-1.5-5.6-1.5-7.2s2-5.6,2-7.7s-1.5-7.7-1.5-9.2s2-4.6,2-6.6c0-2-1.5-5.1-1.5-6.6s0.5-3.6,0.5-4.6
		s-0.5-3.6-0.5-4.6s1.5-7.2,1.5-7.2 M59.6,14.7c-0.1-0.7-0.5-2.6-0.6-3.8c0-1.5,1.4-3.6,1.4-4.6c0-1-2.2-4-2.2-5.6s1.3-7.2,1.3-8.7
		c0-1.5-1.7-5.6-1.7-7.1c0-1.5,1.9-5.7,1.8-7.7c-0.1-2-1.7-7.6-1.8-9.1c0-1.5,1.9-4.6,1.9-6.7c-0.1-2-1.7-5.1-1.7-6.6
		s0.4-3.6,0.4-4.6c0-1-0.6-3.6-0.6-4.6s1.3-7.2,1.3-7.2 M51.2,54.3c2.5,4.6,5.2,9,7.7,13 M43.4,36.6c-1.7-5.5-2.6-11.1-2-16.4
		l0.1-0.6 M-15.5-48.9c-8.4,15.7-2.7,16.9-6.1,24.7c-1.5,3.6-5.1,2-4.2-0.4c1.3-3.6,3.7-2.1,3.2-0.1c-0.2,0.8-1.5,1.3-2,1
		 M-13.8-49.1c-8.6,15.8-3.1,16.9-6.2,24.9c-2.6,6.6-6.6,2-5.7-0.4 M-12.2-49.3c-8.8,16.1-3.2,17.1-6.3,25.2
		c-2.6,6.6-11.3,6.9-9.2,0c2.6-8.2,7.4-6,6.8-2.4 M-10.5-49.5c-9,16.2-3.3,17.3-6.4,25.4c-1.1,2.9-3.3,4.2-5.2,4.3 M-8.9-49.7
		c-9.1,16.4-3.4,17.4-6.5,25.5c-1.1,2.8-3.3,4-5.2,4 M-7.3-49.9c-9.2,16.6-3.5,17.6-6.6,25.7c-0.9,2.5-2.8,3.5-4.7,3.4 M-5.6-50.1
		c-9.4,16.8-3.5,17.7-6.7,25.9c-0.9,2.2-2.4,3.1-4,3 M-4-50.2c-9.5,16.9-3.6,17.8-6.8,26c-0.8,2.2-2.3,2.9-3.8,2.6 M-2.4-50.4
		c-9.6,17-3.7,18-6.9,26.2c-0.8,2-2,2.6-3.4,2.4 M-0.8-50.5c-9.7,17.2-3.8,18.1-6.9,26.3c-0.7,1.9-1.9,2.4-3.2,2.1 M0.8-50.6
		C-9-33.3-3-32.4-6.2-24.2C-6.9-22.4-8-22-9.3-22.4 M2.4-50.7c-9.9,17.4-3.9,18.2-7.1,26.5c-0.6,1.5-1.5,1.9-2.6,1.6 M4-50.8
		C-6-33.3,0-32.5-3.1-24.2c-0.6,1.5-1.5,1.9-2.6,1.4 M5.5-50.8c-10,17.5-3.9,18.4-7.1,26.7c-0.5,1.2-1.3,1.5-2.2,1.2 M7.1-23.1
		c0,0-0.5,8.7-4.1,8.7s-3.6-5.6-0.5-5.6s2,3.6,0,3.6c-1,0-0.7-1.5,0.5-1.5 M8.4-22.6c-0.5,4.6-1.3,10-4.2,7.8 M9.8-22
		c-0.3,4.3-0.5,8.2-2.9,6.9 M11.1-21.4c-0.5,3.6-0.1,7.2-2.3,6 M12.4-20.8c-0.5,3.6,0.2,6.1-2,4.9 M13.8-20.3
		c-0.4,2.7,0.4,5.3-1.8,4.1 M15.1-19.7c-0.4,2.2,0.1,3.7-1.6,3 M16.5-19.1c-0.8,2.3-0.2,1.8-1.6,1.9 M17.8-18.5
		c-0.5,0.6-0.3,1.3-1.9,1.2 M0.9-27.5C1.1-25.7,0.4-22-3-22.8 M2.2-26.6C2.8-24.3,2-20-3-22.8 M3.4-25.8c0.4,2.4-0.7,7.1-4.8,3.7
		 M4.6-24.9C4.5-23.7,4.2-19,1.7-21 M5.8-24c0,1.8-1.2,7.3-2.5,7.3 M17.8-18.5c1,4.8,6.8,1.1,5.9-1.5 M30.6-22.4
		c0.3,7.9,8.7,11.4,7.2,0.6c-1.1-7.5-6.5-4.5-5.4,0.6c0.6,2.8,4.3,5.1,3.9,0.6c-0.5-4.9-2.2-3.6-2.2-2.2c0.1,1.6,0.5,2.1,1.2,2.6
		 M29.2-21.9c1,5.2,2.3,8.2,6,7 M27.8-21.5c0.9,5.7,2,7.1,4.7,6.6 M26.4-21c0.5,3.7,0,6,3.5,5.7 M25.1-20.5c0.4,2.6,0.6,4.4,2.4,4.6
		 M23.7-20.1c0.5,2.4,0.9,5.1,2.7,3.7 M33.6-50.2c0,0,1,3.1,1,4.1c0,1-0.5,2.4-0.5,2.8c0,0.5,0.4,6.4,0.3,7.4
		c-0.2,2.6-1.9,10.2-2.2,12.8 M34.1-50.2c0,2,6.2,4.4,6.3,8.2c0.2,6.6-4.3,3.9-6.2,1.9 M34.4-47.7c0,0,4.2,3.6,4.4,5.6
		c0.3,3.4-3.1,1.8-4.5,1 M34.7-45.3c0,0,2.4,1.2,2.6,2.8c0.3,2.5-1.9,1.5-3,0.9 M34.4-44.3c0.8,0.2,1.3,1.7,1.3,1.7
		c0.1,1.1-0.8,0.5-1.5,0.2 M34.3-40.2c0.1,3.7,7,6.3,7,10.9c0,6.7-4.7,4.3-4.9,3.8 M34.4-36.4c0.2,1.3,5.3,4.6,5.3,7.7
		c0,4.1-3.3,3.7-3.6,3.1 M34.2-34.3c0,1,4,3.5,4,5.5c0,2.8-2.8,2.5-3.3,2.4 M33.9-32.3c0.2,1,2.8,2,2.8,3.8c0,2.8-3.6,0.9-3.6,0.8
		 M33.6-30.8c0.4,0.7,1.3,1,1.3,2c0,2-1.6,0.6-1.7,0.1 M6.6-45.1c0,0,4.6-3.6,6.6-3.6s5.6,1,6.1,1c1,0,1-1,1-1l0.5,0.5
		c0,0-0.8,1-1.5,1c-0.7,0-4.6-1-6.1-1C11.9-48.2,6.6-45.1,6.6-45.1L6.6-45.1 M33.6-47.1c0,0-2.6-1.5-3.6-1.5s-3.1,1.3-3.6,1.3
		c-0.6,0-1-0.2-1.5-1.3l-0.5,0.5c0,0,1,1,2,1c1,0,3.1-1,3.6-1S33.6-47.1,33.6-47.1L33.6-47.1 M24.4-48.2v2c0,0.5-0.5,1-0.5,1.5
		c0,0.5,3.1,10.2,3.1,10.7s-1.5,2-2,2c-1,0-1.6-1.4-2.4-1.4c-0.8,0-2.2,0.9-2.7,0.9c-1.7,0-1.6-2.5,0-2.6c0.5,0,1,0.5,1,0.5
		 M21.4-30.8c-5.6,0.3-6.2,2.5-10.2,3.3c-2.6,0.5-2.7-3.6-1-3.8c1-0.1,1,1.8,1,1.8c0,0,1-2.5-1-2.5c-2.6,0.1-2.6,5.4,0.6,5.2
		c2.8-0.1,6-3,10.6-3V-30.8L21.4-30.8 M24.4-30.8v1c2,0,3.7,2,5.1,2c2.4,0,4.3-4.3,1.5-4.3c-1,0-1.5,1.2-1.5,1.2s0.7-0.8,1.5-0.8
		c1.6,0-0.1,3.3-1.5,3.4C28.5-28.2,26.5-30.8,24.4-30.8L24.4-30.8 M16.3-25.7v0.7l0.5-0.4L16.3-25.7L16.3-25.7 M27.5-26.2v0.8
		L27-25.7L27.5-26.2L27.5-26.2 M16.8-25.4c1,0.2,2.3-1.3,3.5-1.3c1.3,0,1,0.5,2,0.5c1,0,1-0.8,2-0.8c1,0,1.6,1.3,2.6,1.3 M19.3-22.6
		c3.1,1.6,5.1-1,5.1-2 M7.6-42c2.6,0,4.2-2.9,6.8-2.9c3.1,0,3.9,2.4,4.9,2.4c-1,0-3.8,1.2-5.1,1.2C12.6-41.4,9.1-42,7.6-42L7.6-42
		 M24.6-42.9c2.6,0,2.2-1.8,4.8-1.8c2.6,0,3.3,1.8,4.4,1.8c-1,0-2.9,1.6-4.3,1.6C27.9-41.3,26.1-42.9,24.6-42.9L24.6-42.9 M4.7-15.3
		c-1.1,2.5-2.2,5.1-3.1,7.6 M1.6-7.7c-1.1-5-2.3-9.9-3.6-14.7"/>
</symbol>
<symbol  id="SK4" viewBox="-44.9 -48 89.8 96">
	<path class="st1" d="M38.9,34.2c0,0.7,0.3,1,0.7,1.2 M39.1,37.9c0.4,0.9,0.9,1.8,0,2.6 M38.6,41.5c0.4,0.9,0.9,1.8,0,2.6
		 M38.6,45.3c0.4,0.9,0.9,1.8,0,2.6 M42.2,38.5c0.3,0.7,0.1,1.1,0,1.5 M42.9,34.8c0.3,0.7,0.1,1.1,0,1.5 M41.9,41.9
		c0.3,0.7,0.1,1.1,0,1.5 M41.7,45.6c0.3,0.7,0.1,1.1,0,1.5 M40.3,35c0.4,0.9,0.9,1.8,0,2.6 M41.7-8.7v-0.5 M41.7,5V-8.7 M41.7,7.1
		l0-2 M41.7,17.3V7.1 M41.7,26.1l0-2.6 M42.7,28.6v-7.7 M41.7,28.5v-2.4 M42.7,19.4v-65.2 M41.7-9.2v-37.6 M44.7,28.5v-72.3
		 M43.7,28.6v-73.4 M40.6-28.4v-19.5 M40.6-14.1v-7.1 M40.6,1.5v-5.9 M40.6,13.5v-12 M40.6,14.9v-1.3 M39.6-39.1v-3.4 M-10.9-28.3
		c0.7,0.1,3.6-4.6,6.1-4.6s3.6,1,4.1,2 M-8.9-27.5c1.1,0.9,2.1,1.7,3.5,1.7c1.9,0,3.8-0.8,4.7-1.8 M6.1-29.1c1,0,3.1-3.1,4.6-3.1
		s3.1,1,3.6,1.5 M14.2-27.6c-1.6,1.2-3.5,1.3-5.6,0.5 M-1.8-30.6c0.1,0.2,0.1,0.5,0.1,0.7c0,1.3-0.8,2.3-1.8,2.3s-1.8-1-1.8-2.3
		c0-0.4,0.1-0.8,0.2-1.1 M12.5-30.6c0.1,0.3,0.2,0.6,0.2,1c0,1.3-0.8,2.3-1.8,2.3s-1.8-1-1.8-2.3c0-0.3,0.1-0.6,0.1-0.9"/>
	
		<use xlink:href="#SSK"  width="87" height="87" x="-43.5" y="-43.5" transform="matrix(0.1006 -1.773877e-02 1.773883e-02 0.1006 -34.4423 1.0434)" style="overflow:visible;"/>
	
		<use xlink:href="#SSK"  width="87" height="87" x="-43.5" y="-43.5" transform="matrix(0.1006 -1.773877e-02 1.773883e-02 0.1006 -34.4423 1.0434)" style="overflow:visible;"/>
	
		<use xlink:href="#SSK"  width="87" height="87" x="-43.5" y="-43.5" transform="matrix(0.1018 -8.903265e-03 8.903295e-03 0.1018 -31.0713 15.2427)" style="overflow:visible;"/>
	
		<use xlink:href="#SSK"  width="87" height="87" x="-43.5" y="-43.5" transform="matrix(0.1018 -8.903265e-03 8.903295e-03 0.1018 -31.0713 15.2427)" style="overflow:visible;"/>
	
		<use xlink:href="#SSK"  width="87" height="87" x="-43.5" y="-43.5" transform="matrix(9.599321e-02 3.493856e-02 -3.493867e-02 9.599289e-02 0.6986 3.9037)" style="overflow:visible;"/>
	
		<use xlink:href="#SSK"  width="87" height="87" x="-43.5" y="-43.5" transform="matrix(9.599321e-02 3.493856e-02 -3.493867e-02 9.599289e-02 0.6986 3.9037)" style="overflow:visible;"/>
	
		<use xlink:href="#SSK"  width="87" height="87" x="-43.5" y="-43.5" transform="matrix(9.599321e-02 3.493856e-02 -3.493867e-02 9.599289e-02 -3.7962 15.0384)" style="overflow:visible;"/>
	
		<use xlink:href="#SSK"  width="87" height="87" x="-43.5" y="-43.5" transform="matrix(9.599321e-02 3.493856e-02 -3.493867e-02 9.599289e-02 -3.7962 15.0384)" style="overflow:visible;"/>
</symbol>
<symbol  id="SS3" viewBox="-11.2 -11.2 22.3 22.3">
	<rect x="-11.2" y="-11.2" class="st2" width="22.3" height="22.3"/>
	<path class="st3" d="M0-11.2C2.2-5.6,7.9-2.2,7.9,4.1c0,1.8-1.5,3.3-3.3,3.3S1.2,6,1.2,4.1C1.2,4,1.1,3.9,1,3.9S0.8,4,0.8,4.1
		c0,4.5,1.1,4.8,2.1,7h-5.8c1-2.2,2.1-2.6,2.1-7C-0.8,4-0.9,3.9-1,3.9S-1.2,4-1.2,4.1c0,1.8-1.5,3.3-3.3,3.3S-7.9,6-7.9,4.1
		C-7.9-2.2-2.2-5.6,0-11.2z"/>
</symbol>
<symbol  id="SSK" viewBox="-43.5 -43.5 87 87">
	<rect x="-37.5" y="-37.5" class="st4" width="75" height="75"/>
	<path class="st5" d="M0-37.5c7.5,18.8,26.6,30,26.6,51.4c0,6.2-5,11.3-11.3,11.3s-11.3-5-11.3-11.3c0-0.4-0.3-0.8-0.7-0.8
		s-0.8,0.3-0.8,0.8c0,15,3.8,16.1,7.1,23.6H-9.8c3.4-7.5,7.1-8.6,7.1-23.6c0-0.4-0.3-0.8-0.8-0.8s-0.7,0.3-0.7,0.8
		c0,6.2-5,11.3-11.3,11.3s-11.3-5-11.3-11.3C-26.6-7.5-7.5-18.8,0-37.5z"/>
</symbol>
<symbol  id="VSK" viewBox="-10.4 -16 20.8 32">
	<path class="st6" d="M-9.1-14.7h6.4 M-5.9-14.7v29.4 M-9.1,14.7h6.4 M2.7-14.7h6.4 M5.9-14.1L-5.4,5 M2.7,14.7h6.4 M5.9,14.1
		L-0.3-2.2"/>
</symbol>
<path class="st7" d="M23.5,9.3h128.8c7.8,0,14.1,6.4,14.1,14.2v216.6c0,7.8-6.3,14.2-14.1,14.2H23.5c-7.8,0-14.1-6.4-14.1-14.2V23.5
	C9.3,15.7,15.6,9.3,23.5,9.3z"/>
<rect id="XSK" x="38.4" y="55.5" class="st3" width="98.9" height="152.6"/>
<g>
	<defs>
		<rect id="SVGID_1_" x="38.4" y="55.5" width="98.9" height="152.6"/>
	</defs>
	<clipPath id="SVGID_00000016777363281572995610000015050826355196714417_">
		<use xlink:href="#SVGID_1_"  style="overflow:visible;"/>
	</clipPath>
	<g style="clip-path:url(#SVGID_00000016777363281572995610000015050826355196714417_);">
		
			<use xlink:href="#SK1"  width="82.3" height="120" x="-41.2" y="-60" transform="matrix(0.7447 0 0 0.7468 106.5574 122.7342)" style="overflow:visible;"/>
	</g>
</g>
<g>
	<defs>
		<rect id="SVGID_00000116956090255515639090000015400873474662520211_" x="38.4" y="55.5" width="98.9" height="152.6"/>
	</defs>
	<clipPath id="SVGID_00000072250929444248604950000009242935223605076407_">
		<use xlink:href="#SVGID_00000116956090255515639090000015400873474662520211_"  style="overflow:visible;"/>
	</clipPath>
	<g style="clip-path:url(#SVGID_00000072250929444248604950000009242935223605076407_);">
		
			<use xlink:href="#SK1"  width="82.3" height="120" x="-41.2" y="-60" transform="matrix(-0.7447 0 0 -0.7468 69.1906 140.8879)" style="overflow:visible;"/>
	</g>
</g>
<g>
	<defs>
		<rect id="SVGID_00000052083845106618409780000015328729252486801595_" x="38.4" y="55.5" width="98.9" height="152.6"/>
	</defs>
	<clipPath id="SVGID_00000102544791778228629070000003584132342585131399_">
		<use xlink:href="#SVGID_00000052083845106618409780000015328729252486801595_"  style="overflow:visible;"/>
	</clipPath>
	<g style="clip-path:url(#SVGID_00000102544791778228629070000003584132342585131399_);">
		
			<use xlink:href="#SK2"  width="83.8" height="129.9" x="-41.9" y="-65" transform="matrix(0.7447 0 0 0.7468 106.134 119.7777)" style="overflow:visible;"/>
	</g>
</g>
<g>
	<defs>
		<rect id="SVGID_00000028299445650720775740000007948060823592930217_" x="38.4" y="55.5" width="98.9" height="152.6"/>
	</defs>
	<clipPath id="SVGID_00000171677597220335417010000015002460638257369246_">
		<use xlink:href="#SVGID_00000028299445650720775740000007948060823592930217_"  style="overflow:visible;"/>
	</clipPath>
	<g style="clip-path:url(#SVGID_00000171677597220335417010000015002460638257369246_);">
		
			<use xlink:href="#SK2"  width="83.8" height="129.9" x="-41.9" y="-65" transform="matrix(-0.7447 0 0 -0.7468 69.614 143.8443)" style="overflow:visible;"/>
	</g>
</g>
<g>
	<defs>
		<rect id="SVGID_00000066487846401149325940000001869200734842132649_" x="38.4" y="55.5" width="98.9" height="152.6"/>
	</defs>
	<clipPath id="SVGID_00000144333746527019685550000005733200639289556659_">
		<use xlink:href="#SVGID_00000066487846401149325940000001869200734842132649_"  style="overflow:visible;"/>
	</clipPath>
	<g style="clip-path:url(#SVGID_00000144333746527019685550000005733200639289556659_);">
		
			<use xlink:href="#SK3"  width="133.6" height="151.1" x="-66.8" y="-75.6" transform="matrix(0.7447 0 0 0.7468 87.9331 111.7137)" style="overflow:visible;"/>
	</g>
</g>
<g>
	<defs>
		<rect id="SVGID_00000036945788674487605810000017295600304555730304_" x="38.4" y="55.5" width="98.9" height="152.6"/>
	</defs>
	<clipPath id="SVGID_00000165956540468844501720000002056031249265214086_">
		<use xlink:href="#SVGID_00000036945788674487605810000017295600304555730304_"  style="overflow:visible;"/>
	</clipPath>
	<g style="clip-path:url(#SVGID_00000165956540468844501720000002056031249265214086_);">
		
			<use xlink:href="#SK3"  width="133.6" height="151.1" x="-66.8" y="-75.6" transform="matrix(-0.7447 0 0 -0.7468 87.8149 151.9083)" style="overflow:visible;"/>
	</g>
</g>
<g>
	<defs>
		<rect id="SVGID_00000157293009205919971160000000090079284676668297_" x="38.4" y="55.5" width="98.9" height="152.6"/>
	</defs>
	<clipPath id="SVGID_00000106862479282144239630000016305831339294181810_">
		<use xlink:href="#SVGID_00000157293009205919971160000000090079284676668297_"  style="overflow:visible;"/>
	</clipPath>
	
		<g transform="matrix(1 0 0 1 7.629395e-06 0)" style="clip-path:url(#SVGID_00000106862479282144239630000016305831339294181810_);">
		
			<use xlink:href="#SK4"  width="89.8" height="96" x="-44.9" y="-48" transform="matrix(0.7447 0 0 0.7468 104.9264 101.4322)" style="overflow:visible;"/>
	</g>
</g>
<g>
	<defs>
		<rect id="SVGID_00000122696539541790802170000004087420389180841864_" x="38.4" y="55.5" width="98.9" height="152.6"/>
	</defs>
	<clipPath id="SVGID_00000019664590484077979100000008749328740013252243_">
		<use xlink:href="#SVGID_00000122696539541790802170000004087420389180841864_"  style="overflow:visible;"/>
	</clipPath>
	<g style="clip-path:url(#SVGID_00000019664590484077979100000008749328740013252243_);">
		
			<use xlink:href="#SK4"  width="89.8" height="96" x="-44.9" y="-48" transform="matrix(-0.7447 0 0 -0.7468 70.8217 162.1899)" style="overflow:visible;"/>
	</g>
</g>
<g>
	<defs>
		<rect id="SVGID_00000144326807781306164540000014409911509493183163_" x="14.6" y="23.2" width="23.8" height="23.9"/>
	</defs>
	<clipPath id="SVGID_00000036214090204088852630000013600673834819354522_">
		<use xlink:href="#SVGID_00000144326807781306164540000014409911509493183163_"  style="overflow:visible;"/>
	</clipPath>
	<g style="clip-path:url(#SVGID_00000036214090204088852630000013600673834819354522_);">
		
			<use xlink:href="#VSK"  width="20.8" height="32" x="-10.4" y="-16" transform="matrix(0.7447 0 0 0.7468 26.5111 35.0998)" style="overflow:visible;"/>
	</g>
</g>
<g>
	<defs>
		<rect id="SVGID_00000111874648251294394010000002832932537148200840_" x="137.3" y="216.6" width="23.8" height="23.9"/>
	</defs>
	<clipPath id="SVGID_00000095337615126204214550000009558018003744118400_">
		<use xlink:href="#SVGID_00000111874648251294394010000002832932537148200840_"  style="overflow:visible;"/>
	</clipPath>
	<g style="clip-path:url(#SVGID_00000095337615126204214550000009558018003744118400_);">
		
			<use xlink:href="#VSK"  width="20.8" height="32" x="-10.4" y="-16" transform="matrix(-0.7447 0 0 -0.7468 149.2369 228.5222)" style="overflow:visible;"/>
	</g>
</g>
<g>
	<rect id="XSK_00000048491424175747983860000006977680069261798534_" x="38.4" y="55.5" class="st8" width="98.9" height="152.6"/>
</g>
<g>
	<defs>
		<rect id="SVGID_00000134936145130056451710000017957594144337015981_" x="16.5" y="50.8" width="19.9" height="20"/>
	</defs>
	<clipPath id="SVGID_00000111874236759280371150000011749696112220781441_">
		<use xlink:href="#SVGID_00000134936145130056451710000017957594144337015981_"  style="overflow:visible;"/>
	</clipPath>
	
		<g transform="matrix(1 0 0 1 1.907349e-06 -3.814697e-06)" style="clip-path:url(#SVGID_00000111874236759280371150000011749696112220781441_);">
		
			<use xlink:href="#SS3"  width="22.3" height="22.3" x="-11.2" y="-11.2" transform="matrix(0.7447 0 0 0.7468 26.5115 60.7783)" style="overflow:visible;"/>
	</g>
</g>
<g>
	<defs>
		<rect id="SVGID_00000026158782976394422410000010604193011131121571_" x="139.3" y="192.8" width="19.9" height="20"/>
	</defs>
	<clipPath id="SVGID_00000085208126518595844440000007077990816223623587_">
		<use xlink:href="#SVGID_00000026158782976394422410000010604193011131121571_"  style="overflow:visible;"/>
	</clipPath>
	<g style="clip-path:url(#SVGID_00000085208126518595844440000007077990816223623587_);">
		
			<use xlink:href="#SS3"  width="22.3" height="22.3" x="-11.2" y="-11.2" transform="matrix(-0.7447 0 0 -0.7468 149.2365 202.8437)" style="overflow:visible;"/>
	</g>
</g>
</svg>
