<?xml version="1.0" encoding="utf-8"?>
<!-- Generator: Adobe Illustrator 27.9.0, SVG Export Plug-In . SVG Version: 6.00 Build 0)  -->
<svg version="1.1" id="Layer_1" xmlns="http://www.w3.org/2000/svg" xmlns:xlink="http://www.w3.org/1999/xlink" x="0px" y="0px"
	 viewBox="0 0 175.7 263.6" style="enable-background:new 0 0 175.7 263.6;" xml:space="preserve">
<style type="text/css">
	.st0{fill:#FFFFFF;fill-opacity:0;}
	.st1{fill:#FFFFFF;}
	.st2{fill:none;stroke:#FFFFFF;stroke-width:2.56;stroke-linecap:square;stroke-miterlimit:10;}
	.st3{fill:#272727;stroke:#000000;}
</style>
<symbol  id="SS2" viewBox="-11.2 -11.2 22.3 22.3">
	<rect x="-11.2" y="-11.2" class="st0" width="22.3" height="22.3"/>
	<path class="st1" d="M0-11.2C2.2-5.6,7.9-2.2,7.9,4.1c0,1.8-1.5,3.3-3.3,3.3S1.2,6,1.2,4.1C1.2,4,1.1,3.9,1,3.9S0.8,4,0.8,4.1
		c0,4.5,1.1,4.8,2.1,7h-5.8c1-2.2,2.1-2.6,2.1-7C-0.8,4-0.9,3.9-1,3.9S-1.2,4-1.2,4.1c0,1.8-1.5,3.3-3.3,3.3S-7.9,6-7.9,4.1
		C-7.9-2.2-2.2-5.6,0-11.2z"/>
</symbol>
<symbol  id="VS2" viewBox="-8.5 -16 17.1 32">
	<path class="st2" d="M-7.1-7.2c-0.6-1.3,0.8-7.5,7.2-7.5s7.2,4.3,7.2,7.5C7.3-0.8-7.1,5.1-7.1,14.7H7.3V9.6"/>
</symbol>
<path class="st3" d="M23.5,9.3h128.8c7.8,0,14.1,6.4,14.1,14.2v216.6c0,7.8-6.3,14.2-14.1,14.2H23.5c-7.8,0-14.1-6.4-14.1-14.2V23.5
	C9.3,15.7,15.6,9.3,23.5,9.3z"/>
<g>
	<defs>
		<rect id="SVGID_1_" x="14.6" y="23.2" width="23.8" height="23.9"/>
	</defs>
	<clipPath id="SVGID_00000120518780974013247400000002007584379372889228_">
		<use xlink:href="#SVGID_1_"  style="overflow:visible;"/>
	</clipPath>
	<g style="clip-path:url(#SVGID_00000120518780974013247400000002007584379372889228_);">
		
			<use xlink:href="#VS2"  width="17.1" height="32" x="-8.5" y="-16" transform="matrix(0.7447 0 0 0.7468 26.4595 35.0998)" style="overflow:visible;"/>
	</g>
</g>
<g>
	<defs>
		<rect id="SVGID_00000006702266432407169840000012974561309342479261_" x="16.5" y="50.8" width="19.9" height="20"/>
	</defs>
	<clipPath id="SVGID_00000137122120873956561490000016137758116448323740_">
		<use xlink:href="#SVGID_00000006702266432407169840000012974561309342479261_"  style="overflow:visible;"/>
	</clipPath>
	
		<g transform="matrix(1 0 0 1 1.907349e-06 -3.814697e-06)" style="clip-path:url(#SVGID_00000137122120873956561490000016137758116448323740_);">
		
			<use xlink:href="#SS2"  width="22.3" height="22.3" x="-11.2" y="-11.2" transform="matrix(0.7447 0 0 0.7468 26.5115 60.7783)" style="overflow:visible;"/>
	</g>
</g>
<g>
	<defs>
		<rect id="SVGID_00000086658534547896493880000014773800848020631975_" x="67.8" y="35.7" width="40.2" height="40.3"/>
	</defs>
	<clipPath id="SVGID_00000074403867487404645540000007530650214000255930_">
		<use xlink:href="#SVGID_00000086658534547896493880000014773800848020631975_"  style="overflow:visible;"/>
	</clipPath>
	<g style="clip-path:url(#SVGID_00000074403867487404645540000007530650214000255930_);">
		
			<use xlink:href="#SS2"  width="22.3" height="22.3" x="-11.2" y="-11.2" transform="matrix(0.7447 0 0 0.7468 77.7346 45.7175)" style="overflow:visible;"/>
	</g>
</g>
<g transform="rotate(180)">
	<g>
		<defs>
			<rect id="SVGID_00000007399725901121245720000015127905071331537538_" x="-161.2" y="-240.5" width="23.8" height="23.9"/>
		</defs>
		<clipPath id="SVGID_00000056423831680304773580000004853166059723517859_">
			<use xlink:href="#SVGID_00000007399725901121245720000015127905071331537538_"  style="overflow:visible;"/>
		</clipPath>
		<g style="clip-path:url(#SVGID_00000056423831680304773580000004853166059723517859_);">
			
				<use xlink:href="#VS2"  width="17.1" height="32" x="-8.5" y="-16" transform="matrix(0.7447 0 0 0.7468 -149.2885 -228.5222)" style="overflow:visible;"/>
		</g>
	</g>
	<g>
		<defs>
			<rect id="SVGID_00000148652000303204499450000011550219293508483260_" x="-159.2" y="-212.8" width="19.9" height="20"/>
		</defs>
		<clipPath id="SVGID_00000021833880486509121190000000536764169246834312_">
			<use xlink:href="#SVGID_00000148652000303204499450000011550219293508483260_"  style="overflow:visible;"/>
		</clipPath>
		<g style="clip-path:url(#SVGID_00000021833880486509121190000000536764169246834312_);">
			
				<use xlink:href="#SS2"  width="22.3" height="22.3" x="-11.2" y="-11.2" transform="matrix(0.7447 0 0 0.7468 -149.2365 -202.8437)" style="overflow:visible;"/>
		</g>
	</g>
	<g>
		<defs>
			<rect id="SVGID_00000134231992765978580070000006835406601525703065_" x="-108" y="-227.9" width="40.2" height="40.3"/>
		</defs>
		<clipPath id="SVGID_00000150090498570846409930000014032912774276468906_">
			<use xlink:href="#SVGID_00000134231992765978580070000006835406601525703065_"  style="overflow:visible;"/>
		</clipPath>
		
			<g transform="matrix(1 0 0 1 0 -1.525879e-05)" style="clip-path:url(#SVGID_00000150090498570846409930000014032912774276468906_);">
			
				<use xlink:href="#SS2"  width="22.3" height="22.3" x="-11.2" y="-11.2" transform="matrix(0.7447 0 0 0.7468 -98.0134 -217.9045)" style="overflow:visible;"/>
		</g>
	</g>
</g>
</svg>
