<?xml version="1.0" encoding="utf-8"?>
<!-- Generator: Adobe Illustrator 27.9.0, SVG Export Plug-In . SVG Version: 6.00 Build 0)  -->
<svg version="1.1" id="Layer_1" xmlns="http://www.w3.org/2000/svg" xmlns:xlink="http://www.w3.org/1999/xlink" x="0px" y="0px"
	 viewBox="0 0 175.7 263.6" style="enable-background:new 0 0 175.7 263.6;" xml:space="preserve">
<style type="text/css">
	.st0{fill:none;stroke:#000000;stroke-width:0.6129;stroke-linecap:round;stroke-linejoin:round;stroke-miterlimit:10;}
	.st1{fill:none;stroke:#000000;stroke-width:0.3065;stroke-linecap:round;stroke-linejoin:round;stroke-miterlimit:10;}
	.st2{fill:#FFFFFF;fill-opacity:0;}
	.st3{fill:#FFFFFF;}
	
		.st4{fill:none;stroke:#FFFFFF;stroke-width:12;stroke-linecap:round;stroke-linejoin:round;stroke-miterlimit:10;stroke-opacity:0;}
	.st5{fill:none;stroke:#FFFFFF;stroke-width:12;stroke-linecap:round;stroke-linejoin:round;stroke-miterlimit:10;}
	.st6{fill:none;stroke:#FFFFFF;stroke-width:2.56;stroke-linecap:square;stroke-miterlimit:10;}
	.st7{fill:#272727;stroke:#000000;}
	.st8{fill:none;stroke:#FFFFFF;}
</style>
<symbol  id="SQ1" viewBox="-50.1 -44.9 100.1 89.9">
	<path d="M-34.5-44.9c-0.7,0-1.3,0.9-1.3,2s0.6,2,1.3,2c0.7,0,1.3-0.9,1.3-2S-33.8-44.9-34.5-44.9z M-48.8-44.4
		c-0.7,0-1.3,0.9-1.3,2s0.6,2,1.3,2l0,0c0.7,0,1.3-0.9,1.3-2l0,0C-47.5-43.5-48.1-44.4-48.8-44.4z M-46.4-13.7
		C-46-2.6-46,8.3-43.5,17.9c8.6-12.4,18.8-21.6,28.8-30.5c-8.7,1.5-15.2,1.9-20.5,1.5C-39.7-11.5-43.4-12.5-46.4-13.7z M-42-11.3
		c2.3,0,5.4,0.2,8.5,0.6c6.7,0.8,12.1,2.2,12,3.1C-21.6-6.8-27.3-7.1-34-8c-6.7-0.8-12-1.9-11.9-2.7C-45.8-11.1-44.4-11.3-42-11.3z
		 M31.4-10C31.7-9.1,31.8-8.1,32-7v0c0.8-0.1,1.7,0,2.8,0.6l-2.2-2.2c-0.1-0.1-0.1-0.2,0-0.2c0,0,0.1,0,0.1,0c0,0,0.1,0,0.1,0
		L35-6.6c-0.6-1.1-0.7-2-0.6-2.8C33.3-9.5,32.3-9.7,31.4-10z M44.7-10c-0.9,0.2-1.9,0.4-3,0.6h0c0.1,0.8,0,1.7-0.6,2.8l2.2-2.2
		c0,0,0.1,0,0.1,0c0.1,0,0.2,0.1,0.2,0.1c0,0,0,0.1,0,0.1l-2.2,2.2c1.1-0.6,2-0.7,2.8-0.6v0C44.3-8.1,44.4-9.1,44.7-10L44.7-10z
		 M-42.5-8.4c2.1,0,4.8,0.2,7.7,0.6c6.1,0.8,10.9,2.2,10.8,3.1c-0.1,0.8-5.1,0.8-11.2,0C-41.2-5.6-46.1-6.9-46-7.8
		C-45.9-8.2-44.7-8.4-42.5-8.4z M-41.7-4.9c1.5,0,3.3,0.1,5.2,0.3c5.3,0.5,9.6,1.5,9.6,2.3c0,0.8-4.3,1.1-9.6,0.6
		c-5.3-0.5-9.5-1.6-9.5-2.5C-46-4.6-44.5-4.8-41.7-4.9z M18.6-2.7C15.9-0.9,12.7,1.4,9.9,4l16,12.9c0.6-0.7,1.2-1.4,1.8-2.1
		c-3.8,0.5-4-5.1-7.8-6.7c5.5-2.5,7.6,0.6,8.1,6.3c1.9-2.2,3.7-4.4,5.5-6.8C28.4,4.4,23.4,1,18.6-2.7z M28.1,14.4
		c-0.1,0.1-0.3,0.3-0.4,0.4c0.1,0,0.3,0,0.4-0.1C28.1,14.7,28.1,14.6,28.1,14.4z M25.9,16.9L26,17c2.9,0.1,6.7,0.8,6.7,0.8
		c3.4-1.8,5.9-3.8,8-5.9c-2-1.2-4.1-2.4-6-3.6c-1.6,2.1-3.2,4.2-4.9,6.1c3.5-1.5,5.1-4.7,6.8-0.5c-3.3-0.2-6.3,4.6-6.9,0.6
		c-0.7,0.9-1.5,1.7-2.2,2.5L25.9,16.9z M-41.9-1.5c1.2,0,2.7,0.1,4.1,0.3c4.2,0.5,7.6,1.6,7.6,2.5c0,0.8-3.5,1.1-7.7,0.6
		c-4.2-0.5-7.6-1.6-7.6-2.5C-45.4-1.2-44.1-1.5-41.9-1.5z M41.4-0.2l2.2,2.2c0.1,0.1,0.1,0.2,0,0.2c-0.1,0.1-0.2,0.1-0.2,0
		c0,0,0,0,0,0L41.1,0c0.6,1.1,0.7,2,0.6,2.8h0c1.1,0.1,2.1,0.3,3,0.6c-0.2-0.9-0.4-1.9-0.6-3C43.4,0.5,42.4,0.3,41.4-0.2L41.4-0.2z
		 M34.8-0.2c-1.1,0.6-2,0.7-2.8,0.6v0c-0.1,1.1-0.3,2.1-0.6,3c0.9-0.2,1.9-0.4,3-0.6C34.3,2,34.4,1.1,35,0l-2.2,2.2
		c-0.1,0.1-0.2,0.1-0.2,0c-0.1-0.1-0.1-0.2,0-0.2c0,0,0,0,0,0L34.8-0.2z M-41.9,1.9c0.8,0,1.7,0.1,2.6,0.2c3.1,0.4,5.6,1.7,5.6,2.6
		c0,0.8-2.5,1.2-5.6,0.8C-42.4,4.9-45,3.9-45,3.1C-45,2.5-43.8,1.9-41.9,1.9z M-41.6,5.6c0.4,0,0.8,0,1.2,0.1
		c2.6,0.2,4.6,0.7,4.6,1.5c0.1,0.8-2,1.3-4.5,1.1c-2.6-0.2-4.7-1-4.8-1.9C-45,5.7-43.6,5.6-41.6,5.6z M-42.2,8.7c0.2,0,0.3,0,0.5,0
		c1.6,0.1,2.9,0.8,2.9,1.4c0.1,0.7-1.1,1.1-2.7,1c-1.6-0.1-2.9-0.8-2.9-1.4C-44.5,9.1-43.6,8.7-42.2,8.7z M-42.5,11.8
		c0.1,0,0.2,0,0.3,0c1,0.1,1.8,0.6,1.9,1.1c0,0.5-0.7,0.9-1.7,0.8c-1-0.1-1.8-0.6-1.9-1.1C-44,12.2-43.4,11.8-42.5,11.8z M50.1,11.8
		l-3.5,0.3c0,2-0.7,4-3.1,5.8c2.5,0.2,4.6,1.1,6.1,3.6c-1,2.6-2.7,4.1-5.1,4.6c2,2.2,2.9,4.8,3.1,7.6l0,0l2.5,1.1L50.1,11.8z
		 M33,18.4c0,0,0,0.1,0.1,0.1C33,18.5,33,18.4,33,18.4z M33.3,19C33.3,19,33.3,19,33.3,19C33.3,19,33.3,19,33.3,19z M33.6,19.6
		c0,0,0,0.1,0.1,0.1C33.6,19.6,33.6,19.6,33.6,19.6z M33.8,20.1c0,0,0,0.1,0.1,0.1C33.8,20.2,33.8,20.1,33.8,20.1z M34.1,20.7
		c0,0.1,0,0.1,0.1,0.2C34.1,20.8,34.1,20.8,34.1,20.7z M34.3,21.2c0,0.1,0,0.1,0.1,0.2C34.3,21.3,34.3,21.3,34.3,21.2z M34.5,21.9
		c0,0.1,0,0.1,0.1,0.2C34.6,22,34.5,21.9,34.5,21.9z M34.7,22.4c0,0.1,0,0.1,0.1,0.2C34.7,22.5,34.7,22.4,34.7,22.4z M34.9,23
		c0,0.1,0,0.1,0.1,0.2C34.9,23.1,34.9,23.1,34.9,23z M35.1,23.5c0,0.1,0,0.1,0.1,0.2C35.1,23.7,35.1,23.6,35.1,23.5z M-44.2,25.8
		c-0.5,0-1,0.2-1.5,0.9c-0.6,0.7-1,2-1,3.4s0.5,2.7,1,3.4c0.6,0.7,1.1,0.9,1.5,0.9c0.5,0,1-0.2,1.5-0.9s1-2,1-3.4s-0.5-2.7-1-3.4
		S-43.7,25.8-44.2,25.8z M-44.2,26.3c0.3,0,0.6,0.5,0.6,1.1c1.1,0,1.5,0.3,0.6,1.3c1.4,0.4,1.1,0.9,0.3,1.4c0.8,0.5,1.1,1-0.3,1.4
		c0.9,1,0.5,1.3-0.6,1.3c0,1-1,1.8-1.2,0c-1.1,0-1.5-0.3-0.6-1.3c-1.4-0.4-1.1-0.9-0.3-1.4c-0.8-0.5-1.1-1,0.3-1.4
		c-0.9-1-0.5-1.3,0.6-1.3C-44.7,26.6-44.4,26.3-44.2,26.3z M-8.2,26.8l-7.7,8.9l4.4,0l4.8-5.6h9.8l-1.5-3.3H-8.2z M-5.2,33.5l-2,2.3
		l13.9,0l-1.7-2.3H-5.2z M-15.8,38.8l-32.3,0c0.2,0.3,0.5,0.5,0.8,0.7c1.6,1.5,3,2.9,4.3,4.3c0.1-0.5,0.6-1.1,1.6-2
		c-3.1-2.6-1.5-3.6,1.5-1.5c3.1-2,4.6-1,1.5,1.5c3.1,2.6,1.5,3.6-1.5,1.5c-1.1,0.8-2.1,1.1-2.6,1.1c0.1,0.1,0.3,0.3,0.4,0.4l26.2,0
		L-15.8,38.8z M-33.2,39.3c0.6,0,1.5,0.3,2.6,1.1c3.1-2,4.6-1,1.5,1.5c3.1,2.6,1.5,3.6-1.5,1.5c-3.1,2-4.6,1-1.5-1.5
		C-34,40.3-34.1,39.3-33.2,39.3z M-23.9,39.3c0.6,0,1.5,0.3,2.6,1.1c3.1-2,4.6-1,1.5,1.5c3.1,2.6,1.5,3.6-1.5,1.5
		c-3.1,2-4.6,1-1.5-1.5C-24.7,40.3-24.8,39.3-23.9,39.3z"/>
</symbol>
<symbol  id="SQ2" viewBox="-39.4 -48 78.7 96">
	<path d="M-11-48C-0.9-26.3,9.3-4.7,29-2.6L-5.1-48H-11z M-31.4-41.9C-34.9-29.3-43-17.6-37.5-1.2l11.2-8.7c-2.8-4-5.1-9.3-5.1-12
		c0-2,0.5-15.3,0.5-15.8C-30.9-38-31.2-39.8-31.4-41.9z M29.9-1.5C14.2,12.6-2.9,29.9-18.2,48L-14,48C-1.2,32.4,16,15.4,31.8,1.2
		L29.9-1.5z M36.6,7.4c-2.9,2-6.6,4.5-9.6,7.7l2.6,2c3.1-3,6.7-5.6,9.8-7.6C38.4,8.9,37.5,8.1,36.6,7.4z M7.9,29.1L-8.4,48l4.6,0
		L9.4,32.4h10.9l-0.2-3.3H7.9z"/>
</symbol>
<symbol  id="SQ3" viewBox="-66.7 -74.8 133.4 149.5">
	<path class="st0" d="M-22,15.9c0,4.2-2.6,7.7-5.9,7.7s-5.9-3.4-5.9-7.7s2.6-7.7,5.9-7.7S-22,11.7-22,15.9L-22,15.9 M-23.8,21.6
		h46.9 M-34.9,21.6h2.9 M-31.7,24.6h57.4 M-52.9-19l22.4-17.2 M-66.4-8.6l4.6-3.5 M49.9-6.5c-6.1-3.9-12.1-8-17.7-12.5 M57.1-2.1
		C55-3.4,53-4.6,50.9-5.8 M-9.4-74.5L32.2-19 M66.4,33.8c-7,4-11.9,7.8-16.8,13.5c-4.6-8-9.6-13.3-16.4-19.7
		C25.5,20.3,21.6,14.1,20,9.1s-0.9-8.8,0.8-12.4c2.9-5.9,9.3-10.5,14.2-13.7 M-15.4-74.5C-5.2-52.8,5-31.2,24.6-29.1 M-29.2,8.5
		c-4.5-13-3.7-27.5-4.4-41.7c7.8,4.1,16.7,7.9,46.8,0.6C-0.6-20-15.2-8.9-26.3,8.5 M-30-27.9c3,1.2,6.6,2.2,11.2,2.6
		c5.2,0.4,11.8,0,20.5-1.5C-8.4-17.9-18.6-8.6-27.1,3.8C-29.7-5.9-29.7-16.8-30-27.9L-30-27.9 M22.2-29.5
		C7.1-15.8-9.1,0.2-21.9,15.4 M-43.5-26.2c-0.1,18.7,3.9,35.1,10,47.6 M-46.8-23.7c0.2,15.4,3.1,29.3,7.7,40.7 M-22.5,21.5
		C-7.3,3.5,9.9-13.8,25.5-28 M-18.4,21.6C-5.6,5.9,11.7-11,27.5-25.3 M-12.8,21.6L3.6,2.7h12.3 M-8.4,21.6L5.1,6H16 M-3.9,21.5
		L6.6,9.3h9.9 M0.4,21.5l7.7-8.9h9.6 M4.8,21.5l4.8-5.6h9.7 M9.2,21.5l2-2.3h10.3 M26.2-10.2l16.1,13 M22.7-11.4L40.2,2.9
		 M-19.4-25.3c-4.6,9.4-5.4,19.2-7.6,29 M-35.4-74.5c-4.6,16.6-16.9,33.4-9.6,49.4 M-41.9-27.6c-5.4-16.4,2.6-28.1,6.1-40.8
		 M15.9-40.7c1.5-0.7,3.1-1.2,4.7-1.8 M-66.4,17.8c7.3-4.4,11.9-8.4,17.4-15.6C-43.9,12.4-38.8,18-31,25.4
		c28.8,26.9,9.6,41.8-1.3,49.1 M-27.8,11.6c0.5,0,1,0.2,1.5,0.9c0.6,0.7,1,2,1,3.4s-0.5,2.7-1,3.4c-0.6,0.7-1.1,0.9-1.5,0.9
		c-0.5,0-1-0.2-1.5-0.9c-0.6-0.7-1-2-1-3.4s0.5-2.7,1-3.4C-28.8,11.8-28.3,11.6-27.8,11.6L-27.8,11.6 M49,3.7
		c1.7,3.1,2.7,6.2,3.1,9.2c4.8,1.9,8.5,5.3,11.7,9.2c0.2-3.8-0.4-7.3-3.1-10.2c2.4-0.5,4.1-2,5.1-4.6c-1.5-2.5-3.7-3.3-6.1-3.6
		c4.6-3.3,3.1-7.3,2-11.2C58.4-3.6,55.3,0.4,49,3.7L49,3.7 M66.4-2.4l-3.5,0.3 M66.4,20.6l-2.7-1.2 M55.4,11
		c3.9,2.1,5.6,6.1,6.7,9.1 M54.4,5.7c2.7-0.1,4.9-0.6,7.9,1.5c-1.5,2-3.1,3-6.9,3.5 M59.7-5.1C59.5-1,58.4,3.4,54.4,5.6 M52.3,1.7
		C55,5.8,56,9.9,55.1,14.3 M49,3.7c0,0-8.4-1.5-9.7-0.5c-1.3,1-3.4,3.2-4.1,4.1c-3.3,4,0.4,5.1,2,3.1 M40.9,7.3
		c-6.1,2.6-6.6,12.3,2,2.6 M40,12.7c-1.5,3.3,0.1,6.2,6-0.5 M42.1,15.7c-2.2,4,4.2,3.6,10-2.8 M42.2,2.7c3.4-3.8,6.8-7.8,9.9-12.3
		 M43.8,2.9c3.3-3.7,6.5-7.7,9.5-12 M44.4,0.6c-0.5-5.9-2.6-9.2-8.2-6.6C40.2-4.3,40.2,1.6,44.4,0.6L44.4,0.6 M36.3-6
		c3.9-0.6,5.7,4.2,8.2,6.6 M46,0.3c3.6-1.5,5.2-4.8,6.9-0.5C49.5-0.4,46.5,4.4,46,0.3L46,0.3 M46,0.4c2.7,0.8,5.4-2.4,6.9-0.6
		 M51.6-14.7c-7.7,4.6-7.7-10.2,0-5.6c-4.6-7.7,10.2-7.7,5.6,0c7.7-4.6,7.7,10.2,0,5.6C61.8-7,47-7,51.6-14.7L51.6-14.7 M60.5-17.5
		c-6.1,0-6.1,0-6.1-6.1c0,6.1,0,6.1-6.1,6.1c6.1,0,6.1,0,6.1,6.1C54.4-17.5,54.4-17.5,60.5-17.5L60.5-17.5 M48.3-21.2
		c-0.1-1.1-0.3-2.1-0.6-2.9c0.9,0.3,1.9,0.4,3,0.6 M50.7-11.4c-1.1,0.1-2.1,0.3-3,0.6c0.2-0.9,0.4-1.9,0.6-3 M60.5-13.9
		c0.1,1.1,0.3,2.1,0.6,3c-0.9-0.2-1.9-0.4-3-0.6 M58.1-23.6c1.1-0.1,2.1-0.3,3-0.6c-0.2,0.9-0.4,1.9-0.6,3 M-29.8-35
		c-0.5-0.2-1-0.5-1.5-0.7 M10-35.2c-12.8,3-21.4,3.7-27.4,3.4 M-30-27.9c3,1.2,6.6,2.2,11.2,2.6c5.2,0.4,11.8,0,20.5-1.5
		C-8.4-17.9-18.6-8.6-27.1,3.8C-29.7-5.9-29.7-16.8-30-27.9L-30-27.9 M-57.7-60.7c1.1,3.2,0.5,9.2,3.6,9.2c6.6,0,2-9.7-3.6-14.8
		c-5.6,5.1-10.2,14.8-3.6,14.8C-58.2-51.5-58.8-57.5-57.7-60.7L-57.7-60.7 M-62.3-45.3c0,0,0-1,1-1c1.3,0,1.5,4.6-1,4.6
		c-3.6,0-3.1-7.2,0.5-7.2c3.1,0,4.1,5.1,4.1,5.1s1-5.1,4.1-5.1c3.6,0,4.1,7.2,0.5,7.2c-2.6,0-2.3-4.6-1-4.6c1,0,1,1,1,1 M-54.1-46.4
		c-5.6,0.3,1.5,25.5,1.5,30.3c0,3-1,6-5.1,6s-5-3-5.1-6c-0.1-4.7,7.1-30,1.5-30.3 M-59.2-47.4v-5.8 M-56.2-47.4v-5.8 M-55.9-10.4
		c1.9,0.5,3.2,1.8,3.2,3.3c0,2-2.3,3.6-5.1,3.6s-5.1-1.6-5.1-3.6c0-1.5,1.3-2.8,3.2-3.3 M-59.7-3.7c-2.5,0.7-3.2,2.9-3.2,4.9
		c0,3.7,1.3,9.8,2.1,12.9 M-53.3,7.3c0.4-2.2,0.7-4.5,0.7-6.2c0-2-0.7-4.2-3.2-4.9 M-40.2,15.9h0.7 M-66.4,15.9h2.9 M-41.3,14.4h1.2
		 M-66.4,14.4h5.2 M-42.5,12.9h1.9 M-66.4,12.9h5.4 M-43.6,11.3h2.5 M-66.4,11.3h5 M-44.7,9.8h3.1 M-66.4,9.8h4.7 M-45.6,8.3h3.5
		 M-66.4,8.3h4.4 M-46.5,6.7h4 M-53.2,6.7h0.5 M-66.4,6.7h4.2 M-47.4,5.2h4.4 M-52.9,5.2h1.5 M-66.4,5.2h3.9 M-48.2,3.7h4.8
		 M-52.7,3.7h2.5 M-65.4,3.7h2.7 M-52.6,2.2h8.8 M-65.4,2.2h2.5 M-52.6,0.6h8.5 M-64.9,0.6h2.1 M-52.8-0.9h7.4 M-64.9-0.9h2.3
		 M-50.6-2.4h4.6 M-33.2-22.4c-1.2-1.8-2.5-3.3-4.6-4.8c-2.2-1.6-3.3,1-2.4,2.3 M-33.2-19.3c-1.4-1.6-4.2-4-6.4-5.3
		c-2.1-1.2-2.7,1.5-1,2.9 M-33-16c-1.4-1.6-4.1-4.1-6.4-5.3c-3.4-1.8-4.5,1.4-0.3,3.2 M-32.7-9.9c-1.4-1.6-4.1-4.1-6.4-5.3
		c-3.1-1.7-3.8,1.7-0.5,3.7 M-32.9-13.4c-1.4-1.4-3.4-2.8-5.2-4c-2.3-1.5-3.5,0.5-2.3,1.8 M-32.5-7.1c-1.4-1.4-3.3-2.7-5.1-3.9
		c-2.5-1.7-3.7,1.3-2,2.6 M-32.1-4.3c-1.7-1.3-4.1-2.7-5.9-3.7c-3.2-1.7-3.8,2.1-0.3,3.8 M-31.7-1.9c-4.7-3.9-10-2.6-5.6,0.5
		 M-31.1,1.5c-5.1-4.3-14.3-4.3-5.3,0.6 M-29.7,7c-6.4-4.1-14.5-3-4.5,1.1 M-30,8.9c-4.4-1.9-9.5,0-4.5,1.4 M-32.1,10.7
		c-3.7-1.2-5.7,1-1.2,2.1 M-33.3-26.7c-0.7-0.8-1.6-1.5-2.6-2.3c-1.8-1.3-2.7,0-2.6,1.3 M-33.5-30.7c-0.1-0.1-0.3-0.2-0.4-0.3
		c-2-1.4-2.9,0.4-2.5,1.7 M-30.5,4.1c-4.3-3.3-8.9-2.3-5.9,0.3 M-25.9,7.8c10,0.1,6.7,2.6,2.2,2.6 M-24.5,5.8
		c3.3-1.2,6.2-0.9,7.7-0.2c1.7,0.9,1.4,2.5-2.7,3.1 M-22.4,2.9c6-1.1,10.6,1.4,5.7,2.7 M-20.3,0.1c6.9-1.8,12.8,1.1,5,3.4
		 M-18.5-2.2c7.1-2.4,13.8,0.5,6.9,2.9 M-15.6-5.4c5.2-0.8,9.1,1,5.7,2.9 M-13.9-7.4c7.9-2,16.1,1.8,5,2.8 M-10.1-11.3
		C-4.3-11.8,0.1-9.5-6-7.7 M-8.3-13.1c7.7-2,15.5,1.5,5.2,3.5 M-5.4-15.8c5.7-0.8,10.5,1.2,6.6,2.9 M-3-18.1
		c7.3-1.7,14.4,1.5,5.5,3.5 M1.1-21.8c5.8-0.5,10.1,1.9,3.7,3.7 M3.5-23.9c7.5-1.7,14.8,1.7,4.5,3.7 M7.4-27.4
		c5.9-0.6,10.4,1.8,4.3,3.6 M10.1-29.7c6.9-1.2,13,1.8,4.5,3.7 M-0.5-46.5c-0.5,1.2-1,2.4-3.6,2.2c-1.5,8.3-7.5,10.1-13.3,12.3
		c0,0-2,1.6-3,1.6c-1.5,0-2.6-0.6-3.1-0.6s-1,0.5-2.6,0.5c-1.5,0-3.1-2.6-4.1-5.1c-3.1-4.1-5.6-9.8-5.6-12.8c0-2,0.5-15.3,0.5-15.8
		c0-0.3-0.6-4.3-1-7.4 M-2.8-49.9c-0.6,1-1.4,2.5-0.8,2.5c0.3,0,0.7-1.1,1-2 M26-23.9l5.2,5.5 M24.5-22.5l5,5.3 M23-21.2l4.9,5.3
		 M21.6-19.8l4.7,5.1 M20.1-18.5l4.7,5 M18.7-17.1l3.6,3.9 M17.2-15.8l2.5,2.6 M15.7-14.5l1.8,2 M14.3-13.1l0.9,1 M-17.1,20h5.7
		 M-15.7,18.5h5.6 M-14.5,17h5.7 M-13.1,15.4h5.7 M-11.8,13.9h5.7 M-9.9,11.9h3.3 M14.3,9.3v3.3 M11.7,9.3v3.3 M9.2,9.3v3.3
		 M5.4,10.7L7.7,13 M3.5,12.8l2.4,2.4 M1.6,15L4,17.3 M-0.2,17.3l2.3,2.3 M-2.1,19.4L0,21.6 M14.4-42.7c1.6-0.6,3.3-1.2,4.9-1.7
		 M12.9-44.8c1.6-0.6,3.3-1.2,5-1.7 M11.3-46.8c1.7-0.7,3.4-1.2,5.1-1.8 M9.9-48.7c1.7-0.7,3.4-1.3,5.2-1.8 M9.1-51.1
		c1.2-0.5,2.4-0.9,3.7-1.3 M7.8-53.2c0.9-0.3,1.7-0.6,2.6-0.9 M6.3-55.2c0.6-0.2,1.1-0.4,1.7-0.6 M25.6-64.8
		c-5.3,2-10.6-2.5-14.2-0.1c-4.7,3.2-0.7,9.3,2.9,7.3c3.2-1.9,0.1-6.1-1.5-5.1c-1,0.6-1.5,1.9-1,2.6c0.6,0.9,1.1,1,2,0.5 M25.7-64.5
		c-4.1,3.9-2.3,10.6-6,12.8c-4.9,2.9-8.7-3.4-5.4-5.7c3.1-2.1,5.6,2.6,4,3.5c-1,0.6-2.3,0.6-2.7-0.2c-0.5-0.9-0.4-1.4,0.4-2.1
		 M11.7-56.1l9.2-6.1 M19.9-58.1c-1-1-4.6-1.2-5.6,0.5c2.2-1.1,3.6-2.5,2.6-4.6 M14.8-51c2.6,3.1,5.1,2,7.7,1
		c2.5,3.3,6.6,3.9,10.7,4.6 M7.7-61.2c-1-2,1.5-4.6,3.1-5.6c-0.6-2.4,0.3-5,1.2-7.7 M5.1-65.3c1-2.6,2.6-2.6,2.6-2.6
		c-0.9-3.9,0.3-4.9,0.8-6.6 M-22.7-74.5c1.7,5.3,5.7,8,11.4,8.6 M-20.8-74.5c1.6,4,4.6,6.3,8.8,7.2 M-19.3-74.5
		c1.4,2.8,3.6,4.7,6.6,5.7 M-17.7-74.5c1.1,1.7,2.5,2.9,4.2,3.9 M-28.5-74.5c-1.5,4.1-3.1,8.2-6.8,10.2 M-30.1-74.5
		c-1.3,3.2-2.7,6.3-5.4,8.2 M-31.7-74.5c-1,2.4-2.2,4.5-4.1,6.1 M-33.2-74.5c-0.8,1.5-1.7,2.8-3,3.9 M-35.2-62.2
		c4.2-2.6,6.3-1.5,8.2,0c2,5.6-1.5,11.2-1.5,15.5c0,1.6,1.2,1.4,2,1.4c0.5,0,1.5,1,1.5,1 M-35.2-61.7c3-2.1,5.7-1.8,8.2-0.5
		 M-22.5-49.4c2,0,2,3.1,0.5,3.1c-4.1,0.5-4.1-1-0.5,0 M-29.1-42.3v1l0.5-0.5L-29.1-42.3L-29.1-42.3 M-19.9-41.8l0.5-0.5v1
		L-19.9-41.8L-19.9-41.8 M-28.6-41.8c0,0,0.5,0.5,1,0.5c0.5,0,0.5-0.4,1.3-0.5c0.8-0.1,0.8,0.5,1.3,0.5c0.5,0,1.5-1,2-1
		s1.5,0.5,2,0.5h1 M-26.6-39.7c0.3,2.9,4.7,0.9,4.6,0.5C-22.5-38.7-26.5-36-26.6-39.7L-26.6-39.7 M-22.5-60.7
		c5.3-3.8,8.8-1.7,12.3,0.5C-13.8-62.8-18.9-64.8-22.5-60.7L-22.5-60.7 M-11.2-58.1c-1.5,0-3.7-2.6-5.8-2.4c-3,0.3-3.9,3.9-5.5,4.4
		c1.8-2.2,3.5-2.9,4.9-2.9c3,0,3.8,3.4,7.3,2.4 M-22.5-56.1c1.5-1,3.4,1,4.6,1c3,0,4.5-1.5,5.6-1.5 M-27.6-56.6c-2,0-3.2-2-4.8-2.1
		c-1.3-0.1-3,1.3-3,1.8c0,0.7,1.1,2.1,2.3,2.4C-31.4-54.1-29.3-56.6-27.6-56.6L-27.6-56.6 M-35.2-57.6c2.3-4.4,6.6-1,6.6-0.5
		 M17.4-47.4c1.5,1.5,3.6,1,4.6,0.5c2.1,1.5,4.4,2.1,6.4,2.4 M20.6-42.6c4.4-1.4,8.9-2.2,12.6-2.8c-5.1-9.9-7.7-19.5-10.3-29.1
		 M20.6-42.6c4.4-1.4,8.9-2.2,12.6-2.8c-5.1-9.9-7.7-19.5-10.3-29.1 M20.5-42.6l-22-31.9 M28.4-44.5c-2-0.3-4.3-0.9-6.4-2.4
		c-1,0.5-3.1,1-4.6-0.5"/>
</symbol>
<symbol  id="SQ4" viewBox="-63.8 -51.2 127.6 102.4">
	<path class="st1" d="M31.2,16.1l1.8,2.7 M33.4,19.4l1.5,2.2 M31.9,15.1c1.3,2.1,2.7,4.1,4.2,5.9 M36.5,21.5
		c0.6,0.8,1.2,1.5,1.9,2.3 M38.7,24.2c0.5,0.6,1,1.2,1.5,1.8 M32.8,14.1c2.6,4.4,5.8,8,8.8,11.6 M33.7,13.2c2.7,4.6,6,8.3,9.2,12.1
		 M34.5,12.5c2.8,4.6,6.1,8.3,9.4,12.2 M-60.2-25c0.5,3.5,1.3,7.1,1.8,10.2c0.6,3,1,5.6,1,6.4c0,1.3-0.3,2.6-0.8,3.3
		c-0.5,0.7-1.1,1.2-2.8,1.2s-2.3-0.5-2.8-1.2 M-59.8-14.5c0.3,1.5,0.5,2.9,0.7,4s0.3,2,0.3,2.1c0,1.2-0.3,2.2-0.5,2.5
		c-0.2,0.2-0.2,0.3-0.3,0.3s-0.5,0.2-1.2,0.2 M-59.4-1.2c1.5,0.4,2.1,1.2,2.1,1.9c0,0.4-0.2,0.8-0.8,1.3s-1.6,0.8-2.7,0.8
		S-63,2.4-63.6,2 M-59.4,5.5c0.9,0.3,1.3,0.7,1.6,1.2c0.3,0.6,0.5,1.4,0.5,2.2c0,1.6-0.3,3.8-0.7,5.9 M-59,0.7
		c-0.3,0.2-1,0.5-1.8,0.5c-0.8,0-1.6-0.3-1.9-0.5 M-59.1,7.4c0.1,0.2,0.3,0.8,0.3,1.4c0,1.4-0.3,3.5-0.6,5.7 M4.7-29.1
		c-8.9,2-15.5,2.8-20.6,3 M3.5-30.3c-6.7,1.4-12.1,2.2-16.5,2.6 M2.3-31.6c-5.1,1.1-9.4,1.7-13.1,2.1 M1-32.8
		c-3.9,0.8-7.3,1.3-10.4,1.7 M-0.1-34.2c-3.1,0.6-5.8,1-8.3,1.4 M-1.1-35.5c-2.4,0.4-4.6,0.8-6.6,1.1 M-2.2-36.8
		C-4-36.5-5.8-36.2-7.4-36 M-29.7-27.9c1.2-1.4,2.8-1.3,4.6,0 M-24.6-46.8c1,1.5,3.1,1.5,4.6,1.5 M-37.9-45.8
		c5.1,2.6,6.1-3.1,7.2-3.1 M-33.8-50.2c0.1,0.3,0.2,0.7,0.2,1.1c0,1.3-0.8,2.4-1.7,2.4c-1,0-1.7-1.1-1.7-2.4c0-0.6,0.2-1.1,0.4-1.6
		 M-19.7-51c0.2,0.4,0.3,0.9,0.3,1.4c0,1.3-0.8,2.4-1.7,2.4s-1.7-1.1-1.7-2.4c0-0.4,0.1-0.8,0.2-1.1"/>
	
		<use xlink:href="#SSQ"  width="87" height="87" x="-43.5" y="-43.5" transform="matrix(7.825439e-02 -6.566301e-02 6.566323e-02 7.825413e-02 51.7958 28.7729)" style="overflow:visible;"/>
	
		<use xlink:href="#SSQ"  width="87" height="87" x="-43.5" y="-43.5" transform="matrix(7.825439e-02 -6.566301e-02 6.566323e-02 7.825413e-02 51.7958 28.7729)" style="overflow:visible;"/>
	
		<use xlink:href="#SSQ"  width="87" height="87" x="-43.5" y="-43.5" transform="matrix(7.825439e-02 -6.566301e-02 6.566323e-02 7.825413e-02 52.4087 39.8055)" style="overflow:visible;"/>
	
		<use xlink:href="#SSQ"  width="87" height="87" x="-43.5" y="-43.5" transform="matrix(7.825439e-02 -6.566301e-02 6.566323e-02 7.825413e-02 52.4087 39.8055)" style="overflow:visible;"/>
	
		<use xlink:href="#SSQ"  width="87" height="87" x="-43.5" y="-43.5" transform="matrix(7.825439e-02 -6.566301e-02 6.566323e-02 7.825413e-02 42.3976 38.7839)" style="overflow:visible;"/>
	
		<use xlink:href="#SSQ"  width="87" height="87" x="-43.5" y="-43.5" transform="matrix(7.825439e-02 -6.566301e-02 6.566323e-02 7.825413e-02 42.3976 38.7839)" style="overflow:visible;"/>
	
		<use xlink:href="#SSQ"  width="87" height="87" x="-43.5" y="-43.5" transform="matrix(7.825439e-02 -6.566301e-02 6.566323e-02 7.825413e-02 34.8383 29.9987)" style="overflow:visible;"/>
	
		<use xlink:href="#SSQ"  width="87" height="87" x="-43.5" y="-43.5" transform="matrix(7.825439e-02 -6.566301e-02 6.566323e-02 7.825413e-02 34.8383 29.9987)" style="overflow:visible;"/>
	
		<use xlink:href="#SSQ"  width="87" height="87" x="-43.5" y="-43.5" transform="matrix(7.825439e-02 -6.566301e-02 6.566323e-02 7.825413e-02 24.2143 20.192)" style="overflow:visible;"/>
	
		<use xlink:href="#SSQ"  width="87" height="87" x="-43.5" y="-43.5" transform="matrix(7.825439e-02 -6.566301e-02 6.566323e-02 7.825413e-02 24.2143 20.192)" style="overflow:visible;"/>
	
		<use xlink:href="#SSQ"  width="87" height="87" x="-43.5" y="-43.5" transform="matrix(7.825439e-02 -6.566301e-02 6.566323e-02 7.825413e-02 22.069 7.4228)" style="overflow:visible;"/>
	
		<use xlink:href="#SSQ"  width="87" height="87" x="-43.5" y="-43.5" transform="matrix(7.825439e-02 -6.566301e-02 6.566323e-02 7.825413e-02 22.069 7.4228)" style="overflow:visible;"/>
</symbol>
<symbol  id="SS3" viewBox="-11.2 -11.2 22.3 22.3">
	<rect x="-11.2" y="-11.2" class="st2" width="22.3" height="22.3"/>
	<path class="st3" d="M0-11.2C2.2-5.6,7.9-2.2,7.9,4.1c0,1.8-1.5,3.3-3.3,3.3S1.2,6,1.2,4.1C1.2,4,1.1,3.9,1,3.9S0.8,4,0.8,4.1
		c0,4.5,1.1,4.8,2.1,7h-5.8c1-2.2,2.1-2.6,2.1-7C-0.8,4-0.9,3.9-1,3.9S-1.2,4-1.2,4.1c0,1.8-1.5,3.3-3.3,3.3S-7.9,6-7.9,4.1
		C-7.9-2.2-2.2-5.6,0-11.2z"/>
</symbol>
<symbol  id="SSQ" viewBox="-43.5 -43.5 87 87">
	<rect x="-37.5" y="-37.5" class="st4" width="75" height="75"/>
	<path class="st5" d="M0-37.5c7.5,18.8,26.6,30,26.6,51.4c0,6.2-5,11.3-11.3,11.3s-11.3-5-11.3-11.3c0-0.4-0.3-0.8-0.7-0.8
		s-0.8,0.3-0.8,0.8c0,15,3.8,16.1,7.1,23.6H-9.8c3.4-7.5,7.1-8.6,7.1-23.6c0-0.4-0.3-0.8-0.8-0.8s-0.7,0.3-0.7,0.8
		c0,6.2-5,11.3-11.3,11.3s-11.3-5-11.3-11.3C-26.6-7.5-7.5-18.8,0-37.5z"/>
</symbol>
<symbol  id="VSQ" viewBox="-9.6 -16 19.2 32">
	<path class="st6" d="M-8.3,3.2c9.6,0,7,11.5,16.6,11.5 M-5.6,0v-9.1c0-3.1,2.5-5.6,5.6-5.6s5.6,2.5,5.6,5.6V9.1
		c0,3.1-2.5,5.6-5.6,5.6s-5.6-2.5-5.6-5.6V0z"/>
</symbol>
<path class="st7" d="M23.5,9.3h128.8c7.8,0,14.1,6.4,14.1,14.2v216.6c0,7.8-6.3,14.2-14.1,14.2H23.5c-7.8,0-14.1-6.4-14.1-14.2V23.5
	C9.3,15.7,15.6,9.3,23.5,9.3z"/>
<g>
	<rect id="XSQ" x="38.4" y="55.5" class="st3" width="98.9" height="152.6"/>
</g>
<g>
	<defs>
		<rect id="SVGID_1_" x="38.4" y="55.5" width="98.9" height="152.6"/>
	</defs>
	<clipPath id="SVGID_00000124844738978720215830000016134009884324345242_">
		<use xlink:href="#SVGID_1_"  style="overflow:visible;"/>
	</clipPath>
	<g style="clip-path:url(#SVGID_00000124844738978720215830000016134009884324345242_);">
		
			<use xlink:href="#SQ1"  width="100.1" height="89.9" x="-50.1" y="-44.9" transform="matrix(0.7447 0 0 0.7468 100.0458 100.5334)" style="overflow:visible;"/>
	</g>
</g>
<g>
	<defs>
		<rect id="SVGID_00000178889242030314163690000007928431960983854501_" x="38.4" y="55.5" width="98.9" height="152.6"/>
	</defs>
	<clipPath id="SVGID_00000008839398495472031960000000110498442670865572_">
		<use xlink:href="#SVGID_00000178889242030314163690000007928431960983854501_"  style="overflow:visible;"/>
	</clipPath>
	<g style="clip-path:url(#SVGID_00000008839398495472031960000000110498442670865572_);">
		
			<use xlink:href="#SQ1"  width="100.1" height="89.9" x="-50.1" y="-44.9" transform="matrix(-0.7447 0 0 -0.7468 75.7023 163.0886)" style="overflow:visible;"/>
	</g>
</g>
<g>
	<defs>
		<rect id="SVGID_00000016777449265790599750000011604747471453343416_" x="38.4" y="55.5" width="98.9" height="152.6"/>
	</defs>
	<clipPath id="SVGID_00000082341446473576442820000015292506972793432224_">
		<use xlink:href="#SVGID_00000016777449265790599750000011604747471453343416_"  style="overflow:visible;"/>
	</clipPath>
	<g style="clip-path:url(#SVGID_00000082341446473576442820000015292506972793432224_);">
		
			<use xlink:href="#SQ2"  width="78.7" height="96" x="-39.4" y="-48" transform="matrix(0.7447 0 0 0.7468 81.9716 91.3788)" style="overflow:visible;"/>
	</g>
</g>
<g>
	<defs>
		<rect id="SVGID_00000053515035144667084780000001477794861502267798_" x="38.4" y="55.5" width="98.9" height="152.6"/>
	</defs>
	<clipPath id="SVGID_00000171709279012816401700000002227865514965086375_">
		<use xlink:href="#SVGID_00000053515035144667084780000001477794861502267798_"  style="overflow:visible;"/>
	</clipPath>
	<g style="clip-path:url(#SVGID_00000171709279012816401700000002227865514965086375_);">
		
			<use xlink:href="#SQ2"  width="78.7" height="96" x="-39.4" y="-48" transform="matrix(-0.7447 0 0 -0.7468 93.7765 172.2432)" style="overflow:visible;"/>
	</g>
</g>
<g>
	<defs>
		<rect id="SVGID_00000155118457047621617560000010971057791545238165_" x="38.4" y="55.5" width="98.9" height="152.6"/>
	</defs>
	<clipPath id="SVGID_00000106109281999740311810000005652371437909750672_">
		<use xlink:href="#SVGID_00000155118457047621617560000010971057791545238165_"  style="overflow:visible;"/>
	</clipPath>
	<g style="clip-path:url(#SVGID_00000106109281999740311810000005652371437909750672_);">
		
			<use xlink:href="#SQ3"  width="133.4" height="149.5" x="-66.7" y="-74.8" transform="matrix(0.7447 0 0 0.7468 86.9611 111.1317)" style="overflow:visible;"/>
	</g>
</g>
<g>
	<defs>
		<rect id="SVGID_00000003087858510933427470000001032095945520382851_" x="38.4" y="55.5" width="98.9" height="152.6"/>
	</defs>
	<clipPath id="SVGID_00000059992003270068500640000016410406211283344258_">
		<use xlink:href="#SVGID_00000003087858510933427470000001032095945520382851_"  style="overflow:visible;"/>
	</clipPath>
	<g style="clip-path:url(#SVGID_00000059992003270068500640000016410406211283344258_);">
		
			<use xlink:href="#SQ3"  width="133.4" height="149.5" x="-66.7" y="-74.8" transform="matrix(-0.7447 0 0 -0.7468 88.7869 152.4904)" style="overflow:visible;"/>
	</g>
</g>
<g>
	<defs>
		<rect id="SVGID_00000074427930707437911270000002974023139498780585_" x="38.4" y="55.5" width="98.9" height="152.6"/>
	</defs>
	<clipPath id="SVGID_00000131353859697744533160000000559512757392205494_">
		<use xlink:href="#SVGID_00000074427930707437911270000002974023139498780585_"  style="overflow:visible;"/>
	</clipPath>
	<g style="clip-path:url(#SVGID_00000131353859697744533160000000559512757392205494_);">
		
			<use xlink:href="#SQ4"  width="127.6" height="102.4" x="-63.8" y="-51.2" transform="matrix(0.7447 0 0 0.7468 90.2295 105.3649)" style="overflow:visible;"/>
	</g>
</g>
<g>
	<defs>
		<rect id="SVGID_00000152961588614319630720000013785684843041009542_" x="38.4" y="55.5" width="98.9" height="152.6"/>
	</defs>
	<clipPath id="SVGID_00000111889250370110642280000006957473811341199786_">
		<use xlink:href="#SVGID_00000152961588614319630720000013785684843041009542_"  style="overflow:visible;"/>
	</clipPath>
	<g style="clip-path:url(#SVGID_00000111889250370110642280000006957473811341199786_);">
		
			<use xlink:href="#SQ4"  width="127.6" height="102.4" x="-63.8" y="-51.2" transform="matrix(-0.7447 0 0 -0.7468 85.5186 158.2571)" style="overflow:visible;"/>
	</g>
</g>
<g>
	<defs>
		<rect id="SVGID_00000011733813017580047420000003092525109259963531_" x="14.6" y="23.2" width="23.8" height="23.9"/>
	</defs>
	<clipPath id="SVGID_00000080195758773349911630000014755343797910914468_">
		<use xlink:href="#SVGID_00000011733813017580047420000003092525109259963531_"  style="overflow:visible;"/>
	</clipPath>
	<g style="clip-path:url(#SVGID_00000080195758773349911630000014755343797910914468_);">
		
			<use xlink:href="#VSQ"  width="19.2" height="32" x="-9.6" y="-16" transform="matrix(0.7447 0 0 0.7468 26.5111 35.0998)" style="overflow:visible;"/>
	</g>
</g>
<g>
	<defs>
		<rect id="SVGID_00000158713871310655921500000012306861445059626412_" x="137.3" y="216.6" width="23.8" height="23.9"/>
	</defs>
	<clipPath id="SVGID_00000093168777944860303550000015704749759272194739_">
		<use xlink:href="#SVGID_00000158713871310655921500000012306861445059626412_"  style="overflow:visible;"/>
	</clipPath>
	<g style="clip-path:url(#SVGID_00000093168777944860303550000015704749759272194739_);">
		
			<use xlink:href="#VSQ"  width="19.2" height="32" x="-9.6" y="-16" transform="matrix(-0.7447 0 0 -0.7468 149.2369 228.5222)" style="overflow:visible;"/>
	</g>
</g>
<g>
	<rect id="XSQ_00000128469975259658894750000009661079205242568104_" x="38.4" y="55.5" class="st8" width="98.9" height="152.6"/>
</g>
<g>
	<defs>
		<rect id="SVGID_00000067221019801777469100000016344825626409880729_" x="16.5" y="50.8" width="19.9" height="20"/>
	</defs>
	<clipPath id="SVGID_00000016042700458368952010000001472067511203403702_">
		<use xlink:href="#SVGID_00000067221019801777469100000016344825626409880729_"  style="overflow:visible;"/>
	</clipPath>
	
		<g transform="matrix(1 0 0 1 1.907349e-06 -3.814697e-06)" style="clip-path:url(#SVGID_00000016042700458368952010000001472067511203403702_);">
		
			<use xlink:href="#SS3"  width="22.3" height="22.3" x="-11.2" y="-11.2" transform="matrix(0.7447 0 0 0.7468 26.5115 60.7783)" style="overflow:visible;"/>
	</g>
</g>
<g>
	<defs>
		<rect id="SVGID_00000116199113750128545210000005316374420665866647_" x="139.3" y="192.8" width="19.9" height="20"/>
	</defs>
	<clipPath id="SVGID_00000145742733296750312570000016175095664430269583_">
		<use xlink:href="#SVGID_00000116199113750128545210000005316374420665866647_"  style="overflow:visible;"/>
	</clipPath>
	<g style="clip-path:url(#SVGID_00000145742733296750312570000016175095664430269583_);">
		
			<use xlink:href="#SS3"  width="22.3" height="22.3" x="-11.2" y="-11.2" transform="matrix(-0.7447 0 0 -0.7468 149.2365 202.8437)" style="overflow:visible;"/>
	</g>
</g>
</svg>
