<?xml version="1.0" encoding="utf-8"?>
<!-- Generator: Adobe Illustrator 27.9.0, SVG Export Plug-In . SVG Version: 6.00 Build 0)  -->
<svg version="1.1" id="Layer_1" xmlns="http://www.w3.org/2000/svg" xmlns:xlink="http://www.w3.org/1999/xlink" x="0px" y="0px"
	 viewBox="0 0 175.7 263.6" style="enable-background:new 0 0 175.7 263.6;" xml:space="preserve">
<style type="text/css">
	.st0{fill:#FFFFFF;fill-opacity:0;}
	.st1{fill:#FFFFFF;}
	.st2{fill:none;stroke:#FFFFFF;stroke-width:2.56;stroke-linecap:square;stroke-miterlimit:10;}
	.st3{fill:#272727;stroke:#000000;}
</style>
<symbol  id="SS7" viewBox="-11.2 -11.2 22.3 22.3">
	<rect x="-11.2" y="-11.2" class="st0" width="22.3" height="22.3"/>
	<path class="st1" d="M0-11.2C2.2-5.6,7.9-2.2,7.9,4.1c0,1.8-1.5,3.3-3.3,3.3S1.2,6,1.2,4.1C1.2,4,1.1,3.9,1,3.9S0.8,4,0.8,4.1
		c0,4.5,1.1,4.8,2.1,7h-5.8c1-2.2,2.1-2.6,2.1-7C-0.8,4-0.9,3.9-1,3.9S-1.2,4-1.2,4.1c0,1.8-1.5,3.3-3.3,3.3S-7.9,6-7.9,4.1
		C-7.9-2.2-2.2-5.6,0-11.2z"/>
</symbol>
<symbol  id="VS7" viewBox="-10.2 -16 20.3 32">
	<path class="st2" d="M-8.9-10.2v-4.5h17C3.9-6.4-3.3,3.2-3.3,14.7"/>
</symbol>
<path class="st3" d="M23.5,9.3h128.8c7.8,0,14.1,6.4,14.1,14.2v216.6c0,7.8-6.3,14.2-14.1,14.2H23.5c-7.8,0-14.1-6.4-14.1-14.2V23.5
	C9.3,15.7,15.6,9.3,23.5,9.3z"/>
<g>
	<defs>
		<rect id="SVGID_1_" x="14.6" y="23.2" width="23.8" height="23.9"/>
	</defs>
	<clipPath id="SVGID_00000132789181095524102360000011211017894681224841_">
		<use xlink:href="#SVGID_1_"  style="overflow:visible;"/>
	</clipPath>
	<g style="clip-path:url(#SVGID_00000132789181095524102360000011211017894681224841_);">
		
			<use xlink:href="#VS7"  width="20.3" height="32" x="-10.2" y="-16" transform="matrix(0.7447 0 0 0.7468 26.8057 35.0998)" style="overflow:visible;"/>
	</g>
</g>
<g>
	<defs>
		<rect id="SVGID_00000013154937541591815210000006823471836208612235_" x="16.5" y="50.8" width="19.9" height="20"/>
	</defs>
	<clipPath id="SVGID_00000099641344859187346940000010621807164721019058_">
		<use xlink:href="#SVGID_00000013154937541591815210000006823471836208612235_"  style="overflow:visible;"/>
	</clipPath>
	
		<g transform="matrix(1 0 0 1 1.907349e-06 -3.814697e-06)" style="clip-path:url(#SVGID_00000099641344859187346940000010621807164721019058_);">
		
			<use xlink:href="#SS7"  width="22.3" height="22.3" x="-11.2" y="-11.2" transform="matrix(0.7447 0 0 0.7468 26.5115 60.7783)" style="overflow:visible;"/>
	</g>
</g>
<g>
	<defs>
		<rect id="SVGID_00000129172408858818086150000015196811393115718078_" x="35.6" y="35.7" width="40.2" height="40.3"/>
	</defs>
	<clipPath id="SVGID_00000023981465320147899980000018256334316518419353_">
		<use xlink:href="#SVGID_00000129172408858818086150000015196811393115718078_"  style="overflow:visible;"/>
	</clipPath>
	<g style="clip-path:url(#SVGID_00000023981465320147899980000018256334316518419353_);">
		
			<use xlink:href="#SS7"  width="22.3" height="22.3" x="-11.2" y="-11.2" transform="matrix(0.7447 0 0 0.7468 45.5884 45.7175)" style="overflow:visible;"/>
	</g>
</g>
<g>
	<defs>
		<rect id="SVGID_00000041265318927639967760000012530868430728103303_" x="99.9" y="35.7" width="40.2" height="40.3"/>
	</defs>
	<clipPath id="SVGID_00000166640027254022725810000008982978814536505744_">
		<use xlink:href="#SVGID_00000041265318927639967760000012530868430728103303_"  style="overflow:visible;"/>
	</clipPath>
	<g style="clip-path:url(#SVGID_00000166640027254022725810000008982978814536505744_);">
		
			<use xlink:href="#SS7"  width="22.3" height="22.3" x="-11.2" y="-11.2" transform="matrix(0.7447 0 0 0.7468 109.8809 45.7175)" style="overflow:visible;"/>
	</g>
</g>
<g>
	<defs>
		<rect id="SVGID_00000034064603019572669030000003483384649237765289_" x="35.6" y="86.3" width="40.2" height="40.3"/>
	</defs>
	<clipPath id="SVGID_00000040532651449018135890000017003002050814941845_">
		<use xlink:href="#SVGID_00000034064603019572669030000003483384649237765289_"  style="overflow:visible;"/>
	</clipPath>
	
		<g transform="matrix(1 0 0 1 0 -7.629395e-06)" style="clip-path:url(#SVGID_00000040532651449018135890000017003002050814941845_);">
		
			<use xlink:href="#SS7"  width="22.3" height="22.3" x="-11.2" y="-11.2" transform="matrix(0.7447 0 0 0.7468 45.5884 96.3344)" style="overflow:visible;"/>
	</g>
</g>
<g>
	<defs>
		<polygon id="SVGID_00000129907652044154369230000001735171747867112079_" points="71.1,111.5 71.1,151.9 90.6,151.9 84.5,135.1 
			90.6,128.3 84.5,111.5 		"/>
	</defs>
	<clipPath id="SVGID_00000104674955710919318610000012996358432109057670_">
		<use xlink:href="#SVGID_00000129907652044154369230000001735171747867112079_"  style="overflow:visible;"/>
	</clipPath>
	<g style="clip-path:url(#SVGID_00000104674955710919318610000012996358432109057670_);">
		
			<use xlink:href="#SS7"  width="22.3" height="22.3" x="-11.2" y="-11.2" transform="matrix(0.7447 0 0 0.7468 77.7346 121.6429)" style="overflow:visible;"/>
	</g>
</g>
<g transform="rotate(180)">
	<g>
		<defs>
			<rect id="SVGID_00000105403469357333735100000008156111960593082302_" x="-161.2" y="-240.5" width="23.8" height="23.9"/>
		</defs>
		<clipPath id="SVGID_00000129180478832470162670000009958717062343903389_">
			<use xlink:href="#SVGID_00000105403469357333735100000008156111960593082302_"  style="overflow:visible;"/>
		</clipPath>
		<g style="clip-path:url(#SVGID_00000129180478832470162670000009958717062343903389_);">
			
				<use xlink:href="#VS7"  width="20.3" height="32" x="-10.2" y="-16" transform="matrix(0.7447 0 0 0.7468 -148.9423 -228.5222)" style="overflow:visible;"/>
		</g>
	</g>
	<g>
		<defs>
			<rect id="SVGID_00000031903585893150611100000007947830154376424886_" x="-159.2" y="-212.8" width="19.9" height="20"/>
		</defs>
		<clipPath id="SVGID_00000150064759671335905480000015709225151456980107_">
			<use xlink:href="#SVGID_00000031903585893150611100000007947830154376424886_"  style="overflow:visible;"/>
		</clipPath>
		<g style="clip-path:url(#SVGID_00000150064759671335905480000015709225151456980107_);">
			
				<use xlink:href="#SS7"  width="22.3" height="22.3" x="-11.2" y="-11.2" transform="matrix(0.7447 0 0 0.7468 -149.2365 -202.8437)" style="overflow:visible;"/>
		</g>
	</g>
	<g>
		<defs>
			<rect id="SVGID_00000072991647198138181180000000061246351026345349_" x="-140.1" y="-227.9" width="40.2" height="40.3"/>
		</defs>
		<clipPath id="SVGID_00000148651676051444721270000011069490537263072899_">
			<use xlink:href="#SVGID_00000072991647198138181180000000061246351026345349_"  style="overflow:visible;"/>
		</clipPath>
		
			<g transform="matrix(1 0 0 1 0 -1.525879e-05)" style="clip-path:url(#SVGID_00000148651676051444721270000011069490537263072899_);">
			
				<use xlink:href="#SS7"  width="22.3" height="22.3" x="-11.2" y="-11.2" transform="matrix(0.7447 0 0 0.7468 -130.1597 -217.9045)" style="overflow:visible;"/>
		</g>
	</g>
	<g>
		<defs>
			<rect id="SVGID_00000163066256038332012390000008259898860725232520_" x="-75.8" y="-227.9" width="40.2" height="40.3"/>
		</defs>
		<clipPath id="SVGID_00000181057260155170461900000004616207774893463174_">
			<use xlink:href="#SVGID_00000163066256038332012390000008259898860725232520_"  style="overflow:visible;"/>
		</clipPath>
		
			<g transform="matrix(1 0 0 1 0 -1.525879e-05)" style="clip-path:url(#SVGID_00000181057260155170461900000004616207774893463174_);">
			
				<use xlink:href="#SS7"  width="22.3" height="22.3" x="-11.2" y="-11.2" transform="matrix(0.7447 0 0 0.7468 -65.8672 -217.9045)" style="overflow:visible;"/>
		</g>
	</g>
	<g>
		<defs>
			<rect id="SVGID_00000013894571388351227430000015920137692260538550_" x="-140.1" y="-177.3" width="40.2" height="40.3"/>
		</defs>
		<clipPath id="SVGID_00000100377069953083292050000005496847473620665759_">
			<use xlink:href="#SVGID_00000013894571388351227430000015920137692260538550_"  style="overflow:visible;"/>
		</clipPath>
		<g style="clip-path:url(#SVGID_00000100377069953083292050000005496847473620665759_);">
			
				<use xlink:href="#SS7"  width="22.3" height="22.3" x="-11.2" y="-11.2" transform="matrix(0.7447 0 0 0.7468 -130.1597 -167.2876)" style="overflow:visible;"/>
		</g>
	</g>
	<g>
		<defs>
			<polygon id="SVGID_00000116953232636627870240000013824798989207181964_" points="-104.6,-152.1 -104.6,-111.7 -85.2,-111.7 
				-91.2,-128.6 -85.2,-135.3 -91.2,-152.1 			"/>
		</defs>
		<clipPath id="SVGID_00000161625966951644333990000008879201352874505865_">
			<use xlink:href="#SVGID_00000116953232636627870240000013824798989207181964_"  style="overflow:visible;"/>
		</clipPath>
		<g style="clip-path:url(#SVGID_00000161625966951644333990000008879201352874505865_);">
			
				<use xlink:href="#SS7"  width="22.3" height="22.3" x="-11.2" y="-11.2" transform="matrix(0.7447 0 0 0.7468 -98.0134 -141.9791)" style="overflow:visible;"/>
		</g>
	</g>
</g>
</svg>
