<?xml version="1.0" encoding="utf-8"?>
<!-- Generator: Adobe Illustrator 27.9.0, SVG Export Plug-In . SVG Version: 6.00 Build 0)  -->
<svg version="1.1" id="Layer_1" xmlns="http://www.w3.org/2000/svg" xmlns:xlink="http://www.w3.org/1999/xlink" x="0px" y="0px"
	 viewBox="0 0 175.7 263.6" style="enable-background:new 0 0 175.7 263.6;" xml:space="preserve">
<style type="text/css">
	.st0{fill-opacity:0;}
	.st1{stroke:#FFFFFF;stroke-width:11.0667;stroke-linecap:round;stroke-miterlimit:10;stroke-dasharray:11.0667,11.0667;}
	.st2{fill:#FFFFFF;fill-opacity:0;}
	.st3{fill:#FFFFFF;}
	.st4{fill:none;stroke:#FFFFFF;stroke-width:2.56;stroke-linecap:square;stroke-miterlimit:10;}
	.st5{fill:#272727;stroke:#000000;}
</style>
<symbol  id="SSA" viewBox="-55.3 -65.5 110.7 131.1">
	<rect x="-55.3" y="-50.7" class="st0" width="110.7" height="110.7"/>
	<path class="st1" d="M0-50.7C11.1-23,39.3-6.4,39.3,25.2c0,9.2-7.4,16.6-16.6,16.6S6.1,34.3,6.1,25.2C6.1,24.5,5.6,24,5,24
		s-1.1,0.5-1.1,1.1c0,22.1,5.5,23.8,10.5,34.9h-28.8c5-11.1,10.5-12.7,10.5-34.9c0-0.6-0.5-1.1-1.1-1.1s-1.1,0.5-1.1,1.1
		c0,9.2-7.4,16.6-16.6,16.6s-16.6-7.4-16.6-16.6C-39.3-6.4-11.1-23,0-50.7z"/>
</symbol>
<symbol  id="SST" viewBox="-11.2 -11.2 22.3 22.3">
	<rect x="-11.2" y="-11.2" class="st2" width="22.3" height="22.3"/>
	<path class="st3" d="M0-11.2C2.2-5.6,7.9-2.2,7.9,4.1c0,1.8-1.5,3.3-3.3,3.3S1.2,6,1.2,4.1C1.2,4,1.1,3.9,1,3.9S0.8,4,0.8,4.1
		c0,4.5,1.1,4.8,2.1,7h-5.8c1-2.2,2.1-2.6,2.1-7C-0.8,4-0.9,3.9-1,3.9S-1.2,4-1.2,4.1c0,1.8-1.5,3.3-3.3,3.3S-7.9,6-7.9,4.1
		C-7.9-2.2-2.2-5.6,0-11.2z"/>
</symbol>
<symbol  id="VSA" viewBox="-9.9 -18.3 19.8 36.7">
	<path class="st4" d="M-8.6,17.1h5.1 M-6.4,16.7L0-12.4l6.4,29.1 M3.5,17.1h5.1 M-3.8,6.5h7.7"/>
</symbol>
<path class="st5" d="M23.5,9.3h128.8c7.8,0,14.1,6.4,14.1,14.2v216.6c0,7.8-6.3,14.2-14.1,14.2H23.5c-7.8,0-14.1-6.4-14.1-14.2V23.5
	C9.3,15.7,15.6,9.3,23.5,9.3z"/>
<g>
	<defs>
		<rect id="SVGID_1_" x="14.6" y="23.2" width="23.8" height="23.9"/>
	</defs>
	<clipPath id="SVGID_00000035530554820650954480000016261820413352168854_">
		<use xlink:href="#SVGID_1_"  style="overflow:visible;"/>
	</clipPath>
	<g style="clip-path:url(#SVGID_00000035530554820650954480000016261820413352168854_);">
		
			<use xlink:href="#VSA"  width="19.8" height="36.7" x="-9.9" y="-18.3" transform="matrix(0.7447 0 0 0.7468 26.5111 33.3512)" style="overflow:visible;"/>
	</g>
</g>
<g>
	<defs>
		<rect id="SVGID_00000106130505030294405510000003148464803152165760_" x="16.5" y="50.8" width="19.9" height="20"/>
	</defs>
	<clipPath id="SVGID_00000065057312432986598070000016387312351161964165_">
		<use xlink:href="#SVGID_00000106130505030294405510000003148464803152165760_"  style="overflow:visible;"/>
	</clipPath>
	
		<g transform="matrix(1 0 0 1 0 7.629395e-06)" style="clip-path:url(#SVGID_00000065057312432986598070000016387312351161964165_);">
		
			<use xlink:href="#SSA"  width="110.7" height="131.1" x="-55.3" y="-65.5" transform="matrix(0.7447 0 0 0.7468 65.9919 96.8734)" style="overflow:visible;"/>
	</g>
</g>
<g transform="rotate(180)">
	<g>
		<defs>
			<rect id="SVGID_00000183929728903519897060000012146144118517130418_" x="-161.2" y="-240.5" width="23.8" height="23.9"/>
		</defs>
		<clipPath id="SVGID_00000034789988677850957920000016884125882803439785_">
			<use xlink:href="#SVGID_00000183929728903519897060000012146144118517130418_"  style="overflow:visible;"/>
		</clipPath>
		<g style="clip-path:url(#SVGID_00000034789988677850957920000016884125882803439785_);">
			
				<use xlink:href="#VSA"  width="19.8" height="36.7" x="-9.9" y="-18.3" transform="matrix(0.7447 0 0 0.7468 -149.2369 -230.2709)" style="overflow:visible;"/>
		</g>
	</g>
	<g>
		<defs>
			<rect id="SVGID_00000072273993633682762990000013650931612531913372_" x="-159.2" y="-212.8" width="19.9" height="20"/>
		</defs>
		<clipPath id="SVGID_00000054258730445664588590000006267114249100279944_">
			<use xlink:href="#SVGID_00000072273993633682762990000013650931612531913372_"  style="overflow:visible;"/>
		</clipPath>
		
			<g transform="matrix(1 0 0 1 -7.629395e-06 0)" style="clip-path:url(#SVGID_00000054258730445664588590000006267114249100279944_);">
			
				<use xlink:href="#SSA"  width="110.7" height="131.1" x="-55.3" y="-65.5" transform="matrix(0.7447 0 0 0.7468 -109.7561 -166.7486)" style="overflow:visible;"/>
		</g>
	</g>
</g>
<g>
	<defs>
		<rect id="SVGID_00000179605964429621370340000005351182525728392374_" x="62.6" y="108.3" width="50.5" height="47.1"/>
	</defs>
	<clipPath id="SVGID_00000145751018987712544170000012886369311255280059_">
		<use xlink:href="#SVGID_00000179605964429621370340000005351182525728392374_"  style="overflow:visible;"/>
	</clipPath>
	<g transform="matrix(1 0 0 1 0 0)" style="clip-path:url(#SVGID_00000145751018987712544170000012886369311255280059_);">
		
			<use xlink:href="#SST"  width="22.3" height="22.3" x="-11.2" y="-11.2" transform="matrix(1.8873 0 0 1.7587 87.874 131.811)" style="overflow:visible;"/>
	</g>
</g>
</svg>
