<?xml version="1.0" encoding="utf-8"?>
<!-- Generator: Adobe Illustrator 27.9.0, SVG Export Plug-In . SVG Version: 6.00 Build 0)  -->
<svg version="1.1" id="Layer_1" xmlns="http://www.w3.org/2000/svg" xmlns:xlink="http://www.w3.org/1999/xlink" x="0px" y="0px"
	 viewBox="0 0 175.7 263.6" style="enable-background:new 0 0 175.7 263.6;" xml:space="preserve">
<style type="text/css">
	.st0{fill:#FFFFFF;fill-opacity:0;}
	.st1{fill:#FFFFFF;}
	.st2{fill:none;stroke:#FFFFFF;stroke-width:2.56;stroke-linecap:square;stroke-miterlimit:10;}
	.st3{fill:#272727;stroke:#000000;}
</style>
<symbol  id="SS8" viewBox="-11.2 -11.2 22.3 22.3">
	<rect x="-11.2" y="-11.2" class="st0" width="22.3" height="22.3"/>
	<path class="st1" d="M0-11.2C2.2-5.6,7.9-2.2,7.9,4.1c0,1.8-1.5,3.3-3.3,3.3S1.2,6,1.2,4.1C1.2,4,1.1,3.9,1,3.9S0.8,4,0.8,4.1
		c0,4.5,1.1,4.8,2.1,7h-5.8c1-2.2,2.1-2.6,2.1-7C-0.8,4-0.9,3.9-1,3.9S-1.2,4-1.2,4.1c0,1.8-1.5,3.3-3.3,3.3S-7.9,6-7.9,4.1
		C-7.9-2.2-2.2-5.6,0-11.2z"/>
</symbol>
<symbol  id="VS8" viewBox="-9.4 -16 18.9 32">
	<path class="st2" d="M0-1.6c-3.6,0-6.5-3-6.5-6.6c0-3.6,3-6.5,6.6-6.5c3.6,0,6.5,3,6.5,6.6C6.5-4.5,3.6-1.6,0-1.6L0-1.6
		c-4.5,0-8.1,3.7-8.1,8.2c0,4.5,3.7,8.1,8.2,8.1S8.2,11,8.2,6.5C8.1,2,4.5-1.6,0-1.6L0-1.6z"/>
</symbol>
<path class="st3" d="M23.5,9.3h128.8c7.8,0,14.1,6.4,14.1,14.2v216.6c0,7.8-6.3,14.2-14.1,14.2H23.5c-7.8,0-14.1-6.4-14.1-14.2V23.5
	C9.3,15.7,15.6,9.3,23.5,9.3z"/>
<g>
	<defs>
		<rect id="SVGID_1_" x="14.6" y="23.2" width="23.8" height="23.9"/>
	</defs>
	<clipPath id="SVGID_00000013899065616123744910000005290575940736923065_">
		<use xlink:href="#SVGID_1_"  style="overflow:visible;"/>
	</clipPath>
	<g style="clip-path:url(#SVGID_00000013899065616123744910000005290575940736923065_);">
		
			<use xlink:href="#VS8"  width="18.9" height="32" x="-9.4" y="-16" transform="matrix(0.7447 0 0 0.7468 26.5111 35.0998)" style="overflow:visible;"/>
	</g>
</g>
<g>
	<defs>
		<rect id="SVGID_00000118355284357802017630000007955964462200557441_" x="16.5" y="50.8" width="19.9" height="20"/>
	</defs>
	<clipPath id="SVGID_00000045612136229666286420000013089576296561722022_">
		<use xlink:href="#SVGID_00000118355284357802017630000007955964462200557441_"  style="overflow:visible;"/>
	</clipPath>
	
		<g transform="matrix(1 0 0 1 1.907349e-06 -3.814697e-06)" style="clip-path:url(#SVGID_00000045612136229666286420000013089576296561722022_);">
		
			<use xlink:href="#SS8"  width="22.3" height="22.3" x="-11.2" y="-11.2" transform="matrix(0.7447 0 0 0.7468 26.5115 60.7783)" style="overflow:visible;"/>
	</g>
</g>
<g>
	<defs>
		<rect id="SVGID_00000054237714848924630360000005133587857304414881_" x="35.6" y="35.7" width="40.2" height="40.3"/>
	</defs>
	<clipPath id="SVGID_00000179644970303679485740000008761886259148701870_">
		<use xlink:href="#SVGID_00000054237714848924630360000005133587857304414881_"  style="overflow:visible;"/>
	</clipPath>
	<g style="clip-path:url(#SVGID_00000179644970303679485740000008761886259148701870_);">
		
			<use xlink:href="#SS8"  width="22.3" height="22.3" x="-11.2" y="-11.2" transform="matrix(0.7447 0 0 0.7468 45.5884 45.7175)" style="overflow:visible;"/>
	</g>
</g>
<g>
	<defs>
		<rect id="SVGID_00000173125013243596437820000013797426467615091114_" x="99.9" y="35.7" width="40.2" height="40.3"/>
	</defs>
	<clipPath id="SVGID_00000172408736636012176510000005331606872120015492_">
		<use xlink:href="#SVGID_00000173125013243596437820000013797426467615091114_"  style="overflow:visible;"/>
	</clipPath>
	<g style="clip-path:url(#SVGID_00000172408736636012176510000005331606872120015492_);">
		
			<use xlink:href="#SS8"  width="22.3" height="22.3" x="-11.2" y="-11.2" transform="matrix(0.7447 0 0 0.7468 109.8809 45.7175)" style="overflow:visible;"/>
	</g>
</g>
<g>
	<defs>
		<rect id="SVGID_00000155120022525084572150000011615196519830739352_" x="67.8" y="73.7" width="40.2" height="40.3"/>
	</defs>
	<clipPath id="SVGID_00000021108669521098489950000011799055528142148513_">
		<use xlink:href="#SVGID_00000155120022525084572150000011615196519830739352_"  style="overflow:visible;"/>
	</clipPath>
	<g style="clip-path:url(#SVGID_00000021108669521098489950000011799055528142148513_);">
		
			<use xlink:href="#SS8"  width="22.3" height="22.3" x="-11.2" y="-11.2" transform="matrix(0.7447 0 0 0.7468 77.7346 83.6806)" style="overflow:visible;"/>
	</g>
</g>
<g>
	<defs>
		<rect id="SVGID_00000098203794831875504430000001227275820775076753_" x="35.6" y="111.6" width="40.2" height="40.3"/>
	</defs>
	<clipPath id="SVGID_00000020376706601031999410000014919711313973803691_">
		<use xlink:href="#SVGID_00000098203794831875504430000001227275820775076753_"  style="overflow:visible;"/>
	</clipPath>
	<g style="clip-path:url(#SVGID_00000020376706601031999410000014919711313973803691_);">
		
			<use xlink:href="#SS8"  width="22.3" height="22.3" x="-11.2" y="-11.2" transform="matrix(0.7447 0 0 0.7468 45.5884 121.6429)" style="overflow:visible;"/>
	</g>
</g>
<g transform="rotate(180)">
	<g>
		<defs>
			<rect id="SVGID_00000101809264894934996250000008401241946114708873_" x="-161.2" y="-240.5" width="23.8" height="23.9"/>
		</defs>
		<clipPath id="SVGID_00000053540494756843883670000005570840760275841206_">
			<use xlink:href="#SVGID_00000101809264894934996250000008401241946114708873_"  style="overflow:visible;"/>
		</clipPath>
		<g style="clip-path:url(#SVGID_00000053540494756843883670000005570840760275841206_);">
			
				<use xlink:href="#VS8"  width="18.9" height="32" x="-9.4" y="-16" transform="matrix(0.7447 0 0 0.7468 -149.2369 -228.5222)" style="overflow:visible;"/>
		</g>
	</g>
	<g>
		<defs>
			<rect id="SVGID_00000142149469518534238130000016880096222465901241_" x="-159.2" y="-212.8" width="19.9" height="20"/>
		</defs>
		<clipPath id="SVGID_00000106859335038982880380000017804686779903704755_">
			<use xlink:href="#SVGID_00000142149469518534238130000016880096222465901241_"  style="overflow:visible;"/>
		</clipPath>
		<g style="clip-path:url(#SVGID_00000106859335038982880380000017804686779903704755_);">
			
				<use xlink:href="#SS8"  width="22.3" height="22.3" x="-11.2" y="-11.2" transform="matrix(0.7447 0 0 0.7468 -149.2365 -202.8437)" style="overflow:visible;"/>
		</g>
	</g>
	<g>
		<defs>
			<rect id="SVGID_00000112624942683894053470000004316598121777207221_" x="-140.1" y="-227.9" width="40.2" height="40.3"/>
		</defs>
		<clipPath id="SVGID_00000123441811913898305150000006419164773923617449_">
			<use xlink:href="#SVGID_00000112624942683894053470000004316598121777207221_"  style="overflow:visible;"/>
		</clipPath>
		
			<g transform="matrix(1 0 0 1 0 -1.525879e-05)" style="clip-path:url(#SVGID_00000123441811913898305150000006419164773923617449_);">
			
				<use xlink:href="#SS8"  width="22.3" height="22.3" x="-11.2" y="-11.2" transform="matrix(0.7447 0 0 0.7468 -130.1597 -217.9045)" style="overflow:visible;"/>
		</g>
	</g>
	<g>
		<defs>
			<rect id="SVGID_00000174561767999082419660000010147052729055174559_" x="-75.8" y="-227.9" width="40.2" height="40.3"/>
		</defs>
		<clipPath id="SVGID_00000080199881129180695470000018416209299179499450_">
			<use xlink:href="#SVGID_00000174561767999082419660000010147052729055174559_"  style="overflow:visible;"/>
		</clipPath>
		
			<g transform="matrix(1 0 0 1 0 -1.525879e-05)" style="clip-path:url(#SVGID_00000080199881129180695470000018416209299179499450_);">
			
				<use xlink:href="#SS8"  width="22.3" height="22.3" x="-11.2" y="-11.2" transform="matrix(0.7447 0 0 0.7468 -65.8672 -217.9045)" style="overflow:visible;"/>
		</g>
	</g>
	<g>
		<defs>
			<rect id="SVGID_00000131363743747608809040000007048850997915623818_" x="-108" y="-189.9" width="40.2" height="40.3"/>
		</defs>
		<clipPath id="SVGID_00000057857391594750195100000011727866315396888960_">
			<use xlink:href="#SVGID_00000131363743747608809040000007048850997915623818_"  style="overflow:visible;"/>
		</clipPath>
		<g style="clip-path:url(#SVGID_00000057857391594750195100000011727866315396888960_);">
			
				<use xlink:href="#SS8"  width="22.3" height="22.3" x="-11.2" y="-11.2" transform="matrix(0.7447 0 0 0.7468 -98.0134 -179.9415)" style="overflow:visible;"/>
		</g>
	</g>
	<g>
		<defs>
			<rect id="SVGID_00000107578168973170353050000013380428657280232620_" x="-140.1" y="-152" width="40.2" height="40.3"/>
		</defs>
		<clipPath id="SVGID_00000080195411853478528880000006144996924344989826_">
			<use xlink:href="#SVGID_00000107578168973170353050000013380428657280232620_"  style="overflow:visible;"/>
		</clipPath>
		<g style="clip-path:url(#SVGID_00000080195411853478528880000006144996924344989826_);">
			
				<use xlink:href="#SS8"  width="22.3" height="22.3" x="-11.2" y="-11.2" transform="matrix(0.7447 0 0 0.7468 -130.1597 -141.9791)" style="overflow:visible;"/>
		</g>
	</g>
</g>
</svg>
