<?xml version="1.0" encoding="utf-8"?>
<!-- Generator: Adobe Illustrator 27.9.0, SVG Export Plug-In . SVG Version: 6.00 Build 0)  -->
<svg version="1.1" id="Layer_1" xmlns="http://www.w3.org/2000/svg" xmlns:xlink="http://www.w3.org/1999/xlink" x="0px" y="0px"
	 viewBox="0 0 175.7 263.6" style="enable-background:new 0 0 175.7 263.6;" xml:space="preserve">
<style type="text/css">
	.st0{fill:none;stroke:#000000;stroke-width:0.6129;stroke-linecap:round;stroke-linejoin:round;stroke-miterlimit:10;}
	.st1{fill:none;stroke:#000000;stroke-width:0.3065;stroke-linecap:round;stroke-linejoin:round;stroke-miterlimit:10;}
	
		.st2{fill:none;stroke:#FFFFFF;stroke-width:12;stroke-linecap:round;stroke-linejoin:round;stroke-miterlimit:10;stroke-opacity:0;}
	.st3{fill:none;stroke:#FFFFFF;stroke-width:12;stroke-linecap:round;stroke-linejoin:round;stroke-miterlimit:10;}
	.st4{fill:#FFFFFF;fill-opacity:0;}
	.st5{fill:#FFFFFF;}
	.st6{fill:none;stroke:#FFFFFF;stroke-width:2.56;stroke-linecap:square;stroke-miterlimit:10;}
	.st7{fill:#272727;stroke:#000000;}
	.st8{fill:none;stroke:#FFFFFF;}
</style>
<symbol  id="SJ1" viewBox="-47.3 -36.4 94.6 72.9">
	<path d="M-32.2-2.9v5.6h5.6v-5.6H-32.2z M-29.4-1.8c1,0,1.8,0.8,1.8,1.8s-0.8,1.8-1.8,1.8l0,0c-1,0-1.8-0.8-1.8-1.8l0,0
		C-31.2-1-30.4-1.8-29.4-1.8z M-19.9-2.9v5.6h5.6v-5.6H-19.9z M-17.1-1.8c1,0,1.8,0.8,1.8,1.8s-0.8,1.8-1.8,1.8l0,0
		c-1,0-1.8-0.8-1.8-1.8l0,0C-18.9-1-18.1-1.8-17.1-1.8z M-7.7-2.9v5.6h5.6v-5.6H-7.7z M-4.9-1.8c1,0,1.8,0.8,1.8,1.8
		s-0.8,1.8-1.8,1.8l0,0c-1,0-1.8-0.8-1.8-1.8l0,0C-6.7-1-5.9-1.8-4.9-1.8z M-32.4,23.2c-2.1,0-3.8,1.7-3.8,3.8l0,0
		c0,0.1,0,0.2,0,0.3h0V36h7.7v-8.7h0c0-0.1,0-0.2,0-0.3C-28.6,24.9-30.3,23.2-32.4,23.2L-32.4,23.2z M-43.5,23.2
		c-2.1,0-3.8,1.7-3.8,3.8c0,0.1,0,0.2,0,0.3h0v1.3l4.9,7.4h2.7v-8.7h0c0-0.1,0-0.2,0-0.3C-39.6,24.9-41.4,23.2-43.5,23.2z M-22.2,25
		c-1.8,0-3.3,1.5-3.3,3.3l0,0c0,0.1,0,0.1,0,0.2h0V36h6.6v-7.4h0c0-0.1,0-0.1,0-0.2C-18.9,26.5-20.4,25-22.2,25L-22.2,25z M-13,27.3
		c-1.5,0-2.8,1.2-2.8,2.6l0,0c0,0.1,0,0.1,0,0.2h0v6h5.6v-6h0c0-0.1,0-0.1,0-0.2C-10.2,28.5-11.5,27.3-13,27.3L-13,27.3z M18.5,1.4
		l-1.9,3.1l3.5,2.1l1.9-3.1L18.5,1.4z M24.9,5.3l-1.8,3.1l3.4,2.2l1.9-3.1L24.9,5.3z M31.4,9.3l-1.9,3.2l3.4,2.3l2-3.3L31.4,9.3z
		 M37.7,13.4l-2,3.3l3.3,2.4l2-3.4L37.7,13.4z M44,17.7l-2,3.3l3.3,2.4l2-3.3L44,17.7z M2.1,20.9l2.4,1.7c5.1,3.6,9.2-3.6,5.1-7.2
		l-2.8-1.8L2.1,20.9z M7.1,18.1c0.8,0,1.5,0.7,1.5,1.5c0,0.8-0.7,1.5-1.5,1.5s-1.5-0.7-1.5-1.5C5.6,18.8,6.3,18.1,7.1,18.1z
		 M17.2,7.7l-4.3-2.5l-3.7,5.3l2.1,1.5c2.1,1.5,4,1.1,5.3,0L17.2,7.7z M13.8,7.4c0.8,0,1.5,0.7,1.5,1.5c0,0.8-0.7,1.5-1.5,1.5
		c-0.8,0-1.5-0.7-1.5-1.5C12.2,8,12.9,7.4,13.8,7.4z M-2.1,27.3l5.7,0.8c-0.2-1-0.7-2-1.6-2.9l-2-1.3L-2.1,27.3z M16.7,21.1l-6,9
		c4,1.5,7.8,3.6,11.3,6.3C19.2,31.7,17.4,26.5,16.7,21.1z M9.7-15.1c0,0-1.5-0.5-2-0.5s-1,1.5-2,1.5s-1,0.5-1,0.5
		c-0.1,0,2.3,0.4,3.1-0.5c0.3-0.4,2.1-0.2,2.1-0.2 M2-15.1c1.5,0,3.6-2.7,4.6-2.8L9.2-18l-0.4,0.8c0,0-1.3,0.2-1.8,0.2
		s-2.3,2.3-3.4,2.3S2-15.1,2-15.1z M8.4-19.5c2.7-0.4,4.5-1.8,2.9-1.7c-2.1,0.1-3,1.1-3.4,1.6 M8.1-35.3l-0.8,0.8c0,0-3.2-1.2-4.9-1
		c-1.7,0.2-8,3.4-8,3.4C-4.2-34,3.3-38.5,8.1-35.3z M4.2-30.2c0,1-0.4,1.8-0.8,1.8l0,0c-0.5,0-0.8-0.8-0.8-1.8c0-1,0.4-1.8,0.8-1.8
		l0,0C3.8-32,4.2-31.2,4.2-30.2L4.2-30.2"/>
</symbol>
<symbol  id="SJ2" viewBox="-50.4 -67.1 100.7 134.2">
	<path d="M-50.4-23l3.6-1.7v23.4l-3.6-3.6L-50.4-23z M-35,15.3l-1.6-2.6H1.9l0.9,2.6H-35z M-29.9-17.9H3.2l-2.9,4.1h-30.2V-17.9z
		 M46.2,65.9c0.9-3.8,1.3-7.7,1.3-11.8c0-10-2.8-19.8-7.9-28c1.7,1.2,3.4,2.4,5.2,3.3c3.6,7.5,5.6,16,5.6,24.6
		c0,4.4-0.5,8.8-1.6,12.9C47.8,66.7,47,66.3,46.2,65.9L46.2,65.9z M18.6,7.8l3-4.8c0.6,2.4,1.2,4.8,1.9,7.2 M-29.9-61.7
		c0.7,1.1,1.4,2.3,2,3.5c14.7-3.1,29.8-4.8,44.4-3.1c0.8-1,1.6-2,2.4-3.1C6.8-69.5-17.7-66.7-29.9-61.7z"/>
</symbol>
<symbol  id="SJ3" viewBox="-59.7 -74.2 119.4 148.4">
	<path class="st0" d="M59.4-1.5c-13.8-9-26.1-16.5-39.5-23.1 M6.1,13.4c9.2,30.8,25.3,50.2,53.2,60.5 M7.4,17.6h-38.4 M8.3,20.1
		h-37.8 M9.2,22.7h-37.3 M19-24L-1.7,6.4 M26.8-21.1C18.9-9.5,11,1.9,3.2,13.5 M-30.8-24.7c-9.6,4.3-19.2,8.9-28.6,14 M-39.2-20.7
		V5.9 M-27.4-23.6V3.6 M-44.8-18.1V0 M-41.2-19.9V3.6 M-24.4-24.8V3.3 M-24.4-21.2h38.8L-6,8.2 M-24.4-15.6h34.8 M-24.4-13.1H8.7
		 M-24.4-9H5.8 M-32.5-16.2c0.6,0.6,0.6,1.6,0,2.2c-0.6,0.6-1.6,0.6-2.2,0c-0.6-0.6-0.6-1.6,0-2.2C-34.1-16.8-33.1-16.8-32.5-16.2
		L-32.5-16.2 M-32.5-16.2c0.8-0.8,1.5-1,1.9-0.7c1.4,0.8,0.7,5.6-1.9,2.9c3.5,3.5-5.7,3.5-2.2,0c-3.5,3.5-3.5-5.7,0-2.2
		C-38.2-19.7-29-19.7-32.5-16.2L-32.5-16.2 M-32.6-4.5c0.6,0.6,0.6,1.6,0,2.2c-0.6,0.6-1.6,0.6-2.2,0c-0.6-0.6-0.6-1.6,0-2.2
		C-34.1-5.1-33.2-5.1-32.6-4.5L-32.6-4.5 M-32.6-4.5c0.8-0.8,1.5-1,1.9-0.7c1.4,0.8,0.7,5.6-1.9,2.9c3.5,3.5-5.7,3.5-2.2,0
		c-3.5,3.5-3.5-5.7,0-2.2C-38.2-8-29-8-32.6-4.5L-32.6-4.5 M-39.2-10.5h11.7 M-39.2-8.5h11.7 M-31.9-6.4h4.4 M-39.2-6.4h3.8
		 M-30-4.4h2.6 M-39.2-4.4h2 M-30.1-2.3h2.6 M-39.2-2.3h2 M-31.9-0.3h4.5 M-39.2-0.3h3.9 M-30.2-16.6h2.8 M-39.2-16.6h2.3
		 M-29.9-14.6h2.4 M-39.2-14.6h1.9 M-31.7-12.6h4.2 M-39.2-12.6h3.7 M-35-22.8h7.5 M-39.4-20.7h12 M-32.6-18.7h5.1 M-39.2-18.7h4.6
		 M-39.2,1.8h11.7 M-39.2,3.8h2.3 M-39.2,5.8h1.1 M-19.4,27.3c0.6,0.6,0.6,1.6,0,2.2s-1.6,0.6-2.2,0s-0.6-1.6,0-2.2
		S-20,26.7-19.4,27.3L-19.4,27.3 M-10.4,27.3c0.6,0.6,0.6,1.6,0,2.2s-1.6,0.6-2.2,0s-0.6-1.6,0-2.2S-11,26.7-10.4,27.3L-10.4,27.3
		 M-19.4,27.3c0.8-0.8,1.5-1,1.9-0.7c1.4,0.8,0.7,5.6-1.9,2.9c3.5,3.5-5.7,3.5-2.2,0c-3.5,3.5-3.5-5.7,0-2.2
		C-25.1,23.7-15.9,23.7-19.4,27.3L-19.4,27.3 M-10.4,27.3c0.8-0.8,1.5-1,1.9-0.7c1.4,0.8,0.7,5.6-1.9,2.9c3.5,3.5-5.7,3.5-2.2,0
		c-3.5,3.5-3.5-5.7,0-2.2C-16.1,23.7-6.9,23.7-10.4,27.3L-10.4,27.3 M3.2,17.6V10h0c0-0.1,0-0.1,0-0.2c0-1.8-2.1-3.3-4.6-3.3
		c-2.1,0.1-3.3,1-4.6,2.3v-1h0c0-0.1,0-0.2,0-0.3c0-2.4-2.2-4.3-4.9-4.3c-2.5,0-4.5,1.6-4.8,3.6c-0.2-2.6-2.5-4.5-5.3-4.5
		c-2.9,0-5.3,2.1-5.3,4.6c0-0.1,0-0.3,0-0.3c0-2.6-2.6-4.8-5.8-4.8s-5.8,2.1-5.8,4.8c0,0.1,0,0.2,0,0.3h0v0.8 M28.8-20.1L3.2,17.6
		 M20.4-24.4l5.9,4.1 M6-4.9l6.6,4.5 M7-6.4l6.6,4.5 M12.6-14.6l6.6,4.5 M13.7-16.1l6.5,4.5 M18.6-23.4l6.6,4.5 M-0.6,4.9L6,9.4
		 M0.4,3.3l6.6,4.5 M24.2-13.2C37.1-5.8,49,2.1,59.4,10.1 M25.5-15.3C37.9-8.1,49.3-0.5,59.4,7.1 M27.6-18.3
		C39.1-11.6,49.8-4.8,59.4,2.3 M59.4,28.6C46.2,23.4,36.9,11.5,36.9-2.3c0-1,0.1-2.1,0.2-3.1 M59.4,38.2c-6.7-2.1-12.9-5.6-18-10.3
		C32.6,19.9,27.7,9,27.7-2.3c0-2.8,0.3-5.6,0.9-8.3 M59.4,26.1C47.9,21,40,10.2,40-2.3c0-0.4,0-0.8,0-1.2 M59.4,24.3
		c-10.4-5-17.5-15-17.5-26.6 M59.4,34.3c-5.9-1.9-11.3-5-15.9-9.1C35.4,17.9,30.8,8,30.8-2.3c0-2.2,0.2-4.5,0.6-6.6 M31.9,0.8
		c-0.1-1-0.1-2.1-0.1-3.1c0-2,0.2-4.1,0.5-6 M35,12.2c-1.6-3.4-2.6-7-3-10.7 M41.2,21.7c-2.4-2.7-4.4-5.6-5.9-8.7 M49.6,28.8
		c-1.9-1.2-3.7-2.6-5.3-4.1c-0.7-0.6-1.4-1.3-2.1-2 M57.7,32.9c-2.1-0.8-4-1.7-5.9-2.8 M32.9-0.7c0-0.6,0-1.1,0-1.7
		c0-1.6,0.1-3.2,0.3-4.8 M35.3,10.4c-1-2.5-1.7-5.2-2.1-7.9 M40.4,19.3c-1.4-1.8-2.6-3.6-3.6-5.6 M47.9,26.6c-1-0.8-2-1.6-3-2.4
		c-0.1-0.1-0.2-0.2-0.3-0.3 M56.9,31.7c-0.7-0.3-1.4-0.6-2.1-1 M25.9,16.8c4.2,2.2,8.1,5.2,11.5,8.9c8.2,8.8,12.8,20.8,12.8,33.2
		c0,3.6-0.4,7.1-1.1,10.5 M25.2,16.5c0.2,0.1,0.4,0.2,0.7,0.3 M7.1,12c6.3,0.1,12.5,1.7,18.2,4.5 M48.6,67.1c0,0.3-0.1,0.6-0.1,0.9
		 M49,64.4c0,0.3-0.1,0.6-0.1,1 M49.2,58.4c0,0.2,0,0.3,0,0.5l0,0c0,1.3,0,2.6-0.1,3.8 M49.2,56.1c0,0.4,0,0.8,0.1,1.2 M48.9,53.1
		c0.1,0.5,0.1,1.1,0.2,1.6 M47.8,47.1c0.4,1.7,0.7,3.3,1,5 M47.2,45c0.1,0.4,0.2,0.8,0.3,1.2 M46.4,42.3c0.1,0.4,0.3,0.8,0.4,1.2
		 M43.9,36.7c0.7,1.4,1.4,2.9,2,4.4 M42.8,34.6c0.1,0.2,0.2,0.4,0.3,0.6 M41.2,32.2c0.2,0.3,0.4,0.7,0.7,1 M36.9,26.6
		c1.3,1.4,2.5,2.9,3.6,4.4 M35.3,25c0.2,0.2,0.3,0.3,0.5,0.5 M33.4,23.2c0.2,0.2,0.4,0.3,0.6,0.5 M27.8,19.1c1.5,0.9,2.9,1.9,4.2,3
		 M25.9,18c0.1,0.1,0.3,0.2,0.4,0.2 M23.7,16.9c0.1,0.1,0.3,0.1,0.4,0.2 M16.6,14.3c1.8,0.5,3.6,1.1,5.3,1.8 M14.4,13.8
		c0.3,0.1,0.6,0.1,0.8,0.2 M11.8,13.3c0.3,0,0.6,0.1,0.9,0.1 M6.5,13c1.2,0,2.4,0.1,3.6,0.2 M48.3,58.7c0,0.1,0,0.2,0,0.2
		c0,1.2,0,2.5-0.1,3.7 M48.1,54.2c0,0.1,0,0.1,0,0.2 M46.9,47.6c0.3,1.4,0.6,2.9,0.8,4.4 M43.1,37.2c0.7,1.3,1.3,2.7,1.8,4.1
		 M36.2,27.3c1.2,1.3,2.4,2.7,3.4,4.2 M27.3,20c1.4,0.9,2.8,1.8,4.1,2.9 M16.5,15.3c1.7,0.5,3.4,1,5.1,1.7 M6.3,14
		c0.1,0,0.1,0,0.2,0c1.2,0,2.3,0.1,3.5,0.2 M47.3,58.7c0,0.1,0,0.2,0,0.3c0,1.3-0.1,2.6-0.2,3.8 M46,47.8c0.4,1.5,0.7,3,0.9,4.5
		 M42.2,37.6c0.7,1.4,1.3,2.8,1.9,4.2 M35.4,27.9C35.4,27.9,35.4,27.9,35.4,27.9c1.3,1.4,2.5,2.9,3.6,4.4 M26.6,20.7
		c1.5,0.9,3,1.9,4.4,3.1 M16.1,16.2c1.8,0.5,3.6,1.1,5.3,1.8 M6.8,15c1.1,0,2.2,0.1,3.3,0.2 M46.1,58.3c0,0.2,0,0.4,0,0.6
		c0,1.4-0.1,2.8-0.2,4.2 M44.7,47.7c0.4,1.7,0.8,3.4,1,5.2 M40.9,37.8c0.8,1.5,1.5,3.1,2.2,4.8 M34.1,28.4c0.1,0.1,0.3,0.3,0.4,0.4
		c1.3,1.4,2.6,3,3.7,4.6 M25.4,21.5c1.8,1,3.5,2.2,5.1,3.5 M15.3,17.4c2.1,0.5,4.1,1.2,6,2 M7.1,16.4c1.1,0,2.2,0.1,3.3,0.2
		 M45.1,57.9c0,0.3,0,0.7,0,1c0,1.6-0.1,3.1-0.2,4.7 M43.6,47.5c0.5,2,0.9,4,1.2,6.1 M39.8,37.9c1,1.8,1.8,3.6,2.5,5.5 M32.9,28.7
		c0.3,0.3,0.6,0.6,0.9,0.9c1.4,1.6,2.8,3.2,4,5 M24.3,22.1c2.1,1.2,4.1,2.6,6,4.2 M14.4,18.3c2.4,0.5,4.8,1.3,7.1,2.4 M7.4,17.5
		c1.2,0,2.4,0.1,3.6,0.3 M44,57.3c0,0.5,0,1.1,0,1.6c0,1.8-0.1,3.7-0.3,5.5 M42.4,47c0.7,2.4,1.2,4.9,1.4,7.5 M38.5,37.8
		c1.2,2.2,2.3,4.4,3.1,6.8 M37.5,36.1C37.5,36.1,37.5,36.1,37.5,36.1 M31.5,28.8c0.5,0.5,1.1,1.1,1.6,1.6c1.6,1.8,3.1,3.7,4.4,5.7
		 M22.6,22.4c2.8,1.4,5.4,3.2,7.8,5.3 M22,22.2c0.2,0.1,0.4,0.2,0.6,0.3 M13.1,19.2c3.1,0.6,6,1.6,8.9,3 M7.8,18.6
		c1.4,0,2.7,0.2,4.1,0.4 M9.6,23.7C30.3,24.2,42.3,43.4,40,64.1 M11.7,28.8C25,31.4,35,43.9,35,59c0,0.4,0,0.9,0,1.3 M13.4,32.4
		c10.5,3.2,18.2,13.3,18.7,25.4 M45.1,31c5.1,8.2,7.9,17.9,7.9,28c0,4-0.5,7.9-1.3,11.7 M9.1,9c8.8,0.5,17.2,3.7,24.3,9.1
		 M50.2,34.3c3.7,7.5,5.6,16,5.6,24.7c0,4.4-0.5,8.8-1.5,13 M47.6,44.1c0.2,0.7-1.2,1.6-2.9,2c-1.8,0.4-3.4,0.2-3.5-0.5
		c-0.2-0.7,1.2-1.6,2.9-2C45.9,43.2,47.5,43.5,47.6,44.1L47.6,44.1 M41.4,45c0.2-0.7,0.8-1.6,1.6-2.4c1.3-1.3,2.8-1.9,3.3-1.4
		c0.4,0.4,0.1,1.2-0.6,2.2 M46.5,45.6c1,0.4,1.5,0.9,1.4,1.4c-0.1,0.7-1.7,1-3.5,0.7c-1.5-0.3-2.7-0.9-3-1.5 M49.7,55.4
		c0,0.7-1.4,1.4-3.2,1.5c-1.8,0.1-3.3-0.4-3.4-1.1c0-0.7,1.4-1.4,3.2-1.5C48.1,54.2,49.6,54.7,49.7,55.4L49.7,55.4 M43.4,55.2
		c0.3-0.6,1-1.4,2-2.1c1.5-1,3.1-1.4,3.5-0.8c0.3,0.4-0.1,1.2-1,2.1 M48.3,56.6c0.9,0.6,1.3,1.2,1.1,1.6c-0.2,0.7-1.8,0.7-3.6,0.1
		c-1.4-0.5-2.5-1.3-2.7-2 M49.6,66.4c-0.1,0.7-1.7,1-3.5,0.6c-1.8-0.4-3.1-1.2-3-1.9c0.1-0.7,1.7-1,3.5-0.6
		C48.4,64.9,49.7,65.7,49.6,66.4L49.6,66.4 M43.5,64.6c0.4-0.5,1.4-1.1,2.5-1.5c1.7-0.6,3.3-0.5,3.6,0.1c0.2,0.5-0.4,1.2-1.5,1.7
		 M43.1,66.1c-0.1-0.2-0.1-0.3-0.1-0.5 M47.9,67.2c0.7,0.8,1,1.5,0.7,1.9 M43,33.4c0.4,0.6-0.6,1.9-2.1,2.9c-1.5,1-3.1,1.3-3.5,0.7
		c-0.4-0.6,0.6-1.9,2.1-2.9S42.7,32.8,43,33.4L43,33.4 M37.5,36.3c-0.1-0.7,0.2-1.7,0.7-2.8c0.8-1.6,2-2.7,2.6-2.4
		c0.5,0.2,0.5,1.1,0.2,2.3 M42.4,35.1c1.1,0,1.7,0.4,1.8,0.9c0.1,0.7-1.3,1.5-3.1,1.8c-1.5,0.3-2.8,0.1-3.3-0.4 M35.4,23.7
		c0.5,0.5-0.2,1.9-1.6,3.2c-1.3,1.2-2.8,1.8-3.3,1.3c-0.5-0.5,0.2-1.9,1.6-3.2C33.4,23.8,34.9,23.2,35.4,23.7L35.4,23.7 M30.4,27.5
		c-0.2-0.7-0.1-1.7,0.2-2.9c0.5-1.8,1.5-3,2.2-2.8c0.5,0.2,0.7,1,0.6,2.2 M35,25.5c1.1-0.2,1.8,0.1,1.9,0.5c0.2,0.7-1,1.7-2.7,2.3
		c-1.4,0.5-2.8,0.6-3.3,0.2 M25.7,16.6c0.6,0.4,0.3,1.9-0.7,3.5c-1,1.5-2.3,2.5-2.9,2.1c-0.6-0.4-0.3-1.9,0.7-3.5
		C23.8,17.1,25.1,16.2,25.7,16.6L25.7,16.6 M21.8,21.5c-0.3-0.6-0.5-1.7-0.5-2.9c0.1-1.8,0.7-3.3,1.4-3.3c0.5,0,1,0.8,1.1,2
		 M25.8,18.4c1-0.4,1.7-0.4,2,0c0.4,0.6-0.5,1.9-2,2.9c-1.3,0.8-2.5,1.2-3.2,1 M13.8,12.8c0.7,0.2,0.9,1.7,0.4,3.5
		c-0.4,1.8-1.4,3.1-2,2.9c-0.7-0.2-0.9-1.7-0.4-3.5C12.2,13.9,13.1,12.6,13.8,12.8L13.8,12.8 M11.7,18.7c-0.5-0.5-1.1-1.4-1.4-2.5
		c-0.5-1.8-0.4-3.3,0.3-3.5c0.5-0.2,1.2,0.4,1.7,1.5 M14.5,14.5c0.8-0.7,1.5-0.9,1.9-0.6c0.6,0.4,0.1,2-1,3.4c-0.9,1.2-2,2-2.7,2
		 M14.7,29.6l1.4-5.1 M20.1,32l2.8-4.9 M24.4,35.1l3.9-4.3 M28.4,39.2l4.7-3.3 M31.8,44.7l5.1-2.2 M34,50.6l5.3-1.1 M34.9,55.9h5.2
		 M11.3,27.7l4.8-3.2l4,7.4l8.3-1.2l0,8.4l8.5,3.3l-3,8l6.2,5.3L35.8,61 M9.6,23.7l5,5.9l8.2-2.5l1.6,8l8.7,0.9l-1.3,8.8l7.4,4.8
		l-4.3,6.4l5.3,5.6l-1.7,1.6 M36.1,61.2l4.1,0.3 M55.8,72.5V47.7 M57.3,73.1V48.7 M58.9,73.8v-24 M34.3,13.1
		c3.8-1.1,2.6,4.9,7.8,1.7 M37.9,5.6c-5.8,2.7-0.5,5.1-3.7,7.4 M41.1,22.9c3-1.4,3.6,4.1,7.7-0.5 M42.1,14.9c-4.7,4.1,0.4,5-1.2,7.8
		 M50.5,30.3c2.3-1.2,4.4,3.2,6.9-2.4 M48.9,22.5c-3.4,5,1.1,4.8,0.9,7.4 M57.5,27.9c-1.9,5,0.7,5,1.9,6.2 M31,1.3
		c4.2,0,0.9,5.5,6.9,4.1 M36.9-4.6c-6.4,0.7-2,4.7-6,5.8 M33-7.9c0.3,1.6,0.2,3.4,3.9,3.2 M37.1,1.5c-0.9,0.2-1.7,0.5-2.8,0.3
		 M35.4-0.8C35.4,1,36.3,1,37.1,1.1 M37.2,1.8c-0.8,0.5-1.7,1.2-1.8,2 M39.6,10.2c-0.8,0.5-1.6,1.1-2.8,1.2 M37.1,8.7
		c0.6,1.8,1.5,1.4,2.4,1.3 M39.6,10.5c-0.6,0.7-1.4,1.7-1.2,2.6 M45.3,19c-0.3,0.8-0.6,1.7-1.3,2.5 M42.5,19.3
		c1.6,1,2.1,0.2,2.6-0.5 M45.6,19.4c0,0.9,0.1,1.9,0.7,2.4 M53.4,25.6c-0.2,0.7-0.5,1.4-1.1,2 M50.7,25.4c1.2,0.8,1.8,0.4,2.2-0.1
		 M53.8,25.9c0,0.8,0.2,1.6,0.7,2 M57.1,8.3c-1.2,2.3,0.9,4.9,2.3,6.1 M54.2,6.2c-4.6-0.9-12-1.7-11.2-4.5c0.3-0.9,1.2-1.6,1.8-2.1
		 M45.7,4.4c-4.1,3.2-1.2,4.9,11,5.4 M47.1,8.8c-2.8,6,4.5,3.3,9.8,2.4 M49.1,12.6c-1.4,5.5,3.1,3.5,8.7,0 M51.3,16
		c0.8,6,3.9,2.9,7.5-2.1 M54.2,18.9c2.8,7.2,4,0.4,5.2-3.8 M57.6,21c0.8,1.7,1.4,2.5,1.8,2.7 M17.9,7.9l-0.2,0.2 M24.8-2.3l-0.3,0.4
		 M19.1,8.1l-0.7,1 M26-2.1l-0.9,1.3 M20.6,7.9l-1.8,2.6 M27.7-2.5l-2.2,3.2 M22.8,6.7L19.9,11 M27.8-0.6l-2.7,4 M23.6-2.8
		C28.4,1,22.8,9.8,17.9,7.9c-0.3-0.1-0.6-0.3-0.9-0.5 M27.7-2.4c-1.3,0.5-2.7,0.5-4.1-0.4 M17,7.4c1.1,0.9,1.7,2,1.8,3.3 M51.2-37.1
		c1.8,0,3.3,2.7,3.3,6.1s-1.5,6.1-3.3,6.1c-1.8,0-3.3-2.7-3.3-6.1S49.4-37.1,51.2-37.1L51.2-37.1 M51.2-48.3l3,3l-3,3l-3-3
		L51.2-48.3L51.2-48.3 M51.2-65.7c1.8,0,3.3,2.7,3.3,6.1c0,3.4-1.5,6.1-3.3,6.1c-1.8,0-3.3-2.7-3.3-6.1C47.9-63,49.4-65.7,51.2-65.7
		L51.2-65.7 M52.9-20.7C55.3-22,57-26.1,57-31c0-4.1-1.3-7.8-3.3-9.6l4.7-4.7L53.8-50c2-1.8,3.3-5.5,3.3-9.6
		c0-5.9-2.6-10.7-5.8-10.7c-3.2,0-5.8,4.8-5.8,10.7c0,4.1,1.3,7.8,3.3,9.6L44-45.3l4.7,4.7c-2,1.8-3.3,5.5-3.3,9.6
		c0,3.5,0.9,6.5,2.3,8.5 M38.5-14.6c0.2-1.4,1.1-4.1,2-4.6c1-0.6,4.6-3.6,6.1-3.6s3.1,2,6.1,2c2.6,0,2,2,0,2s-3.6-0.5-3.6-0.5
		c-1.5,1.7-2.6,1.6-3.6,2c-1,0.5,1.5-0.5,2,0.5c0.5,0.9-1.5,5.4-1.9,6.4 M54.2-19.1c1.8,0.2,3.1,0.8,3.1,1.5c0,0.8-1.9,1.5-4.3,1.5
		c-2.4,0-4.3-0.7-4.3-1.5c0-0.5,0.7-0.9,1.7-1.2 M54.1-16.2c1.8,0,3.2,0.4,3.3,1.1c0.1,0.8-1.7,1.8-4.1,2c-2.4,0.3-4.4-0.2-4.5-1
		c-0.1-0.5,1-1.5,3.5-2 M54.1-13.1c1.8,0,3.2,0.4,3.3,1.1c0.1,0.8-1.7,1.8-4.1,2c-2.4,0.3-4.4-0.2-4.5-1c-0.1-0.5,0.9-1.5,3.2-2
		 M54-10c1.6,0.2,3.3,0.9,3.3,1.6c0,0.8-1.7,1.5-3.8,1.5c-2.1,0-3.8-0.6-3.8-1.5c0-0.5,0.9-1.3,3.1-1.6 M21.6-56.5
		c0,2.6-1,5.1-0.9,5.7c0.2,1,5.1,9.2,5.3,10.7c0.4,2.8-3.8,2.8-4,3.2c-0.1,0.3,0.1,1.9,0.1,1.9c0,0.5-1,2-1,2s0,1,0.5,1.5
		s-2.6,2-2.6,2s1.5,2,1.5,3.1c0,1-0.5,2.6-3.1,2.6s-5.6-0.5-7.7-0.5s-7.7-2.6-8.7-2.6 M-4.8-25.8c0.8,0.4,4.2,1.9,6,1.5
		c1.3-0.3,3-0.9,4.1-1.2 M21.1-33.5c0,0-1.5-0.3-2-0.3c-0.5,0-1,1.3-2,1.3S16-32,16-32c-0.1,0,2.3,0.4,3.1-0.5
		c0.3-0.4,2.1-0.2,2.1-0.2 M13.4-33.5c1.5,0,3.6-2.7,4.6-2.8l2.6-0.1l-0.4,0.8c0,0-1.3,0.2-1.8,0.2S16-33,14.9-33
		S13.4-33.5,13.4-33.5L13.4-33.5 M19.7-41.1c-1.5,0-2.7,3.6,0,3.2c2.7-0.4,4.5-1.8,2.9-1.7c-2.1,0.1-3,1.1-3.4,1.6 M19.4-53.7
		l-0.8,0.8c0,0-3.2-1.2-4.9-1c-1.7,0.2-8,3.4-8,3.4C7.2-52.4,14.6-56.9,19.4-53.7L19.4-53.7 M7.8-47.7c3.3,0.5,4.8-3.2,10.5-3.2
		 M11.4-48.6c-3.3,3,6.7,2,6.7,2 M-22-53.5c1.8,6.5-5.3,10.5-4.4,17.9c0.5,4.1,7.2,3.6,7.2,0c0-2.6-3.1-2-3.1-0.5s1,2,1,2 M-20-53.9
		c2,6.6-5.3,10.7-4.3,18.2c0.2,1.9,1.6,2.3,3,1.8 M-18.3-54.2c2.6,6.8-4.7,10.8-4.1,18.2 M-16.4-54.6c2.8,6.5-3.8,10.6-4.1,17.3
		 M-14.5-54.9c3.1,6.8-4.5,12.1-4.8,18.9 M-12.8-55.2c3.4,7.1-4.7,12.1-4.8,18.8c-0.1,6.9,7.6,5.4,7.6,1.8s-5.3-3.7-5.1-0.5
		c0.2,3.2,3.9,1.3,3.1,0.5 M-10.8-55.6c3,6.8-4.7,12-4.8,18.8c0,1.6,0.4,2.7,1,3.3 M-8.6-55.9c2.6,6.5-4.4,12.2-5,18.6 M-10.1-34.5
		C-7-28.8,1.7-31.7,1.7-36c0-5.6-5.6-4.6-5.6-1c0,3.5,4.6,1.5,2.6-0.5 M-6.5-56.1c2.3,6.6-4.6,14.2-4.6,18c0,0.5,0.1,1,0.2,1.5
		 M-4.5-56.4c2.6,6.5-4.7,13-4,19.3c0.5,5.1,8.2,4.3,8.2,1.5c0-1-1-2-1-2 M-2.5-56.6c3.3,8.7-8.8,18.1-0.6,21.3 M-23.8-25.2
		C-27-22.5-32-24-32-27.4c0-5.6,5.1-4.1,5.1-1.5c0,2.1-3.1,2-3.1-0.5 M-21.3-32.9c0.1,1.8-0.1,3.3-0.5,4.6 M-22.8-32.7
		c1.1,6.1-7.1,9.2-7.7,5.3c-0.1-0.5,0-1,0.5-2 M-24-32.8c-0.3,2.7-2.1,6-4.4,5.5 M-14.8-24.3c-3.2,3.5-9,3.3-9-1.5
		c0-3.1,5.1-3.6,5.1-1c0,3.1-3.1,2-3.1,1 M-13-31.6c0.1,0.8,0.2,1.6,0.1,2.3 M-14.6-31.5c0.1,1.4,0,3.9-1.1,5.2
		c-3,3.4-6,1.5-6.1,0.5c-0.1-0.5,0.2-0.7,0.5-1 M-15.8-32c-0.6,4.5-1.8,7.3-4,7.1 M-16.9-33.1c-0.5,2.3-1.1,4.5-1.8,6.3 M-17.6-35.4
		c-0.8,2.4-1.8,5.1-2.8,6.9 M-3-31.5c-1.1,11.8-12.8,10.6-12.2,5.2c0.5-4.6,5-3.1,5.1-0.5c0.1,2.6-3.1,2.6-3.1,0.5 M-4.5-31.3
		c-0.7,4.3-4.8,9.7-7.7,6.4 M-6.1-31.4c-0.5,3.1-1.6,5.5-4.4,6 M-7.7-32.1c-0.4,2.4-1.4,3.9-2.4,5.1 M-9.1-33.2
		c-0.2,1.8-0.8,3.4-1.5,4.9 M-11.5-32.1c0.2,1,0.2,2.1,0,3.1 M-38.7-73.9c5.7,5.7,12.3,12.6,16.4,20.5c14.7-3.1,29.8-4.8,44.4-3.1
		c4.8-6.5,10.9-12.1,17.6-17.4 M-24.3-56.9c12.2-5,36.6-7.8,48.9-2.7"/>
</symbol>
<symbol  id="SJ4" viewBox="-29.3 -32.2 58.6 64.5">
	<path class="st1" d="M26.6-0.6c0,1,2.6,1,2.6,1 M25.3,1.2c0.6,0.9,0.1,2.3,0,2.2 M25.3,4.9c0.6,0.9,0.1,2.3,0,2.2 M25.4,7.7
		c0.6,0.9,0.1,2.3,0,2.2 M26.3,10.5c0.6,0.9,0.1,2.3,0,2.2 M28.1,1.9c0.3,0.4,0.2,0.7,0,1 M28.5,5c0.3,0.4,0.2,0.7,0,1 M28.5,8.1
		c0.3,0.4,0.2,0.7,0,1 M28.5,11.1c0.3,0.4,0.2,0.7,0,1 M-3.2-14.4c-1.1,0.1-2.4-0.1-3.4,0.8 M-8.7-26.4c-0.7,0.1-1.9,1.8-1.9,1.8
		 M-9.5-30.4c0.2,0.4,0.4,1,0.4,1.6c0,1.3-0.7,2.4-1.5,2.4s-1.5-1.1-1.5-2.4c0-0.2,0-0.4,0-0.6 M-18.3-28.9c2.9,0,5.9-3.2,7.9-3.2
		c1.2,0,1.2,1.3,1.2,1.3"/>
	
		<use xlink:href="#SSJ"  width="74.5" height="74.5" x="-37.2" y="-37.2" transform="matrix(8.367953e-02 5.859284e-02 -5.859304e-02 8.367925e-02 -5.5898 2.1063)" style="overflow:visible;"/>
	
		<use xlink:href="#SSJ"  width="74.5" height="74.5" x="-37.2" y="-37.2" transform="matrix(8.367953e-02 5.859284e-02 -5.859304e-02 8.367925e-02 -5.5898 2.1063)" style="overflow:visible;"/>
	
		<use xlink:href="#SSJ"  width="74.5" height="74.5" x="-37.2" y="-37.2" transform="matrix(8.567342e-02 5.563679e-02 -5.563697e-02 8.567313e-02 -12.2273 11.8104)" style="overflow:visible;"/>
	
		<use xlink:href="#SSJ"  width="74.5" height="74.5" x="-37.2" y="-37.2" transform="matrix(8.567342e-02 5.563679e-02 -5.563697e-02 8.567313e-02 -12.2273 11.8104)" style="overflow:visible;"/>
	
		<use xlink:href="#SSJ"  width="74.5" height="74.5" x="-37.2" y="-37.2" transform="matrix(8.567342e-02 5.563679e-02 -5.563697e-02 8.567313e-02 -18.8673 21.8214)" style="overflow:visible;"/>
	
		<use xlink:href="#SSJ"  width="74.5" height="74.5" x="-37.2" y="-37.2" transform="matrix(8.567342e-02 5.563679e-02 -5.563697e-02 8.567313e-02 -18.8673 21.8214)" style="overflow:visible;"/>
</symbol>
<symbol  id="SSJ" viewBox="-37.2 -37.2 74.5 74.5">
	<rect x="-31.2" y="-31.2" class="st2" width="62.5" height="62.5"/>
	<path class="st3" d="M0-31.2c6.2,15.6,22.2,25,22.2,42.8c0,5.2-4.2,9.4-9.4,9.4s-9.4-4.2-9.4-9.4c0-0.3-0.3-0.6-0.6-0.6
		s-0.6,0.3-0.6,0.6c0,12.5,3.1,13.4,5.9,19.7H-8.1c2.8-6.2,5.9-7.2,5.9-19.7c0-0.3-0.3-0.6-0.6-0.6s-0.6,0.3-0.6,0.6
		c0,5.2-4.2,9.4-9.4,9.4s-9.4-4.2-9.4-9.4C-22.2-6.2-6.2-15.6,0-31.2z"/>
</symbol>
<symbol  id="SST" viewBox="-11.2 -11.2 22.3 22.3">
	<rect x="-11.2" y="-11.2" class="st4" width="22.3" height="22.3"/>
	<path class="st5" d="M0-11.2C2.2-5.6,7.9-2.2,7.9,4.1c0,1.8-1.5,3.3-3.3,3.3S1.2,6,1.2,4.1C1.2,4,1.1,3.9,1,3.9S0.8,4,0.8,4.1
		c0,4.5,1.1,4.8,2.1,7h-5.8c1-2.2,2.1-2.6,2.1-7C-0.8,4-0.9,3.9-1,3.9S-1.2,4-1.2,4.1c0,1.8-1.5,3.3-3.3,3.3S-7.9,6-7.9,4.1
		C-7.9-2.2-2.2-5.6,0-11.2z"/>
</symbol>
<symbol  id="VSJ" viewBox="-9.3 -15.8 18.6 31.7">
	<path class="st6" d="M1.6-14.6H8 M4.8-14.6V8.2c0,3.5-2.9,6.4-6.4,6.4S-8,11.7-8,8.2v-1"/>
</symbol>
<path class="st7" d="M23.5,9.3h128.8c7.8,0,14.1,6.4,14.1,14.2v216.6c0,7.8-6.3,14.2-14.1,14.2H23.5c-7.8,0-14.1-6.4-14.1-14.2V23.5
	C9.3,15.7,15.6,9.3,23.5,9.3z"/>
<rect id="XSJ" x="38.4" y="55.5" class="st5" width="98.9" height="152.6"/>
<g>
	<defs>
		<rect id="SVGID_1_" x="38.4" y="55.5" width="98.9" height="152.6"/>
	</defs>
	<clipPath id="SVGID_00000123426377753513012600000006775793997002612623_">
		<use xlink:href="#SVGID_1_"  style="overflow:visible;"/>
	</clipPath>
	
		<g transform="matrix(1 0 0 1 -7.629395e-06 0)" style="clip-path:url(#SVGID_00000123426377753513012600000006775793997002612623_);">
		
			<use xlink:href="#SJ1"  width="94.6" height="72.9" x="-47.3" y="-36.4" transform="matrix(0.7447 0 0 0.7468 101.5792 95.4041)" style="overflow:visible;"/>
	</g>
</g>
<g>
	<defs>
		<rect id="SVGID_00000168827711572750156800000008937148039899938739_" x="38.4" y="55.5" width="98.9" height="152.6"/>
	</defs>
	<clipPath id="SVGID_00000143598557937679573830000016060279147807432364_">
		<use xlink:href="#SVGID_00000168827711572750156800000008937148039899938739_"  style="overflow:visible;"/>
	</clipPath>
	<g style="clip-path:url(#SVGID_00000143598557937679573830000016060279147807432364_);">
		
			<use xlink:href="#SJ1"  width="94.6" height="72.9" x="-47.3" y="-36.4" transform="matrix(-0.7447 0 0 -0.7468 74.1688 168.2179)" style="overflow:visible;"/>
	</g>
</g>
<g>
	<defs>
		<rect id="SVGID_00000008862427193248501710000018445482006733012370_" x="38.4" y="55.5" width="98.9" height="152.6"/>
	</defs>
	<clipPath id="SVGID_00000169546318456192848010000008599170248562194581_">
		<use xlink:href="#SVGID_00000008862427193248501710000018445482006733012370_"  style="overflow:visible;"/>
	</clipPath>
	
		<g transform="matrix(1 0 0 1 7.629395e-06 0)" style="clip-path:url(#SVGID_00000169546318456192848010000008599170248562194581_);">
		
			<use xlink:href="#SJ2"  width="100.7" height="134.2" x="-50.4" y="-67.1" transform="matrix(0.7447 0 0 0.7468 97.2222 112.4311)" style="overflow:visible;"/>
	</g>
</g>
<g>
	<defs>
		<rect id="SVGID_00000178177244495810636890000017467070933776802476_" x="38.4" y="55.5" width="98.9" height="152.6"/>
	</defs>
	<clipPath id="SVGID_00000055667590339555446960000014570630784190223501_">
		<use xlink:href="#SVGID_00000178177244495810636890000017467070933776802476_"  style="overflow:visible;"/>
	</clipPath>
	<g style="clip-path:url(#SVGID_00000055667590339555446960000014570630784190223501_);">
		
			<use xlink:href="#SJ2"  width="100.7" height="134.2" x="-50.4" y="-67.1" transform="matrix(-0.7447 0 0 -0.7468 78.5258 151.191)" style="overflow:visible;"/>
	</g>
</g>
<g>
	<defs>
		<rect id="SVGID_00000076592543022475038600000000735969654109669552_" x="38.4" y="55.5" width="98.9" height="152.6"/>
	</defs>
	<clipPath id="SVGID_00000037669829856312700820000008522398909065997223_">
		<use xlink:href="#SVGID_00000076592543022475038600000000735969654109669552_"  style="overflow:visible;"/>
	</clipPath>
	<g style="clip-path:url(#SVGID_00000037669829856312700820000008522398909065997223_);">
		
			<use xlink:href="#SJ3"  width="119.4" height="148.4" x="-59.7" y="-74.2" transform="matrix(0.7447 0 0 0.7468 93.0994 110.6693)" style="overflow:visible;"/>
	</g>
</g>
<g>
	<defs>
		<rect id="SVGID_00000008108584093553381190000010449268546834527644_" x="38.4" y="55.5" width="98.9" height="152.6"/>
	</defs>
	<clipPath id="SVGID_00000087398370823053456690000005314713149285283978_">
		<use xlink:href="#SVGID_00000008108584093553381190000010449268546834527644_"  style="overflow:visible;"/>
	</clipPath>
	<g style="clip-path:url(#SVGID_00000087398370823053456690000005314713149285283978_);">
		
			<use xlink:href="#SJ3"  width="119.4" height="148.4" x="-59.7" y="-74.2" transform="matrix(-0.7447 0 0 -0.7468 82.6487 152.9528)" style="overflow:visible;"/>
	</g>
</g>
<g>
	<defs>
		<rect id="SVGID_00000159457092739699706170000005943045358611383959_" x="38.4" y="55.5" width="98.9" height="152.6"/>
	</defs>
	<clipPath id="SVGID_00000106123095688352558020000008452103399514043314_">
		<use xlink:href="#SVGID_00000159457092739699706170000005943045358611383959_"  style="overflow:visible;"/>
	</clipPath>
	<g style="clip-path:url(#SVGID_00000106123095688352558020000008452103399514043314_);">
		
			<use xlink:href="#SJ4"  width="58.6" height="64.5" x="-29.3" y="-32.2" transform="matrix(0.7447 0 0 0.7468 114.9172 95.6565)" style="overflow:visible;"/>
	</g>
</g>
<g>
	<defs>
		<rect id="SVGID_00000109736455857787825570000017540288633134859696_" x="38.4" y="55.5" width="98.9" height="152.6"/>
	</defs>
	<clipPath id="SVGID_00000052799854818358547830000011871984045417341115_">
		<use xlink:href="#SVGID_00000109736455857787825570000017540288633134859696_"  style="overflow:visible;"/>
	</clipPath>
	<g style="clip-path:url(#SVGID_00000052799854818358547830000011871984045417341115_);">
		
			<use xlink:href="#SJ4"  width="58.6" height="64.5" x="-29.3" y="-32.2" transform="matrix(-0.7447 0 0 -0.7468 60.8308 167.9656)" style="overflow:visible;"/>
	</g>
</g>
<g>
	<defs>
		<rect id="SVGID_00000083060132003286938760000017804647543717188226_" x="14.6" y="23.2" width="23.8" height="23.9"/>
	</defs>
	<clipPath id="SVGID_00000176752230214062405270000012224054932831504826_">
		<use xlink:href="#SVGID_00000083060132003286938760000017804647543717188226_"  style="overflow:visible;"/>
	</clipPath>
	<g style="clip-path:url(#SVGID_00000176752230214062405270000012224054932831504826_);">
		
			<use xlink:href="#VSJ"  width="18.6" height="31.7" x="-9.3" y="-15.8" transform="matrix(0.7447 0 0 0.7468 26.5111 34.9803)" style="overflow:visible;"/>
	</g>
</g>
<g>
	<defs>
		<rect id="SVGID_00000055679322727358090770000011699875226931045539_" x="137.3" y="216.6" width="23.8" height="23.9"/>
	</defs>
	<clipPath id="SVGID_00000182515330550110399610000008002015559284988301_">
		<use xlink:href="#SVGID_00000055679322727358090770000011699875226931045539_"  style="overflow:visible;"/>
	</clipPath>
	<g style="clip-path:url(#SVGID_00000182515330550110399610000008002015559284988301_);">
		
			<use xlink:href="#VSJ"  width="18.6" height="31.7" x="-9.3" y="-15.8" transform="matrix(-0.7447 0 0 -0.7468 149.2369 228.6417)" style="overflow:visible;"/>
	</g>
</g>
<g>
	<rect id="XSJ_00000075163253565979449680000017813961164657423025_" x="38.4" y="55.5" class="st8" width="98.9" height="152.6"/>
</g>
<g>
	<defs>
		<rect id="SVGID_00000104678742382542988240000009187494373840501923_" x="16.5" y="50.8" width="19.9" height="20"/>
	</defs>
	<clipPath id="SVGID_00000076573244546568938130000015525393345576494248_">
		<use xlink:href="#SVGID_00000104678742382542988240000009187494373840501923_"  style="overflow:visible;"/>
	</clipPath>
	
		<g transform="matrix(1 0 0 1 1.907349e-06 -3.814697e-06)" style="clip-path:url(#SVGID_00000076573244546568938130000015525393345576494248_);">
		
			<use xlink:href="#SST"  width="22.3" height="22.3" x="-11.2" y="-11.2" transform="matrix(0.7447 0 0 0.7468 26.5115 60.7783)" style="overflow:visible;"/>
	</g>
</g>
<g>
	<defs>
		<rect id="SVGID_00000080202908513492668200000010935041098958548921_" x="139.3" y="192.8" width="19.9" height="20"/>
	</defs>
	<clipPath id="SVGID_00000054232266130380062090000011549027715513950875_">
		<use xlink:href="#SVGID_00000080202908513492668200000010935041098958548921_"  style="overflow:visible;"/>
	</clipPath>
	<g style="clip-path:url(#SVGID_00000054232266130380062090000011549027715513950875_);">
		
			<use xlink:href="#SST"  width="22.3" height="22.3" x="-11.2" y="-11.2" transform="matrix(-0.7447 0 0 -0.7468 149.2365 202.8437)" style="overflow:visible;"/>
	</g>
</g>
</svg>
